M48
;GenerationSoftware,Autodesk,EAGLE,9.6.2*%
;CreationDate,2022-11-09T12:08:40Z*%
FMAT,2
ICI,OFF
METRIC,TZ,000.000
T6C0.350
T5C1.000
T4C1.016
T3C1.422
T2C1.500
T1C2.150
%
G90
M71
T1
X37846Y39370
X2794Y2667
X2794Y54102
X40132Y2667
T2
X40146Y44595
X40146Y51895
X34846Y44595
X34846Y51895
T3
X35390Y32400
X35390Y18400
X35390Y21900
X35390Y25400
X35390Y28900
T4
X25567Y39207
X23027Y34127
X25567Y34127
X23027Y39207
X25567Y36667
X23027Y36667
T5
X3556Y31750
X3556Y25908
X3556Y23368
X3556Y20828
X3556Y50419
X3556Y47879
X3556Y45339
X3556Y42799
X27178Y12446
X27178Y9906
X24638Y9906
X27178Y7366
X24638Y7366
X27178Y4826
X24638Y4826
X27178Y2286
X24638Y2286
X3556Y14986
X3556Y12446
X3556Y9906
X3556Y7366
X36322Y12446
X33782Y12446
X36322Y9906
X33782Y9906
X36322Y7366
X33782Y7366
X36322Y4826
X33782Y4826
X36322Y2286
X33782Y2286
X36846Y49995
X36846Y46495
X3556Y36830
X3556Y34290
X24638Y12446
T6
X25933Y32309
X21971Y27559
X12141Y26467
X9144Y28448
X30074Y8534
X40894Y42164
X24435Y47854
X21692Y49682
X23368Y43942
X21844Y41910
X18542Y31344
X31750Y29210
X28753Y29312
X22352Y31750
X18948Y10312
X15392Y54864
X17526Y47701
X20066Y46634
X14021Y47701
X8636Y47244
X13970Y43942
X21133Y51867
X21387Y47904
X28651Y51867
X24333Y51765
X28245Y49987
X25654Y21946
X14884Y16510
X19507Y18542
X19456Y16510
X18948Y24486
X32004Y54864
X31496Y51816
X29159Y42875
X32207Y38710
X16154Y33934
X32004Y26975
X32156Y23216
X32512Y31242
X35814Y36068
X32766Y44196
X29870Y24130
X16561Y38024
X27432Y38862
X11227Y45822
X11227Y54559
X28194Y45822
X29972Y25400
X17925Y54842
X30988Y24892
X15240Y40132
X17018Y24257
X13818Y36881
X16129Y23495
X15545Y19406
X1778Y5334
X20675Y28651
X22454Y9601
X12243Y10262
X18542Y40335
X19812Y22047
X32360Y19964
X31750Y21082
X14986Y21082
X15494Y12192
X15900Y8890
X18110Y5055
X17907Y10744
X16002Y21590
X29616Y21336
X31496Y17932
X31521Y19253
X23622Y26924
X21819Y18618
X21336Y40386
X8890Y16951
X10414Y48108
X31598Y46076
X31598Y47854
X12852Y47295
X14085Y53851
X15088Y52324
X30632Y53746
X30480Y37846
X29261Y37795
X28699Y53851
X16048Y35198
X12294Y28499
X17272Y22758
X18668Y12496
X9652Y21844
X11887Y7772
X19710Y7772
X26010Y23444
X25959Y13208
X28448Y17907
X27041Y26365
X18491Y29362
X26822Y29464
X21539Y29413
X7722Y17729
X26060Y26365
X13056Y29667
X14376Y18593
X21869Y16662
X24130Y25298
X26924Y16383
X26887Y21971
X11291Y25539
X10515Y19863
X21590Y12700
X32410Y49835
X16612Y28956
X18694Y27889
X28042Y32741
X25298Y24384
X2286Y29210
X2540Y17780
X2286Y40132
X5334Y1778
X13462Y1778
X22606Y1778
X30632Y1676
X29464Y4826
X40894Y5588
X38100Y9398
X40894Y19558
X41148Y35814
X9550Y24282
X20828Y54864
X5588Y54864
X17526Y43942
X37084Y54864
X23774Y49835
X16408Y18542
X18440Y21996
X11430Y12700
X9906Y4572
X12548Y38557
X6858Y33020
X7061Y22250
X20066Y4572
X22352Y7620
X11278Y30226
X11532Y36678
X32258Y35306
X33274Y40640
X9703Y52121
X6756Y43790
X8636Y38862
X21793Y22352
X15494Y6604
X41402Y11430
X15138Y10770
X8230Y11328
X20320Y12700
X10617Y18745
X16307Y36678
X20574Y37084
X20625Y31090
X16205Y31547
X41402Y27178
X28448Y16383
X39116Y14732
X38354Y23622
X38354Y30734
M30