M48
;GenerationSoftware,Autodesk,EAGLE,9.6.2*%
;CreationDate,2022-11-09T12:11:19Z*%
FMAT,2
ICI,OFF
METRIC,TZ,000.000
T5C0.350
T4C0.700
T3C1.000
T2C1.500
T1C2.100
%
G90
M71
T1
X9652Y18542
T2
X4318Y10414
T3
X12446Y12889
X12446Y10349
X12446Y7809
T4
X2318Y1464
X3078Y2814
X5618Y18014
X4318Y16564
X5588Y2794
X3048Y18034
T5
X4572Y1397
X1651Y4191
X1524Y8890
X6985Y19558
X1524Y14986
X4191Y6477
X1778Y19558
X9652Y1270
X8001Y14732
X10033Y9652
X10795Y16256
X6223Y8636
X3810Y12446
X8001Y11303
X10033Y14224
X9906Y6604
X5969Y15494
X7239Y4953
X5969Y11938
M30