G04 EAGLE Gerber RS-274X export*
G75*
%MOMM*%
%FSLAX34Y34*%
%LPD*%
%INCopper Layer 15*%
%IPPOS*%
%AMOC8*
5,1,8,0,0,1.08239X$1,22.5*%
G01*
%ADD10C,2.250000*%
%ADD11C,1.524000*%
%ADD12C,1.508000*%
%ADD13C,2.133600*%
%ADD14C,0.756400*%
%ADD15C,0.304800*%
%ADD16C,0.254000*%

G36*
X379877Y10926D02*
X379877Y10926D01*
X379896Y10924D01*
X379998Y10946D01*
X380100Y10962D01*
X380117Y10972D01*
X380137Y10976D01*
X380226Y11029D01*
X380317Y11078D01*
X380331Y11092D01*
X380348Y11102D01*
X380415Y11181D01*
X380487Y11256D01*
X380495Y11274D01*
X380508Y11289D01*
X380547Y11385D01*
X380590Y11479D01*
X380592Y11499D01*
X380600Y11517D01*
X380618Y11684D01*
X380618Y20585D01*
X380608Y20649D01*
X380607Y20715D01*
X380584Y20795D01*
X380579Y20827D01*
X380569Y20845D01*
X380560Y20876D01*
X380409Y21241D01*
X380409Y29559D01*
X383593Y37245D01*
X389475Y43127D01*
X397161Y46311D01*
X403596Y46311D01*
X403686Y46325D01*
X403777Y46333D01*
X403806Y46345D01*
X403838Y46350D01*
X403848Y46356D01*
X418328Y46356D01*
X418348Y46359D01*
X418367Y46357D01*
X418469Y46379D01*
X418571Y46395D01*
X418588Y46405D01*
X418608Y46409D01*
X418697Y46462D01*
X418788Y46511D01*
X418802Y46525D01*
X418819Y46535D01*
X418886Y46614D01*
X418958Y46689D01*
X418966Y46707D01*
X418979Y46722D01*
X419018Y46818D01*
X419061Y46912D01*
X419063Y46932D01*
X419071Y46950D01*
X419089Y47117D01*
X419089Y546872D01*
X419088Y546880D01*
X419088Y546882D01*
X419086Y546894D01*
X419075Y546962D01*
X419067Y547053D01*
X419055Y547083D01*
X419050Y547115D01*
X419007Y547195D01*
X418971Y547279D01*
X418945Y547311D01*
X418934Y547332D01*
X418911Y547354D01*
X418866Y547410D01*
X403422Y562854D01*
X403348Y562907D01*
X403279Y562967D01*
X403249Y562979D01*
X403223Y562998D01*
X403136Y563025D01*
X403051Y563059D01*
X403010Y563063D01*
X402987Y563070D01*
X402955Y563069D01*
X402884Y563077D01*
X184837Y563077D01*
X184792Y563070D01*
X184746Y563072D01*
X184671Y563050D01*
X184595Y563038D01*
X184554Y563016D01*
X184510Y563003D01*
X184446Y562959D01*
X184377Y562922D01*
X184346Y562889D01*
X184308Y562863D01*
X184262Y562801D01*
X184208Y562744D01*
X184189Y562702D01*
X184161Y562666D01*
X184137Y562592D01*
X184104Y562521D01*
X184099Y562475D01*
X184085Y562432D01*
X184086Y562354D01*
X184077Y562277D01*
X184087Y562232D01*
X184087Y562186D01*
X184125Y562054D01*
X184129Y562036D01*
X184132Y562032D01*
X184134Y562025D01*
X185079Y559744D01*
X185079Y557424D01*
X184191Y555280D01*
X182550Y553639D01*
X180406Y552751D01*
X178784Y552751D01*
X178694Y552737D01*
X178603Y552729D01*
X178573Y552717D01*
X178541Y552712D01*
X178461Y552669D01*
X178377Y552633D01*
X178345Y552607D01*
X178324Y552596D01*
X178302Y552573D01*
X178246Y552528D01*
X169406Y543688D01*
X169353Y543614D01*
X169293Y543545D01*
X169281Y543515D01*
X169262Y543488D01*
X169235Y543402D01*
X169201Y543317D01*
X169197Y543276D01*
X169190Y543253D01*
X169191Y543221D01*
X169183Y543150D01*
X169183Y395387D01*
X169197Y395297D01*
X169205Y395206D01*
X169217Y395177D01*
X169222Y395145D01*
X169265Y395064D01*
X169301Y394980D01*
X169327Y394948D01*
X169338Y394927D01*
X169361Y394905D01*
X169406Y394849D01*
X170553Y393702D01*
X171441Y391558D01*
X171441Y389238D01*
X170553Y387094D01*
X168912Y385453D01*
X166768Y384565D01*
X164448Y384565D01*
X162304Y385453D01*
X160663Y387094D01*
X159775Y389238D01*
X159775Y391558D01*
X160663Y393702D01*
X161810Y394849D01*
X161857Y394915D01*
X161868Y394926D01*
X161871Y394932D01*
X161923Y394992D01*
X161935Y395023D01*
X161954Y395049D01*
X161981Y395136D01*
X162015Y395221D01*
X162019Y395262D01*
X162026Y395284D01*
X162025Y395316D01*
X162033Y395387D01*
X162033Y546427D01*
X173190Y557584D01*
X173243Y557658D01*
X173303Y557727D01*
X173315Y557757D01*
X173334Y557784D01*
X173361Y557870D01*
X173395Y557955D01*
X173399Y557996D01*
X173406Y558019D01*
X173405Y558051D01*
X173413Y558122D01*
X173413Y559744D01*
X174358Y562025D01*
X174368Y562069D01*
X174388Y562111D01*
X174396Y562188D01*
X174414Y562264D01*
X174410Y562310D01*
X174415Y562355D01*
X174398Y562432D01*
X174391Y562509D01*
X174372Y562551D01*
X174363Y562596D01*
X174323Y562663D01*
X174291Y562734D01*
X174260Y562768D01*
X174236Y562807D01*
X174177Y562858D01*
X174125Y562915D01*
X174084Y562937D01*
X174049Y562967D01*
X173977Y562996D01*
X173909Y563033D01*
X173864Y563042D01*
X173821Y563059D01*
X173685Y563074D01*
X173667Y563077D01*
X173662Y563076D01*
X173655Y563077D01*
X113652Y563077D01*
X113556Y563062D01*
X113459Y563052D01*
X113435Y563042D01*
X113409Y563038D01*
X113323Y562992D01*
X113234Y562952D01*
X113215Y562935D01*
X113192Y562922D01*
X113125Y562852D01*
X113053Y562786D01*
X113040Y562763D01*
X113022Y562744D01*
X112981Y562656D01*
X112934Y562570D01*
X112930Y562545D01*
X112919Y562521D01*
X112908Y562424D01*
X112891Y562328D01*
X112895Y562302D01*
X112892Y562277D01*
X112912Y562181D01*
X112927Y562085D01*
X112938Y562062D01*
X112944Y562036D01*
X112994Y561953D01*
X113038Y561866D01*
X113057Y561847D01*
X113070Y561825D01*
X113144Y561762D01*
X113214Y561694D01*
X113242Y561678D01*
X113257Y561665D01*
X113288Y561653D01*
X113361Y561613D01*
X115572Y560697D01*
X117213Y559056D01*
X118101Y556912D01*
X118101Y554592D01*
X117213Y552448D01*
X116066Y551301D01*
X116013Y551227D01*
X115953Y551158D01*
X115941Y551127D01*
X115922Y551101D01*
X115895Y551014D01*
X115861Y550929D01*
X115857Y550888D01*
X115850Y550866D01*
X115851Y550834D01*
X115843Y550763D01*
X115843Y473365D01*
X115857Y473275D01*
X115865Y473184D01*
X115877Y473155D01*
X115882Y473123D01*
X115925Y473042D01*
X115961Y472958D01*
X115987Y472926D01*
X115998Y472905D01*
X116021Y472883D01*
X116066Y472827D01*
X117213Y471680D01*
X118101Y469536D01*
X118101Y467216D01*
X117213Y465072D01*
X115572Y463431D01*
X113428Y462543D01*
X111108Y462543D01*
X108964Y463431D01*
X108760Y463635D01*
X108702Y463677D01*
X108650Y463726D01*
X108603Y463748D01*
X108561Y463779D01*
X108492Y463800D01*
X108427Y463830D01*
X108375Y463836D01*
X108325Y463851D01*
X108254Y463849D01*
X108183Y463857D01*
X108132Y463846D01*
X108080Y463845D01*
X108012Y463820D01*
X107942Y463805D01*
X107897Y463778D01*
X107849Y463760D01*
X107793Y463715D01*
X107731Y463679D01*
X107697Y463639D01*
X107657Y463606D01*
X107618Y463546D01*
X107571Y463492D01*
X107552Y463443D01*
X107524Y463400D01*
X107506Y463330D01*
X107479Y463263D01*
X107471Y463192D01*
X107463Y463161D01*
X107465Y463138D01*
X107461Y463097D01*
X107461Y270191D01*
X107472Y270121D01*
X107474Y270049D01*
X107492Y270000D01*
X107500Y269949D01*
X107534Y269885D01*
X107559Y269818D01*
X107591Y269777D01*
X107616Y269731D01*
X107668Y269682D01*
X107712Y269626D01*
X107756Y269598D01*
X107794Y269562D01*
X107859Y269532D01*
X107919Y269493D01*
X107970Y269480D01*
X108017Y269458D01*
X108088Y269450D01*
X108158Y269433D01*
X108210Y269437D01*
X108261Y269431D01*
X108332Y269446D01*
X108403Y269452D01*
X108451Y269472D01*
X108502Y269483D01*
X108563Y269520D01*
X108629Y269548D01*
X108685Y269593D01*
X108713Y269609D01*
X108728Y269627D01*
X108760Y269653D01*
X109604Y270497D01*
X111748Y271385D01*
X114068Y271385D01*
X116212Y270497D01*
X117853Y268856D01*
X118741Y266712D01*
X118741Y264392D01*
X117853Y262248D01*
X116212Y260607D01*
X114068Y259719D01*
X111748Y259719D01*
X109604Y260607D01*
X108760Y261451D01*
X108702Y261493D01*
X108650Y261542D01*
X108603Y261564D01*
X108561Y261595D01*
X108492Y261616D01*
X108427Y261646D01*
X108375Y261652D01*
X108325Y261667D01*
X108254Y261665D01*
X108183Y261673D01*
X108132Y261662D01*
X108080Y261661D01*
X108012Y261636D01*
X107942Y261621D01*
X107897Y261594D01*
X107849Y261576D01*
X107793Y261531D01*
X107731Y261495D01*
X107697Y261455D01*
X107657Y261422D01*
X107618Y261362D01*
X107571Y261308D01*
X107552Y261259D01*
X107524Y261215D01*
X107506Y261146D01*
X107479Y261079D01*
X107471Y261008D01*
X107463Y260977D01*
X107465Y260954D01*
X107461Y260913D01*
X107461Y245860D01*
X97321Y235721D01*
X97294Y235684D01*
X97260Y235652D01*
X97223Y235584D01*
X97177Y235521D01*
X97164Y235477D01*
X97142Y235437D01*
X97128Y235360D01*
X97105Y235286D01*
X97106Y235240D01*
X97098Y235195D01*
X97109Y235118D01*
X97111Y235040D01*
X97127Y234997D01*
X97134Y234952D01*
X97169Y234882D01*
X97196Y234809D01*
X97225Y234773D01*
X97245Y234732D01*
X97301Y234678D01*
X97350Y234617D01*
X97388Y234592D01*
X97421Y234560D01*
X97541Y234494D01*
X97557Y234484D01*
X97561Y234483D01*
X97568Y234479D01*
X99824Y233545D01*
X101465Y231904D01*
X102353Y229760D01*
X102353Y227440D01*
X101465Y225296D01*
X100064Y223895D01*
X100011Y223821D01*
X99951Y223752D01*
X99939Y223721D01*
X99920Y223695D01*
X99893Y223608D01*
X99859Y223523D01*
X99855Y223482D01*
X99848Y223460D01*
X99849Y223428D01*
X99841Y223357D01*
X99841Y213569D01*
X99852Y213499D01*
X99854Y213427D01*
X99872Y213378D01*
X99880Y213327D01*
X99914Y213263D01*
X99939Y213196D01*
X99971Y213155D01*
X99996Y213109D01*
X100048Y213060D01*
X100092Y213004D01*
X100136Y212976D01*
X100174Y212940D01*
X100239Y212910D01*
X100299Y212871D01*
X100350Y212858D01*
X100397Y212836D01*
X100468Y212828D01*
X100538Y212811D01*
X100590Y212815D01*
X100641Y212809D01*
X100712Y212824D01*
X100783Y212830D01*
X100831Y212850D01*
X100882Y212861D01*
X100943Y212898D01*
X101009Y212926D01*
X101065Y212971D01*
X101093Y212987D01*
X101108Y213005D01*
X101140Y213031D01*
X101842Y213733D01*
X103986Y214621D01*
X106306Y214621D01*
X108450Y213733D01*
X110091Y212092D01*
X110979Y209948D01*
X110979Y207628D01*
X110091Y205484D01*
X108450Y203843D01*
X106306Y202955D01*
X103986Y202955D01*
X101842Y203843D01*
X101140Y204545D01*
X101082Y204587D01*
X101030Y204636D01*
X100983Y204658D01*
X100941Y204689D01*
X100872Y204710D01*
X100807Y204740D01*
X100755Y204746D01*
X100705Y204761D01*
X100634Y204759D01*
X100563Y204767D01*
X100512Y204756D01*
X100460Y204755D01*
X100392Y204730D01*
X100322Y204715D01*
X100277Y204688D01*
X100229Y204670D01*
X100173Y204625D01*
X100111Y204589D01*
X100077Y204549D01*
X100037Y204516D01*
X99998Y204456D01*
X99951Y204402D01*
X99932Y204353D01*
X99904Y204309D01*
X99886Y204240D01*
X99859Y204173D01*
X99851Y204102D01*
X99843Y204071D01*
X99845Y204048D01*
X99841Y204007D01*
X99841Y111927D01*
X99855Y111837D01*
X99863Y111746D01*
X99875Y111716D01*
X99880Y111684D01*
X99923Y111603D01*
X99959Y111520D01*
X99985Y111487D01*
X99996Y111467D01*
X100019Y111445D01*
X100064Y111389D01*
X117513Y93940D01*
X117586Y93887D01*
X117656Y93827D01*
X117686Y93815D01*
X117712Y93796D01*
X117799Y93769D01*
X117884Y93735D01*
X117925Y93731D01*
X117947Y93724D01*
X117980Y93725D01*
X118051Y93717D01*
X120032Y93717D01*
X122176Y92829D01*
X123817Y91188D01*
X124705Y89044D01*
X124705Y86724D01*
X123817Y84580D01*
X122176Y82939D01*
X120032Y82051D01*
X117712Y82051D01*
X115568Y82939D01*
X113927Y84580D01*
X113039Y86724D01*
X113039Y88705D01*
X113025Y88795D01*
X113017Y88886D01*
X113005Y88916D01*
X113000Y88948D01*
X112957Y89029D01*
X112921Y89112D01*
X112895Y89145D01*
X112884Y89165D01*
X112861Y89187D01*
X112816Y89243D01*
X93199Y108860D01*
X93199Y174000D01*
X93192Y174045D01*
X93194Y174091D01*
X93172Y174166D01*
X93160Y174243D01*
X93138Y174283D01*
X93125Y174328D01*
X93081Y174392D01*
X93044Y174460D01*
X93011Y174492D01*
X92985Y174530D01*
X92923Y174576D01*
X92866Y174630D01*
X92824Y174649D01*
X92788Y174676D01*
X92714Y174701D01*
X92643Y174733D01*
X92597Y174738D01*
X92554Y174753D01*
X92476Y174752D01*
X92399Y174760D01*
X92354Y174751D01*
X92308Y174750D01*
X92176Y174712D01*
X92158Y174708D01*
X92154Y174706D01*
X92147Y174704D01*
X90060Y173839D01*
X87740Y173839D01*
X85596Y174727D01*
X83955Y176368D01*
X83067Y178512D01*
X83067Y180832D01*
X83955Y182976D01*
X85356Y184377D01*
X85409Y184451D01*
X85469Y184520D01*
X85481Y184551D01*
X85500Y184577D01*
X85527Y184664D01*
X85561Y184749D01*
X85565Y184790D01*
X85572Y184812D01*
X85571Y184844D01*
X85579Y184915D01*
X85579Y233372D01*
X100596Y248389D01*
X100649Y248462D01*
X100709Y248532D01*
X100721Y248562D01*
X100740Y248588D01*
X100767Y248675D01*
X100801Y248760D01*
X100805Y248801D01*
X100812Y248823D01*
X100811Y248856D01*
X100819Y248927D01*
X100819Y485993D01*
X100805Y486083D01*
X100797Y486174D01*
X100785Y486203D01*
X100780Y486235D01*
X100737Y486316D01*
X100701Y486400D01*
X100675Y486432D01*
X100664Y486453D01*
X100641Y486475D01*
X100596Y486531D01*
X99195Y487932D01*
X98307Y490076D01*
X98307Y492396D01*
X99195Y494540D01*
X100836Y496181D01*
X102980Y497069D01*
X105300Y497069D01*
X107474Y496168D01*
X107504Y496140D01*
X107551Y496118D01*
X107593Y496088D01*
X107662Y496066D01*
X107727Y496036D01*
X107779Y496030D01*
X107828Y496015D01*
X107900Y496017D01*
X107971Y496009D01*
X108022Y496020D01*
X108074Y496021D01*
X108142Y496046D01*
X108212Y496061D01*
X108256Y496088D01*
X108305Y496106D01*
X108361Y496151D01*
X108423Y496187D01*
X108457Y496227D01*
X108497Y496259D01*
X108536Y496320D01*
X108583Y496374D01*
X108602Y496423D01*
X108630Y496466D01*
X108648Y496536D01*
X108675Y496603D01*
X108683Y496674D01*
X108691Y496705D01*
X108689Y496728D01*
X108693Y496769D01*
X108693Y550763D01*
X108679Y550853D01*
X108671Y550944D01*
X108659Y550973D01*
X108654Y551005D01*
X108611Y551086D01*
X108575Y551170D01*
X108549Y551202D01*
X108538Y551223D01*
X108515Y551245D01*
X108470Y551301D01*
X107323Y552448D01*
X106435Y554592D01*
X106435Y556912D01*
X107323Y559056D01*
X108964Y560697D01*
X111175Y561613D01*
X111258Y561664D01*
X111344Y561710D01*
X111362Y561728D01*
X111384Y561742D01*
X111447Y561818D01*
X111514Y561888D01*
X111525Y561912D01*
X111541Y561932D01*
X111576Y562023D01*
X111617Y562111D01*
X111620Y562137D01*
X111629Y562161D01*
X111634Y562259D01*
X111644Y562355D01*
X111639Y562381D01*
X111640Y562407D01*
X111613Y562501D01*
X111592Y562596D01*
X111579Y562618D01*
X111571Y562643D01*
X111516Y562723D01*
X111466Y562807D01*
X111446Y562824D01*
X111431Y562845D01*
X111353Y562904D01*
X111279Y562967D01*
X111255Y562977D01*
X111234Y562992D01*
X111141Y563022D01*
X111051Y563059D01*
X111018Y563062D01*
X111000Y563068D01*
X110967Y563068D01*
X110884Y563077D01*
X49403Y563077D01*
X49383Y563074D01*
X49364Y563076D01*
X49262Y563054D01*
X49160Y563038D01*
X49143Y563028D01*
X49123Y563024D01*
X49034Y562971D01*
X48943Y562922D01*
X48929Y562908D01*
X48912Y562898D01*
X48845Y562819D01*
X48773Y562744D01*
X48765Y562726D01*
X48752Y562711D01*
X48713Y562615D01*
X48670Y562521D01*
X48668Y562501D01*
X48660Y562483D01*
X48642Y562316D01*
X48642Y555995D01*
X48651Y555942D01*
X48650Y555938D01*
X48652Y555928D01*
X48653Y555865D01*
X48676Y555785D01*
X48681Y555753D01*
X48691Y555735D01*
X48700Y555704D01*
X48851Y555339D01*
X48851Y547021D01*
X45667Y539335D01*
X39785Y533453D01*
X32099Y530269D01*
X23781Y530269D01*
X23416Y530420D01*
X23352Y530435D01*
X23291Y530460D01*
X23208Y530469D01*
X23176Y530476D01*
X23157Y530475D01*
X23125Y530478D01*
X11684Y530478D01*
X11664Y530475D01*
X11645Y530477D01*
X11543Y530455D01*
X11441Y530439D01*
X11424Y530429D01*
X11404Y530425D01*
X11315Y530372D01*
X11224Y530323D01*
X11210Y530309D01*
X11193Y530299D01*
X11126Y530220D01*
X11054Y530145D01*
X11046Y530127D01*
X11033Y530112D01*
X10994Y530016D01*
X10951Y529922D01*
X10949Y529902D01*
X10941Y529884D01*
X10923Y529717D01*
X10923Y511315D01*
X10926Y511295D01*
X10924Y511275D01*
X10946Y511174D01*
X10962Y511072D01*
X10972Y511054D01*
X10976Y511035D01*
X11029Y510946D01*
X11078Y510855D01*
X11092Y510841D01*
X11102Y510824D01*
X11181Y510756D01*
X11256Y510685D01*
X11274Y510677D01*
X11289Y510664D01*
X11385Y510625D01*
X11479Y510582D01*
X11499Y510579D01*
X11517Y510572D01*
X11684Y510553D01*
X25146Y510553D01*
X25162Y510556D01*
X25178Y510554D01*
X25283Y510576D01*
X25389Y510593D01*
X25403Y510601D01*
X25419Y510604D01*
X25512Y510658D01*
X25606Y510708D01*
X25617Y510720D01*
X25631Y510728D01*
X25702Y510809D01*
X25776Y510887D01*
X25783Y510901D01*
X25793Y510913D01*
X25834Y511012D01*
X25879Y511110D01*
X25881Y511126D01*
X25887Y511140D01*
X25895Y511248D01*
X25907Y511354D01*
X25903Y511370D01*
X25904Y511386D01*
X25870Y511550D01*
X25727Y511989D01*
X25595Y512827D01*
X34798Y512827D01*
X34818Y512830D01*
X34837Y512828D01*
X34939Y512850D01*
X35041Y512867D01*
X35058Y512876D01*
X35078Y512880D01*
X35167Y512933D01*
X35258Y512982D01*
X35272Y512996D01*
X35289Y513006D01*
X35356Y513085D01*
X35427Y513160D01*
X35436Y513178D01*
X35449Y513193D01*
X35487Y513289D01*
X35531Y513383D01*
X35533Y513403D01*
X35541Y513421D01*
X35559Y513588D01*
X35559Y514351D01*
X35561Y514351D01*
X35561Y513588D01*
X35564Y513568D01*
X35562Y513549D01*
X35584Y513447D01*
X35601Y513345D01*
X35610Y513328D01*
X35614Y513308D01*
X35667Y513219D01*
X35716Y513128D01*
X35730Y513114D01*
X35740Y513097D01*
X35819Y513030D01*
X35894Y512959D01*
X35912Y512950D01*
X35927Y512937D01*
X36023Y512898D01*
X36117Y512855D01*
X36137Y512853D01*
X36155Y512845D01*
X36322Y512827D01*
X45525Y512827D01*
X45393Y511989D01*
X45250Y511550D01*
X45247Y511534D01*
X45241Y511520D01*
X45229Y511413D01*
X45212Y511307D01*
X45215Y511291D01*
X45213Y511275D01*
X45236Y511170D01*
X45255Y511065D01*
X45262Y511050D01*
X45266Y511035D01*
X45321Y510943D01*
X45372Y510848D01*
X45384Y510837D01*
X45392Y510824D01*
X45474Y510754D01*
X45552Y510681D01*
X45567Y510674D01*
X45579Y510664D01*
X45679Y510624D01*
X45776Y510579D01*
X45792Y510578D01*
X45807Y510572D01*
X45974Y510553D01*
X50806Y510553D01*
X50813Y510546D01*
X50813Y477514D01*
X50806Y477507D01*
X50479Y477507D01*
X33795Y477507D01*
X33775Y477503D01*
X33755Y477506D01*
X33654Y477484D01*
X33552Y477467D01*
X33534Y477458D01*
X33515Y477453D01*
X33426Y477400D01*
X33335Y477352D01*
X33321Y477337D01*
X33304Y477327D01*
X33236Y477248D01*
X33165Y477173D01*
X33157Y477155D01*
X33144Y477140D01*
X33105Y477044D01*
X33062Y476950D01*
X33059Y476931D01*
X33052Y476912D01*
X33033Y476745D01*
X33033Y474248D01*
X33046Y474169D01*
X33050Y474090D01*
X33066Y474048D01*
X33073Y474005D01*
X33110Y473935D01*
X33139Y473860D01*
X33168Y473826D01*
X33188Y473787D01*
X33246Y473733D01*
X33297Y473672D01*
X33335Y473648D01*
X33367Y473618D01*
X33439Y473585D01*
X33507Y473543D01*
X33550Y473533D01*
X33590Y473514D01*
X33669Y473506D01*
X33746Y473488D01*
X33805Y473491D01*
X33834Y473487D01*
X33861Y473493D01*
X33914Y473496D01*
X34037Y473515D01*
X34037Y464312D01*
X34040Y464292D01*
X34038Y464273D01*
X34060Y464171D01*
X34077Y464069D01*
X34086Y464052D01*
X34090Y464032D01*
X34143Y463943D01*
X34192Y463852D01*
X34206Y463838D01*
X34216Y463821D01*
X34295Y463754D01*
X34370Y463683D01*
X34388Y463674D01*
X34403Y463661D01*
X34499Y463623D01*
X34593Y463579D01*
X34613Y463577D01*
X34631Y463569D01*
X34798Y463551D01*
X35561Y463551D01*
X35561Y463549D01*
X34798Y463549D01*
X34778Y463546D01*
X34759Y463548D01*
X34657Y463526D01*
X34555Y463509D01*
X34538Y463500D01*
X34518Y463496D01*
X34429Y463443D01*
X34338Y463394D01*
X34324Y463380D01*
X34307Y463370D01*
X34240Y463291D01*
X34169Y463216D01*
X34160Y463198D01*
X34147Y463183D01*
X34108Y463087D01*
X34065Y462993D01*
X34063Y462973D01*
X34055Y462955D01*
X34037Y462788D01*
X34037Y453585D01*
X33914Y453604D01*
X33834Y453604D01*
X33755Y453613D01*
X33712Y453603D01*
X33668Y453603D01*
X33593Y453577D01*
X33515Y453560D01*
X33477Y453538D01*
X33435Y453523D01*
X33372Y453475D01*
X33304Y453434D01*
X33275Y453401D01*
X33240Y453374D01*
X33196Y453308D01*
X33144Y453247D01*
X33127Y453206D01*
X33103Y453170D01*
X33082Y453093D01*
X33052Y453019D01*
X33045Y452961D01*
X33038Y452932D01*
X33039Y452905D01*
X33033Y452852D01*
X33033Y450355D01*
X33037Y450335D01*
X33034Y450315D01*
X33056Y450214D01*
X33073Y450112D01*
X33082Y450094D01*
X33087Y450075D01*
X33140Y449986D01*
X33188Y449895D01*
X33203Y449881D01*
X33213Y449864D01*
X33292Y449796D01*
X33367Y449725D01*
X33385Y449717D01*
X33400Y449704D01*
X33496Y449665D01*
X33590Y449622D01*
X33609Y449619D01*
X33628Y449612D01*
X33795Y449593D01*
X50806Y449593D01*
X50813Y449586D01*
X50813Y424174D01*
X50806Y424167D01*
X50479Y424167D01*
X11684Y424167D01*
X11664Y424163D01*
X11645Y424166D01*
X11543Y424144D01*
X11441Y424127D01*
X11424Y424118D01*
X11404Y424113D01*
X11315Y424060D01*
X11224Y424012D01*
X11210Y423997D01*
X11193Y423987D01*
X11126Y423908D01*
X11054Y423833D01*
X11046Y423815D01*
X11033Y423800D01*
X10994Y423704D01*
X10951Y423610D01*
X10949Y423591D01*
X10941Y423572D01*
X10923Y423405D01*
X10923Y376695D01*
X10926Y376675D01*
X10924Y376655D01*
X10946Y376554D01*
X10962Y376452D01*
X10972Y376434D01*
X10976Y376415D01*
X11029Y376326D01*
X11078Y376235D01*
X11092Y376221D01*
X11102Y376204D01*
X11181Y376136D01*
X11256Y376065D01*
X11274Y376057D01*
X11289Y376044D01*
X11385Y376005D01*
X11479Y375962D01*
X11499Y375959D01*
X11517Y375952D01*
X11684Y375933D01*
X24862Y375933D01*
X24941Y375946D01*
X25020Y375950D01*
X25062Y375966D01*
X25105Y375973D01*
X25175Y376010D01*
X25250Y376039D01*
X25284Y376068D01*
X25323Y376088D01*
X25377Y376146D01*
X25438Y376197D01*
X25462Y376235D01*
X25492Y376267D01*
X25525Y376339D01*
X25567Y376407D01*
X25577Y376450D01*
X25596Y376490D01*
X25604Y376569D01*
X25622Y376646D01*
X25619Y376705D01*
X25623Y376734D01*
X25617Y376761D01*
X25614Y376814D01*
X25595Y376937D01*
X34798Y376937D01*
X34818Y376940D01*
X34837Y376938D01*
X34939Y376960D01*
X35041Y376977D01*
X35058Y376986D01*
X35078Y376990D01*
X35167Y377043D01*
X35258Y377092D01*
X35272Y377106D01*
X35289Y377116D01*
X35356Y377195D01*
X35427Y377270D01*
X35436Y377288D01*
X35449Y377303D01*
X35487Y377399D01*
X35531Y377493D01*
X35533Y377513D01*
X35541Y377531D01*
X35559Y377698D01*
X35559Y378461D01*
X35561Y378461D01*
X35561Y377698D01*
X35564Y377678D01*
X35562Y377659D01*
X35584Y377557D01*
X35601Y377455D01*
X35610Y377438D01*
X35614Y377418D01*
X35667Y377329D01*
X35716Y377238D01*
X35730Y377224D01*
X35740Y377207D01*
X35819Y377140D01*
X35894Y377069D01*
X35912Y377060D01*
X35927Y377047D01*
X36023Y377008D01*
X36117Y376965D01*
X36137Y376963D01*
X36155Y376955D01*
X36322Y376937D01*
X45525Y376937D01*
X45506Y376814D01*
X45506Y376734D01*
X45497Y376655D01*
X45507Y376612D01*
X45507Y376568D01*
X45533Y376493D01*
X45550Y376415D01*
X45572Y376377D01*
X45587Y376335D01*
X45635Y376272D01*
X45676Y376204D01*
X45709Y376175D01*
X45736Y376140D01*
X45802Y376096D01*
X45863Y376044D01*
X45904Y376027D01*
X45940Y376003D01*
X46017Y375982D01*
X46091Y375952D01*
X46149Y375945D01*
X46178Y375938D01*
X46205Y375939D01*
X46258Y375933D01*
X58426Y375933D01*
X58433Y375926D01*
X58433Y314954D01*
X58426Y314947D01*
X58099Y314947D01*
X11684Y314947D01*
X11664Y314943D01*
X11645Y314946D01*
X11543Y314924D01*
X11441Y314907D01*
X11424Y314898D01*
X11404Y314893D01*
X11315Y314840D01*
X11224Y314792D01*
X11210Y314777D01*
X11193Y314767D01*
X11126Y314688D01*
X11054Y314613D01*
X11046Y314595D01*
X11033Y314580D01*
X10994Y314484D01*
X10951Y314390D01*
X10949Y314371D01*
X10941Y314352D01*
X10923Y314185D01*
X10923Y267475D01*
X10926Y267455D01*
X10924Y267435D01*
X10946Y267334D01*
X10962Y267232D01*
X10972Y267214D01*
X10976Y267195D01*
X11029Y267106D01*
X11078Y267015D01*
X11092Y267001D01*
X11102Y266984D01*
X11181Y266916D01*
X11256Y266845D01*
X11274Y266837D01*
X11289Y266824D01*
X11385Y266785D01*
X11479Y266742D01*
X11499Y266739D01*
X11517Y266732D01*
X11684Y266713D01*
X24862Y266713D01*
X24941Y266726D01*
X25020Y266730D01*
X25062Y266746D01*
X25105Y266753D01*
X25175Y266790D01*
X25250Y266819D01*
X25284Y266848D01*
X25323Y266868D01*
X25377Y266926D01*
X25438Y266977D01*
X25462Y267015D01*
X25492Y267047D01*
X25525Y267119D01*
X25567Y267187D01*
X25577Y267230D01*
X25596Y267270D01*
X25604Y267349D01*
X25622Y267426D01*
X25619Y267485D01*
X25623Y267514D01*
X25617Y267541D01*
X25614Y267594D01*
X25595Y267717D01*
X34798Y267717D01*
X34818Y267720D01*
X34837Y267718D01*
X34939Y267740D01*
X35041Y267757D01*
X35058Y267766D01*
X35078Y267770D01*
X35167Y267823D01*
X35258Y267872D01*
X35272Y267886D01*
X35289Y267896D01*
X35356Y267975D01*
X35427Y268050D01*
X35436Y268068D01*
X35449Y268083D01*
X35487Y268179D01*
X35531Y268273D01*
X35533Y268293D01*
X35541Y268311D01*
X35559Y268478D01*
X35559Y269241D01*
X35561Y269241D01*
X35561Y268478D01*
X35564Y268458D01*
X35562Y268439D01*
X35584Y268337D01*
X35601Y268235D01*
X35610Y268218D01*
X35614Y268198D01*
X35667Y268109D01*
X35716Y268018D01*
X35730Y268004D01*
X35740Y267987D01*
X35819Y267920D01*
X35894Y267849D01*
X35912Y267840D01*
X35927Y267827D01*
X36023Y267788D01*
X36117Y267745D01*
X36137Y267743D01*
X36155Y267735D01*
X36322Y267717D01*
X45525Y267717D01*
X45506Y267594D01*
X45506Y267514D01*
X45497Y267435D01*
X45507Y267392D01*
X45507Y267348D01*
X45533Y267273D01*
X45550Y267195D01*
X45572Y267157D01*
X45587Y267115D01*
X45635Y267052D01*
X45676Y266984D01*
X45709Y266955D01*
X45736Y266920D01*
X45802Y266876D01*
X45863Y266824D01*
X45904Y266807D01*
X45940Y266783D01*
X46017Y266762D01*
X46091Y266732D01*
X46149Y266725D01*
X46178Y266718D01*
X46205Y266719D01*
X46258Y266713D01*
X58426Y266713D01*
X58433Y266706D01*
X58433Y205734D01*
X58426Y205727D01*
X58099Y205727D01*
X11684Y205727D01*
X11664Y205723D01*
X11645Y205726D01*
X11543Y205704D01*
X11441Y205687D01*
X11424Y205678D01*
X11404Y205673D01*
X11315Y205620D01*
X11224Y205572D01*
X11210Y205557D01*
X11193Y205547D01*
X11126Y205468D01*
X11054Y205393D01*
X11046Y205375D01*
X11033Y205360D01*
X10994Y205264D01*
X10951Y205170D01*
X10949Y205151D01*
X10941Y205132D01*
X10923Y204965D01*
X10923Y173495D01*
X10926Y173475D01*
X10924Y173455D01*
X10946Y173354D01*
X10962Y173252D01*
X10972Y173234D01*
X10976Y173215D01*
X11029Y173126D01*
X11078Y173035D01*
X11092Y173021D01*
X11102Y173004D01*
X11181Y172936D01*
X11256Y172865D01*
X11274Y172857D01*
X11289Y172844D01*
X11385Y172805D01*
X11479Y172762D01*
X11499Y172759D01*
X11517Y172752D01*
X11684Y172733D01*
X58426Y172733D01*
X58433Y172726D01*
X58433Y71114D01*
X58426Y71107D01*
X58099Y71107D01*
X11684Y71107D01*
X11664Y71103D01*
X11645Y71106D01*
X11543Y71084D01*
X11441Y71067D01*
X11424Y71058D01*
X11404Y71053D01*
X11315Y71000D01*
X11224Y70952D01*
X11210Y70937D01*
X11193Y70927D01*
X11126Y70848D01*
X11054Y70773D01*
X11046Y70755D01*
X11033Y70740D01*
X10994Y70644D01*
X10951Y70550D01*
X10949Y70531D01*
X10941Y70512D01*
X10923Y70345D01*
X10923Y47117D01*
X10926Y47097D01*
X10924Y47078D01*
X10946Y46976D01*
X10962Y46874D01*
X10972Y46857D01*
X10976Y46837D01*
X11029Y46748D01*
X11078Y46657D01*
X11092Y46643D01*
X11102Y46626D01*
X11181Y46559D01*
X11256Y46487D01*
X11274Y46479D01*
X11289Y46466D01*
X11385Y46427D01*
X11479Y46384D01*
X11499Y46382D01*
X11517Y46374D01*
X11684Y46356D01*
X25940Y46356D01*
X26006Y46329D01*
X26047Y46325D01*
X26069Y46318D01*
X26101Y46319D01*
X26172Y46311D01*
X32099Y46311D01*
X39785Y43127D01*
X45667Y37245D01*
X48851Y29559D01*
X48851Y25156D01*
X48865Y25066D01*
X48873Y24975D01*
X48885Y24946D01*
X48890Y24914D01*
X48933Y24833D01*
X48969Y24749D01*
X48995Y24717D01*
X49006Y24696D01*
X49029Y24674D01*
X49074Y24618D01*
X49150Y24542D01*
X49150Y11684D01*
X49153Y11664D01*
X49151Y11645D01*
X49173Y11543D01*
X49189Y11441D01*
X49199Y11424D01*
X49203Y11404D01*
X49256Y11315D01*
X49305Y11224D01*
X49319Y11210D01*
X49329Y11193D01*
X49408Y11126D01*
X49483Y11054D01*
X49501Y11046D01*
X49516Y11033D01*
X49612Y10994D01*
X49706Y10951D01*
X49726Y10949D01*
X49744Y10941D01*
X49911Y10923D01*
X379857Y10923D01*
X379877Y10926D01*
G37*
%LPC*%
G36*
X375599Y17767D02*
X375599Y17767D01*
X325114Y17767D01*
X325107Y17774D01*
X325107Y18101D01*
X325107Y84818D01*
X325103Y84838D01*
X325106Y84857D01*
X325084Y84959D01*
X325067Y85061D01*
X325058Y85078D01*
X325053Y85098D01*
X325000Y85187D01*
X324952Y85278D01*
X324937Y85292D01*
X324927Y85309D01*
X324848Y85376D01*
X324773Y85448D01*
X324755Y85456D01*
X324740Y85469D01*
X324644Y85508D01*
X324550Y85551D01*
X324531Y85553D01*
X324512Y85561D01*
X324345Y85579D01*
X321204Y85579D01*
X306296Y100487D01*
X306223Y100540D01*
X306153Y100600D01*
X306123Y100612D01*
X306097Y100631D01*
X306010Y100658D01*
X305925Y100692D01*
X305884Y100696D01*
X305862Y100703D01*
X305829Y100702D01*
X305758Y100710D01*
X296182Y100710D01*
X296162Y100707D01*
X296143Y100709D01*
X296041Y100687D01*
X295939Y100671D01*
X295922Y100661D01*
X295902Y100657D01*
X295813Y100604D01*
X295722Y100555D01*
X295708Y100541D01*
X295691Y100531D01*
X295624Y100452D01*
X295552Y100377D01*
X295544Y100359D01*
X295531Y100344D01*
X295525Y100329D01*
X288396Y93199D01*
X285255Y93199D01*
X285235Y93196D01*
X285215Y93198D01*
X285114Y93176D01*
X285012Y93160D01*
X284994Y93150D01*
X284975Y93146D01*
X284886Y93093D01*
X284795Y93044D01*
X284781Y93030D01*
X284764Y93020D01*
X284696Y92941D01*
X284625Y92866D01*
X284617Y92848D01*
X284604Y92833D01*
X284565Y92737D01*
X284522Y92643D01*
X284519Y92623D01*
X284512Y92605D01*
X284493Y92438D01*
X284493Y71114D01*
X284486Y71107D01*
X284159Y71107D01*
X259855Y71107D01*
X259835Y71103D01*
X259815Y71106D01*
X259714Y71084D01*
X259612Y71067D01*
X259594Y71058D01*
X259575Y71053D01*
X259486Y71000D01*
X259395Y70952D01*
X259381Y70937D01*
X259364Y70927D01*
X259296Y70848D01*
X259225Y70773D01*
X259217Y70755D01*
X259204Y70740D01*
X259165Y70644D01*
X259122Y70550D01*
X259119Y70531D01*
X259112Y70512D01*
X259093Y70345D01*
X259093Y46495D01*
X259097Y46475D01*
X259094Y46455D01*
X259116Y46354D01*
X259133Y46252D01*
X259142Y46234D01*
X259147Y46215D01*
X259200Y46126D01*
X259248Y46035D01*
X259263Y46021D01*
X259273Y46004D01*
X259352Y45936D01*
X259427Y45865D01*
X259445Y45857D01*
X259460Y45844D01*
X259556Y45805D01*
X259650Y45762D01*
X259669Y45759D01*
X259688Y45752D01*
X259855Y45733D01*
X284486Y45733D01*
X284493Y45726D01*
X284493Y20314D01*
X284486Y20307D01*
X284159Y20307D01*
X233674Y20307D01*
X233667Y20314D01*
X233667Y20641D01*
X233667Y149539D01*
X233667Y149866D01*
X233674Y149873D01*
X262210Y149873D01*
X262300Y149888D01*
X262391Y149895D01*
X262421Y149908D01*
X262453Y149913D01*
X262533Y149956D01*
X262617Y149992D01*
X262649Y150017D01*
X262670Y150028D01*
X262692Y150052D01*
X262748Y150096D01*
X273316Y160665D01*
X273369Y160738D01*
X273429Y160808D01*
X273441Y160838D01*
X273460Y160864D01*
X273487Y160951D01*
X273521Y161036D01*
X273525Y161077D01*
X273532Y161099D01*
X273531Y161132D01*
X273539Y161203D01*
X273539Y168318D01*
X273532Y168363D01*
X273534Y168409D01*
X273512Y168484D01*
X273500Y168561D01*
X273478Y168601D01*
X273465Y168646D01*
X273421Y168710D01*
X273384Y168778D01*
X273351Y168810D01*
X273325Y168848D01*
X273263Y168894D01*
X273206Y168948D01*
X273164Y168967D01*
X273128Y168994D01*
X273054Y169019D01*
X272983Y169051D01*
X272937Y169056D01*
X272894Y169071D01*
X272816Y169070D01*
X272739Y169078D01*
X272694Y169069D01*
X272648Y169068D01*
X272516Y169030D01*
X272498Y169026D01*
X272494Y169024D01*
X272487Y169022D01*
X270400Y168157D01*
X268080Y168157D01*
X265936Y169045D01*
X264295Y170686D01*
X263407Y172830D01*
X263407Y175150D01*
X264295Y177294D01*
X265696Y178695D01*
X265749Y178769D01*
X265809Y178838D01*
X265821Y178868D01*
X265840Y178895D01*
X265867Y178982D01*
X265901Y179067D01*
X265905Y179107D01*
X265912Y179130D01*
X265911Y179162D01*
X265919Y179233D01*
X265919Y225783D01*
X265904Y225873D01*
X265897Y225964D01*
X265885Y225994D01*
X265879Y226026D01*
X265837Y226106D01*
X265801Y226190D01*
X265775Y226222D01*
X265764Y226243D01*
X265741Y226265D01*
X265696Y226321D01*
X264435Y227582D01*
X263547Y229726D01*
X263547Y232046D01*
X264435Y234190D01*
X266076Y235831D01*
X268220Y236719D01*
X269573Y236719D01*
X269644Y236730D01*
X269716Y236732D01*
X269765Y236750D01*
X269816Y236758D01*
X269879Y236792D01*
X269947Y236817D01*
X269987Y236849D01*
X270033Y236874D01*
X270083Y236926D01*
X270139Y236970D01*
X270167Y237014D01*
X270203Y237052D01*
X270233Y237117D01*
X270272Y237177D01*
X270284Y237228D01*
X270306Y237275D01*
X270314Y237346D01*
X270332Y237416D01*
X270328Y237468D01*
X270333Y237519D01*
X270318Y237590D01*
X270313Y237661D01*
X270292Y237709D01*
X270281Y237760D01*
X270244Y237821D01*
X270216Y237887D01*
X270172Y237943D01*
X270155Y237971D01*
X270137Y237986D01*
X270112Y238018D01*
X267071Y241058D01*
X266997Y241111D01*
X266928Y241171D01*
X266898Y241183D01*
X266872Y241202D01*
X266785Y241229D01*
X266700Y241263D01*
X266659Y241267D01*
X266637Y241274D01*
X266604Y241273D01*
X266533Y241281D01*
X265339Y241281D01*
X265249Y241267D01*
X265158Y241259D01*
X265129Y241247D01*
X265097Y241242D01*
X265016Y241199D01*
X264932Y241163D01*
X264900Y241137D01*
X264879Y241126D01*
X264857Y241103D01*
X264801Y241058D01*
X263400Y239657D01*
X261256Y238769D01*
X258936Y238769D01*
X256792Y239657D01*
X255151Y241298D01*
X254263Y243442D01*
X254263Y245762D01*
X255151Y247906D01*
X256704Y249459D01*
X256753Y249526D01*
X256753Y249527D01*
X256754Y249528D01*
X256757Y249533D01*
X256817Y249602D01*
X256829Y249633D01*
X256848Y249659D01*
X256875Y249746D01*
X256909Y249831D01*
X256913Y249872D01*
X256920Y249894D01*
X256919Y249926D01*
X256927Y249997D01*
X256927Y268925D01*
X256913Y269015D01*
X256905Y269106D01*
X256893Y269135D01*
X256888Y269167D01*
X256845Y269248D01*
X256809Y269332D01*
X256783Y269364D01*
X256772Y269385D01*
X256749Y269407D01*
X256704Y269463D01*
X255659Y270508D01*
X254771Y272652D01*
X254771Y274972D01*
X255659Y277116D01*
X257300Y278757D01*
X259444Y279645D01*
X261764Y279645D01*
X263908Y278757D01*
X264968Y277697D01*
X264984Y277685D01*
X264996Y277670D01*
X265084Y277614D01*
X265167Y277553D01*
X265186Y277548D01*
X265203Y277537D01*
X265304Y277512D01*
X265403Y277481D01*
X265422Y277482D01*
X265442Y277477D01*
X265545Y277485D01*
X265648Y277487D01*
X265667Y277494D01*
X265687Y277496D01*
X265782Y277536D01*
X265879Y277572D01*
X265895Y277584D01*
X265913Y277592D01*
X266044Y277697D01*
X267104Y278757D01*
X269248Y279645D01*
X271568Y279645D01*
X273712Y278757D01*
X275353Y277116D01*
X276241Y274972D01*
X276241Y272652D01*
X275353Y270508D01*
X273952Y269107D01*
X273899Y269033D01*
X273839Y268964D01*
X273827Y268933D01*
X273808Y268907D01*
X273781Y268820D01*
X273747Y268735D01*
X273743Y268694D01*
X273736Y268672D01*
X273737Y268640D01*
X273729Y268569D01*
X273729Y254523D01*
X273732Y254503D01*
X273730Y254483D01*
X273745Y254414D01*
X273751Y254342D01*
X273763Y254312D01*
X273768Y254280D01*
X273778Y254262D01*
X273782Y254243D01*
X273819Y254182D01*
X273847Y254116D01*
X273873Y254083D01*
X273884Y254063D01*
X273898Y254049D01*
X273908Y254032D01*
X273926Y254017D01*
X273952Y253985D01*
X287801Y240136D01*
X287801Y221691D01*
X287812Y221620D01*
X287814Y221548D01*
X287832Y221499D01*
X287840Y221448D01*
X287874Y221385D01*
X287899Y221317D01*
X287931Y221277D01*
X287956Y221231D01*
X288008Y221181D01*
X288052Y221125D01*
X288096Y221097D01*
X288134Y221061D01*
X288199Y221031D01*
X288259Y220992D01*
X288310Y220980D01*
X288357Y220958D01*
X288428Y220950D01*
X288498Y220932D01*
X288550Y220936D01*
X288601Y220931D01*
X288672Y220946D01*
X288743Y220951D01*
X288791Y220972D01*
X288842Y220983D01*
X288903Y221020D01*
X288969Y221048D01*
X289025Y221092D01*
X289053Y221109D01*
X289068Y221127D01*
X289100Y221152D01*
X290108Y222161D01*
X290161Y222235D01*
X290221Y222304D01*
X290233Y222334D01*
X290252Y222360D01*
X290279Y222447D01*
X290313Y222532D01*
X290317Y222573D01*
X290324Y222595D01*
X290323Y222628D01*
X290331Y222699D01*
X290331Y224680D01*
X291219Y226824D01*
X292860Y228465D01*
X295004Y229353D01*
X297324Y229353D01*
X299468Y228465D01*
X301109Y226824D01*
X301493Y225896D01*
X301555Y225796D01*
X301615Y225696D01*
X301620Y225692D01*
X301623Y225687D01*
X301713Y225612D01*
X301802Y225536D01*
X301808Y225534D01*
X301812Y225530D01*
X301920Y225488D01*
X302030Y225444D01*
X302037Y225443D01*
X302042Y225442D01*
X302060Y225441D01*
X302197Y225426D01*
X313382Y225426D01*
X313472Y225440D01*
X313563Y225448D01*
X313593Y225460D01*
X313624Y225465D01*
X313705Y225508D01*
X313789Y225544D01*
X313821Y225570D01*
X313842Y225581D01*
X313864Y225604D01*
X313920Y225649D01*
X314196Y225925D01*
X316340Y226813D01*
X318660Y226813D01*
X320804Y225925D01*
X322445Y224284D01*
X323333Y222140D01*
X323333Y219820D01*
X322445Y217676D01*
X321676Y216907D01*
X321619Y216828D01*
X321557Y216753D01*
X321548Y216728D01*
X321532Y216707D01*
X321504Y216614D01*
X321469Y216523D01*
X321468Y216497D01*
X321460Y216472D01*
X321463Y216375D01*
X321458Y216277D01*
X321466Y216252D01*
X321466Y216226D01*
X321500Y216135D01*
X321527Y216041D01*
X321542Y216020D01*
X321551Y215995D01*
X321612Y215919D01*
X321667Y215839D01*
X321688Y215824D01*
X321705Y215803D01*
X321787Y215751D01*
X321865Y215693D01*
X321890Y215684D01*
X321911Y215670D01*
X322006Y215647D01*
X322099Y215616D01*
X322125Y215617D01*
X322150Y215610D01*
X322247Y215618D01*
X322345Y215619D01*
X322376Y215628D01*
X322395Y215629D01*
X322412Y215637D01*
X324756Y215637D01*
X326900Y214749D01*
X328541Y213108D01*
X329429Y210964D01*
X329429Y208644D01*
X328541Y206500D01*
X327140Y205099D01*
X327087Y205025D01*
X327027Y204956D01*
X327015Y204925D01*
X326996Y204899D01*
X326969Y204812D01*
X326935Y204727D01*
X326931Y204686D01*
X326924Y204664D01*
X326925Y204632D01*
X326917Y204561D01*
X326917Y150635D01*
X326920Y150615D01*
X326918Y150595D01*
X326940Y150494D01*
X326956Y150392D01*
X326966Y150374D01*
X326970Y150355D01*
X327023Y150266D01*
X327072Y150175D01*
X327086Y150161D01*
X327096Y150144D01*
X327175Y150076D01*
X327250Y150005D01*
X327268Y149997D01*
X327283Y149984D01*
X327379Y149945D01*
X327473Y149902D01*
X327493Y149899D01*
X327511Y149892D01*
X327678Y149873D01*
X373386Y149873D01*
X373393Y149866D01*
X373393Y71114D01*
X373386Y71107D01*
X373059Y71107D01*
X351803Y71107D01*
X351783Y71103D01*
X351763Y71106D01*
X351662Y71084D01*
X351560Y71067D01*
X351542Y71058D01*
X351523Y71053D01*
X351434Y71000D01*
X351343Y70952D01*
X351329Y70937D01*
X351312Y70927D01*
X351244Y70848D01*
X351173Y70773D01*
X351165Y70755D01*
X351152Y70740D01*
X351113Y70644D01*
X351070Y70550D01*
X351067Y70531D01*
X351060Y70512D01*
X351041Y70345D01*
X351041Y45987D01*
X351045Y45967D01*
X351042Y45947D01*
X351064Y45846D01*
X351081Y45744D01*
X351090Y45726D01*
X351095Y45707D01*
X351148Y45618D01*
X351196Y45527D01*
X351211Y45513D01*
X351221Y45496D01*
X351300Y45428D01*
X351375Y45357D01*
X351393Y45349D01*
X351408Y45336D01*
X351504Y45297D01*
X351598Y45254D01*
X351617Y45251D01*
X351636Y45244D01*
X351803Y45225D01*
X375926Y45225D01*
X375933Y45218D01*
X375933Y17774D01*
X375926Y17767D01*
X375599Y17767D01*
G37*
%LPD*%
%LPC*%
G36*
X223376Y100339D02*
X223376Y100339D01*
X221232Y101227D01*
X219591Y102868D01*
X218703Y105012D01*
X218703Y107332D01*
X219591Y109476D01*
X220982Y110867D01*
X221031Y110935D01*
X221074Y110980D01*
X221079Y110992D01*
X221095Y111010D01*
X221107Y111041D01*
X221126Y111067D01*
X221149Y111142D01*
X221177Y111203D01*
X221179Y111219D01*
X221187Y111239D01*
X221191Y111280D01*
X221198Y111302D01*
X221197Y111334D01*
X221205Y111405D01*
X221205Y132379D01*
X221194Y132449D01*
X221192Y132521D01*
X221174Y132570D01*
X221166Y132621D01*
X221132Y132685D01*
X221107Y132752D01*
X221075Y132793D01*
X221050Y132839D01*
X220998Y132888D01*
X220954Y132944D01*
X220910Y132972D01*
X220872Y133008D01*
X220807Y133038D01*
X220747Y133077D01*
X220696Y133090D01*
X220649Y133112D01*
X220578Y133120D01*
X220508Y133137D01*
X220456Y133133D01*
X220405Y133139D01*
X220334Y133124D01*
X220263Y133118D01*
X220215Y133098D01*
X220164Y133087D01*
X220103Y133050D01*
X220037Y133022D01*
X219981Y132977D01*
X219953Y132961D01*
X219938Y132943D01*
X219906Y132917D01*
X219204Y132215D01*
X217060Y131327D01*
X214740Y131327D01*
X212596Y132215D01*
X210955Y133856D01*
X210067Y136000D01*
X210067Y138320D01*
X210955Y140464D01*
X212596Y142105D01*
X214740Y142993D01*
X217060Y142993D01*
X219204Y142105D01*
X219906Y141403D01*
X219964Y141361D01*
X220016Y141312D01*
X220063Y141290D01*
X220105Y141259D01*
X220174Y141238D01*
X220239Y141208D01*
X220291Y141202D01*
X220341Y141187D01*
X220412Y141189D01*
X220483Y141181D01*
X220534Y141192D01*
X220586Y141193D01*
X220654Y141218D01*
X220724Y141233D01*
X220769Y141260D01*
X220817Y141278D01*
X220873Y141323D01*
X220935Y141359D01*
X220969Y141399D01*
X221009Y141432D01*
X221048Y141492D01*
X221095Y141546D01*
X221114Y141595D01*
X221142Y141639D01*
X221160Y141708D01*
X221187Y141775D01*
X221195Y141846D01*
X221203Y141877D01*
X221201Y141900D01*
X221205Y141941D01*
X221205Y148571D01*
X221191Y148661D01*
X221183Y148752D01*
X221171Y148782D01*
X221166Y148814D01*
X221123Y148894D01*
X221087Y148978D01*
X221061Y149010D01*
X221050Y149031D01*
X221027Y149053D01*
X220982Y149109D01*
X203171Y166920D01*
X203171Y225597D01*
X203168Y225616D01*
X203170Y225635D01*
X203159Y225685D01*
X203158Y225739D01*
X203140Y225788D01*
X203132Y225839D01*
X203122Y225858D01*
X203118Y225875D01*
X203093Y225917D01*
X203073Y225970D01*
X203041Y226011D01*
X203016Y226057D01*
X203000Y226073D01*
X202992Y226086D01*
X202956Y226117D01*
X202920Y226162D01*
X202876Y226190D01*
X202838Y226226D01*
X202816Y226236D01*
X202805Y226246D01*
X202763Y226263D01*
X202713Y226295D01*
X202662Y226308D01*
X202615Y226330D01*
X202590Y226333D01*
X202577Y226338D01*
X202516Y226345D01*
X202474Y226355D01*
X202443Y226353D01*
X202410Y226356D01*
X202409Y226356D01*
X202395Y226354D01*
X202371Y226357D01*
X202300Y226342D01*
X202229Y226336D01*
X202194Y226321D01*
X202166Y226317D01*
X202152Y226309D01*
X202130Y226305D01*
X202069Y226268D01*
X202003Y226240D01*
X201968Y226212D01*
X201948Y226202D01*
X201936Y226189D01*
X201919Y226179D01*
X201904Y226161D01*
X201872Y226135D01*
X201424Y225687D01*
X199280Y224799D01*
X196960Y224799D01*
X194816Y225687D01*
X193175Y227328D01*
X192287Y229472D01*
X192287Y231792D01*
X193175Y233936D01*
X194576Y235337D01*
X194629Y235411D01*
X194689Y235480D01*
X194701Y235511D01*
X194720Y235537D01*
X194747Y235624D01*
X194781Y235709D01*
X194785Y235750D01*
X194792Y235772D01*
X194791Y235804D01*
X194799Y235875D01*
X194799Y399121D01*
X194785Y399211D01*
X194777Y399302D01*
X194765Y399332D01*
X194760Y399364D01*
X194717Y399445D01*
X194681Y399528D01*
X194655Y399561D01*
X194644Y399581D01*
X194621Y399603D01*
X194576Y399659D01*
X186779Y407456D01*
X186706Y407509D01*
X186636Y407569D01*
X186606Y407581D01*
X186580Y407600D01*
X186493Y407627D01*
X186408Y407661D01*
X186367Y407665D01*
X186345Y407672D01*
X186312Y407671D01*
X186241Y407679D01*
X184260Y407679D01*
X182116Y408567D01*
X180475Y410208D01*
X179587Y412352D01*
X179587Y414672D01*
X180475Y416816D01*
X182116Y418457D01*
X184260Y419345D01*
X186580Y419345D01*
X188724Y418457D01*
X190365Y416816D01*
X191253Y414672D01*
X191253Y412691D01*
X191267Y412601D01*
X191275Y412510D01*
X191287Y412480D01*
X191292Y412448D01*
X191335Y412367D01*
X191371Y412284D01*
X191397Y412251D01*
X191408Y412231D01*
X191431Y412209D01*
X191476Y412153D01*
X201441Y402188D01*
X201441Y301453D01*
X201452Y301383D01*
X201454Y301311D01*
X201472Y301262D01*
X201480Y301211D01*
X201514Y301147D01*
X201539Y301080D01*
X201571Y301039D01*
X201596Y300993D01*
X201648Y300944D01*
X201692Y300888D01*
X201736Y300860D01*
X201774Y300824D01*
X201839Y300794D01*
X201899Y300755D01*
X201950Y300742D01*
X201997Y300720D01*
X202068Y300712D01*
X202138Y300695D01*
X202190Y300699D01*
X202241Y300693D01*
X202312Y300708D01*
X202383Y300714D01*
X202431Y300734D01*
X202482Y300745D01*
X202543Y300782D01*
X202609Y300810D01*
X202665Y300855D01*
X202693Y300871D01*
X202708Y300889D01*
X202740Y300915D01*
X203442Y301617D01*
X205586Y302505D01*
X207906Y302505D01*
X208517Y302252D01*
X208587Y302235D01*
X208654Y302210D01*
X208706Y302207D01*
X208757Y302195D01*
X208828Y302202D01*
X208900Y302199D01*
X208950Y302214D01*
X209002Y302219D01*
X209067Y302248D01*
X209136Y302268D01*
X209179Y302297D01*
X209226Y302319D01*
X209279Y302367D01*
X209338Y302408D01*
X209369Y302450D01*
X209407Y302485D01*
X209442Y302548D01*
X209485Y302605D01*
X209501Y302655D01*
X209526Y302700D01*
X209539Y302771D01*
X209561Y302839D01*
X209560Y302891D01*
X209570Y302942D01*
X209559Y303013D01*
X209559Y303015D01*
X209559Y305452D01*
X210447Y307596D01*
X212088Y309237D01*
X214232Y310125D01*
X216601Y310125D01*
X216664Y310105D01*
X216691Y310106D01*
X216716Y310100D01*
X216813Y310109D01*
X216910Y310112D01*
X216935Y310121D01*
X216961Y310123D01*
X217050Y310163D01*
X217141Y310196D01*
X217162Y310212D01*
X217186Y310223D01*
X217257Y310289D01*
X217333Y310350D01*
X217347Y310372D01*
X217367Y310389D01*
X217414Y310475D01*
X217466Y310557D01*
X217473Y310582D01*
X217485Y310605D01*
X217503Y310700D01*
X217526Y310795D01*
X217524Y310821D01*
X217529Y310847D01*
X217515Y310944D01*
X217507Y311040D01*
X217497Y311064D01*
X217493Y311090D01*
X217449Y311177D01*
X217411Y311267D01*
X217391Y311292D01*
X217382Y311310D01*
X217358Y311333D01*
X217306Y311398D01*
X210039Y318664D01*
X210039Y408777D01*
X210025Y408867D01*
X210017Y408958D01*
X210005Y408987D01*
X210000Y409019D01*
X209957Y409100D01*
X209921Y409184D01*
X209895Y409216D01*
X209884Y409237D01*
X209861Y409259D01*
X209816Y409315D01*
X208415Y410716D01*
X207527Y412860D01*
X207527Y415180D01*
X208415Y417324D01*
X210056Y418965D01*
X212200Y419853D01*
X214520Y419853D01*
X216664Y418965D01*
X218305Y417324D01*
X219193Y415180D01*
X219193Y414795D01*
X219196Y414775D01*
X219194Y414755D01*
X219216Y414654D01*
X219232Y414552D01*
X219242Y414534D01*
X219246Y414515D01*
X219299Y414426D01*
X219348Y414335D01*
X219362Y414321D01*
X219372Y414304D01*
X219451Y414236D01*
X219526Y414165D01*
X219544Y414157D01*
X219559Y414144D01*
X219655Y414105D01*
X219749Y414062D01*
X219769Y414059D01*
X219787Y414052D01*
X219954Y414033D01*
X265690Y414033D01*
X265697Y414026D01*
X265697Y337814D01*
X265690Y337807D01*
X265363Y337807D01*
X243758Y337807D01*
X243668Y337792D01*
X243577Y337785D01*
X243547Y337772D01*
X243515Y337767D01*
X243435Y337724D01*
X243351Y337688D01*
X243319Y337663D01*
X243298Y337652D01*
X243276Y337628D01*
X243220Y337584D01*
X239764Y334127D01*
X239711Y334053D01*
X239651Y333984D01*
X239639Y333954D01*
X239620Y333928D01*
X239593Y333841D01*
X239559Y333756D01*
X239555Y333715D01*
X239548Y333693D01*
X239549Y333660D01*
X239541Y333589D01*
X239541Y284643D01*
X239555Y284553D01*
X239563Y284462D01*
X239575Y284433D01*
X239580Y284401D01*
X239623Y284320D01*
X239659Y284236D01*
X239685Y284204D01*
X239696Y284183D01*
X239719Y284161D01*
X239764Y284105D01*
X241165Y282704D01*
X242053Y280560D01*
X242053Y278240D01*
X241740Y277484D01*
X241725Y277420D01*
X241700Y277359D01*
X241691Y277277D01*
X241684Y277245D01*
X241685Y277225D01*
X241682Y277193D01*
X241682Y269738D01*
X241684Y269722D01*
X241683Y269708D01*
X241683Y269705D01*
X241683Y269699D01*
X241705Y269597D01*
X241721Y269495D01*
X241731Y269478D01*
X241735Y269458D01*
X241788Y269369D01*
X241837Y269278D01*
X241851Y269264D01*
X241861Y269247D01*
X241940Y269180D01*
X242015Y269108D01*
X242033Y269100D01*
X242048Y269087D01*
X242144Y269048D01*
X242238Y269005D01*
X242258Y269003D01*
X242276Y268995D01*
X242443Y268977D01*
X242460Y268977D01*
X244604Y268089D01*
X246245Y266448D01*
X247133Y264304D01*
X247133Y261984D01*
X246245Y259840D01*
X244604Y258199D01*
X242460Y257311D01*
X240479Y257311D01*
X240389Y257297D01*
X240298Y257289D01*
X240268Y257277D01*
X240236Y257272D01*
X240155Y257229D01*
X240072Y257193D01*
X240039Y257167D01*
X240019Y257156D01*
X239997Y257133D01*
X239941Y257088D01*
X239764Y256911D01*
X239711Y256838D01*
X239651Y256768D01*
X239639Y256738D01*
X239620Y256712D01*
X239593Y256625D01*
X239559Y256540D01*
X239555Y256499D01*
X239548Y256477D01*
X239549Y256444D01*
X239541Y256373D01*
X239541Y192934D01*
X224750Y178143D01*
X224703Y178078D01*
X224690Y178065D01*
X224687Y178058D01*
X224637Y178000D01*
X224625Y177970D01*
X224606Y177944D01*
X224579Y177857D01*
X224545Y177772D01*
X224541Y177731D01*
X224534Y177709D01*
X224535Y177676D01*
X224527Y177605D01*
X224527Y175624D01*
X223639Y173480D01*
X221998Y171839D01*
X219854Y170951D01*
X217534Y170951D01*
X215390Y171839D01*
X213749Y173480D01*
X212861Y175624D01*
X212861Y177944D01*
X212920Y178087D01*
X212935Y178150D01*
X212960Y178211D01*
X212969Y178294D01*
X212976Y178326D01*
X212975Y178346D01*
X212978Y178378D01*
X212978Y193522D01*
X212968Y193586D01*
X212967Y193652D01*
X212944Y193732D01*
X212939Y193764D01*
X212929Y193781D01*
X212920Y193813D01*
X212353Y195182D01*
X212353Y197502D01*
X213241Y199646D01*
X214882Y201287D01*
X217026Y202175D01*
X219007Y202175D01*
X219097Y202189D01*
X219188Y202197D01*
X219218Y202209D01*
X219250Y202214D01*
X219331Y202257D01*
X219414Y202293D01*
X219447Y202319D01*
X219467Y202330D01*
X219489Y202353D01*
X219545Y202398D01*
X225056Y207909D01*
X225109Y207982D01*
X225169Y208052D01*
X225181Y208082D01*
X225200Y208108D01*
X225227Y208195D01*
X225261Y208280D01*
X225265Y208321D01*
X225272Y208343D01*
X225271Y208376D01*
X225279Y208447D01*
X225279Y303109D01*
X225265Y303199D01*
X225257Y303290D01*
X225245Y303320D01*
X225240Y303352D01*
X225197Y303432D01*
X225161Y303516D01*
X225135Y303549D01*
X225124Y303569D01*
X225101Y303591D01*
X225056Y303647D01*
X222498Y306206D01*
X222419Y306263D01*
X222344Y306325D01*
X222319Y306334D01*
X222298Y306350D01*
X222205Y306378D01*
X222114Y306413D01*
X222088Y306414D01*
X222063Y306422D01*
X221965Y306419D01*
X221868Y306424D01*
X221843Y306416D01*
X221817Y306416D01*
X221725Y306382D01*
X221632Y306355D01*
X221611Y306340D01*
X221586Y306331D01*
X221510Y306270D01*
X221430Y306215D01*
X221414Y306194D01*
X221394Y306177D01*
X221341Y306096D01*
X221283Y306017D01*
X221275Y305993D01*
X221261Y305971D01*
X221237Y305876D01*
X221207Y305784D01*
X221207Y305757D01*
X221201Y305732D01*
X221208Y305635D01*
X221209Y305538D01*
X221218Y305506D01*
X221220Y305487D01*
X221225Y305476D01*
X221225Y303132D01*
X220337Y300988D01*
X218696Y299347D01*
X216552Y298459D01*
X214232Y298459D01*
X213621Y298712D01*
X213551Y298729D01*
X213484Y298754D01*
X213432Y298757D01*
X213381Y298769D01*
X213310Y298762D01*
X213238Y298765D01*
X213188Y298750D01*
X213136Y298745D01*
X213071Y298716D01*
X213002Y298696D01*
X212959Y298667D01*
X212912Y298645D01*
X212859Y298597D01*
X212800Y298556D01*
X212769Y298514D01*
X212731Y298479D01*
X212696Y298416D01*
X212653Y298359D01*
X212637Y298309D01*
X212612Y298264D01*
X212599Y298193D01*
X212577Y298125D01*
X212578Y298073D01*
X212568Y298022D01*
X212579Y297951D01*
X212579Y297949D01*
X212579Y295512D01*
X211691Y293368D01*
X210036Y291713D01*
X209983Y291639D01*
X209923Y291570D01*
X209911Y291539D01*
X209892Y291513D01*
X209865Y291426D01*
X209831Y291341D01*
X209827Y291300D01*
X209820Y291278D01*
X209821Y291246D01*
X209813Y291175D01*
X209813Y169987D01*
X209827Y169896D01*
X209835Y169806D01*
X209847Y169776D01*
X209852Y169744D01*
X209895Y169663D01*
X209931Y169579D01*
X209957Y169547D01*
X209968Y169526D01*
X209991Y169504D01*
X210036Y169448D01*
X225679Y153805D01*
X227847Y151637D01*
X227847Y111425D01*
X227861Y111335D01*
X227869Y111244D01*
X227881Y111215D01*
X227886Y111183D01*
X227929Y111102D01*
X227965Y111018D01*
X227991Y110986D01*
X228002Y110965D01*
X228025Y110943D01*
X228038Y110927D01*
X228044Y110917D01*
X228050Y110911D01*
X228070Y110887D01*
X229481Y109476D01*
X230369Y107332D01*
X230369Y105012D01*
X229481Y102868D01*
X227840Y101227D01*
X225696Y100339D01*
X223376Y100339D01*
G37*
%LPD*%
%LPC*%
G36*
X185520Y129285D02*
X185520Y129285D01*
X183376Y130173D01*
X181975Y131574D01*
X181901Y131627D01*
X181832Y131687D01*
X181801Y131699D01*
X181775Y131718D01*
X181688Y131745D01*
X181603Y131779D01*
X181562Y131783D01*
X181540Y131790D01*
X181508Y131789D01*
X181437Y131797D01*
X176160Y131797D01*
X169399Y138558D01*
X169399Y200533D01*
X169396Y200553D01*
X169398Y200572D01*
X169376Y200674D01*
X169360Y200776D01*
X169350Y200793D01*
X169346Y200813D01*
X169293Y200902D01*
X169244Y200993D01*
X169230Y201007D01*
X169220Y201024D01*
X169141Y201091D01*
X169066Y201163D01*
X169048Y201171D01*
X169033Y201184D01*
X168937Y201223D01*
X168843Y201266D01*
X168823Y201268D01*
X168805Y201276D01*
X168638Y201294D01*
X161060Y201294D01*
X160945Y201275D01*
X160829Y201258D01*
X160823Y201256D01*
X160817Y201255D01*
X160714Y201200D01*
X160610Y201147D01*
X160605Y201142D01*
X160600Y201139D01*
X160519Y201055D01*
X160437Y200971D01*
X160434Y200965D01*
X160430Y200961D01*
X160422Y200944D01*
X160419Y200939D01*
X158752Y199271D01*
X156608Y198383D01*
X154288Y198383D01*
X153991Y198506D01*
X153878Y198533D01*
X153764Y198562D01*
X153757Y198561D01*
X153751Y198562D01*
X153635Y198552D01*
X153518Y198542D01*
X153513Y198540D01*
X153506Y198539D01*
X153399Y198492D01*
X153292Y198446D01*
X153286Y198441D01*
X153282Y198439D01*
X153268Y198427D01*
X153161Y198341D01*
X150465Y195645D01*
X149979Y195159D01*
X149975Y195159D01*
X149872Y195104D01*
X149767Y195051D01*
X149763Y195046D01*
X149757Y195043D01*
X149677Y194959D01*
X149595Y194875D01*
X149591Y194869D01*
X149588Y194865D01*
X149580Y194848D01*
X149514Y194728D01*
X148709Y192784D01*
X147068Y191143D01*
X144924Y190255D01*
X142604Y190255D01*
X140460Y191143D01*
X138819Y192784D01*
X137931Y194928D01*
X137931Y196909D01*
X137917Y196999D01*
X137909Y197090D01*
X137897Y197120D01*
X137892Y197152D01*
X137849Y197233D01*
X137813Y197317D01*
X137787Y197349D01*
X137776Y197369D01*
X137753Y197392D01*
X137708Y197447D01*
X127743Y207412D01*
X127743Y289869D01*
X127732Y289939D01*
X127730Y290011D01*
X127712Y290060D01*
X127704Y290111D01*
X127670Y290175D01*
X127645Y290242D01*
X127613Y290283D01*
X127588Y290329D01*
X127537Y290378D01*
X127492Y290434D01*
X127448Y290462D01*
X127410Y290498D01*
X127345Y290528D01*
X127285Y290567D01*
X127234Y290580D01*
X127187Y290602D01*
X127116Y290610D01*
X127046Y290627D01*
X126994Y290623D01*
X126943Y290629D01*
X126872Y290614D01*
X126801Y290608D01*
X126753Y290588D01*
X126702Y290577D01*
X126641Y290540D01*
X126575Y290512D01*
X126519Y290467D01*
X126491Y290451D01*
X126476Y290433D01*
X126444Y290407D01*
X126240Y290203D01*
X124096Y289315D01*
X121776Y289315D01*
X119632Y290203D01*
X117991Y291844D01*
X117103Y293988D01*
X117103Y296308D01*
X117991Y298452D01*
X119632Y300093D01*
X121776Y300981D01*
X124096Y300981D01*
X126240Y300093D01*
X126444Y299889D01*
X126502Y299847D01*
X126554Y299798D01*
X126601Y299776D01*
X126643Y299745D01*
X126712Y299724D01*
X126777Y299694D01*
X126829Y299688D01*
X126879Y299673D01*
X126950Y299675D01*
X127021Y299667D01*
X127072Y299678D01*
X127124Y299679D01*
X127192Y299704D01*
X127262Y299719D01*
X127307Y299746D01*
X127355Y299764D01*
X127411Y299809D01*
X127473Y299845D01*
X127507Y299885D01*
X127547Y299918D01*
X127586Y299978D01*
X127633Y300032D01*
X127652Y300081D01*
X127680Y300124D01*
X127698Y300194D01*
X127725Y300261D01*
X127733Y300332D01*
X127741Y300363D01*
X127739Y300386D01*
X127743Y300427D01*
X127743Y301175D01*
X127724Y301290D01*
X127707Y301406D01*
X127705Y301412D01*
X127704Y301418D01*
X127649Y301520D01*
X127596Y301625D01*
X127591Y301630D01*
X127588Y301635D01*
X127504Y301715D01*
X127420Y301798D01*
X127414Y301801D01*
X127410Y301805D01*
X127393Y301812D01*
X127273Y301878D01*
X127252Y301887D01*
X125611Y303528D01*
X124723Y305672D01*
X124723Y307992D01*
X125611Y310136D01*
X127252Y311777D01*
X129396Y312665D01*
X131716Y312665D01*
X133860Y311777D01*
X135501Y310136D01*
X136439Y307872D01*
X136490Y307789D01*
X136536Y307703D01*
X136555Y307685D01*
X136568Y307662D01*
X136643Y307600D01*
X136714Y307533D01*
X136738Y307522D01*
X136758Y307506D01*
X136849Y307471D01*
X136937Y307430D01*
X136963Y307427D01*
X136987Y307417D01*
X137085Y307413D01*
X137181Y307403D01*
X137207Y307408D01*
X137233Y307407D01*
X137327Y307434D01*
X137422Y307455D01*
X137444Y307468D01*
X137469Y307476D01*
X137549Y307531D01*
X137633Y307581D01*
X137650Y307601D01*
X137671Y307616D01*
X137730Y307694D01*
X137793Y307768D01*
X137803Y307792D01*
X137818Y307813D01*
X137848Y307906D01*
X137885Y307996D01*
X137888Y308029D01*
X137894Y308047D01*
X137894Y308080D01*
X137903Y308163D01*
X137903Y361134D01*
X137889Y361224D01*
X137881Y361315D01*
X137869Y361345D01*
X137864Y361377D01*
X137821Y361457D01*
X137785Y361541D01*
X137759Y361573D01*
X137748Y361594D01*
X137725Y361616D01*
X137680Y361672D01*
X122165Y377187D01*
X122165Y390479D01*
X122151Y390569D01*
X122143Y390660D01*
X122131Y390689D01*
X122126Y390721D01*
X122083Y390802D01*
X122047Y390886D01*
X122021Y390918D01*
X122010Y390939D01*
X121987Y390961D01*
X121942Y391017D01*
X120531Y392428D01*
X119643Y394572D01*
X119643Y396892D01*
X120531Y399036D01*
X122172Y400677D01*
X124316Y401565D01*
X126636Y401565D01*
X128780Y400677D01*
X130421Y399036D01*
X131309Y396892D01*
X131309Y394572D01*
X130421Y392428D01*
X129030Y391037D01*
X128977Y390963D01*
X128917Y390894D01*
X128905Y390863D01*
X128886Y390837D01*
X128859Y390750D01*
X128825Y390665D01*
X128821Y390624D01*
X128814Y390602D01*
X128815Y390570D01*
X128807Y390499D01*
X128807Y380254D01*
X128821Y380163D01*
X128829Y380073D01*
X128841Y380043D01*
X128846Y380011D01*
X128889Y379930D01*
X128925Y379846D01*
X128951Y379814D01*
X128962Y379793D01*
X128985Y379771D01*
X129030Y379715D01*
X131044Y377701D01*
X131102Y377659D01*
X131154Y377610D01*
X131201Y377588D01*
X131243Y377558D01*
X131312Y377537D01*
X131377Y377506D01*
X131429Y377501D01*
X131479Y377485D01*
X131550Y377487D01*
X131621Y377479D01*
X131672Y377490D01*
X131724Y377492D01*
X131792Y377516D01*
X131862Y377532D01*
X131907Y377558D01*
X131955Y377576D01*
X132011Y377621D01*
X132073Y377658D01*
X132107Y377697D01*
X132147Y377730D01*
X132186Y377790D01*
X132233Y377845D01*
X132252Y377893D01*
X132280Y377937D01*
X132298Y378006D01*
X132325Y378073D01*
X132333Y378144D01*
X132341Y378175D01*
X132339Y378199D01*
X132343Y378240D01*
X132343Y380128D01*
X133231Y382272D01*
X134872Y383913D01*
X137016Y384801D01*
X139336Y384801D01*
X141480Y383913D01*
X143121Y382272D01*
X144009Y380128D01*
X144009Y378147D01*
X144023Y378057D01*
X144031Y377966D01*
X144043Y377936D01*
X144048Y377904D01*
X144091Y377824D01*
X144127Y377740D01*
X144153Y377707D01*
X144164Y377687D01*
X144187Y377665D01*
X144232Y377609D01*
X147780Y374060D01*
X147838Y374019D01*
X147890Y373969D01*
X147937Y373947D01*
X147979Y373917D01*
X148048Y373896D01*
X148113Y373866D01*
X148165Y373860D01*
X148215Y373845D01*
X148286Y373846D01*
X148357Y373839D01*
X148408Y373850D01*
X148460Y373851D01*
X148528Y373876D01*
X148598Y373891D01*
X148643Y373918D01*
X148691Y373935D01*
X148747Y373980D01*
X148809Y374017D01*
X148843Y374057D01*
X148883Y374089D01*
X148922Y374149D01*
X148969Y374204D01*
X148988Y374252D01*
X149016Y374296D01*
X149034Y374365D01*
X149061Y374432D01*
X149069Y374503D01*
X149077Y374535D01*
X149075Y374558D01*
X149079Y374599D01*
X149079Y406237D01*
X149065Y406327D01*
X149057Y406418D01*
X149045Y406447D01*
X149040Y406479D01*
X148997Y406560D01*
X148961Y406644D01*
X148935Y406676D01*
X148924Y406697D01*
X148901Y406719D01*
X148856Y406775D01*
X147455Y408176D01*
X146567Y410320D01*
X146567Y412640D01*
X147455Y414784D01*
X149096Y416425D01*
X151240Y417313D01*
X153560Y417313D01*
X155704Y416425D01*
X157345Y414784D01*
X158233Y412640D01*
X158233Y410320D01*
X157345Y408176D01*
X155944Y406775D01*
X155891Y406701D01*
X155831Y406632D01*
X155819Y406601D01*
X155800Y406575D01*
X155773Y406488D01*
X155739Y406403D01*
X155735Y406362D01*
X155728Y406340D01*
X155729Y406308D01*
X155721Y406237D01*
X155721Y367468D01*
X155732Y367397D01*
X155734Y367325D01*
X155752Y367276D01*
X155760Y367225D01*
X155794Y367161D01*
X155819Y367094D01*
X155851Y367053D01*
X155876Y367007D01*
X155927Y366958D01*
X155972Y366902D01*
X156016Y366874D01*
X156054Y366838D01*
X156119Y366808D01*
X156179Y366769D01*
X156230Y366756D01*
X156277Y366734D01*
X156348Y366726D01*
X156418Y366709D01*
X156470Y366713D01*
X156521Y366707D01*
X156592Y366723D01*
X156663Y366728D01*
X156711Y366748D01*
X156762Y366760D01*
X156823Y366796D01*
X156889Y366824D01*
X156945Y366869D01*
X156973Y366886D01*
X156988Y366904D01*
X157020Y366929D01*
X157172Y367081D01*
X159316Y367969D01*
X161636Y367969D01*
X163780Y367081D01*
X165421Y365440D01*
X166309Y363296D01*
X166309Y360976D01*
X165421Y358832D01*
X163780Y357192D01*
X161636Y356304D01*
X159316Y356304D01*
X157172Y357192D01*
X157020Y357343D01*
X156962Y357385D01*
X156910Y357434D01*
X156863Y357456D01*
X156821Y357487D01*
X156752Y357508D01*
X156687Y357538D01*
X156635Y357544D01*
X156585Y357559D01*
X156514Y357557D01*
X156443Y357565D01*
X156392Y357554D01*
X156340Y357553D01*
X156272Y357528D01*
X156202Y357513D01*
X156157Y357486D01*
X156109Y357468D01*
X156053Y357424D01*
X155991Y357387D01*
X155957Y357347D01*
X155917Y357315D01*
X155878Y357254D01*
X155831Y357200D01*
X155812Y357151D01*
X155784Y357108D01*
X155766Y357038D01*
X155739Y356972D01*
X155731Y356900D01*
X155723Y356869D01*
X155725Y356846D01*
X155721Y356805D01*
X155721Y272201D01*
X155735Y272111D01*
X155743Y272020D01*
X155755Y271990D01*
X155760Y271958D01*
X155803Y271877D01*
X155839Y271794D01*
X155865Y271761D01*
X155876Y271741D01*
X155899Y271719D01*
X155944Y271663D01*
X168821Y258786D01*
X168894Y258733D01*
X168964Y258673D01*
X168994Y258661D01*
X169020Y258642D01*
X169107Y258615D01*
X169192Y258581D01*
X169233Y258577D01*
X169255Y258570D01*
X169288Y258571D01*
X169359Y258563D01*
X171340Y258563D01*
X173484Y257675D01*
X175125Y256034D01*
X176013Y253890D01*
X176013Y253594D01*
X176027Y253504D01*
X176035Y253413D01*
X176047Y253384D01*
X176052Y253352D01*
X176095Y253271D01*
X176131Y253187D01*
X176150Y253164D01*
X176150Y242878D01*
X176164Y242788D01*
X176172Y242697D01*
X176184Y242668D01*
X176189Y242636D01*
X176232Y242555D01*
X176268Y242471D01*
X176294Y242439D01*
X176305Y242418D01*
X176328Y242396D01*
X176373Y242340D01*
X177665Y241048D01*
X178553Y238904D01*
X178553Y236584D01*
X177665Y234440D01*
X176373Y233148D01*
X176320Y233074D01*
X176260Y233005D01*
X176248Y232974D01*
X176229Y232948D01*
X176202Y232861D01*
X176168Y232776D01*
X176164Y232735D01*
X176157Y232713D01*
X176158Y232681D01*
X176150Y232610D01*
X176150Y201485D01*
X176139Y201458D01*
X176120Y201432D01*
X176093Y201345D01*
X176059Y201260D01*
X176055Y201219D01*
X176048Y201197D01*
X176049Y201165D01*
X176041Y201094D01*
X176041Y141625D01*
X176055Y141535D01*
X176063Y141444D01*
X176075Y141414D01*
X176080Y141382D01*
X176123Y141301D01*
X176159Y141218D01*
X176185Y141185D01*
X176196Y141165D01*
X176219Y141143D01*
X176264Y141087D01*
X178689Y138662D01*
X178762Y138609D01*
X178832Y138549D01*
X178862Y138537D01*
X178888Y138518D01*
X178975Y138491D01*
X179060Y138457D01*
X179101Y138453D01*
X179123Y138446D01*
X179156Y138447D01*
X179227Y138439D01*
X181437Y138439D01*
X181527Y138453D01*
X181618Y138461D01*
X181647Y138473D01*
X181679Y138478D01*
X181760Y138521D01*
X181844Y138557D01*
X181876Y138583D01*
X181897Y138594D01*
X181919Y138617D01*
X181975Y138662D01*
X183376Y140063D01*
X185520Y140951D01*
X187840Y140951D01*
X189984Y140063D01*
X191625Y138422D01*
X192513Y136278D01*
X192513Y133958D01*
X191625Y131814D01*
X189984Y130173D01*
X187840Y129285D01*
X185520Y129285D01*
G37*
%LPD*%
%LPC*%
G36*
X291093Y243948D02*
X291093Y243948D01*
X289668Y245373D01*
X289668Y270247D01*
X291093Y271672D01*
X294114Y271672D01*
X294134Y271675D01*
X294153Y271673D01*
X294255Y271695D01*
X294357Y271711D01*
X294374Y271721D01*
X294394Y271725D01*
X294483Y271778D01*
X294574Y271827D01*
X294588Y271841D01*
X294605Y271851D01*
X294672Y271930D01*
X294744Y272005D01*
X294752Y272023D01*
X294765Y272038D01*
X294804Y272134D01*
X294847Y272228D01*
X294849Y272248D01*
X294857Y272266D01*
X294875Y272433D01*
X294875Y342374D01*
X294861Y342464D01*
X294853Y342555D01*
X294841Y342585D01*
X294836Y342617D01*
X294793Y342697D01*
X294757Y342781D01*
X294731Y342813D01*
X294720Y342834D01*
X294697Y342856D01*
X294652Y342912D01*
X270745Y366819D01*
X270745Y393791D01*
X270731Y393881D01*
X270723Y393972D01*
X270711Y394001D01*
X270706Y394033D01*
X270663Y394114D01*
X270627Y394198D01*
X270601Y394230D01*
X270590Y394251D01*
X270567Y394273D01*
X270522Y394329D01*
X269375Y395476D01*
X268487Y397620D01*
X268487Y399940D01*
X269375Y402084D01*
X271016Y403725D01*
X273160Y404613D01*
X275480Y404613D01*
X277313Y403854D01*
X277357Y403843D01*
X277399Y403824D01*
X277476Y403815D01*
X277552Y403798D01*
X277598Y403802D01*
X277643Y403797D01*
X277720Y403813D01*
X277797Y403821D01*
X277839Y403839D01*
X277884Y403849D01*
X277951Y403889D01*
X278022Y403921D01*
X278056Y403952D01*
X278095Y403975D01*
X278146Y404034D01*
X278203Y404087D01*
X278225Y404127D01*
X278255Y404162D01*
X278284Y404234D01*
X278321Y404303D01*
X278330Y404348D01*
X278347Y404390D01*
X278362Y404526D01*
X278365Y404545D01*
X278364Y404550D01*
X278365Y404557D01*
X278365Y463387D01*
X278351Y463477D01*
X278343Y463568D01*
X278331Y463597D01*
X278326Y463629D01*
X278283Y463710D01*
X278247Y463794D01*
X278221Y463826D01*
X278210Y463847D01*
X278187Y463869D01*
X278142Y463925D01*
X276995Y465072D01*
X276107Y467216D01*
X276107Y469536D01*
X276995Y471680D01*
X278636Y473321D01*
X280780Y474209D01*
X283100Y474209D01*
X285244Y473321D01*
X286885Y471680D01*
X287773Y469536D01*
X287773Y467216D01*
X286885Y465072D01*
X285738Y463925D01*
X285685Y463851D01*
X285625Y463782D01*
X285613Y463751D01*
X285594Y463725D01*
X285567Y463638D01*
X285533Y463553D01*
X285529Y463512D01*
X285522Y463490D01*
X285523Y463458D01*
X285515Y463387D01*
X285515Y436499D01*
X285518Y436479D01*
X285516Y436460D01*
X285538Y436358D01*
X285554Y436256D01*
X285564Y436239D01*
X285568Y436219D01*
X285621Y436130D01*
X285670Y436039D01*
X285684Y436025D01*
X285694Y436008D01*
X285773Y435941D01*
X285848Y435869D01*
X285866Y435861D01*
X285881Y435848D01*
X285977Y435809D01*
X286071Y435766D01*
X286091Y435764D01*
X286109Y435756D01*
X286276Y435738D01*
X295892Y435738D01*
X295912Y435741D01*
X295931Y435739D01*
X296033Y435761D01*
X296135Y435777D01*
X296152Y435787D01*
X296172Y435791D01*
X296261Y435844D01*
X296352Y435893D01*
X296366Y435907D01*
X296383Y435917D01*
X296450Y435996D01*
X296522Y436071D01*
X296530Y436089D01*
X296543Y436104D01*
X296582Y436200D01*
X296625Y436294D01*
X296627Y436314D01*
X296635Y436332D01*
X296653Y436499D01*
X296653Y533636D01*
X296639Y533726D01*
X296631Y533817D01*
X296619Y533847D01*
X296614Y533879D01*
X296571Y533959D01*
X296535Y534043D01*
X296509Y534075D01*
X296498Y534096D01*
X296475Y534118D01*
X296430Y534174D01*
X287992Y542612D01*
X287918Y542665D01*
X287849Y542725D01*
X287819Y542737D01*
X287793Y542756D01*
X287706Y542783D01*
X287621Y542817D01*
X287580Y542821D01*
X287557Y542828D01*
X287525Y542827D01*
X287454Y542835D01*
X285832Y542835D01*
X283688Y543723D01*
X282047Y545364D01*
X281159Y547508D01*
X281159Y549828D01*
X282047Y551972D01*
X283688Y553613D01*
X285832Y554501D01*
X288152Y554501D01*
X290296Y553613D01*
X291937Y551972D01*
X292825Y549828D01*
X292825Y548206D01*
X292839Y548116D01*
X292847Y548025D01*
X292859Y547995D01*
X292864Y547963D01*
X292907Y547883D01*
X292943Y547799D01*
X292969Y547767D01*
X292980Y547746D01*
X293003Y547724D01*
X293048Y547668D01*
X301486Y539230D01*
X301704Y539012D01*
X301762Y538970D01*
X301814Y538920D01*
X301861Y538899D01*
X301903Y538868D01*
X301972Y538847D01*
X302037Y538817D01*
X302089Y538811D01*
X302138Y538796D01*
X302210Y538798D01*
X302281Y538790D01*
X302332Y538801D01*
X302384Y538802D01*
X302452Y538827D01*
X302522Y538842D01*
X302567Y538869D01*
X302615Y538887D01*
X302671Y538931D01*
X302733Y538968D01*
X302767Y539008D01*
X302807Y539040D01*
X302846Y539101D01*
X302893Y539155D01*
X302912Y539203D01*
X302940Y539247D01*
X302958Y539317D01*
X302985Y539383D01*
X302993Y539455D01*
X303001Y539486D01*
X302999Y539509D01*
X303003Y539550D01*
X303003Y542381D01*
X302989Y542471D01*
X302981Y542562D01*
X302969Y542591D01*
X302964Y542623D01*
X302921Y542704D01*
X302885Y542788D01*
X302859Y542820D01*
X302848Y542841D01*
X302825Y542863D01*
X302780Y542919D01*
X301379Y544320D01*
X300491Y546464D01*
X300491Y548784D01*
X301379Y550928D01*
X303020Y552569D01*
X305164Y553457D01*
X307484Y553457D01*
X309628Y552569D01*
X311269Y550928D01*
X312157Y548784D01*
X312157Y546464D01*
X311269Y544320D01*
X309868Y542919D01*
X309815Y542845D01*
X309755Y542776D01*
X309743Y542745D01*
X309724Y542719D01*
X309697Y542632D01*
X309663Y542547D01*
X309659Y542506D01*
X309652Y542484D01*
X309653Y542452D01*
X309645Y542381D01*
X309645Y492451D01*
X309656Y492381D01*
X309658Y492309D01*
X309676Y492260D01*
X309684Y492209D01*
X309718Y492145D01*
X309743Y492078D01*
X309775Y492037D01*
X309800Y491991D01*
X309852Y491942D01*
X309896Y491886D01*
X309940Y491858D01*
X309978Y491822D01*
X310043Y491792D01*
X310103Y491753D01*
X310154Y491740D01*
X310201Y491718D01*
X310272Y491710D01*
X310342Y491693D01*
X310394Y491697D01*
X310445Y491691D01*
X310516Y491706D01*
X310587Y491712D01*
X310635Y491732D01*
X310686Y491743D01*
X310747Y491780D01*
X310813Y491808D01*
X310869Y491853D01*
X310897Y491869D01*
X310912Y491887D01*
X310944Y491913D01*
X312672Y493641D01*
X314816Y494529D01*
X317136Y494529D01*
X319280Y493641D01*
X320921Y492000D01*
X321809Y489856D01*
X321809Y487536D01*
X320921Y485392D01*
X319280Y483751D01*
X317136Y482863D01*
X314816Y482863D01*
X312672Y483751D01*
X310944Y485479D01*
X310886Y485521D01*
X310834Y485570D01*
X310787Y485592D01*
X310745Y485623D01*
X310676Y485644D01*
X310611Y485674D01*
X310559Y485680D01*
X310509Y485695D01*
X310438Y485693D01*
X310367Y485701D01*
X310316Y485690D01*
X310264Y485689D01*
X310196Y485664D01*
X310126Y485649D01*
X310081Y485622D01*
X310033Y485604D01*
X309977Y485559D01*
X309915Y485523D01*
X309881Y485483D01*
X309841Y485450D01*
X309802Y485390D01*
X309755Y485336D01*
X309736Y485287D01*
X309708Y485243D01*
X309690Y485174D01*
X309663Y485107D01*
X309655Y485036D01*
X309647Y485005D01*
X309649Y484982D01*
X309645Y484941D01*
X309645Y474671D01*
X309656Y474601D01*
X309658Y474529D01*
X309676Y474480D01*
X309684Y474429D01*
X309718Y474365D01*
X309743Y474298D01*
X309775Y474257D01*
X309800Y474211D01*
X309852Y474162D01*
X309896Y474106D01*
X309940Y474078D01*
X309978Y474042D01*
X310043Y474012D01*
X310103Y473973D01*
X310154Y473960D01*
X310201Y473938D01*
X310272Y473930D01*
X310342Y473913D01*
X310394Y473917D01*
X310445Y473911D01*
X310516Y473926D01*
X310587Y473932D01*
X310635Y473952D01*
X310686Y473963D01*
X310747Y474000D01*
X310813Y474028D01*
X310869Y474073D01*
X310897Y474089D01*
X310912Y474107D01*
X310944Y474133D01*
X312672Y475861D01*
X314816Y476749D01*
X317136Y476749D01*
X319280Y475861D01*
X320921Y474220D01*
X321809Y472076D01*
X321809Y469756D01*
X320921Y467612D01*
X319280Y465971D01*
X317136Y465083D01*
X314816Y465083D01*
X312672Y465971D01*
X310944Y467699D01*
X310886Y467741D01*
X310834Y467790D01*
X310787Y467812D01*
X310745Y467843D01*
X310676Y467864D01*
X310611Y467894D01*
X310559Y467900D01*
X310509Y467915D01*
X310438Y467913D01*
X310367Y467921D01*
X310316Y467910D01*
X310264Y467909D01*
X310196Y467884D01*
X310126Y467869D01*
X310081Y467842D01*
X310033Y467824D01*
X309977Y467779D01*
X309915Y467743D01*
X309881Y467703D01*
X309841Y467670D01*
X309802Y467610D01*
X309755Y467556D01*
X309736Y467507D01*
X309708Y467463D01*
X309690Y467394D01*
X309663Y467327D01*
X309655Y467256D01*
X309647Y467225D01*
X309649Y467202D01*
X309645Y467161D01*
X309645Y398417D01*
X309648Y398397D01*
X309646Y398378D01*
X309668Y398276D01*
X309684Y398174D01*
X309694Y398157D01*
X309698Y398137D01*
X309751Y398048D01*
X309800Y397957D01*
X309814Y397943D01*
X309824Y397926D01*
X309903Y397859D01*
X309978Y397787D01*
X309996Y397779D01*
X310011Y397766D01*
X310107Y397727D01*
X310201Y397684D01*
X310221Y397682D01*
X310239Y397674D01*
X310406Y397656D01*
X313427Y397656D01*
X314852Y396231D01*
X314852Y379993D01*
X313427Y378568D01*
X286276Y378568D01*
X286256Y378565D01*
X286237Y378567D01*
X286135Y378545D01*
X286033Y378529D01*
X286016Y378519D01*
X285996Y378515D01*
X285907Y378462D01*
X285816Y378413D01*
X285802Y378399D01*
X285785Y378389D01*
X285718Y378310D01*
X285646Y378235D01*
X285638Y378217D01*
X285625Y378202D01*
X285586Y378106D01*
X285543Y378012D01*
X285541Y377992D01*
X285533Y377974D01*
X285515Y377807D01*
X285515Y372636D01*
X285529Y372546D01*
X285537Y372455D01*
X285549Y372425D01*
X285554Y372393D01*
X285597Y372313D01*
X285633Y372229D01*
X285659Y372197D01*
X285670Y372176D01*
X285693Y372154D01*
X285738Y372098D01*
X308375Y349461D01*
X308375Y272433D01*
X308378Y272413D01*
X308376Y272394D01*
X308398Y272292D01*
X308414Y272190D01*
X308424Y272173D01*
X308428Y272153D01*
X308481Y272064D01*
X308530Y271973D01*
X308544Y271959D01*
X308554Y271942D01*
X308633Y271875D01*
X308708Y271803D01*
X308726Y271795D01*
X308741Y271782D01*
X308837Y271743D01*
X308931Y271700D01*
X308951Y271698D01*
X308969Y271690D01*
X309136Y271672D01*
X315967Y271672D01*
X317392Y270247D01*
X317392Y245373D01*
X315967Y243948D01*
X291093Y243948D01*
G37*
%LPD*%
%LPC*%
G36*
X374301Y382949D02*
X374301Y382949D01*
X366615Y386133D01*
X360733Y392015D01*
X357549Y399701D01*
X357549Y408019D01*
X360733Y415705D01*
X366615Y421587D01*
X374301Y424771D01*
X382619Y424771D01*
X390305Y421587D01*
X396187Y415705D01*
X399371Y408019D01*
X399371Y399701D01*
X396187Y392015D01*
X390305Y386133D01*
X382619Y382949D01*
X374301Y382949D01*
G37*
%LPD*%
%LPC*%
G36*
X345814Y442809D02*
X345814Y442809D01*
X340926Y444834D01*
X337184Y448576D01*
X335159Y453464D01*
X335159Y458756D01*
X337184Y463644D01*
X340926Y467386D01*
X345814Y469411D01*
X351106Y469411D01*
X353397Y468461D01*
X353467Y468445D01*
X353534Y468419D01*
X353586Y468417D01*
X353637Y468405D01*
X353708Y468412D01*
X353780Y468409D01*
X353830Y468423D01*
X353882Y468428D01*
X353947Y468458D01*
X354016Y468477D01*
X354059Y468507D01*
X354107Y468528D01*
X354159Y468577D01*
X354218Y468618D01*
X354249Y468660D01*
X354288Y468695D01*
X354322Y468758D01*
X354365Y468815D01*
X354381Y468865D01*
X354406Y468910D01*
X354419Y468981D01*
X354441Y469049D01*
X354441Y469101D01*
X354450Y469152D01*
X354440Y469223D01*
X354439Y469295D01*
X354419Y469364D01*
X354414Y469396D01*
X354404Y469417D01*
X354392Y469456D01*
X353299Y472094D01*
X353299Y478126D01*
X355607Y483698D01*
X359872Y487963D01*
X365444Y490271D01*
X371476Y490271D01*
X377048Y487963D01*
X381313Y483698D01*
X383621Y478126D01*
X383621Y472094D01*
X381313Y466522D01*
X377048Y462257D01*
X371476Y459949D01*
X365444Y459949D01*
X362099Y461335D01*
X362029Y461351D01*
X361962Y461377D01*
X361910Y461379D01*
X361859Y461391D01*
X361788Y461384D01*
X361716Y461387D01*
X361666Y461373D01*
X361615Y461368D01*
X361549Y461339D01*
X361480Y461319D01*
X361437Y461289D01*
X361390Y461268D01*
X361337Y461220D01*
X361278Y461179D01*
X361247Y461137D01*
X361209Y461102D01*
X361174Y461039D01*
X361131Y460981D01*
X361115Y460932D01*
X361090Y460886D01*
X361077Y460816D01*
X361055Y460747D01*
X361056Y460695D01*
X361046Y460644D01*
X361057Y460573D01*
X361058Y460501D01*
X361078Y460433D01*
X361082Y460401D01*
X361093Y460380D01*
X361104Y460340D01*
X361761Y458756D01*
X361761Y453464D01*
X359736Y448576D01*
X355994Y444834D01*
X351106Y442809D01*
X345814Y442809D01*
G37*
%LPD*%
%LPC*%
G36*
X365444Y494949D02*
X365444Y494949D01*
X359872Y497257D01*
X355607Y501522D01*
X353299Y507094D01*
X353299Y513126D01*
X354392Y515764D01*
X354408Y515834D01*
X354434Y515901D01*
X354436Y515953D01*
X354448Y516003D01*
X354442Y516075D01*
X354445Y516146D01*
X354430Y516196D01*
X354425Y516248D01*
X354396Y516314D01*
X354376Y516383D01*
X354346Y516425D01*
X354325Y516473D01*
X354277Y516526D01*
X354236Y516585D01*
X354194Y516616D01*
X354159Y516654D01*
X354096Y516689D01*
X354038Y516731D01*
X353989Y516748D01*
X353943Y516773D01*
X353873Y516785D01*
X353805Y516808D01*
X353752Y516807D01*
X353701Y516816D01*
X353630Y516806D01*
X353559Y516805D01*
X353490Y516785D01*
X353458Y516781D01*
X353437Y516770D01*
X353397Y516759D01*
X351106Y515809D01*
X345814Y515809D01*
X340926Y517834D01*
X337184Y521576D01*
X335159Y526464D01*
X335159Y531756D01*
X337184Y536644D01*
X340926Y540386D01*
X345814Y542411D01*
X351106Y542411D01*
X355994Y540386D01*
X359736Y536644D01*
X361761Y531756D01*
X361761Y526464D01*
X361104Y524880D01*
X361088Y524810D01*
X361062Y524743D01*
X361060Y524691D01*
X361048Y524640D01*
X361055Y524569D01*
X361052Y524497D01*
X361066Y524447D01*
X361071Y524395D01*
X361100Y524330D01*
X361120Y524261D01*
X361150Y524218D01*
X361171Y524171D01*
X361220Y524118D01*
X361261Y524059D01*
X361302Y524028D01*
X361338Y523989D01*
X361400Y523955D01*
X361458Y523912D01*
X361507Y523896D01*
X361553Y523871D01*
X361624Y523858D01*
X361692Y523836D01*
X361744Y523836D01*
X361795Y523827D01*
X361866Y523838D01*
X361938Y523838D01*
X362007Y523858D01*
X362039Y523863D01*
X362059Y523874D01*
X362099Y523885D01*
X365444Y525271D01*
X371476Y525271D01*
X377048Y522963D01*
X381313Y518698D01*
X383621Y513126D01*
X383621Y507094D01*
X381313Y501522D01*
X377048Y497257D01*
X371476Y494949D01*
X365444Y494949D01*
G37*
%LPD*%
G36*
X232228Y306286D02*
X232228Y306286D01*
X232280Y306287D01*
X232348Y306312D01*
X232418Y306327D01*
X232463Y306354D01*
X232511Y306371D01*
X232567Y306416D01*
X232629Y306453D01*
X232663Y306493D01*
X232703Y306525D01*
X232742Y306585D01*
X232789Y306640D01*
X232808Y306688D01*
X232836Y306732D01*
X232854Y306801D01*
X232871Y306843D01*
X232871Y306844D01*
X232881Y306868D01*
X232889Y306939D01*
X232897Y306971D01*
X232895Y306994D01*
X232899Y307035D01*
X232899Y336723D01*
X232915Y336775D01*
X232946Y336840D01*
X232951Y336892D01*
X232967Y336942D01*
X232965Y337014D01*
X232973Y337085D01*
X232962Y337136D01*
X232960Y337188D01*
X232936Y337255D01*
X232920Y337325D01*
X232894Y337370D01*
X232876Y337419D01*
X232831Y337475D01*
X232794Y337536D01*
X232755Y337570D01*
X232722Y337611D01*
X232662Y337650D01*
X232607Y337696D01*
X232559Y337716D01*
X232515Y337744D01*
X232446Y337761D01*
X232379Y337788D01*
X232308Y337796D01*
X232277Y337804D01*
X232253Y337802D01*
X232213Y337807D01*
X231969Y337807D01*
X220974Y337807D01*
X220967Y337814D01*
X220967Y337826D01*
X220974Y337833D01*
X230873Y337833D01*
X230893Y337837D01*
X230913Y337834D01*
X231014Y337856D01*
X231116Y337873D01*
X231134Y337882D01*
X231153Y337887D01*
X231242Y337940D01*
X231333Y337988D01*
X231347Y338003D01*
X231364Y338013D01*
X231432Y338092D01*
X231503Y338167D01*
X231511Y338185D01*
X231524Y338200D01*
X231563Y338296D01*
X231606Y338390D01*
X231609Y338409D01*
X231616Y338428D01*
X231635Y338595D01*
X231635Y350670D01*
X231631Y350690D01*
X231634Y350709D01*
X231612Y350811D01*
X231595Y350913D01*
X231586Y350930D01*
X231581Y350950D01*
X231528Y351039D01*
X231480Y351130D01*
X231465Y351144D01*
X231455Y351161D01*
X231377Y351228D01*
X231301Y351299D01*
X231283Y351308D01*
X231268Y351321D01*
X231172Y351359D01*
X231078Y351403D01*
X231059Y351405D01*
X231040Y351413D01*
X230873Y351431D01*
X230271Y351431D01*
X230271Y351433D01*
X230873Y351433D01*
X230893Y351436D01*
X230913Y351434D01*
X231014Y351456D01*
X231116Y351473D01*
X231134Y351482D01*
X231153Y351486D01*
X231242Y351539D01*
X231333Y351588D01*
X231347Y351602D01*
X231364Y351612D01*
X231432Y351691D01*
X231503Y351766D01*
X231511Y351784D01*
X231524Y351799D01*
X231563Y351895D01*
X231606Y351989D01*
X231609Y352009D01*
X231616Y352027D01*
X231635Y352194D01*
X231635Y362445D01*
X231631Y362465D01*
X231634Y362485D01*
X231612Y362586D01*
X231595Y362688D01*
X231586Y362706D01*
X231581Y362725D01*
X231528Y362814D01*
X231480Y362905D01*
X231465Y362919D01*
X231455Y362936D01*
X231376Y363004D01*
X231301Y363075D01*
X231283Y363083D01*
X231268Y363096D01*
X231172Y363135D01*
X231078Y363178D01*
X231059Y363181D01*
X231040Y363188D01*
X230873Y363207D01*
X218761Y363207D01*
X218434Y363207D01*
X218427Y363214D01*
X218427Y363541D01*
X218427Y409000D01*
X218415Y409071D01*
X218413Y409143D01*
X218395Y409192D01*
X218387Y409243D01*
X218353Y409306D01*
X218329Y409374D01*
X218296Y409414D01*
X218272Y409460D01*
X218220Y409509D01*
X218175Y409566D01*
X218131Y409594D01*
X218093Y409630D01*
X218028Y409660D01*
X217968Y409699D01*
X217918Y409711D01*
X217870Y409733D01*
X217799Y409741D01*
X217730Y409759D01*
X217678Y409755D01*
X217626Y409760D01*
X217556Y409745D01*
X217484Y409739D01*
X217436Y409719D01*
X217386Y409708D01*
X217324Y409671D01*
X217258Y409643D01*
X217202Y409598D01*
X217174Y409582D01*
X217159Y409564D01*
X217127Y409538D01*
X216904Y409315D01*
X216851Y409241D01*
X216791Y409172D01*
X216779Y409141D01*
X216760Y409115D01*
X216733Y409028D01*
X216699Y408943D01*
X216695Y408902D01*
X216688Y408880D01*
X216689Y408848D01*
X216681Y408777D01*
X216681Y321731D01*
X216695Y321641D01*
X216703Y321550D01*
X216715Y321520D01*
X216720Y321488D01*
X216763Y321407D01*
X216799Y321324D01*
X216825Y321291D01*
X216836Y321271D01*
X216859Y321249D01*
X216904Y321193D01*
X229753Y308344D01*
X231600Y306496D01*
X231658Y306455D01*
X231710Y306405D01*
X231757Y306383D01*
X231799Y306353D01*
X231868Y306332D01*
X231933Y306302D01*
X231985Y306296D01*
X232035Y306281D01*
X232106Y306282D01*
X232177Y306275D01*
X232228Y306286D01*
G37*
%LPC*%
G36*
X127364Y477275D02*
X127364Y477275D01*
X125220Y478163D01*
X123579Y479804D01*
X122691Y481948D01*
X122691Y484268D01*
X123579Y486412D01*
X124726Y487559D01*
X124779Y487633D01*
X124839Y487702D01*
X124851Y487733D01*
X124870Y487759D01*
X124897Y487846D01*
X124931Y487931D01*
X124935Y487972D01*
X124942Y487994D01*
X124941Y488026D01*
X124949Y488097D01*
X124949Y537823D01*
X134794Y547668D01*
X134847Y547742D01*
X134907Y547811D01*
X134919Y547841D01*
X134938Y547868D01*
X134965Y547954D01*
X134999Y548039D01*
X135003Y548080D01*
X135010Y548103D01*
X135009Y548135D01*
X135017Y548206D01*
X135017Y549828D01*
X135905Y551972D01*
X137546Y553613D01*
X139690Y554501D01*
X142010Y554501D01*
X144154Y553613D01*
X145795Y551972D01*
X146683Y549828D01*
X146683Y547508D01*
X145795Y545364D01*
X144154Y543723D01*
X142010Y542835D01*
X140388Y542835D01*
X140298Y542821D01*
X140207Y542813D01*
X140177Y542801D01*
X140145Y542796D01*
X140065Y542753D01*
X139981Y542717D01*
X139949Y542691D01*
X139928Y542680D01*
X139906Y542657D01*
X139850Y542612D01*
X132322Y535084D01*
X132269Y535010D01*
X132209Y534941D01*
X132197Y534911D01*
X132178Y534884D01*
X132151Y534798D01*
X132117Y534713D01*
X132113Y534672D01*
X132106Y534649D01*
X132107Y534617D01*
X132099Y534546D01*
X132099Y488097D01*
X132113Y488007D01*
X132121Y487916D01*
X132133Y487887D01*
X132138Y487855D01*
X132181Y487774D01*
X132217Y487690D01*
X132243Y487658D01*
X132254Y487637D01*
X132277Y487615D01*
X132322Y487559D01*
X133469Y486412D01*
X134357Y484268D01*
X134357Y481948D01*
X133469Y479804D01*
X131828Y478163D01*
X129684Y477275D01*
X127364Y477275D01*
G37*
%LPD*%
%LPC*%
G36*
X398814Y515809D02*
X398814Y515809D01*
X393926Y517834D01*
X390184Y521576D01*
X388159Y526464D01*
X388159Y531756D01*
X390184Y536644D01*
X393926Y540386D01*
X398814Y542411D01*
X404106Y542411D01*
X408994Y540386D01*
X412736Y536644D01*
X414761Y531756D01*
X414761Y526464D01*
X412736Y521576D01*
X408994Y517834D01*
X404106Y515809D01*
X398814Y515809D01*
G37*
%LPD*%
%LPC*%
G36*
X398814Y442809D02*
X398814Y442809D01*
X393926Y444834D01*
X390184Y448576D01*
X388159Y453464D01*
X388159Y458756D01*
X390184Y463644D01*
X393926Y467386D01*
X398814Y469411D01*
X404106Y469411D01*
X408994Y467386D01*
X412736Y463644D01*
X414761Y458756D01*
X414761Y453464D01*
X412736Y448576D01*
X408994Y444834D01*
X404106Y442809D01*
X398814Y442809D01*
G37*
%LPD*%
G36*
X315010Y246011D02*
X315010Y246011D01*
X315061Y246013D01*
X315093Y246031D01*
X315129Y246039D01*
X315168Y246072D01*
X315213Y246096D01*
X315234Y246126D01*
X315262Y246149D01*
X315283Y246196D01*
X315313Y246238D01*
X315321Y246280D01*
X315333Y246308D01*
X315332Y246338D01*
X315340Y246380D01*
X315340Y269240D01*
X315329Y269290D01*
X315327Y269341D01*
X315309Y269373D01*
X315301Y269409D01*
X315268Y269448D01*
X315244Y269493D01*
X315214Y269514D01*
X315191Y269542D01*
X315144Y269563D01*
X315102Y269593D01*
X315060Y269601D01*
X315032Y269613D01*
X315002Y269612D01*
X314960Y269620D01*
X292100Y269620D01*
X292050Y269609D01*
X291999Y269607D01*
X291967Y269589D01*
X291931Y269581D01*
X291892Y269548D01*
X291847Y269524D01*
X291826Y269494D01*
X291798Y269471D01*
X291777Y269424D01*
X291747Y269382D01*
X291739Y269340D01*
X291727Y269312D01*
X291728Y269282D01*
X291720Y269240D01*
X291720Y246380D01*
X291731Y246330D01*
X291733Y246279D01*
X291751Y246247D01*
X291759Y246211D01*
X291792Y246172D01*
X291816Y246127D01*
X291846Y246106D01*
X291869Y246078D01*
X291916Y246057D01*
X291958Y246027D01*
X292000Y246019D01*
X292028Y246007D01*
X292058Y246008D01*
X292100Y246000D01*
X314960Y246000D01*
X315010Y246011D01*
G37*
G36*
X285419Y99855D02*
X285419Y99855D01*
X285510Y99863D01*
X285540Y99875D01*
X285572Y99880D01*
X285653Y99923D01*
X285736Y99959D01*
X285769Y99985D01*
X285789Y99996D01*
X285811Y100019D01*
X285867Y100064D01*
X288556Y102753D01*
X288609Y102826D01*
X288669Y102896D01*
X288681Y102926D01*
X288700Y102952D01*
X288727Y103039D01*
X288761Y103124D01*
X288765Y103165D01*
X288772Y103187D01*
X288771Y103220D01*
X288779Y103291D01*
X288779Y183558D01*
X288772Y183603D01*
X288774Y183649D01*
X288752Y183724D01*
X288740Y183801D01*
X288718Y183841D01*
X288705Y183886D01*
X288661Y183950D01*
X288624Y184018D01*
X288591Y184050D01*
X288565Y184088D01*
X288503Y184134D01*
X288446Y184188D01*
X288404Y184207D01*
X288368Y184234D01*
X288294Y184259D01*
X288223Y184291D01*
X288177Y184296D01*
X288134Y184311D01*
X288056Y184310D01*
X287979Y184318D01*
X287934Y184309D01*
X287888Y184308D01*
X287756Y184270D01*
X287738Y184266D01*
X287734Y184264D01*
X287727Y184262D01*
X285640Y183397D01*
X283320Y183397D01*
X281233Y184262D01*
X281189Y184272D01*
X281147Y184291D01*
X281070Y184300D01*
X280994Y184318D01*
X280948Y184313D01*
X280903Y184318D01*
X280826Y184302D01*
X280749Y184295D01*
X280707Y184276D01*
X280662Y184266D01*
X280595Y184226D01*
X280524Y184195D01*
X280490Y184164D01*
X280451Y184140D01*
X280400Y184081D01*
X280343Y184028D01*
X280321Y183988D01*
X280291Y183953D01*
X280262Y183881D01*
X280225Y183813D01*
X280216Y183768D01*
X280199Y183725D01*
X280184Y183589D01*
X280181Y183571D01*
X280182Y183566D01*
X280181Y183558D01*
X280181Y158136D01*
X278013Y155968D01*
X273217Y151173D01*
X273175Y151115D01*
X273126Y151063D01*
X273104Y151016D01*
X273074Y150973D01*
X273053Y150905D01*
X273022Y150840D01*
X273017Y150788D01*
X273001Y150738D01*
X273003Y150666D01*
X272995Y150595D01*
X273006Y150544D01*
X273008Y150492D01*
X273032Y150425D01*
X273048Y150355D01*
X273074Y150310D01*
X273092Y150261D01*
X273137Y150205D01*
X273174Y150144D01*
X273213Y150110D01*
X273246Y150069D01*
X273306Y150030D01*
X273361Y149984D01*
X273409Y149964D01*
X273453Y149936D01*
X273522Y149919D01*
X273589Y149892D01*
X273660Y149884D01*
X273691Y149876D01*
X273715Y149878D01*
X273755Y149873D01*
X284486Y149873D01*
X284493Y149866D01*
X284493Y100602D01*
X284497Y100582D01*
X284494Y100563D01*
X284516Y100461D01*
X284533Y100359D01*
X284542Y100342D01*
X284547Y100322D01*
X284600Y100233D01*
X284648Y100142D01*
X284663Y100128D01*
X284673Y100111D01*
X284752Y100044D01*
X284827Y99972D01*
X284845Y99964D01*
X284860Y99951D01*
X284956Y99912D01*
X285050Y99869D01*
X285069Y99867D01*
X285088Y99859D01*
X285255Y99841D01*
X285329Y99841D01*
X285419Y99855D01*
G37*
%LPC*%
G36*
X351370Y302441D02*
X351370Y302441D01*
X346695Y304378D01*
X343118Y307955D01*
X341181Y312630D01*
X341181Y317690D01*
X343118Y322365D01*
X346695Y325942D01*
X351370Y327879D01*
X356430Y327879D01*
X361105Y325942D01*
X364682Y322365D01*
X366619Y317690D01*
X366619Y312630D01*
X364682Y307955D01*
X361105Y304378D01*
X356430Y302441D01*
X351370Y302441D01*
G37*
%LPD*%
%LPC*%
G36*
X351370Y197441D02*
X351370Y197441D01*
X346695Y199378D01*
X343118Y202955D01*
X341181Y207630D01*
X341181Y212690D01*
X343118Y217365D01*
X346695Y220942D01*
X351370Y222879D01*
X356430Y222879D01*
X361105Y220942D01*
X364682Y217365D01*
X366619Y212690D01*
X366619Y207630D01*
X364682Y202955D01*
X361105Y199378D01*
X356430Y197441D01*
X351370Y197441D01*
G37*
%LPD*%
%LPC*%
G36*
X351370Y232441D02*
X351370Y232441D01*
X346695Y234378D01*
X343118Y237955D01*
X341181Y242630D01*
X341181Y247690D01*
X343118Y252365D01*
X346695Y255942D01*
X351370Y257879D01*
X356430Y257879D01*
X361105Y255942D01*
X364682Y252365D01*
X366619Y247690D01*
X366619Y242630D01*
X364682Y237955D01*
X361105Y234378D01*
X356430Y232441D01*
X351370Y232441D01*
G37*
%LPD*%
%LPC*%
G36*
X351370Y267441D02*
X351370Y267441D01*
X346695Y269378D01*
X343118Y272955D01*
X341181Y277630D01*
X341181Y282690D01*
X343118Y287365D01*
X346695Y290942D01*
X351370Y292879D01*
X356430Y292879D01*
X361105Y290942D01*
X364682Y287365D01*
X366619Y282690D01*
X366619Y277630D01*
X364682Y272955D01*
X361105Y269378D01*
X356430Y267441D01*
X351370Y267441D01*
G37*
%LPD*%
G36*
X312470Y380631D02*
X312470Y380631D01*
X312521Y380633D01*
X312553Y380651D01*
X312589Y380659D01*
X312628Y380692D01*
X312673Y380716D01*
X312694Y380746D01*
X312722Y380769D01*
X312743Y380816D01*
X312773Y380858D01*
X312781Y380900D01*
X312793Y380928D01*
X312792Y380958D01*
X312800Y381000D01*
X312800Y395224D01*
X312789Y395274D01*
X312787Y395325D01*
X312769Y395357D01*
X312761Y395393D01*
X312728Y395432D01*
X312704Y395477D01*
X312674Y395498D01*
X312651Y395526D01*
X312604Y395547D01*
X312562Y395577D01*
X312520Y395585D01*
X312492Y395597D01*
X312462Y395596D01*
X312420Y395604D01*
X287020Y395604D01*
X286970Y395593D01*
X286919Y395591D01*
X286887Y395573D01*
X286851Y395565D01*
X286812Y395532D01*
X286767Y395508D01*
X286746Y395478D01*
X286718Y395455D01*
X286697Y395408D01*
X286667Y395366D01*
X286659Y395324D01*
X286647Y395296D01*
X286648Y395266D01*
X286640Y395224D01*
X286640Y381000D01*
X286651Y380950D01*
X286653Y380899D01*
X286671Y380867D01*
X286679Y380831D01*
X286712Y380792D01*
X286736Y380747D01*
X286766Y380726D01*
X286789Y380698D01*
X286836Y380677D01*
X286878Y380647D01*
X286920Y380639D01*
X286948Y380627D01*
X286978Y380628D01*
X287020Y380620D01*
X312420Y380620D01*
X312470Y380631D01*
G37*
%LPC*%
G36*
X149716Y527567D02*
X149716Y527567D01*
X147572Y528455D01*
X145931Y530096D01*
X145043Y532240D01*
X145043Y534560D01*
X145931Y536704D01*
X147572Y538345D01*
X149716Y539233D01*
X152036Y539233D01*
X154180Y538345D01*
X155821Y536704D01*
X156709Y534560D01*
X156709Y532240D01*
X155821Y530096D01*
X154180Y528455D01*
X152036Y527567D01*
X149716Y527567D01*
G37*
%LPD*%
%LPC*%
G36*
X76056Y181619D02*
X76056Y181619D01*
X73912Y182507D01*
X72271Y184148D01*
X71383Y186292D01*
X71383Y188612D01*
X72271Y190756D01*
X73912Y192397D01*
X76056Y193285D01*
X78376Y193285D01*
X80520Y192397D01*
X82161Y190756D01*
X83049Y188612D01*
X83049Y186292D01*
X82161Y184148D01*
X80520Y182507D01*
X78376Y181619D01*
X76056Y181619D01*
G37*
%LPD*%
%LPC*%
G36*
X153780Y126247D02*
X153780Y126247D01*
X151636Y127135D01*
X149995Y128776D01*
X149107Y130920D01*
X149107Y133240D01*
X149995Y135384D01*
X151636Y137025D01*
X153780Y137913D01*
X156100Y137913D01*
X158244Y137025D01*
X159885Y135384D01*
X160773Y133240D01*
X160773Y130920D01*
X159885Y128776D01*
X158244Y127135D01*
X156100Y126247D01*
X153780Y126247D01*
G37*
%LPD*%
%LPC*%
G36*
X177910Y111769D02*
X177910Y111769D01*
X175766Y112657D01*
X174125Y114298D01*
X173237Y116442D01*
X173237Y118762D01*
X174125Y120906D01*
X175766Y122547D01*
X177910Y123435D01*
X180230Y123435D01*
X182374Y122547D01*
X184015Y120906D01*
X184903Y118762D01*
X184903Y116442D01*
X184015Y114298D01*
X182374Y112657D01*
X180230Y111769D01*
X177910Y111769D01*
G37*
%LPD*%
%LPC*%
G36*
X121268Y106943D02*
X121268Y106943D01*
X119124Y107831D01*
X117483Y109472D01*
X116595Y111616D01*
X116595Y113936D01*
X117483Y116080D01*
X119124Y117721D01*
X121268Y118609D01*
X123588Y118609D01*
X125732Y117721D01*
X127373Y116080D01*
X128261Y113936D01*
X128261Y111616D01*
X127373Y109472D01*
X125732Y107831D01*
X123588Y106943D01*
X121268Y106943D01*
G37*
%LPD*%
%LPC*%
G36*
X157844Y93227D02*
X157844Y93227D01*
X155700Y94115D01*
X154059Y95756D01*
X153171Y97900D01*
X153171Y100220D01*
X154059Y102364D01*
X155700Y104005D01*
X157844Y104893D01*
X160164Y104893D01*
X162308Y104005D01*
X163949Y102364D01*
X164837Y100220D01*
X164837Y97900D01*
X163949Y95756D01*
X162308Y94115D01*
X160164Y93227D01*
X157844Y93227D01*
G37*
%LPD*%
%LPC*%
G36*
X195944Y82051D02*
X195944Y82051D01*
X193800Y82939D01*
X192159Y84580D01*
X191271Y86724D01*
X191271Y89044D01*
X192159Y91188D01*
X193800Y92829D01*
X195944Y93717D01*
X198264Y93717D01*
X200408Y92829D01*
X202049Y91188D01*
X202937Y89044D01*
X202937Y86724D01*
X202049Y84580D01*
X200408Y82939D01*
X198264Y82051D01*
X195944Y82051D01*
G37*
%LPD*%
%LPC*%
G36*
X179942Y54873D02*
X179942Y54873D01*
X177798Y55761D01*
X176157Y57402D01*
X175269Y59546D01*
X175269Y61866D01*
X176157Y64010D01*
X177798Y65651D01*
X179942Y66539D01*
X182262Y66539D01*
X184406Y65651D01*
X186047Y64010D01*
X186935Y61866D01*
X186935Y59546D01*
X186047Y57402D01*
X184406Y55761D01*
X182262Y54873D01*
X179942Y54873D01*
G37*
%LPD*%
%LPC*%
G36*
X267064Y298967D02*
X267064Y298967D01*
X264920Y299855D01*
X263279Y301496D01*
X262391Y303640D01*
X262391Y305960D01*
X263279Y308104D01*
X264920Y309745D01*
X267064Y310633D01*
X269384Y310633D01*
X271528Y309745D01*
X273169Y308104D01*
X274057Y305960D01*
X274057Y303640D01*
X273169Y301496D01*
X271528Y299855D01*
X269384Y298967D01*
X267064Y298967D01*
G37*
%LPD*%
%LPC*%
G36*
X183752Y297951D02*
X183752Y297951D01*
X181608Y298839D01*
X179967Y300480D01*
X179079Y302624D01*
X179079Y304944D01*
X179967Y307088D01*
X181608Y308729D01*
X183752Y309617D01*
X186072Y309617D01*
X188216Y308729D01*
X189857Y307088D01*
X190745Y304944D01*
X190745Y302624D01*
X189857Y300480D01*
X188216Y298839D01*
X186072Y297951D01*
X183752Y297951D01*
G37*
%LPD*%
%LPC*%
G36*
X355423Y351683D02*
X355423Y351683D01*
X355423Y363292D01*
X356993Y363043D01*
X358970Y362401D01*
X360823Y361457D01*
X362505Y360235D01*
X363975Y358765D01*
X365197Y357083D01*
X366141Y355230D01*
X366783Y353253D01*
X367032Y351683D01*
X355423Y351683D01*
G37*
%LPD*%
%LPC*%
G36*
X340768Y351683D02*
X340768Y351683D01*
X341017Y353253D01*
X341659Y355230D01*
X342603Y357083D01*
X343825Y358765D01*
X345295Y360235D01*
X346977Y361457D01*
X348830Y362401D01*
X350807Y363043D01*
X352377Y363292D01*
X352377Y351683D01*
X340768Y351683D01*
G37*
%LPD*%
%LPC*%
G36*
X355423Y348637D02*
X355423Y348637D01*
X367032Y348637D01*
X366783Y347067D01*
X366141Y345090D01*
X365197Y343237D01*
X363975Y341555D01*
X362505Y340085D01*
X360823Y338863D01*
X358970Y337919D01*
X356993Y337277D01*
X355423Y337028D01*
X355423Y348637D01*
G37*
%LPD*%
%LPC*%
G36*
X350807Y337277D02*
X350807Y337277D01*
X348830Y337919D01*
X346977Y338863D01*
X345295Y340085D01*
X343825Y341555D01*
X342603Y343237D01*
X341659Y345090D01*
X341017Y347067D01*
X340768Y348637D01*
X352377Y348637D01*
X352377Y337028D01*
X350807Y337277D01*
G37*
%LPD*%
%LPC*%
G36*
X220226Y352955D02*
X220226Y352955D01*
X220361Y353811D01*
X220856Y355332D01*
X221582Y356757D01*
X222522Y358051D01*
X223653Y359182D01*
X224947Y360122D01*
X226372Y360848D01*
X227893Y361343D01*
X228749Y361478D01*
X228749Y352955D01*
X220226Y352955D01*
G37*
%LPD*%
%LPC*%
G36*
X227893Y341521D02*
X227893Y341521D01*
X226372Y342016D01*
X224947Y342742D01*
X223653Y343682D01*
X222522Y344813D01*
X221582Y346107D01*
X220856Y347532D01*
X220361Y349053D01*
X220226Y349909D01*
X228749Y349909D01*
X228749Y341386D01*
X227893Y341521D01*
G37*
%LPD*%
%LPC*%
G36*
X37083Y465073D02*
X37083Y465073D01*
X37083Y473515D01*
X37921Y473383D01*
X39430Y472892D01*
X40843Y472172D01*
X42127Y471239D01*
X43249Y470117D01*
X44182Y468833D01*
X44902Y467420D01*
X45393Y465911D01*
X45525Y465073D01*
X37083Y465073D01*
G37*
%LPD*%
%LPC*%
G36*
X37083Y515873D02*
X37083Y515873D01*
X37083Y524315D01*
X37921Y524183D01*
X39430Y523692D01*
X40843Y522972D01*
X42127Y522039D01*
X43249Y520917D01*
X44182Y519633D01*
X44902Y518220D01*
X45393Y516711D01*
X45525Y515873D01*
X37083Y515873D01*
G37*
%LPD*%
%LPC*%
G36*
X37083Y379983D02*
X37083Y379983D01*
X37083Y388425D01*
X37921Y388293D01*
X39430Y387802D01*
X40843Y387082D01*
X42127Y386149D01*
X43249Y385027D01*
X44182Y383743D01*
X44902Y382330D01*
X45393Y380821D01*
X45525Y379983D01*
X37083Y379983D01*
G37*
%LPD*%
%LPC*%
G36*
X37083Y270763D02*
X37083Y270763D01*
X37083Y279205D01*
X37921Y279073D01*
X39430Y278582D01*
X40843Y277862D01*
X42127Y276929D01*
X43249Y275807D01*
X44182Y274523D01*
X44902Y273110D01*
X45393Y271601D01*
X45525Y270763D01*
X37083Y270763D01*
G37*
%LPD*%
%LPC*%
G36*
X273303Y59943D02*
X273303Y59943D01*
X273303Y68385D01*
X274141Y68253D01*
X275650Y67762D01*
X277063Y67042D01*
X278347Y66109D01*
X279469Y64987D01*
X280402Y63703D01*
X281122Y62290D01*
X281613Y60781D01*
X281745Y59943D01*
X273303Y59943D01*
G37*
%LPD*%
%LPC*%
G36*
X364743Y59943D02*
X364743Y59943D01*
X364743Y68385D01*
X365581Y68253D01*
X367090Y67762D01*
X368503Y67042D01*
X369787Y66109D01*
X370909Y64987D01*
X371842Y63703D01*
X372562Y62290D01*
X373053Y60781D01*
X373185Y59943D01*
X364743Y59943D01*
G37*
%LPD*%
%LPC*%
G36*
X25595Y515873D02*
X25595Y515873D01*
X25727Y516711D01*
X26218Y518220D01*
X26938Y519633D01*
X27871Y520917D01*
X28993Y522039D01*
X30277Y522972D01*
X31690Y523692D01*
X33199Y524183D01*
X34037Y524315D01*
X34037Y515873D01*
X25595Y515873D01*
G37*
%LPD*%
%LPC*%
G36*
X37083Y462027D02*
X37083Y462027D01*
X45525Y462027D01*
X45393Y461189D01*
X44902Y459680D01*
X44182Y458267D01*
X43249Y456983D01*
X42127Y455861D01*
X40843Y454928D01*
X39430Y454208D01*
X37921Y453717D01*
X37083Y453585D01*
X37083Y462027D01*
G37*
%LPD*%
%LPC*%
G36*
X25595Y379983D02*
X25595Y379983D01*
X25727Y380821D01*
X26218Y382330D01*
X26938Y383743D01*
X27871Y385027D01*
X28993Y386149D01*
X30277Y387082D01*
X31690Y387802D01*
X33199Y388293D01*
X34037Y388425D01*
X34037Y379983D01*
X25595Y379983D01*
G37*
%LPD*%
%LPC*%
G36*
X25595Y270763D02*
X25595Y270763D01*
X25727Y271601D01*
X26218Y273110D01*
X26938Y274523D01*
X27871Y275807D01*
X28993Y276929D01*
X30277Y277862D01*
X31690Y278582D01*
X33199Y279073D01*
X34037Y279205D01*
X34037Y270763D01*
X25595Y270763D01*
G37*
%LPD*%
%LPC*%
G36*
X261815Y59943D02*
X261815Y59943D01*
X261947Y60781D01*
X262438Y62290D01*
X263158Y63703D01*
X264091Y64987D01*
X265213Y66109D01*
X266497Y67042D01*
X267910Y67762D01*
X269419Y68253D01*
X270257Y68385D01*
X270257Y59943D01*
X261815Y59943D01*
G37*
%LPD*%
%LPC*%
G36*
X353255Y59943D02*
X353255Y59943D01*
X353387Y60781D01*
X353878Y62290D01*
X354598Y63703D01*
X355531Y64987D01*
X356653Y66109D01*
X357937Y67042D01*
X359350Y67762D01*
X360859Y68253D01*
X361697Y68385D01*
X361697Y59943D01*
X353255Y59943D01*
G37*
%LPD*%
%LPC*%
G36*
X364743Y56897D02*
X364743Y56897D01*
X373185Y56897D01*
X373053Y56059D01*
X372562Y54550D01*
X371842Y53137D01*
X370909Y51853D01*
X369787Y50731D01*
X368503Y49798D01*
X367090Y49078D01*
X365581Y48587D01*
X364743Y48455D01*
X364743Y56897D01*
G37*
%LPD*%
%LPC*%
G36*
X273303Y56897D02*
X273303Y56897D01*
X281745Y56897D01*
X281613Y56059D01*
X281122Y54550D01*
X280402Y53137D01*
X279469Y51853D01*
X278347Y50731D01*
X277063Y49798D01*
X275650Y49078D01*
X274141Y48587D01*
X273303Y48455D01*
X273303Y56897D01*
G37*
%LPD*%
%LPC*%
G36*
X269419Y48587D02*
X269419Y48587D01*
X267910Y49078D01*
X266497Y49798D01*
X265213Y50731D01*
X264091Y51853D01*
X263158Y53137D01*
X262438Y54550D01*
X261947Y56059D01*
X261815Y56897D01*
X270257Y56897D01*
X270257Y48455D01*
X269419Y48587D01*
G37*
%LPD*%
%LPC*%
G36*
X360859Y48587D02*
X360859Y48587D01*
X359350Y49078D01*
X357937Y49798D01*
X356653Y50731D01*
X355531Y51853D01*
X354598Y53137D01*
X353878Y54550D01*
X353387Y56059D01*
X353255Y56897D01*
X361697Y56897D01*
X361697Y48455D01*
X360859Y48587D01*
G37*
%LPD*%
%LPC*%
G36*
X353899Y350159D02*
X353899Y350159D01*
X353899Y350161D01*
X353901Y350161D01*
X353901Y350159D01*
X353899Y350159D01*
G37*
%LPD*%
%LPC*%
G36*
X363219Y58419D02*
X363219Y58419D01*
X363219Y58421D01*
X363221Y58421D01*
X363221Y58419D01*
X363219Y58419D01*
G37*
%LPD*%
%LPC*%
G36*
X271779Y58419D02*
X271779Y58419D01*
X271779Y58421D01*
X271781Y58421D01*
X271781Y58419D01*
X271779Y58419D01*
G37*
%LPD*%
D10*
X401460Y456110D03*
X401460Y529110D03*
X348460Y456110D03*
X348460Y529110D03*
D11*
X255672Y351432D03*
X230272Y351432D03*
X255672Y376832D03*
X230272Y376832D03*
X255672Y402232D03*
X230272Y402232D03*
D12*
X35560Y378460D03*
X35560Y353060D03*
X35560Y327660D03*
X35560Y269240D03*
X35560Y243840D03*
X35560Y218440D03*
X35560Y514350D03*
X35560Y488950D03*
X35560Y463550D03*
X35560Y438150D03*
X271780Y134620D03*
X246380Y134620D03*
X271780Y109220D03*
X246380Y109220D03*
X271780Y83820D03*
X246380Y83820D03*
X271780Y58420D03*
X246380Y58420D03*
X271780Y33020D03*
X246380Y33020D03*
X35560Y160020D03*
X35560Y134620D03*
X35560Y109220D03*
X35560Y83820D03*
X363220Y134620D03*
X337820Y134620D03*
X363220Y109220D03*
X337820Y109220D03*
X363220Y83820D03*
X337820Y83820D03*
X363220Y58420D03*
X337820Y58420D03*
X363220Y33020D03*
X337820Y33020D03*
D13*
X353900Y210160D03*
X353900Y245160D03*
X353900Y280160D03*
X353900Y315160D03*
X353900Y350160D03*
D14*
X324104Y508508D03*
X166116Y299720D03*
X186944Y289052D03*
X280416Y337566D03*
X252984Y254000D03*
X22860Y302260D03*
X20320Y190500D03*
X22860Y411480D03*
X55880Y25400D03*
X121920Y17400D03*
X207740Y16400D03*
X303784Y16924D03*
X294640Y58420D03*
X408940Y66040D03*
X381000Y104140D03*
X408940Y205740D03*
X411480Y368300D03*
X96774Y253492D03*
X208280Y558800D03*
X55880Y558800D03*
X175260Y449580D03*
X370840Y558800D03*
X237744Y508508D03*
X164084Y195580D03*
X184404Y230124D03*
X114300Y137160D03*
X99060Y55880D03*
X17780Y63500D03*
X68580Y340360D03*
X70612Y232664D03*
X200660Y55880D03*
X223520Y86360D03*
X112776Y312420D03*
X115316Y376936D03*
X322072Y376936D03*
X332740Y416560D03*
X97028Y531368D03*
X67564Y448056D03*
X86360Y398780D03*
X217932Y233680D03*
X154940Y76200D03*
X414020Y124460D03*
X151384Y117856D03*
X82296Y123444D03*
X203200Y137160D03*
X106172Y197612D03*
X163068Y376936D03*
X205740Y381000D03*
X206248Y321056D03*
X162052Y325628D03*
X408940Y281940D03*
X284480Y173990D03*
X391160Y157480D03*
X386080Y243840D03*
X383540Y317500D03*
X259334Y333248D03*
X219710Y285750D03*
X121412Y274828D03*
X91440Y294640D03*
X300736Y95504D03*
X408940Y431800D03*
X244348Y488696D03*
X216916Y506984D03*
X233680Y449580D03*
X218440Y429260D03*
X185420Y323596D03*
X317500Y302260D03*
X287528Y303276D03*
X223520Y327660D03*
X189484Y113284D03*
X153924Y558800D03*
X175260Y487172D03*
X200660Y476504D03*
X147828Y484632D03*
X86360Y482600D03*
X139700Y449580D03*
X211328Y528828D03*
X213868Y489204D03*
X286512Y528828D03*
X243332Y527812D03*
X282448Y510032D03*
X256540Y229616D03*
X148844Y175260D03*
X195072Y195580D03*
X194564Y175260D03*
X189484Y255016D03*
X320040Y558800D03*
X314960Y528320D03*
X291592Y438912D03*
X322072Y397256D03*
X161544Y349504D03*
X323596Y252984D03*
X325120Y322580D03*
X358140Y381000D03*
X327660Y452120D03*
X354838Y176530D03*
X298704Y251460D03*
X165608Y390398D03*
X274320Y398780D03*
D15*
X274320Y368300D02*
X298450Y344170D01*
X274320Y368300D02*
X274320Y398780D01*
X298450Y344170D02*
X298450Y265430D01*
X299720Y264160D01*
D14*
X112268Y468376D03*
D15*
X112268Y555752D01*
D14*
X112268Y555752D03*
X281940Y468376D03*
D15*
X281940Y370840D02*
X304800Y347980D01*
X281940Y370840D02*
X281940Y468376D01*
X304800Y347980D02*
X304800Y269240D01*
X299720Y264160D01*
D14*
X299720Y264160D03*
D15*
X165608Y390398D02*
X165608Y544946D01*
X179246Y558584D01*
D14*
X179246Y558584D03*
X309880Y259080D03*
X152400Y411480D03*
D16*
X152400Y270510D01*
X170180Y252730D01*
D14*
X170180Y252730D03*
X138176Y378968D03*
D16*
X146812Y370332D01*
X146812Y259588D01*
X161290Y245110D01*
D14*
X161290Y245110D03*
X155448Y204216D03*
D16*
X141224Y218440D01*
D14*
X125476Y395732D03*
D16*
X125486Y395722D01*
X125486Y378563D02*
X141224Y362825D01*
X125486Y378563D02*
X125486Y395722D01*
X141224Y362825D02*
X141224Y218440D01*
D14*
X206746Y296672D03*
X224536Y106172D03*
D16*
X224526Y106182D01*
X224526Y150262D01*
X206492Y296418D02*
X206746Y296672D01*
X206492Y296418D02*
X206492Y168296D01*
X224526Y150262D01*
D14*
X122428Y112776D03*
X185420Y413512D03*
D16*
X198120Y400812D01*
X198120Y230632D01*
D14*
X198120Y230632D03*
X323596Y209804D03*
D16*
X323596Y128524D01*
X330200Y121920D02*
X350520Y121920D01*
X363220Y109220D01*
X330200Y121920D02*
X323596Y128524D01*
X299720Y203200D02*
X317500Y220980D01*
X299720Y203200D02*
X299720Y111760D01*
X332740Y88900D02*
X337820Y83820D01*
X332740Y88900D02*
X322580Y88900D01*
X299720Y111760D01*
D14*
X317500Y220980D03*
X149860Y220980D03*
X154940Y132080D03*
X159004Y99060D03*
X181102Y60706D03*
X179070Y117602D03*
X160020Y226060D03*
D16*
X292100Y219456D02*
X296164Y223520D01*
X292100Y219456D02*
X292100Y101600D01*
D14*
X296164Y223520D03*
D16*
X292100Y101600D02*
X287020Y96520D01*
X259080Y96520D02*
X246380Y83820D01*
X259080Y96520D02*
X287020Y96520D01*
D14*
X314960Y189484D03*
D16*
X322580Y109220D02*
X337820Y109220D01*
X322580Y109220D02*
X314960Y116840D01*
X314960Y189484D01*
D14*
X315214Y202692D03*
D16*
X350520Y96520D02*
X363220Y83820D01*
X350520Y96520D02*
X325120Y96520D01*
X306324Y115316D01*
X311404Y202692D02*
X315214Y202692D01*
X311404Y202692D02*
X306324Y197612D01*
X306324Y115316D01*
D14*
X236220Y279400D03*
D16*
X243840Y342900D02*
X243840Y390400D01*
X243840Y342900D02*
X236220Y335280D01*
X236220Y279400D01*
X243840Y390400D02*
X255672Y402232D01*
D14*
X218186Y196342D03*
D16*
X213360Y320040D02*
X213360Y414020D01*
X213360Y320040D02*
X228600Y304800D01*
X228600Y206756D01*
X218186Y196342D01*
D14*
X213360Y414020D03*
X88900Y179672D03*
D16*
X104140Y247236D02*
X104140Y491236D01*
X104140Y247236D02*
X88900Y231996D01*
X88900Y179672D01*
D14*
X104140Y491236D03*
X315976Y470916D03*
X315976Y488696D03*
X128524Y483108D03*
D15*
X128524Y536342D02*
X140850Y548668D01*
X128524Y536342D02*
X128524Y483108D01*
D14*
X140850Y548668D03*
X150876Y533400D03*
X306324Y547624D03*
D16*
X306324Y390144D01*
X304800Y388620D01*
D14*
X304800Y388620D03*
X292608Y388112D03*
D15*
X300228Y394208D02*
X300228Y535432D01*
X300228Y394208D02*
X294132Y388112D01*
X292608Y388112D01*
X300228Y535432D02*
X286992Y548668D01*
D14*
X286992Y548668D03*
X160476Y362136D03*
X122936Y295148D03*
X172720Y237744D03*
D16*
X172720Y139934D01*
X177536Y135118D02*
X186680Y135118D01*
X177536Y135118D02*
X172720Y139934D01*
D14*
X186680Y135118D03*
X96520Y228600D03*
D16*
X96520Y110236D01*
X118872Y87884D01*
D14*
X118872Y87884D03*
X197104Y87884D03*
D16*
X260248Y273456D02*
X260604Y273812D01*
X260248Y273456D02*
X260248Y244754D01*
X260096Y244602D01*
D14*
X260096Y244602D03*
D16*
X268224Y244602D02*
X276860Y235966D01*
X268224Y244602D02*
X260096Y244602D01*
X276860Y159512D02*
X259588Y142240D01*
X276860Y159512D02*
X276860Y235966D01*
D14*
X259588Y142240D03*
X284480Y189230D03*
X270408Y273812D03*
D16*
X270408Y252832D01*
X284480Y238760D01*
X284480Y189230D01*
D14*
X184912Y303784D03*
X268224Y304800D03*
X215392Y304292D03*
X77216Y187452D03*
X260604Y273812D03*
D16*
X131064Y306324D02*
X130556Y306832D01*
X131064Y306324D02*
X131064Y208788D01*
X143764Y196088D01*
D14*
X130556Y306832D03*
X143764Y196088D03*
X218694Y176784D03*
D16*
X236220Y194310D01*
X236220Y258064D02*
X241300Y263144D01*
X236220Y258064D02*
X236220Y194310D01*
D14*
X241300Y263144D03*
X269240Y173990D03*
D16*
X269240Y173990D01*
D14*
X269380Y230886D03*
D16*
X269240Y230746D02*
X269240Y173990D01*
X269240Y230746D02*
X269380Y230886D01*
D14*
X112908Y265552D03*
X105146Y208788D03*
X215900Y137160D03*
M02*
