G04 EAGLE Gerber RS-274X export*
G75*
%MOMM*%
%FSLAX34Y34*%
%LPD*%
%INCopper Layer 2*%
%IPPOS*%
%AMOC8*
5,1,8,0,0,1.08239X$1,22.5*%
G01*
%ADD10C,2.250000*%
%ADD11C,1.524000*%
%ADD12C,1.508000*%
%ADD13C,2.133600*%
%ADD14C,0.756400*%
%ADD15C,0.304800*%
%ADD16C,0.254000*%
%ADD17C,0.406400*%

G36*
X379877Y10926D02*
X379877Y10926D01*
X379896Y10924D01*
X379998Y10946D01*
X380100Y10962D01*
X380117Y10972D01*
X380137Y10976D01*
X380226Y11029D01*
X380317Y11078D01*
X380331Y11092D01*
X380348Y11102D01*
X380415Y11181D01*
X380487Y11256D01*
X380495Y11274D01*
X380508Y11289D01*
X380547Y11385D01*
X380590Y11479D01*
X380592Y11499D01*
X380600Y11517D01*
X380618Y11684D01*
X380618Y20585D01*
X380608Y20649D01*
X380607Y20715D01*
X380584Y20795D01*
X380579Y20827D01*
X380569Y20845D01*
X380560Y20876D01*
X380409Y21241D01*
X380409Y29559D01*
X383593Y37245D01*
X389475Y43127D01*
X397161Y46311D01*
X403596Y46311D01*
X403686Y46325D01*
X403777Y46333D01*
X403806Y46345D01*
X403838Y46350D01*
X403848Y46356D01*
X418328Y46356D01*
X418348Y46359D01*
X418367Y46357D01*
X418469Y46379D01*
X418571Y46395D01*
X418588Y46405D01*
X418608Y46409D01*
X418697Y46462D01*
X418788Y46511D01*
X418802Y46525D01*
X418819Y46535D01*
X418886Y46614D01*
X418958Y46689D01*
X418966Y46707D01*
X418979Y46722D01*
X419018Y46818D01*
X419061Y46912D01*
X419063Y46932D01*
X419071Y46950D01*
X419089Y47117D01*
X419089Y546872D01*
X419088Y546880D01*
X419088Y546882D01*
X419086Y546894D01*
X419075Y546962D01*
X419067Y547053D01*
X419055Y547083D01*
X419050Y547115D01*
X419007Y547195D01*
X418971Y547279D01*
X418945Y547311D01*
X418934Y547332D01*
X418911Y547354D01*
X418866Y547410D01*
X403422Y562854D01*
X403348Y562907D01*
X403279Y562967D01*
X403249Y562979D01*
X403223Y562998D01*
X403136Y563025D01*
X403051Y563059D01*
X403010Y563063D01*
X402987Y563070D01*
X402955Y563069D01*
X402884Y563077D01*
X184837Y563077D01*
X184792Y563070D01*
X184746Y563072D01*
X184671Y563050D01*
X184595Y563038D01*
X184554Y563016D01*
X184510Y563003D01*
X184446Y562959D01*
X184377Y562922D01*
X184346Y562889D01*
X184308Y562863D01*
X184261Y562800D01*
X184208Y562744D01*
X184189Y562702D01*
X184161Y562666D01*
X184137Y562592D01*
X184104Y562521D01*
X184099Y562475D01*
X184085Y562432D01*
X184086Y562354D01*
X184077Y562277D01*
X184087Y562232D01*
X184087Y562186D01*
X184125Y562054D01*
X184129Y562036D01*
X184132Y562032D01*
X184134Y562025D01*
X185079Y559744D01*
X185079Y557424D01*
X184191Y555280D01*
X182453Y553542D01*
X182411Y553484D01*
X182362Y553432D01*
X182340Y553385D01*
X182309Y553343D01*
X182288Y553274D01*
X182258Y553209D01*
X182252Y553157D01*
X182237Y553107D01*
X182239Y553036D01*
X182231Y552965D01*
X182242Y552914D01*
X182243Y552862D01*
X182268Y552794D01*
X182283Y552724D01*
X182310Y552679D01*
X182328Y552631D01*
X182373Y552575D01*
X182409Y552513D01*
X182449Y552479D01*
X182482Y552439D01*
X182542Y552400D01*
X182596Y552353D01*
X182645Y552334D01*
X182689Y552306D01*
X182758Y552288D01*
X182825Y552261D01*
X182896Y552253D01*
X182927Y552245D01*
X182950Y552247D01*
X182991Y552243D01*
X282003Y552243D01*
X282093Y552257D01*
X282184Y552265D01*
X282213Y552277D01*
X282245Y552282D01*
X282326Y552325D01*
X282410Y552361D01*
X282442Y552387D01*
X282463Y552398D01*
X282485Y552421D01*
X282541Y552466D01*
X283688Y553613D01*
X285832Y554501D01*
X288152Y554501D01*
X290296Y553613D01*
X291937Y551972D01*
X292825Y549828D01*
X292825Y547508D01*
X291937Y545364D01*
X290296Y543723D01*
X288152Y542835D01*
X285832Y542835D01*
X283688Y543723D01*
X282541Y544870D01*
X282467Y544923D01*
X282398Y544983D01*
X282367Y544995D01*
X282341Y545014D01*
X282254Y545041D01*
X282169Y545075D01*
X282128Y545079D01*
X282106Y545086D01*
X282074Y545085D01*
X282003Y545093D01*
X145839Y545093D01*
X145749Y545079D01*
X145658Y545071D01*
X145629Y545059D01*
X145597Y545054D01*
X145516Y545011D01*
X145432Y544975D01*
X145400Y544949D01*
X145379Y544938D01*
X145357Y544915D01*
X145301Y544870D01*
X144154Y543723D01*
X142010Y542835D01*
X139690Y542835D01*
X137546Y543723D01*
X135905Y545364D01*
X135017Y547508D01*
X135017Y549828D01*
X135905Y551972D01*
X137546Y553613D01*
X139690Y554501D01*
X142010Y554501D01*
X144154Y553613D01*
X145301Y552466D01*
X145375Y552413D01*
X145444Y552353D01*
X145475Y552341D01*
X145501Y552322D01*
X145588Y552295D01*
X145673Y552261D01*
X145714Y552257D01*
X145736Y552250D01*
X145768Y552251D01*
X145839Y552243D01*
X175501Y552243D01*
X175571Y552254D01*
X175643Y552256D01*
X175692Y552274D01*
X175743Y552282D01*
X175807Y552316D01*
X175874Y552341D01*
X175915Y552373D01*
X175961Y552398D01*
X176010Y552450D01*
X176066Y552494D01*
X176094Y552538D01*
X176130Y552576D01*
X176160Y552641D01*
X176199Y552701D01*
X176212Y552752D01*
X176234Y552799D01*
X176242Y552870D01*
X176259Y552940D01*
X176255Y552992D01*
X176261Y553043D01*
X176246Y553114D01*
X176240Y553185D01*
X176220Y553233D01*
X176209Y553284D01*
X176172Y553345D01*
X176144Y553411D01*
X176099Y553467D01*
X176083Y553495D01*
X176065Y553510D01*
X176039Y553542D01*
X174301Y555280D01*
X173413Y557424D01*
X173413Y559744D01*
X174358Y562025D01*
X174368Y562069D01*
X174388Y562111D01*
X174396Y562188D01*
X174414Y562264D01*
X174410Y562310D01*
X174415Y562355D01*
X174398Y562432D01*
X174391Y562509D01*
X174372Y562551D01*
X174363Y562596D01*
X174323Y562663D01*
X174291Y562734D01*
X174260Y562768D01*
X174236Y562807D01*
X174177Y562858D01*
X174125Y562915D01*
X174084Y562937D01*
X174049Y562967D01*
X173977Y562996D01*
X173909Y563033D01*
X173864Y563042D01*
X173821Y563059D01*
X173685Y563074D01*
X173667Y563077D01*
X173662Y563076D01*
X173655Y563077D01*
X113652Y563077D01*
X113556Y563062D01*
X113459Y563052D01*
X113435Y563042D01*
X113409Y563038D01*
X113323Y562992D01*
X113234Y562952D01*
X113215Y562935D01*
X113192Y562922D01*
X113125Y562852D01*
X113053Y562786D01*
X113040Y562763D01*
X113022Y562744D01*
X112981Y562656D01*
X112934Y562570D01*
X112930Y562545D01*
X112919Y562521D01*
X112908Y562424D01*
X112891Y562328D01*
X112895Y562302D01*
X112892Y562277D01*
X112912Y562181D01*
X112927Y562085D01*
X112938Y562062D01*
X112944Y562036D01*
X112994Y561953D01*
X113038Y561866D01*
X113057Y561847D01*
X113070Y561825D01*
X113144Y561762D01*
X113214Y561694D01*
X113242Y561678D01*
X113257Y561665D01*
X113288Y561653D01*
X113361Y561613D01*
X115572Y560697D01*
X117213Y559056D01*
X118101Y556912D01*
X118101Y554592D01*
X117213Y552448D01*
X115572Y550807D01*
X113428Y549919D01*
X111108Y549919D01*
X108964Y550807D01*
X107323Y552448D01*
X106435Y554592D01*
X106435Y556912D01*
X107323Y559056D01*
X108964Y560697D01*
X111175Y561613D01*
X111258Y561664D01*
X111344Y561710D01*
X111362Y561728D01*
X111384Y561742D01*
X111447Y561818D01*
X111514Y561888D01*
X111525Y561912D01*
X111541Y561932D01*
X111576Y562023D01*
X111617Y562111D01*
X111620Y562137D01*
X111629Y562161D01*
X111634Y562259D01*
X111644Y562355D01*
X111639Y562381D01*
X111640Y562407D01*
X111613Y562501D01*
X111592Y562596D01*
X111579Y562618D01*
X111571Y562643D01*
X111516Y562723D01*
X111466Y562807D01*
X111446Y562824D01*
X111431Y562845D01*
X111353Y562904D01*
X111279Y562967D01*
X111255Y562977D01*
X111234Y562992D01*
X111141Y563022D01*
X111051Y563059D01*
X111018Y563062D01*
X111000Y563068D01*
X110967Y563068D01*
X110884Y563077D01*
X49403Y563077D01*
X49383Y563074D01*
X49364Y563076D01*
X49262Y563054D01*
X49160Y563038D01*
X49143Y563028D01*
X49123Y563024D01*
X49034Y562971D01*
X48943Y562922D01*
X48929Y562908D01*
X48912Y562898D01*
X48845Y562819D01*
X48773Y562744D01*
X48765Y562726D01*
X48752Y562711D01*
X48713Y562615D01*
X48670Y562521D01*
X48668Y562501D01*
X48660Y562483D01*
X48642Y562316D01*
X48642Y555995D01*
X48650Y555942D01*
X48650Y555938D01*
X48652Y555928D01*
X48653Y555865D01*
X48676Y555785D01*
X48681Y555753D01*
X48691Y555735D01*
X48700Y555704D01*
X48851Y555339D01*
X48851Y547021D01*
X45667Y539335D01*
X39785Y533453D01*
X32099Y530269D01*
X23781Y530269D01*
X23416Y530420D01*
X23352Y530435D01*
X23291Y530460D01*
X23208Y530469D01*
X23176Y530476D01*
X23157Y530475D01*
X23125Y530478D01*
X11684Y530478D01*
X11664Y530475D01*
X11645Y530477D01*
X11543Y530455D01*
X11441Y530439D01*
X11424Y530429D01*
X11404Y530425D01*
X11315Y530372D01*
X11224Y530323D01*
X11210Y530309D01*
X11193Y530299D01*
X11126Y530220D01*
X11054Y530145D01*
X11046Y530127D01*
X11033Y530112D01*
X10994Y530016D01*
X10951Y529922D01*
X10949Y529902D01*
X10941Y529884D01*
X10923Y529717D01*
X10923Y511315D01*
X10926Y511295D01*
X10924Y511275D01*
X10946Y511174D01*
X10962Y511072D01*
X10972Y511054D01*
X10976Y511035D01*
X11029Y510946D01*
X11078Y510855D01*
X11092Y510841D01*
X11102Y510824D01*
X11181Y510756D01*
X11256Y510685D01*
X11274Y510677D01*
X11289Y510664D01*
X11385Y510625D01*
X11479Y510582D01*
X11499Y510579D01*
X11517Y510572D01*
X11684Y510553D01*
X25146Y510553D01*
X25162Y510556D01*
X25178Y510554D01*
X25283Y510576D01*
X25389Y510593D01*
X25403Y510601D01*
X25419Y510604D01*
X25512Y510658D01*
X25606Y510708D01*
X25617Y510720D01*
X25631Y510728D01*
X25702Y510809D01*
X25776Y510887D01*
X25783Y510901D01*
X25793Y510913D01*
X25834Y511012D01*
X25879Y511110D01*
X25881Y511126D01*
X25887Y511140D01*
X25895Y511248D01*
X25907Y511354D01*
X25903Y511370D01*
X25904Y511386D01*
X25870Y511550D01*
X25727Y511989D01*
X25595Y512827D01*
X34798Y512827D01*
X34818Y512830D01*
X34837Y512828D01*
X34939Y512850D01*
X35041Y512867D01*
X35058Y512876D01*
X35078Y512880D01*
X35167Y512933D01*
X35258Y512982D01*
X35272Y512996D01*
X35289Y513006D01*
X35356Y513085D01*
X35427Y513160D01*
X35436Y513178D01*
X35449Y513193D01*
X35487Y513289D01*
X35531Y513383D01*
X35533Y513403D01*
X35541Y513421D01*
X35559Y513588D01*
X35559Y514351D01*
X35561Y514351D01*
X35561Y513588D01*
X35564Y513568D01*
X35562Y513549D01*
X35584Y513447D01*
X35601Y513345D01*
X35610Y513328D01*
X35614Y513308D01*
X35667Y513219D01*
X35716Y513128D01*
X35730Y513114D01*
X35740Y513097D01*
X35819Y513030D01*
X35894Y512959D01*
X35912Y512950D01*
X35927Y512937D01*
X36023Y512898D01*
X36117Y512855D01*
X36137Y512853D01*
X36155Y512845D01*
X36322Y512827D01*
X45525Y512827D01*
X45393Y511989D01*
X45250Y511550D01*
X45247Y511534D01*
X45241Y511520D01*
X45229Y511413D01*
X45212Y511307D01*
X45215Y511291D01*
X45213Y511275D01*
X45236Y511170D01*
X45255Y511065D01*
X45262Y511050D01*
X45266Y511035D01*
X45321Y510943D01*
X45372Y510848D01*
X45384Y510837D01*
X45392Y510824D01*
X45474Y510754D01*
X45552Y510681D01*
X45567Y510674D01*
X45579Y510664D01*
X45679Y510624D01*
X45776Y510579D01*
X45792Y510578D01*
X45807Y510572D01*
X45974Y510553D01*
X50806Y510553D01*
X50813Y510546D01*
X50813Y477514D01*
X50806Y477507D01*
X50479Y477507D01*
X33795Y477507D01*
X33775Y477503D01*
X33755Y477506D01*
X33654Y477484D01*
X33552Y477467D01*
X33534Y477458D01*
X33515Y477453D01*
X33426Y477400D01*
X33335Y477352D01*
X33321Y477337D01*
X33304Y477327D01*
X33236Y477248D01*
X33165Y477173D01*
X33157Y477155D01*
X33144Y477140D01*
X33105Y477044D01*
X33062Y476950D01*
X33059Y476931D01*
X33052Y476912D01*
X33033Y476745D01*
X33033Y474248D01*
X33046Y474169D01*
X33050Y474090D01*
X33066Y474048D01*
X33073Y474005D01*
X33110Y473935D01*
X33139Y473860D01*
X33168Y473826D01*
X33188Y473787D01*
X33246Y473733D01*
X33297Y473672D01*
X33335Y473648D01*
X33367Y473618D01*
X33439Y473585D01*
X33507Y473543D01*
X33550Y473533D01*
X33590Y473514D01*
X33669Y473506D01*
X33746Y473488D01*
X33805Y473491D01*
X33834Y473487D01*
X33861Y473493D01*
X33914Y473496D01*
X34037Y473515D01*
X34037Y464312D01*
X34040Y464292D01*
X34038Y464273D01*
X34060Y464171D01*
X34077Y464069D01*
X34086Y464052D01*
X34090Y464032D01*
X34143Y463943D01*
X34192Y463852D01*
X34206Y463838D01*
X34216Y463821D01*
X34295Y463754D01*
X34370Y463683D01*
X34388Y463674D01*
X34403Y463661D01*
X34499Y463623D01*
X34593Y463579D01*
X34613Y463577D01*
X34631Y463569D01*
X34798Y463551D01*
X35561Y463551D01*
X35561Y463549D01*
X34798Y463549D01*
X34778Y463546D01*
X34759Y463548D01*
X34657Y463526D01*
X34555Y463509D01*
X34538Y463500D01*
X34518Y463496D01*
X34429Y463443D01*
X34338Y463394D01*
X34324Y463380D01*
X34307Y463370D01*
X34240Y463291D01*
X34169Y463216D01*
X34160Y463198D01*
X34147Y463183D01*
X34108Y463087D01*
X34065Y462993D01*
X34063Y462973D01*
X34055Y462955D01*
X34037Y462788D01*
X34037Y453585D01*
X33914Y453604D01*
X33834Y453604D01*
X33755Y453613D01*
X33712Y453603D01*
X33668Y453603D01*
X33593Y453577D01*
X33515Y453560D01*
X33477Y453538D01*
X33435Y453523D01*
X33372Y453475D01*
X33304Y453434D01*
X33275Y453401D01*
X33240Y453374D01*
X33196Y453308D01*
X33144Y453247D01*
X33127Y453206D01*
X33103Y453170D01*
X33082Y453093D01*
X33052Y453019D01*
X33045Y452961D01*
X33038Y452932D01*
X33039Y452905D01*
X33033Y452852D01*
X33033Y450355D01*
X33037Y450335D01*
X33034Y450315D01*
X33056Y450214D01*
X33073Y450112D01*
X33082Y450094D01*
X33087Y450075D01*
X33140Y449986D01*
X33188Y449895D01*
X33203Y449881D01*
X33213Y449864D01*
X33292Y449796D01*
X33367Y449725D01*
X33385Y449717D01*
X33400Y449704D01*
X33496Y449665D01*
X33590Y449622D01*
X33609Y449619D01*
X33628Y449612D01*
X33795Y449593D01*
X50806Y449593D01*
X50813Y449586D01*
X50813Y424174D01*
X50806Y424167D01*
X50479Y424167D01*
X11684Y424167D01*
X11664Y424163D01*
X11645Y424166D01*
X11543Y424144D01*
X11441Y424127D01*
X11424Y424118D01*
X11404Y424113D01*
X11315Y424060D01*
X11224Y424012D01*
X11210Y423997D01*
X11193Y423987D01*
X11126Y423908D01*
X11054Y423833D01*
X11046Y423815D01*
X11033Y423800D01*
X10994Y423704D01*
X10951Y423610D01*
X10949Y423591D01*
X10941Y423572D01*
X10923Y423405D01*
X10923Y376695D01*
X10926Y376675D01*
X10924Y376655D01*
X10946Y376554D01*
X10962Y376452D01*
X10972Y376434D01*
X10976Y376415D01*
X11029Y376326D01*
X11078Y376235D01*
X11092Y376221D01*
X11102Y376204D01*
X11181Y376136D01*
X11256Y376065D01*
X11274Y376057D01*
X11289Y376044D01*
X11385Y376005D01*
X11479Y375962D01*
X11499Y375959D01*
X11517Y375952D01*
X11684Y375933D01*
X24862Y375933D01*
X24941Y375946D01*
X25020Y375950D01*
X25062Y375966D01*
X25105Y375973D01*
X25175Y376010D01*
X25250Y376039D01*
X25284Y376068D01*
X25323Y376088D01*
X25377Y376146D01*
X25438Y376197D01*
X25462Y376235D01*
X25492Y376267D01*
X25525Y376339D01*
X25567Y376407D01*
X25577Y376450D01*
X25596Y376490D01*
X25604Y376569D01*
X25622Y376646D01*
X25619Y376705D01*
X25623Y376734D01*
X25617Y376761D01*
X25614Y376814D01*
X25595Y376937D01*
X34798Y376937D01*
X34818Y376940D01*
X34837Y376938D01*
X34939Y376960D01*
X35041Y376977D01*
X35058Y376986D01*
X35078Y376990D01*
X35167Y377043D01*
X35258Y377092D01*
X35272Y377106D01*
X35289Y377116D01*
X35356Y377195D01*
X35427Y377270D01*
X35436Y377288D01*
X35449Y377303D01*
X35487Y377399D01*
X35531Y377493D01*
X35533Y377513D01*
X35541Y377531D01*
X35559Y377698D01*
X35559Y378461D01*
X35561Y378461D01*
X35561Y377698D01*
X35564Y377678D01*
X35562Y377659D01*
X35584Y377557D01*
X35601Y377455D01*
X35610Y377438D01*
X35614Y377418D01*
X35667Y377329D01*
X35716Y377238D01*
X35730Y377224D01*
X35740Y377207D01*
X35819Y377140D01*
X35894Y377069D01*
X35912Y377060D01*
X35927Y377047D01*
X36023Y377008D01*
X36117Y376965D01*
X36137Y376963D01*
X36155Y376955D01*
X36322Y376937D01*
X45525Y376937D01*
X45506Y376814D01*
X45506Y376734D01*
X45497Y376655D01*
X45507Y376612D01*
X45507Y376568D01*
X45533Y376493D01*
X45550Y376415D01*
X45572Y376377D01*
X45587Y376335D01*
X45635Y376272D01*
X45676Y376204D01*
X45709Y376175D01*
X45736Y376140D01*
X45802Y376096D01*
X45863Y376044D01*
X45904Y376027D01*
X45940Y376003D01*
X46017Y375982D01*
X46091Y375952D01*
X46149Y375945D01*
X46178Y375938D01*
X46205Y375939D01*
X46258Y375933D01*
X58426Y375933D01*
X58433Y375926D01*
X58433Y314954D01*
X58426Y314947D01*
X58099Y314947D01*
X11684Y314947D01*
X11664Y314943D01*
X11645Y314946D01*
X11543Y314924D01*
X11441Y314907D01*
X11424Y314898D01*
X11404Y314893D01*
X11315Y314840D01*
X11224Y314792D01*
X11210Y314777D01*
X11193Y314767D01*
X11126Y314688D01*
X11054Y314613D01*
X11046Y314595D01*
X11033Y314580D01*
X10994Y314484D01*
X10951Y314390D01*
X10949Y314371D01*
X10941Y314352D01*
X10923Y314185D01*
X10923Y267475D01*
X10926Y267455D01*
X10924Y267435D01*
X10946Y267334D01*
X10962Y267232D01*
X10972Y267214D01*
X10976Y267195D01*
X11029Y267106D01*
X11078Y267015D01*
X11092Y267001D01*
X11102Y266984D01*
X11181Y266916D01*
X11256Y266845D01*
X11274Y266837D01*
X11289Y266824D01*
X11385Y266785D01*
X11479Y266742D01*
X11499Y266739D01*
X11517Y266732D01*
X11684Y266713D01*
X24862Y266713D01*
X24941Y266726D01*
X25020Y266730D01*
X25062Y266746D01*
X25105Y266753D01*
X25175Y266790D01*
X25250Y266819D01*
X25284Y266848D01*
X25323Y266868D01*
X25377Y266926D01*
X25438Y266977D01*
X25462Y267015D01*
X25492Y267047D01*
X25525Y267119D01*
X25567Y267187D01*
X25577Y267230D01*
X25596Y267270D01*
X25604Y267349D01*
X25622Y267426D01*
X25619Y267485D01*
X25623Y267514D01*
X25617Y267541D01*
X25614Y267594D01*
X25595Y267717D01*
X34798Y267717D01*
X34818Y267720D01*
X34837Y267718D01*
X34939Y267740D01*
X35041Y267757D01*
X35058Y267766D01*
X35078Y267770D01*
X35167Y267823D01*
X35258Y267872D01*
X35272Y267886D01*
X35289Y267896D01*
X35356Y267975D01*
X35427Y268050D01*
X35436Y268068D01*
X35449Y268083D01*
X35487Y268179D01*
X35531Y268273D01*
X35533Y268293D01*
X35541Y268311D01*
X35559Y268478D01*
X35559Y269241D01*
X35561Y269241D01*
X35561Y268478D01*
X35564Y268458D01*
X35562Y268439D01*
X35584Y268337D01*
X35601Y268235D01*
X35610Y268218D01*
X35614Y268198D01*
X35667Y268109D01*
X35716Y268018D01*
X35730Y268004D01*
X35740Y267987D01*
X35819Y267920D01*
X35894Y267849D01*
X35912Y267840D01*
X35927Y267827D01*
X36023Y267788D01*
X36117Y267745D01*
X36137Y267743D01*
X36155Y267735D01*
X36322Y267717D01*
X45525Y267717D01*
X45506Y267594D01*
X45506Y267514D01*
X45497Y267435D01*
X45507Y267392D01*
X45507Y267348D01*
X45533Y267273D01*
X45550Y267195D01*
X45572Y267157D01*
X45587Y267115D01*
X45635Y267052D01*
X45676Y266984D01*
X45709Y266955D01*
X45736Y266920D01*
X45802Y266876D01*
X45863Y266824D01*
X45904Y266807D01*
X45940Y266783D01*
X46017Y266762D01*
X46091Y266732D01*
X46149Y266725D01*
X46178Y266718D01*
X46205Y266719D01*
X46258Y266713D01*
X58426Y266713D01*
X58433Y266706D01*
X58433Y205734D01*
X58426Y205727D01*
X58099Y205727D01*
X11684Y205727D01*
X11664Y205723D01*
X11645Y205726D01*
X11543Y205704D01*
X11441Y205687D01*
X11424Y205678D01*
X11404Y205673D01*
X11315Y205620D01*
X11224Y205572D01*
X11210Y205557D01*
X11193Y205547D01*
X11126Y205468D01*
X11054Y205393D01*
X11046Y205375D01*
X11033Y205360D01*
X10994Y205264D01*
X10951Y205170D01*
X10949Y205151D01*
X10941Y205132D01*
X10923Y204965D01*
X10923Y173495D01*
X10926Y173475D01*
X10924Y173455D01*
X10946Y173354D01*
X10962Y173252D01*
X10972Y173234D01*
X10976Y173215D01*
X11029Y173126D01*
X11078Y173035D01*
X11092Y173021D01*
X11102Y173004D01*
X11181Y172936D01*
X11256Y172865D01*
X11274Y172857D01*
X11289Y172844D01*
X11385Y172805D01*
X11479Y172762D01*
X11499Y172759D01*
X11517Y172752D01*
X11684Y172733D01*
X58426Y172733D01*
X58433Y172726D01*
X58433Y164597D01*
X58445Y164526D01*
X58447Y164455D01*
X58465Y164406D01*
X58473Y164354D01*
X58507Y164291D01*
X58531Y164224D01*
X58564Y164183D01*
X58588Y164137D01*
X58640Y164088D01*
X58685Y164032D01*
X58729Y164003D01*
X58767Y163968D01*
X58832Y163937D01*
X58892Y163899D01*
X58943Y163886D01*
X58990Y163864D01*
X59061Y163856D01*
X59130Y163839D01*
X59182Y163843D01*
X59234Y163837D01*
X59304Y163852D01*
X59376Y163858D01*
X59424Y163878D01*
X59475Y163889D01*
X59536Y163926D01*
X59602Y163954D01*
X59658Y163999D01*
X59686Y164015D01*
X59701Y164033D01*
X59733Y164059D01*
X65873Y170199D01*
X215524Y170199D01*
X215620Y170214D01*
X215717Y170224D01*
X215741Y170234D01*
X215766Y170238D01*
X215852Y170284D01*
X215941Y170324D01*
X215961Y170341D01*
X215984Y170354D01*
X216051Y170424D01*
X216122Y170490D01*
X216135Y170513D01*
X216153Y170532D01*
X216194Y170620D01*
X216241Y170706D01*
X216246Y170731D01*
X216257Y170755D01*
X216267Y170852D01*
X216285Y170948D01*
X216281Y170974D01*
X216284Y170999D01*
X216263Y171094D01*
X216249Y171191D01*
X216237Y171214D01*
X216232Y171240D01*
X216182Y171323D01*
X216137Y171410D01*
X216119Y171429D01*
X216105Y171451D01*
X216031Y171514D01*
X215962Y171582D01*
X215933Y171598D01*
X215918Y171611D01*
X215888Y171623D01*
X215815Y171663D01*
X215390Y171839D01*
X213749Y173480D01*
X212861Y175624D01*
X212861Y177944D01*
X213749Y180088D01*
X215390Y181729D01*
X217534Y182617D01*
X219854Y182617D01*
X221998Y181729D01*
X223639Y180088D01*
X224527Y177944D01*
X224527Y175624D01*
X223639Y173480D01*
X221998Y171839D01*
X221573Y171663D01*
X221490Y171612D01*
X221404Y171566D01*
X221386Y171547D01*
X221364Y171534D01*
X221302Y171459D01*
X221235Y171388D01*
X221224Y171364D01*
X221207Y171344D01*
X221172Y171253D01*
X221131Y171165D01*
X221128Y171139D01*
X221119Y171115D01*
X221115Y171017D01*
X221104Y170921D01*
X221110Y170895D01*
X221109Y170869D01*
X221136Y170775D01*
X221156Y170680D01*
X221170Y170658D01*
X221177Y170633D01*
X221233Y170553D01*
X221283Y170469D01*
X221303Y170452D01*
X221317Y170431D01*
X221395Y170373D01*
X221470Y170309D01*
X221494Y170299D01*
X221515Y170284D01*
X221607Y170254D01*
X221698Y170217D01*
X221730Y170214D01*
X221749Y170208D01*
X221782Y170208D01*
X221864Y170199D01*
X263358Y170199D01*
X263403Y170206D01*
X263449Y170204D01*
X263524Y170226D01*
X263601Y170238D01*
X263641Y170260D01*
X263685Y170273D01*
X263749Y170317D01*
X263818Y170354D01*
X263849Y170387D01*
X263887Y170413D01*
X263934Y170476D01*
X263987Y170532D01*
X264007Y170574D01*
X264034Y170610D01*
X264058Y170684D01*
X264091Y170755D01*
X264096Y170801D01*
X264110Y170844D01*
X264109Y170922D01*
X264118Y170999D01*
X264108Y171044D01*
X264108Y171090D01*
X264070Y171222D01*
X264066Y171240D01*
X264063Y171244D01*
X264061Y171251D01*
X263407Y172830D01*
X263407Y175150D01*
X264295Y177294D01*
X265936Y178935D01*
X268080Y179823D01*
X270400Y179823D01*
X272544Y178935D01*
X274185Y177294D01*
X275073Y175150D01*
X275073Y172830D01*
X274419Y171251D01*
X274408Y171207D01*
X274389Y171165D01*
X274381Y171088D01*
X274363Y171012D01*
X274367Y170966D01*
X274362Y170921D01*
X274379Y170844D01*
X274386Y170767D01*
X274404Y170725D01*
X274414Y170680D01*
X274454Y170613D01*
X274486Y170542D01*
X274517Y170508D01*
X274540Y170469D01*
X274600Y170418D01*
X274652Y170361D01*
X274692Y170339D01*
X274727Y170309D01*
X274800Y170280D01*
X274868Y170243D01*
X274913Y170234D01*
X274955Y170217D01*
X275091Y170202D01*
X275110Y170199D01*
X275115Y170200D01*
X275122Y170199D01*
X313849Y170199D01*
X313938Y170213D01*
X314028Y170220D01*
X314059Y170233D01*
X314092Y170238D01*
X314172Y170281D01*
X314255Y170316D01*
X314288Y170342D01*
X314309Y170354D01*
X314331Y170377D01*
X314386Y170420D01*
X338593Y194514D01*
X338647Y194588D01*
X338707Y194658D01*
X338719Y194687D01*
X338737Y194713D01*
X338764Y194801D01*
X338799Y194886D01*
X338803Y194926D01*
X338810Y194948D01*
X338809Y194980D01*
X338817Y195053D01*
X338817Y204891D01*
X340958Y207032D01*
X341011Y207106D01*
X341071Y207176D01*
X341083Y207206D01*
X341102Y207232D01*
X341129Y207319D01*
X341163Y207404D01*
X341167Y207445D01*
X341174Y207467D01*
X341173Y207499D01*
X341181Y207570D01*
X341181Y212690D01*
X343118Y217365D01*
X346695Y220942D01*
X351370Y222879D01*
X356430Y222879D01*
X361105Y220942D01*
X364682Y217365D01*
X366619Y212690D01*
X366619Y207630D01*
X364682Y202955D01*
X361105Y199378D01*
X358453Y198279D01*
X358353Y198217D01*
X358253Y198158D01*
X358249Y198153D01*
X358244Y198150D01*
X358169Y198059D01*
X358093Y197971D01*
X358091Y197965D01*
X358087Y197960D01*
X358045Y197852D01*
X358001Y197743D01*
X358000Y197735D01*
X357999Y197730D01*
X357998Y197712D01*
X357983Y197576D01*
X357983Y188379D01*
X341346Y171742D01*
X341293Y171668D01*
X341233Y171598D01*
X341221Y171568D01*
X341202Y171542D01*
X341175Y171455D01*
X341141Y171370D01*
X341137Y171329D01*
X341130Y171307D01*
X341131Y171275D01*
X341123Y171204D01*
X341123Y150635D01*
X341126Y150615D01*
X341124Y150595D01*
X341146Y150494D01*
X341162Y150392D01*
X341172Y150374D01*
X341176Y150355D01*
X341229Y150266D01*
X341278Y150175D01*
X341292Y150161D01*
X341302Y150144D01*
X341381Y150076D01*
X341456Y150005D01*
X341474Y149997D01*
X341489Y149984D01*
X341585Y149945D01*
X341679Y149902D01*
X341699Y149899D01*
X341717Y149892D01*
X341884Y149873D01*
X373386Y149873D01*
X373393Y149866D01*
X373393Y71114D01*
X373386Y71107D01*
X373059Y71107D01*
X351295Y71107D01*
X351275Y71103D01*
X351255Y71106D01*
X351154Y71084D01*
X351052Y71067D01*
X351034Y71058D01*
X351015Y71053D01*
X350926Y71000D01*
X350835Y70952D01*
X350821Y70937D01*
X350804Y70927D01*
X350736Y70848D01*
X350665Y70773D01*
X350657Y70755D01*
X350644Y70740D01*
X350605Y70644D01*
X350562Y70550D01*
X350559Y70531D01*
X350552Y70512D01*
X350533Y70345D01*
X350533Y45987D01*
X350537Y45967D01*
X350534Y45947D01*
X350556Y45846D01*
X350573Y45744D01*
X350582Y45726D01*
X350587Y45707D01*
X350640Y45618D01*
X350688Y45527D01*
X350703Y45513D01*
X350713Y45496D01*
X350792Y45428D01*
X350867Y45357D01*
X350885Y45349D01*
X350900Y45336D01*
X350996Y45297D01*
X351090Y45254D01*
X351109Y45251D01*
X351128Y45244D01*
X351295Y45225D01*
X375926Y45225D01*
X375933Y45218D01*
X375933Y17774D01*
X375926Y17767D01*
X375599Y17767D01*
X325114Y17767D01*
X325107Y17774D01*
X325107Y18101D01*
X325107Y117838D01*
X325103Y117858D01*
X325106Y117877D01*
X325084Y117979D01*
X325067Y118081D01*
X325058Y118098D01*
X325053Y118118D01*
X325000Y118207D01*
X324952Y118298D01*
X324937Y118312D01*
X324927Y118329D01*
X324848Y118396D01*
X324773Y118468D01*
X324755Y118476D01*
X324740Y118489D01*
X324644Y118528D01*
X324550Y118571D01*
X324531Y118573D01*
X324512Y118581D01*
X324345Y118599D01*
X285255Y118599D01*
X285235Y118596D01*
X285215Y118598D01*
X285114Y118576D01*
X285012Y118560D01*
X284994Y118550D01*
X284975Y118546D01*
X284886Y118493D01*
X284795Y118444D01*
X284781Y118430D01*
X284764Y118420D01*
X284696Y118341D01*
X284625Y118266D01*
X284617Y118248D01*
X284604Y118233D01*
X284565Y118137D01*
X284522Y118043D01*
X284519Y118023D01*
X284512Y118005D01*
X284493Y117838D01*
X284493Y71114D01*
X284486Y71107D01*
X284159Y71107D01*
X264078Y71107D01*
X263988Y71092D01*
X263897Y71085D01*
X263867Y71072D01*
X263835Y71067D01*
X263755Y71024D01*
X263671Y70988D01*
X263639Y70963D01*
X263618Y70952D01*
X263596Y70928D01*
X263540Y70884D01*
X260456Y67799D01*
X259855Y67799D01*
X259835Y67796D01*
X259815Y67798D01*
X259714Y67776D01*
X259612Y67760D01*
X259594Y67750D01*
X259575Y67746D01*
X259486Y67693D01*
X259395Y67644D01*
X259381Y67630D01*
X259364Y67620D01*
X259296Y67541D01*
X259225Y67466D01*
X259217Y67448D01*
X259204Y67433D01*
X259165Y67337D01*
X259122Y67243D01*
X259119Y67223D01*
X259112Y67205D01*
X259093Y67038D01*
X259093Y46495D01*
X259097Y46475D01*
X259094Y46455D01*
X259116Y46354D01*
X259133Y46252D01*
X259142Y46234D01*
X259147Y46215D01*
X259200Y46126D01*
X259248Y46035D01*
X259263Y46021D01*
X259273Y46004D01*
X259352Y45936D01*
X259427Y45865D01*
X259445Y45857D01*
X259460Y45844D01*
X259556Y45805D01*
X259650Y45762D01*
X259669Y45759D01*
X259688Y45752D01*
X259855Y45733D01*
X284486Y45733D01*
X284493Y45726D01*
X284493Y20314D01*
X284486Y20307D01*
X284159Y20307D01*
X233674Y20307D01*
X233667Y20314D01*
X233667Y20641D01*
X233667Y67038D01*
X233663Y67058D01*
X233666Y67077D01*
X233644Y67179D01*
X233627Y67281D01*
X233618Y67298D01*
X233613Y67318D01*
X233560Y67407D01*
X233512Y67498D01*
X233497Y67512D01*
X233487Y67529D01*
X233408Y67596D01*
X233333Y67668D01*
X233315Y67676D01*
X233300Y67689D01*
X233204Y67728D01*
X233110Y67771D01*
X233091Y67773D01*
X233072Y67781D01*
X232905Y67799D01*
X193207Y67799D01*
X193117Y67785D01*
X193026Y67777D01*
X192996Y67765D01*
X192964Y67760D01*
X192883Y67717D01*
X192799Y67681D01*
X192767Y67655D01*
X192747Y67644D01*
X192724Y67621D01*
X192669Y67576D01*
X187158Y62065D01*
X187105Y61992D01*
X187045Y61922D01*
X187033Y61892D01*
X187014Y61866D01*
X186987Y61779D01*
X186953Y61694D01*
X186949Y61653D01*
X186942Y61631D01*
X186943Y61598D01*
X186935Y61527D01*
X186935Y59546D01*
X186047Y57402D01*
X184406Y55761D01*
X182262Y54873D01*
X179942Y54873D01*
X177798Y55761D01*
X176157Y57402D01*
X175269Y59546D01*
X175269Y61866D01*
X176157Y64010D01*
X177798Y65651D01*
X179942Y66539D01*
X181923Y66539D01*
X182013Y66553D01*
X182104Y66561D01*
X182134Y66573D01*
X182166Y66578D01*
X182247Y66621D01*
X182331Y66657D01*
X182363Y66683D01*
X182383Y66694D01*
X182406Y66717D01*
X182461Y66762D01*
X187972Y72273D01*
X190140Y74441D01*
X232905Y74441D01*
X232925Y74444D01*
X232945Y74442D01*
X233046Y74464D01*
X233148Y74480D01*
X233166Y74490D01*
X233185Y74494D01*
X233274Y74547D01*
X233365Y74596D01*
X233379Y74610D01*
X233396Y74620D01*
X233464Y74699D01*
X233535Y74774D01*
X233543Y74792D01*
X233556Y74807D01*
X233595Y74903D01*
X233638Y74997D01*
X233641Y75017D01*
X233648Y75035D01*
X233667Y75202D01*
X233667Y94978D01*
X233663Y94998D01*
X233666Y95017D01*
X233644Y95119D01*
X233627Y95221D01*
X233618Y95238D01*
X233613Y95258D01*
X233560Y95347D01*
X233512Y95438D01*
X233497Y95452D01*
X233487Y95469D01*
X233408Y95536D01*
X233333Y95608D01*
X233315Y95616D01*
X233300Y95629D01*
X233204Y95668D01*
X233110Y95711D01*
X233091Y95713D01*
X233072Y95721D01*
X232905Y95739D01*
X164247Y95739D01*
X164157Y95725D01*
X164066Y95717D01*
X164037Y95705D01*
X164005Y95700D01*
X163924Y95657D01*
X163840Y95621D01*
X163808Y95595D01*
X163787Y95584D01*
X163765Y95561D01*
X163709Y95516D01*
X162308Y94115D01*
X160164Y93227D01*
X157844Y93227D01*
X155700Y94115D01*
X154059Y95756D01*
X153171Y97900D01*
X153171Y100220D01*
X153825Y101799D01*
X153836Y101843D01*
X153855Y101885D01*
X153863Y101962D01*
X153881Y102038D01*
X153877Y102084D01*
X153882Y102129D01*
X153865Y102206D01*
X153858Y102283D01*
X153840Y102325D01*
X153830Y102370D01*
X153790Y102437D01*
X153758Y102508D01*
X153727Y102542D01*
X153704Y102581D01*
X153644Y102632D01*
X153592Y102689D01*
X153552Y102711D01*
X153517Y102741D01*
X153444Y102770D01*
X153376Y102807D01*
X153331Y102816D01*
X153289Y102833D01*
X153153Y102848D01*
X153134Y102851D01*
X153129Y102850D01*
X153122Y102851D01*
X145436Y102851D01*
X139055Y109232D01*
X138982Y109285D01*
X138912Y109345D01*
X138882Y109357D01*
X138856Y109376D01*
X138769Y109403D01*
X138684Y109437D01*
X138643Y109441D01*
X138621Y109448D01*
X138588Y109447D01*
X138517Y109455D01*
X127671Y109455D01*
X127581Y109441D01*
X127490Y109433D01*
X127461Y109421D01*
X127429Y109416D01*
X127348Y109373D01*
X127264Y109337D01*
X127232Y109311D01*
X127211Y109300D01*
X127189Y109277D01*
X127133Y109232D01*
X125732Y107831D01*
X123588Y106943D01*
X121268Y106943D01*
X119124Y107831D01*
X117483Y109472D01*
X116595Y111616D01*
X116595Y113936D01*
X117483Y116080D01*
X119124Y117721D01*
X121268Y118609D01*
X123588Y118609D01*
X125732Y117721D01*
X127133Y116320D01*
X127207Y116267D01*
X127276Y116207D01*
X127307Y116195D01*
X127333Y116176D01*
X127420Y116149D01*
X127505Y116115D01*
X127546Y116111D01*
X127568Y116104D01*
X127600Y116105D01*
X127671Y116097D01*
X141584Y116097D01*
X147965Y109716D01*
X148038Y109663D01*
X148108Y109603D01*
X148138Y109591D01*
X148164Y109572D01*
X148251Y109545D01*
X148336Y109511D01*
X148377Y109507D01*
X148399Y109500D01*
X148432Y109501D01*
X148503Y109493D01*
X219293Y109493D01*
X219383Y109507D01*
X219474Y109515D01*
X219503Y109527D01*
X219535Y109532D01*
X219616Y109575D01*
X219700Y109611D01*
X219732Y109637D01*
X219753Y109648D01*
X219775Y109671D01*
X219831Y109716D01*
X221232Y111117D01*
X223376Y112005D01*
X225696Y112005D01*
X227840Y111117D01*
X229481Y109476D01*
X230369Y107332D01*
X230369Y105012D01*
X229715Y103433D01*
X229704Y103389D01*
X229685Y103347D01*
X229677Y103270D01*
X229659Y103194D01*
X229663Y103148D01*
X229658Y103103D01*
X229675Y103026D01*
X229682Y102949D01*
X229700Y102907D01*
X229710Y102862D01*
X229750Y102795D01*
X229782Y102724D01*
X229813Y102690D01*
X229836Y102651D01*
X229896Y102600D01*
X229948Y102543D01*
X229988Y102521D01*
X230023Y102491D01*
X230096Y102462D01*
X230164Y102425D01*
X230209Y102416D01*
X230251Y102399D01*
X230387Y102384D01*
X230406Y102381D01*
X230411Y102382D01*
X230418Y102381D01*
X232905Y102381D01*
X232925Y102384D01*
X232945Y102382D01*
X233046Y102404D01*
X233148Y102420D01*
X233166Y102430D01*
X233185Y102434D01*
X233274Y102487D01*
X233365Y102536D01*
X233379Y102550D01*
X233396Y102560D01*
X233464Y102639D01*
X233535Y102714D01*
X233543Y102732D01*
X233556Y102747D01*
X233595Y102843D01*
X233638Y102937D01*
X233641Y102957D01*
X233648Y102975D01*
X233667Y103142D01*
X233667Y117076D01*
X233663Y117096D01*
X233666Y117115D01*
X233644Y117217D01*
X233627Y117319D01*
X233618Y117336D01*
X233613Y117356D01*
X233560Y117445D01*
X233512Y117536D01*
X233497Y117550D01*
X233487Y117567D01*
X233408Y117634D01*
X233333Y117706D01*
X233315Y117714D01*
X233300Y117727D01*
X233204Y117766D01*
X233110Y117809D01*
X233091Y117811D01*
X233072Y117819D01*
X232905Y117837D01*
X185664Y117837D01*
X185644Y117834D01*
X185625Y117836D01*
X185523Y117814D01*
X185421Y117798D01*
X185404Y117788D01*
X185384Y117784D01*
X185295Y117731D01*
X185204Y117682D01*
X185190Y117668D01*
X185173Y117658D01*
X185106Y117579D01*
X185034Y117504D01*
X185026Y117486D01*
X185013Y117471D01*
X184974Y117375D01*
X184931Y117281D01*
X184929Y117261D01*
X184921Y117243D01*
X184903Y117076D01*
X184903Y116442D01*
X184015Y114298D01*
X182374Y112657D01*
X180230Y111769D01*
X177910Y111769D01*
X175766Y112657D01*
X174125Y114298D01*
X173237Y116442D01*
X173237Y118762D01*
X174125Y120906D01*
X175599Y122380D01*
X175641Y122438D01*
X175690Y122490D01*
X175712Y122537D01*
X175743Y122579D01*
X175764Y122648D01*
X175794Y122713D01*
X175800Y122765D01*
X175815Y122815D01*
X175813Y122886D01*
X175821Y122957D01*
X175810Y123008D01*
X175809Y123060D01*
X175784Y123128D01*
X175769Y123198D01*
X175742Y123243D01*
X175724Y123291D01*
X175679Y123347D01*
X175643Y123409D01*
X175603Y123443D01*
X175570Y123483D01*
X175510Y123522D01*
X175456Y123569D01*
X175407Y123588D01*
X175363Y123616D01*
X175294Y123634D01*
X175227Y123661D01*
X175156Y123669D01*
X175125Y123677D01*
X175102Y123675D01*
X175061Y123679D01*
X158644Y123679D01*
X156299Y126024D01*
X156226Y126077D01*
X156156Y126137D01*
X156126Y126149D01*
X156100Y126168D01*
X156013Y126195D01*
X155928Y126229D01*
X155887Y126233D01*
X155865Y126240D01*
X155832Y126239D01*
X155761Y126247D01*
X153780Y126247D01*
X151636Y127135D01*
X149995Y128776D01*
X149107Y130920D01*
X149107Y133240D01*
X149995Y135384D01*
X151636Y137025D01*
X153780Y137913D01*
X156100Y137913D01*
X158244Y137025D01*
X159885Y135384D01*
X160773Y133240D01*
X160773Y131259D01*
X160787Y131169D01*
X160795Y131078D01*
X160807Y131048D01*
X160812Y131016D01*
X160855Y130935D01*
X160891Y130852D01*
X160917Y130819D01*
X160928Y130799D01*
X160951Y130777D01*
X160996Y130721D01*
X161173Y130544D01*
X161246Y130491D01*
X161316Y130431D01*
X161346Y130419D01*
X161372Y130400D01*
X161459Y130373D01*
X161544Y130339D01*
X161585Y130335D01*
X161607Y130328D01*
X161640Y130329D01*
X161711Y130321D01*
X181391Y130321D01*
X181461Y130332D01*
X181533Y130334D01*
X181582Y130352D01*
X181633Y130360D01*
X181697Y130394D01*
X181764Y130419D01*
X181805Y130451D01*
X181851Y130476D01*
X181900Y130527D01*
X181956Y130572D01*
X181984Y130616D01*
X182020Y130654D01*
X182050Y130719D01*
X182089Y130779D01*
X182102Y130830D01*
X182124Y130877D01*
X182132Y130948D01*
X182149Y131018D01*
X182145Y131070D01*
X182151Y131121D01*
X182136Y131192D01*
X182130Y131263D01*
X182110Y131311D01*
X182099Y131362D01*
X182062Y131423D01*
X182034Y131489D01*
X181989Y131545D01*
X181973Y131573D01*
X181955Y131588D01*
X181929Y131620D01*
X181735Y131814D01*
X180847Y133958D01*
X180847Y136278D01*
X181735Y138422D01*
X183376Y140063D01*
X185520Y140951D01*
X187840Y140951D01*
X189984Y140063D01*
X191625Y138422D01*
X192513Y136278D01*
X192513Y133958D01*
X191625Y131814D01*
X191431Y131620D01*
X191389Y131562D01*
X191340Y131510D01*
X191318Y131463D01*
X191287Y131421D01*
X191266Y131352D01*
X191236Y131287D01*
X191230Y131235D01*
X191215Y131185D01*
X191217Y131114D01*
X191209Y131043D01*
X191220Y130992D01*
X191221Y130940D01*
X191246Y130872D01*
X191261Y130802D01*
X191288Y130757D01*
X191306Y130709D01*
X191351Y130653D01*
X191387Y130591D01*
X191427Y130557D01*
X191460Y130517D01*
X191520Y130478D01*
X191574Y130431D01*
X191623Y130412D01*
X191666Y130384D01*
X191736Y130366D01*
X191803Y130339D01*
X191874Y130331D01*
X191905Y130323D01*
X191928Y130325D01*
X191969Y130321D01*
X213343Y130321D01*
X213439Y130336D01*
X213536Y130346D01*
X213560Y130356D01*
X213586Y130360D01*
X213671Y130406D01*
X213761Y130446D01*
X213780Y130463D01*
X213803Y130476D01*
X213870Y130546D01*
X213942Y130612D01*
X213954Y130635D01*
X213972Y130654D01*
X214013Y130742D01*
X214060Y130828D01*
X214065Y130853D01*
X214076Y130877D01*
X214087Y130974D01*
X214104Y131070D01*
X214100Y131096D01*
X214103Y131121D01*
X214082Y131217D01*
X214068Y131313D01*
X214056Y131336D01*
X214051Y131362D01*
X214001Y131445D01*
X213957Y131532D01*
X213938Y131551D01*
X213925Y131573D01*
X213851Y131636D01*
X213781Y131704D01*
X213752Y131720D01*
X213738Y131733D01*
X213707Y131745D01*
X213634Y131785D01*
X212596Y132215D01*
X210955Y133856D01*
X210067Y136000D01*
X210067Y138320D01*
X210955Y140464D01*
X212596Y142105D01*
X214740Y142993D01*
X217060Y142993D01*
X219204Y142105D01*
X220845Y140464D01*
X221733Y138320D01*
X221733Y136000D01*
X220845Y133856D01*
X219204Y132215D01*
X218166Y131785D01*
X218083Y131734D01*
X217997Y131688D01*
X217979Y131670D01*
X217957Y131656D01*
X217895Y131580D01*
X217828Y131510D01*
X217817Y131486D01*
X217800Y131466D01*
X217765Y131375D01*
X217724Y131287D01*
X217721Y131261D01*
X217712Y131237D01*
X217708Y131139D01*
X217697Y131043D01*
X217703Y131017D01*
X217701Y130991D01*
X217729Y130897D01*
X217749Y130802D01*
X217763Y130780D01*
X217770Y130755D01*
X217825Y130675D01*
X217875Y130591D01*
X217895Y130574D01*
X217910Y130553D01*
X217988Y130494D01*
X218062Y130431D01*
X218087Y130421D01*
X218108Y130406D01*
X218200Y130376D01*
X218291Y130339D01*
X218323Y130336D01*
X218341Y130330D01*
X218375Y130330D01*
X218457Y130321D01*
X231989Y130321D01*
X232079Y130335D01*
X232170Y130343D01*
X232200Y130355D01*
X232232Y130360D01*
X232313Y130403D01*
X232396Y130439D01*
X232429Y130465D01*
X232449Y130476D01*
X232471Y130499D01*
X232527Y130544D01*
X233444Y131460D01*
X233491Y131526D01*
X233498Y131533D01*
X233500Y131538D01*
X233556Y131603D01*
X233568Y131633D01*
X233587Y131660D01*
X233614Y131747D01*
X233648Y131831D01*
X233653Y131872D01*
X233660Y131895D01*
X233659Y131927D01*
X233667Y131998D01*
X233667Y149539D01*
X233667Y150096D01*
X233663Y150116D01*
X233666Y150135D01*
X233644Y150237D01*
X233627Y150339D01*
X233618Y150356D01*
X233613Y150376D01*
X233560Y150465D01*
X233512Y150556D01*
X233497Y150570D01*
X233487Y150587D01*
X233408Y150654D01*
X233333Y150726D01*
X233315Y150734D01*
X233300Y150747D01*
X233204Y150786D01*
X233110Y150829D01*
X233091Y150831D01*
X233072Y150839D01*
X232905Y150857D01*
X84048Y150857D01*
X83958Y150843D01*
X83867Y150835D01*
X83838Y150823D01*
X83806Y150818D01*
X83725Y150775D01*
X83641Y150739D01*
X83609Y150713D01*
X83588Y150702D01*
X83566Y150679D01*
X83510Y150634D01*
X77722Y144846D01*
X77669Y144772D01*
X77609Y144702D01*
X77597Y144672D01*
X77578Y144646D01*
X77551Y144559D01*
X77517Y144474D01*
X77513Y144433D01*
X77506Y144411D01*
X77507Y144379D01*
X77499Y144308D01*
X77499Y91029D01*
X74884Y88414D01*
X68822Y82352D01*
X66207Y79737D01*
X59195Y79737D01*
X59175Y79734D01*
X59155Y79736D01*
X59054Y79714D01*
X58952Y79698D01*
X58934Y79688D01*
X58915Y79684D01*
X58826Y79631D01*
X58735Y79582D01*
X58721Y79568D01*
X58704Y79558D01*
X58636Y79479D01*
X58565Y79404D01*
X58557Y79386D01*
X58544Y79371D01*
X58505Y79275D01*
X58462Y79181D01*
X58459Y79161D01*
X58452Y79143D01*
X58433Y78976D01*
X58433Y71114D01*
X58426Y71107D01*
X58099Y71107D01*
X11684Y71107D01*
X11664Y71103D01*
X11645Y71106D01*
X11543Y71084D01*
X11441Y71067D01*
X11424Y71058D01*
X11404Y71053D01*
X11315Y71000D01*
X11224Y70952D01*
X11210Y70937D01*
X11193Y70927D01*
X11126Y70848D01*
X11054Y70773D01*
X11046Y70755D01*
X11033Y70740D01*
X10994Y70644D01*
X10951Y70550D01*
X10949Y70531D01*
X10941Y70512D01*
X10923Y70345D01*
X10923Y47117D01*
X10926Y47097D01*
X10924Y47078D01*
X10946Y46976D01*
X10962Y46874D01*
X10972Y46857D01*
X10976Y46837D01*
X11029Y46748D01*
X11078Y46657D01*
X11092Y46643D01*
X11102Y46626D01*
X11181Y46559D01*
X11256Y46487D01*
X11274Y46479D01*
X11289Y46466D01*
X11385Y46427D01*
X11479Y46384D01*
X11499Y46382D01*
X11517Y46374D01*
X11684Y46356D01*
X25940Y46356D01*
X26006Y46329D01*
X26047Y46325D01*
X26069Y46318D01*
X26101Y46319D01*
X26172Y46311D01*
X32099Y46311D01*
X39785Y43127D01*
X45667Y37245D01*
X48851Y29559D01*
X48851Y25156D01*
X48865Y25066D01*
X48873Y24975D01*
X48885Y24946D01*
X48890Y24914D01*
X48933Y24833D01*
X48969Y24749D01*
X48995Y24717D01*
X49006Y24696D01*
X49029Y24674D01*
X49074Y24618D01*
X49150Y24542D01*
X49150Y11684D01*
X49153Y11664D01*
X49151Y11645D01*
X49173Y11543D01*
X49189Y11441D01*
X49199Y11424D01*
X49203Y11404D01*
X49256Y11315D01*
X49305Y11224D01*
X49319Y11210D01*
X49329Y11193D01*
X49408Y11126D01*
X49483Y11054D01*
X49501Y11046D01*
X49516Y11033D01*
X49612Y10994D01*
X49706Y10951D01*
X49726Y10949D01*
X49744Y10941D01*
X49911Y10923D01*
X379857Y10923D01*
X379877Y10926D01*
G37*
%LPC*%
G36*
X314054Y196859D02*
X314054Y196859D01*
X311910Y197747D01*
X310269Y199388D01*
X309381Y201532D01*
X309381Y203852D01*
X310269Y205996D01*
X311910Y207637D01*
X314054Y208525D01*
X316374Y208525D01*
X316711Y208385D01*
X316755Y208375D01*
X316797Y208356D01*
X316874Y208347D01*
X316950Y208329D01*
X316996Y208333D01*
X317041Y208328D01*
X317118Y208345D01*
X317195Y208352D01*
X317237Y208371D01*
X317282Y208381D01*
X317349Y208421D01*
X317420Y208452D01*
X317454Y208483D01*
X317493Y208507D01*
X317544Y208566D01*
X317601Y208619D01*
X317623Y208659D01*
X317653Y208694D01*
X317682Y208766D01*
X317719Y208834D01*
X317728Y208879D01*
X317745Y208922D01*
X317760Y209058D01*
X317763Y209076D01*
X317762Y209081D01*
X317763Y209089D01*
X317763Y210964D01*
X318651Y213108D01*
X319420Y213877D01*
X319477Y213956D01*
X319539Y214031D01*
X319548Y214055D01*
X319564Y214077D01*
X319592Y214169D01*
X319627Y214261D01*
X319628Y214287D01*
X319636Y214312D01*
X319633Y214409D01*
X319638Y214506D01*
X319630Y214531D01*
X319630Y214557D01*
X319596Y214649D01*
X319569Y214742D01*
X319554Y214764D01*
X319545Y214789D01*
X319484Y214865D01*
X319429Y214945D01*
X319408Y214960D01*
X319391Y214981D01*
X319309Y215033D01*
X319231Y215091D01*
X319207Y215099D01*
X319185Y215114D01*
X319090Y215137D01*
X318998Y215167D01*
X318971Y215167D01*
X318946Y215174D01*
X318849Y215166D01*
X318752Y215165D01*
X318720Y215156D01*
X318701Y215155D01*
X318684Y215147D01*
X316679Y215147D01*
X316589Y215133D01*
X316498Y215125D01*
X316468Y215113D01*
X316436Y215108D01*
X316355Y215065D01*
X316272Y215029D01*
X316239Y215003D01*
X316219Y214992D01*
X316197Y214969D01*
X316141Y214924D01*
X313796Y212579D01*
X153564Y212579D01*
X151219Y214924D01*
X151146Y214977D01*
X151076Y215037D01*
X151046Y215049D01*
X151020Y215068D01*
X150933Y215095D01*
X150848Y215129D01*
X150807Y215133D01*
X150785Y215140D01*
X150752Y215139D01*
X150681Y215147D01*
X148700Y215147D01*
X146556Y216035D01*
X144915Y217676D01*
X144027Y219820D01*
X144027Y222140D01*
X144915Y224284D01*
X146556Y225925D01*
X148700Y226813D01*
X151020Y226813D01*
X153135Y225937D01*
X153179Y225926D01*
X153221Y225907D01*
X153298Y225898D01*
X153374Y225881D01*
X153420Y225885D01*
X153465Y225880D01*
X153542Y225896D01*
X153619Y225904D01*
X153661Y225922D01*
X153706Y225932D01*
X153773Y225972D01*
X153844Y226004D01*
X153878Y226035D01*
X153917Y226058D01*
X153968Y226117D01*
X154025Y226170D01*
X154047Y226210D01*
X154077Y226245D01*
X154106Y226318D01*
X154143Y226386D01*
X154152Y226431D01*
X154169Y226473D01*
X154184Y226609D01*
X154187Y226628D01*
X154186Y226633D01*
X154187Y226640D01*
X154187Y227220D01*
X155075Y229364D01*
X156716Y231005D01*
X158860Y231893D01*
X161180Y231893D01*
X163324Y231005D01*
X164965Y229364D01*
X165853Y227220D01*
X165853Y225570D01*
X165854Y225560D01*
X165854Y225556D01*
X165856Y225547D01*
X165854Y225531D01*
X165876Y225429D01*
X165892Y225327D01*
X165902Y225310D01*
X165906Y225290D01*
X165959Y225201D01*
X166008Y225110D01*
X166022Y225096D01*
X166032Y225079D01*
X166111Y225012D01*
X166186Y224940D01*
X166204Y224932D01*
X166219Y224919D01*
X166315Y224880D01*
X166409Y224837D01*
X166429Y224835D01*
X166447Y224827D01*
X166614Y224809D01*
X193857Y224809D01*
X193927Y224820D01*
X193999Y224822D01*
X194048Y224840D01*
X194099Y224848D01*
X194163Y224882D01*
X194230Y224907D01*
X194271Y224939D01*
X194317Y224964D01*
X194366Y225016D01*
X194422Y225060D01*
X194450Y225104D01*
X194486Y225142D01*
X194516Y225207D01*
X194555Y225267D01*
X194568Y225318D01*
X194590Y225365D01*
X194598Y225436D01*
X194615Y225506D01*
X194611Y225558D01*
X194617Y225609D01*
X194602Y225680D01*
X194596Y225751D01*
X194576Y225799D01*
X194565Y225850D01*
X194528Y225911D01*
X194500Y225977D01*
X194455Y226033D01*
X194439Y226061D01*
X194421Y226076D01*
X194415Y226084D01*
X194413Y226086D01*
X194412Y226088D01*
X194395Y226108D01*
X193175Y227328D01*
X192287Y229472D01*
X192287Y231792D01*
X193175Y233936D01*
X194816Y235577D01*
X196960Y236465D01*
X199280Y236465D01*
X201424Y235577D01*
X203065Y233936D01*
X203953Y231792D01*
X203953Y229472D01*
X203065Y227328D01*
X201845Y226108D01*
X201803Y226050D01*
X201754Y225998D01*
X201732Y225951D01*
X201701Y225909D01*
X201680Y225840D01*
X201650Y225775D01*
X201644Y225723D01*
X201629Y225673D01*
X201631Y225602D01*
X201623Y225531D01*
X201634Y225480D01*
X201635Y225428D01*
X201660Y225360D01*
X201675Y225290D01*
X201702Y225245D01*
X201720Y225197D01*
X201765Y225141D01*
X201801Y225079D01*
X201841Y225045D01*
X201874Y225005D01*
X201934Y224966D01*
X201988Y224919D01*
X202037Y224900D01*
X202081Y224872D01*
X202150Y224854D01*
X202217Y224827D01*
X202288Y224819D01*
X202319Y224811D01*
X202342Y224813D01*
X202383Y224809D01*
X265371Y224809D01*
X265441Y224820D01*
X265513Y224822D01*
X265562Y224840D01*
X265613Y224848D01*
X265677Y224882D01*
X265744Y224907D01*
X265785Y224939D01*
X265831Y224964D01*
X265880Y225016D01*
X265936Y225060D01*
X265964Y225104D01*
X266000Y225142D01*
X266030Y225207D01*
X266069Y225267D01*
X266082Y225318D01*
X266104Y225365D01*
X266112Y225436D01*
X266129Y225506D01*
X266125Y225558D01*
X266131Y225609D01*
X266116Y225680D01*
X266110Y225751D01*
X266090Y225799D01*
X266079Y225850D01*
X266042Y225911D01*
X266014Y225977D01*
X265969Y226033D01*
X265953Y226061D01*
X265935Y226076D01*
X265929Y226084D01*
X265927Y226086D01*
X265926Y226088D01*
X265909Y226108D01*
X264435Y227582D01*
X263547Y229726D01*
X263547Y232046D01*
X264435Y234190D01*
X266076Y235831D01*
X268220Y236719D01*
X270540Y236719D01*
X272684Y235831D01*
X274085Y234430D01*
X274159Y234377D01*
X274228Y234317D01*
X274259Y234305D01*
X274285Y234286D01*
X274372Y234259D01*
X274457Y234225D01*
X274498Y234221D01*
X274520Y234214D01*
X274552Y234215D01*
X274623Y234207D01*
X303757Y234207D01*
X303847Y234221D01*
X303938Y234229D01*
X303968Y234241D01*
X304000Y234246D01*
X304081Y234289D01*
X304164Y234325D01*
X304197Y234351D01*
X304217Y234362D01*
X304239Y234385D01*
X304295Y234430D01*
X312515Y242649D01*
X312556Y242707D01*
X312606Y242759D01*
X312628Y242806D01*
X312658Y242848D01*
X312679Y242917D01*
X312709Y242982D01*
X312715Y243034D01*
X312730Y243084D01*
X312729Y243155D01*
X312736Y243226D01*
X312725Y243277D01*
X312724Y243329D01*
X312699Y243397D01*
X312684Y243467D01*
X312657Y243512D01*
X312640Y243560D01*
X312595Y243616D01*
X312558Y243678D01*
X312518Y243712D01*
X312486Y243752D01*
X312426Y243791D01*
X312371Y243838D01*
X312323Y243857D01*
X312279Y243885D01*
X312210Y243903D01*
X312143Y243930D01*
X312072Y243938D01*
X312040Y243946D01*
X312017Y243944D01*
X311976Y243948D01*
X291093Y243948D01*
X289668Y245373D01*
X289668Y270247D01*
X291093Y271672D01*
X315967Y271672D01*
X317392Y270247D01*
X317392Y248176D01*
X317395Y248156D01*
X317393Y248137D01*
X317415Y248035D01*
X317431Y247933D01*
X317441Y247916D01*
X317445Y247896D01*
X317498Y247807D01*
X317547Y247716D01*
X317561Y247702D01*
X317571Y247685D01*
X317650Y247618D01*
X317725Y247546D01*
X317743Y247538D01*
X317758Y247525D01*
X317854Y247486D01*
X317948Y247443D01*
X317968Y247441D01*
X317986Y247433D01*
X318153Y247415D01*
X340559Y247415D01*
X340673Y247434D01*
X340790Y247451D01*
X340795Y247453D01*
X340801Y247454D01*
X340904Y247509D01*
X341009Y247562D01*
X341013Y247567D01*
X341019Y247570D01*
X341098Y247653D01*
X341181Y247738D01*
X341185Y247744D01*
X341188Y247748D01*
X341196Y247765D01*
X341262Y247885D01*
X343118Y252365D01*
X346695Y255942D01*
X351370Y257879D01*
X356430Y257879D01*
X361105Y255942D01*
X364682Y252365D01*
X366619Y247690D01*
X366619Y242630D01*
X364682Y237955D01*
X361105Y234378D01*
X356430Y232441D01*
X351370Y232441D01*
X346695Y234378D01*
X343118Y237955D01*
X342145Y240303D01*
X342084Y240403D01*
X342024Y240503D01*
X342019Y240507D01*
X342015Y240512D01*
X341925Y240587D01*
X341837Y240663D01*
X341831Y240665D01*
X341826Y240669D01*
X341718Y240711D01*
X341608Y240755D01*
X341601Y240756D01*
X341596Y240757D01*
X341578Y240758D01*
X341442Y240773D01*
X320347Y240773D01*
X320257Y240759D01*
X320166Y240751D01*
X320136Y240739D01*
X320104Y240734D01*
X320023Y240691D01*
X319940Y240655D01*
X319907Y240629D01*
X319887Y240618D01*
X319865Y240595D01*
X319809Y240550D01*
X306824Y227565D01*
X301941Y227565D01*
X301896Y227558D01*
X301850Y227560D01*
X301775Y227538D01*
X301698Y227526D01*
X301658Y227504D01*
X301614Y227491D01*
X301550Y227447D01*
X301481Y227410D01*
X301449Y227377D01*
X301412Y227351D01*
X301365Y227288D01*
X301311Y227232D01*
X301292Y227190D01*
X301265Y227154D01*
X301241Y227080D01*
X301208Y227009D01*
X301203Y226963D01*
X301189Y226920D01*
X301189Y226842D01*
X301181Y226765D01*
X301191Y226720D01*
X301191Y226674D01*
X301229Y226542D01*
X301233Y226524D01*
X301236Y226520D01*
X301238Y226513D01*
X301997Y224680D01*
X301997Y222360D01*
X301132Y220273D01*
X301122Y220229D01*
X301103Y220187D01*
X301094Y220110D01*
X301076Y220034D01*
X301081Y219988D01*
X301076Y219943D01*
X301092Y219866D01*
X301099Y219789D01*
X301118Y219747D01*
X301128Y219702D01*
X301168Y219635D01*
X301199Y219564D01*
X301230Y219530D01*
X301254Y219491D01*
X301313Y219440D01*
X301366Y219383D01*
X301406Y219361D01*
X301441Y219331D01*
X301513Y219302D01*
X301581Y219265D01*
X301626Y219256D01*
X301669Y219239D01*
X301805Y219224D01*
X301823Y219221D01*
X301828Y219222D01*
X301836Y219221D01*
X310729Y219221D01*
X310819Y219235D01*
X310910Y219243D01*
X310940Y219255D01*
X310972Y219260D01*
X311053Y219303D01*
X311136Y219339D01*
X311169Y219365D01*
X311189Y219376D01*
X311211Y219399D01*
X311267Y219444D01*
X311444Y219621D01*
X311497Y219694D01*
X311557Y219764D01*
X311569Y219794D01*
X311588Y219820D01*
X311615Y219907D01*
X311649Y219992D01*
X311653Y220033D01*
X311660Y220055D01*
X311659Y220088D01*
X311667Y220159D01*
X311667Y222140D01*
X312555Y224284D01*
X314196Y225925D01*
X316340Y226813D01*
X318660Y226813D01*
X320804Y225925D01*
X322445Y224284D01*
X323333Y222140D01*
X323333Y219820D01*
X322445Y217676D01*
X321676Y216907D01*
X321619Y216828D01*
X321557Y216753D01*
X321548Y216729D01*
X321532Y216707D01*
X321504Y216615D01*
X321469Y216523D01*
X321468Y216497D01*
X321460Y216472D01*
X321463Y216375D01*
X321458Y216278D01*
X321466Y216253D01*
X321466Y216227D01*
X321500Y216135D01*
X321527Y216042D01*
X321542Y216020D01*
X321551Y215995D01*
X321612Y215919D01*
X321667Y215839D01*
X321688Y215824D01*
X321705Y215803D01*
X321787Y215751D01*
X321865Y215693D01*
X321889Y215685D01*
X321911Y215670D01*
X322006Y215647D01*
X322098Y215617D01*
X322125Y215617D01*
X322150Y215610D01*
X322247Y215618D01*
X322344Y215619D01*
X322376Y215628D01*
X322395Y215629D01*
X322412Y215637D01*
X324756Y215637D01*
X326900Y214749D01*
X328541Y213108D01*
X329429Y210964D01*
X329429Y208644D01*
X328541Y206500D01*
X326900Y204859D01*
X324756Y203971D01*
X322436Y203971D01*
X322099Y204111D01*
X322055Y204121D01*
X322013Y204140D01*
X321936Y204149D01*
X321860Y204167D01*
X321814Y204163D01*
X321769Y204168D01*
X321692Y204151D01*
X321615Y204144D01*
X321573Y204125D01*
X321528Y204115D01*
X321461Y204075D01*
X321390Y204044D01*
X321356Y204013D01*
X321317Y203989D01*
X321266Y203930D01*
X321209Y203877D01*
X321187Y203837D01*
X321157Y203802D01*
X321128Y203730D01*
X321091Y203662D01*
X321082Y203617D01*
X321065Y203574D01*
X321050Y203438D01*
X321047Y203420D01*
X321048Y203415D01*
X321047Y203407D01*
X321047Y201532D01*
X320159Y199388D01*
X318518Y197747D01*
X316374Y196859D01*
X314054Y196859D01*
G37*
%LPD*%
%LPC*%
G36*
X231642Y337807D02*
X231642Y337807D01*
X231635Y337814D01*
X231635Y338141D01*
X231635Y350670D01*
X231631Y350690D01*
X231634Y350709D01*
X231612Y350811D01*
X231595Y350913D01*
X231586Y350930D01*
X231581Y350950D01*
X231528Y351039D01*
X231480Y351130D01*
X231465Y351144D01*
X231455Y351161D01*
X231377Y351228D01*
X231301Y351299D01*
X231283Y351308D01*
X231268Y351321D01*
X231172Y351359D01*
X231078Y351403D01*
X231059Y351405D01*
X231040Y351413D01*
X230873Y351431D01*
X230271Y351431D01*
X230271Y351433D01*
X230873Y351433D01*
X230893Y351436D01*
X230913Y351434D01*
X231014Y351456D01*
X231116Y351473D01*
X231134Y351482D01*
X231153Y351486D01*
X231242Y351539D01*
X231333Y351588D01*
X231347Y351602D01*
X231364Y351612D01*
X231432Y351691D01*
X231503Y351766D01*
X231511Y351784D01*
X231524Y351799D01*
X231563Y351895D01*
X231606Y351989D01*
X231609Y352009D01*
X231616Y352027D01*
X231635Y352194D01*
X231635Y362445D01*
X231631Y362465D01*
X231634Y362485D01*
X231612Y362586D01*
X231595Y362688D01*
X231586Y362706D01*
X231581Y362725D01*
X231528Y362814D01*
X231480Y362905D01*
X231465Y362919D01*
X231455Y362936D01*
X231376Y363004D01*
X231301Y363075D01*
X231283Y363083D01*
X231268Y363096D01*
X231172Y363135D01*
X231078Y363178D01*
X231059Y363181D01*
X231040Y363188D01*
X230873Y363207D01*
X218761Y363207D01*
X218434Y363207D01*
X218427Y363214D01*
X218427Y363541D01*
X218427Y386062D01*
X218423Y386082D01*
X218426Y386101D01*
X218404Y386203D01*
X218387Y386305D01*
X218378Y386322D01*
X218373Y386342D01*
X218320Y386431D01*
X218272Y386522D01*
X218257Y386536D01*
X218247Y386553D01*
X218168Y386620D01*
X218093Y386692D01*
X218075Y386700D01*
X218060Y386713D01*
X217964Y386752D01*
X217870Y386795D01*
X217851Y386797D01*
X217832Y386805D01*
X217665Y386823D01*
X170597Y386823D01*
X170507Y386809D01*
X170416Y386801D01*
X170387Y386789D01*
X170355Y386784D01*
X170274Y386741D01*
X170190Y386705D01*
X170158Y386679D01*
X170137Y386668D01*
X170115Y386645D01*
X170059Y386600D01*
X168912Y385453D01*
X166768Y384565D01*
X164448Y384565D01*
X162304Y385453D01*
X160663Y387094D01*
X159775Y389238D01*
X159775Y391558D01*
X160663Y393702D01*
X162304Y395343D01*
X164448Y396231D01*
X166768Y396231D01*
X168912Y395343D01*
X170059Y394196D01*
X170133Y394143D01*
X170202Y394083D01*
X170233Y394071D01*
X170259Y394052D01*
X170346Y394025D01*
X170431Y393991D01*
X170472Y393987D01*
X170494Y393980D01*
X170526Y393981D01*
X170597Y393973D01*
X217665Y393973D01*
X217685Y393976D01*
X217705Y393974D01*
X217806Y393996D01*
X217908Y394012D01*
X217926Y394022D01*
X217945Y394026D01*
X218034Y394079D01*
X218125Y394128D01*
X218139Y394142D01*
X218156Y394152D01*
X218224Y394231D01*
X218295Y394306D01*
X218303Y394324D01*
X218316Y394339D01*
X218355Y394435D01*
X218398Y394529D01*
X218401Y394549D01*
X218408Y394567D01*
X218427Y394734D01*
X218427Y409000D01*
X218415Y409071D01*
X218413Y409142D01*
X218395Y409191D01*
X218387Y409243D01*
X218353Y409306D01*
X218329Y409374D01*
X218296Y409414D01*
X218272Y409460D01*
X218220Y409510D01*
X218175Y409566D01*
X218131Y409594D01*
X218093Y409630D01*
X218028Y409660D01*
X217968Y409699D01*
X217918Y409711D01*
X217870Y409733D01*
X217799Y409741D01*
X217730Y409759D01*
X217678Y409755D01*
X217626Y409760D01*
X217556Y409745D01*
X217484Y409739D01*
X217436Y409719D01*
X217386Y409708D01*
X217324Y409671D01*
X217258Y409643D01*
X217202Y409598D01*
X217174Y409582D01*
X217159Y409564D01*
X217127Y409538D01*
X216664Y409075D01*
X214520Y408187D01*
X212200Y408187D01*
X210056Y409075D01*
X208415Y410716D01*
X207527Y412860D01*
X207527Y415180D01*
X208415Y417324D01*
X210056Y418965D01*
X212200Y419853D01*
X214520Y419853D01*
X216664Y418965D01*
X218305Y417324D01*
X219193Y415180D01*
X219193Y414795D01*
X219196Y414775D01*
X219194Y414755D01*
X219216Y414654D01*
X219232Y414552D01*
X219242Y414534D01*
X219246Y414515D01*
X219299Y414426D01*
X219348Y414335D01*
X219362Y414321D01*
X219372Y414304D01*
X219451Y414236D01*
X219526Y414165D01*
X219544Y414157D01*
X219559Y414144D01*
X219655Y414105D01*
X219749Y414062D01*
X219769Y414059D01*
X219787Y414052D01*
X219954Y414033D01*
X265690Y414033D01*
X265697Y414026D01*
X265697Y397051D01*
X265709Y396980D01*
X265711Y396908D01*
X265729Y396859D01*
X265737Y396808D01*
X265771Y396745D01*
X265795Y396677D01*
X265828Y396637D01*
X265852Y396591D01*
X265904Y396541D01*
X265949Y396485D01*
X265993Y396457D01*
X266031Y396421D01*
X266096Y396391D01*
X266156Y396352D01*
X266207Y396340D01*
X266254Y396318D01*
X266325Y396310D01*
X266394Y396292D01*
X266446Y396296D01*
X266498Y396290D01*
X266568Y396306D01*
X266640Y396311D01*
X266688Y396332D01*
X266739Y396343D01*
X266800Y396380D01*
X266866Y396408D01*
X266922Y396452D01*
X266950Y396469D01*
X266965Y396487D01*
X266997Y396512D01*
X268264Y397780D01*
X268317Y397854D01*
X268377Y397923D01*
X268389Y397953D01*
X268408Y397980D01*
X268435Y398067D01*
X268469Y398151D01*
X268473Y398192D01*
X268480Y398215D01*
X268479Y398247D01*
X268487Y398318D01*
X268487Y399940D01*
X269375Y402084D01*
X271016Y403725D01*
X273160Y404613D01*
X275480Y404613D01*
X277624Y403725D01*
X279265Y402084D01*
X280153Y399940D01*
X280153Y397620D01*
X279265Y395476D01*
X277624Y393835D01*
X275480Y392947D01*
X273858Y392947D01*
X273768Y392933D01*
X273677Y392925D01*
X273647Y392913D01*
X273615Y392908D01*
X273535Y392865D01*
X273451Y392829D01*
X273419Y392803D01*
X273398Y392792D01*
X273376Y392769D01*
X273320Y392724D01*
X267419Y386823D01*
X266459Y386823D01*
X266439Y386820D01*
X266419Y386822D01*
X266318Y386800D01*
X266216Y386784D01*
X266198Y386774D01*
X266179Y386770D01*
X266090Y386717D01*
X265999Y386668D01*
X265985Y386654D01*
X265968Y386644D01*
X265900Y386565D01*
X265829Y386490D01*
X265821Y386472D01*
X265808Y386457D01*
X265769Y386361D01*
X265726Y386267D01*
X265723Y386247D01*
X265716Y386229D01*
X265697Y386062D01*
X265697Y337814D01*
X265690Y337807D01*
X265363Y337807D01*
X231969Y337807D01*
X231642Y337807D01*
G37*
%LPD*%
%LPC*%
G36*
X205586Y290839D02*
X205586Y290839D01*
X203442Y291727D01*
X201801Y293368D01*
X200913Y295512D01*
X200913Y297832D01*
X201567Y299411D01*
X201578Y299455D01*
X201597Y299497D01*
X201606Y299574D01*
X201623Y299650D01*
X201619Y299696D01*
X201624Y299741D01*
X201608Y299818D01*
X201600Y299895D01*
X201582Y299937D01*
X201572Y299982D01*
X201532Y300049D01*
X201500Y300120D01*
X201469Y300154D01*
X201446Y300193D01*
X201387Y300244D01*
X201334Y300301D01*
X201294Y300323D01*
X201259Y300353D01*
X201186Y300382D01*
X201118Y300419D01*
X201073Y300428D01*
X201031Y300445D01*
X200895Y300460D01*
X200876Y300463D01*
X200871Y300462D01*
X200864Y300463D01*
X190155Y300463D01*
X190065Y300449D01*
X189974Y300441D01*
X189945Y300429D01*
X189913Y300424D01*
X189832Y300381D01*
X189748Y300345D01*
X189716Y300319D01*
X189695Y300308D01*
X189673Y300285D01*
X189617Y300240D01*
X188216Y298839D01*
X186072Y297951D01*
X183752Y297951D01*
X181608Y298839D01*
X179967Y300480D01*
X179079Y302624D01*
X179079Y304944D01*
X179967Y307088D01*
X181239Y308360D01*
X181281Y308418D01*
X181330Y308470D01*
X181352Y308517D01*
X181383Y308559D01*
X181404Y308628D01*
X181434Y308693D01*
X181440Y308745D01*
X181455Y308795D01*
X181453Y308866D01*
X181461Y308937D01*
X181450Y308988D01*
X181449Y309040D01*
X181424Y309108D01*
X181409Y309178D01*
X181382Y309222D01*
X181364Y309271D01*
X181319Y309327D01*
X181283Y309389D01*
X181243Y309423D01*
X181210Y309463D01*
X181150Y309502D01*
X181096Y309549D01*
X181047Y309568D01*
X181003Y309596D01*
X180934Y309614D01*
X180867Y309641D01*
X180796Y309649D01*
X180765Y309657D01*
X180742Y309655D01*
X180701Y309659D01*
X138395Y309659D01*
X138305Y309645D01*
X138214Y309637D01*
X138184Y309625D01*
X138152Y309620D01*
X138071Y309577D01*
X137988Y309541D01*
X137955Y309515D01*
X137935Y309504D01*
X137913Y309481D01*
X137857Y309436D01*
X136612Y308191D01*
X136559Y308118D01*
X136499Y308048D01*
X136487Y308018D01*
X136468Y307992D01*
X136441Y307905D01*
X136407Y307820D01*
X136403Y307779D01*
X136396Y307757D01*
X136397Y307724D01*
X136389Y307653D01*
X136389Y305672D01*
X135501Y303528D01*
X133860Y301887D01*
X131716Y300999D01*
X129396Y300999D01*
X127252Y301887D01*
X125611Y303528D01*
X124723Y305672D01*
X124723Y307992D01*
X125611Y310136D01*
X127252Y311777D01*
X129396Y312665D01*
X131377Y312665D01*
X131467Y312679D01*
X131558Y312687D01*
X131588Y312699D01*
X131620Y312704D01*
X131701Y312747D01*
X131784Y312783D01*
X131817Y312809D01*
X131837Y312820D01*
X131859Y312843D01*
X131915Y312888D01*
X135328Y316301D01*
X340420Y316301D01*
X340440Y316304D01*
X340459Y316302D01*
X340561Y316324D01*
X340663Y316340D01*
X340680Y316350D01*
X340700Y316354D01*
X340789Y316407D01*
X340880Y316456D01*
X340894Y316470D01*
X340911Y316480D01*
X340978Y316559D01*
X341050Y316634D01*
X341058Y316652D01*
X341071Y316667D01*
X341110Y316763D01*
X341153Y316857D01*
X341155Y316877D01*
X341163Y316895D01*
X341181Y317062D01*
X341181Y317690D01*
X343118Y322365D01*
X346695Y325942D01*
X351370Y327879D01*
X356430Y327879D01*
X361105Y325942D01*
X364682Y322365D01*
X366619Y317690D01*
X366619Y312630D01*
X364682Y307955D01*
X361105Y304378D01*
X356430Y302441D01*
X351370Y302441D01*
X346695Y304378D01*
X343118Y307955D01*
X342606Y309189D01*
X342545Y309289D01*
X342485Y309389D01*
X342480Y309393D01*
X342477Y309398D01*
X342386Y309473D01*
X342298Y309549D01*
X342292Y309551D01*
X342287Y309555D01*
X342179Y309597D01*
X342070Y309641D01*
X342062Y309642D01*
X342058Y309643D01*
X342039Y309644D01*
X341903Y309659D01*
X273451Y309659D01*
X273381Y309648D01*
X273309Y309646D01*
X273260Y309628D01*
X273209Y309620D01*
X273145Y309586D01*
X273078Y309561D01*
X273037Y309529D01*
X272991Y309504D01*
X272942Y309453D01*
X272886Y309408D01*
X272858Y309364D01*
X272822Y309326D01*
X272792Y309261D01*
X272753Y309201D01*
X272740Y309150D01*
X272718Y309103D01*
X272710Y309032D01*
X272693Y308962D01*
X272697Y308910D01*
X272691Y308859D01*
X272706Y308788D01*
X272712Y308717D01*
X272732Y308669D01*
X272743Y308618D01*
X272780Y308557D01*
X272808Y308491D01*
X272853Y308435D01*
X272869Y308407D01*
X272887Y308392D01*
X272913Y308360D01*
X273169Y308104D01*
X274057Y305960D01*
X274057Y303640D01*
X273169Y301496D01*
X271528Y299855D01*
X269384Y298967D01*
X267064Y298967D01*
X264920Y299855D01*
X264027Y300748D01*
X263953Y300801D01*
X263884Y300861D01*
X263853Y300873D01*
X263827Y300892D01*
X263740Y300919D01*
X263655Y300953D01*
X263614Y300957D01*
X263592Y300964D01*
X263560Y300963D01*
X263489Y300971D01*
X220635Y300971D01*
X220545Y300957D01*
X220454Y300949D01*
X220425Y300937D01*
X220393Y300932D01*
X220312Y300889D01*
X220228Y300853D01*
X220196Y300827D01*
X220175Y300816D01*
X220164Y300805D01*
X220163Y300804D01*
X220150Y300791D01*
X220097Y300748D01*
X218696Y299347D01*
X216552Y298459D01*
X214232Y298459D01*
X213621Y298712D01*
X213551Y298729D01*
X213483Y298755D01*
X213432Y298757D01*
X213381Y298769D01*
X213310Y298762D01*
X213238Y298765D01*
X213188Y298750D01*
X213136Y298745D01*
X213071Y298716D01*
X213001Y298696D01*
X212959Y298666D01*
X212912Y298645D01*
X212859Y298597D01*
X212800Y298556D01*
X212769Y298514D01*
X212731Y298479D01*
X212696Y298416D01*
X212653Y298358D01*
X212637Y298309D01*
X212612Y298264D01*
X212599Y298193D01*
X212577Y298124D01*
X212577Y298072D01*
X212568Y298021D01*
X212579Y297950D01*
X212579Y295512D01*
X211691Y293368D01*
X210050Y291727D01*
X207906Y290839D01*
X205586Y290839D01*
G37*
%LPD*%
%LPC*%
G36*
X240140Y257311D02*
X240140Y257311D01*
X237996Y258199D01*
X236355Y259840D01*
X235467Y261984D01*
X235467Y264304D01*
X236355Y266448D01*
X237996Y268089D01*
X240140Y268977D01*
X242460Y268977D01*
X244604Y268089D01*
X246005Y266688D01*
X246079Y266635D01*
X246148Y266575D01*
X246179Y266563D01*
X246205Y266544D01*
X246292Y266517D01*
X246377Y266483D01*
X246418Y266479D01*
X246440Y266472D01*
X246472Y266473D01*
X246543Y266465D01*
X259273Y266465D01*
X259369Y266480D01*
X259466Y266490D01*
X259490Y266500D01*
X259516Y266504D01*
X259602Y266550D01*
X259691Y266590D01*
X259710Y266607D01*
X259733Y266620D01*
X259800Y266690D01*
X259872Y266756D01*
X259885Y266779D01*
X259903Y266798D01*
X259944Y266886D01*
X259991Y266972D01*
X259995Y266997D01*
X260006Y267021D01*
X260017Y267118D01*
X260034Y267214D01*
X260031Y267240D01*
X260033Y267265D01*
X260013Y267361D01*
X259999Y267457D01*
X259987Y267480D01*
X259981Y267506D01*
X259931Y267589D01*
X259887Y267676D01*
X259868Y267695D01*
X259855Y267717D01*
X259781Y267780D01*
X259711Y267848D01*
X259683Y267864D01*
X259668Y267877D01*
X259637Y267889D01*
X259564Y267929D01*
X257300Y268867D01*
X255659Y270508D01*
X254771Y272652D01*
X254771Y274972D01*
X255659Y277116D01*
X257300Y278757D01*
X259444Y279645D01*
X261764Y279645D01*
X263908Y278757D01*
X264968Y277697D01*
X264984Y277685D01*
X264996Y277670D01*
X265084Y277614D01*
X265167Y277553D01*
X265186Y277548D01*
X265203Y277537D01*
X265304Y277512D01*
X265403Y277481D01*
X265422Y277482D01*
X265442Y277477D01*
X265545Y277485D01*
X265648Y277487D01*
X265667Y277494D01*
X265687Y277496D01*
X265782Y277536D01*
X265879Y277572D01*
X265895Y277584D01*
X265913Y277592D01*
X266044Y277697D01*
X267104Y278757D01*
X269248Y279645D01*
X271568Y279645D01*
X273712Y278757D01*
X275353Y277116D01*
X276241Y274972D01*
X276241Y274139D01*
X276252Y274068D01*
X276254Y273996D01*
X276272Y273947D01*
X276280Y273896D01*
X276314Y273833D01*
X276339Y273765D01*
X276371Y273725D01*
X276396Y273679D01*
X276448Y273629D01*
X276492Y273573D01*
X276536Y273545D01*
X276574Y273509D01*
X276639Y273479D01*
X276699Y273440D01*
X276750Y273428D01*
X276797Y273406D01*
X276868Y273398D01*
X276938Y273380D01*
X276990Y273384D01*
X277041Y273379D01*
X277112Y273394D01*
X277183Y273399D01*
X277231Y273420D01*
X277282Y273431D01*
X277343Y273468D01*
X277409Y273496D01*
X277465Y273540D01*
X277493Y273557D01*
X277508Y273575D01*
X277540Y273600D01*
X285254Y281315D01*
X287422Y283483D01*
X341001Y283483D01*
X341116Y283502D01*
X341232Y283519D01*
X341238Y283521D01*
X341244Y283522D01*
X341346Y283577D01*
X341451Y283630D01*
X341456Y283635D01*
X341461Y283638D01*
X341541Y283722D01*
X341623Y283806D01*
X341627Y283812D01*
X341631Y283816D01*
X341638Y283833D01*
X341704Y283953D01*
X343118Y287365D01*
X346695Y290942D01*
X351370Y292879D01*
X356430Y292879D01*
X361105Y290942D01*
X364682Y287365D01*
X366619Y282690D01*
X366619Y277630D01*
X364682Y272955D01*
X361105Y269378D01*
X356430Y267441D01*
X351370Y267441D01*
X346695Y269378D01*
X343118Y272955D01*
X341703Y276371D01*
X341641Y276471D01*
X341581Y276571D01*
X341576Y276575D01*
X341573Y276580D01*
X341483Y276655D01*
X341394Y276731D01*
X341388Y276733D01*
X341384Y276737D01*
X341275Y276779D01*
X341166Y276823D01*
X341159Y276824D01*
X341154Y276825D01*
X341136Y276826D01*
X340999Y276841D01*
X290489Y276841D01*
X290399Y276827D01*
X290308Y276819D01*
X290278Y276807D01*
X290246Y276802D01*
X290165Y276759D01*
X290082Y276723D01*
X290049Y276697D01*
X290029Y276686D01*
X290007Y276663D01*
X289951Y276618D01*
X273156Y259823D01*
X246543Y259823D01*
X246453Y259809D01*
X246362Y259801D01*
X246333Y259789D01*
X246301Y259784D01*
X246220Y259741D01*
X246136Y259705D01*
X246104Y259679D01*
X246083Y259668D01*
X246061Y259645D01*
X246005Y259600D01*
X244604Y258199D01*
X242460Y257311D01*
X240140Y257311D01*
G37*
%LPD*%
%LPC*%
G36*
X374301Y382949D02*
X374301Y382949D01*
X366615Y386133D01*
X360733Y392015D01*
X357549Y399701D01*
X357549Y408019D01*
X360733Y415705D01*
X366615Y421587D01*
X374301Y424771D01*
X382619Y424771D01*
X390305Y421587D01*
X396187Y415705D01*
X399371Y408019D01*
X399371Y399701D01*
X396187Y392015D01*
X390305Y386133D01*
X382619Y382949D01*
X374301Y382949D01*
G37*
%LPD*%
%LPC*%
G36*
X111108Y462543D02*
X111108Y462543D01*
X108964Y463431D01*
X107323Y465072D01*
X106435Y467216D01*
X106435Y469536D01*
X107323Y471680D01*
X108964Y473321D01*
X111108Y474209D01*
X113428Y474209D01*
X115572Y473321D01*
X116719Y472174D01*
X116793Y472121D01*
X116862Y472061D01*
X116893Y472049D01*
X116919Y472030D01*
X117006Y472003D01*
X117091Y471969D01*
X117132Y471965D01*
X117154Y471958D01*
X117186Y471959D01*
X117257Y471951D01*
X276951Y471951D01*
X277041Y471965D01*
X277132Y471973D01*
X277161Y471985D01*
X277193Y471990D01*
X277274Y472033D01*
X277358Y472069D01*
X277390Y472095D01*
X277411Y472106D01*
X277433Y472129D01*
X277489Y472174D01*
X278636Y473321D01*
X280780Y474209D01*
X283100Y474209D01*
X285244Y473321D01*
X286885Y471680D01*
X287773Y469536D01*
X287773Y467216D01*
X286885Y465072D01*
X285244Y463431D01*
X283100Y462543D01*
X280780Y462543D01*
X278636Y463431D01*
X277489Y464578D01*
X277415Y464631D01*
X277346Y464691D01*
X277315Y464703D01*
X277289Y464722D01*
X277202Y464749D01*
X277117Y464783D01*
X277076Y464787D01*
X277054Y464794D01*
X277022Y464793D01*
X276951Y464801D01*
X117257Y464801D01*
X117167Y464787D01*
X117076Y464779D01*
X117047Y464767D01*
X117015Y464762D01*
X116934Y464719D01*
X116850Y464683D01*
X116818Y464657D01*
X116797Y464646D01*
X116775Y464623D01*
X116719Y464578D01*
X115572Y463431D01*
X113428Y462543D01*
X111108Y462543D01*
G37*
%LPD*%
%LPC*%
G36*
X345814Y442809D02*
X345814Y442809D01*
X340926Y444834D01*
X337184Y448576D01*
X335159Y453464D01*
X335159Y458756D01*
X337184Y463644D01*
X340926Y467386D01*
X345814Y469411D01*
X351106Y469411D01*
X353397Y468461D01*
X353467Y468445D01*
X353534Y468419D01*
X353586Y468417D01*
X353637Y468405D01*
X353708Y468412D01*
X353780Y468409D01*
X353830Y468423D01*
X353882Y468428D01*
X353947Y468458D01*
X354016Y468477D01*
X354059Y468507D01*
X354107Y468528D01*
X354159Y468577D01*
X354218Y468618D01*
X354249Y468660D01*
X354288Y468695D01*
X354322Y468758D01*
X354365Y468815D01*
X354381Y468865D01*
X354406Y468910D01*
X354419Y468981D01*
X354441Y469049D01*
X354441Y469101D01*
X354450Y469152D01*
X354440Y469223D01*
X354439Y469295D01*
X354419Y469364D01*
X354414Y469396D01*
X354404Y469417D01*
X354392Y469456D01*
X353299Y472094D01*
X353299Y478126D01*
X355607Y483698D01*
X359872Y487963D01*
X365444Y490271D01*
X371476Y490271D01*
X377048Y487963D01*
X381313Y483698D01*
X383621Y478126D01*
X383621Y472094D01*
X381313Y466522D01*
X377048Y462257D01*
X371476Y459949D01*
X365444Y459949D01*
X362099Y461335D01*
X362029Y461351D01*
X361962Y461377D01*
X361910Y461379D01*
X361859Y461391D01*
X361788Y461384D01*
X361716Y461387D01*
X361666Y461373D01*
X361615Y461368D01*
X361549Y461339D01*
X361480Y461319D01*
X361437Y461289D01*
X361390Y461268D01*
X361337Y461220D01*
X361278Y461179D01*
X361247Y461137D01*
X361209Y461102D01*
X361174Y461039D01*
X361131Y460981D01*
X361115Y460932D01*
X361090Y460886D01*
X361077Y460816D01*
X361055Y460747D01*
X361056Y460695D01*
X361046Y460644D01*
X361057Y460573D01*
X361058Y460501D01*
X361078Y460433D01*
X361082Y460401D01*
X361093Y460380D01*
X361104Y460340D01*
X361761Y458756D01*
X361761Y453464D01*
X359736Y448576D01*
X355994Y444834D01*
X351106Y442809D01*
X345814Y442809D01*
G37*
%LPD*%
%LPC*%
G36*
X365444Y494949D02*
X365444Y494949D01*
X359872Y497257D01*
X355607Y501522D01*
X353299Y507094D01*
X353299Y513126D01*
X354392Y515764D01*
X354408Y515834D01*
X354434Y515901D01*
X354436Y515953D01*
X354448Y516003D01*
X354442Y516075D01*
X354445Y516146D01*
X354430Y516196D01*
X354425Y516248D01*
X354396Y516314D01*
X354376Y516383D01*
X354346Y516425D01*
X354325Y516473D01*
X354277Y516526D01*
X354236Y516585D01*
X354194Y516616D01*
X354159Y516654D01*
X354096Y516689D01*
X354038Y516731D01*
X353989Y516748D01*
X353943Y516773D01*
X353873Y516785D01*
X353805Y516808D01*
X353752Y516807D01*
X353701Y516816D01*
X353630Y516806D01*
X353559Y516805D01*
X353490Y516785D01*
X353458Y516781D01*
X353437Y516770D01*
X353397Y516759D01*
X351106Y515809D01*
X345814Y515809D01*
X340926Y517834D01*
X337184Y521576D01*
X335159Y526464D01*
X335159Y531756D01*
X337184Y536644D01*
X340926Y540386D01*
X345814Y542411D01*
X351106Y542411D01*
X355994Y540386D01*
X359736Y536644D01*
X361761Y531756D01*
X361761Y526464D01*
X361104Y524880D01*
X361088Y524810D01*
X361062Y524743D01*
X361060Y524691D01*
X361048Y524640D01*
X361055Y524569D01*
X361052Y524497D01*
X361066Y524447D01*
X361071Y524395D01*
X361100Y524330D01*
X361120Y524261D01*
X361150Y524218D01*
X361171Y524171D01*
X361220Y524118D01*
X361261Y524059D01*
X361302Y524028D01*
X361338Y523989D01*
X361400Y523955D01*
X361458Y523912D01*
X361507Y523896D01*
X361553Y523871D01*
X361624Y523858D01*
X361692Y523836D01*
X361744Y523836D01*
X361795Y523827D01*
X361866Y523838D01*
X361938Y523838D01*
X362007Y523858D01*
X362039Y523863D01*
X362059Y523874D01*
X362099Y523885D01*
X365444Y525271D01*
X371476Y525271D01*
X377048Y522963D01*
X381313Y518698D01*
X383621Y513126D01*
X383621Y507094D01*
X381313Y501522D01*
X377048Y497257D01*
X371476Y494949D01*
X365444Y494949D01*
G37*
%LPD*%
%LPC*%
G36*
X149716Y527567D02*
X149716Y527567D01*
X147572Y528455D01*
X145931Y530096D01*
X145043Y532240D01*
X145043Y534560D01*
X145931Y536704D01*
X147572Y538345D01*
X149716Y539233D01*
X151697Y539233D01*
X151787Y539247D01*
X151878Y539255D01*
X151893Y539261D01*
X292949Y539261D01*
X293039Y539275D01*
X293130Y539283D01*
X293160Y539295D01*
X293192Y539300D01*
X293273Y539343D01*
X293356Y539379D01*
X293389Y539405D01*
X293409Y539416D01*
X293431Y539439D01*
X293487Y539484D01*
X300268Y546265D01*
X300321Y546338D01*
X300381Y546408D01*
X300393Y546438D01*
X300412Y546464D01*
X300439Y546551D01*
X300473Y546636D01*
X300477Y546677D01*
X300484Y546699D01*
X300483Y546732D01*
X300491Y546803D01*
X300491Y548784D01*
X301379Y550928D01*
X303020Y552569D01*
X305164Y553457D01*
X307484Y553457D01*
X309628Y552569D01*
X311269Y550928D01*
X312157Y548784D01*
X312157Y546464D01*
X311269Y544320D01*
X309628Y542679D01*
X307484Y541791D01*
X305503Y541791D01*
X305413Y541777D01*
X305322Y541769D01*
X305292Y541757D01*
X305260Y541752D01*
X305179Y541709D01*
X305096Y541673D01*
X305063Y541647D01*
X305043Y541636D01*
X305021Y541613D01*
X304965Y541568D01*
X296016Y532619D01*
X157375Y532619D01*
X157260Y532600D01*
X157144Y532583D01*
X157138Y532581D01*
X157132Y532580D01*
X157029Y532525D01*
X156924Y532472D01*
X156920Y532467D01*
X156914Y532464D01*
X156835Y532380D01*
X156752Y532296D01*
X156749Y532290D01*
X156745Y532286D01*
X156737Y532269D01*
X156671Y532149D01*
X155821Y530096D01*
X154180Y528455D01*
X152036Y527567D01*
X149716Y527567D01*
G37*
%LPD*%
%LPC*%
G36*
X117712Y82051D02*
X117712Y82051D01*
X115568Y82939D01*
X113927Y84580D01*
X113039Y86724D01*
X113039Y89044D01*
X113927Y91188D01*
X115568Y92829D01*
X117712Y93717D01*
X120032Y93717D01*
X122176Y92829D01*
X123577Y91428D01*
X123651Y91375D01*
X123720Y91315D01*
X123751Y91303D01*
X123777Y91284D01*
X123864Y91257D01*
X123949Y91223D01*
X123990Y91219D01*
X124012Y91212D01*
X124044Y91213D01*
X124115Y91205D01*
X191861Y91205D01*
X191951Y91219D01*
X192042Y91227D01*
X192071Y91239D01*
X192103Y91244D01*
X192184Y91287D01*
X192268Y91323D01*
X192300Y91349D01*
X192321Y91360D01*
X192343Y91383D01*
X192399Y91428D01*
X193800Y92829D01*
X195944Y93717D01*
X198264Y93717D01*
X200408Y92829D01*
X202049Y91188D01*
X202937Y89044D01*
X202937Y86724D01*
X202049Y84580D01*
X200408Y82939D01*
X198264Y82051D01*
X195944Y82051D01*
X193800Y82939D01*
X192399Y84340D01*
X192325Y84393D01*
X192256Y84453D01*
X192225Y84465D01*
X192199Y84484D01*
X192112Y84511D01*
X192027Y84545D01*
X191986Y84549D01*
X191964Y84556D01*
X191932Y84555D01*
X191861Y84563D01*
X124115Y84563D01*
X124025Y84549D01*
X123934Y84541D01*
X123905Y84529D01*
X123873Y84524D01*
X123792Y84481D01*
X123708Y84445D01*
X123676Y84419D01*
X123655Y84408D01*
X123633Y84385D01*
X123577Y84340D01*
X122176Y82939D01*
X120032Y82051D01*
X117712Y82051D01*
G37*
%LPD*%
%LPC*%
G36*
X286013Y378568D02*
X286013Y378568D01*
X284588Y379993D01*
X284588Y396231D01*
X286013Y397656D01*
X313427Y397656D01*
X314852Y396231D01*
X314852Y379993D01*
X313427Y378568D01*
X286013Y378568D01*
G37*
%LPD*%
%LPC*%
G36*
X398814Y515809D02*
X398814Y515809D01*
X393926Y517834D01*
X390184Y521576D01*
X388159Y526464D01*
X388159Y531756D01*
X390184Y536644D01*
X393926Y540386D01*
X398814Y542411D01*
X404106Y542411D01*
X408994Y540386D01*
X412736Y536644D01*
X414761Y531756D01*
X414761Y526464D01*
X412736Y521576D01*
X408994Y517834D01*
X404106Y515809D01*
X398814Y515809D01*
G37*
%LPD*%
%LPC*%
G36*
X398814Y442809D02*
X398814Y442809D01*
X393926Y444834D01*
X390184Y448576D01*
X388159Y453464D01*
X388159Y458756D01*
X390184Y463644D01*
X393926Y467386D01*
X398814Y469411D01*
X404106Y469411D01*
X408994Y467386D01*
X412736Y463644D01*
X414761Y458756D01*
X414761Y453464D01*
X412736Y448576D01*
X408994Y444834D01*
X404106Y442809D01*
X398814Y442809D01*
G37*
%LPD*%
G36*
X315010Y246011D02*
X315010Y246011D01*
X315061Y246013D01*
X315093Y246031D01*
X315129Y246039D01*
X315168Y246072D01*
X315213Y246096D01*
X315234Y246126D01*
X315262Y246149D01*
X315283Y246196D01*
X315313Y246238D01*
X315321Y246280D01*
X315333Y246308D01*
X315332Y246338D01*
X315340Y246380D01*
X315340Y269240D01*
X315329Y269290D01*
X315327Y269341D01*
X315309Y269373D01*
X315301Y269409D01*
X315268Y269448D01*
X315244Y269493D01*
X315214Y269514D01*
X315191Y269542D01*
X315144Y269563D01*
X315102Y269593D01*
X315060Y269601D01*
X315032Y269613D01*
X315002Y269612D01*
X314960Y269620D01*
X292100Y269620D01*
X292050Y269609D01*
X291999Y269607D01*
X291967Y269589D01*
X291931Y269581D01*
X291892Y269548D01*
X291847Y269524D01*
X291826Y269494D01*
X291798Y269471D01*
X291777Y269424D01*
X291747Y269382D01*
X291739Y269340D01*
X291727Y269312D01*
X291728Y269282D01*
X291720Y269240D01*
X291720Y246380D01*
X291731Y246330D01*
X291733Y246279D01*
X291751Y246247D01*
X291759Y246211D01*
X291792Y246172D01*
X291816Y246127D01*
X291846Y246106D01*
X291869Y246078D01*
X291916Y246057D01*
X291958Y246027D01*
X292000Y246019D01*
X292028Y246007D01*
X292058Y246008D01*
X292100Y246000D01*
X314960Y246000D01*
X315010Y246011D01*
G37*
G36*
X312470Y380631D02*
X312470Y380631D01*
X312521Y380633D01*
X312553Y380651D01*
X312589Y380659D01*
X312628Y380692D01*
X312673Y380716D01*
X312694Y380746D01*
X312722Y380769D01*
X312743Y380816D01*
X312773Y380858D01*
X312781Y380900D01*
X312793Y380928D01*
X312792Y380958D01*
X312800Y381000D01*
X312800Y395224D01*
X312789Y395274D01*
X312787Y395325D01*
X312769Y395357D01*
X312761Y395393D01*
X312728Y395432D01*
X312704Y395477D01*
X312674Y395498D01*
X312651Y395526D01*
X312604Y395547D01*
X312562Y395577D01*
X312520Y395585D01*
X312492Y395597D01*
X312462Y395596D01*
X312420Y395604D01*
X287020Y395604D01*
X286970Y395593D01*
X286919Y395591D01*
X286887Y395573D01*
X286851Y395565D01*
X286812Y395532D01*
X286767Y395508D01*
X286746Y395478D01*
X286718Y395455D01*
X286697Y395408D01*
X286667Y395366D01*
X286659Y395324D01*
X286647Y395296D01*
X286648Y395266D01*
X286640Y395224D01*
X286640Y381000D01*
X286651Y380950D01*
X286653Y380899D01*
X286671Y380867D01*
X286679Y380831D01*
X286712Y380792D01*
X286736Y380747D01*
X286766Y380726D01*
X286789Y380698D01*
X286836Y380677D01*
X286878Y380647D01*
X286920Y380639D01*
X286948Y380627D01*
X286978Y380628D01*
X287020Y380620D01*
X312420Y380620D01*
X312470Y380631D01*
G37*
%LPC*%
G36*
X160130Y239277D02*
X160130Y239277D01*
X157986Y240165D01*
X156345Y241806D01*
X155457Y243950D01*
X155457Y246270D01*
X156345Y248414D01*
X157986Y250055D01*
X160130Y250943D01*
X162450Y250943D01*
X163356Y250568D01*
X163426Y250551D01*
X163493Y250526D01*
X163545Y250523D01*
X163595Y250511D01*
X163667Y250518D01*
X163738Y250515D01*
X163788Y250530D01*
X163840Y250535D01*
X163906Y250564D01*
X163975Y250584D01*
X164017Y250613D01*
X164065Y250635D01*
X164118Y250683D01*
X164177Y250724D01*
X164208Y250766D01*
X164246Y250801D01*
X164281Y250864D01*
X164323Y250921D01*
X164339Y250971D01*
X164365Y251016D01*
X164377Y251087D01*
X164400Y251155D01*
X164399Y251207D01*
X164408Y251259D01*
X164398Y251330D01*
X164397Y251401D01*
X164377Y251470D01*
X164372Y251502D01*
X164362Y251523D01*
X164350Y251562D01*
X164347Y251570D01*
X164347Y253890D01*
X165235Y256034D01*
X166876Y257675D01*
X169020Y258563D01*
X171340Y258563D01*
X173484Y257675D01*
X175125Y256034D01*
X176013Y253890D01*
X176013Y251570D01*
X175125Y249426D01*
X173484Y247785D01*
X171340Y246897D01*
X169020Y246897D01*
X168114Y247272D01*
X168044Y247289D01*
X167977Y247314D01*
X167925Y247317D01*
X167875Y247329D01*
X167803Y247322D01*
X167732Y247325D01*
X167682Y247310D01*
X167630Y247305D01*
X167564Y247276D01*
X167495Y247256D01*
X167453Y247227D01*
X167405Y247205D01*
X167352Y247157D01*
X167293Y247116D01*
X167262Y247074D01*
X167224Y247039D01*
X167189Y246976D01*
X167147Y246919D01*
X167131Y246869D01*
X167105Y246824D01*
X167093Y246753D01*
X167070Y246685D01*
X167071Y246633D01*
X167062Y246581D01*
X167072Y246510D01*
X167073Y246439D01*
X167093Y246370D01*
X167098Y246338D01*
X167108Y246317D01*
X167120Y246278D01*
X167123Y246270D01*
X167123Y243950D01*
X166235Y241806D01*
X164594Y240165D01*
X162450Y239277D01*
X160130Y239277D01*
G37*
%LPD*%
%LPC*%
G36*
X217026Y190509D02*
X217026Y190509D01*
X214882Y191397D01*
X213241Y193038D01*
X212353Y195182D01*
X212353Y197502D01*
X213241Y199646D01*
X214882Y201287D01*
X217026Y202175D01*
X219346Y202175D01*
X221490Y201287D01*
X223131Y199646D01*
X224019Y197502D01*
X224019Y195182D01*
X223131Y193038D01*
X221490Y191397D01*
X219346Y190509D01*
X217026Y190509D01*
G37*
%LPD*%
%LPC*%
G36*
X142604Y190255D02*
X142604Y190255D01*
X140460Y191143D01*
X138819Y192784D01*
X137931Y194928D01*
X137931Y197248D01*
X138819Y199392D01*
X140460Y201033D01*
X142604Y201921D01*
X144924Y201921D01*
X147068Y201033D01*
X148709Y199392D01*
X149597Y197248D01*
X149597Y194928D01*
X148709Y192784D01*
X147068Y191143D01*
X144924Y190255D01*
X142604Y190255D01*
G37*
%LPD*%
%LPC*%
G36*
X102980Y485403D02*
X102980Y485403D01*
X100836Y486291D01*
X99195Y487932D01*
X98307Y490076D01*
X98307Y492396D01*
X99195Y494540D01*
X100836Y496181D01*
X102980Y497069D01*
X105300Y497069D01*
X107444Y496181D01*
X109085Y494540D01*
X109973Y492396D01*
X109973Y490076D01*
X109085Y487932D01*
X107444Y486291D01*
X105300Y485403D01*
X102980Y485403D01*
G37*
%LPD*%
%LPC*%
G36*
X314816Y482863D02*
X314816Y482863D01*
X312672Y483751D01*
X311031Y485392D01*
X310143Y487536D01*
X310143Y489856D01*
X311031Y492000D01*
X312672Y493641D01*
X314816Y494529D01*
X317136Y494529D01*
X319280Y493641D01*
X320921Y492000D01*
X321809Y489856D01*
X321809Y487536D01*
X320921Y485392D01*
X319280Y483751D01*
X317136Y482863D01*
X314816Y482863D01*
G37*
%LPD*%
%LPC*%
G36*
X127364Y477275D02*
X127364Y477275D01*
X125220Y478163D01*
X123579Y479804D01*
X122691Y481948D01*
X122691Y484268D01*
X123579Y486412D01*
X125220Y488053D01*
X127364Y488941D01*
X129684Y488941D01*
X131828Y488053D01*
X133469Y486412D01*
X134357Y484268D01*
X134357Y481948D01*
X133469Y479804D01*
X131828Y478163D01*
X129684Y477275D01*
X127364Y477275D01*
G37*
%LPD*%
%LPC*%
G36*
X314816Y465083D02*
X314816Y465083D01*
X312672Y465971D01*
X311031Y467612D01*
X310143Y469756D01*
X310143Y472076D01*
X311031Y474220D01*
X312672Y475861D01*
X314816Y476749D01*
X317136Y476749D01*
X319280Y475861D01*
X320921Y474220D01*
X321809Y472076D01*
X321809Y469756D01*
X320921Y467612D01*
X319280Y465971D01*
X317136Y465083D01*
X314816Y465083D01*
G37*
%LPD*%
%LPC*%
G36*
X313800Y183651D02*
X313800Y183651D01*
X311656Y184539D01*
X310015Y186180D01*
X309127Y188324D01*
X309127Y190644D01*
X310015Y192788D01*
X311656Y194429D01*
X313800Y195317D01*
X316120Y195317D01*
X318264Y194429D01*
X319905Y192788D01*
X320793Y190644D01*
X320793Y188324D01*
X319905Y186180D01*
X318264Y184539D01*
X316120Y183651D01*
X313800Y183651D01*
G37*
%LPD*%
%LPC*%
G36*
X283320Y183397D02*
X283320Y183397D01*
X281176Y184285D01*
X279535Y185926D01*
X278647Y188070D01*
X278647Y190390D01*
X279535Y192534D01*
X281176Y194175D01*
X283320Y195063D01*
X285640Y195063D01*
X287784Y194175D01*
X289425Y192534D01*
X290313Y190390D01*
X290313Y188070D01*
X289425Y185926D01*
X287784Y184285D01*
X285640Y183397D01*
X283320Y183397D01*
G37*
%LPD*%
%LPC*%
G36*
X184260Y407679D02*
X184260Y407679D01*
X182116Y408567D01*
X180475Y410208D01*
X179587Y412352D01*
X179587Y414672D01*
X180475Y416816D01*
X182116Y418457D01*
X184260Y419345D01*
X186580Y419345D01*
X188724Y418457D01*
X190365Y416816D01*
X191253Y414672D01*
X191253Y412352D01*
X190365Y410208D01*
X188724Y408567D01*
X186580Y407679D01*
X184260Y407679D01*
G37*
%LPD*%
%LPC*%
G36*
X151240Y405647D02*
X151240Y405647D01*
X149096Y406535D01*
X147455Y408176D01*
X146567Y410320D01*
X146567Y412640D01*
X147455Y414784D01*
X149096Y416425D01*
X151240Y417313D01*
X153560Y417313D01*
X155704Y416425D01*
X157345Y414784D01*
X158233Y412640D01*
X158233Y410320D01*
X157345Y408176D01*
X155704Y406535D01*
X153560Y405647D01*
X151240Y405647D01*
G37*
%LPD*%
%LPC*%
G36*
X124316Y389899D02*
X124316Y389899D01*
X122172Y390787D01*
X120531Y392428D01*
X119643Y394572D01*
X119643Y396892D01*
X120531Y399036D01*
X122172Y400677D01*
X124316Y401565D01*
X126636Y401565D01*
X128780Y400677D01*
X130421Y399036D01*
X131309Y396892D01*
X131309Y394572D01*
X130421Y392428D01*
X128780Y390787D01*
X126636Y389899D01*
X124316Y389899D01*
G37*
%LPD*%
%LPC*%
G36*
X76056Y181619D02*
X76056Y181619D01*
X73912Y182507D01*
X72271Y184148D01*
X71383Y186292D01*
X71383Y188612D01*
X72271Y190756D01*
X73912Y192397D01*
X76056Y193285D01*
X78376Y193285D01*
X80520Y192397D01*
X82161Y190756D01*
X83049Y188612D01*
X83049Y186292D01*
X82161Y184148D01*
X80520Y182507D01*
X78376Y181619D01*
X76056Y181619D01*
G37*
%LPD*%
%LPC*%
G36*
X87740Y173839D02*
X87740Y173839D01*
X85596Y174727D01*
X83955Y176368D01*
X83067Y178512D01*
X83067Y180832D01*
X83955Y182976D01*
X85596Y184617D01*
X87740Y185505D01*
X90060Y185505D01*
X92204Y184617D01*
X93845Y182976D01*
X94733Y180832D01*
X94733Y178512D01*
X93845Y176368D01*
X92204Y174727D01*
X90060Y173839D01*
X87740Y173839D01*
G37*
%LPD*%
%LPC*%
G36*
X137016Y373135D02*
X137016Y373135D01*
X134872Y374023D01*
X133231Y375664D01*
X132343Y377808D01*
X132343Y380128D01*
X133231Y382272D01*
X134872Y383913D01*
X137016Y384801D01*
X139336Y384801D01*
X141480Y383913D01*
X143121Y382272D01*
X144009Y380128D01*
X144009Y377808D01*
X143121Y375664D01*
X141480Y374023D01*
X139336Y373135D01*
X137016Y373135D01*
G37*
%LPD*%
%LPC*%
G36*
X159316Y356304D02*
X159316Y356304D01*
X157172Y357192D01*
X155531Y358832D01*
X154643Y360976D01*
X154643Y363296D01*
X155531Y365440D01*
X157172Y367081D01*
X159316Y367969D01*
X161636Y367969D01*
X163780Y367081D01*
X165421Y365440D01*
X166309Y363296D01*
X166309Y360976D01*
X165421Y358832D01*
X163780Y357192D01*
X161636Y356304D01*
X159316Y356304D01*
G37*
%LPD*%
%LPC*%
G36*
X111748Y259719D02*
X111748Y259719D01*
X109604Y260607D01*
X107963Y262248D01*
X107075Y264392D01*
X107075Y266712D01*
X107963Y268856D01*
X109604Y270497D01*
X111748Y271385D01*
X114068Y271385D01*
X116212Y270497D01*
X117853Y268856D01*
X118741Y266712D01*
X118741Y264392D01*
X117853Y262248D01*
X116212Y260607D01*
X114068Y259719D01*
X111748Y259719D01*
G37*
%LPD*%
%LPC*%
G36*
X121776Y289315D02*
X121776Y289315D01*
X119632Y290203D01*
X117991Y291844D01*
X117103Y293988D01*
X117103Y296308D01*
X117991Y298452D01*
X119632Y300093D01*
X121776Y300981D01*
X124096Y300981D01*
X126240Y300093D01*
X127881Y298452D01*
X128769Y296308D01*
X128769Y293988D01*
X127881Y291844D01*
X126240Y290203D01*
X124096Y289315D01*
X121776Y289315D01*
G37*
%LPD*%
%LPC*%
G36*
X235060Y273567D02*
X235060Y273567D01*
X232916Y274455D01*
X231275Y276096D01*
X230387Y278240D01*
X230387Y280560D01*
X231275Y282704D01*
X232916Y284345D01*
X235060Y285233D01*
X237380Y285233D01*
X239524Y284345D01*
X241165Y282704D01*
X242053Y280560D01*
X242053Y278240D01*
X241165Y276096D01*
X239524Y274455D01*
X237380Y273567D01*
X235060Y273567D01*
G37*
%LPD*%
%LPC*%
G36*
X258936Y238769D02*
X258936Y238769D01*
X256792Y239657D01*
X255151Y241298D01*
X254263Y243442D01*
X254263Y245762D01*
X255151Y247906D01*
X256792Y249547D01*
X258936Y250435D01*
X261256Y250435D01*
X263400Y249547D01*
X265041Y247906D01*
X265929Y245762D01*
X265929Y243442D01*
X265041Y241298D01*
X263400Y239657D01*
X261256Y238769D01*
X258936Y238769D01*
G37*
%LPD*%
%LPC*%
G36*
X171560Y231911D02*
X171560Y231911D01*
X169416Y232799D01*
X167775Y234440D01*
X166887Y236584D01*
X166887Y238904D01*
X167775Y241048D01*
X169416Y242689D01*
X171560Y243577D01*
X173880Y243577D01*
X176024Y242689D01*
X177665Y241048D01*
X178553Y238904D01*
X178553Y236584D01*
X177665Y234440D01*
X176024Y232799D01*
X173880Y231911D01*
X171560Y231911D01*
G37*
%LPD*%
%LPC*%
G36*
X95360Y222767D02*
X95360Y222767D01*
X93216Y223655D01*
X91575Y225296D01*
X90687Y227440D01*
X90687Y229760D01*
X91575Y231904D01*
X93216Y233545D01*
X95360Y234433D01*
X97680Y234433D01*
X99824Y233545D01*
X101465Y231904D01*
X102353Y229760D01*
X102353Y227440D01*
X101465Y225296D01*
X99824Y223655D01*
X97680Y222767D01*
X95360Y222767D01*
G37*
%LPD*%
%LPC*%
G36*
X103986Y202955D02*
X103986Y202955D01*
X101842Y203843D01*
X100201Y205484D01*
X99313Y207628D01*
X99313Y209948D01*
X100201Y212092D01*
X101842Y213733D01*
X103986Y214621D01*
X106306Y214621D01*
X108450Y213733D01*
X110091Y212092D01*
X110979Y209948D01*
X110979Y207628D01*
X110091Y205484D01*
X108450Y203843D01*
X106306Y202955D01*
X103986Y202955D01*
G37*
%LPD*%
%LPC*%
G36*
X154288Y198383D02*
X154288Y198383D01*
X152144Y199271D01*
X150503Y200912D01*
X149615Y203056D01*
X149615Y205376D01*
X150503Y207520D01*
X152144Y209161D01*
X154288Y210049D01*
X156608Y210049D01*
X158752Y209161D01*
X160393Y207520D01*
X161281Y205376D01*
X161281Y203056D01*
X160393Y200912D01*
X158752Y199271D01*
X156608Y198383D01*
X154288Y198383D01*
G37*
%LPD*%
%LPC*%
G36*
X355423Y351683D02*
X355423Y351683D01*
X355423Y363292D01*
X356993Y363043D01*
X358970Y362401D01*
X360823Y361457D01*
X362505Y360235D01*
X363975Y358765D01*
X365197Y357083D01*
X366141Y355230D01*
X366783Y353253D01*
X367032Y351683D01*
X355423Y351683D01*
G37*
%LPD*%
%LPC*%
G36*
X355423Y348637D02*
X355423Y348637D01*
X367032Y348637D01*
X366783Y347067D01*
X366141Y345090D01*
X365197Y343237D01*
X363975Y341555D01*
X362505Y340085D01*
X360823Y338863D01*
X358970Y337919D01*
X356993Y337277D01*
X355423Y337028D01*
X355423Y348637D01*
G37*
%LPD*%
%LPC*%
G36*
X340768Y351683D02*
X340768Y351683D01*
X341017Y353253D01*
X341659Y355230D01*
X342603Y357083D01*
X343825Y358765D01*
X345295Y360235D01*
X346977Y361457D01*
X348830Y362401D01*
X350807Y363043D01*
X352377Y363292D01*
X352377Y351683D01*
X340768Y351683D01*
G37*
%LPD*%
%LPC*%
G36*
X350807Y337277D02*
X350807Y337277D01*
X348830Y337919D01*
X346977Y338863D01*
X345295Y340085D01*
X343825Y341555D01*
X342603Y343237D01*
X341659Y345090D01*
X341017Y347067D01*
X340768Y348637D01*
X352377Y348637D01*
X352377Y337028D01*
X350807Y337277D01*
G37*
%LPD*%
%LPC*%
G36*
X220226Y352955D02*
X220226Y352955D01*
X220361Y353811D01*
X220856Y355332D01*
X221582Y356757D01*
X222522Y358051D01*
X223653Y359182D01*
X224947Y360122D01*
X226372Y360848D01*
X227893Y361343D01*
X228749Y361478D01*
X228749Y352955D01*
X220226Y352955D01*
G37*
%LPD*%
%LPC*%
G36*
X227893Y341521D02*
X227893Y341521D01*
X226372Y342016D01*
X224947Y342742D01*
X223653Y343682D01*
X222522Y344813D01*
X221582Y346107D01*
X220856Y347532D01*
X220361Y349053D01*
X220226Y349909D01*
X228749Y349909D01*
X228749Y341386D01*
X227893Y341521D01*
G37*
%LPD*%
%LPC*%
G36*
X37083Y270763D02*
X37083Y270763D01*
X37083Y279205D01*
X37921Y279073D01*
X39430Y278582D01*
X40843Y277862D01*
X42127Y276929D01*
X43249Y275807D01*
X44182Y274523D01*
X44902Y273110D01*
X45393Y271601D01*
X45525Y270763D01*
X37083Y270763D01*
G37*
%LPD*%
%LPC*%
G36*
X37083Y515873D02*
X37083Y515873D01*
X37083Y524315D01*
X37921Y524183D01*
X39430Y523692D01*
X40843Y522972D01*
X42127Y522039D01*
X43249Y520917D01*
X44182Y519633D01*
X44902Y518220D01*
X45393Y516711D01*
X45525Y515873D01*
X37083Y515873D01*
G37*
%LPD*%
%LPC*%
G36*
X37083Y465073D02*
X37083Y465073D01*
X37083Y473515D01*
X37921Y473383D01*
X39430Y472892D01*
X40843Y472172D01*
X42127Y471239D01*
X43249Y470117D01*
X44182Y468833D01*
X44902Y467420D01*
X45393Y465911D01*
X45525Y465073D01*
X37083Y465073D01*
G37*
%LPD*%
%LPC*%
G36*
X37083Y379983D02*
X37083Y379983D01*
X37083Y388425D01*
X37921Y388293D01*
X39430Y387802D01*
X40843Y387082D01*
X42127Y386149D01*
X43249Y385027D01*
X44182Y383743D01*
X44902Y382330D01*
X45393Y380821D01*
X45525Y379983D01*
X37083Y379983D01*
G37*
%LPD*%
%LPC*%
G36*
X273303Y59943D02*
X273303Y59943D01*
X273303Y68385D01*
X274141Y68253D01*
X275650Y67762D01*
X277063Y67042D01*
X278347Y66109D01*
X279469Y64987D01*
X280402Y63703D01*
X281122Y62290D01*
X281613Y60781D01*
X281745Y59943D01*
X273303Y59943D01*
G37*
%LPD*%
%LPC*%
G36*
X364743Y59943D02*
X364743Y59943D01*
X364743Y68385D01*
X365581Y68253D01*
X367090Y67762D01*
X368503Y67042D01*
X369787Y66109D01*
X370909Y64987D01*
X371842Y63703D01*
X372562Y62290D01*
X373053Y60781D01*
X373185Y59943D01*
X364743Y59943D01*
G37*
%LPD*%
%LPC*%
G36*
X25595Y270763D02*
X25595Y270763D01*
X25727Y271601D01*
X26218Y273110D01*
X26938Y274523D01*
X27871Y275807D01*
X28993Y276929D01*
X30277Y277862D01*
X31690Y278582D01*
X33199Y279073D01*
X34037Y279205D01*
X34037Y270763D01*
X25595Y270763D01*
G37*
%LPD*%
%LPC*%
G36*
X25595Y515873D02*
X25595Y515873D01*
X25727Y516711D01*
X26218Y518220D01*
X26938Y519633D01*
X27871Y520917D01*
X28993Y522039D01*
X30277Y522972D01*
X31690Y523692D01*
X33199Y524183D01*
X34037Y524315D01*
X34037Y515873D01*
X25595Y515873D01*
G37*
%LPD*%
%LPC*%
G36*
X37083Y462027D02*
X37083Y462027D01*
X45525Y462027D01*
X45393Y461189D01*
X44902Y459680D01*
X44182Y458267D01*
X43249Y456983D01*
X42127Y455861D01*
X40843Y454928D01*
X39430Y454208D01*
X37921Y453717D01*
X37083Y453585D01*
X37083Y462027D01*
G37*
%LPD*%
%LPC*%
G36*
X25595Y379983D02*
X25595Y379983D01*
X25727Y380821D01*
X26218Y382330D01*
X26938Y383743D01*
X27871Y385027D01*
X28993Y386149D01*
X30277Y387082D01*
X31690Y387802D01*
X33199Y388293D01*
X34037Y388425D01*
X34037Y379983D01*
X25595Y379983D01*
G37*
%LPD*%
%LPC*%
G36*
X261815Y59943D02*
X261815Y59943D01*
X261947Y60781D01*
X262438Y62290D01*
X263158Y63703D01*
X264091Y64987D01*
X265213Y66109D01*
X266497Y67042D01*
X267910Y67762D01*
X269419Y68253D01*
X270257Y68385D01*
X270257Y59943D01*
X261815Y59943D01*
G37*
%LPD*%
%LPC*%
G36*
X353255Y59943D02*
X353255Y59943D01*
X353387Y60781D01*
X353878Y62290D01*
X354598Y63703D01*
X355531Y64987D01*
X356653Y66109D01*
X357937Y67042D01*
X359350Y67762D01*
X360859Y68253D01*
X361697Y68385D01*
X361697Y59943D01*
X353255Y59943D01*
G37*
%LPD*%
%LPC*%
G36*
X364743Y56897D02*
X364743Y56897D01*
X373185Y56897D01*
X373053Y56059D01*
X372562Y54550D01*
X371842Y53137D01*
X370909Y51853D01*
X369787Y50731D01*
X368503Y49798D01*
X367090Y49078D01*
X365581Y48587D01*
X364743Y48455D01*
X364743Y56897D01*
G37*
%LPD*%
%LPC*%
G36*
X273303Y56897D02*
X273303Y56897D01*
X281745Y56897D01*
X281613Y56059D01*
X281122Y54550D01*
X280402Y53137D01*
X279469Y51853D01*
X278347Y50731D01*
X277063Y49798D01*
X275650Y49078D01*
X274141Y48587D01*
X273303Y48455D01*
X273303Y56897D01*
G37*
%LPD*%
%LPC*%
G36*
X360859Y48587D02*
X360859Y48587D01*
X359350Y49078D01*
X357937Y49798D01*
X356653Y50731D01*
X355531Y51853D01*
X354598Y53137D01*
X353878Y54550D01*
X353387Y56059D01*
X353255Y56897D01*
X361697Y56897D01*
X361697Y48455D01*
X360859Y48587D01*
G37*
%LPD*%
%LPC*%
G36*
X269419Y48587D02*
X269419Y48587D01*
X267910Y49078D01*
X266497Y49798D01*
X265213Y50731D01*
X264091Y51853D01*
X263158Y53137D01*
X262438Y54550D01*
X261947Y56059D01*
X261815Y56897D01*
X270257Y56897D01*
X270257Y48455D01*
X269419Y48587D01*
G37*
%LPD*%
%LPC*%
G36*
X353899Y350159D02*
X353899Y350159D01*
X353899Y350161D01*
X353901Y350161D01*
X353901Y350159D01*
X353899Y350159D01*
G37*
%LPD*%
%LPC*%
G36*
X363219Y58419D02*
X363219Y58419D01*
X363219Y58421D01*
X363221Y58421D01*
X363221Y58419D01*
X363219Y58419D01*
G37*
%LPD*%
%LPC*%
G36*
X271779Y58419D02*
X271779Y58419D01*
X271779Y58421D01*
X271781Y58421D01*
X271781Y58419D01*
X271779Y58419D01*
G37*
%LPD*%
D10*
X401460Y456110D03*
X401460Y529110D03*
X348460Y456110D03*
X348460Y529110D03*
D11*
X255672Y351432D03*
X230272Y351432D03*
X255672Y376832D03*
X230272Y376832D03*
X255672Y402232D03*
X230272Y402232D03*
D12*
X35560Y378460D03*
X35560Y353060D03*
X35560Y327660D03*
X35560Y269240D03*
X35560Y243840D03*
X35560Y218440D03*
X35560Y514350D03*
X35560Y488950D03*
X35560Y463550D03*
X35560Y438150D03*
X271780Y134620D03*
X246380Y134620D03*
X271780Y109220D03*
X246380Y109220D03*
X271780Y83820D03*
X246380Y83820D03*
X271780Y58420D03*
X246380Y58420D03*
X271780Y33020D03*
X246380Y33020D03*
X35560Y160020D03*
X35560Y134620D03*
X35560Y109220D03*
X35560Y83820D03*
X363220Y134620D03*
X337820Y134620D03*
X363220Y109220D03*
X337820Y109220D03*
X363220Y83820D03*
X337820Y83820D03*
X363220Y58420D03*
X337820Y58420D03*
X363220Y33020D03*
X337820Y33020D03*
D13*
X353900Y210160D03*
X353900Y245160D03*
X353900Y280160D03*
X353900Y315160D03*
X353900Y350160D03*
D14*
X324104Y508508D03*
X166116Y299720D03*
X186944Y289052D03*
X280416Y337566D03*
X252984Y254000D03*
X22860Y302260D03*
X20320Y190500D03*
X22860Y411480D03*
X55880Y25400D03*
X121920Y17400D03*
X207740Y16400D03*
X303784Y16924D03*
X294640Y58420D03*
X408940Y66040D03*
X381000Y104140D03*
X408940Y205740D03*
X411480Y368300D03*
X96774Y253492D03*
X208280Y558800D03*
X55880Y558800D03*
X175260Y449580D03*
X370840Y558800D03*
X237744Y508508D03*
X164084Y195580D03*
X184404Y230124D03*
X114300Y137160D03*
X99060Y55880D03*
X17780Y63500D03*
X68580Y340360D03*
X70612Y232664D03*
X200660Y55880D03*
X223520Y86360D03*
X112776Y312420D03*
X115316Y376936D03*
X322072Y376936D03*
X332740Y416560D03*
X97028Y531368D03*
X67564Y448056D03*
X86360Y398780D03*
X217932Y233680D03*
X154940Y76200D03*
X414020Y124460D03*
X151384Y117856D03*
X82296Y123444D03*
X203200Y137160D03*
X106172Y197612D03*
X163068Y376936D03*
X205740Y381000D03*
X206248Y321056D03*
X162052Y325628D03*
X408940Y281940D03*
X284480Y173990D03*
X391160Y157480D03*
X386080Y243840D03*
X383540Y317500D03*
X259334Y333248D03*
X219710Y285750D03*
X121412Y274828D03*
X91440Y294640D03*
X300736Y95504D03*
X408940Y431800D03*
X244348Y488696D03*
X216916Y506984D03*
X233680Y449580D03*
X218440Y429260D03*
X185420Y323596D03*
X317500Y302260D03*
X287528Y303276D03*
X223520Y327660D03*
X189484Y113284D03*
X153924Y558800D03*
X175260Y487172D03*
X200660Y476504D03*
X147828Y484632D03*
X86360Y482600D03*
X139700Y449580D03*
X211328Y528828D03*
X213868Y489204D03*
X286512Y528828D03*
X243332Y527812D03*
X282448Y510032D03*
X256540Y229616D03*
X148844Y175260D03*
X195072Y195580D03*
X194564Y175260D03*
X189484Y255016D03*
X320040Y558800D03*
X314960Y528320D03*
X291592Y438912D03*
X322072Y397256D03*
X161544Y349504D03*
X323596Y252984D03*
X325120Y322580D03*
X358140Y381000D03*
X327660Y452120D03*
X354838Y176530D03*
X298704Y251460D03*
X165608Y390398D03*
D15*
X265938Y390398D02*
X274320Y398780D01*
X265938Y390398D02*
X165608Y390398D01*
D14*
X274320Y398780D03*
X112268Y468376D03*
X112268Y555752D03*
D15*
X112268Y468376D02*
X281940Y468376D01*
D14*
X281940Y468376D03*
X299720Y264160D03*
X179246Y558584D03*
D15*
X363220Y134620D02*
X350774Y122174D01*
X284226Y122174D01*
X271780Y134620D01*
D14*
X309880Y259080D03*
X152400Y411480D03*
X170180Y252730D03*
X138176Y378968D03*
X161290Y245110D03*
X155448Y204216D03*
X125476Y395732D03*
X206746Y296672D03*
X224536Y106172D03*
D16*
X146812Y106172D01*
X140208Y112776D01*
X122428Y112776D01*
D14*
X122428Y112776D03*
X185420Y413512D03*
X198120Y230632D03*
X323596Y209804D03*
X317500Y220980D03*
D16*
X312420Y215900D02*
X154940Y215900D01*
X149860Y220980D01*
X312420Y215900D02*
X317500Y220980D01*
D14*
X149860Y220980D03*
D16*
X160020Y127000D02*
X233680Y127000D01*
X160020Y127000D02*
X154940Y132080D01*
D14*
X154940Y132080D03*
D16*
X241300Y134620D02*
X246380Y134620D01*
X241300Y134620D02*
X233680Y127000D01*
X242824Y99060D02*
X159004Y99060D01*
D14*
X159004Y99060D03*
D16*
X246380Y102616D02*
X246380Y109220D01*
X246380Y102616D02*
X242824Y99060D01*
D14*
X181102Y60706D03*
D16*
X191516Y71120D01*
X259080Y71120D01*
X271780Y83820D01*
D14*
X179070Y117602D03*
D16*
X182626Y121158D01*
X259842Y121158D01*
X271780Y109220D01*
D14*
X160020Y226060D03*
D16*
X164592Y221488D01*
X294132Y221488D01*
X296164Y223520D01*
D14*
X296164Y223520D03*
X314960Y189484D03*
X315214Y202692D03*
X236220Y279400D03*
X218186Y196342D03*
X213360Y414020D03*
X88900Y179672D03*
X104140Y491236D03*
X315976Y470916D03*
X315976Y488696D03*
X128524Y483108D03*
X140850Y548668D03*
X150876Y533400D03*
D16*
X153416Y535940D02*
X294640Y535940D01*
X153416Y535940D02*
X150876Y533400D01*
X294640Y535940D02*
X306324Y547624D01*
D14*
X306324Y547624D03*
X304800Y388620D03*
D15*
X286992Y548668D02*
X140850Y548668D01*
D14*
X292608Y388112D03*
X286992Y548668D03*
X160476Y362136D03*
X122936Y295148D03*
X172720Y237744D03*
X186680Y135118D03*
X96520Y228600D03*
X118872Y87884D03*
D16*
X197104Y87884D01*
D14*
X197104Y87884D03*
X260096Y244602D03*
X259588Y142240D03*
X284480Y189230D03*
X270408Y273812D03*
X184912Y303784D03*
D16*
X214884Y303784D02*
X215392Y304292D01*
X214884Y303784D02*
X184912Y303784D01*
D14*
X268224Y304800D03*
D16*
X267716Y304292D01*
X215392Y304292D01*
D14*
X215392Y304292D03*
X77216Y187452D03*
X260604Y273812D03*
D16*
X136704Y312980D02*
X130556Y306832D01*
D14*
X130556Y306832D03*
X143764Y196088D03*
D16*
X351824Y312980D02*
X353900Y315160D01*
X351824Y312980D02*
X136704Y312980D01*
D14*
X218694Y176784D03*
X241300Y263144D03*
D16*
X271780Y263144D02*
X288798Y280162D01*
X271780Y263144D02*
X241300Y263144D01*
X353898Y280162D02*
X353900Y280160D01*
X353898Y280162D02*
X288798Y280162D01*
D14*
X269240Y173990D03*
X269380Y230886D03*
D16*
X318656Y244094D02*
X352834Y244094D01*
X318656Y244094D02*
X305448Y230886D01*
X269380Y230886D01*
X352834Y244094D02*
X353900Y245160D01*
D17*
X73416Y92720D02*
X64516Y83820D01*
X35560Y83820D01*
X35560Y134620D02*
X55880Y134620D01*
X61976Y140716D02*
X61976Y160528D01*
X353900Y204167D02*
X353900Y210160D01*
X353900Y204167D02*
X343867Y204167D01*
X342900Y203200D01*
X342900Y193040D01*
X315849Y166116D01*
X67564Y166116D01*
X61976Y140716D02*
X55880Y134620D01*
X318770Y154940D02*
X353900Y190070D01*
X73416Y146314D02*
X73416Y92720D01*
X82042Y154940D02*
X318770Y154940D01*
X353900Y190070D02*
X353900Y210160D01*
X82042Y154940D02*
X73416Y146314D01*
X61976Y160528D02*
X67564Y166116D01*
D14*
X112908Y265552D03*
X105146Y208788D03*
X215900Y137160D03*
M02*
