G04 EAGLE Gerber RS-274X export*
G75*
%MOMM*%
%FSLAX34Y34*%
%LPD*%
%INSilkscreen Bottom*%
%IPPOS*%
%AMOC8*
5,1,8,0,0,1.08239X$1,22.5*%
G01*
%ADD10C,0.127000*%
%ADD11C,0.010000*%
%ADD12C,0.075000*%
%ADD13C,0.152400*%


D10*
X105327Y537463D02*
X112191Y537463D01*
X112191Y540895D01*
X111047Y542039D01*
X108759Y542039D01*
X107615Y540895D01*
X107615Y537463D01*
X107615Y539751D02*
X105327Y542039D01*
X109903Y544947D02*
X112191Y547235D01*
X105327Y547235D01*
X105327Y544947D02*
X105327Y549523D01*
D11*
X119650Y424360D02*
X119750Y424360D01*
D10*
X114750Y410160D02*
X98750Y410160D01*
X98750Y438560D02*
X114750Y438560D01*
D12*
X100250Y437060D02*
X100250Y411560D01*
X113350Y411560D01*
X113350Y437060D01*
X100250Y437060D01*
D10*
X113855Y399739D02*
X116143Y399739D01*
X114999Y399739D02*
X114999Y406603D01*
X116143Y406603D02*
X113855Y406603D01*
X107721Y406603D02*
X106577Y405459D01*
X107721Y406603D02*
X110009Y406603D01*
X111153Y405459D01*
X111153Y400883D01*
X110009Y399739D01*
X107721Y399739D01*
X106577Y400883D01*
X103669Y399739D02*
X99093Y399739D01*
X103669Y399739D02*
X99093Y404315D01*
X99093Y405459D01*
X100237Y406603D01*
X102525Y406603D01*
X103669Y405459D01*
D11*
X119650Y510720D02*
X119750Y510720D01*
D10*
X114750Y496520D02*
X98750Y496520D01*
X98750Y524920D02*
X114750Y524920D01*
D12*
X100250Y523420D02*
X100250Y497920D01*
X113350Y497920D01*
X113350Y523420D01*
X100250Y523420D01*
D10*
X113107Y486631D02*
X115395Y486631D01*
X114251Y486631D02*
X114251Y493495D01*
X115395Y493495D02*
X113107Y493495D01*
X106973Y493495D02*
X105829Y492351D01*
X106973Y493495D02*
X109261Y493495D01*
X110405Y492351D01*
X110405Y487775D01*
X109261Y486631D01*
X106973Y486631D01*
X105829Y487775D01*
X99489Y486631D02*
X99489Y493495D01*
X102921Y490063D01*
X98345Y490063D01*
D11*
X112566Y243972D02*
X112666Y243972D01*
D10*
X117566Y258172D02*
X133566Y258172D01*
X133566Y229772D02*
X117566Y229772D01*
D12*
X132066Y231272D02*
X132066Y256772D01*
X118966Y256772D01*
X118966Y231272D01*
X132066Y231272D01*
D10*
X134069Y262467D02*
X136357Y262467D01*
X135213Y262467D02*
X135213Y269331D01*
X136357Y269331D02*
X134069Y269331D01*
X127935Y269331D02*
X126791Y268187D01*
X127935Y269331D02*
X130223Y269331D01*
X131367Y268187D01*
X131367Y263611D01*
X130223Y262467D01*
X127935Y262467D01*
X126791Y263611D01*
X123883Y269331D02*
X119307Y269331D01*
X123883Y269331D02*
X123883Y265899D01*
X121595Y267043D01*
X120451Y267043D01*
X119307Y265899D01*
X119307Y263611D01*
X120451Y262467D01*
X122739Y262467D01*
X123883Y263611D01*
D11*
X112666Y352374D02*
X112566Y352374D01*
D10*
X117566Y366574D02*
X133566Y366574D01*
X133566Y338174D02*
X117566Y338174D01*
D12*
X132066Y339674D02*
X132066Y365174D01*
X118966Y365174D01*
X118966Y339674D01*
X132066Y339674D01*
D10*
X131577Y325115D02*
X133865Y325115D01*
X132721Y325115D02*
X132721Y331979D01*
X133865Y331979D02*
X131577Y331979D01*
X125443Y331979D02*
X124299Y330835D01*
X125443Y331979D02*
X127731Y331979D01*
X128875Y330835D01*
X128875Y326259D01*
X127731Y325115D01*
X125443Y325115D01*
X124299Y326259D01*
X119103Y330835D02*
X116815Y331979D01*
X119103Y330835D02*
X121391Y328547D01*
X121391Y326259D01*
X120247Y325115D01*
X117959Y325115D01*
X116815Y326259D01*
X116815Y327403D01*
X117959Y328547D01*
X121391Y328547D01*
X132371Y553433D02*
X139235Y553433D01*
X139235Y556865D01*
X138091Y558009D01*
X135803Y558009D01*
X134659Y556865D01*
X134659Y553433D01*
X134659Y555721D02*
X132371Y558009D01*
X132371Y560917D02*
X132371Y565493D01*
X132371Y560917D02*
X136947Y565493D01*
X138091Y565493D01*
X139235Y564349D01*
X139235Y562061D01*
X138091Y560917D01*
X116123Y449117D02*
X109259Y449117D01*
X116123Y449117D02*
X116123Y452549D01*
X114979Y453693D01*
X112691Y453693D01*
X111547Y452549D01*
X111547Y449117D01*
X111547Y451405D02*
X109259Y453693D01*
X116123Y456601D02*
X116123Y461177D01*
X116123Y456601D02*
X112691Y456601D01*
X113835Y458889D01*
X113835Y460033D01*
X112691Y461177D01*
X110403Y461177D01*
X109259Y460033D01*
X109259Y457745D01*
X110403Y456601D01*
X137357Y455819D02*
X144221Y455819D01*
X144221Y459251D01*
X143077Y460395D01*
X140789Y460395D01*
X139645Y459251D01*
X139645Y455819D01*
X139645Y458107D02*
X137357Y460395D01*
X143077Y465591D02*
X144221Y467879D01*
X143077Y465591D02*
X140789Y463303D01*
X138501Y463303D01*
X137357Y464447D01*
X137357Y466735D01*
X138501Y467879D01*
X139645Y467879D01*
X140789Y466735D01*
X140789Y463303D01*
X180803Y145865D02*
X187667Y145865D01*
X187667Y149297D01*
X186523Y150441D01*
X184235Y150441D01*
X183091Y149297D01*
X183091Y145865D01*
X183091Y148153D02*
X180803Y150441D01*
X180803Y156781D02*
X187667Y156781D01*
X184235Y153349D01*
X184235Y157925D01*
X180903Y91463D02*
X187767Y91463D01*
X187767Y94895D01*
X186623Y96039D01*
X184335Y96039D01*
X183191Y94895D01*
X183191Y91463D01*
X183191Y93751D02*
X180903Y96039D01*
X187767Y98947D02*
X187767Y103523D01*
X186623Y103523D01*
X182047Y98947D01*
X180903Y98947D01*
D13*
X82508Y95962D02*
X82508Y87834D01*
X88096Y87834D01*
X110956Y87834D02*
X110956Y95962D01*
X110956Y87834D02*
X105368Y87834D01*
D10*
X77907Y88731D02*
X71043Y88731D01*
X71043Y92163D01*
X72187Y93307D01*
X76763Y93307D01*
X77907Y92163D01*
X77907Y88731D01*
X77907Y99647D02*
X71043Y99647D01*
X74475Y96215D02*
X77907Y99647D01*
X74475Y100791D02*
X74475Y96215D01*
D13*
X80476Y144552D02*
X80476Y152680D01*
X80476Y144552D02*
X86064Y144552D01*
X108924Y144552D02*
X108924Y152680D01*
X108924Y144552D02*
X103336Y144552D01*
D10*
X75243Y146495D02*
X68379Y146495D01*
X68379Y149927D01*
X69523Y151071D01*
X74099Y151071D01*
X75243Y149927D01*
X75243Y146495D01*
X72955Y153979D02*
X75243Y156267D01*
X68379Y156267D01*
X68379Y153979D02*
X68379Y158555D01*
X68199Y244073D02*
X75063Y244073D01*
X75063Y247505D01*
X73919Y248649D01*
X71631Y248649D01*
X70487Y247505D01*
X70487Y244073D01*
X70487Y246361D02*
X68199Y248649D01*
X73919Y251557D02*
X75063Y252701D01*
X75063Y254989D01*
X73919Y256133D01*
X72775Y256133D01*
X71631Y254989D01*
X70487Y256133D01*
X69343Y256133D01*
X68199Y254989D01*
X68199Y252701D01*
X69343Y251557D01*
X70487Y251557D01*
X71631Y252701D01*
X72775Y251557D01*
X73919Y251557D01*
X71631Y252701D02*
X71631Y254989D01*
X74639Y352277D02*
X67775Y352277D01*
X74639Y352277D02*
X74639Y355709D01*
X73495Y356853D01*
X71207Y356853D01*
X70063Y355709D01*
X70063Y352277D01*
X70063Y354565D02*
X67775Y356853D01*
X68919Y359761D02*
X67775Y360905D01*
X67775Y363193D01*
X68919Y364337D01*
X73495Y364337D01*
X74639Y363193D01*
X74639Y360905D01*
X73495Y359761D01*
X72351Y359761D01*
X71207Y360905D01*
X71207Y364337D01*
X136807Y309875D02*
X137951Y311019D01*
X140239Y311019D01*
X141383Y309875D01*
X141383Y305299D01*
X140239Y304155D01*
X137951Y304155D01*
X136807Y305299D01*
X133899Y308731D02*
X131611Y311019D01*
X131611Y304155D01*
X133899Y304155D02*
X129323Y304155D01*
X122983Y304155D02*
X122983Y311019D01*
X126415Y307587D01*
X121839Y307587D01*
X78365Y454816D02*
X77221Y455960D01*
X78365Y454816D02*
X78365Y452529D01*
X77221Y451385D01*
X72645Y451385D01*
X71501Y452529D01*
X71501Y454816D01*
X72645Y455960D01*
X76077Y458869D02*
X78365Y461157D01*
X71501Y461157D01*
X71501Y458869D02*
X71501Y463445D01*
X78365Y466353D02*
X78365Y470929D01*
X78365Y466353D02*
X74933Y466353D01*
X76077Y468641D01*
X76077Y469785D01*
X74933Y470929D01*
X72645Y470929D01*
X71501Y469785D01*
X71501Y467497D01*
X72645Y466353D01*
X74007Y543175D02*
X72863Y544319D01*
X74007Y543175D02*
X74007Y540887D01*
X72863Y539743D01*
X68287Y539743D01*
X67143Y540887D01*
X67143Y543175D01*
X68287Y544319D01*
X71719Y547227D02*
X74007Y549515D01*
X67143Y549515D01*
X67143Y547227D02*
X67143Y551803D01*
X72863Y556999D02*
X74007Y559287D01*
X72863Y556999D02*
X70575Y554711D01*
X68287Y554711D01*
X67143Y555855D01*
X67143Y558143D01*
X68287Y559287D01*
X69431Y559287D01*
X70575Y558143D01*
X70575Y554711D01*
X136903Y221113D02*
X135759Y219969D01*
X136903Y221113D02*
X139191Y221113D01*
X140335Y219969D01*
X140335Y215393D01*
X139191Y214249D01*
X136903Y214249D01*
X135759Y215393D01*
X132851Y218825D02*
X130563Y221113D01*
X130563Y214249D01*
X132851Y214249D02*
X128275Y214249D01*
X125367Y221113D02*
X120791Y221113D01*
X120791Y219969D01*
X125367Y215393D01*
X125367Y214249D01*
X103668Y272826D02*
X103668Y279690D01*
X105956Y279690D02*
X101380Y279690D01*
X98472Y279690D02*
X98472Y272826D01*
X98472Y279690D02*
X95040Y279690D01*
X93896Y278546D01*
X93896Y276258D01*
X95040Y275114D01*
X98472Y275114D01*
X90988Y279690D02*
X86412Y279690D01*
X90988Y279690D02*
X90988Y276258D01*
X88700Y277402D01*
X87556Y277402D01*
X86412Y276258D01*
X86412Y273970D01*
X87556Y272826D01*
X89844Y272826D01*
X90988Y273970D01*
X100112Y223810D02*
X100112Y216946D01*
X102400Y223810D02*
X97824Y223810D01*
X94916Y223810D02*
X94916Y216946D01*
X94916Y223810D02*
X91484Y223810D01*
X90340Y222666D01*
X90340Y220378D01*
X91484Y219234D01*
X94916Y219234D01*
X85144Y222666D02*
X82856Y223810D01*
X85144Y222666D02*
X87432Y220378D01*
X87432Y218090D01*
X86288Y216946D01*
X84000Y216946D01*
X82856Y218090D01*
X82856Y219234D01*
X84000Y220378D01*
X87432Y220378D01*
X235748Y152690D02*
X235748Y145826D01*
X238036Y152690D02*
X233460Y152690D01*
X230552Y152690D02*
X230552Y145826D01*
X230552Y152690D02*
X227120Y152690D01*
X225976Y151546D01*
X225976Y149258D01*
X227120Y148114D01*
X230552Y148114D01*
X223068Y146970D02*
X221924Y145826D01*
X219636Y145826D01*
X218492Y146970D01*
X218492Y151546D01*
X219636Y152690D01*
X221924Y152690D01*
X223068Y151546D01*
X223068Y150402D01*
X221924Y149258D01*
X218492Y149258D01*
D13*
X129226Y149703D02*
X129226Y160661D01*
X138054Y148203D02*
X141346Y148203D01*
X150174Y149703D02*
X150174Y160661D01*
X145929Y160661D01*
X133471Y160661D02*
X129226Y160661D01*
D10*
X125563Y153911D02*
X118699Y153911D01*
X125563Y151623D02*
X125563Y156199D01*
X118699Y159107D02*
X118699Y163683D01*
X118699Y159107D02*
X123275Y163683D01*
X124419Y163683D01*
X125563Y162539D01*
X125563Y160251D01*
X124419Y159107D01*
D13*
X129226Y105289D02*
X129226Y94331D01*
X138054Y92831D02*
X141346Y92831D01*
X150174Y94331D02*
X150174Y105289D01*
X145929Y105289D01*
X133471Y105289D02*
X129226Y105289D01*
D10*
X125055Y103111D02*
X118191Y103111D01*
X125055Y100823D02*
X125055Y105399D01*
X122767Y108307D02*
X125055Y110595D01*
X118191Y110595D01*
X118191Y108307D02*
X118191Y112883D01*
M02*
