G04 EAGLE Gerber RS-274X export*
G75*
%MOMM*%
%FSLAX34Y34*%
%LPD*%
%INSoldermask Top*%
%IPPOS*%
%AMOC8*
5,1,8,0,0,1.08239X$1,22.5*%
G01*
%ADD10C,2.353200*%
%ADD11R,0.603200X1.703200*%
%ADD12C,1.203200*%
%ADD13C,2.453200*%
%ADD14R,2.203200X0.703200*%
%ADD15P,1.869504X8X112.500000*%
%ADD16R,0.903200X1.103200*%
%ADD17R,0.943200X1.128200*%
%ADD18R,1.128200X0.943200*%
%ADD19R,1.703200X0.703200*%
%ADD20R,0.703200X1.703200*%
%ADD21R,2.153200X1.703200*%
%ADD22R,1.103200X0.903200*%
%ADD23R,1.203200X1.303200*%
%ADD24R,1.303200X1.103200*%
%ADD25R,1.253200X1.283200*%
%ADD26R,0.803200X1.611200*%
%ADD27C,1.711200*%
%ADD28R,2.203200X0.803200*%
%ADD29P,1.852186X8X292.500000*%
%ADD30C,1.303200*%
%ADD31C,1.473200*%
%ADD32R,1.003200X1.003200*%
%ADD33R,0.903200X0.803200*%
%ADD34C,2.336800*%
%ADD35C,0.959600*%


D10*
X27940Y25400D03*
X27940Y551180D03*
X401320Y25400D03*
X378460Y403860D03*
D11*
X120310Y432380D03*
X126810Y432380D03*
X133310Y432380D03*
X139810Y432380D03*
X146310Y432380D03*
X152810Y432380D03*
X159310Y432380D03*
X165810Y432380D03*
X172310Y432380D03*
X178810Y432380D03*
X185310Y432380D03*
X191810Y432380D03*
X198310Y432380D03*
X204810Y432380D03*
X204810Y504880D03*
X198310Y504880D03*
X191810Y504880D03*
X185310Y504880D03*
X178810Y504880D03*
X172310Y504880D03*
X165810Y504880D03*
X159310Y504880D03*
X152810Y504880D03*
X146310Y504880D03*
X139810Y504880D03*
X133310Y504880D03*
X126810Y504880D03*
X120310Y504880D03*
D12*
X368460Y475110D03*
X368460Y510110D03*
D13*
X401460Y456110D03*
X401460Y529110D03*
X348460Y456110D03*
X348460Y529110D03*
D14*
X345960Y492610D03*
X345960Y484610D03*
X345960Y500610D03*
X345960Y508610D03*
X345960Y476610D03*
D15*
X255672Y351432D03*
X230272Y351432D03*
X255672Y376832D03*
X230272Y376832D03*
X255672Y402232D03*
X230272Y402232D03*
D16*
X247432Y305948D03*
X234432Y305948D03*
D17*
X269934Y242402D03*
X269934Y254402D03*
D18*
X172150Y312098D03*
X160150Y312098D03*
D17*
X202036Y122318D03*
X202036Y110318D03*
D18*
X190644Y377122D03*
X178644Y377122D03*
D17*
X86762Y194396D03*
X86762Y206396D03*
D19*
X121070Y253360D03*
X121070Y245360D03*
X121070Y237360D03*
X121070Y229360D03*
X121070Y221360D03*
X121070Y213360D03*
X121070Y205360D03*
X121070Y197360D03*
X121070Y189360D03*
X121070Y181360D03*
X121070Y173360D03*
D20*
X139070Y155360D03*
X147070Y155360D03*
X155070Y155360D03*
X163070Y155360D03*
X171070Y155360D03*
X179070Y155360D03*
X187070Y155360D03*
X195070Y155360D03*
X203070Y155360D03*
X211070Y155360D03*
X219070Y155360D03*
D19*
X237070Y173360D03*
X237070Y181360D03*
X237070Y189360D03*
X237070Y197360D03*
X237070Y205360D03*
X237070Y213360D03*
X237070Y221360D03*
X237070Y229360D03*
X237070Y237360D03*
X237070Y245360D03*
X237070Y253360D03*
D20*
X219070Y271360D03*
X211070Y271360D03*
X203070Y271360D03*
X195070Y271360D03*
X187070Y271360D03*
X179070Y271360D03*
X171070Y271360D03*
X163070Y271360D03*
X155070Y271360D03*
X147070Y271360D03*
X139070Y271360D03*
D17*
X195890Y537720D03*
X195890Y549720D03*
X164648Y537720D03*
X164648Y549720D03*
D21*
X267270Y428470D03*
X239770Y428470D03*
D16*
X152108Y394414D03*
X139108Y394414D03*
D22*
X312820Y456090D03*
X312820Y443090D03*
D17*
X227260Y479550D03*
X227260Y467550D03*
X227260Y522480D03*
X227260Y534480D03*
D23*
X266390Y453950D03*
X283390Y453950D03*
D18*
X343320Y554065D03*
X355320Y554065D03*
D22*
X179664Y547774D03*
X179664Y534774D03*
D16*
X385390Y555449D03*
X398390Y555449D03*
D24*
X174404Y356702D03*
X174404Y335702D03*
X194404Y335702D03*
X194404Y356702D03*
D25*
X297548Y317500D03*
X280048Y317500D03*
D26*
X310490Y368370D03*
X300990Y368370D03*
X291490Y368370D03*
X291490Y340290D03*
X310490Y340290D03*
D25*
X294018Y408686D03*
X311518Y408686D03*
D18*
X305658Y290322D03*
X317658Y290322D03*
D27*
X43100Y378460D02*
X28020Y378460D01*
X28020Y353060D02*
X43100Y353060D01*
X43100Y327660D02*
X28020Y327660D01*
X28020Y269240D02*
X43100Y269240D01*
X43100Y243840D02*
X28020Y243840D01*
X28020Y218440D02*
X43100Y218440D01*
D28*
X266440Y498450D03*
X266440Y488950D03*
X266440Y479450D03*
X297440Y479450D03*
X297440Y488950D03*
X297440Y498450D03*
D23*
X267852Y289306D03*
X284852Y289306D03*
D18*
X249472Y324612D03*
X237472Y324612D03*
D27*
X43100Y514350D02*
X28020Y514350D01*
X28020Y488950D02*
X43100Y488950D01*
X43100Y463550D02*
X28020Y463550D01*
X28020Y438150D02*
X43100Y438150D01*
D29*
X271780Y134620D03*
X246380Y134620D03*
X271780Y109220D03*
X246380Y109220D03*
X271780Y83820D03*
X246380Y83820D03*
X271780Y58420D03*
X246380Y58420D03*
X271780Y33020D03*
X246380Y33020D03*
D30*
X112776Y286766D03*
X107950Y157480D03*
D27*
X43100Y160020D02*
X28020Y160020D01*
X28020Y134620D02*
X43100Y134620D01*
X43100Y109220D02*
X28020Y109220D01*
X28020Y83820D02*
X43100Y83820D01*
D29*
X363220Y134620D03*
X337820Y134620D03*
X363220Y109220D03*
X337820Y109220D03*
X363220Y83820D03*
X337820Y83820D03*
X363220Y58420D03*
X337820Y58420D03*
X363220Y33020D03*
X337820Y33020D03*
D31*
X334772Y388620D03*
X307594Y237490D03*
X175260Y33020D03*
D32*
X134620Y106800D03*
X134620Y121800D03*
D33*
X134620Y76280D03*
X134620Y86280D03*
D34*
X343232Y210160D02*
X364568Y210160D01*
X364568Y245160D02*
X343232Y245160D01*
X343232Y280160D02*
X364568Y280160D01*
X364568Y315160D02*
X343232Y315160D01*
X343232Y350160D02*
X364568Y350160D01*
D35*
X324104Y508508D03*
X166116Y299720D03*
X186944Y289052D03*
X280416Y337566D03*
X252984Y254000D03*
X22860Y302260D03*
X20320Y190500D03*
X22860Y411480D03*
X55880Y25400D03*
X121920Y17400D03*
X207740Y16400D03*
X303784Y16924D03*
X294640Y58420D03*
X408940Y66040D03*
X381000Y104140D03*
X408940Y205740D03*
X411480Y368300D03*
X96774Y253492D03*
X208280Y558800D03*
X55880Y558800D03*
X175260Y449580D03*
X370840Y558800D03*
X237744Y508508D03*
X164084Y195580D03*
X184404Y230124D03*
X114300Y137160D03*
X99060Y55880D03*
X17780Y63500D03*
X68580Y340360D03*
X70612Y232664D03*
X200660Y55880D03*
X223520Y86360D03*
X112776Y312420D03*
X115316Y376936D03*
X322072Y376936D03*
X332740Y416560D03*
X97028Y531368D03*
X67564Y448056D03*
X86360Y398780D03*
X217932Y233680D03*
X154940Y76200D03*
X414020Y124460D03*
X151384Y117856D03*
X82296Y123444D03*
X203200Y137160D03*
X106172Y197612D03*
X163068Y376936D03*
X205740Y381000D03*
X206248Y321056D03*
X162052Y325628D03*
X408940Y281940D03*
X284480Y173990D03*
X391160Y157480D03*
X386080Y243840D03*
X383540Y317500D03*
X259334Y333248D03*
X219710Y285750D03*
X121412Y274828D03*
X91440Y294640D03*
X300736Y95504D03*
X408940Y431800D03*
X244348Y488696D03*
X216916Y506984D03*
X233680Y449580D03*
X218440Y429260D03*
X185420Y323596D03*
X317500Y302260D03*
X287528Y303276D03*
X223520Y327660D03*
X189484Y113284D03*
X153924Y558800D03*
X175260Y487172D03*
X200660Y476504D03*
X147828Y484632D03*
X86360Y482600D03*
X139700Y449580D03*
X211328Y528828D03*
X213868Y489204D03*
X286512Y528828D03*
X243332Y527812D03*
X282448Y510032D03*
X256540Y229616D03*
X148844Y175260D03*
X195072Y195580D03*
X194564Y175260D03*
X189484Y255016D03*
X320040Y558800D03*
X314960Y528320D03*
X291592Y438912D03*
X322072Y397256D03*
X161544Y349504D03*
X323596Y252984D03*
X325120Y322580D03*
X358140Y381000D03*
X327660Y452120D03*
X354838Y176530D03*
X298704Y251460D03*
X165608Y390398D03*
X274320Y398780D03*
X112268Y468376D03*
X112268Y555752D03*
X281940Y468376D03*
X299720Y264160D03*
X179246Y558584D03*
X309880Y259080D03*
X152400Y411480D03*
X170180Y252730D03*
X138176Y378968D03*
X161290Y245110D03*
X155448Y204216D03*
X125476Y395732D03*
X206746Y296672D03*
X224536Y106172D03*
X122428Y112776D03*
X185420Y413512D03*
X198120Y230632D03*
X323596Y209804D03*
X317500Y220980D03*
X149860Y220980D03*
X154940Y132080D03*
X159004Y99060D03*
X181102Y60706D03*
X179070Y117602D03*
X160020Y226060D03*
X296164Y223520D03*
X314960Y189484D03*
X315214Y202692D03*
X236220Y279400D03*
X218186Y196342D03*
X213360Y414020D03*
X88900Y179672D03*
X104140Y491236D03*
X315976Y470916D03*
X315976Y488696D03*
X128524Y483108D03*
X140850Y548668D03*
X150876Y533400D03*
X306324Y547624D03*
X304800Y388620D03*
X292608Y388112D03*
X286992Y548668D03*
X160476Y362136D03*
X122936Y295148D03*
X172720Y237744D03*
X186680Y135118D03*
X96520Y228600D03*
X118872Y87884D03*
X197104Y87884D03*
X260096Y244602D03*
X259588Y142240D03*
X284480Y189230D03*
X270408Y273812D03*
X184912Y303784D03*
X268224Y304800D03*
X215392Y304292D03*
X77216Y187452D03*
X260604Y273812D03*
X130556Y306832D03*
X143764Y196088D03*
X218694Y176784D03*
X241300Y263144D03*
X269240Y173990D03*
X269380Y230886D03*
X112908Y265552D03*
X105146Y208788D03*
X215900Y137160D03*
M02*
