G04 EAGLE Gerber RS-274X export*
G75*
%MOMM*%
%FSLAX34Y34*%
%LPD*%
%INCopper Layer 15*%
%IPPOS*%
%AMOC8*
5,1,8,0,0,1.08239X$1,22.5*%
G01*
%ADD10C,2.250000*%
%ADD11C,1.524000*%
%ADD12C,1.508000*%
%ADD13C,2.133600*%
%ADD14C,0.756400*%
%ADD15C,0.304800*%
%ADD16C,0.254000*%
%ADD17C,0.254000*%

G36*
X232925Y10926D02*
X232925Y10926D01*
X232945Y10924D01*
X233046Y10946D01*
X233148Y10962D01*
X233166Y10972D01*
X233185Y10976D01*
X233274Y11029D01*
X233365Y11078D01*
X233379Y11092D01*
X233396Y11102D01*
X233464Y11181D01*
X233535Y11256D01*
X233543Y11274D01*
X233556Y11289D01*
X233595Y11385D01*
X233638Y11479D01*
X233641Y11499D01*
X233648Y11517D01*
X233667Y11684D01*
X233667Y139379D01*
X233667Y139706D01*
X233674Y139713D01*
X262210Y139713D01*
X262300Y139728D01*
X262391Y139735D01*
X262421Y139748D01*
X262453Y139753D01*
X262533Y139796D01*
X262617Y139832D01*
X262649Y139857D01*
X262670Y139868D01*
X262692Y139892D01*
X262748Y139936D01*
X273316Y150505D01*
X273369Y150578D01*
X273429Y150648D01*
X273441Y150678D01*
X273460Y150704D01*
X273487Y150791D01*
X273521Y150876D01*
X273525Y150917D01*
X273532Y150939D01*
X273531Y150972D01*
X273539Y151043D01*
X273539Y158158D01*
X273532Y158203D01*
X273534Y158249D01*
X273512Y158324D01*
X273500Y158401D01*
X273478Y158441D01*
X273465Y158486D01*
X273421Y158550D01*
X273384Y158618D01*
X273351Y158650D01*
X273325Y158688D01*
X273263Y158734D01*
X273206Y158788D01*
X273164Y158807D01*
X273128Y158834D01*
X273054Y158859D01*
X272983Y158891D01*
X272937Y158896D01*
X272894Y158911D01*
X272816Y158910D01*
X272739Y158918D01*
X272694Y158909D01*
X272648Y158908D01*
X272516Y158870D01*
X272498Y158866D01*
X272494Y158864D01*
X272487Y158862D01*
X270400Y157997D01*
X268080Y157997D01*
X265936Y158885D01*
X264295Y160526D01*
X263407Y162670D01*
X263407Y164990D01*
X264295Y167134D01*
X265696Y168535D01*
X265749Y168609D01*
X265809Y168678D01*
X265821Y168708D01*
X265840Y168735D01*
X265867Y168822D01*
X265901Y168907D01*
X265905Y168947D01*
X265912Y168970D01*
X265911Y169002D01*
X265919Y169073D01*
X265919Y214111D01*
X265900Y214227D01*
X265883Y214342D01*
X265880Y214348D01*
X265879Y214354D01*
X265825Y214456D01*
X265772Y214561D01*
X265767Y214566D01*
X265764Y214571D01*
X265682Y214649D01*
X265675Y214658D01*
X263927Y216406D01*
X263039Y218550D01*
X263039Y220870D01*
X263927Y223014D01*
X265568Y224655D01*
X267712Y225543D01*
X270032Y225543D01*
X270585Y225314D01*
X270679Y225292D01*
X270773Y225263D01*
X270799Y225264D01*
X270824Y225258D01*
X270921Y225267D01*
X271018Y225269D01*
X271043Y225278D01*
X271069Y225281D01*
X271158Y225320D01*
X271249Y225354D01*
X271270Y225370D01*
X271294Y225381D01*
X271366Y225447D01*
X271442Y225508D01*
X271456Y225529D01*
X271475Y225547D01*
X271522Y225633D01*
X271575Y225714D01*
X271581Y225740D01*
X271594Y225763D01*
X271611Y225859D01*
X271635Y225953D01*
X271633Y225979D01*
X271637Y226005D01*
X271623Y226101D01*
X271615Y226198D01*
X271605Y226222D01*
X271601Y226248D01*
X271557Y226335D01*
X271519Y226424D01*
X271499Y226450D01*
X271490Y226467D01*
X271466Y226491D01*
X271414Y226555D01*
X267071Y230898D01*
X266997Y230951D01*
X266928Y231011D01*
X266898Y231023D01*
X266872Y231042D01*
X266785Y231069D01*
X266700Y231103D01*
X266659Y231107D01*
X266637Y231114D01*
X266604Y231113D01*
X266533Y231121D01*
X265339Y231121D01*
X265249Y231107D01*
X265158Y231099D01*
X265129Y231087D01*
X265097Y231082D01*
X265016Y231039D01*
X264932Y231003D01*
X264900Y230977D01*
X264879Y230966D01*
X264857Y230943D01*
X264801Y230898D01*
X263400Y229497D01*
X261256Y228609D01*
X258936Y228609D01*
X256792Y229497D01*
X255151Y231138D01*
X254263Y233282D01*
X254263Y235602D01*
X255151Y237746D01*
X256704Y239299D01*
X256757Y239373D01*
X256817Y239442D01*
X256829Y239473D01*
X256848Y239499D01*
X256875Y239586D01*
X256909Y239671D01*
X256913Y239712D01*
X256920Y239734D01*
X256919Y239766D01*
X256927Y239837D01*
X256927Y258765D01*
X256913Y258855D01*
X256905Y258946D01*
X256893Y258975D01*
X256888Y259007D01*
X256845Y259088D01*
X256809Y259172D01*
X256783Y259204D01*
X256772Y259225D01*
X256749Y259247D01*
X256704Y259303D01*
X255659Y260348D01*
X254771Y262492D01*
X254771Y264812D01*
X255659Y266956D01*
X257300Y268597D01*
X259444Y269485D01*
X261764Y269485D01*
X263908Y268597D01*
X264968Y267537D01*
X264984Y267525D01*
X264996Y267510D01*
X265084Y267454D01*
X265167Y267393D01*
X265186Y267388D01*
X265203Y267377D01*
X265304Y267352D01*
X265403Y267321D01*
X265422Y267322D01*
X265442Y267317D01*
X265545Y267325D01*
X265648Y267327D01*
X265667Y267334D01*
X265687Y267336D01*
X265782Y267376D01*
X265879Y267412D01*
X265895Y267424D01*
X265913Y267432D01*
X266044Y267537D01*
X267104Y268597D01*
X269248Y269485D01*
X271568Y269485D01*
X273712Y268597D01*
X275353Y266956D01*
X276241Y264812D01*
X276241Y262492D01*
X275353Y260348D01*
X273952Y258947D01*
X273899Y258873D01*
X273839Y258804D01*
X273827Y258773D01*
X273808Y258747D01*
X273781Y258660D01*
X273747Y258575D01*
X273743Y258534D01*
X273736Y258512D01*
X273737Y258480D01*
X273729Y258409D01*
X273729Y244363D01*
X273743Y244273D01*
X273751Y244182D01*
X273763Y244152D01*
X273768Y244120D01*
X273811Y244039D01*
X273847Y243956D01*
X273873Y243923D01*
X273884Y243903D01*
X273907Y243881D01*
X273952Y243825D01*
X287801Y229976D01*
X287801Y211531D01*
X287812Y211460D01*
X287814Y211388D01*
X287832Y211339D01*
X287840Y211288D01*
X287874Y211225D01*
X287899Y211157D01*
X287931Y211117D01*
X287956Y211071D01*
X288008Y211021D01*
X288052Y210965D01*
X288096Y210937D01*
X288134Y210901D01*
X288199Y210871D01*
X288259Y210832D01*
X288310Y210820D01*
X288357Y210798D01*
X288428Y210790D01*
X288498Y210772D01*
X288550Y210776D01*
X288601Y210771D01*
X288672Y210786D01*
X288743Y210791D01*
X288791Y210812D01*
X288842Y210823D01*
X288903Y210860D01*
X288969Y210888D01*
X289025Y210932D01*
X289053Y210949D01*
X289068Y210967D01*
X289100Y210992D01*
X290108Y212001D01*
X290161Y212075D01*
X290221Y212144D01*
X290233Y212174D01*
X290252Y212200D01*
X290279Y212287D01*
X290313Y212372D01*
X290317Y212413D01*
X290324Y212435D01*
X290323Y212468D01*
X290331Y212539D01*
X290331Y214520D01*
X291219Y216664D01*
X292860Y218305D01*
X295004Y219193D01*
X297324Y219193D01*
X299468Y218305D01*
X301109Y216664D01*
X301493Y215736D01*
X301555Y215636D01*
X301615Y215536D01*
X301620Y215532D01*
X301623Y215527D01*
X301713Y215452D01*
X301802Y215376D01*
X301808Y215374D01*
X301812Y215370D01*
X301920Y215328D01*
X302030Y215284D01*
X302037Y215283D01*
X302042Y215282D01*
X302060Y215281D01*
X302197Y215266D01*
X313382Y215266D01*
X313472Y215280D01*
X313563Y215288D01*
X313593Y215300D01*
X313624Y215305D01*
X313705Y215348D01*
X313789Y215384D01*
X313821Y215410D01*
X313842Y215421D01*
X313864Y215444D01*
X313920Y215489D01*
X314196Y215765D01*
X316340Y216653D01*
X318660Y216653D01*
X320804Y215765D01*
X322445Y214124D01*
X323333Y211980D01*
X323333Y209660D01*
X322445Y207516D01*
X321676Y206747D01*
X321619Y206668D01*
X321557Y206593D01*
X321548Y206568D01*
X321532Y206547D01*
X321504Y206454D01*
X321469Y206363D01*
X321468Y206337D01*
X321460Y206312D01*
X321463Y206215D01*
X321458Y206117D01*
X321466Y206092D01*
X321466Y206066D01*
X321500Y205975D01*
X321527Y205881D01*
X321542Y205860D01*
X321551Y205835D01*
X321612Y205759D01*
X321667Y205679D01*
X321688Y205664D01*
X321705Y205643D01*
X321787Y205591D01*
X321865Y205533D01*
X321890Y205524D01*
X321911Y205510D01*
X322006Y205487D01*
X322099Y205456D01*
X322125Y205457D01*
X322150Y205450D01*
X322247Y205458D01*
X322345Y205459D01*
X322376Y205468D01*
X322395Y205469D01*
X322412Y205477D01*
X324756Y205477D01*
X326900Y204589D01*
X327503Y203986D01*
X327561Y203944D01*
X327613Y203895D01*
X327660Y203873D01*
X327702Y203842D01*
X327771Y203821D01*
X327836Y203791D01*
X327888Y203785D01*
X327938Y203770D01*
X328009Y203772D01*
X328080Y203764D01*
X328131Y203775D01*
X328183Y203776D01*
X328251Y203801D01*
X328321Y203816D01*
X328366Y203843D01*
X328414Y203861D01*
X328470Y203906D01*
X328532Y203942D01*
X328566Y203982D01*
X328606Y204015D01*
X328645Y204075D01*
X328692Y204129D01*
X328711Y204178D01*
X328739Y204222D01*
X328757Y204291D01*
X328784Y204358D01*
X328792Y204429D01*
X328800Y204460D01*
X328798Y204483D01*
X328802Y204524D01*
X328802Y322738D01*
X329026Y322962D01*
X353138Y322962D01*
X353158Y322965D01*
X353177Y322963D01*
X353279Y322985D01*
X353381Y323001D01*
X353398Y323011D01*
X353418Y323015D01*
X353507Y323068D01*
X353598Y323117D01*
X353612Y323131D01*
X353629Y323141D01*
X353696Y323220D01*
X353767Y323295D01*
X353776Y323313D01*
X353789Y323328D01*
X353827Y323424D01*
X353871Y323518D01*
X353873Y323538D01*
X353881Y323556D01*
X353899Y323723D01*
X353899Y324001D01*
X353901Y324001D01*
X353901Y323723D01*
X353904Y323703D01*
X353902Y323684D01*
X353924Y323582D01*
X353941Y323480D01*
X353950Y323463D01*
X353954Y323443D01*
X354007Y323354D01*
X354056Y323263D01*
X354070Y323249D01*
X354080Y323232D01*
X354159Y323165D01*
X354234Y323093D01*
X354252Y323085D01*
X354267Y323072D01*
X354363Y323033D01*
X354457Y322990D01*
X354477Y322988D01*
X354495Y322980D01*
X354662Y322962D01*
X378618Y322962D01*
X378842Y322738D01*
X378842Y170022D01*
X378618Y169798D01*
X329026Y169798D01*
X328802Y170022D01*
X328802Y194764D01*
X328791Y194834D01*
X328789Y194906D01*
X328771Y194955D01*
X328763Y195006D01*
X328729Y195070D01*
X328704Y195137D01*
X328672Y195178D01*
X328647Y195224D01*
X328596Y195273D01*
X328551Y195329D01*
X328507Y195357D01*
X328469Y195393D01*
X328404Y195423D01*
X328344Y195462D01*
X328293Y195475D01*
X328246Y195497D01*
X328175Y195505D01*
X328105Y195522D01*
X328053Y195518D01*
X328002Y195524D01*
X327931Y195509D01*
X327860Y195503D01*
X327812Y195483D01*
X327761Y195472D01*
X327700Y195435D01*
X327634Y195407D01*
X327578Y195362D01*
X327550Y195346D01*
X327535Y195328D01*
X327503Y195302D01*
X327140Y194939D01*
X327086Y194865D01*
X327027Y194796D01*
X327015Y194765D01*
X326996Y194739D01*
X326969Y194652D01*
X326935Y194567D01*
X326931Y194526D01*
X326924Y194504D01*
X326925Y194472D01*
X326917Y194401D01*
X326917Y140475D01*
X326920Y140455D01*
X326918Y140435D01*
X326940Y140334D01*
X326956Y140232D01*
X326966Y140214D01*
X326970Y140195D01*
X327023Y140106D01*
X327072Y140015D01*
X327086Y140001D01*
X327096Y139984D01*
X327175Y139916D01*
X327250Y139845D01*
X327268Y139837D01*
X327283Y139824D01*
X327379Y139785D01*
X327473Y139742D01*
X327493Y139739D01*
X327511Y139732D01*
X327678Y139713D01*
X373386Y139713D01*
X373393Y139706D01*
X373393Y60954D01*
X373386Y60947D01*
X373059Y60947D01*
X351803Y60947D01*
X351783Y60943D01*
X351763Y60946D01*
X351662Y60924D01*
X351560Y60907D01*
X351542Y60898D01*
X351523Y60893D01*
X351434Y60840D01*
X351343Y60792D01*
X351329Y60777D01*
X351312Y60767D01*
X351244Y60688D01*
X351173Y60613D01*
X351165Y60595D01*
X351152Y60580D01*
X351113Y60484D01*
X351070Y60390D01*
X351067Y60371D01*
X351060Y60352D01*
X351041Y60185D01*
X351041Y35827D01*
X351045Y35807D01*
X351042Y35787D01*
X351064Y35686D01*
X351081Y35584D01*
X351090Y35566D01*
X351095Y35547D01*
X351148Y35458D01*
X351196Y35367D01*
X351211Y35353D01*
X351221Y35336D01*
X351300Y35268D01*
X351375Y35197D01*
X351393Y35189D01*
X351408Y35176D01*
X351504Y35137D01*
X351598Y35094D01*
X351617Y35091D01*
X351636Y35084D01*
X351803Y35065D01*
X375926Y35065D01*
X375933Y35058D01*
X375933Y11684D01*
X375937Y11664D01*
X375934Y11645D01*
X375956Y11543D01*
X375973Y11441D01*
X375982Y11424D01*
X375987Y11404D01*
X376040Y11315D01*
X376088Y11224D01*
X376103Y11210D01*
X376113Y11193D01*
X376192Y11126D01*
X376267Y11054D01*
X376285Y11046D01*
X376300Y11033D01*
X376396Y10994D01*
X376490Y10951D01*
X376509Y10949D01*
X376528Y10941D01*
X376695Y10923D01*
X379857Y10923D01*
X379877Y10926D01*
X379896Y10924D01*
X379998Y10946D01*
X380100Y10962D01*
X380117Y10972D01*
X380137Y10976D01*
X380226Y11029D01*
X380317Y11078D01*
X380331Y11092D01*
X380348Y11102D01*
X380415Y11181D01*
X380487Y11256D01*
X380495Y11274D01*
X380508Y11289D01*
X380547Y11385D01*
X380590Y11479D01*
X380592Y11499D01*
X380600Y11517D01*
X380618Y11684D01*
X380618Y21855D01*
X380608Y21919D01*
X380607Y21985D01*
X380584Y22065D01*
X380579Y22097D01*
X380569Y22115D01*
X380560Y22146D01*
X380409Y22511D01*
X380409Y30829D01*
X383593Y38515D01*
X389475Y44397D01*
X397161Y47581D01*
X404866Y47581D01*
X404956Y47595D01*
X405047Y47603D01*
X405076Y47615D01*
X405108Y47620D01*
X405118Y47626D01*
X418328Y47626D01*
X418348Y47629D01*
X418367Y47627D01*
X418469Y47649D01*
X418571Y47665D01*
X418588Y47675D01*
X418608Y47679D01*
X418697Y47732D01*
X418788Y47781D01*
X418802Y47795D01*
X418819Y47805D01*
X418886Y47884D01*
X418958Y47959D01*
X418966Y47977D01*
X418979Y47992D01*
X419018Y48088D01*
X419061Y48182D01*
X419063Y48202D01*
X419071Y48220D01*
X419089Y48387D01*
X419089Y536712D01*
X419075Y536802D01*
X419067Y536893D01*
X419055Y536923D01*
X419050Y536955D01*
X419007Y537035D01*
X418971Y537119D01*
X418945Y537151D01*
X418934Y537172D01*
X418911Y537194D01*
X418866Y537250D01*
X402262Y553854D01*
X402188Y553907D01*
X402119Y553967D01*
X402089Y553979D01*
X402063Y553998D01*
X401976Y554025D01*
X401891Y554059D01*
X401850Y554063D01*
X401827Y554070D01*
X401795Y554069D01*
X401724Y554077D01*
X183679Y554077D01*
X183609Y554066D01*
X183537Y554064D01*
X183488Y554046D01*
X183437Y554038D01*
X183373Y554004D01*
X183306Y553979D01*
X183265Y553947D01*
X183219Y553922D01*
X183170Y553870D01*
X183114Y553826D01*
X183086Y553782D01*
X183050Y553744D01*
X183020Y553679D01*
X182981Y553619D01*
X182968Y553568D01*
X182946Y553521D01*
X182938Y553450D01*
X182921Y553380D01*
X182925Y553328D01*
X182919Y553277D01*
X182934Y553206D01*
X182940Y553135D01*
X182960Y553087D01*
X182971Y553036D01*
X183008Y552975D01*
X183036Y552909D01*
X183081Y552853D01*
X183097Y552825D01*
X183115Y552810D01*
X183141Y552778D01*
X184191Y551728D01*
X185079Y549584D01*
X185079Y547264D01*
X184191Y545120D01*
X182550Y543479D01*
X180406Y542591D01*
X178784Y542591D01*
X178694Y542577D01*
X178603Y542569D01*
X178573Y542557D01*
X178541Y542552D01*
X178461Y542509D01*
X178377Y542473D01*
X178345Y542447D01*
X178324Y542436D01*
X178302Y542413D01*
X178246Y542368D01*
X169406Y533528D01*
X169353Y533454D01*
X169293Y533385D01*
X169281Y533355D01*
X169262Y533328D01*
X169235Y533242D01*
X169201Y533157D01*
X169197Y533116D01*
X169190Y533093D01*
X169191Y533061D01*
X169183Y532990D01*
X169183Y385227D01*
X169197Y385137D01*
X169205Y385046D01*
X169217Y385017D01*
X169222Y384985D01*
X169265Y384904D01*
X169301Y384820D01*
X169327Y384788D01*
X169338Y384767D01*
X169361Y384745D01*
X169406Y384689D01*
X170553Y383542D01*
X171441Y381398D01*
X171441Y379078D01*
X170553Y376934D01*
X168912Y375293D01*
X166768Y374405D01*
X164448Y374405D01*
X162304Y375293D01*
X160663Y376934D01*
X159775Y379078D01*
X159775Y381398D01*
X160663Y383542D01*
X161810Y384689D01*
X161863Y384763D01*
X161923Y384832D01*
X161935Y384863D01*
X161954Y384889D01*
X161981Y384976D01*
X162015Y385061D01*
X162019Y385102D01*
X162026Y385124D01*
X162025Y385156D01*
X162033Y385227D01*
X162033Y536267D01*
X173190Y547424D01*
X173243Y547498D01*
X173303Y547567D01*
X173315Y547597D01*
X173334Y547624D01*
X173361Y547710D01*
X173395Y547795D01*
X173399Y547836D01*
X173406Y547859D01*
X173405Y547891D01*
X173413Y547962D01*
X173413Y549584D01*
X174301Y551728D01*
X175351Y552778D01*
X175393Y552836D01*
X175442Y552888D01*
X175464Y552935D01*
X175495Y552977D01*
X175516Y553046D01*
X175546Y553111D01*
X175552Y553163D01*
X175567Y553213D01*
X175565Y553284D01*
X175573Y553355D01*
X175562Y553406D01*
X175561Y553458D01*
X175536Y553526D01*
X175521Y553596D01*
X175494Y553641D01*
X175476Y553689D01*
X175431Y553745D01*
X175395Y553807D01*
X175355Y553841D01*
X175322Y553881D01*
X175262Y553920D01*
X175208Y553967D01*
X175159Y553986D01*
X175115Y554014D01*
X175046Y554032D01*
X174979Y554059D01*
X174908Y554067D01*
X174877Y554075D01*
X174854Y554073D01*
X174813Y554077D01*
X49403Y554077D01*
X49383Y554074D01*
X49364Y554076D01*
X49262Y554054D01*
X49160Y554038D01*
X49143Y554028D01*
X49123Y554024D01*
X49034Y553971D01*
X48943Y553922D01*
X48929Y553908D01*
X48912Y553898D01*
X48845Y553819D01*
X48773Y553744D01*
X48765Y553726D01*
X48752Y553711D01*
X48713Y553615D01*
X48670Y553521D01*
X48668Y553501D01*
X48660Y553483D01*
X48642Y553316D01*
X48642Y545835D01*
X48652Y545771D01*
X48653Y545705D01*
X48676Y545625D01*
X48681Y545593D01*
X48691Y545575D01*
X48700Y545544D01*
X48851Y545179D01*
X48851Y536861D01*
X45667Y529175D01*
X39785Y523293D01*
X32099Y520109D01*
X23781Y520109D01*
X23416Y520260D01*
X23352Y520275D01*
X23291Y520300D01*
X23208Y520309D01*
X23176Y520316D01*
X23157Y520315D01*
X23125Y520318D01*
X11684Y520318D01*
X11664Y520315D01*
X11645Y520317D01*
X11543Y520295D01*
X11441Y520279D01*
X11424Y520269D01*
X11404Y520265D01*
X11315Y520212D01*
X11224Y520163D01*
X11210Y520149D01*
X11193Y520139D01*
X11126Y520060D01*
X11054Y519985D01*
X11046Y519967D01*
X11033Y519952D01*
X10994Y519856D01*
X10951Y519762D01*
X10949Y519742D01*
X10941Y519724D01*
X10923Y519557D01*
X10923Y501155D01*
X10925Y501140D01*
X10924Y501128D01*
X10925Y501124D01*
X10924Y501115D01*
X10946Y501014D01*
X10962Y500912D01*
X10972Y500894D01*
X10976Y500875D01*
X11029Y500786D01*
X11078Y500695D01*
X11092Y500681D01*
X11102Y500664D01*
X11181Y500596D01*
X11256Y500525D01*
X11274Y500517D01*
X11289Y500504D01*
X11385Y500465D01*
X11479Y500422D01*
X11499Y500419D01*
X11517Y500412D01*
X11684Y500393D01*
X25146Y500393D01*
X25162Y500396D01*
X25178Y500394D01*
X25283Y500416D01*
X25389Y500433D01*
X25403Y500441D01*
X25419Y500444D01*
X25512Y500498D01*
X25606Y500548D01*
X25617Y500560D01*
X25631Y500568D01*
X25702Y500649D01*
X25776Y500727D01*
X25783Y500741D01*
X25793Y500753D01*
X25834Y500852D01*
X25879Y500950D01*
X25881Y500966D01*
X25887Y500980D01*
X25895Y501088D01*
X25907Y501194D01*
X25903Y501210D01*
X25904Y501226D01*
X25870Y501390D01*
X25727Y501829D01*
X25595Y502667D01*
X34798Y502667D01*
X34818Y502670D01*
X34837Y502668D01*
X34939Y502690D01*
X35041Y502707D01*
X35058Y502716D01*
X35078Y502720D01*
X35167Y502773D01*
X35258Y502822D01*
X35272Y502836D01*
X35289Y502846D01*
X35356Y502925D01*
X35427Y503000D01*
X35436Y503018D01*
X35449Y503033D01*
X35487Y503129D01*
X35531Y503223D01*
X35533Y503243D01*
X35541Y503261D01*
X35559Y503428D01*
X35559Y504191D01*
X35561Y504191D01*
X35561Y503428D01*
X35563Y503418D01*
X35562Y503412D01*
X35564Y503404D01*
X35562Y503389D01*
X35584Y503287D01*
X35601Y503185D01*
X35610Y503168D01*
X35614Y503148D01*
X35667Y503059D01*
X35716Y502968D01*
X35730Y502954D01*
X35740Y502937D01*
X35819Y502870D01*
X35894Y502799D01*
X35912Y502790D01*
X35927Y502777D01*
X36023Y502738D01*
X36117Y502695D01*
X36137Y502693D01*
X36155Y502685D01*
X36322Y502667D01*
X45525Y502667D01*
X45393Y501829D01*
X45250Y501390D01*
X45248Y501380D01*
X45245Y501373D01*
X45244Y501368D01*
X45241Y501360D01*
X45229Y501253D01*
X45212Y501147D01*
X45215Y501131D01*
X45213Y501115D01*
X45236Y501010D01*
X45255Y500905D01*
X45262Y500890D01*
X45266Y500875D01*
X45321Y500783D01*
X45372Y500688D01*
X45384Y500677D01*
X45392Y500664D01*
X45474Y500594D01*
X45552Y500521D01*
X45567Y500514D01*
X45579Y500504D01*
X45679Y500464D01*
X45776Y500419D01*
X45792Y500418D01*
X45807Y500412D01*
X45974Y500393D01*
X50806Y500393D01*
X50813Y500386D01*
X50813Y467354D01*
X50806Y467347D01*
X50479Y467347D01*
X33795Y467347D01*
X33775Y467343D01*
X33755Y467346D01*
X33654Y467324D01*
X33552Y467307D01*
X33534Y467298D01*
X33515Y467293D01*
X33426Y467240D01*
X33335Y467192D01*
X33321Y467177D01*
X33304Y467167D01*
X33236Y467088D01*
X33165Y467013D01*
X33157Y466995D01*
X33144Y466980D01*
X33105Y466884D01*
X33062Y466790D01*
X33059Y466771D01*
X33052Y466752D01*
X33033Y466585D01*
X33033Y464088D01*
X33046Y464009D01*
X33050Y463930D01*
X33066Y463888D01*
X33073Y463845D01*
X33110Y463775D01*
X33139Y463700D01*
X33168Y463666D01*
X33188Y463627D01*
X33246Y463573D01*
X33297Y463512D01*
X33335Y463488D01*
X33367Y463458D01*
X33439Y463425D01*
X33507Y463383D01*
X33550Y463373D01*
X33590Y463354D01*
X33669Y463346D01*
X33746Y463328D01*
X33805Y463331D01*
X33834Y463327D01*
X33861Y463333D01*
X33914Y463336D01*
X34037Y463355D01*
X34037Y454152D01*
X34040Y454132D01*
X34038Y454113D01*
X34060Y454011D01*
X34077Y453909D01*
X34086Y453892D01*
X34090Y453872D01*
X34143Y453783D01*
X34192Y453692D01*
X34206Y453678D01*
X34216Y453661D01*
X34295Y453594D01*
X34370Y453523D01*
X34388Y453514D01*
X34403Y453501D01*
X34499Y453463D01*
X34593Y453419D01*
X34613Y453417D01*
X34631Y453409D01*
X34798Y453391D01*
X35561Y453391D01*
X35561Y453389D01*
X34798Y453389D01*
X34778Y453386D01*
X34759Y453388D01*
X34657Y453366D01*
X34555Y453349D01*
X34538Y453340D01*
X34518Y453336D01*
X34429Y453283D01*
X34338Y453234D01*
X34324Y453220D01*
X34307Y453210D01*
X34240Y453131D01*
X34169Y453056D01*
X34160Y453038D01*
X34147Y453023D01*
X34108Y452927D01*
X34065Y452833D01*
X34063Y452813D01*
X34055Y452795D01*
X34037Y452628D01*
X34037Y443425D01*
X33914Y443444D01*
X33834Y443444D01*
X33755Y443453D01*
X33712Y443443D01*
X33668Y443443D01*
X33593Y443417D01*
X33515Y443400D01*
X33477Y443378D01*
X33435Y443363D01*
X33372Y443315D01*
X33304Y443274D01*
X33275Y443241D01*
X33240Y443214D01*
X33196Y443148D01*
X33144Y443087D01*
X33127Y443046D01*
X33103Y443010D01*
X33082Y442933D01*
X33052Y442859D01*
X33045Y442801D01*
X33038Y442772D01*
X33039Y442745D01*
X33033Y442692D01*
X33033Y440195D01*
X33037Y440175D01*
X33034Y440155D01*
X33056Y440054D01*
X33073Y439952D01*
X33082Y439934D01*
X33087Y439915D01*
X33140Y439826D01*
X33188Y439735D01*
X33203Y439721D01*
X33213Y439704D01*
X33292Y439636D01*
X33367Y439565D01*
X33385Y439557D01*
X33400Y439544D01*
X33496Y439505D01*
X33590Y439462D01*
X33609Y439459D01*
X33628Y439452D01*
X33795Y439433D01*
X50806Y439433D01*
X50813Y439426D01*
X50813Y414014D01*
X50806Y414007D01*
X50479Y414007D01*
X11684Y414007D01*
X11664Y414003D01*
X11645Y414006D01*
X11543Y413984D01*
X11441Y413967D01*
X11424Y413958D01*
X11404Y413953D01*
X11315Y413900D01*
X11224Y413852D01*
X11210Y413837D01*
X11193Y413827D01*
X11126Y413748D01*
X11054Y413673D01*
X11046Y413655D01*
X11033Y413640D01*
X10994Y413544D01*
X10951Y413450D01*
X10949Y413431D01*
X10941Y413412D01*
X10923Y413245D01*
X10923Y366535D01*
X10926Y366515D01*
X10924Y366495D01*
X10946Y366394D01*
X10962Y366292D01*
X10972Y366274D01*
X10976Y366255D01*
X11029Y366166D01*
X11078Y366075D01*
X11092Y366061D01*
X11102Y366044D01*
X11181Y365976D01*
X11256Y365905D01*
X11274Y365897D01*
X11289Y365884D01*
X11385Y365845D01*
X11479Y365802D01*
X11499Y365799D01*
X11517Y365792D01*
X11684Y365773D01*
X24862Y365773D01*
X24941Y365786D01*
X25020Y365790D01*
X25062Y365806D01*
X25105Y365813D01*
X25175Y365850D01*
X25250Y365879D01*
X25284Y365908D01*
X25323Y365928D01*
X25377Y365986D01*
X25438Y366037D01*
X25462Y366075D01*
X25492Y366107D01*
X25525Y366179D01*
X25567Y366247D01*
X25577Y366290D01*
X25596Y366330D01*
X25604Y366409D01*
X25622Y366486D01*
X25619Y366545D01*
X25623Y366574D01*
X25617Y366601D01*
X25614Y366654D01*
X25595Y366777D01*
X34798Y366777D01*
X34818Y366780D01*
X34837Y366778D01*
X34939Y366800D01*
X35041Y366817D01*
X35058Y366826D01*
X35078Y366830D01*
X35167Y366883D01*
X35258Y366932D01*
X35272Y366946D01*
X35289Y366956D01*
X35356Y367035D01*
X35427Y367110D01*
X35436Y367128D01*
X35449Y367143D01*
X35487Y367239D01*
X35531Y367333D01*
X35533Y367353D01*
X35541Y367371D01*
X35559Y367538D01*
X35559Y368301D01*
X35561Y368301D01*
X35561Y367538D01*
X35564Y367518D01*
X35562Y367499D01*
X35584Y367397D01*
X35601Y367295D01*
X35610Y367278D01*
X35614Y367258D01*
X35667Y367169D01*
X35716Y367078D01*
X35730Y367064D01*
X35740Y367047D01*
X35819Y366980D01*
X35894Y366909D01*
X35912Y366900D01*
X35927Y366887D01*
X36023Y366848D01*
X36117Y366805D01*
X36137Y366803D01*
X36155Y366795D01*
X36322Y366777D01*
X45525Y366777D01*
X45506Y366654D01*
X45506Y366574D01*
X45497Y366495D01*
X45507Y366452D01*
X45507Y366408D01*
X45533Y366333D01*
X45550Y366255D01*
X45572Y366217D01*
X45587Y366175D01*
X45635Y366112D01*
X45676Y366044D01*
X45709Y366015D01*
X45736Y365980D01*
X45802Y365936D01*
X45863Y365884D01*
X45904Y365867D01*
X45940Y365843D01*
X46017Y365822D01*
X46091Y365792D01*
X46149Y365785D01*
X46178Y365778D01*
X46205Y365779D01*
X46258Y365773D01*
X58426Y365773D01*
X58433Y365766D01*
X58433Y304794D01*
X58426Y304787D01*
X58099Y304787D01*
X11684Y304787D01*
X11664Y304783D01*
X11645Y304786D01*
X11543Y304764D01*
X11441Y304747D01*
X11424Y304738D01*
X11404Y304733D01*
X11315Y304680D01*
X11224Y304632D01*
X11210Y304617D01*
X11193Y304607D01*
X11126Y304528D01*
X11054Y304453D01*
X11046Y304435D01*
X11033Y304420D01*
X10994Y304324D01*
X10951Y304230D01*
X10949Y304211D01*
X10941Y304192D01*
X10923Y304025D01*
X10923Y257315D01*
X10926Y257295D01*
X10924Y257275D01*
X10946Y257174D01*
X10962Y257072D01*
X10972Y257054D01*
X10976Y257035D01*
X11029Y256946D01*
X11078Y256855D01*
X11092Y256841D01*
X11102Y256824D01*
X11181Y256756D01*
X11256Y256685D01*
X11274Y256677D01*
X11289Y256664D01*
X11385Y256625D01*
X11479Y256582D01*
X11499Y256579D01*
X11517Y256572D01*
X11684Y256553D01*
X24862Y256553D01*
X24941Y256566D01*
X25020Y256570D01*
X25062Y256586D01*
X25105Y256593D01*
X25175Y256630D01*
X25250Y256659D01*
X25284Y256688D01*
X25323Y256708D01*
X25377Y256766D01*
X25438Y256817D01*
X25462Y256855D01*
X25492Y256887D01*
X25525Y256959D01*
X25567Y257027D01*
X25577Y257070D01*
X25596Y257110D01*
X25604Y257189D01*
X25622Y257266D01*
X25619Y257325D01*
X25623Y257354D01*
X25617Y257381D01*
X25614Y257434D01*
X25595Y257557D01*
X34798Y257557D01*
X34818Y257560D01*
X34837Y257558D01*
X34939Y257580D01*
X35041Y257597D01*
X35058Y257606D01*
X35078Y257610D01*
X35167Y257663D01*
X35258Y257712D01*
X35272Y257726D01*
X35289Y257736D01*
X35356Y257815D01*
X35427Y257890D01*
X35436Y257908D01*
X35449Y257923D01*
X35487Y258019D01*
X35531Y258113D01*
X35533Y258133D01*
X35541Y258151D01*
X35559Y258318D01*
X35559Y259081D01*
X35561Y259081D01*
X35561Y258318D01*
X35563Y258303D01*
X35562Y258290D01*
X35563Y258286D01*
X35562Y258279D01*
X35584Y258177D01*
X35601Y258075D01*
X35610Y258058D01*
X35614Y258038D01*
X35667Y257949D01*
X35716Y257858D01*
X35730Y257844D01*
X35740Y257827D01*
X35819Y257760D01*
X35894Y257689D01*
X35912Y257680D01*
X35927Y257667D01*
X36023Y257628D01*
X36117Y257585D01*
X36137Y257583D01*
X36155Y257575D01*
X36322Y257557D01*
X45525Y257557D01*
X45506Y257434D01*
X45506Y257354D01*
X45497Y257275D01*
X45507Y257232D01*
X45507Y257188D01*
X45533Y257113D01*
X45550Y257035D01*
X45572Y256997D01*
X45587Y256955D01*
X45635Y256892D01*
X45676Y256824D01*
X45709Y256795D01*
X45736Y256760D01*
X45802Y256716D01*
X45863Y256664D01*
X45904Y256647D01*
X45940Y256623D01*
X46017Y256602D01*
X46091Y256572D01*
X46149Y256565D01*
X46178Y256558D01*
X46205Y256559D01*
X46258Y256553D01*
X58426Y256553D01*
X58433Y256546D01*
X58433Y195574D01*
X58426Y195567D01*
X58099Y195567D01*
X11684Y195567D01*
X11664Y195563D01*
X11645Y195566D01*
X11543Y195544D01*
X11441Y195527D01*
X11424Y195518D01*
X11404Y195513D01*
X11315Y195460D01*
X11224Y195412D01*
X11210Y195397D01*
X11193Y195387D01*
X11126Y195308D01*
X11054Y195233D01*
X11046Y195215D01*
X11033Y195200D01*
X10994Y195104D01*
X10951Y195010D01*
X10949Y194991D01*
X10941Y194972D01*
X10923Y194805D01*
X10923Y163335D01*
X10926Y163315D01*
X10924Y163295D01*
X10946Y163194D01*
X10962Y163092D01*
X10972Y163074D01*
X10976Y163055D01*
X11029Y162966D01*
X11078Y162875D01*
X11092Y162861D01*
X11102Y162844D01*
X11181Y162776D01*
X11256Y162705D01*
X11274Y162697D01*
X11289Y162684D01*
X11385Y162645D01*
X11479Y162602D01*
X11499Y162599D01*
X11517Y162592D01*
X11684Y162573D01*
X58426Y162573D01*
X58433Y162566D01*
X58433Y60954D01*
X58426Y60947D01*
X58099Y60947D01*
X11684Y60947D01*
X11664Y60943D01*
X11645Y60946D01*
X11543Y60924D01*
X11441Y60907D01*
X11424Y60898D01*
X11404Y60893D01*
X11315Y60840D01*
X11224Y60792D01*
X11210Y60777D01*
X11193Y60767D01*
X11126Y60688D01*
X11054Y60613D01*
X11046Y60595D01*
X11033Y60580D01*
X10994Y60484D01*
X10951Y60390D01*
X10949Y60371D01*
X10941Y60352D01*
X10923Y60185D01*
X10923Y48387D01*
X10926Y48367D01*
X10924Y48348D01*
X10946Y48246D01*
X10962Y48144D01*
X10972Y48127D01*
X10976Y48107D01*
X11029Y48018D01*
X11078Y47927D01*
X11092Y47913D01*
X11102Y47896D01*
X11181Y47829D01*
X11256Y47757D01*
X11274Y47749D01*
X11289Y47736D01*
X11385Y47697D01*
X11479Y47654D01*
X11499Y47652D01*
X11517Y47644D01*
X11684Y47626D01*
X23654Y47626D01*
X23720Y47599D01*
X23761Y47595D01*
X23783Y47588D01*
X23815Y47589D01*
X23886Y47581D01*
X32099Y47581D01*
X39785Y44397D01*
X45667Y38515D01*
X48851Y30829D01*
X48851Y27696D01*
X48865Y27606D01*
X48873Y27515D01*
X48885Y27486D01*
X48890Y27454D01*
X48933Y27373D01*
X48969Y27289D01*
X48995Y27257D01*
X49006Y27236D01*
X49029Y27214D01*
X49055Y27181D01*
X49056Y27179D01*
X49058Y27178D01*
X49074Y27158D01*
X49150Y27082D01*
X49150Y11684D01*
X49153Y11664D01*
X49151Y11645D01*
X49173Y11543D01*
X49189Y11441D01*
X49199Y11424D01*
X49203Y11404D01*
X49256Y11315D01*
X49305Y11224D01*
X49319Y11210D01*
X49329Y11193D01*
X49408Y11126D01*
X49483Y11054D01*
X49501Y11046D01*
X49516Y11033D01*
X49612Y10994D01*
X49706Y10951D01*
X49726Y10949D01*
X49744Y10941D01*
X49911Y10923D01*
X232905Y10923D01*
X232925Y10926D01*
G37*
%LPC*%
G36*
X223376Y90179D02*
X223376Y90179D01*
X221232Y91067D01*
X219591Y92708D01*
X218703Y94852D01*
X218703Y97172D01*
X219591Y99316D01*
X220982Y100707D01*
X221035Y100781D01*
X221095Y100850D01*
X221107Y100881D01*
X221126Y100907D01*
X221153Y100994D01*
X221187Y101079D01*
X221191Y101120D01*
X221198Y101142D01*
X221197Y101174D01*
X221205Y101245D01*
X221205Y122219D01*
X221194Y122289D01*
X221192Y122361D01*
X221174Y122410D01*
X221166Y122461D01*
X221132Y122525D01*
X221107Y122592D01*
X221075Y122633D01*
X221050Y122679D01*
X220998Y122728D01*
X220954Y122784D01*
X220910Y122812D01*
X220872Y122848D01*
X220807Y122878D01*
X220747Y122917D01*
X220696Y122930D01*
X220649Y122952D01*
X220578Y122960D01*
X220508Y122977D01*
X220456Y122973D01*
X220405Y122979D01*
X220334Y122964D01*
X220263Y122958D01*
X220215Y122938D01*
X220164Y122927D01*
X220103Y122890D01*
X220037Y122862D01*
X219981Y122817D01*
X219953Y122801D01*
X219938Y122783D01*
X219906Y122757D01*
X219204Y122055D01*
X217060Y121167D01*
X214740Y121167D01*
X212596Y122055D01*
X210955Y123696D01*
X210067Y125840D01*
X210067Y128160D01*
X210955Y130304D01*
X212596Y131945D01*
X214740Y132833D01*
X217060Y132833D01*
X219204Y131945D01*
X219906Y131243D01*
X219964Y131201D01*
X220016Y131152D01*
X220063Y131130D01*
X220105Y131099D01*
X220174Y131078D01*
X220239Y131048D01*
X220291Y131042D01*
X220341Y131027D01*
X220412Y131029D01*
X220483Y131021D01*
X220534Y131032D01*
X220586Y131033D01*
X220654Y131058D01*
X220724Y131073D01*
X220769Y131100D01*
X220817Y131118D01*
X220873Y131163D01*
X220935Y131199D01*
X220969Y131239D01*
X221009Y131272D01*
X221048Y131332D01*
X221095Y131386D01*
X221114Y131435D01*
X221142Y131479D01*
X221160Y131548D01*
X221187Y131615D01*
X221195Y131686D01*
X221203Y131717D01*
X221201Y131740D01*
X221205Y131781D01*
X221205Y138411D01*
X221191Y138501D01*
X221183Y138592D01*
X221171Y138622D01*
X221166Y138654D01*
X221123Y138734D01*
X221087Y138818D01*
X221061Y138850D01*
X221050Y138871D01*
X221027Y138893D01*
X220982Y138949D01*
X205339Y154592D01*
X203171Y156760D01*
X203171Y215437D01*
X203160Y215507D01*
X203158Y215579D01*
X203140Y215628D01*
X203132Y215679D01*
X203098Y215743D01*
X203073Y215810D01*
X203041Y215851D01*
X203016Y215897D01*
X202964Y215946D01*
X202920Y216002D01*
X202876Y216030D01*
X202838Y216066D01*
X202773Y216096D01*
X202713Y216135D01*
X202662Y216148D01*
X202615Y216170D01*
X202544Y216178D01*
X202474Y216195D01*
X202422Y216191D01*
X202371Y216197D01*
X202300Y216182D01*
X202229Y216176D01*
X202181Y216156D01*
X202130Y216145D01*
X202069Y216108D01*
X202003Y216080D01*
X201947Y216035D01*
X201919Y216019D01*
X201904Y216001D01*
X201872Y215975D01*
X201424Y215527D01*
X199280Y214639D01*
X196960Y214639D01*
X194816Y215527D01*
X193175Y217168D01*
X192287Y219312D01*
X192287Y221632D01*
X193175Y223776D01*
X194576Y225177D01*
X194629Y225251D01*
X194689Y225320D01*
X194701Y225351D01*
X194720Y225377D01*
X194747Y225464D01*
X194781Y225549D01*
X194785Y225590D01*
X194792Y225612D01*
X194791Y225644D01*
X194799Y225715D01*
X194799Y388961D01*
X194785Y389051D01*
X194777Y389142D01*
X194765Y389172D01*
X194760Y389204D01*
X194717Y389285D01*
X194681Y389368D01*
X194655Y389401D01*
X194644Y389421D01*
X194621Y389443D01*
X194576Y389499D01*
X186779Y397296D01*
X186706Y397349D01*
X186636Y397409D01*
X186606Y397421D01*
X186580Y397440D01*
X186493Y397467D01*
X186408Y397501D01*
X186367Y397505D01*
X186345Y397512D01*
X186312Y397511D01*
X186241Y397519D01*
X184260Y397519D01*
X182116Y398407D01*
X180475Y400048D01*
X179587Y402192D01*
X179587Y404512D01*
X180475Y406656D01*
X182116Y408297D01*
X184260Y409185D01*
X186580Y409185D01*
X188724Y408297D01*
X190365Y406656D01*
X191253Y404512D01*
X191253Y402531D01*
X191267Y402441D01*
X191275Y402350D01*
X191287Y402320D01*
X191292Y402288D01*
X191335Y402207D01*
X191371Y402124D01*
X191397Y402091D01*
X191408Y402071D01*
X191431Y402049D01*
X191476Y401993D01*
X201441Y392028D01*
X201441Y291293D01*
X201452Y291223D01*
X201454Y291151D01*
X201472Y291102D01*
X201480Y291051D01*
X201514Y290987D01*
X201539Y290920D01*
X201571Y290879D01*
X201596Y290833D01*
X201648Y290784D01*
X201692Y290728D01*
X201736Y290700D01*
X201774Y290664D01*
X201839Y290634D01*
X201899Y290595D01*
X201950Y290582D01*
X201997Y290560D01*
X202068Y290552D01*
X202138Y290535D01*
X202190Y290539D01*
X202241Y290533D01*
X202312Y290548D01*
X202383Y290554D01*
X202431Y290574D01*
X202482Y290585D01*
X202543Y290622D01*
X202609Y290650D01*
X202665Y290695D01*
X202693Y290711D01*
X202708Y290729D01*
X202740Y290755D01*
X203442Y291457D01*
X205586Y292345D01*
X207906Y292345D01*
X208517Y292092D01*
X208587Y292075D01*
X208654Y292050D01*
X208706Y292047D01*
X208757Y292035D01*
X208828Y292042D01*
X208900Y292039D01*
X208950Y292054D01*
X209002Y292059D01*
X209067Y292088D01*
X209136Y292108D01*
X209179Y292137D01*
X209226Y292159D01*
X209279Y292207D01*
X209338Y292248D01*
X209369Y292290D01*
X209407Y292325D01*
X209442Y292388D01*
X209485Y292445D01*
X209501Y292495D01*
X209526Y292540D01*
X209539Y292611D01*
X209561Y292679D01*
X209560Y292731D01*
X209570Y292782D01*
X209559Y292853D01*
X209559Y292855D01*
X209559Y295292D01*
X210447Y297436D01*
X212088Y299077D01*
X214232Y299965D01*
X216601Y299965D01*
X216664Y299945D01*
X216691Y299946D01*
X216716Y299940D01*
X216813Y299949D01*
X216910Y299952D01*
X216935Y299961D01*
X216961Y299963D01*
X217050Y300003D01*
X217141Y300036D01*
X217162Y300052D01*
X217186Y300063D01*
X217257Y300129D01*
X217333Y300190D01*
X217347Y300212D01*
X217367Y300229D01*
X217414Y300315D01*
X217466Y300397D01*
X217473Y300422D01*
X217485Y300445D01*
X217503Y300541D01*
X217526Y300635D01*
X217524Y300661D01*
X217529Y300687D01*
X217515Y300784D01*
X217507Y300880D01*
X217497Y300904D01*
X217493Y300930D01*
X217449Y301017D01*
X217411Y301107D01*
X217391Y301132D01*
X217382Y301150D01*
X217358Y301173D01*
X217306Y301238D01*
X210039Y308504D01*
X210039Y398617D01*
X210025Y398707D01*
X210017Y398798D01*
X210005Y398827D01*
X210000Y398859D01*
X209957Y398940D01*
X209921Y399024D01*
X209895Y399056D01*
X209884Y399077D01*
X209861Y399099D01*
X209816Y399155D01*
X208415Y400556D01*
X207527Y402700D01*
X207527Y405020D01*
X208415Y407164D01*
X210056Y408805D01*
X212200Y409693D01*
X214520Y409693D01*
X216664Y408805D01*
X218305Y407164D01*
X219193Y405020D01*
X219193Y404635D01*
X219196Y404615D01*
X219194Y404595D01*
X219216Y404494D01*
X219232Y404392D01*
X219242Y404374D01*
X219246Y404355D01*
X219299Y404266D01*
X219348Y404175D01*
X219362Y404161D01*
X219372Y404144D01*
X219451Y404076D01*
X219526Y404005D01*
X219544Y403997D01*
X219559Y403984D01*
X219655Y403945D01*
X219749Y403902D01*
X219769Y403899D01*
X219787Y403892D01*
X219954Y403873D01*
X265690Y403873D01*
X265697Y403866D01*
X265697Y327654D01*
X265690Y327647D01*
X265363Y327647D01*
X243758Y327647D01*
X243668Y327632D01*
X243577Y327625D01*
X243547Y327612D01*
X243515Y327607D01*
X243435Y327564D01*
X243351Y327528D01*
X243319Y327503D01*
X243298Y327492D01*
X243276Y327468D01*
X243220Y327424D01*
X239764Y323967D01*
X239711Y323893D01*
X239651Y323824D01*
X239639Y323794D01*
X239620Y323768D01*
X239593Y323681D01*
X239559Y323596D01*
X239555Y323555D01*
X239548Y323533D01*
X239549Y323500D01*
X239541Y323429D01*
X239541Y274483D01*
X239555Y274393D01*
X239563Y274302D01*
X239575Y274273D01*
X239580Y274241D01*
X239623Y274160D01*
X239659Y274076D01*
X239685Y274044D01*
X239696Y274023D01*
X239719Y274001D01*
X239764Y273945D01*
X241165Y272544D01*
X242053Y270400D01*
X242053Y268080D01*
X241740Y267324D01*
X241725Y267260D01*
X241700Y267199D01*
X241691Y267117D01*
X241684Y267085D01*
X241685Y267065D01*
X241682Y267033D01*
X241682Y259578D01*
X241685Y259558D01*
X241683Y259539D01*
X241705Y259437D01*
X241721Y259335D01*
X241731Y259318D01*
X241735Y259298D01*
X241788Y259209D01*
X241837Y259118D01*
X241851Y259104D01*
X241861Y259087D01*
X241940Y259020D01*
X242015Y258948D01*
X242033Y258940D01*
X242048Y258927D01*
X242144Y258888D01*
X242238Y258845D01*
X242258Y258843D01*
X242276Y258835D01*
X242443Y258817D01*
X242460Y258817D01*
X244604Y257929D01*
X246245Y256288D01*
X247133Y254144D01*
X247133Y251824D01*
X246245Y249680D01*
X244604Y248039D01*
X242460Y247151D01*
X240479Y247151D01*
X240389Y247137D01*
X240298Y247129D01*
X240268Y247117D01*
X240236Y247112D01*
X240155Y247069D01*
X240072Y247033D01*
X240039Y247007D01*
X240019Y246996D01*
X239997Y246973D01*
X239941Y246928D01*
X239764Y246751D01*
X239711Y246678D01*
X239651Y246608D01*
X239639Y246578D01*
X239620Y246552D01*
X239593Y246465D01*
X239559Y246380D01*
X239555Y246339D01*
X239548Y246317D01*
X239549Y246284D01*
X239541Y246213D01*
X239541Y182774D01*
X224750Y167983D01*
X224697Y167910D01*
X224637Y167840D01*
X224625Y167810D01*
X224606Y167784D01*
X224579Y167697D01*
X224545Y167612D01*
X224541Y167571D01*
X224534Y167549D01*
X224535Y167516D01*
X224527Y167445D01*
X224527Y165464D01*
X223639Y163320D01*
X221998Y161679D01*
X219854Y160791D01*
X217534Y160791D01*
X215390Y161679D01*
X213749Y163320D01*
X212861Y165464D01*
X212861Y167784D01*
X212920Y167927D01*
X212935Y167990D01*
X212960Y168051D01*
X212969Y168134D01*
X212976Y168166D01*
X212975Y168186D01*
X212978Y168218D01*
X212978Y183362D01*
X212968Y183426D01*
X212967Y183492D01*
X212944Y183572D01*
X212939Y183604D01*
X212929Y183621D01*
X212920Y183653D01*
X212353Y185022D01*
X212353Y187342D01*
X213241Y189486D01*
X214882Y191127D01*
X217026Y192015D01*
X219007Y192015D01*
X219097Y192029D01*
X219188Y192037D01*
X219218Y192049D01*
X219250Y192054D01*
X219331Y192097D01*
X219414Y192133D01*
X219447Y192159D01*
X219467Y192170D01*
X219489Y192193D01*
X219545Y192238D01*
X225056Y197749D01*
X225109Y197822D01*
X225169Y197892D01*
X225181Y197922D01*
X225200Y197948D01*
X225227Y198035D01*
X225261Y198120D01*
X225265Y198161D01*
X225272Y198183D01*
X225271Y198216D01*
X225279Y198287D01*
X225279Y292949D01*
X225265Y293039D01*
X225257Y293130D01*
X225245Y293160D01*
X225240Y293192D01*
X225197Y293272D01*
X225161Y293356D01*
X225135Y293389D01*
X225124Y293409D01*
X225101Y293431D01*
X225056Y293487D01*
X222498Y296046D01*
X222419Y296103D01*
X222344Y296165D01*
X222319Y296174D01*
X222298Y296190D01*
X222205Y296218D01*
X222114Y296253D01*
X222088Y296254D01*
X222063Y296262D01*
X221965Y296259D01*
X221868Y296264D01*
X221843Y296256D01*
X221817Y296256D01*
X221725Y296222D01*
X221632Y296195D01*
X221611Y296180D01*
X221586Y296171D01*
X221510Y296110D01*
X221430Y296055D01*
X221414Y296034D01*
X221394Y296017D01*
X221341Y295936D01*
X221283Y295857D01*
X221275Y295833D01*
X221261Y295811D01*
X221237Y295716D01*
X221207Y295624D01*
X221207Y295597D01*
X221201Y295572D01*
X221208Y295475D01*
X221209Y295378D01*
X221218Y295346D01*
X221220Y295327D01*
X221225Y295316D01*
X221225Y292972D01*
X220337Y290828D01*
X218696Y289187D01*
X216552Y288299D01*
X214232Y288299D01*
X213621Y288552D01*
X213551Y288569D01*
X213484Y288594D01*
X213432Y288597D01*
X213381Y288609D01*
X213310Y288602D01*
X213238Y288605D01*
X213188Y288590D01*
X213136Y288585D01*
X213071Y288556D01*
X213002Y288536D01*
X212959Y288507D01*
X212912Y288485D01*
X212859Y288437D01*
X212800Y288396D01*
X212769Y288354D01*
X212731Y288319D01*
X212696Y288256D01*
X212653Y288199D01*
X212637Y288149D01*
X212612Y288104D01*
X212599Y288033D01*
X212577Y287965D01*
X212578Y287913D01*
X212568Y287862D01*
X212579Y287791D01*
X212579Y287789D01*
X212579Y285352D01*
X211691Y283208D01*
X210036Y281553D01*
X209983Y281479D01*
X209923Y281410D01*
X209911Y281379D01*
X209892Y281353D01*
X209865Y281266D01*
X209831Y281181D01*
X209827Y281140D01*
X209820Y281118D01*
X209821Y281086D01*
X209813Y281015D01*
X209813Y159827D01*
X209827Y159736D01*
X209835Y159646D01*
X209847Y159616D01*
X209852Y159584D01*
X209895Y159503D01*
X209931Y159419D01*
X209957Y159387D01*
X209968Y159366D01*
X209991Y159344D01*
X210036Y159288D01*
X225679Y143645D01*
X227847Y141477D01*
X227847Y101265D01*
X227861Y101175D01*
X227869Y101084D01*
X227881Y101055D01*
X227886Y101023D01*
X227929Y100942D01*
X227965Y100858D01*
X227991Y100826D01*
X228002Y100805D01*
X228025Y100783D01*
X228070Y100727D01*
X229481Y99316D01*
X230369Y97172D01*
X230369Y94852D01*
X229481Y92708D01*
X227840Y91067D01*
X225696Y90179D01*
X223376Y90179D01*
G37*
%LPD*%
%LPC*%
G36*
X185520Y119125D02*
X185520Y119125D01*
X183376Y120013D01*
X181975Y121414D01*
X181901Y121467D01*
X181832Y121527D01*
X181801Y121539D01*
X181775Y121558D01*
X181688Y121585D01*
X181603Y121619D01*
X181562Y121623D01*
X181540Y121630D01*
X181508Y121629D01*
X181437Y121637D01*
X176160Y121637D01*
X169399Y128398D01*
X169399Y190373D01*
X169396Y190393D01*
X169398Y190412D01*
X169376Y190514D01*
X169360Y190616D01*
X169350Y190633D01*
X169346Y190653D01*
X169293Y190742D01*
X169244Y190833D01*
X169230Y190847D01*
X169220Y190864D01*
X169141Y190931D01*
X169066Y191003D01*
X169048Y191011D01*
X169033Y191024D01*
X168937Y191063D01*
X168843Y191106D01*
X168823Y191108D01*
X168805Y191116D01*
X168638Y191134D01*
X161060Y191134D01*
X160945Y191115D01*
X160829Y191098D01*
X160823Y191096D01*
X160817Y191095D01*
X160714Y191040D01*
X160610Y190987D01*
X160605Y190982D01*
X160600Y190979D01*
X160519Y190895D01*
X160437Y190811D01*
X160434Y190805D01*
X160430Y190801D01*
X160422Y190784D01*
X160419Y190779D01*
X158752Y189111D01*
X156608Y188223D01*
X154288Y188223D01*
X153991Y188346D01*
X153878Y188373D01*
X153764Y188402D01*
X153757Y188401D01*
X153751Y188402D01*
X153635Y188392D01*
X153518Y188382D01*
X153513Y188380D01*
X153506Y188379D01*
X153399Y188332D01*
X153292Y188286D01*
X153286Y188281D01*
X153282Y188279D01*
X153268Y188267D01*
X153161Y188181D01*
X150465Y185485D01*
X149979Y184999D01*
X149975Y184999D01*
X149872Y184944D01*
X149767Y184891D01*
X149763Y184886D01*
X149757Y184883D01*
X149677Y184799D01*
X149595Y184715D01*
X149591Y184709D01*
X149588Y184705D01*
X149580Y184688D01*
X149514Y184568D01*
X148709Y182624D01*
X147068Y180983D01*
X144924Y180095D01*
X142604Y180095D01*
X140460Y180983D01*
X138819Y182624D01*
X137931Y184768D01*
X137931Y186749D01*
X137917Y186839D01*
X137909Y186930D01*
X137897Y186960D01*
X137892Y186992D01*
X137849Y187073D01*
X137813Y187157D01*
X137787Y187189D01*
X137776Y187209D01*
X137753Y187232D01*
X137733Y187257D01*
X137729Y187262D01*
X137726Y187265D01*
X137708Y187287D01*
X127743Y197252D01*
X127743Y279709D01*
X127732Y279779D01*
X127730Y279851D01*
X127712Y279900D01*
X127704Y279951D01*
X127670Y280015D01*
X127645Y280082D01*
X127613Y280123D01*
X127588Y280169D01*
X127537Y280218D01*
X127492Y280274D01*
X127448Y280302D01*
X127410Y280338D01*
X127345Y280368D01*
X127285Y280407D01*
X127234Y280420D01*
X127187Y280442D01*
X127116Y280450D01*
X127046Y280467D01*
X126994Y280463D01*
X126943Y280469D01*
X126872Y280454D01*
X126801Y280448D01*
X126753Y280428D01*
X126702Y280417D01*
X126641Y280380D01*
X126575Y280352D01*
X126519Y280307D01*
X126491Y280291D01*
X126476Y280273D01*
X126444Y280247D01*
X126240Y280043D01*
X124096Y279155D01*
X121776Y279155D01*
X119632Y280043D01*
X117991Y281684D01*
X117103Y283828D01*
X117103Y286148D01*
X117991Y288292D01*
X119632Y289933D01*
X121776Y290821D01*
X124096Y290821D01*
X126240Y289933D01*
X126444Y289729D01*
X126502Y289687D01*
X126554Y289638D01*
X126601Y289616D01*
X126643Y289585D01*
X126712Y289564D01*
X126777Y289534D01*
X126829Y289528D01*
X126879Y289513D01*
X126950Y289515D01*
X127021Y289507D01*
X127072Y289518D01*
X127124Y289519D01*
X127192Y289544D01*
X127262Y289559D01*
X127307Y289586D01*
X127355Y289604D01*
X127411Y289649D01*
X127473Y289685D01*
X127507Y289725D01*
X127547Y289758D01*
X127586Y289818D01*
X127633Y289872D01*
X127652Y289921D01*
X127680Y289964D01*
X127698Y290034D01*
X127725Y290101D01*
X127733Y290172D01*
X127741Y290203D01*
X127739Y290226D01*
X127743Y290267D01*
X127743Y291015D01*
X127724Y291130D01*
X127707Y291246D01*
X127705Y291252D01*
X127704Y291258D01*
X127649Y291360D01*
X127596Y291465D01*
X127591Y291470D01*
X127588Y291475D01*
X127504Y291555D01*
X127420Y291638D01*
X127414Y291641D01*
X127410Y291645D01*
X127393Y291652D01*
X127273Y291718D01*
X127252Y291727D01*
X125611Y293368D01*
X124723Y295512D01*
X124723Y297832D01*
X125611Y299976D01*
X127252Y301617D01*
X129396Y302505D01*
X131716Y302505D01*
X133860Y301617D01*
X135501Y299976D01*
X136439Y297712D01*
X136490Y297629D01*
X136536Y297543D01*
X136555Y297525D01*
X136568Y297502D01*
X136643Y297440D01*
X136714Y297373D01*
X136738Y297362D01*
X136758Y297346D01*
X136849Y297311D01*
X136937Y297270D01*
X136963Y297267D01*
X136987Y297257D01*
X137085Y297253D01*
X137181Y297243D01*
X137207Y297248D01*
X137233Y297247D01*
X137327Y297274D01*
X137422Y297295D01*
X137444Y297308D01*
X137469Y297316D01*
X137549Y297371D01*
X137633Y297421D01*
X137650Y297441D01*
X137671Y297456D01*
X137730Y297534D01*
X137793Y297608D01*
X137803Y297632D01*
X137818Y297653D01*
X137848Y297746D01*
X137885Y297836D01*
X137888Y297869D01*
X137894Y297887D01*
X137894Y297920D01*
X137903Y298003D01*
X137903Y350974D01*
X137889Y351064D01*
X137881Y351155D01*
X137869Y351185D01*
X137864Y351217D01*
X137821Y351297D01*
X137785Y351381D01*
X137759Y351413D01*
X137748Y351434D01*
X137725Y351456D01*
X137680Y351512D01*
X122165Y367027D01*
X122165Y380319D01*
X122151Y380409D01*
X122143Y380500D01*
X122131Y380529D01*
X122126Y380561D01*
X122083Y380642D01*
X122047Y380726D01*
X122021Y380758D01*
X122010Y380779D01*
X121987Y380801D01*
X121942Y380857D01*
X120531Y382268D01*
X119643Y384412D01*
X119643Y386732D01*
X120531Y388876D01*
X122172Y390517D01*
X124316Y391405D01*
X126636Y391405D01*
X128780Y390517D01*
X130421Y388876D01*
X131309Y386732D01*
X131309Y384412D01*
X130421Y382268D01*
X129030Y380877D01*
X128977Y380803D01*
X128917Y380734D01*
X128905Y380703D01*
X128886Y380677D01*
X128859Y380590D01*
X128825Y380505D01*
X128821Y380464D01*
X128814Y380442D01*
X128815Y380410D01*
X128807Y380339D01*
X128807Y370094D01*
X128821Y370003D01*
X128829Y369913D01*
X128841Y369883D01*
X128846Y369851D01*
X128889Y369770D01*
X128925Y369686D01*
X128951Y369654D01*
X128962Y369633D01*
X128985Y369611D01*
X129030Y369555D01*
X131044Y367541D01*
X131102Y367499D01*
X131154Y367450D01*
X131201Y367428D01*
X131243Y367398D01*
X131312Y367377D01*
X131377Y367346D01*
X131429Y367341D01*
X131479Y367325D01*
X131550Y367327D01*
X131621Y367319D01*
X131672Y367330D01*
X131724Y367332D01*
X131792Y367356D01*
X131862Y367372D01*
X131907Y367398D01*
X131955Y367416D01*
X132011Y367461D01*
X132073Y367498D01*
X132107Y367537D01*
X132147Y367570D01*
X132186Y367630D01*
X132233Y367685D01*
X132252Y367733D01*
X132280Y367777D01*
X132298Y367846D01*
X132325Y367913D01*
X132333Y367984D01*
X132341Y368015D01*
X132339Y368039D01*
X132343Y368080D01*
X132343Y369968D01*
X133231Y372112D01*
X134872Y373753D01*
X137016Y374641D01*
X139336Y374641D01*
X141480Y373753D01*
X143121Y372112D01*
X144009Y369968D01*
X144009Y367987D01*
X144023Y367897D01*
X144031Y367806D01*
X144043Y367776D01*
X144048Y367744D01*
X144091Y367664D01*
X144127Y367580D01*
X144153Y367547D01*
X144164Y367527D01*
X144187Y367505D01*
X144232Y367449D01*
X147780Y363900D01*
X147838Y363859D01*
X147890Y363809D01*
X147937Y363787D01*
X147979Y363757D01*
X148048Y363736D01*
X148113Y363706D01*
X148165Y363700D01*
X148215Y363685D01*
X148286Y363686D01*
X148357Y363679D01*
X148408Y363690D01*
X148460Y363691D01*
X148528Y363716D01*
X148598Y363731D01*
X148643Y363758D01*
X148691Y363775D01*
X148747Y363820D01*
X148809Y363857D01*
X148843Y363897D01*
X148883Y363929D01*
X148922Y363989D01*
X148969Y364044D01*
X148988Y364092D01*
X149016Y364136D01*
X149034Y364205D01*
X149061Y364272D01*
X149069Y364343D01*
X149077Y364375D01*
X149075Y364398D01*
X149079Y364439D01*
X149079Y396077D01*
X149065Y396167D01*
X149057Y396258D01*
X149045Y396287D01*
X149040Y396319D01*
X148997Y396400D01*
X148961Y396484D01*
X148935Y396516D01*
X148924Y396537D01*
X148901Y396559D01*
X148856Y396615D01*
X147455Y398016D01*
X146567Y400160D01*
X146567Y402480D01*
X147455Y404624D01*
X149096Y406265D01*
X151240Y407153D01*
X153560Y407153D01*
X155704Y406265D01*
X157345Y404624D01*
X158233Y402480D01*
X158233Y400160D01*
X157345Y398016D01*
X155944Y396615D01*
X155896Y396548D01*
X155891Y396543D01*
X155889Y396540D01*
X155831Y396472D01*
X155819Y396441D01*
X155800Y396415D01*
X155773Y396328D01*
X155739Y396243D01*
X155735Y396202D01*
X155728Y396180D01*
X155729Y396148D01*
X155721Y396077D01*
X155721Y357308D01*
X155732Y357237D01*
X155734Y357165D01*
X155752Y357116D01*
X155760Y357065D01*
X155794Y357001D01*
X155819Y356934D01*
X155851Y356893D01*
X155876Y356847D01*
X155927Y356798D01*
X155972Y356742D01*
X156016Y356714D01*
X156054Y356678D01*
X156119Y356648D01*
X156179Y356609D01*
X156230Y356596D01*
X156277Y356574D01*
X156348Y356566D01*
X156418Y356549D01*
X156470Y356553D01*
X156521Y356547D01*
X156592Y356563D01*
X156663Y356568D01*
X156711Y356588D01*
X156762Y356600D01*
X156823Y356636D01*
X156889Y356664D01*
X156945Y356709D01*
X156973Y356726D01*
X156988Y356744D01*
X157020Y356769D01*
X157172Y356921D01*
X159316Y357809D01*
X161636Y357809D01*
X163780Y356921D01*
X165421Y355280D01*
X166309Y353136D01*
X166309Y350816D01*
X165421Y348672D01*
X163780Y347032D01*
X161636Y346144D01*
X159316Y346144D01*
X157172Y347032D01*
X157020Y347183D01*
X156962Y347225D01*
X156910Y347274D01*
X156888Y347285D01*
X156887Y347285D01*
X156863Y347296D01*
X156821Y347327D01*
X156752Y347348D01*
X156687Y347378D01*
X156635Y347384D01*
X156585Y347399D01*
X156514Y347397D01*
X156443Y347405D01*
X156392Y347394D01*
X156340Y347393D01*
X156272Y347368D01*
X156202Y347353D01*
X156157Y347326D01*
X156109Y347308D01*
X156053Y347264D01*
X155991Y347227D01*
X155957Y347187D01*
X155917Y347155D01*
X155878Y347094D01*
X155831Y347040D01*
X155812Y346991D01*
X155784Y346948D01*
X155766Y346878D01*
X155759Y346861D01*
X155749Y346839D01*
X155748Y346834D01*
X155739Y346812D01*
X155731Y346740D01*
X155723Y346709D01*
X155725Y346686D01*
X155721Y346645D01*
X155721Y262041D01*
X155735Y261951D01*
X155743Y261860D01*
X155755Y261830D01*
X155760Y261798D01*
X155803Y261717D01*
X155839Y261634D01*
X155865Y261601D01*
X155876Y261581D01*
X155899Y261559D01*
X155944Y261503D01*
X168821Y248626D01*
X168894Y248573D01*
X168964Y248513D01*
X168994Y248501D01*
X169020Y248482D01*
X169107Y248455D01*
X169192Y248421D01*
X169233Y248417D01*
X169255Y248410D01*
X169288Y248411D01*
X169359Y248403D01*
X171340Y248403D01*
X173484Y247515D01*
X175125Y245874D01*
X176013Y243730D01*
X176013Y243434D01*
X176027Y243344D01*
X176035Y243253D01*
X176047Y243224D01*
X176052Y243192D01*
X176095Y243111D01*
X176131Y243027D01*
X176150Y243004D01*
X176150Y232718D01*
X176164Y232628D01*
X176172Y232537D01*
X176184Y232508D01*
X176189Y232476D01*
X176232Y232395D01*
X176268Y232311D01*
X176294Y232279D01*
X176305Y232258D01*
X176328Y232236D01*
X176373Y232180D01*
X177665Y230888D01*
X178553Y228744D01*
X178553Y226424D01*
X177665Y224280D01*
X176373Y222988D01*
X176320Y222914D01*
X176260Y222845D01*
X176248Y222814D01*
X176229Y222788D01*
X176202Y222701D01*
X176168Y222616D01*
X176164Y222575D01*
X176157Y222553D01*
X176158Y222521D01*
X176150Y222450D01*
X176150Y191325D01*
X176139Y191298D01*
X176120Y191272D01*
X176093Y191185D01*
X176059Y191100D01*
X176055Y191059D01*
X176048Y191037D01*
X176049Y191005D01*
X176041Y190934D01*
X176041Y131465D01*
X176055Y131375D01*
X176063Y131284D01*
X176075Y131254D01*
X176080Y131222D01*
X176123Y131141D01*
X176159Y131058D01*
X176185Y131025D01*
X176196Y131005D01*
X176219Y130983D01*
X176264Y130927D01*
X178689Y128502D01*
X178762Y128449D01*
X178832Y128389D01*
X178862Y128377D01*
X178888Y128358D01*
X178975Y128331D01*
X179060Y128297D01*
X179101Y128293D01*
X179123Y128286D01*
X179156Y128287D01*
X179227Y128279D01*
X181437Y128279D01*
X181527Y128293D01*
X181618Y128301D01*
X181647Y128313D01*
X181679Y128318D01*
X181760Y128361D01*
X181844Y128397D01*
X181876Y128423D01*
X181897Y128434D01*
X181919Y128457D01*
X181975Y128502D01*
X183376Y129903D01*
X185520Y130791D01*
X187840Y130791D01*
X189984Y129903D01*
X191625Y128262D01*
X192513Y126118D01*
X192513Y123798D01*
X191625Y121654D01*
X189984Y120013D01*
X187840Y119125D01*
X185520Y119125D01*
G37*
%LPD*%
%LPC*%
G36*
X291093Y233788D02*
X291093Y233788D01*
X289668Y235213D01*
X289668Y260087D01*
X291093Y261512D01*
X294114Y261512D01*
X294134Y261515D01*
X294153Y261513D01*
X294255Y261535D01*
X294357Y261551D01*
X294374Y261561D01*
X294394Y261565D01*
X294483Y261618D01*
X294574Y261667D01*
X294588Y261681D01*
X294605Y261691D01*
X294672Y261770D01*
X294744Y261845D01*
X294752Y261863D01*
X294765Y261878D01*
X294804Y261974D01*
X294847Y262068D01*
X294849Y262088D01*
X294857Y262106D01*
X294875Y262273D01*
X294875Y332214D01*
X294861Y332304D01*
X294853Y332395D01*
X294841Y332425D01*
X294836Y332457D01*
X294793Y332537D01*
X294757Y332621D01*
X294731Y332653D01*
X294720Y332674D01*
X294697Y332696D01*
X294652Y332752D01*
X270745Y356659D01*
X270745Y383631D01*
X270731Y383721D01*
X270723Y383812D01*
X270711Y383841D01*
X270706Y383873D01*
X270663Y383954D01*
X270627Y384038D01*
X270601Y384070D01*
X270590Y384091D01*
X270567Y384113D01*
X270522Y384169D01*
X269375Y385316D01*
X268487Y387460D01*
X268487Y389780D01*
X269375Y391924D01*
X271016Y393565D01*
X273160Y394453D01*
X275480Y394453D01*
X277313Y393694D01*
X277357Y393683D01*
X277399Y393664D01*
X277476Y393655D01*
X277552Y393638D01*
X277598Y393642D01*
X277643Y393637D01*
X277720Y393653D01*
X277797Y393661D01*
X277839Y393679D01*
X277884Y393689D01*
X277951Y393729D01*
X278022Y393761D01*
X278056Y393792D01*
X278095Y393815D01*
X278146Y393874D01*
X278203Y393927D01*
X278225Y393967D01*
X278255Y394002D01*
X278284Y394074D01*
X278321Y394143D01*
X278330Y394188D01*
X278347Y394230D01*
X278362Y394366D01*
X278365Y394385D01*
X278364Y394390D01*
X278365Y394397D01*
X278365Y453227D01*
X278363Y453239D01*
X278364Y453248D01*
X278354Y453296D01*
X278351Y453317D01*
X278343Y453408D01*
X278331Y453437D01*
X278326Y453469D01*
X278283Y453550D01*
X278247Y453634D01*
X278221Y453666D01*
X278210Y453687D01*
X278187Y453709D01*
X278142Y453765D01*
X276995Y454912D01*
X276107Y457056D01*
X276107Y459376D01*
X276995Y461520D01*
X278636Y463161D01*
X280780Y464049D01*
X283100Y464049D01*
X285244Y463161D01*
X286885Y461520D01*
X287773Y459376D01*
X287773Y457056D01*
X286885Y454912D01*
X285738Y453765D01*
X285685Y453691D01*
X285625Y453622D01*
X285613Y453591D01*
X285594Y453565D01*
X285567Y453478D01*
X285533Y453393D01*
X285529Y453352D01*
X285522Y453330D01*
X285523Y453298D01*
X285515Y453227D01*
X285515Y426339D01*
X285518Y426319D01*
X285516Y426300D01*
X285538Y426198D01*
X285554Y426096D01*
X285564Y426079D01*
X285568Y426059D01*
X285621Y425970D01*
X285670Y425879D01*
X285684Y425865D01*
X285694Y425848D01*
X285773Y425781D01*
X285848Y425709D01*
X285866Y425701D01*
X285881Y425688D01*
X285977Y425649D01*
X286071Y425606D01*
X286091Y425604D01*
X286109Y425596D01*
X286276Y425578D01*
X295892Y425578D01*
X295912Y425581D01*
X295931Y425579D01*
X296033Y425601D01*
X296135Y425617D01*
X296152Y425627D01*
X296172Y425631D01*
X296261Y425684D01*
X296352Y425733D01*
X296366Y425747D01*
X296383Y425757D01*
X296450Y425836D01*
X296522Y425911D01*
X296530Y425929D01*
X296543Y425944D01*
X296582Y426040D01*
X296625Y426134D01*
X296627Y426154D01*
X296635Y426172D01*
X296653Y426339D01*
X296653Y523476D01*
X296639Y523566D01*
X296631Y523657D01*
X296619Y523687D01*
X296614Y523719D01*
X296571Y523799D01*
X296535Y523883D01*
X296509Y523915D01*
X296498Y523936D01*
X296475Y523958D01*
X296430Y524014D01*
X287992Y532452D01*
X287918Y532505D01*
X287849Y532565D01*
X287819Y532577D01*
X287792Y532596D01*
X287706Y532623D01*
X287621Y532657D01*
X287580Y532661D01*
X287557Y532668D01*
X287525Y532667D01*
X287454Y532675D01*
X285832Y532675D01*
X283688Y533563D01*
X282047Y535204D01*
X281159Y537348D01*
X281159Y539668D01*
X282047Y541812D01*
X283688Y543453D01*
X285832Y544341D01*
X288152Y544341D01*
X290296Y543453D01*
X291937Y541812D01*
X292825Y539668D01*
X292825Y538046D01*
X292839Y537956D01*
X292847Y537865D01*
X292859Y537835D01*
X292864Y537803D01*
X292907Y537723D01*
X292943Y537639D01*
X292969Y537607D01*
X292980Y537586D01*
X293003Y537564D01*
X293048Y537508D01*
X301704Y528852D01*
X301762Y528810D01*
X301814Y528760D01*
X301861Y528739D01*
X301903Y528708D01*
X301972Y528687D01*
X302037Y528657D01*
X302089Y528651D01*
X302139Y528636D01*
X302210Y528638D01*
X302281Y528630D01*
X302332Y528641D01*
X302384Y528642D01*
X302452Y528667D01*
X302522Y528682D01*
X302567Y528709D01*
X302615Y528727D01*
X302671Y528771D01*
X302733Y528808D01*
X302767Y528848D01*
X302807Y528880D01*
X302846Y528941D01*
X302893Y528995D01*
X302912Y529043D01*
X302940Y529087D01*
X302958Y529157D01*
X302985Y529223D01*
X302993Y529295D01*
X303001Y529326D01*
X302999Y529349D01*
X303003Y529390D01*
X303003Y532221D01*
X302989Y532311D01*
X302981Y532402D01*
X302969Y532431D01*
X302964Y532463D01*
X302921Y532544D01*
X302885Y532628D01*
X302859Y532660D01*
X302848Y532681D01*
X302825Y532703D01*
X302780Y532759D01*
X301379Y534160D01*
X300491Y536304D01*
X300491Y538624D01*
X301379Y540768D01*
X303020Y542409D01*
X305164Y543297D01*
X307484Y543297D01*
X309628Y542409D01*
X311269Y540768D01*
X312157Y538624D01*
X312157Y536304D01*
X311269Y534160D01*
X309868Y532759D01*
X309815Y532685D01*
X309755Y532616D01*
X309743Y532585D01*
X309724Y532559D01*
X309697Y532472D01*
X309663Y532387D01*
X309659Y532346D01*
X309652Y532324D01*
X309653Y532292D01*
X309645Y532221D01*
X309645Y482291D01*
X309656Y482221D01*
X309658Y482149D01*
X309676Y482100D01*
X309684Y482049D01*
X309718Y481985D01*
X309743Y481918D01*
X309775Y481877D01*
X309800Y481831D01*
X309852Y481782D01*
X309896Y481726D01*
X309940Y481698D01*
X309978Y481662D01*
X310043Y481632D01*
X310103Y481593D01*
X310154Y481580D01*
X310201Y481558D01*
X310272Y481550D01*
X310342Y481533D01*
X310394Y481537D01*
X310445Y481531D01*
X310516Y481546D01*
X310587Y481552D01*
X310635Y481572D01*
X310686Y481583D01*
X310747Y481620D01*
X310813Y481648D01*
X310869Y481693D01*
X310897Y481709D01*
X310912Y481727D01*
X310944Y481753D01*
X312672Y483481D01*
X314816Y484369D01*
X317136Y484369D01*
X319280Y483481D01*
X320921Y481840D01*
X321809Y479696D01*
X321809Y477376D01*
X320921Y475232D01*
X319280Y473591D01*
X317136Y472703D01*
X314816Y472703D01*
X312672Y473591D01*
X310944Y475319D01*
X310886Y475361D01*
X310834Y475410D01*
X310787Y475432D01*
X310745Y475463D01*
X310676Y475484D01*
X310611Y475514D01*
X310559Y475520D01*
X310509Y475535D01*
X310438Y475533D01*
X310367Y475541D01*
X310316Y475530D01*
X310264Y475529D01*
X310196Y475504D01*
X310126Y475489D01*
X310081Y475462D01*
X310033Y475444D01*
X309977Y475399D01*
X309915Y475363D01*
X309881Y475323D01*
X309841Y475290D01*
X309802Y475230D01*
X309755Y475176D01*
X309736Y475127D01*
X309708Y475083D01*
X309690Y475014D01*
X309663Y474947D01*
X309655Y474876D01*
X309647Y474845D01*
X309649Y474822D01*
X309645Y474781D01*
X309645Y464511D01*
X309656Y464441D01*
X309658Y464369D01*
X309676Y464320D01*
X309684Y464269D01*
X309718Y464205D01*
X309743Y464138D01*
X309775Y464097D01*
X309800Y464051D01*
X309852Y464002D01*
X309896Y463946D01*
X309940Y463918D01*
X309978Y463882D01*
X310043Y463852D01*
X310103Y463813D01*
X310154Y463800D01*
X310201Y463778D01*
X310272Y463770D01*
X310342Y463753D01*
X310394Y463757D01*
X310445Y463751D01*
X310516Y463766D01*
X310587Y463772D01*
X310635Y463792D01*
X310686Y463803D01*
X310747Y463840D01*
X310813Y463868D01*
X310869Y463913D01*
X310897Y463929D01*
X310912Y463947D01*
X310944Y463973D01*
X312672Y465701D01*
X314816Y466589D01*
X317136Y466589D01*
X319280Y465701D01*
X320921Y464060D01*
X321809Y461916D01*
X321809Y459596D01*
X320921Y457452D01*
X319280Y455811D01*
X317136Y454923D01*
X314816Y454923D01*
X312672Y455811D01*
X310944Y457539D01*
X310886Y457581D01*
X310834Y457630D01*
X310787Y457652D01*
X310745Y457683D01*
X310676Y457704D01*
X310611Y457734D01*
X310559Y457740D01*
X310509Y457755D01*
X310438Y457753D01*
X310367Y457761D01*
X310316Y457750D01*
X310264Y457749D01*
X310196Y457724D01*
X310126Y457709D01*
X310081Y457682D01*
X310033Y457664D01*
X309977Y457619D01*
X309915Y457583D01*
X309881Y457543D01*
X309841Y457510D01*
X309802Y457450D01*
X309755Y457396D01*
X309736Y457347D01*
X309708Y457303D01*
X309690Y457234D01*
X309663Y457167D01*
X309655Y457096D01*
X309647Y457065D01*
X309649Y457042D01*
X309645Y457001D01*
X309645Y388257D01*
X309648Y388237D01*
X309646Y388218D01*
X309668Y388116D01*
X309684Y388014D01*
X309694Y387997D01*
X309698Y387977D01*
X309751Y387888D01*
X309800Y387797D01*
X309814Y387783D01*
X309824Y387766D01*
X309903Y387699D01*
X309978Y387627D01*
X309996Y387619D01*
X310011Y387606D01*
X310107Y387567D01*
X310201Y387524D01*
X310221Y387522D01*
X310239Y387514D01*
X310406Y387496D01*
X313427Y387496D01*
X314852Y386071D01*
X314852Y369833D01*
X313427Y368408D01*
X286276Y368408D01*
X286256Y368405D01*
X286237Y368407D01*
X286135Y368385D01*
X286033Y368369D01*
X286016Y368359D01*
X285996Y368355D01*
X285907Y368302D01*
X285816Y368253D01*
X285802Y368239D01*
X285785Y368229D01*
X285718Y368150D01*
X285646Y368075D01*
X285638Y368057D01*
X285625Y368042D01*
X285586Y367946D01*
X285543Y367852D01*
X285541Y367832D01*
X285533Y367814D01*
X285515Y367647D01*
X285515Y362476D01*
X285529Y362386D01*
X285537Y362295D01*
X285549Y362265D01*
X285554Y362233D01*
X285597Y362153D01*
X285633Y362069D01*
X285659Y362037D01*
X285670Y362016D01*
X285693Y361994D01*
X285738Y361938D01*
X308375Y339301D01*
X308375Y262273D01*
X308378Y262253D01*
X308376Y262234D01*
X308398Y262132D01*
X308414Y262030D01*
X308424Y262013D01*
X308428Y261993D01*
X308481Y261904D01*
X308530Y261813D01*
X308544Y261799D01*
X308554Y261782D01*
X308633Y261715D01*
X308708Y261643D01*
X308726Y261635D01*
X308741Y261622D01*
X308837Y261583D01*
X308931Y261540D01*
X308951Y261538D01*
X308969Y261530D01*
X309136Y261512D01*
X315967Y261512D01*
X317392Y260087D01*
X317392Y235213D01*
X315967Y233788D01*
X291093Y233788D01*
G37*
%LPD*%
%LPC*%
G36*
X117712Y71891D02*
X117712Y71891D01*
X115568Y72779D01*
X113927Y74420D01*
X113039Y76564D01*
X113039Y78545D01*
X113025Y78635D01*
X113017Y78726D01*
X113005Y78756D01*
X113000Y78788D01*
X112957Y78869D01*
X112921Y78952D01*
X112895Y78985D01*
X112884Y79005D01*
X112861Y79027D01*
X112816Y79083D01*
X93199Y98700D01*
X93199Y163840D01*
X93192Y163885D01*
X93194Y163931D01*
X93172Y164006D01*
X93160Y164083D01*
X93138Y164123D01*
X93125Y164168D01*
X93081Y164232D01*
X93044Y164300D01*
X93011Y164332D01*
X92985Y164370D01*
X92923Y164416D01*
X92866Y164470D01*
X92824Y164489D01*
X92788Y164516D01*
X92714Y164541D01*
X92643Y164573D01*
X92597Y164578D01*
X92554Y164593D01*
X92476Y164592D01*
X92399Y164600D01*
X92354Y164591D01*
X92308Y164590D01*
X92176Y164552D01*
X92158Y164548D01*
X92154Y164546D01*
X92147Y164544D01*
X90060Y163679D01*
X87740Y163679D01*
X85596Y164567D01*
X83955Y166208D01*
X83067Y168352D01*
X83067Y170672D01*
X83955Y172816D01*
X85356Y174217D01*
X85409Y174291D01*
X85469Y174360D01*
X85481Y174391D01*
X85500Y174417D01*
X85527Y174504D01*
X85561Y174589D01*
X85565Y174630D01*
X85572Y174652D01*
X85571Y174684D01*
X85579Y174755D01*
X85579Y223212D01*
X100596Y238229D01*
X100649Y238302D01*
X100709Y238372D01*
X100721Y238402D01*
X100740Y238428D01*
X100767Y238515D01*
X100801Y238600D01*
X100805Y238641D01*
X100812Y238663D01*
X100811Y238696D01*
X100819Y238767D01*
X100819Y475833D01*
X100805Y475923D01*
X100797Y476014D01*
X100785Y476043D01*
X100780Y476075D01*
X100737Y476156D01*
X100701Y476240D01*
X100675Y476272D01*
X100664Y476293D01*
X100641Y476315D01*
X100596Y476371D01*
X99195Y477772D01*
X98307Y479916D01*
X98307Y482236D01*
X99195Y484380D01*
X100836Y486021D01*
X102980Y486909D01*
X105300Y486909D01*
X107474Y486008D01*
X107504Y485980D01*
X107551Y485958D01*
X107593Y485928D01*
X107662Y485906D01*
X107727Y485876D01*
X107779Y485870D01*
X107828Y485855D01*
X107900Y485857D01*
X107971Y485849D01*
X108022Y485860D01*
X108074Y485861D01*
X108142Y485886D01*
X108212Y485901D01*
X108256Y485928D01*
X108305Y485946D01*
X108361Y485991D01*
X108423Y486027D01*
X108457Y486067D01*
X108497Y486099D01*
X108536Y486160D01*
X108583Y486214D01*
X108602Y486263D01*
X108630Y486306D01*
X108648Y486376D01*
X108675Y486443D01*
X108683Y486514D01*
X108691Y486545D01*
X108689Y486568D01*
X108693Y486609D01*
X108693Y540603D01*
X108679Y540693D01*
X108671Y540784D01*
X108659Y540813D01*
X108654Y540845D01*
X108611Y540926D01*
X108575Y541010D01*
X108549Y541042D01*
X108538Y541063D01*
X108515Y541085D01*
X108470Y541141D01*
X107323Y542288D01*
X106435Y544432D01*
X106435Y546752D01*
X107323Y548896D01*
X108964Y550537D01*
X111108Y551425D01*
X113428Y551425D01*
X115572Y550537D01*
X117213Y548896D01*
X118101Y546752D01*
X118101Y544432D01*
X117213Y542288D01*
X116066Y541141D01*
X116013Y541067D01*
X115953Y540998D01*
X115941Y540967D01*
X115922Y540941D01*
X115895Y540854D01*
X115861Y540769D01*
X115857Y540728D01*
X115850Y540706D01*
X115851Y540674D01*
X115843Y540603D01*
X115843Y463205D01*
X115857Y463115D01*
X115865Y463024D01*
X115877Y462995D01*
X115882Y462963D01*
X115925Y462882D01*
X115961Y462798D01*
X115987Y462766D01*
X115998Y462745D01*
X116021Y462723D01*
X116066Y462667D01*
X117213Y461520D01*
X118101Y459376D01*
X118101Y457056D01*
X117213Y454912D01*
X115572Y453271D01*
X113428Y452383D01*
X111108Y452383D01*
X108964Y453271D01*
X108760Y453475D01*
X108702Y453517D01*
X108650Y453566D01*
X108603Y453588D01*
X108561Y453619D01*
X108492Y453640D01*
X108427Y453670D01*
X108375Y453676D01*
X108325Y453691D01*
X108254Y453689D01*
X108183Y453697D01*
X108132Y453686D01*
X108080Y453685D01*
X108012Y453660D01*
X107942Y453645D01*
X107897Y453618D01*
X107849Y453600D01*
X107793Y453555D01*
X107731Y453519D01*
X107697Y453479D01*
X107657Y453446D01*
X107618Y453386D01*
X107571Y453332D01*
X107552Y453283D01*
X107524Y453240D01*
X107506Y453170D01*
X107479Y453103D01*
X107471Y453032D01*
X107463Y453001D01*
X107465Y452978D01*
X107461Y452937D01*
X107461Y260031D01*
X107472Y259961D01*
X107474Y259889D01*
X107492Y259840D01*
X107500Y259789D01*
X107534Y259725D01*
X107559Y259658D01*
X107591Y259617D01*
X107616Y259571D01*
X107668Y259522D01*
X107712Y259466D01*
X107756Y259438D01*
X107794Y259402D01*
X107859Y259372D01*
X107919Y259333D01*
X107970Y259320D01*
X108017Y259298D01*
X108088Y259290D01*
X108158Y259273D01*
X108210Y259277D01*
X108261Y259271D01*
X108332Y259286D01*
X108403Y259292D01*
X108451Y259312D01*
X108502Y259323D01*
X108563Y259360D01*
X108629Y259388D01*
X108685Y259433D01*
X108713Y259449D01*
X108728Y259467D01*
X108760Y259493D01*
X109604Y260337D01*
X111748Y261225D01*
X114068Y261225D01*
X116212Y260337D01*
X117853Y258696D01*
X118741Y256552D01*
X118741Y254232D01*
X117853Y252088D01*
X116212Y250447D01*
X114068Y249559D01*
X111748Y249559D01*
X109604Y250447D01*
X108760Y251291D01*
X108702Y251333D01*
X108650Y251382D01*
X108603Y251404D01*
X108561Y251435D01*
X108492Y251456D01*
X108427Y251486D01*
X108375Y251492D01*
X108325Y251507D01*
X108254Y251505D01*
X108183Y251513D01*
X108132Y251502D01*
X108080Y251501D01*
X108012Y251476D01*
X107942Y251461D01*
X107897Y251434D01*
X107849Y251416D01*
X107793Y251371D01*
X107731Y251335D01*
X107697Y251295D01*
X107657Y251262D01*
X107618Y251202D01*
X107571Y251148D01*
X107552Y251099D01*
X107524Y251055D01*
X107506Y250986D01*
X107479Y250919D01*
X107471Y250848D01*
X107463Y250817D01*
X107465Y250794D01*
X107461Y250753D01*
X107461Y235700D01*
X97321Y225561D01*
X97294Y225524D01*
X97260Y225492D01*
X97223Y225424D01*
X97177Y225361D01*
X97164Y225317D01*
X97142Y225277D01*
X97128Y225200D01*
X97105Y225126D01*
X97106Y225080D01*
X97098Y225035D01*
X97109Y224958D01*
X97111Y224880D01*
X97127Y224837D01*
X97134Y224792D01*
X97169Y224722D01*
X97196Y224649D01*
X97225Y224613D01*
X97245Y224572D01*
X97301Y224518D01*
X97350Y224457D01*
X97388Y224432D01*
X97421Y224400D01*
X97541Y224334D01*
X97557Y224324D01*
X97561Y224323D01*
X97568Y224319D01*
X99824Y223385D01*
X101465Y221744D01*
X102353Y219600D01*
X102353Y217280D01*
X101465Y215136D01*
X100064Y213735D01*
X100011Y213661D01*
X99951Y213592D01*
X99939Y213561D01*
X99920Y213535D01*
X99893Y213448D01*
X99859Y213363D01*
X99855Y213322D01*
X99848Y213300D01*
X99849Y213268D01*
X99841Y213197D01*
X99841Y203409D01*
X99852Y203339D01*
X99854Y203267D01*
X99872Y203218D01*
X99880Y203167D01*
X99914Y203103D01*
X99939Y203036D01*
X99971Y202995D01*
X99996Y202949D01*
X100048Y202900D01*
X100092Y202844D01*
X100136Y202816D01*
X100174Y202780D01*
X100239Y202750D01*
X100299Y202711D01*
X100350Y202698D01*
X100397Y202676D01*
X100468Y202668D01*
X100538Y202651D01*
X100590Y202655D01*
X100641Y202649D01*
X100712Y202664D01*
X100783Y202670D01*
X100831Y202690D01*
X100882Y202701D01*
X100943Y202738D01*
X101009Y202766D01*
X101065Y202811D01*
X101093Y202827D01*
X101108Y202845D01*
X101140Y202871D01*
X101842Y203573D01*
X103986Y204461D01*
X106306Y204461D01*
X108450Y203573D01*
X110091Y201932D01*
X110979Y199788D01*
X110979Y197468D01*
X110091Y195324D01*
X108450Y193683D01*
X106306Y192795D01*
X103986Y192795D01*
X101842Y193683D01*
X101140Y194385D01*
X101082Y194427D01*
X101030Y194476D01*
X100983Y194498D01*
X100941Y194529D01*
X100872Y194550D01*
X100807Y194580D01*
X100755Y194586D01*
X100705Y194601D01*
X100634Y194599D01*
X100563Y194607D01*
X100512Y194596D01*
X100460Y194595D01*
X100392Y194570D01*
X100322Y194555D01*
X100277Y194528D01*
X100229Y194510D01*
X100173Y194465D01*
X100111Y194429D01*
X100077Y194389D01*
X100037Y194356D01*
X99998Y194296D01*
X99951Y194242D01*
X99932Y194193D01*
X99904Y194149D01*
X99886Y194080D01*
X99859Y194013D01*
X99851Y193942D01*
X99843Y193911D01*
X99845Y193888D01*
X99841Y193847D01*
X99841Y101767D01*
X99855Y101677D01*
X99863Y101586D01*
X99875Y101556D01*
X99880Y101524D01*
X99923Y101443D01*
X99959Y101360D01*
X99985Y101327D01*
X99996Y101307D01*
X100019Y101285D01*
X100064Y101229D01*
X117513Y83780D01*
X117586Y83727D01*
X117656Y83667D01*
X117686Y83655D01*
X117712Y83636D01*
X117799Y83609D01*
X117884Y83575D01*
X117925Y83571D01*
X117947Y83564D01*
X117980Y83565D01*
X118051Y83557D01*
X120032Y83557D01*
X122176Y82669D01*
X123817Y81028D01*
X124705Y78884D01*
X124705Y76564D01*
X123817Y74420D01*
X122176Y72779D01*
X120032Y71891D01*
X117712Y71891D01*
G37*
%LPD*%
G36*
X324365Y10926D02*
X324365Y10926D01*
X324385Y10924D01*
X324486Y10946D01*
X324588Y10962D01*
X324606Y10972D01*
X324625Y10976D01*
X324714Y11029D01*
X324805Y11078D01*
X324819Y11092D01*
X324836Y11102D01*
X324904Y11181D01*
X324975Y11256D01*
X324983Y11274D01*
X324996Y11289D01*
X325035Y11385D01*
X325078Y11479D01*
X325081Y11499D01*
X325088Y11517D01*
X325107Y11684D01*
X325107Y74658D01*
X325103Y74678D01*
X325106Y74697D01*
X325084Y74799D01*
X325067Y74901D01*
X325058Y74918D01*
X325053Y74938D01*
X325000Y75027D01*
X324952Y75118D01*
X324937Y75132D01*
X324927Y75149D01*
X324848Y75216D01*
X324773Y75288D01*
X324755Y75296D01*
X324740Y75309D01*
X324644Y75348D01*
X324550Y75391D01*
X324531Y75393D01*
X324512Y75401D01*
X324345Y75419D01*
X321204Y75419D01*
X306296Y90327D01*
X306223Y90380D01*
X306153Y90440D01*
X306123Y90452D01*
X306097Y90471D01*
X306010Y90498D01*
X305925Y90532D01*
X305884Y90536D01*
X305862Y90543D01*
X305829Y90542D01*
X305758Y90550D01*
X296182Y90550D01*
X296162Y90547D01*
X296143Y90549D01*
X296041Y90527D01*
X295939Y90511D01*
X295922Y90501D01*
X295902Y90497D01*
X295813Y90444D01*
X295722Y90395D01*
X295708Y90381D01*
X295691Y90371D01*
X295624Y90292D01*
X295552Y90217D01*
X295544Y90199D01*
X295531Y90184D01*
X295525Y90169D01*
X288396Y83039D01*
X285255Y83039D01*
X285235Y83036D01*
X285215Y83038D01*
X285114Y83016D01*
X285012Y83000D01*
X284994Y82990D01*
X284975Y82986D01*
X284886Y82933D01*
X284795Y82884D01*
X284781Y82870D01*
X284764Y82860D01*
X284696Y82781D01*
X284625Y82706D01*
X284617Y82688D01*
X284604Y82673D01*
X284565Y82577D01*
X284522Y82483D01*
X284519Y82463D01*
X284512Y82445D01*
X284493Y82278D01*
X284493Y60954D01*
X284486Y60947D01*
X284159Y60947D01*
X259855Y60947D01*
X259835Y60943D01*
X259815Y60946D01*
X259714Y60924D01*
X259612Y60907D01*
X259594Y60898D01*
X259575Y60893D01*
X259486Y60840D01*
X259395Y60792D01*
X259381Y60777D01*
X259364Y60767D01*
X259296Y60688D01*
X259225Y60613D01*
X259217Y60595D01*
X259204Y60580D01*
X259165Y60484D01*
X259122Y60390D01*
X259119Y60371D01*
X259112Y60352D01*
X259093Y60185D01*
X259093Y36335D01*
X259097Y36315D01*
X259094Y36295D01*
X259116Y36194D01*
X259133Y36092D01*
X259142Y36074D01*
X259147Y36055D01*
X259200Y35966D01*
X259248Y35875D01*
X259263Y35861D01*
X259273Y35844D01*
X259352Y35776D01*
X259427Y35705D01*
X259445Y35697D01*
X259460Y35684D01*
X259556Y35645D01*
X259650Y35602D01*
X259669Y35599D01*
X259688Y35592D01*
X259855Y35573D01*
X284486Y35573D01*
X284493Y35566D01*
X284493Y11684D01*
X284497Y11664D01*
X284494Y11645D01*
X284516Y11543D01*
X284533Y11441D01*
X284542Y11424D01*
X284547Y11404D01*
X284600Y11315D01*
X284648Y11224D01*
X284663Y11210D01*
X284673Y11193D01*
X284752Y11126D01*
X284827Y11054D01*
X284845Y11046D01*
X284860Y11033D01*
X284956Y10994D01*
X285050Y10951D01*
X285069Y10949D01*
X285088Y10941D01*
X285255Y10923D01*
X324345Y10923D01*
X324365Y10926D01*
G37*
%LPC*%
G36*
X374301Y372789D02*
X374301Y372789D01*
X366615Y375973D01*
X360733Y381855D01*
X357549Y389541D01*
X357549Y397859D01*
X360733Y405545D01*
X366615Y411427D01*
X374301Y414611D01*
X382619Y414611D01*
X390305Y411427D01*
X396187Y405545D01*
X399371Y397859D01*
X399371Y389541D01*
X396187Y381855D01*
X390305Y375973D01*
X382619Y372789D01*
X374301Y372789D01*
G37*
%LPD*%
%LPC*%
G36*
X345814Y432649D02*
X345814Y432649D01*
X340926Y434674D01*
X337184Y438416D01*
X335159Y443304D01*
X335159Y448596D01*
X337184Y453484D01*
X340926Y457226D01*
X345814Y459251D01*
X351106Y459251D01*
X353397Y458301D01*
X353467Y458285D01*
X353534Y458259D01*
X353586Y458257D01*
X353637Y458245D01*
X353708Y458252D01*
X353780Y458249D01*
X353830Y458263D01*
X353882Y458268D01*
X353947Y458298D01*
X354016Y458317D01*
X354059Y458347D01*
X354107Y458368D01*
X354159Y458417D01*
X354218Y458458D01*
X354249Y458500D01*
X354288Y458535D01*
X354322Y458598D01*
X354365Y458655D01*
X354381Y458705D01*
X354406Y458750D01*
X354419Y458821D01*
X354441Y458889D01*
X354441Y458941D01*
X354450Y458992D01*
X354440Y459063D01*
X354439Y459135D01*
X354419Y459204D01*
X354414Y459236D01*
X354404Y459257D01*
X354392Y459296D01*
X353299Y461934D01*
X353299Y467966D01*
X355607Y473538D01*
X359872Y477803D01*
X365444Y480111D01*
X371476Y480111D01*
X377048Y477803D01*
X381313Y473538D01*
X383621Y467966D01*
X383621Y461934D01*
X381313Y456362D01*
X377048Y452097D01*
X371476Y449789D01*
X365444Y449789D01*
X362099Y451175D01*
X362029Y451191D01*
X361962Y451217D01*
X361910Y451219D01*
X361859Y451231D01*
X361788Y451224D01*
X361716Y451227D01*
X361666Y451213D01*
X361615Y451208D01*
X361549Y451179D01*
X361480Y451159D01*
X361437Y451129D01*
X361390Y451108D01*
X361337Y451060D01*
X361278Y451019D01*
X361247Y450977D01*
X361209Y450942D01*
X361174Y450879D01*
X361131Y450821D01*
X361115Y450772D01*
X361090Y450726D01*
X361077Y450656D01*
X361055Y450587D01*
X361056Y450535D01*
X361046Y450484D01*
X361057Y450413D01*
X361058Y450341D01*
X361078Y450273D01*
X361082Y450241D01*
X361093Y450220D01*
X361104Y450180D01*
X361761Y448596D01*
X361761Y443304D01*
X359736Y438416D01*
X355994Y434674D01*
X351106Y432649D01*
X345814Y432649D01*
G37*
%LPD*%
%LPC*%
G36*
X365444Y484789D02*
X365444Y484789D01*
X359872Y487097D01*
X355607Y491362D01*
X353299Y496934D01*
X353299Y502966D01*
X354392Y505604D01*
X354408Y505674D01*
X354434Y505741D01*
X354436Y505793D01*
X354448Y505843D01*
X354442Y505915D01*
X354445Y505986D01*
X354430Y506036D01*
X354425Y506088D01*
X354396Y506154D01*
X354376Y506223D01*
X354346Y506265D01*
X354325Y506313D01*
X354277Y506366D01*
X354236Y506425D01*
X354194Y506456D01*
X354159Y506494D01*
X354096Y506529D01*
X354038Y506571D01*
X353989Y506588D01*
X353943Y506613D01*
X353873Y506625D01*
X353805Y506648D01*
X353752Y506647D01*
X353701Y506656D01*
X353630Y506646D01*
X353559Y506645D01*
X353490Y506625D01*
X353458Y506621D01*
X353437Y506610D01*
X353397Y506599D01*
X351106Y505649D01*
X345814Y505649D01*
X340926Y507674D01*
X337184Y511416D01*
X335159Y516304D01*
X335159Y521596D01*
X337184Y526484D01*
X340926Y530226D01*
X345814Y532251D01*
X351106Y532251D01*
X355994Y530226D01*
X359736Y526484D01*
X361761Y521596D01*
X361761Y516304D01*
X361104Y514720D01*
X361088Y514650D01*
X361062Y514583D01*
X361060Y514531D01*
X361048Y514480D01*
X361055Y514409D01*
X361052Y514337D01*
X361066Y514287D01*
X361071Y514235D01*
X361100Y514170D01*
X361120Y514101D01*
X361150Y514058D01*
X361171Y514011D01*
X361220Y513958D01*
X361261Y513899D01*
X361302Y513868D01*
X361338Y513829D01*
X361400Y513795D01*
X361458Y513752D01*
X361507Y513736D01*
X361553Y513711D01*
X361624Y513698D01*
X361692Y513676D01*
X361744Y513676D01*
X361795Y513667D01*
X361866Y513678D01*
X361938Y513678D01*
X362007Y513698D01*
X362039Y513703D01*
X362059Y513714D01*
X362099Y513725D01*
X365444Y515111D01*
X371476Y515111D01*
X377048Y512803D01*
X381313Y508538D01*
X383621Y502966D01*
X383621Y496934D01*
X381313Y491362D01*
X377048Y487097D01*
X371476Y484789D01*
X365444Y484789D01*
G37*
%LPD*%
G36*
X232228Y296126D02*
X232228Y296126D01*
X232280Y296127D01*
X232348Y296152D01*
X232418Y296167D01*
X232463Y296194D01*
X232511Y296211D01*
X232567Y296256D01*
X232629Y296293D01*
X232663Y296333D01*
X232703Y296365D01*
X232742Y296425D01*
X232789Y296480D01*
X232808Y296528D01*
X232836Y296572D01*
X232854Y296641D01*
X232881Y296708D01*
X232889Y296779D01*
X232897Y296811D01*
X232895Y296834D01*
X232899Y296875D01*
X232899Y326563D01*
X232915Y326615D01*
X232946Y326680D01*
X232951Y326732D01*
X232967Y326782D01*
X232965Y326854D01*
X232973Y326925D01*
X232962Y326976D01*
X232960Y327028D01*
X232936Y327095D01*
X232920Y327165D01*
X232894Y327210D01*
X232876Y327259D01*
X232831Y327315D01*
X232794Y327376D01*
X232755Y327410D01*
X232722Y327451D01*
X232662Y327490D01*
X232607Y327536D01*
X232559Y327556D01*
X232515Y327584D01*
X232446Y327601D01*
X232379Y327628D01*
X232308Y327636D01*
X232277Y327644D01*
X232253Y327642D01*
X232213Y327647D01*
X231969Y327647D01*
X220974Y327647D01*
X220967Y327654D01*
X220967Y327666D01*
X220974Y327673D01*
X230873Y327673D01*
X230893Y327677D01*
X230913Y327674D01*
X231014Y327696D01*
X231116Y327713D01*
X231134Y327722D01*
X231153Y327727D01*
X231242Y327780D01*
X231333Y327828D01*
X231347Y327843D01*
X231364Y327853D01*
X231432Y327932D01*
X231503Y328007D01*
X231511Y328025D01*
X231524Y328040D01*
X231563Y328136D01*
X231606Y328230D01*
X231609Y328249D01*
X231616Y328268D01*
X231635Y328435D01*
X231635Y340510D01*
X231631Y340530D01*
X231634Y340549D01*
X231612Y340651D01*
X231595Y340753D01*
X231586Y340770D01*
X231581Y340790D01*
X231528Y340879D01*
X231480Y340970D01*
X231465Y340984D01*
X231455Y341001D01*
X231377Y341068D01*
X231301Y341139D01*
X231283Y341148D01*
X231268Y341161D01*
X231172Y341199D01*
X231078Y341243D01*
X231059Y341245D01*
X231040Y341253D01*
X230873Y341271D01*
X230271Y341271D01*
X230271Y341273D01*
X230873Y341273D01*
X230893Y341276D01*
X230913Y341274D01*
X231014Y341296D01*
X231116Y341313D01*
X231134Y341322D01*
X231153Y341326D01*
X231242Y341379D01*
X231333Y341428D01*
X231347Y341442D01*
X231364Y341452D01*
X231432Y341531D01*
X231503Y341606D01*
X231511Y341624D01*
X231524Y341639D01*
X231563Y341735D01*
X231606Y341829D01*
X231609Y341849D01*
X231616Y341867D01*
X231635Y342034D01*
X231635Y352285D01*
X231631Y352305D01*
X231634Y352325D01*
X231612Y352426D01*
X231595Y352528D01*
X231586Y352546D01*
X231581Y352565D01*
X231528Y352654D01*
X231480Y352745D01*
X231465Y352759D01*
X231455Y352776D01*
X231376Y352844D01*
X231301Y352915D01*
X231283Y352923D01*
X231268Y352936D01*
X231172Y352975D01*
X231078Y353018D01*
X231059Y353021D01*
X231040Y353028D01*
X230873Y353047D01*
X218761Y353047D01*
X218434Y353047D01*
X218427Y353054D01*
X218427Y353381D01*
X218427Y398840D01*
X218415Y398911D01*
X218413Y398983D01*
X218395Y399032D01*
X218387Y399083D01*
X218353Y399146D01*
X218329Y399214D01*
X218296Y399254D01*
X218272Y399300D01*
X218220Y399349D01*
X218175Y399406D01*
X218131Y399434D01*
X218093Y399470D01*
X218028Y399500D01*
X217968Y399539D01*
X217918Y399551D01*
X217870Y399573D01*
X217799Y399581D01*
X217730Y399599D01*
X217678Y399595D01*
X217626Y399600D01*
X217556Y399585D01*
X217484Y399579D01*
X217436Y399559D01*
X217386Y399548D01*
X217324Y399511D01*
X217258Y399483D01*
X217202Y399438D01*
X217174Y399422D01*
X217159Y399404D01*
X217127Y399378D01*
X216904Y399155D01*
X216851Y399081D01*
X216791Y399012D01*
X216779Y398981D01*
X216760Y398955D01*
X216733Y398868D01*
X216699Y398783D01*
X216695Y398742D01*
X216688Y398720D01*
X216689Y398688D01*
X216681Y398617D01*
X216681Y311571D01*
X216695Y311481D01*
X216703Y311390D01*
X216715Y311360D01*
X216720Y311328D01*
X216763Y311247D01*
X216799Y311164D01*
X216825Y311131D01*
X216836Y311111D01*
X216859Y311089D01*
X216904Y311033D01*
X229753Y298184D01*
X231600Y296336D01*
X231658Y296295D01*
X231710Y296245D01*
X231757Y296223D01*
X231799Y296193D01*
X231868Y296172D01*
X231933Y296142D01*
X231985Y296136D01*
X232035Y296121D01*
X232106Y296122D01*
X232177Y296115D01*
X232228Y296126D01*
G37*
%LPC*%
G36*
X127364Y467115D02*
X127364Y467115D01*
X125220Y468003D01*
X123579Y469644D01*
X122691Y471788D01*
X122691Y474108D01*
X123579Y476252D01*
X124726Y477399D01*
X124779Y477473D01*
X124839Y477542D01*
X124851Y477573D01*
X124870Y477599D01*
X124897Y477686D01*
X124931Y477771D01*
X124935Y477812D01*
X124942Y477834D01*
X124941Y477866D01*
X124949Y477937D01*
X124949Y527663D01*
X134794Y537508D01*
X134847Y537582D01*
X134907Y537651D01*
X134919Y537681D01*
X134938Y537708D01*
X134965Y537794D01*
X134999Y537879D01*
X135003Y537920D01*
X135010Y537943D01*
X135009Y537975D01*
X135017Y538046D01*
X135017Y539668D01*
X135905Y541812D01*
X137546Y543453D01*
X139690Y544341D01*
X142010Y544341D01*
X144154Y543453D01*
X145795Y541812D01*
X146683Y539668D01*
X146683Y537348D01*
X145795Y535204D01*
X144154Y533563D01*
X142010Y532675D01*
X140388Y532675D01*
X140298Y532661D01*
X140207Y532653D01*
X140177Y532641D01*
X140145Y532636D01*
X140065Y532593D01*
X139981Y532557D01*
X139949Y532531D01*
X139928Y532520D01*
X139906Y532497D01*
X139850Y532452D01*
X132322Y524924D01*
X132269Y524850D01*
X132209Y524781D01*
X132197Y524751D01*
X132178Y524724D01*
X132151Y524638D01*
X132117Y524553D01*
X132113Y524512D01*
X132106Y524489D01*
X132107Y524457D01*
X132099Y524386D01*
X132099Y477937D01*
X132113Y477847D01*
X132121Y477756D01*
X132133Y477727D01*
X132138Y477695D01*
X132181Y477614D01*
X132217Y477530D01*
X132243Y477498D01*
X132254Y477477D01*
X132277Y477455D01*
X132322Y477399D01*
X133469Y476252D01*
X134357Y474108D01*
X134357Y471788D01*
X133469Y469644D01*
X131828Y468003D01*
X129684Y467115D01*
X127364Y467115D01*
G37*
%LPD*%
%LPC*%
G36*
X398814Y505649D02*
X398814Y505649D01*
X393926Y507674D01*
X390184Y511416D01*
X388159Y516304D01*
X388159Y521596D01*
X390184Y526484D01*
X393926Y530226D01*
X398814Y532251D01*
X404106Y532251D01*
X408994Y530226D01*
X412736Y526484D01*
X414761Y521596D01*
X414761Y516304D01*
X412736Y511416D01*
X408994Y507674D01*
X404106Y505649D01*
X398814Y505649D01*
G37*
%LPD*%
%LPC*%
G36*
X398814Y432649D02*
X398814Y432649D01*
X393926Y434674D01*
X390184Y438416D01*
X388159Y443304D01*
X388159Y448596D01*
X390184Y453484D01*
X393926Y457226D01*
X398814Y459251D01*
X404106Y459251D01*
X408994Y457226D01*
X412736Y453484D01*
X414761Y448596D01*
X414761Y443304D01*
X412736Y438416D01*
X408994Y434674D01*
X404106Y432649D01*
X398814Y432649D01*
G37*
%LPD*%
G36*
X315010Y235851D02*
X315010Y235851D01*
X315061Y235853D01*
X315093Y235871D01*
X315129Y235879D01*
X315168Y235912D01*
X315213Y235936D01*
X315234Y235966D01*
X315262Y235989D01*
X315283Y236036D01*
X315313Y236078D01*
X315321Y236120D01*
X315333Y236148D01*
X315332Y236178D01*
X315340Y236220D01*
X315340Y259080D01*
X315329Y259130D01*
X315327Y259181D01*
X315309Y259213D01*
X315301Y259249D01*
X315268Y259288D01*
X315244Y259333D01*
X315214Y259354D01*
X315191Y259382D01*
X315144Y259403D01*
X315102Y259433D01*
X315060Y259441D01*
X315032Y259453D01*
X315002Y259452D01*
X314960Y259460D01*
X292100Y259460D01*
X292050Y259449D01*
X291999Y259447D01*
X291967Y259429D01*
X291931Y259421D01*
X291892Y259388D01*
X291847Y259364D01*
X291826Y259334D01*
X291798Y259311D01*
X291777Y259264D01*
X291747Y259222D01*
X291739Y259180D01*
X291727Y259152D01*
X291728Y259122D01*
X291720Y259080D01*
X291720Y236220D01*
X291731Y236170D01*
X291733Y236119D01*
X291751Y236087D01*
X291759Y236051D01*
X291792Y236012D01*
X291816Y235967D01*
X291846Y235946D01*
X291869Y235918D01*
X291916Y235897D01*
X291958Y235867D01*
X292000Y235859D01*
X292028Y235847D01*
X292058Y235848D01*
X292100Y235840D01*
X314960Y235840D01*
X315010Y235851D01*
G37*
G36*
X285419Y89695D02*
X285419Y89695D01*
X285510Y89703D01*
X285540Y89715D01*
X285572Y89720D01*
X285653Y89763D01*
X285736Y89799D01*
X285769Y89825D01*
X285789Y89836D01*
X285811Y89859D01*
X285867Y89904D01*
X288556Y92593D01*
X288609Y92666D01*
X288636Y92698D01*
X288648Y92710D01*
X288649Y92713D01*
X288669Y92736D01*
X288681Y92766D01*
X288700Y92792D01*
X288727Y92879D01*
X288729Y92884D01*
X288751Y92933D01*
X288752Y92943D01*
X288761Y92964D01*
X288765Y93005D01*
X288772Y93027D01*
X288771Y93060D01*
X288779Y93131D01*
X288779Y173398D01*
X288772Y173443D01*
X288774Y173489D01*
X288752Y173564D01*
X288740Y173641D01*
X288718Y173681D01*
X288705Y173726D01*
X288661Y173790D01*
X288624Y173858D01*
X288591Y173890D01*
X288565Y173928D01*
X288503Y173974D01*
X288446Y174028D01*
X288404Y174047D01*
X288368Y174074D01*
X288294Y174099D01*
X288223Y174131D01*
X288177Y174136D01*
X288134Y174151D01*
X288056Y174150D01*
X287979Y174158D01*
X287934Y174149D01*
X287888Y174148D01*
X287756Y174110D01*
X287738Y174106D01*
X287734Y174104D01*
X287727Y174102D01*
X285640Y173237D01*
X283320Y173237D01*
X281233Y174102D01*
X281189Y174112D01*
X281147Y174131D01*
X281070Y174140D01*
X280994Y174158D01*
X280948Y174153D01*
X280903Y174158D01*
X280826Y174142D01*
X280749Y174135D01*
X280707Y174116D01*
X280662Y174106D01*
X280595Y174066D01*
X280524Y174035D01*
X280490Y174004D01*
X280451Y173980D01*
X280400Y173921D01*
X280343Y173868D01*
X280321Y173828D01*
X280291Y173793D01*
X280262Y173721D01*
X280225Y173653D01*
X280216Y173608D01*
X280199Y173565D01*
X280184Y173429D01*
X280181Y173411D01*
X280182Y173406D01*
X280181Y173398D01*
X280181Y147976D01*
X278013Y145808D01*
X273217Y141013D01*
X273175Y140955D01*
X273126Y140903D01*
X273104Y140856D01*
X273074Y140813D01*
X273053Y140745D01*
X273022Y140680D01*
X273017Y140628D01*
X273001Y140578D01*
X273003Y140506D01*
X272995Y140435D01*
X273006Y140384D01*
X273008Y140332D01*
X273032Y140265D01*
X273048Y140195D01*
X273074Y140150D01*
X273092Y140101D01*
X273137Y140045D01*
X273174Y139984D01*
X273213Y139950D01*
X273246Y139909D01*
X273306Y139870D01*
X273361Y139824D01*
X273409Y139804D01*
X273453Y139776D01*
X273522Y139759D01*
X273589Y139732D01*
X273660Y139724D01*
X273691Y139716D01*
X273715Y139718D01*
X273755Y139713D01*
X284486Y139713D01*
X284493Y139706D01*
X284493Y90442D01*
X284497Y90422D01*
X284494Y90403D01*
X284516Y90301D01*
X284533Y90199D01*
X284542Y90182D01*
X284547Y90162D01*
X284600Y90073D01*
X284648Y89982D01*
X284663Y89968D01*
X284673Y89951D01*
X284752Y89884D01*
X284827Y89812D01*
X284845Y89804D01*
X284860Y89791D01*
X284956Y89752D01*
X285050Y89709D01*
X285069Y89707D01*
X285088Y89699D01*
X285255Y89681D01*
X285329Y89681D01*
X285419Y89695D01*
G37*
G36*
X312470Y370471D02*
X312470Y370471D01*
X312521Y370473D01*
X312553Y370491D01*
X312589Y370499D01*
X312628Y370532D01*
X312673Y370556D01*
X312694Y370586D01*
X312722Y370609D01*
X312743Y370656D01*
X312773Y370698D01*
X312781Y370740D01*
X312793Y370768D01*
X312792Y370798D01*
X312800Y370840D01*
X312800Y385064D01*
X312789Y385114D01*
X312787Y385165D01*
X312769Y385197D01*
X312761Y385233D01*
X312728Y385272D01*
X312704Y385317D01*
X312674Y385338D01*
X312651Y385366D01*
X312604Y385387D01*
X312562Y385417D01*
X312520Y385425D01*
X312492Y385437D01*
X312462Y385436D01*
X312420Y385444D01*
X287020Y385444D01*
X286970Y385433D01*
X286919Y385431D01*
X286887Y385413D01*
X286851Y385405D01*
X286812Y385372D01*
X286767Y385348D01*
X286746Y385318D01*
X286718Y385295D01*
X286697Y385248D01*
X286667Y385206D01*
X286659Y385164D01*
X286647Y385136D01*
X286648Y385106D01*
X286640Y385064D01*
X286640Y370840D01*
X286651Y370790D01*
X286653Y370739D01*
X286671Y370707D01*
X286679Y370671D01*
X286712Y370632D01*
X286736Y370587D01*
X286766Y370566D01*
X286789Y370538D01*
X286836Y370517D01*
X286878Y370487D01*
X286920Y370479D01*
X286948Y370467D01*
X286978Y370468D01*
X287020Y370460D01*
X312420Y370460D01*
X312470Y370471D01*
G37*
%LPC*%
G36*
X149716Y517407D02*
X149716Y517407D01*
X147572Y518295D01*
X145931Y519936D01*
X145043Y522080D01*
X145043Y524400D01*
X145931Y526544D01*
X147572Y528185D01*
X149716Y529073D01*
X152036Y529073D01*
X154180Y528185D01*
X155821Y526544D01*
X156709Y524400D01*
X156709Y522080D01*
X155821Y519936D01*
X154180Y518295D01*
X152036Y517407D01*
X149716Y517407D01*
G37*
%LPD*%
%LPC*%
G36*
X76056Y171459D02*
X76056Y171459D01*
X73912Y172347D01*
X72271Y173988D01*
X71383Y176132D01*
X71383Y178452D01*
X72271Y180596D01*
X73912Y182237D01*
X76056Y183125D01*
X78376Y183125D01*
X80520Y182237D01*
X82161Y180596D01*
X83049Y178452D01*
X83049Y176132D01*
X82161Y173988D01*
X80520Y172347D01*
X78376Y171459D01*
X76056Y171459D01*
G37*
%LPD*%
%LPC*%
G36*
X153780Y116087D02*
X153780Y116087D01*
X151636Y116975D01*
X149995Y118616D01*
X149107Y120760D01*
X149107Y123080D01*
X149995Y125224D01*
X151636Y126865D01*
X153780Y127753D01*
X156100Y127753D01*
X158244Y126865D01*
X159885Y125224D01*
X160773Y123080D01*
X160773Y120760D01*
X159885Y118616D01*
X158244Y116975D01*
X156100Y116087D01*
X153780Y116087D01*
G37*
%LPD*%
%LPC*%
G36*
X177910Y101609D02*
X177910Y101609D01*
X175766Y102497D01*
X174125Y104138D01*
X173237Y106282D01*
X173237Y108602D01*
X174125Y110746D01*
X175766Y112387D01*
X177910Y113275D01*
X180230Y113275D01*
X182374Y112387D01*
X184015Y110746D01*
X184903Y108602D01*
X184903Y106282D01*
X184015Y104138D01*
X182374Y102497D01*
X180230Y101609D01*
X177910Y101609D01*
G37*
%LPD*%
%LPC*%
G36*
X121268Y96783D02*
X121268Y96783D01*
X119124Y97671D01*
X117483Y99312D01*
X116595Y101456D01*
X116595Y103776D01*
X117483Y105920D01*
X119124Y107561D01*
X121268Y108449D01*
X123588Y108449D01*
X125732Y107561D01*
X127373Y105920D01*
X128261Y103776D01*
X128261Y101456D01*
X127373Y99312D01*
X125732Y97671D01*
X123588Y96783D01*
X121268Y96783D01*
G37*
%LPD*%
%LPC*%
G36*
X157844Y83067D02*
X157844Y83067D01*
X155700Y83955D01*
X154059Y85596D01*
X153171Y87740D01*
X153171Y90060D01*
X154059Y92204D01*
X155700Y93845D01*
X157844Y94733D01*
X160164Y94733D01*
X162308Y93845D01*
X163949Y92204D01*
X164837Y90060D01*
X164837Y87740D01*
X163949Y85596D01*
X162308Y83955D01*
X160164Y83067D01*
X157844Y83067D01*
G37*
%LPD*%
%LPC*%
G36*
X195944Y71891D02*
X195944Y71891D01*
X193800Y72779D01*
X192159Y74420D01*
X191271Y76564D01*
X191271Y78884D01*
X192159Y81028D01*
X193800Y82669D01*
X195944Y83557D01*
X198264Y83557D01*
X200408Y82669D01*
X202049Y81028D01*
X202937Y78884D01*
X202937Y76564D01*
X202049Y74420D01*
X200408Y72779D01*
X198264Y71891D01*
X195944Y71891D01*
G37*
%LPD*%
%LPC*%
G36*
X179942Y44713D02*
X179942Y44713D01*
X177798Y45601D01*
X176157Y47242D01*
X175269Y49386D01*
X175269Y51706D01*
X176157Y53850D01*
X177798Y55491D01*
X179942Y56379D01*
X182262Y56379D01*
X184406Y55491D01*
X186047Y53850D01*
X186935Y51706D01*
X186935Y49386D01*
X186047Y47242D01*
X184406Y45601D01*
X182262Y44713D01*
X179942Y44713D01*
G37*
%LPD*%
%LPC*%
G36*
X267064Y288807D02*
X267064Y288807D01*
X264920Y289695D01*
X263279Y291336D01*
X262391Y293480D01*
X262391Y295800D01*
X263279Y297944D01*
X264920Y299585D01*
X267064Y300473D01*
X269384Y300473D01*
X271528Y299585D01*
X273169Y297944D01*
X274057Y295800D01*
X274057Y293480D01*
X273169Y291336D01*
X271528Y289695D01*
X269384Y288807D01*
X267064Y288807D01*
G37*
%LPD*%
%LPC*%
G36*
X183752Y287791D02*
X183752Y287791D01*
X181608Y288679D01*
X179967Y290320D01*
X179079Y292464D01*
X179079Y294784D01*
X179967Y296928D01*
X181608Y298569D01*
X183752Y299457D01*
X186072Y299457D01*
X188216Y298569D01*
X189857Y296928D01*
X190745Y294784D01*
X190745Y292464D01*
X189857Y290320D01*
X188216Y288679D01*
X186072Y287791D01*
X183752Y287791D01*
G37*
%LPD*%
%LPC*%
G36*
X355423Y325523D02*
X355423Y325523D01*
X355423Y337132D01*
X356993Y336883D01*
X358970Y336241D01*
X360823Y335297D01*
X362505Y334075D01*
X363975Y332605D01*
X365197Y330923D01*
X366141Y329070D01*
X366783Y327093D01*
X367032Y325523D01*
X355423Y325523D01*
G37*
%LPD*%
%LPC*%
G36*
X340768Y325523D02*
X340768Y325523D01*
X341017Y327093D01*
X341659Y329070D01*
X342603Y330923D01*
X343825Y332605D01*
X345295Y334075D01*
X346977Y335297D01*
X348830Y336241D01*
X350807Y336883D01*
X352377Y337132D01*
X352377Y325523D01*
X340768Y325523D01*
G37*
%LPD*%
%LPC*%
G36*
X220226Y342795D02*
X220226Y342795D01*
X220361Y343651D01*
X220856Y345172D01*
X221582Y346597D01*
X222522Y347891D01*
X223653Y349022D01*
X224947Y349962D01*
X226372Y350688D01*
X227893Y351183D01*
X228749Y351318D01*
X228749Y342795D01*
X220226Y342795D01*
G37*
%LPD*%
%LPC*%
G36*
X227893Y331361D02*
X227893Y331361D01*
X226372Y331856D01*
X224947Y332582D01*
X223653Y333522D01*
X222522Y334653D01*
X221582Y335947D01*
X220856Y337372D01*
X220361Y338893D01*
X220226Y339749D01*
X228749Y339749D01*
X228749Y331226D01*
X227893Y331361D01*
G37*
%LPD*%
%LPC*%
G36*
X37083Y505713D02*
X37083Y505713D01*
X37083Y514155D01*
X37921Y514023D01*
X39430Y513532D01*
X40843Y512812D01*
X42127Y511879D01*
X43249Y510757D01*
X44182Y509473D01*
X44902Y508060D01*
X45393Y506551D01*
X45525Y505713D01*
X37083Y505713D01*
G37*
%LPD*%
%LPC*%
G36*
X37083Y454913D02*
X37083Y454913D01*
X37083Y463355D01*
X37921Y463223D01*
X39430Y462732D01*
X40843Y462012D01*
X42127Y461079D01*
X43249Y459957D01*
X44182Y458673D01*
X44902Y457260D01*
X45393Y455751D01*
X45525Y454913D01*
X37083Y454913D01*
G37*
%LPD*%
%LPC*%
G36*
X37083Y369823D02*
X37083Y369823D01*
X37083Y378265D01*
X37921Y378133D01*
X39430Y377642D01*
X40843Y376922D01*
X42127Y375989D01*
X43249Y374867D01*
X44182Y373583D01*
X44902Y372170D01*
X45393Y370661D01*
X45525Y369823D01*
X37083Y369823D01*
G37*
%LPD*%
%LPC*%
G36*
X37083Y260603D02*
X37083Y260603D01*
X37083Y269045D01*
X37921Y268913D01*
X39430Y268422D01*
X40843Y267702D01*
X42127Y266769D01*
X43249Y265647D01*
X44182Y264363D01*
X44902Y262950D01*
X45393Y261441D01*
X45525Y260603D01*
X37083Y260603D01*
G37*
%LPD*%
%LPC*%
G36*
X273303Y49783D02*
X273303Y49783D01*
X273303Y58225D01*
X274141Y58093D01*
X275650Y57602D01*
X277063Y56882D01*
X278347Y55949D01*
X279469Y54827D01*
X280402Y53543D01*
X281122Y52130D01*
X281613Y50621D01*
X281745Y49783D01*
X273303Y49783D01*
G37*
%LPD*%
%LPC*%
G36*
X364743Y49783D02*
X364743Y49783D01*
X364743Y58225D01*
X365581Y58093D01*
X367090Y57602D01*
X368503Y56882D01*
X369787Y55949D01*
X370909Y54827D01*
X371842Y53543D01*
X372562Y52130D01*
X373053Y50621D01*
X373185Y49783D01*
X364743Y49783D01*
G37*
%LPD*%
%LPC*%
G36*
X25595Y505713D02*
X25595Y505713D01*
X25727Y506551D01*
X26218Y508060D01*
X26938Y509473D01*
X27871Y510757D01*
X28993Y511879D01*
X30277Y512812D01*
X31690Y513532D01*
X33199Y514023D01*
X34037Y514155D01*
X34037Y505713D01*
X25595Y505713D01*
G37*
%LPD*%
%LPC*%
G36*
X37083Y451867D02*
X37083Y451867D01*
X45525Y451867D01*
X45393Y451029D01*
X44902Y449520D01*
X44182Y448107D01*
X43249Y446823D01*
X42127Y445701D01*
X40843Y444768D01*
X39430Y444048D01*
X37921Y443557D01*
X37083Y443425D01*
X37083Y451867D01*
G37*
%LPD*%
%LPC*%
G36*
X25595Y369823D02*
X25595Y369823D01*
X25727Y370661D01*
X26218Y372170D01*
X26938Y373583D01*
X27871Y374867D01*
X28993Y375989D01*
X30277Y376922D01*
X31690Y377642D01*
X33199Y378133D01*
X34037Y378265D01*
X34037Y369823D01*
X25595Y369823D01*
G37*
%LPD*%
%LPC*%
G36*
X25595Y260603D02*
X25595Y260603D01*
X25727Y261441D01*
X26218Y262950D01*
X26938Y264363D01*
X27871Y265647D01*
X28993Y266769D01*
X30277Y267702D01*
X31690Y268422D01*
X33199Y268913D01*
X34037Y269045D01*
X34037Y260603D01*
X25595Y260603D01*
G37*
%LPD*%
%LPC*%
G36*
X261815Y49783D02*
X261815Y49783D01*
X261947Y50621D01*
X262438Y52130D01*
X263158Y53543D01*
X264091Y54827D01*
X265213Y55949D01*
X266497Y56882D01*
X267910Y57602D01*
X269419Y58093D01*
X270257Y58225D01*
X270257Y49783D01*
X261815Y49783D01*
G37*
%LPD*%
%LPC*%
G36*
X353255Y49783D02*
X353255Y49783D01*
X353387Y50621D01*
X353878Y52130D01*
X354598Y53543D01*
X355531Y54827D01*
X356653Y55949D01*
X357937Y56882D01*
X359350Y57602D01*
X360859Y58093D01*
X361697Y58225D01*
X361697Y49783D01*
X353255Y49783D01*
G37*
%LPD*%
%LPC*%
G36*
X364743Y46737D02*
X364743Y46737D01*
X373185Y46737D01*
X373053Y45899D01*
X372562Y44390D01*
X371842Y42977D01*
X370909Y41693D01*
X369787Y40571D01*
X368503Y39638D01*
X367090Y38918D01*
X365581Y38427D01*
X364743Y38295D01*
X364743Y46737D01*
G37*
%LPD*%
%LPC*%
G36*
X273303Y46737D02*
X273303Y46737D01*
X281745Y46737D01*
X281613Y45899D01*
X281122Y44390D01*
X280402Y42977D01*
X279469Y41693D01*
X278347Y40571D01*
X277063Y39638D01*
X275650Y38918D01*
X274141Y38427D01*
X273303Y38295D01*
X273303Y46737D01*
G37*
%LPD*%
%LPC*%
G36*
X269419Y38427D02*
X269419Y38427D01*
X267910Y38918D01*
X266497Y39638D01*
X265213Y40571D01*
X264091Y41693D01*
X263158Y42977D01*
X262438Y44390D01*
X261947Y45899D01*
X261815Y46737D01*
X270257Y46737D01*
X270257Y38295D01*
X269419Y38427D01*
G37*
%LPD*%
%LPC*%
G36*
X360859Y38427D02*
X360859Y38427D01*
X359350Y38918D01*
X357937Y39638D01*
X356653Y40571D01*
X355531Y41693D01*
X354598Y42977D01*
X353878Y44390D01*
X353387Y45899D01*
X353255Y46737D01*
X361697Y46737D01*
X361697Y38295D01*
X360859Y38427D01*
G37*
%LPD*%
%LPC*%
G36*
X363219Y48259D02*
X363219Y48259D01*
X363219Y48261D01*
X363221Y48261D01*
X363221Y48259D01*
X363219Y48259D01*
G37*
%LPD*%
%LPC*%
G36*
X271779Y48259D02*
X271779Y48259D01*
X271779Y48261D01*
X271781Y48261D01*
X271781Y48259D01*
X271779Y48259D01*
G37*
%LPD*%
D10*
X401460Y445950D03*
X401460Y518950D03*
X348460Y445950D03*
X348460Y518950D03*
D11*
X255672Y341272D03*
X230272Y341272D03*
X255672Y366672D03*
X230272Y366672D03*
X255672Y392072D03*
X230272Y392072D03*
D12*
X35560Y368300D03*
X35560Y342900D03*
X35560Y317500D03*
X35560Y259080D03*
X35560Y233680D03*
X35560Y208280D03*
X35560Y504190D03*
X35560Y478790D03*
X35560Y453390D03*
X35560Y427990D03*
X271780Y124460D03*
X246380Y124460D03*
X271780Y99060D03*
X246380Y99060D03*
X271780Y73660D03*
X246380Y73660D03*
X271780Y48260D03*
X246380Y48260D03*
X271780Y22860D03*
X246380Y22860D03*
X35560Y149860D03*
X35560Y124460D03*
X35560Y99060D03*
X35560Y73660D03*
X363220Y124460D03*
X337820Y124460D03*
X363220Y99060D03*
X337820Y99060D03*
X363220Y73660D03*
X337820Y73660D03*
X363220Y48260D03*
X337820Y48260D03*
X363220Y22860D03*
X337820Y22860D03*
D13*
X353900Y184000D03*
X353900Y219000D03*
X353900Y254000D03*
X353900Y289000D03*
X353900Y324000D03*
D14*
X324104Y498348D03*
X166116Y289560D03*
X186944Y278892D03*
X280416Y327406D03*
X252984Y243840D03*
X22860Y292100D03*
X25400Y177800D03*
X22860Y401320D03*
X53340Y17780D03*
X134620Y17780D03*
X226060Y17780D03*
X306324Y16764D03*
X294640Y48260D03*
X408940Y55880D03*
X381000Y93980D03*
X408940Y195580D03*
X411480Y358140D03*
X95504Y242824D03*
X208280Y548640D03*
X55880Y548640D03*
X175260Y439420D03*
X370840Y548640D03*
X237744Y498348D03*
X164084Y185420D03*
X184404Y219964D03*
X114300Y127000D03*
X99060Y45720D03*
X17780Y53340D03*
X68580Y330200D03*
X70612Y222504D03*
X200660Y45720D03*
X223520Y76200D03*
X112776Y302260D03*
X115316Y366776D03*
X322580Y353060D03*
X332740Y406400D03*
X97028Y521208D03*
X67564Y437896D03*
X86360Y388620D03*
X217932Y223520D03*
X154940Y66040D03*
X414020Y114300D03*
X151384Y107696D03*
X82296Y113284D03*
X203200Y127000D03*
X106172Y187452D03*
X163068Y366776D03*
X205740Y370840D03*
X206248Y310896D03*
X162052Y315468D03*
X414020Y271780D03*
X284480Y163830D03*
X391160Y147320D03*
X383540Y236220D03*
X383540Y307340D03*
X259334Y323088D03*
X219710Y275590D03*
X121412Y264668D03*
X91440Y284480D03*
X300736Y85344D03*
X408940Y421640D03*
X244348Y478536D03*
X216916Y496824D03*
X233680Y439420D03*
X218440Y419100D03*
X185420Y313436D03*
X317500Y292100D03*
X287528Y293116D03*
X223520Y317500D03*
X189484Y103124D03*
X153924Y548640D03*
X175260Y477012D03*
X200660Y466344D03*
X140208Y477012D03*
X86360Y472440D03*
X139700Y439420D03*
X211328Y518668D03*
X213868Y479044D03*
X286512Y518668D03*
X243332Y517652D03*
X282448Y499872D03*
X256540Y219456D03*
X148844Y165100D03*
X195072Y185420D03*
X194564Y165100D03*
X189484Y244856D03*
X320040Y548640D03*
X314960Y518160D03*
X291592Y428752D03*
X322072Y387096D03*
X161544Y339344D03*
X320040Y269748D03*
X321564Y232156D03*
X325120Y312420D03*
X358140Y360680D03*
X327660Y441960D03*
X298704Y241300D03*
X165608Y380238D03*
X274320Y388620D03*
D15*
X274320Y358140D02*
X298450Y334010D01*
X274320Y358140D02*
X274320Y388620D01*
X298450Y334010D02*
X298450Y255270D01*
X299720Y254000D01*
D14*
X112268Y458216D03*
D15*
X112268Y545592D01*
D14*
X112268Y545592D03*
X281940Y458216D03*
D15*
X281940Y360680D02*
X304800Y337820D01*
X281940Y360680D02*
X281940Y458216D01*
X304800Y337820D02*
X304800Y259080D01*
X299720Y254000D01*
D14*
X299720Y254000D03*
D15*
X165608Y380238D02*
X165608Y534786D01*
X179246Y548424D01*
D14*
X179246Y548424D03*
X309880Y248920D03*
X152400Y401320D03*
D16*
X152400Y260350D01*
X170180Y242570D01*
D14*
X170180Y242570D03*
X138176Y368808D03*
D16*
X146812Y360172D01*
X146812Y249428D01*
X161290Y234950D01*
D14*
X161290Y234950D03*
X155448Y194056D03*
D16*
X141224Y208280D01*
D14*
X125476Y385572D03*
D16*
X125486Y385562D01*
X125486Y368403D02*
X141224Y352665D01*
X125486Y368403D02*
X125486Y385562D01*
X141224Y352665D02*
X141224Y208280D01*
D14*
X206746Y286512D03*
X224536Y96012D03*
D16*
X224526Y96022D01*
X224526Y140102D01*
X206492Y286258D02*
X206746Y286512D01*
X206492Y286258D02*
X206492Y158136D01*
X224526Y140102D01*
D14*
X122428Y102616D03*
X185420Y403352D03*
D16*
X198120Y390652D01*
X198120Y220472D01*
D14*
X198120Y220472D03*
X323596Y199644D03*
D16*
X323596Y118364D01*
X330200Y111760D02*
X350520Y111760D01*
X363220Y99060D01*
X330200Y111760D02*
X323596Y118364D01*
X299720Y193040D02*
X317500Y210820D01*
X299720Y193040D02*
X299720Y101600D01*
X332740Y78740D02*
X337820Y73660D01*
X332740Y78740D02*
X322580Y78740D01*
X299720Y101600D01*
D14*
X317500Y210820D03*
X149860Y210820D03*
X154940Y121920D03*
X159004Y88900D03*
X181102Y50546D03*
X179070Y107442D03*
X160020Y215900D03*
D16*
X292100Y209296D02*
X296164Y213360D01*
X292100Y209296D02*
X292100Y91440D01*
D14*
X296164Y213360D03*
D16*
X292100Y91440D02*
X287020Y86360D01*
X259080Y86360D02*
X246380Y73660D01*
X259080Y86360D02*
X287020Y86360D01*
D14*
X314960Y179324D03*
D16*
X322580Y99060D02*
X337820Y99060D01*
X322580Y99060D02*
X314960Y106680D01*
X314960Y179324D01*
D14*
X315214Y192532D03*
D16*
X350520Y86360D02*
X363220Y73660D01*
X350520Y86360D02*
X325120Y86360D01*
X306324Y105156D01*
X311404Y192532D02*
X315214Y192532D01*
X311404Y192532D02*
X306324Y187452D01*
X306324Y105156D01*
D14*
X236220Y269240D03*
D16*
X243840Y332740D02*
X243840Y380240D01*
X243840Y332740D02*
X236220Y325120D01*
X236220Y269240D01*
X243840Y380240D02*
X255672Y392072D01*
D14*
X218186Y186182D03*
D16*
X213360Y309880D02*
X213360Y403860D01*
X213360Y309880D02*
X228600Y294640D01*
X228600Y196596D01*
X218186Y186182D01*
D14*
X213360Y403860D03*
X88900Y169512D03*
D16*
X104140Y237076D02*
X104140Y481076D01*
X104140Y237076D02*
X88900Y221836D01*
X88900Y169512D01*
D14*
X104140Y481076D03*
X315976Y460756D03*
X315976Y478536D03*
X128524Y472948D03*
D15*
X128524Y526182D02*
X140850Y538508D01*
X128524Y526182D02*
X128524Y472948D01*
D14*
X140850Y538508D03*
X150876Y523240D03*
X306324Y537464D03*
D16*
X306324Y379984D01*
X304800Y378460D01*
D14*
X304800Y378460D03*
X292608Y377952D03*
D15*
X300228Y384048D02*
X300228Y525272D01*
X300228Y384048D02*
X294132Y377952D01*
X292608Y377952D01*
X300228Y525272D02*
X286992Y538508D01*
D14*
X286992Y538508D03*
X160476Y351976D03*
X122936Y284988D03*
X172720Y227584D03*
D16*
X172720Y129774D01*
X177536Y124958D02*
X186680Y124958D01*
X177536Y124958D02*
X172720Y129774D01*
D14*
X186680Y124958D03*
X96520Y218440D03*
D16*
X96520Y100076D01*
X118872Y77724D01*
D14*
X118872Y77724D03*
X197104Y77724D03*
D16*
X260248Y263296D02*
X260604Y263652D01*
X260248Y263296D02*
X260248Y234594D01*
X260096Y234442D01*
D14*
X260096Y234442D03*
D16*
X268224Y234442D02*
X276860Y225806D01*
X268224Y234442D02*
X260096Y234442D01*
X276860Y149352D02*
X259588Y132080D01*
X276860Y149352D02*
X276860Y225806D01*
D14*
X259588Y132080D03*
X284480Y179070D03*
X270408Y263652D03*
D16*
X270408Y242672D01*
X284480Y228600D01*
X284480Y179070D01*
D14*
X184912Y293624D03*
X268224Y294640D03*
X215392Y294132D03*
X77216Y177292D03*
X260604Y263652D03*
D16*
X131064Y296164D02*
X130556Y296672D01*
X131064Y296164D02*
X131064Y198628D01*
X143764Y185928D01*
D14*
X130556Y296672D03*
X143764Y185928D03*
X218694Y166624D03*
D16*
X236220Y184150D01*
X236220Y247904D02*
X241300Y252984D01*
X236220Y247904D02*
X236220Y184150D01*
D14*
X241300Y252984D03*
X269240Y163830D03*
D16*
X269240Y163830D01*
D14*
X268872Y219710D03*
D16*
X269240Y219342D02*
X269240Y163830D01*
X269240Y219342D02*
X268872Y219710D01*
D14*
X112908Y255392D03*
X105146Y198628D03*
X215900Y127000D03*
D17*
X0Y14000D02*
X1220Y13947D01*
X2431Y13787D01*
X3623Y13523D01*
X4788Y13156D01*
X5917Y12688D01*
X7000Y12124D01*
X8030Y11468D01*
X8999Y10725D01*
X9900Y9900D01*
X10725Y8999D01*
X11468Y8030D01*
X12124Y7000D01*
X12688Y5917D01*
X13156Y4788D01*
X13523Y3623D01*
X13787Y2431D01*
X13947Y1220D01*
X14000Y0D01*
X416000Y0D01*
X416053Y1220D01*
X416213Y2431D01*
X416477Y3623D01*
X416844Y4788D01*
X417312Y5917D01*
X417876Y7000D01*
X418532Y8030D01*
X419275Y8999D01*
X420101Y9900D01*
X421001Y10725D01*
X421970Y11468D01*
X423000Y12124D01*
X424083Y12688D01*
X425212Y13156D01*
X426377Y13523D01*
X427569Y13787D01*
X428780Y13947D01*
X430000Y14000D01*
X430000Y551000D01*
X428780Y551053D01*
X427569Y551213D01*
X426377Y551477D01*
X425212Y551844D01*
X424083Y552312D01*
X423000Y552876D01*
X421970Y553532D01*
X421001Y554275D01*
X420101Y555101D01*
X419275Y556001D01*
X418532Y556970D01*
X417876Y558000D01*
X417312Y559083D01*
X416844Y560212D01*
X416477Y561377D01*
X416213Y562569D01*
X416053Y563780D01*
X416000Y565000D01*
X14000Y565000D01*
X13947Y563780D01*
X13787Y562569D01*
X13523Y561377D01*
X13156Y560212D01*
X12688Y559083D01*
X12124Y558000D01*
X11468Y556970D01*
X10725Y556001D01*
X9900Y555101D01*
X8999Y554275D01*
X8030Y553532D01*
X7000Y552876D01*
X5917Y552312D01*
X4788Y551844D01*
X3623Y551477D01*
X2431Y551213D01*
X1220Y551053D01*
X0Y551000D01*
X0Y14000D01*
X38690Y26248D02*
X38624Y25406D01*
X38492Y24571D01*
X38294Y23750D01*
X38033Y22946D01*
X37710Y22166D01*
X37327Y21413D01*
X36885Y20693D01*
X36389Y20010D01*
X35840Y19367D01*
X35243Y18770D01*
X34600Y18221D01*
X33917Y17725D01*
X33197Y17283D01*
X32444Y16900D01*
X31664Y16577D01*
X30860Y16316D01*
X30039Y16118D01*
X29205Y15986D01*
X28362Y15920D01*
X27518Y15920D01*
X26676Y15986D01*
X25841Y16118D01*
X25020Y16316D01*
X24216Y16577D01*
X23436Y16900D01*
X22683Y17283D01*
X21963Y17725D01*
X21280Y18221D01*
X20637Y18770D01*
X20040Y19367D01*
X19491Y20010D01*
X18995Y20693D01*
X18553Y21413D01*
X18170Y22166D01*
X17847Y22946D01*
X17586Y23750D01*
X17388Y24571D01*
X17256Y25406D01*
X17190Y26248D01*
X17190Y27092D01*
X17256Y27935D01*
X17388Y28769D01*
X17586Y29590D01*
X17847Y30394D01*
X18170Y31174D01*
X18553Y31927D01*
X18995Y32647D01*
X19491Y33330D01*
X20040Y33973D01*
X20637Y34570D01*
X21280Y35119D01*
X21963Y35615D01*
X22683Y36057D01*
X23436Y36440D01*
X24216Y36763D01*
X25020Y37024D01*
X25841Y37222D01*
X26676Y37354D01*
X27518Y37420D01*
X28362Y37420D01*
X29205Y37354D01*
X30039Y37222D01*
X30860Y37024D01*
X31664Y36763D01*
X32444Y36440D01*
X33197Y36057D01*
X33917Y35615D01*
X34600Y35119D01*
X35243Y34570D01*
X35840Y33973D01*
X36389Y33330D01*
X36885Y32647D01*
X37327Y31927D01*
X37710Y31174D01*
X38033Y30394D01*
X38294Y29590D01*
X38492Y28769D01*
X38624Y27935D01*
X38690Y27092D01*
X38690Y26248D01*
X38690Y540598D02*
X38624Y539756D01*
X38492Y538921D01*
X38294Y538100D01*
X38033Y537296D01*
X37710Y536516D01*
X37327Y535763D01*
X36885Y535043D01*
X36389Y534360D01*
X35840Y533717D01*
X35243Y533120D01*
X34600Y532571D01*
X33917Y532075D01*
X33197Y531633D01*
X32444Y531250D01*
X31664Y530927D01*
X30860Y530666D01*
X30039Y530468D01*
X29205Y530336D01*
X28362Y530270D01*
X27518Y530270D01*
X26676Y530336D01*
X25841Y530468D01*
X25020Y530666D01*
X24216Y530927D01*
X23436Y531250D01*
X22683Y531633D01*
X21963Y532075D01*
X21280Y532571D01*
X20637Y533120D01*
X20040Y533717D01*
X19491Y534360D01*
X18995Y535043D01*
X18553Y535763D01*
X18170Y536516D01*
X17847Y537296D01*
X17586Y538100D01*
X17388Y538921D01*
X17256Y539756D01*
X17190Y540598D01*
X17190Y541442D01*
X17256Y542285D01*
X17388Y543119D01*
X17586Y543940D01*
X17847Y544744D01*
X18170Y545524D01*
X18553Y546277D01*
X18995Y546997D01*
X19491Y547680D01*
X20040Y548323D01*
X20637Y548920D01*
X21280Y549469D01*
X21963Y549965D01*
X22683Y550407D01*
X23436Y550790D01*
X24216Y551113D01*
X25020Y551374D01*
X25841Y551572D01*
X26676Y551704D01*
X27518Y551770D01*
X28362Y551770D01*
X29205Y551704D01*
X30039Y551572D01*
X30860Y551374D01*
X31664Y551113D01*
X32444Y550790D01*
X33197Y550407D01*
X33917Y549965D01*
X34600Y549469D01*
X35243Y548920D01*
X35840Y548323D01*
X36389Y547680D01*
X36885Y546997D01*
X37327Y546277D01*
X37710Y545524D01*
X38033Y544744D01*
X38294Y543940D01*
X38492Y543119D01*
X38624Y542285D01*
X38690Y541442D01*
X38690Y540598D01*
X412070Y26248D02*
X412004Y25406D01*
X411872Y24571D01*
X411674Y23750D01*
X411413Y22946D01*
X411090Y22166D01*
X410707Y21413D01*
X410265Y20693D01*
X409769Y20010D01*
X409220Y19367D01*
X408623Y18770D01*
X407980Y18221D01*
X407297Y17725D01*
X406577Y17283D01*
X405824Y16900D01*
X405044Y16577D01*
X404240Y16316D01*
X403419Y16118D01*
X402585Y15986D01*
X401742Y15920D01*
X400898Y15920D01*
X400056Y15986D01*
X399221Y16118D01*
X398400Y16316D01*
X397596Y16577D01*
X396816Y16900D01*
X396063Y17283D01*
X395343Y17725D01*
X394660Y18221D01*
X394017Y18770D01*
X393420Y19367D01*
X392871Y20010D01*
X392375Y20693D01*
X391933Y21413D01*
X391550Y22166D01*
X391227Y22946D01*
X390966Y23750D01*
X390768Y24571D01*
X390636Y25406D01*
X390570Y26248D01*
X390570Y27092D01*
X390636Y27935D01*
X390768Y28769D01*
X390966Y29590D01*
X391227Y30394D01*
X391550Y31174D01*
X391933Y31927D01*
X392375Y32647D01*
X392871Y33330D01*
X393420Y33973D01*
X394017Y34570D01*
X394660Y35119D01*
X395343Y35615D01*
X396063Y36057D01*
X396816Y36440D01*
X397596Y36763D01*
X398400Y37024D01*
X399221Y37222D01*
X400056Y37354D01*
X400898Y37420D01*
X401742Y37420D01*
X402585Y37354D01*
X403419Y37222D01*
X404240Y37024D01*
X405044Y36763D01*
X405824Y36440D01*
X406577Y36057D01*
X407297Y35615D01*
X407980Y35119D01*
X408623Y34570D01*
X409220Y33973D01*
X409769Y33330D01*
X410265Y32647D01*
X410707Y31927D01*
X411090Y31174D01*
X411413Y30394D01*
X411674Y29590D01*
X411872Y28769D01*
X412004Y27935D01*
X412070Y27092D01*
X412070Y26248D01*
X389210Y393278D02*
X389144Y392436D01*
X389012Y391601D01*
X388814Y390780D01*
X388553Y389976D01*
X388230Y389196D01*
X387847Y388443D01*
X387405Y387723D01*
X386909Y387040D01*
X386360Y386397D01*
X385763Y385800D01*
X385120Y385251D01*
X384437Y384755D01*
X383717Y384313D01*
X382964Y383930D01*
X382184Y383607D01*
X381380Y383346D01*
X380559Y383148D01*
X379725Y383016D01*
X378882Y382950D01*
X378038Y382950D01*
X377196Y383016D01*
X376361Y383148D01*
X375540Y383346D01*
X374736Y383607D01*
X373956Y383930D01*
X373203Y384313D01*
X372483Y384755D01*
X371800Y385251D01*
X371157Y385800D01*
X370560Y386397D01*
X370011Y387040D01*
X369515Y387723D01*
X369073Y388443D01*
X368690Y389196D01*
X368367Y389976D01*
X368106Y390780D01*
X367908Y391601D01*
X367776Y392436D01*
X367710Y393278D01*
X367710Y394122D01*
X367776Y394965D01*
X367908Y395799D01*
X368106Y396620D01*
X368367Y397424D01*
X368690Y398204D01*
X369073Y398957D01*
X369515Y399677D01*
X370011Y400360D01*
X370560Y401003D01*
X371157Y401600D01*
X371800Y402149D01*
X372483Y402645D01*
X373203Y403087D01*
X373956Y403470D01*
X374736Y403793D01*
X375540Y404054D01*
X376361Y404252D01*
X377196Y404384D01*
X378038Y404450D01*
X378882Y404450D01*
X379725Y404384D01*
X380559Y404252D01*
X381380Y404054D01*
X382184Y403793D01*
X382964Y403470D01*
X383717Y403087D01*
X384437Y402645D01*
X385120Y402149D01*
X385763Y401600D01*
X386360Y401003D01*
X386909Y400360D01*
X387405Y399677D01*
X387847Y398957D01*
X388230Y398204D01*
X388553Y397424D01*
X388814Y396620D01*
X389012Y395799D01*
X389144Y394965D01*
X389210Y394122D01*
X389210Y393278D01*
X368741Y469950D02*
X369299Y469887D01*
X369846Y469762D01*
X370376Y469577D01*
X370882Y469333D01*
X371358Y469034D01*
X371797Y468684D01*
X372194Y468287D01*
X372544Y467848D01*
X372843Y467372D01*
X373087Y466866D01*
X373272Y466336D01*
X373397Y465789D01*
X373460Y465231D01*
X373460Y464669D01*
X373397Y464111D01*
X373272Y463564D01*
X373087Y463034D01*
X372843Y462528D01*
X372544Y462052D01*
X372194Y461613D01*
X371797Y461216D01*
X371358Y460866D01*
X370882Y460567D01*
X370376Y460323D01*
X369846Y460138D01*
X369299Y460013D01*
X368741Y459950D01*
X368179Y459950D01*
X367621Y460013D01*
X367074Y460138D01*
X366544Y460323D01*
X366038Y460567D01*
X365562Y460866D01*
X365123Y461216D01*
X364726Y461613D01*
X364376Y462052D01*
X364077Y462528D01*
X363833Y463034D01*
X363648Y463564D01*
X363523Y464111D01*
X363460Y464669D01*
X363460Y465231D01*
X363523Y465789D01*
X363648Y466336D01*
X363833Y466866D01*
X364077Y467372D01*
X364376Y467848D01*
X364726Y468287D01*
X365123Y468684D01*
X365562Y469034D01*
X366038Y469333D01*
X366544Y469577D01*
X367074Y469762D01*
X367621Y469887D01*
X368179Y469950D01*
X368741Y469950D01*
X368741Y504950D02*
X369299Y504887D01*
X369846Y504762D01*
X370376Y504577D01*
X370882Y504333D01*
X371358Y504034D01*
X371797Y503684D01*
X372194Y503287D01*
X372544Y502848D01*
X372843Y502372D01*
X373087Y501866D01*
X373272Y501336D01*
X373397Y500789D01*
X373460Y500231D01*
X373460Y499669D01*
X373397Y499111D01*
X373272Y498564D01*
X373087Y498034D01*
X372843Y497528D01*
X372544Y497052D01*
X372194Y496613D01*
X371797Y496216D01*
X371358Y495866D01*
X370882Y495567D01*
X370376Y495323D01*
X369846Y495138D01*
X369299Y495013D01*
X368741Y494950D01*
X368179Y494950D01*
X367621Y495013D01*
X367074Y495138D01*
X366544Y495323D01*
X366038Y495567D01*
X365562Y495866D01*
X365123Y496216D01*
X364726Y496613D01*
X364376Y497052D01*
X364077Y497528D01*
X363833Y498034D01*
X363648Y498564D01*
X363523Y499111D01*
X363460Y499669D01*
X363460Y500231D01*
X363523Y500789D01*
X363648Y501336D01*
X363833Y501866D01*
X364077Y502372D01*
X364376Y502848D01*
X364726Y503287D01*
X365123Y503684D01*
X365562Y504034D01*
X366038Y504333D01*
X366544Y504577D01*
X367074Y504762D01*
X367621Y504887D01*
X368179Y504950D01*
X368741Y504950D01*
M02*
