G04 EAGLE Gerber RS-274X export*
G75*
%MOMM*%
%FSLAX34Y34*%
%LPD*%
%INBottom Copper*%
%IPPOS*%
%AMOC8*
5,1,8,0,0,1.08239X$1,22.5*%
G01*
%ADD10C,2.250000*%
%ADD11R,0.900000X0.700000*%
%ADD12P,1.649562X8X112.500000*%
%ADD13R,0.990000X0.690000*%
%ADD14C,1.508000*%
%ADD15R,1.000000X1.400000*%
%ADD16R,0.925000X0.740000*%
%ADD17R,0.740000X0.925000*%
%ADD18P,1.632244X8X292.500000*%
%ADD19C,1.100000*%
%ADD20C,1.270000*%
%ADD21R,0.600000X0.550000*%
%ADD22C,2.133600*%
%ADD23C,0.756400*%
%ADD24C,0.254000*%
%ADD25C,0.304800*%
%ADD26C,0.203200*%
%ADD27C,0.254000*%

G36*
X324365Y10926D02*
X324365Y10926D01*
X324385Y10924D01*
X324486Y10946D01*
X324588Y10962D01*
X324606Y10972D01*
X324625Y10976D01*
X324714Y11029D01*
X324805Y11078D01*
X324819Y11092D01*
X324836Y11102D01*
X324904Y11181D01*
X324975Y11256D01*
X324983Y11274D01*
X324996Y11289D01*
X325035Y11385D01*
X325078Y11479D01*
X325081Y11499D01*
X325088Y11517D01*
X325107Y11684D01*
X325107Y139379D01*
X325107Y139706D01*
X325114Y139713D01*
X373386Y139713D01*
X373393Y139706D01*
X373393Y60954D01*
X373386Y60947D01*
X373059Y60947D01*
X351295Y60947D01*
X351275Y60943D01*
X351255Y60946D01*
X351154Y60924D01*
X351052Y60907D01*
X351034Y60898D01*
X351015Y60893D01*
X350926Y60840D01*
X350835Y60792D01*
X350821Y60777D01*
X350804Y60767D01*
X350736Y60688D01*
X350665Y60613D01*
X350657Y60595D01*
X350644Y60580D01*
X350605Y60484D01*
X350562Y60390D01*
X350559Y60371D01*
X350552Y60352D01*
X350533Y60185D01*
X350533Y35827D01*
X350537Y35807D01*
X350534Y35787D01*
X350556Y35686D01*
X350573Y35584D01*
X350582Y35566D01*
X350587Y35547D01*
X350640Y35458D01*
X350688Y35367D01*
X350703Y35353D01*
X350713Y35336D01*
X350792Y35268D01*
X350867Y35197D01*
X350885Y35189D01*
X350900Y35176D01*
X350996Y35137D01*
X351090Y35094D01*
X351109Y35091D01*
X351128Y35084D01*
X351295Y35065D01*
X375926Y35065D01*
X375933Y35058D01*
X375933Y11684D01*
X375937Y11664D01*
X375934Y11645D01*
X375956Y11543D01*
X375973Y11441D01*
X375982Y11424D01*
X375987Y11404D01*
X376040Y11315D01*
X376088Y11224D01*
X376103Y11210D01*
X376113Y11193D01*
X376192Y11126D01*
X376267Y11054D01*
X376285Y11046D01*
X376300Y11033D01*
X376396Y10994D01*
X376490Y10951D01*
X376509Y10949D01*
X376528Y10941D01*
X376695Y10923D01*
X379857Y10923D01*
X379877Y10926D01*
X379896Y10924D01*
X379998Y10946D01*
X380100Y10962D01*
X380117Y10972D01*
X380137Y10976D01*
X380226Y11029D01*
X380317Y11078D01*
X380331Y11092D01*
X380348Y11102D01*
X380415Y11181D01*
X380487Y11256D01*
X380495Y11274D01*
X380508Y11289D01*
X380547Y11385D01*
X380590Y11479D01*
X380592Y11499D01*
X380600Y11517D01*
X380618Y11684D01*
X380618Y21855D01*
X380608Y21919D01*
X380607Y21985D01*
X380584Y22065D01*
X380579Y22097D01*
X380569Y22115D01*
X380560Y22146D01*
X380409Y22511D01*
X380409Y30829D01*
X383593Y38515D01*
X389475Y44397D01*
X397161Y47581D01*
X404866Y47581D01*
X404956Y47595D01*
X405047Y47603D01*
X405076Y47615D01*
X405108Y47620D01*
X405118Y47626D01*
X418328Y47626D01*
X418348Y47629D01*
X418367Y47627D01*
X418469Y47649D01*
X418571Y47665D01*
X418588Y47675D01*
X418608Y47679D01*
X418697Y47732D01*
X418788Y47781D01*
X418802Y47795D01*
X418819Y47805D01*
X418886Y47884D01*
X418958Y47959D01*
X418966Y47977D01*
X418979Y47992D01*
X419018Y48088D01*
X419061Y48182D01*
X419063Y48202D01*
X419071Y48220D01*
X419089Y48387D01*
X419089Y536712D01*
X419075Y536802D01*
X419067Y536893D01*
X419055Y536923D01*
X419050Y536955D01*
X419007Y537035D01*
X418971Y537119D01*
X418945Y537151D01*
X418934Y537172D01*
X418911Y537194D01*
X418866Y537250D01*
X402262Y553854D01*
X402188Y553907D01*
X402119Y553967D01*
X402089Y553979D01*
X402063Y553998D01*
X401976Y554025D01*
X401891Y554059D01*
X401850Y554063D01*
X401827Y554070D01*
X401795Y554069D01*
X401724Y554077D01*
X183679Y554077D01*
X183609Y554066D01*
X183537Y554064D01*
X183488Y554046D01*
X183437Y554038D01*
X183373Y554004D01*
X183306Y553979D01*
X183265Y553947D01*
X183219Y553922D01*
X183170Y553870D01*
X183114Y553826D01*
X183086Y553782D01*
X183050Y553744D01*
X183020Y553679D01*
X182981Y553619D01*
X182968Y553568D01*
X182946Y553521D01*
X182938Y553450D01*
X182921Y553380D01*
X182925Y553328D01*
X182919Y553277D01*
X182934Y553206D01*
X182940Y553135D01*
X182960Y553087D01*
X182971Y553036D01*
X183008Y552975D01*
X183036Y552909D01*
X183081Y552853D01*
X183097Y552825D01*
X183115Y552810D01*
X183141Y552778D01*
X184191Y551728D01*
X185079Y549584D01*
X185079Y547264D01*
X184191Y545120D01*
X182550Y543479D01*
X180406Y542591D01*
X178086Y542591D01*
X175942Y543479D01*
X174301Y545120D01*
X173413Y547264D01*
X173413Y549584D01*
X174301Y551728D01*
X175351Y552778D01*
X175393Y552836D01*
X175442Y552888D01*
X175464Y552935D01*
X175495Y552977D01*
X175516Y553046D01*
X175546Y553111D01*
X175552Y553163D01*
X175567Y553213D01*
X175565Y553284D01*
X175573Y553355D01*
X175562Y553406D01*
X175561Y553458D01*
X175536Y553526D01*
X175521Y553596D01*
X175494Y553641D01*
X175476Y553689D01*
X175431Y553745D01*
X175395Y553807D01*
X175355Y553841D01*
X175322Y553881D01*
X175262Y553920D01*
X175208Y553967D01*
X175159Y553986D01*
X175115Y554014D01*
X175046Y554032D01*
X174979Y554059D01*
X174908Y554067D01*
X174877Y554075D01*
X174854Y554073D01*
X174813Y554077D01*
X49403Y554077D01*
X49383Y554074D01*
X49364Y554076D01*
X49262Y554054D01*
X49160Y554038D01*
X49143Y554028D01*
X49123Y554024D01*
X49034Y553971D01*
X48943Y553922D01*
X48929Y553908D01*
X48912Y553898D01*
X48845Y553819D01*
X48773Y553744D01*
X48765Y553726D01*
X48752Y553711D01*
X48713Y553615D01*
X48670Y553521D01*
X48668Y553501D01*
X48660Y553483D01*
X48642Y553316D01*
X48642Y545835D01*
X48652Y545771D01*
X48653Y545705D01*
X48676Y545625D01*
X48681Y545593D01*
X48691Y545575D01*
X48700Y545544D01*
X48851Y545179D01*
X48851Y536861D01*
X45667Y529175D01*
X39785Y523293D01*
X32099Y520109D01*
X23781Y520109D01*
X23416Y520260D01*
X23352Y520275D01*
X23291Y520300D01*
X23209Y520309D01*
X23177Y520316D01*
X23157Y520315D01*
X23125Y520318D01*
X11684Y520318D01*
X11664Y520315D01*
X11645Y520317D01*
X11543Y520295D01*
X11441Y520279D01*
X11424Y520269D01*
X11404Y520265D01*
X11315Y520212D01*
X11224Y520163D01*
X11210Y520149D01*
X11193Y520139D01*
X11126Y520060D01*
X11054Y519985D01*
X11046Y519967D01*
X11033Y519952D01*
X10994Y519856D01*
X10951Y519762D01*
X10949Y519742D01*
X10941Y519724D01*
X10923Y519557D01*
X10923Y501155D01*
X10925Y501140D01*
X10924Y501128D01*
X10925Y501124D01*
X10924Y501115D01*
X10946Y501014D01*
X10962Y500912D01*
X10972Y500894D01*
X10976Y500875D01*
X11029Y500786D01*
X11078Y500695D01*
X11092Y500681D01*
X11102Y500664D01*
X11181Y500596D01*
X11256Y500525D01*
X11274Y500517D01*
X11289Y500504D01*
X11385Y500465D01*
X11479Y500422D01*
X11499Y500419D01*
X11517Y500412D01*
X11684Y500393D01*
X17606Y500393D01*
X17622Y500396D01*
X17638Y500394D01*
X17743Y500416D01*
X17849Y500433D01*
X17863Y500441D01*
X17879Y500444D01*
X17972Y500498D01*
X18066Y500548D01*
X18077Y500560D01*
X18091Y500568D01*
X18162Y500649D01*
X18236Y500727D01*
X18243Y500741D01*
X18253Y500753D01*
X18294Y500852D01*
X18339Y500950D01*
X18341Y500966D01*
X18347Y500980D01*
X18355Y501088D01*
X18367Y501194D01*
X18363Y501210D01*
X18364Y501226D01*
X18330Y501390D01*
X18187Y501829D01*
X18055Y502667D01*
X34798Y502667D01*
X34818Y502670D01*
X34837Y502668D01*
X34939Y502690D01*
X35041Y502707D01*
X35058Y502716D01*
X35078Y502720D01*
X35167Y502773D01*
X35258Y502822D01*
X35272Y502836D01*
X35289Y502846D01*
X35356Y502925D01*
X35427Y503000D01*
X35436Y503018D01*
X35449Y503033D01*
X35487Y503129D01*
X35531Y503223D01*
X35533Y503243D01*
X35541Y503261D01*
X35559Y503428D01*
X35559Y504191D01*
X35561Y504191D01*
X35561Y503428D01*
X35563Y503418D01*
X35562Y503412D01*
X35564Y503404D01*
X35562Y503389D01*
X35584Y503287D01*
X35601Y503185D01*
X35610Y503168D01*
X35614Y503148D01*
X35667Y503059D01*
X35716Y502968D01*
X35730Y502954D01*
X35740Y502937D01*
X35819Y502870D01*
X35894Y502799D01*
X35912Y502790D01*
X35927Y502777D01*
X36023Y502738D01*
X36117Y502695D01*
X36137Y502693D01*
X36155Y502685D01*
X36322Y502667D01*
X53065Y502667D01*
X52933Y501829D01*
X52442Y500320D01*
X51722Y498907D01*
X50959Y497856D01*
X50945Y497828D01*
X50924Y497804D01*
X50890Y497719D01*
X50848Y497637D01*
X50844Y497605D01*
X50832Y497576D01*
X50813Y497409D01*
X50813Y484955D01*
X50828Y484865D01*
X50835Y484774D01*
X50848Y484744D01*
X50853Y484712D01*
X50896Y484632D01*
X50932Y484548D01*
X50957Y484516D01*
X50968Y484495D01*
X50992Y484473D01*
X51036Y484417D01*
X51231Y484223D01*
X52016Y482327D01*
X52078Y482227D01*
X52138Y482127D01*
X52142Y482123D01*
X52146Y482118D01*
X52235Y482043D01*
X52324Y481967D01*
X52330Y481965D01*
X52335Y481961D01*
X52443Y481919D01*
X52553Y481875D01*
X52560Y481874D01*
X52565Y481873D01*
X52583Y481872D01*
X52719Y481857D01*
X54494Y481857D01*
X54584Y481871D01*
X54675Y481879D01*
X54705Y481891D01*
X54737Y481896D01*
X54818Y481939D01*
X54902Y481975D01*
X54934Y482001D01*
X54955Y482012D01*
X54977Y482035D01*
X55033Y482080D01*
X67080Y494127D01*
X85988Y494127D01*
X86008Y494130D01*
X86027Y494128D01*
X86129Y494150D01*
X86231Y494166D01*
X86248Y494176D01*
X86268Y494180D01*
X86357Y494233D01*
X86448Y494282D01*
X86462Y494296D01*
X86479Y494306D01*
X86546Y494385D01*
X86618Y494460D01*
X86626Y494478D01*
X86639Y494493D01*
X86678Y494589D01*
X86721Y494683D01*
X86723Y494703D01*
X86731Y494721D01*
X86749Y494888D01*
X86749Y495359D01*
X87951Y496561D01*
X99549Y496561D01*
X100735Y495375D01*
X100751Y495363D01*
X100764Y495348D01*
X100851Y495292D01*
X100935Y495231D01*
X100954Y495225D01*
X100971Y495215D01*
X101071Y495189D01*
X101170Y495159D01*
X101190Y495159D01*
X101209Y495155D01*
X101312Y495163D01*
X101416Y495165D01*
X101435Y495172D01*
X101455Y495174D01*
X101549Y495214D01*
X101647Y495250D01*
X101663Y495262D01*
X101681Y495270D01*
X101812Y495375D01*
X110128Y503691D01*
X111888Y503691D01*
X111908Y503694D01*
X111927Y503692D01*
X112029Y503714D01*
X112131Y503730D01*
X112148Y503740D01*
X112168Y503744D01*
X112257Y503797D01*
X112348Y503846D01*
X112362Y503860D01*
X112379Y503870D01*
X112446Y503949D01*
X112518Y504024D01*
X112526Y504042D01*
X112539Y504057D01*
X112578Y504153D01*
X112621Y504247D01*
X112623Y504267D01*
X112631Y504285D01*
X112649Y504452D01*
X112649Y504894D01*
X112705Y504971D01*
X112711Y504991D01*
X112722Y505007D01*
X112747Y505108D01*
X112777Y505207D01*
X112777Y505227D01*
X112782Y505246D01*
X112774Y505349D01*
X112771Y505452D01*
X112764Y505471D01*
X112763Y505491D01*
X112722Y505586D01*
X112687Y505683D01*
X112674Y505699D01*
X112666Y505717D01*
X112649Y505739D01*
X112649Y514359D01*
X113851Y515561D01*
X125449Y515561D01*
X126651Y514359D01*
X126651Y505726D01*
X126595Y505649D01*
X126589Y505630D01*
X126578Y505613D01*
X126553Y505513D01*
X126523Y505414D01*
X126523Y505394D01*
X126518Y505374D01*
X126526Y505271D01*
X126529Y505168D01*
X126536Y505149D01*
X126537Y505129D01*
X126578Y505034D01*
X126613Y504937D01*
X126626Y504921D01*
X126634Y504903D01*
X126651Y504881D01*
X126651Y496243D01*
X126669Y496130D01*
X126685Y496016D01*
X126689Y496007D01*
X126690Y496001D01*
X126701Y495981D01*
X126753Y495863D01*
X126968Y495491D01*
X127141Y494844D01*
X127141Y492583D01*
X120412Y492583D01*
X120392Y492580D01*
X120373Y492582D01*
X120271Y492560D01*
X120169Y492543D01*
X120152Y492534D01*
X120132Y492530D01*
X120043Y492477D01*
X119952Y492428D01*
X119938Y492414D01*
X119921Y492404D01*
X119854Y492325D01*
X119783Y492250D01*
X119774Y492232D01*
X119761Y492217D01*
X119722Y492121D01*
X119679Y492027D01*
X119677Y492007D01*
X119669Y491989D01*
X119651Y491822D01*
X119651Y491059D01*
X119649Y491059D01*
X119649Y491822D01*
X119646Y491842D01*
X119648Y491861D01*
X119626Y491963D01*
X119609Y492065D01*
X119600Y492082D01*
X119596Y492102D01*
X119543Y492191D01*
X119494Y492282D01*
X119480Y492296D01*
X119470Y492313D01*
X119391Y492380D01*
X119316Y492451D01*
X119298Y492460D01*
X119283Y492473D01*
X119187Y492512D01*
X119093Y492555D01*
X119073Y492557D01*
X119055Y492565D01*
X118888Y492583D01*
X112159Y492583D01*
X112159Y494844D01*
X112231Y495111D01*
X112235Y495158D01*
X112249Y495204D01*
X112248Y495280D01*
X112255Y495355D01*
X112244Y495402D01*
X112243Y495450D01*
X112217Y495521D01*
X112200Y495595D01*
X112175Y495636D01*
X112159Y495681D01*
X112111Y495740D01*
X112072Y495805D01*
X112035Y495836D01*
X112005Y495873D01*
X111941Y495914D01*
X111883Y495963D01*
X111838Y495980D01*
X111798Y496006D01*
X111724Y496025D01*
X111654Y496052D01*
X111606Y496055D01*
X111560Y496066D01*
X111484Y496060D01*
X111408Y496064D01*
X111362Y496051D01*
X111314Y496047D01*
X111245Y496017D01*
X111172Y495997D01*
X111132Y495970D01*
X111088Y495951D01*
X110987Y495870D01*
X110969Y495858D01*
X110965Y495852D01*
X110957Y495846D01*
X106922Y491811D01*
X106877Y491749D01*
X106830Y491700D01*
X106823Y491683D01*
X106809Y491667D01*
X106797Y491637D01*
X106778Y491611D01*
X106756Y491540D01*
X106727Y491476D01*
X106725Y491458D01*
X106717Y491439D01*
X106713Y491398D01*
X106706Y491376D01*
X106707Y491344D01*
X106699Y491272D01*
X106699Y486838D01*
X106717Y486724D01*
X106735Y486607D01*
X106737Y486601D01*
X106738Y486595D01*
X106793Y486493D01*
X106846Y486388D01*
X106851Y486383D01*
X106854Y486378D01*
X106938Y486297D01*
X107022Y486216D01*
X107028Y486212D01*
X107032Y486209D01*
X107049Y486201D01*
X107169Y486135D01*
X107444Y486021D01*
X109085Y484380D01*
X109973Y482236D01*
X109973Y479916D01*
X109085Y477772D01*
X107444Y476131D01*
X105300Y475243D01*
X102980Y475243D01*
X100836Y476131D01*
X99195Y477772D01*
X98307Y479916D01*
X98307Y482236D01*
X99248Y484507D01*
X99258Y484551D01*
X99278Y484593D01*
X99286Y484670D01*
X99304Y484746D01*
X99300Y484792D01*
X99305Y484837D01*
X99288Y484914D01*
X99281Y484991D01*
X99262Y485033D01*
X99252Y485078D01*
X99212Y485145D01*
X99181Y485216D01*
X99150Y485250D01*
X99126Y485289D01*
X99067Y485340D01*
X99014Y485397D01*
X98974Y485419D01*
X98939Y485449D01*
X98867Y485478D01*
X98799Y485515D01*
X98754Y485524D01*
X98711Y485541D01*
X98575Y485556D01*
X98557Y485559D01*
X98552Y485558D01*
X98544Y485559D01*
X87951Y485559D01*
X86749Y486761D01*
X86749Y487232D01*
X86746Y487252D01*
X86748Y487271D01*
X86726Y487373D01*
X86710Y487475D01*
X86700Y487492D01*
X86696Y487512D01*
X86643Y487601D01*
X86594Y487692D01*
X86580Y487706D01*
X86570Y487723D01*
X86491Y487790D01*
X86416Y487862D01*
X86398Y487870D01*
X86383Y487883D01*
X86287Y487922D01*
X86193Y487965D01*
X86173Y487967D01*
X86155Y487975D01*
X85988Y487993D01*
X69936Y487993D01*
X69846Y487979D01*
X69755Y487971D01*
X69725Y487959D01*
X69693Y487954D01*
X69612Y487911D01*
X69528Y487875D01*
X69496Y487849D01*
X69475Y487838D01*
X69453Y487815D01*
X69397Y487770D01*
X57350Y475723D01*
X52719Y475723D01*
X52605Y475704D01*
X52488Y475687D01*
X52483Y475685D01*
X52477Y475684D01*
X52374Y475629D01*
X52269Y475576D01*
X52265Y475571D01*
X52259Y475568D01*
X52179Y475484D01*
X52097Y475400D01*
X52093Y475394D01*
X52090Y475390D01*
X52082Y475373D01*
X52016Y475253D01*
X51231Y473357D01*
X51036Y473163D01*
X50983Y473089D01*
X50924Y473020D01*
X50912Y472990D01*
X50893Y472963D01*
X50866Y472876D01*
X50832Y472792D01*
X50827Y472751D01*
X50821Y472728D01*
X50821Y472696D01*
X50813Y472625D01*
X50813Y467354D01*
X50806Y467347D01*
X50479Y467347D01*
X33795Y467347D01*
X33775Y467343D01*
X33755Y467346D01*
X33654Y467324D01*
X33552Y467307D01*
X33534Y467298D01*
X33515Y467293D01*
X33426Y467240D01*
X33335Y467192D01*
X33321Y467177D01*
X33304Y467167D01*
X33236Y467088D01*
X33165Y467013D01*
X33157Y466995D01*
X33144Y466980D01*
X33105Y466884D01*
X33062Y466790D01*
X33059Y466771D01*
X33052Y466752D01*
X33033Y466585D01*
X33033Y464232D01*
X33037Y464212D01*
X33034Y464193D01*
X33056Y464091D01*
X33073Y463989D01*
X33082Y463972D01*
X33087Y463952D01*
X33140Y463863D01*
X33188Y463772D01*
X33203Y463758D01*
X33213Y463741D01*
X33292Y463674D01*
X33367Y463602D01*
X33385Y463594D01*
X33400Y463581D01*
X33496Y463542D01*
X33590Y463499D01*
X33609Y463497D01*
X33628Y463489D01*
X33795Y463471D01*
X34037Y463471D01*
X34037Y454152D01*
X34040Y454132D01*
X34038Y454113D01*
X34060Y454011D01*
X34077Y453909D01*
X34086Y453892D01*
X34090Y453872D01*
X34143Y453783D01*
X34192Y453692D01*
X34206Y453678D01*
X34216Y453661D01*
X34295Y453594D01*
X34370Y453523D01*
X34388Y453514D01*
X34403Y453501D01*
X34499Y453463D01*
X34593Y453419D01*
X34613Y453417D01*
X34631Y453409D01*
X34798Y453391D01*
X35561Y453391D01*
X35561Y453389D01*
X34798Y453389D01*
X34778Y453386D01*
X34759Y453388D01*
X34657Y453366D01*
X34555Y453349D01*
X34538Y453340D01*
X34518Y453336D01*
X34429Y453283D01*
X34338Y453234D01*
X34324Y453220D01*
X34307Y453210D01*
X34240Y453131D01*
X34169Y453056D01*
X34160Y453038D01*
X34147Y453023D01*
X34108Y452927D01*
X34065Y452833D01*
X34063Y452813D01*
X34055Y452795D01*
X34037Y452628D01*
X34037Y443309D01*
X33795Y443309D01*
X33775Y443306D01*
X33755Y443308D01*
X33654Y443286D01*
X33552Y443270D01*
X33534Y443260D01*
X33515Y443256D01*
X33426Y443203D01*
X33335Y443154D01*
X33321Y443140D01*
X33304Y443130D01*
X33236Y443051D01*
X33165Y442976D01*
X33157Y442958D01*
X33144Y442943D01*
X33105Y442847D01*
X33062Y442753D01*
X33059Y442733D01*
X33052Y442715D01*
X33033Y442548D01*
X33033Y440195D01*
X33037Y440175D01*
X33034Y440155D01*
X33056Y440054D01*
X33073Y439952D01*
X33082Y439934D01*
X33087Y439915D01*
X33140Y439826D01*
X33188Y439735D01*
X33203Y439721D01*
X33213Y439704D01*
X33292Y439636D01*
X33367Y439565D01*
X33385Y439557D01*
X33400Y439544D01*
X33496Y439505D01*
X33590Y439462D01*
X33609Y439459D01*
X33628Y439452D01*
X33795Y439433D01*
X50806Y439433D01*
X50813Y439426D01*
X50813Y434155D01*
X50815Y434145D01*
X50814Y434138D01*
X50822Y434106D01*
X50828Y434065D01*
X50835Y433974D01*
X50848Y433944D01*
X50853Y433912D01*
X50896Y433832D01*
X50932Y433748D01*
X50957Y433716D01*
X50968Y433695D01*
X50992Y433673D01*
X51036Y433617D01*
X51231Y433423D01*
X52016Y431527D01*
X52078Y431427D01*
X52138Y431327D01*
X52142Y431323D01*
X52146Y431318D01*
X52235Y431243D01*
X52324Y431167D01*
X52330Y431165D01*
X52335Y431161D01*
X52443Y431119D01*
X52553Y431075D01*
X52560Y431074D01*
X52565Y431073D01*
X52583Y431072D01*
X52719Y431057D01*
X61570Y431057D01*
X84637Y407990D01*
X84711Y407937D01*
X84781Y407877D01*
X84811Y407865D01*
X84837Y407846D01*
X84924Y407819D01*
X85009Y407785D01*
X85050Y407781D01*
X85072Y407774D01*
X85104Y407775D01*
X85176Y407767D01*
X85988Y407767D01*
X86008Y407770D01*
X86027Y407768D01*
X86129Y407790D01*
X86231Y407806D01*
X86248Y407816D01*
X86268Y407820D01*
X86357Y407873D01*
X86448Y407922D01*
X86462Y407936D01*
X86479Y407946D01*
X86546Y408025D01*
X86618Y408100D01*
X86626Y408118D01*
X86639Y408133D01*
X86678Y408229D01*
X86721Y408323D01*
X86723Y408343D01*
X86731Y408361D01*
X86749Y408528D01*
X86749Y408999D01*
X87951Y410201D01*
X99549Y410201D01*
X100751Y408999D01*
X100751Y400401D01*
X99549Y399199D01*
X87951Y399199D01*
X86749Y400401D01*
X86749Y400872D01*
X86746Y400892D01*
X86748Y400911D01*
X86726Y401013D01*
X86710Y401115D01*
X86700Y401132D01*
X86696Y401152D01*
X86643Y401241D01*
X86594Y401332D01*
X86580Y401346D01*
X86570Y401363D01*
X86491Y401430D01*
X86416Y401502D01*
X86398Y401510D01*
X86383Y401523D01*
X86287Y401562D01*
X86193Y401605D01*
X86173Y401607D01*
X86155Y401615D01*
X85988Y401633D01*
X82320Y401633D01*
X59253Y424700D01*
X59179Y424753D01*
X59109Y424813D01*
X59079Y424825D01*
X59053Y424844D01*
X58966Y424871D01*
X58881Y424905D01*
X58840Y424909D01*
X58818Y424916D01*
X58786Y424915D01*
X58714Y424923D01*
X52719Y424923D01*
X52605Y424904D01*
X52488Y424887D01*
X52483Y424885D01*
X52477Y424884D01*
X52374Y424829D01*
X52269Y424776D01*
X52265Y424771D01*
X52259Y424768D01*
X52179Y424684D01*
X52097Y424600D01*
X52093Y424594D01*
X52090Y424590D01*
X52082Y424573D01*
X52016Y424453D01*
X51231Y422557D01*
X51036Y422363D01*
X50983Y422289D01*
X50924Y422220D01*
X50912Y422190D01*
X50893Y422163D01*
X50866Y422076D01*
X50832Y421992D01*
X50827Y421951D01*
X50821Y421928D01*
X50821Y421896D01*
X50813Y421825D01*
X50813Y414014D01*
X50806Y414007D01*
X50479Y414007D01*
X11684Y414007D01*
X11664Y414003D01*
X11645Y414006D01*
X11543Y413984D01*
X11441Y413967D01*
X11424Y413958D01*
X11404Y413953D01*
X11315Y413900D01*
X11224Y413852D01*
X11210Y413837D01*
X11193Y413827D01*
X11126Y413748D01*
X11054Y413673D01*
X11046Y413655D01*
X11033Y413640D01*
X10994Y413544D01*
X10951Y413450D01*
X10949Y413431D01*
X10941Y413412D01*
X10923Y413245D01*
X10923Y366535D01*
X10926Y366515D01*
X10924Y366495D01*
X10946Y366394D01*
X10962Y366292D01*
X10972Y366274D01*
X10976Y366255D01*
X11029Y366166D01*
X11078Y366075D01*
X11092Y366061D01*
X11102Y366044D01*
X11181Y365976D01*
X11256Y365905D01*
X11274Y365897D01*
X11289Y365884D01*
X11385Y365845D01*
X11479Y365802D01*
X11499Y365799D01*
X11517Y365792D01*
X11684Y365773D01*
X17322Y365773D01*
X17401Y365786D01*
X17480Y365790D01*
X17522Y365806D01*
X17565Y365813D01*
X17635Y365850D01*
X17710Y365879D01*
X17744Y365908D01*
X17783Y365928D01*
X17837Y365986D01*
X17898Y366037D01*
X17922Y366075D01*
X17952Y366107D01*
X17985Y366179D01*
X18027Y366247D01*
X18037Y366290D01*
X18056Y366330D01*
X18064Y366409D01*
X18082Y366486D01*
X18079Y366545D01*
X18083Y366574D01*
X18077Y366601D01*
X18074Y366654D01*
X18055Y366777D01*
X34798Y366777D01*
X34818Y366780D01*
X34837Y366778D01*
X34939Y366800D01*
X35041Y366817D01*
X35058Y366826D01*
X35078Y366830D01*
X35167Y366883D01*
X35258Y366932D01*
X35272Y366946D01*
X35289Y366956D01*
X35356Y367035D01*
X35427Y367110D01*
X35436Y367128D01*
X35449Y367143D01*
X35487Y367239D01*
X35531Y367333D01*
X35533Y367353D01*
X35541Y367371D01*
X35559Y367538D01*
X35559Y368301D01*
X35561Y368301D01*
X35561Y367538D01*
X35564Y367518D01*
X35562Y367499D01*
X35584Y367397D01*
X35601Y367295D01*
X35610Y367278D01*
X35614Y367258D01*
X35667Y367169D01*
X35716Y367078D01*
X35730Y367064D01*
X35740Y367047D01*
X35819Y366980D01*
X35894Y366909D01*
X35912Y366900D01*
X35927Y366887D01*
X36023Y366848D01*
X36117Y366805D01*
X36137Y366803D01*
X36155Y366795D01*
X36322Y366777D01*
X53065Y366777D01*
X53046Y366654D01*
X53046Y366574D01*
X53037Y366495D01*
X53047Y366452D01*
X53047Y366408D01*
X53073Y366333D01*
X53090Y366255D01*
X53112Y366217D01*
X53127Y366175D01*
X53175Y366112D01*
X53216Y366044D01*
X53249Y366015D01*
X53276Y365980D01*
X53342Y365936D01*
X53403Y365884D01*
X53444Y365867D01*
X53480Y365843D01*
X53557Y365822D01*
X53631Y365792D01*
X53689Y365785D01*
X53718Y365778D01*
X53745Y365779D01*
X53798Y365773D01*
X58426Y365773D01*
X58433Y365766D01*
X58433Y346494D01*
X58437Y346474D01*
X58434Y346455D01*
X58456Y346353D01*
X58473Y346251D01*
X58482Y346234D01*
X58487Y346214D01*
X58540Y346125D01*
X58588Y346034D01*
X58603Y346020D01*
X58613Y346003D01*
X58692Y345936D01*
X58767Y345864D01*
X58785Y345856D01*
X58800Y345843D01*
X58896Y345804D01*
X58990Y345761D01*
X59009Y345759D01*
X59028Y345751D01*
X59195Y345733D01*
X75344Y345733D01*
X75364Y345736D01*
X75383Y345734D01*
X75485Y345756D01*
X75587Y345772D01*
X75604Y345782D01*
X75624Y345786D01*
X75713Y345839D01*
X75804Y345888D01*
X75818Y345902D01*
X75835Y345912D01*
X75902Y345991D01*
X75974Y346066D01*
X75982Y346084D01*
X75995Y346099D01*
X76034Y346195D01*
X76077Y346289D01*
X76079Y346309D01*
X76087Y346327D01*
X76105Y346494D01*
X76105Y346761D01*
X77309Y347965D01*
X77320Y347967D01*
X77344Y347964D01*
X77441Y347986D01*
X77539Y348002D01*
X77560Y348014D01*
X77583Y348019D01*
X77668Y348071D01*
X77756Y348118D01*
X77773Y348135D01*
X77793Y348148D01*
X77857Y348224D01*
X77925Y348296D01*
X77936Y348318D01*
X77951Y348336D01*
X77987Y348429D01*
X78029Y348519D01*
X78032Y348543D01*
X78041Y348565D01*
X78045Y348665D01*
X78056Y348763D01*
X78051Y348787D01*
X78052Y348811D01*
X78025Y348907D01*
X78004Y349004D01*
X77992Y349024D01*
X77985Y349048D01*
X77929Y349130D01*
X77878Y349215D01*
X77859Y349231D01*
X77846Y349250D01*
X77766Y349310D01*
X77691Y349375D01*
X77668Y349384D01*
X77649Y349398D01*
X77493Y349459D01*
X77175Y349544D01*
X76596Y349879D01*
X76123Y350352D01*
X75788Y350931D01*
X75615Y351578D01*
X75615Y353889D01*
X81894Y353889D01*
X81914Y353892D01*
X81933Y353890D01*
X82035Y353912D01*
X82137Y353929D01*
X82154Y353938D01*
X82174Y353942D01*
X82263Y353995D01*
X82354Y354044D01*
X82368Y354058D01*
X82385Y354068D01*
X82452Y354147D01*
X82523Y354222D01*
X82532Y354240D01*
X82545Y354255D01*
X82584Y354351D01*
X82627Y354445D01*
X82629Y354465D01*
X82637Y354483D01*
X82655Y354650D01*
X82655Y355413D01*
X82657Y355413D01*
X82657Y354650D01*
X82660Y354630D01*
X82658Y354611D01*
X82680Y354509D01*
X82697Y354407D01*
X82706Y354390D01*
X82710Y354370D01*
X82763Y354281D01*
X82812Y354190D01*
X82826Y354176D01*
X82836Y354159D01*
X82915Y354092D01*
X82990Y354021D01*
X83008Y354012D01*
X83023Y353999D01*
X83119Y353960D01*
X83213Y353917D01*
X83233Y353915D01*
X83251Y353907D01*
X83418Y353889D01*
X89697Y353889D01*
X89697Y351577D01*
X89524Y350931D01*
X89189Y350352D01*
X88716Y349879D01*
X88137Y349544D01*
X87819Y349459D01*
X87797Y349449D01*
X87773Y349445D01*
X87685Y349399D01*
X87595Y349358D01*
X87577Y349342D01*
X87556Y349330D01*
X87487Y349258D01*
X87415Y349191D01*
X87403Y349170D01*
X87387Y349152D01*
X87345Y349062D01*
X87297Y348975D01*
X87293Y348951D01*
X87283Y348929D01*
X87272Y348830D01*
X87255Y348732D01*
X87258Y348708D01*
X87256Y348685D01*
X87277Y348587D01*
X87292Y348489D01*
X87303Y348468D01*
X87308Y348444D01*
X87359Y348359D01*
X87405Y348270D01*
X87422Y348254D01*
X87434Y348233D01*
X87510Y348168D01*
X87581Y348099D01*
X87603Y348089D01*
X87621Y348073D01*
X87714Y348036D01*
X87803Y347993D01*
X87827Y347990D01*
X87849Y347981D01*
X88004Y347964D01*
X89207Y346761D01*
X89207Y346296D01*
X89210Y346276D01*
X89208Y346257D01*
X89230Y346155D01*
X89246Y346053D01*
X89256Y346036D01*
X89260Y346016D01*
X89313Y345927D01*
X89362Y345836D01*
X89376Y345822D01*
X89386Y345805D01*
X89465Y345738D01*
X89540Y345666D01*
X89558Y345658D01*
X89573Y345645D01*
X89669Y345606D01*
X89763Y345563D01*
X89783Y345561D01*
X89801Y345553D01*
X89968Y345535D01*
X104904Y345535D01*
X104924Y345538D01*
X104943Y345536D01*
X105045Y345558D01*
X105147Y345574D01*
X105164Y345584D01*
X105184Y345588D01*
X105273Y345641D01*
X105364Y345690D01*
X105378Y345704D01*
X105395Y345714D01*
X105462Y345793D01*
X105534Y345868D01*
X105542Y345886D01*
X105555Y345901D01*
X105594Y345997D01*
X105637Y346091D01*
X105639Y346111D01*
X105647Y346129D01*
X105665Y346296D01*
X105665Y346531D01*
X105647Y346644D01*
X105631Y346758D01*
X105627Y346767D01*
X105626Y346773D01*
X105615Y346793D01*
X105563Y346911D01*
X105348Y347283D01*
X105175Y347930D01*
X105175Y350191D01*
X111904Y350191D01*
X111924Y350194D01*
X111943Y350192D01*
X112045Y350214D01*
X112147Y350231D01*
X112164Y350240D01*
X112184Y350244D01*
X112273Y350297D01*
X112364Y350346D01*
X112378Y350360D01*
X112395Y350370D01*
X112462Y350449D01*
X112533Y350524D01*
X112542Y350542D01*
X112555Y350557D01*
X112594Y350653D01*
X112637Y350747D01*
X112639Y350767D01*
X112647Y350785D01*
X112665Y350952D01*
X112665Y351715D01*
X112667Y351715D01*
X112667Y350952D01*
X112670Y350932D01*
X112668Y350913D01*
X112690Y350811D01*
X112707Y350709D01*
X112716Y350692D01*
X112720Y350672D01*
X112773Y350583D01*
X112822Y350492D01*
X112836Y350478D01*
X112846Y350461D01*
X112925Y350394D01*
X113000Y350323D01*
X113018Y350314D01*
X113033Y350301D01*
X113129Y350262D01*
X113223Y350219D01*
X113243Y350217D01*
X113261Y350209D01*
X113428Y350191D01*
X120157Y350191D01*
X120157Y347930D01*
X119984Y347283D01*
X119769Y346911D01*
X119728Y346805D01*
X119685Y346697D01*
X119684Y346687D01*
X119682Y346681D01*
X119681Y346659D01*
X119667Y346531D01*
X119667Y337880D01*
X119611Y337803D01*
X119605Y337783D01*
X119594Y337767D01*
X119569Y337666D01*
X119539Y337567D01*
X119539Y337547D01*
X119534Y337528D01*
X119542Y337425D01*
X119545Y337322D01*
X119552Y337303D01*
X119553Y337283D01*
X119594Y337188D01*
X119629Y337091D01*
X119642Y337075D01*
X119650Y337057D01*
X119667Y337035D01*
X119667Y328415D01*
X118465Y327213D01*
X106867Y327213D01*
X105665Y328415D01*
X105665Y337048D01*
X105721Y337125D01*
X105727Y337144D01*
X105738Y337161D01*
X105763Y337261D01*
X105793Y337360D01*
X105793Y337380D01*
X105798Y337400D01*
X105790Y337503D01*
X105787Y337606D01*
X105780Y337625D01*
X105779Y337645D01*
X105738Y337740D01*
X105703Y337837D01*
X105690Y337853D01*
X105682Y337871D01*
X105665Y337893D01*
X105665Y338132D01*
X105662Y338152D01*
X105664Y338171D01*
X105642Y338273D01*
X105626Y338375D01*
X105616Y338392D01*
X105612Y338412D01*
X105559Y338501D01*
X105510Y338592D01*
X105496Y338606D01*
X105486Y338623D01*
X105407Y338690D01*
X105332Y338762D01*
X105314Y338770D01*
X105299Y338783D01*
X105203Y338822D01*
X105109Y338865D01*
X105089Y338867D01*
X105071Y338875D01*
X104904Y338893D01*
X89968Y338893D01*
X89948Y338890D01*
X89929Y338892D01*
X89827Y338870D01*
X89725Y338854D01*
X89708Y338844D01*
X89688Y338840D01*
X89599Y338787D01*
X89508Y338738D01*
X89494Y338724D01*
X89477Y338714D01*
X89410Y338635D01*
X89338Y338560D01*
X89330Y338542D01*
X89317Y338527D01*
X89278Y338431D01*
X89235Y338337D01*
X89233Y338317D01*
X89225Y338299D01*
X89207Y338132D01*
X89207Y338063D01*
X88005Y336861D01*
X77307Y336861D01*
X76105Y338063D01*
X76105Y338330D01*
X76102Y338350D01*
X76104Y338369D01*
X76082Y338471D01*
X76066Y338573D01*
X76056Y338590D01*
X76052Y338610D01*
X75999Y338699D01*
X75950Y338790D01*
X75936Y338804D01*
X75926Y338821D01*
X75847Y338888D01*
X75772Y338960D01*
X75754Y338968D01*
X75739Y338981D01*
X75643Y339020D01*
X75549Y339063D01*
X75529Y339065D01*
X75511Y339073D01*
X75344Y339091D01*
X59195Y339091D01*
X59175Y339088D01*
X59155Y339090D01*
X59054Y339068D01*
X58952Y339052D01*
X58934Y339042D01*
X58915Y339038D01*
X58826Y338985D01*
X58735Y338936D01*
X58721Y338922D01*
X58704Y338912D01*
X58636Y338833D01*
X58565Y338758D01*
X58557Y338740D01*
X58544Y338725D01*
X58505Y338629D01*
X58462Y338535D01*
X58459Y338515D01*
X58452Y338497D01*
X58433Y338330D01*
X58433Y321836D01*
X58437Y321816D01*
X58434Y321797D01*
X58456Y321695D01*
X58473Y321593D01*
X58482Y321576D01*
X58487Y321556D01*
X58540Y321467D01*
X58588Y321376D01*
X58603Y321362D01*
X58613Y321345D01*
X58692Y321278D01*
X58767Y321206D01*
X58785Y321198D01*
X58800Y321185D01*
X58896Y321146D01*
X58990Y321103D01*
X59009Y321101D01*
X59028Y321093D01*
X59195Y321075D01*
X134538Y321075D01*
X134558Y321078D01*
X134577Y321076D01*
X134679Y321098D01*
X134781Y321114D01*
X134798Y321124D01*
X134818Y321128D01*
X134907Y321181D01*
X134998Y321230D01*
X135012Y321244D01*
X135029Y321254D01*
X135096Y321333D01*
X135168Y321408D01*
X135176Y321426D01*
X135189Y321441D01*
X135228Y321537D01*
X135271Y321631D01*
X135273Y321651D01*
X135281Y321669D01*
X135299Y321836D01*
X135299Y326452D01*
X135296Y326472D01*
X135298Y326491D01*
X135276Y326593D01*
X135260Y326695D01*
X135250Y326712D01*
X135246Y326732D01*
X135193Y326821D01*
X135144Y326912D01*
X135130Y326926D01*
X135120Y326943D01*
X135041Y327010D01*
X134966Y327082D01*
X134948Y327090D01*
X134933Y327103D01*
X134837Y327142D01*
X134743Y327185D01*
X134723Y327187D01*
X134705Y327195D01*
X134538Y327213D01*
X132767Y327213D01*
X131565Y328415D01*
X131565Y337013D01*
X132767Y338215D01*
X144365Y338215D01*
X145567Y337013D01*
X145567Y328415D01*
X144365Y327213D01*
X142702Y327213D01*
X142682Y327210D01*
X142663Y327212D01*
X142561Y327190D01*
X142459Y327174D01*
X142442Y327164D01*
X142422Y327160D01*
X142333Y327107D01*
X142242Y327058D01*
X142228Y327044D01*
X142211Y327034D01*
X142144Y326955D01*
X142072Y326880D01*
X142064Y326862D01*
X142051Y326847D01*
X142012Y326751D01*
X141969Y326657D01*
X141967Y326637D01*
X141959Y326619D01*
X141941Y326452D01*
X141941Y316492D01*
X141955Y316402D01*
X141963Y316311D01*
X141975Y316281D01*
X141980Y316249D01*
X142023Y316169D01*
X142059Y316085D01*
X142085Y316052D01*
X142096Y316032D01*
X142119Y316010D01*
X142164Y315954D01*
X142195Y315923D01*
X142195Y313334D01*
X142198Y313314D01*
X142196Y313295D01*
X142218Y313193D01*
X142234Y313091D01*
X142244Y313074D01*
X142248Y313054D01*
X142301Y312965D01*
X142350Y312874D01*
X142364Y312860D01*
X142374Y312843D01*
X142453Y312776D01*
X142528Y312704D01*
X142546Y312696D01*
X142561Y312683D01*
X142657Y312644D01*
X142751Y312601D01*
X142771Y312599D01*
X142789Y312591D01*
X142956Y312573D01*
X144094Y312573D01*
X145300Y311367D01*
X145319Y311281D01*
X145335Y311179D01*
X145345Y311162D01*
X145349Y311142D01*
X145402Y311053D01*
X145451Y310962D01*
X145465Y310948D01*
X145475Y310931D01*
X145554Y310864D01*
X145629Y310792D01*
X145647Y310784D01*
X145662Y310771D01*
X145758Y310732D01*
X145852Y310689D01*
X145872Y310687D01*
X145890Y310679D01*
X146057Y310661D01*
X151236Y310661D01*
X155721Y306176D01*
X155721Y239467D01*
X155732Y239397D01*
X155734Y239325D01*
X155752Y239276D01*
X155760Y239225D01*
X155794Y239161D01*
X155819Y239094D01*
X155851Y239053D01*
X155876Y239007D01*
X155928Y238958D01*
X155972Y238902D01*
X156016Y238874D01*
X156054Y238838D01*
X156119Y238808D01*
X156179Y238769D01*
X156230Y238756D01*
X156277Y238734D01*
X156348Y238726D01*
X156418Y238709D01*
X156470Y238713D01*
X156521Y238707D01*
X156592Y238722D01*
X156663Y238728D01*
X156711Y238748D01*
X156762Y238759D01*
X156823Y238796D01*
X156889Y238824D01*
X156945Y238869D01*
X156973Y238885D01*
X156988Y238903D01*
X157020Y238929D01*
X157986Y239895D01*
X160130Y240783D01*
X162450Y240783D01*
X163356Y240408D01*
X163426Y240391D01*
X163493Y240366D01*
X163545Y240363D01*
X163595Y240351D01*
X163667Y240358D01*
X163738Y240355D01*
X163788Y240370D01*
X163840Y240375D01*
X163906Y240404D01*
X163975Y240424D01*
X164017Y240453D01*
X164065Y240475D01*
X164118Y240523D01*
X164177Y240564D01*
X164208Y240606D01*
X164246Y240641D01*
X164281Y240704D01*
X164323Y240761D01*
X164339Y240811D01*
X164365Y240856D01*
X164377Y240927D01*
X164400Y240995D01*
X164399Y241047D01*
X164408Y241099D01*
X164398Y241170D01*
X164397Y241241D01*
X164377Y241310D01*
X164372Y241342D01*
X164362Y241363D01*
X164350Y241402D01*
X164347Y241410D01*
X164347Y243730D01*
X165235Y245874D01*
X166876Y247515D01*
X169020Y248403D01*
X171340Y248403D01*
X173484Y247515D01*
X175125Y245874D01*
X176013Y243730D01*
X176013Y241410D01*
X175125Y239266D01*
X173484Y237625D01*
X171340Y236737D01*
X169020Y236737D01*
X168114Y237112D01*
X168044Y237129D01*
X167977Y237154D01*
X167925Y237157D01*
X167875Y237169D01*
X167803Y237162D01*
X167732Y237165D01*
X167682Y237150D01*
X167630Y237145D01*
X167564Y237116D01*
X167495Y237096D01*
X167453Y237067D01*
X167405Y237045D01*
X167352Y236997D01*
X167293Y236956D01*
X167262Y236914D01*
X167224Y236879D01*
X167189Y236816D01*
X167147Y236759D01*
X167131Y236709D01*
X167105Y236664D01*
X167093Y236593D01*
X167070Y236525D01*
X167071Y236473D01*
X167062Y236421D01*
X167072Y236350D01*
X167073Y236279D01*
X167093Y236210D01*
X167098Y236178D01*
X167108Y236157D01*
X167120Y236118D01*
X167123Y236110D01*
X167123Y233790D01*
X166235Y231646D01*
X164594Y230005D01*
X162450Y229117D01*
X160130Y229117D01*
X157986Y230005D01*
X157020Y230971D01*
X156962Y231013D01*
X156910Y231062D01*
X156863Y231084D01*
X156821Y231115D01*
X156752Y231136D01*
X156687Y231166D01*
X156635Y231172D01*
X156585Y231187D01*
X156514Y231185D01*
X156443Y231193D01*
X156392Y231182D01*
X156340Y231181D01*
X156272Y231156D01*
X156202Y231141D01*
X156157Y231114D01*
X156109Y231096D01*
X156053Y231051D01*
X155991Y231015D01*
X155957Y230975D01*
X155917Y230942D01*
X155878Y230882D01*
X155831Y230828D01*
X155812Y230779D01*
X155784Y230735D01*
X155766Y230666D01*
X155739Y230599D01*
X155731Y230528D01*
X155723Y230497D01*
X155725Y230474D01*
X155721Y230433D01*
X155721Y229764D01*
X146948Y220991D01*
X146328Y220991D01*
X146308Y220988D01*
X146289Y220990D01*
X146187Y220968D01*
X146085Y220952D01*
X146068Y220942D01*
X146048Y220938D01*
X145959Y220885D01*
X145868Y220836D01*
X145854Y220822D01*
X145837Y220812D01*
X145770Y220733D01*
X145698Y220658D01*
X145690Y220640D01*
X145677Y220625D01*
X145638Y220529D01*
X145595Y220435D01*
X145593Y220415D01*
X145585Y220397D01*
X145567Y220230D01*
X145567Y220013D01*
X144365Y218811D01*
X142670Y218811D01*
X142650Y218808D01*
X142631Y218810D01*
X142529Y218788D01*
X142427Y218772D01*
X142410Y218762D01*
X142390Y218758D01*
X142301Y218705D01*
X142210Y218656D01*
X142196Y218642D01*
X142179Y218632D01*
X142112Y218553D01*
X142040Y218478D01*
X142032Y218460D01*
X142019Y218445D01*
X141980Y218349D01*
X141937Y218255D01*
X141935Y218235D01*
X141927Y218217D01*
X141909Y218050D01*
X141909Y204632D01*
X141912Y204612D01*
X141910Y204593D01*
X141932Y204491D01*
X141948Y204389D01*
X141958Y204372D01*
X141962Y204352D01*
X142015Y204263D01*
X142064Y204172D01*
X142078Y204158D01*
X142088Y204141D01*
X142167Y204074D01*
X142242Y204002D01*
X142260Y203994D01*
X142275Y203981D01*
X142371Y203942D01*
X142465Y203899D01*
X142485Y203897D01*
X142503Y203889D01*
X142670Y203871D01*
X144062Y203871D01*
X145379Y202554D01*
X145395Y202542D01*
X145408Y202527D01*
X145495Y202471D01*
X145579Y202411D01*
X145598Y202405D01*
X145615Y202394D01*
X145715Y202369D01*
X145814Y202338D01*
X145834Y202339D01*
X145853Y202334D01*
X145956Y202342D01*
X146060Y202345D01*
X146079Y202351D01*
X146098Y202353D01*
X146193Y202393D01*
X146291Y202429D01*
X146306Y202441D01*
X146325Y202449D01*
X146456Y202554D01*
X147587Y203686D01*
X148028Y204126D01*
X148055Y204164D01*
X148088Y204195D01*
X148126Y204263D01*
X148171Y204326D01*
X148185Y204370D01*
X148207Y204410D01*
X148221Y204487D01*
X148244Y204561D01*
X148243Y204607D01*
X148251Y204652D01*
X148239Y204729D01*
X148237Y204807D01*
X148222Y204850D01*
X148215Y204896D01*
X148180Y204965D01*
X148153Y205038D01*
X148124Y205074D01*
X148103Y205115D01*
X148048Y205169D01*
X147999Y205230D01*
X147961Y205255D01*
X147928Y205287D01*
X147808Y205353D01*
X147792Y205363D01*
X147788Y205364D01*
X147781Y205368D01*
X146556Y205875D01*
X144915Y207516D01*
X144027Y209660D01*
X144027Y211980D01*
X144915Y214124D01*
X146556Y215765D01*
X148700Y216653D01*
X151020Y216653D01*
X153135Y215777D01*
X153179Y215766D01*
X153221Y215747D01*
X153298Y215738D01*
X153374Y215721D01*
X153420Y215725D01*
X153465Y215720D01*
X153542Y215736D01*
X153619Y215744D01*
X153661Y215762D01*
X153706Y215772D01*
X153773Y215812D01*
X153844Y215844D01*
X153878Y215875D01*
X153917Y215898D01*
X153968Y215957D01*
X154025Y216010D01*
X154047Y216050D01*
X154077Y216085D01*
X154106Y216158D01*
X154143Y216226D01*
X154152Y216271D01*
X154169Y216313D01*
X154184Y216449D01*
X154187Y216468D01*
X154186Y216473D01*
X154187Y216480D01*
X154187Y217060D01*
X155075Y219204D01*
X156716Y220845D01*
X158860Y221733D01*
X161180Y221733D01*
X163324Y220845D01*
X164965Y219204D01*
X165853Y217060D01*
X165853Y214740D01*
X164965Y212596D01*
X163324Y210955D01*
X161180Y210067D01*
X158860Y210067D01*
X156745Y210943D01*
X156701Y210954D01*
X156659Y210973D01*
X156582Y210982D01*
X156506Y210999D01*
X156460Y210995D01*
X156415Y211000D01*
X156338Y210984D01*
X156261Y210976D01*
X156219Y210958D01*
X156174Y210948D01*
X156107Y210908D01*
X156036Y210876D01*
X156002Y210845D01*
X155963Y210822D01*
X155912Y210763D01*
X155855Y210710D01*
X155833Y210670D01*
X155803Y210635D01*
X155774Y210562D01*
X155737Y210494D01*
X155728Y210449D01*
X155711Y210407D01*
X155696Y210271D01*
X155693Y210252D01*
X155694Y210247D01*
X155693Y210240D01*
X155693Y209660D01*
X154805Y207516D01*
X154591Y207302D01*
X154549Y207244D01*
X154500Y207192D01*
X154478Y207145D01*
X154447Y207103D01*
X154426Y207034D01*
X154396Y206969D01*
X154390Y206917D01*
X154375Y206867D01*
X154377Y206796D01*
X154369Y206725D01*
X154380Y206674D01*
X154381Y206622D01*
X154406Y206554D01*
X154421Y206484D01*
X154448Y206439D01*
X154466Y206391D01*
X154511Y206335D01*
X154547Y206273D01*
X154587Y206239D01*
X154620Y206199D01*
X154680Y206160D01*
X154734Y206113D01*
X154783Y206094D01*
X154826Y206066D01*
X154896Y206048D01*
X154963Y206021D01*
X155034Y206013D01*
X155065Y206005D01*
X155088Y206007D01*
X155129Y206003D01*
X295628Y206003D01*
X295715Y206017D01*
X295803Y206023D01*
X295836Y206037D01*
X295871Y206042D01*
X295949Y206084D01*
X296030Y206118D01*
X296066Y206146D01*
X296088Y206158D01*
X296090Y206159D01*
X296090Y206160D01*
X296110Y206181D01*
X296162Y206222D01*
X296164Y206224D01*
X296208Y206284D01*
X296260Y206338D01*
X296280Y206383D01*
X296309Y206422D01*
X296332Y206493D01*
X296363Y206561D01*
X296369Y206610D01*
X296383Y206657D01*
X296382Y206731D01*
X296390Y206805D01*
X296380Y206854D01*
X296379Y206903D01*
X296354Y206973D01*
X296338Y207046D01*
X296313Y207088D01*
X296296Y207134D01*
X296250Y207193D01*
X296212Y207257D01*
X296174Y207289D01*
X296144Y207328D01*
X296082Y207368D01*
X296025Y207417D01*
X295979Y207435D01*
X295938Y207462D01*
X295866Y207481D01*
X295797Y207509D01*
X295730Y207516D01*
X295700Y207524D01*
X295675Y207522D01*
X295630Y207527D01*
X295004Y207527D01*
X292860Y208415D01*
X291219Y210056D01*
X290331Y212200D01*
X290331Y214520D01*
X291219Y216664D01*
X292860Y218305D01*
X295004Y219193D01*
X297324Y219193D01*
X299157Y218434D01*
X299201Y218423D01*
X299243Y218404D01*
X299320Y218395D01*
X299396Y218378D01*
X299442Y218382D01*
X299487Y218377D01*
X299564Y218393D01*
X299641Y218401D01*
X299683Y218419D01*
X299728Y218429D01*
X299795Y218469D01*
X299866Y218501D01*
X299900Y218532D01*
X299939Y218555D01*
X299990Y218614D01*
X300047Y218667D01*
X300069Y218707D01*
X300099Y218742D01*
X300128Y218814D01*
X300165Y218883D01*
X300174Y218928D01*
X300191Y218970D01*
X300206Y219106D01*
X300209Y219125D01*
X300208Y219130D01*
X300209Y219137D01*
X300209Y233027D01*
X300206Y233047D01*
X300208Y233066D01*
X300186Y233168D01*
X300170Y233270D01*
X300160Y233287D01*
X300156Y233307D01*
X300103Y233396D01*
X300054Y233487D01*
X300040Y233501D01*
X300030Y233518D01*
X299951Y233585D01*
X299876Y233657D01*
X299858Y233665D01*
X299843Y233678D01*
X299747Y233717D01*
X299653Y233760D01*
X299633Y233762D01*
X299615Y233770D01*
X299448Y233788D01*
X291093Y233788D01*
X289668Y235213D01*
X289668Y260087D01*
X291093Y261512D01*
X315967Y261512D01*
X317392Y260087D01*
X317392Y235213D01*
X315967Y233788D01*
X314216Y233788D01*
X314196Y233785D01*
X314177Y233787D01*
X314075Y233765D01*
X313973Y233749D01*
X313956Y233739D01*
X313936Y233735D01*
X313847Y233682D01*
X313756Y233633D01*
X313742Y233619D01*
X313725Y233609D01*
X313658Y233530D01*
X313586Y233455D01*
X313578Y233437D01*
X313565Y233422D01*
X313526Y233326D01*
X313483Y233232D01*
X313481Y233212D01*
X313473Y233194D01*
X313455Y233027D01*
X313455Y216597D01*
X313462Y216552D01*
X313460Y216506D01*
X313482Y216431D01*
X313494Y216354D01*
X313516Y216314D01*
X313529Y216270D01*
X313573Y216206D01*
X313610Y216137D01*
X313643Y216105D01*
X313669Y216068D01*
X313732Y216021D01*
X313788Y215967D01*
X313830Y215948D01*
X313866Y215921D01*
X313940Y215897D01*
X314011Y215864D01*
X314057Y215859D01*
X314100Y215845D01*
X314178Y215845D01*
X314255Y215837D01*
X314300Y215847D01*
X314346Y215847D01*
X314478Y215885D01*
X314496Y215889D01*
X314500Y215892D01*
X314507Y215894D01*
X316340Y216653D01*
X318660Y216653D01*
X320804Y215765D01*
X322445Y214124D01*
X323333Y211980D01*
X323333Y209660D01*
X322445Y207516D01*
X321676Y206747D01*
X321619Y206668D01*
X321557Y206593D01*
X321548Y206569D01*
X321532Y206547D01*
X321504Y206455D01*
X321469Y206363D01*
X321468Y206337D01*
X321460Y206312D01*
X321463Y206215D01*
X321458Y206118D01*
X321466Y206093D01*
X321466Y206067D01*
X321500Y205975D01*
X321527Y205882D01*
X321542Y205860D01*
X321551Y205835D01*
X321612Y205759D01*
X321667Y205679D01*
X321688Y205664D01*
X321705Y205643D01*
X321787Y205591D01*
X321865Y205533D01*
X321889Y205525D01*
X321911Y205510D01*
X322006Y205487D01*
X322098Y205457D01*
X322125Y205457D01*
X322150Y205450D01*
X322247Y205458D01*
X322344Y205459D01*
X322376Y205468D01*
X322395Y205469D01*
X322412Y205477D01*
X324756Y205477D01*
X326900Y204589D01*
X327503Y203986D01*
X327561Y203944D01*
X327613Y203895D01*
X327660Y203873D01*
X327702Y203842D01*
X327771Y203821D01*
X327836Y203791D01*
X327888Y203785D01*
X327938Y203770D01*
X328009Y203772D01*
X328080Y203764D01*
X328131Y203775D01*
X328183Y203776D01*
X328251Y203801D01*
X328321Y203816D01*
X328366Y203843D01*
X328414Y203861D01*
X328470Y203906D01*
X328532Y203942D01*
X328566Y203982D01*
X328606Y204015D01*
X328645Y204075D01*
X328692Y204129D01*
X328711Y204178D01*
X328739Y204222D01*
X328757Y204291D01*
X328784Y204358D01*
X328792Y204429D01*
X328800Y204460D01*
X328798Y204483D01*
X328802Y204524D01*
X328802Y322738D01*
X329026Y322962D01*
X353138Y322962D01*
X353158Y322965D01*
X353177Y322963D01*
X353279Y322985D01*
X353381Y323001D01*
X353398Y323011D01*
X353418Y323015D01*
X353507Y323068D01*
X353598Y323117D01*
X353612Y323131D01*
X353629Y323141D01*
X353696Y323220D01*
X353767Y323295D01*
X353776Y323313D01*
X353789Y323328D01*
X353827Y323424D01*
X353871Y323518D01*
X353873Y323538D01*
X353881Y323556D01*
X353899Y323723D01*
X353899Y324001D01*
X353901Y324001D01*
X353901Y323723D01*
X353904Y323703D01*
X353902Y323684D01*
X353924Y323582D01*
X353941Y323480D01*
X353950Y323463D01*
X353954Y323443D01*
X354007Y323354D01*
X354056Y323263D01*
X354070Y323249D01*
X354080Y323232D01*
X354159Y323165D01*
X354234Y323093D01*
X354252Y323085D01*
X354267Y323072D01*
X354363Y323033D01*
X354457Y322990D01*
X354477Y322988D01*
X354495Y322980D01*
X354662Y322962D01*
X378618Y322962D01*
X378842Y322738D01*
X378842Y170022D01*
X378618Y169798D01*
X329026Y169798D01*
X328802Y170022D01*
X328802Y194764D01*
X328791Y194834D01*
X328789Y194906D01*
X328771Y194955D01*
X328763Y195006D01*
X328729Y195070D01*
X328704Y195137D01*
X328672Y195178D01*
X328647Y195224D01*
X328595Y195273D01*
X328551Y195329D01*
X328507Y195357D01*
X328469Y195393D01*
X328404Y195423D01*
X328344Y195462D01*
X328293Y195475D01*
X328246Y195497D01*
X328175Y195505D01*
X328105Y195522D01*
X328053Y195518D01*
X328002Y195524D01*
X327931Y195509D01*
X327860Y195503D01*
X327812Y195483D01*
X327761Y195472D01*
X327700Y195435D01*
X327634Y195407D01*
X327578Y195362D01*
X327550Y195346D01*
X327535Y195328D01*
X327503Y195302D01*
X326900Y194699D01*
X324756Y193811D01*
X322436Y193811D01*
X322099Y193951D01*
X322055Y193961D01*
X322013Y193980D01*
X321936Y193989D01*
X321860Y194007D01*
X321814Y194003D01*
X321769Y194008D01*
X321692Y193991D01*
X321615Y193984D01*
X321573Y193965D01*
X321528Y193955D01*
X321461Y193915D01*
X321390Y193884D01*
X321356Y193853D01*
X321317Y193829D01*
X321266Y193770D01*
X321209Y193717D01*
X321187Y193677D01*
X321157Y193642D01*
X321128Y193570D01*
X321091Y193502D01*
X321082Y193457D01*
X321065Y193414D01*
X321050Y193278D01*
X321047Y193260D01*
X321048Y193255D01*
X321047Y193247D01*
X321047Y191372D01*
X320159Y189228D01*
X318518Y187587D01*
X316374Y186699D01*
X314054Y186699D01*
X311910Y187587D01*
X311716Y187781D01*
X311658Y187823D01*
X311606Y187872D01*
X311559Y187894D01*
X311517Y187925D01*
X311448Y187946D01*
X311383Y187976D01*
X311331Y187982D01*
X311281Y187997D01*
X311210Y187995D01*
X311139Y188003D01*
X311088Y187992D01*
X311036Y187991D01*
X310968Y187966D01*
X310898Y187951D01*
X310853Y187924D01*
X310805Y187906D01*
X310749Y187861D01*
X310687Y187825D01*
X310653Y187785D01*
X310613Y187752D01*
X310574Y187692D01*
X310527Y187638D01*
X310508Y187589D01*
X310480Y187546D01*
X310462Y187476D01*
X310435Y187409D01*
X310427Y187338D01*
X310419Y187307D01*
X310421Y187284D01*
X310417Y187243D01*
X310417Y184867D01*
X310428Y184796D01*
X310430Y184725D01*
X310448Y184676D01*
X310456Y184625D01*
X310490Y184561D01*
X310515Y184494D01*
X310547Y184453D01*
X310572Y184407D01*
X310624Y184358D01*
X310669Y184302D01*
X310712Y184274D01*
X310750Y184238D01*
X310815Y184207D01*
X310875Y184169D01*
X310926Y184156D01*
X310973Y184134D01*
X311044Y184126D01*
X311114Y184109D01*
X311166Y184113D01*
X311217Y184107D01*
X311288Y184122D01*
X311359Y184128D01*
X311407Y184148D01*
X311458Y184159D01*
X311520Y184196D01*
X311586Y184224D01*
X311625Y184256D01*
X313800Y185157D01*
X316120Y185157D01*
X318264Y184269D01*
X319905Y182628D01*
X320793Y180484D01*
X320793Y178164D01*
X319905Y176020D01*
X318264Y174379D01*
X316120Y173491D01*
X313800Y173491D01*
X311625Y174392D01*
X311606Y174410D01*
X311559Y174432D01*
X311517Y174462D01*
X311448Y174484D01*
X311383Y174514D01*
X311331Y174520D01*
X311282Y174535D01*
X311210Y174533D01*
X311139Y174541D01*
X311088Y174530D01*
X311036Y174529D01*
X310968Y174504D01*
X310898Y174489D01*
X310853Y174462D01*
X310805Y174444D01*
X310749Y174399D01*
X310687Y174363D01*
X310653Y174323D01*
X310613Y174291D01*
X310574Y174230D01*
X310527Y174176D01*
X310508Y174127D01*
X310480Y174084D01*
X310462Y174014D01*
X310435Y173947D01*
X310427Y173876D01*
X310419Y173845D01*
X310421Y173822D01*
X310417Y173781D01*
X310417Y130101D01*
X308100Y127784D01*
X303518Y123202D01*
X301201Y120885D01*
X285255Y120885D01*
X285235Y120882D01*
X285215Y120884D01*
X285114Y120862D01*
X285012Y120846D01*
X284994Y120836D01*
X284975Y120832D01*
X284886Y120779D01*
X284795Y120730D01*
X284781Y120716D01*
X284764Y120706D01*
X284696Y120627D01*
X284625Y120552D01*
X284617Y120534D01*
X284604Y120519D01*
X284565Y120423D01*
X284522Y120329D01*
X284519Y120309D01*
X284512Y120291D01*
X284493Y120124D01*
X284493Y60954D01*
X284486Y60947D01*
X284159Y60947D01*
X259855Y60947D01*
X259835Y60943D01*
X259815Y60946D01*
X259714Y60924D01*
X259612Y60907D01*
X259594Y60898D01*
X259575Y60893D01*
X259486Y60840D01*
X259395Y60792D01*
X259381Y60777D01*
X259364Y60767D01*
X259296Y60688D01*
X259225Y60613D01*
X259217Y60595D01*
X259204Y60580D01*
X259165Y60484D01*
X259122Y60390D01*
X259119Y60371D01*
X259112Y60352D01*
X259093Y60185D01*
X259093Y36335D01*
X259097Y36315D01*
X259094Y36295D01*
X259116Y36194D01*
X259133Y36092D01*
X259142Y36074D01*
X259147Y36055D01*
X259200Y35966D01*
X259248Y35875D01*
X259263Y35861D01*
X259273Y35844D01*
X259352Y35776D01*
X259427Y35705D01*
X259445Y35697D01*
X259460Y35684D01*
X259556Y35645D01*
X259650Y35602D01*
X259669Y35599D01*
X259688Y35592D01*
X259855Y35573D01*
X284486Y35573D01*
X284493Y35566D01*
X284493Y11684D01*
X284497Y11664D01*
X284494Y11645D01*
X284516Y11543D01*
X284533Y11441D01*
X284542Y11424D01*
X284547Y11404D01*
X284600Y11315D01*
X284648Y11224D01*
X284663Y11210D01*
X284673Y11193D01*
X284752Y11126D01*
X284827Y11054D01*
X284845Y11046D01*
X284860Y11033D01*
X284956Y10994D01*
X285050Y10951D01*
X285069Y10949D01*
X285088Y10941D01*
X285255Y10923D01*
X324345Y10923D01*
X324365Y10926D01*
G37*
G36*
X232925Y10926D02*
X232925Y10926D01*
X232945Y10924D01*
X233046Y10946D01*
X233148Y10962D01*
X233166Y10972D01*
X233185Y10976D01*
X233274Y11029D01*
X233365Y11078D01*
X233379Y11092D01*
X233396Y11102D01*
X233464Y11181D01*
X233535Y11256D01*
X233543Y11274D01*
X233556Y11289D01*
X233595Y11385D01*
X233638Y11479D01*
X233641Y11499D01*
X233648Y11517D01*
X233667Y11684D01*
X233667Y119787D01*
X233664Y119804D01*
X233666Y119821D01*
X233660Y119847D01*
X233661Y119878D01*
X233639Y119953D01*
X233627Y120029D01*
X233616Y120050D01*
X233613Y120061D01*
X233603Y120079D01*
X233593Y120114D01*
X233548Y120178D01*
X233512Y120247D01*
X233490Y120267D01*
X233487Y120272D01*
X233476Y120282D01*
X233452Y120316D01*
X233390Y120362D01*
X233333Y120416D01*
X233302Y120430D01*
X233300Y120432D01*
X233291Y120436D01*
X233255Y120463D01*
X233181Y120487D01*
X233110Y120520D01*
X233073Y120524D01*
X233072Y120524D01*
X233063Y120525D01*
X233021Y120539D01*
X232946Y120538D01*
X232905Y120543D01*
X232902Y120543D01*
X232866Y120547D01*
X232821Y120537D01*
X232775Y120537D01*
X232671Y120506D01*
X232650Y120503D01*
X232641Y120498D01*
X232626Y120494D01*
X232621Y120492D01*
X232614Y120490D01*
X230102Y119449D01*
X227098Y119449D01*
X224323Y120599D01*
X222199Y122723D01*
X221997Y123209D01*
X221936Y123309D01*
X221876Y123409D01*
X221871Y123413D01*
X221868Y123418D01*
X221778Y123493D01*
X221689Y123569D01*
X221683Y123571D01*
X221678Y123575D01*
X221570Y123617D01*
X221461Y123661D01*
X221453Y123662D01*
X221449Y123663D01*
X221430Y123664D01*
X221294Y123679D01*
X221143Y123679D01*
X221053Y123665D01*
X220962Y123657D01*
X220933Y123645D01*
X220901Y123640D01*
X220820Y123597D01*
X220736Y123561D01*
X220704Y123535D01*
X220683Y123524D01*
X220661Y123501D01*
X220605Y123456D01*
X219204Y122055D01*
X217060Y121167D01*
X214740Y121167D01*
X212596Y122055D01*
X210955Y123696D01*
X210067Y125840D01*
X210067Y128160D01*
X210955Y130304D01*
X212596Y131945D01*
X214740Y132833D01*
X217060Y132833D01*
X219204Y131945D01*
X220605Y130544D01*
X220679Y130491D01*
X220748Y130431D01*
X220779Y130419D01*
X220805Y130400D01*
X220892Y130373D01*
X220977Y130339D01*
X221018Y130335D01*
X221040Y130328D01*
X221072Y130329D01*
X221143Y130321D01*
X221294Y130321D01*
X221409Y130340D01*
X221525Y130357D01*
X221531Y130359D01*
X221537Y130360D01*
X221639Y130415D01*
X221744Y130468D01*
X221749Y130473D01*
X221754Y130476D01*
X221834Y130560D01*
X221916Y130644D01*
X221920Y130650D01*
X221924Y130654D01*
X221931Y130671D01*
X221997Y130791D01*
X222199Y131277D01*
X224323Y133401D01*
X227098Y134551D01*
X230102Y134551D01*
X232614Y133510D01*
X232659Y133500D01*
X232700Y133480D01*
X232778Y133472D01*
X232853Y133454D01*
X232899Y133458D01*
X232945Y133453D01*
X233021Y133470D01*
X233098Y133477D01*
X233140Y133496D01*
X233185Y133506D01*
X233252Y133545D01*
X233323Y133577D01*
X233357Y133608D01*
X233396Y133632D01*
X233447Y133691D01*
X233504Y133744D01*
X233526Y133784D01*
X233556Y133819D01*
X233585Y133891D01*
X233623Y133959D01*
X233631Y134004D01*
X233648Y134047D01*
X233663Y134183D01*
X233666Y134201D01*
X233666Y134206D01*
X233667Y134213D01*
X233667Y139379D01*
X233667Y139706D01*
X233674Y139713D01*
X284486Y139713D01*
X284493Y139706D01*
X284493Y128796D01*
X284497Y128776D01*
X284494Y128757D01*
X284516Y128655D01*
X284533Y128553D01*
X284542Y128536D01*
X284547Y128516D01*
X284600Y128427D01*
X284648Y128336D01*
X284663Y128322D01*
X284673Y128305D01*
X284752Y128238D01*
X284827Y128166D01*
X284845Y128158D01*
X284860Y128145D01*
X284956Y128106D01*
X285050Y128063D01*
X285069Y128061D01*
X285088Y128053D01*
X285255Y128035D01*
X297924Y128035D01*
X298014Y128049D01*
X298105Y128057D01*
X298135Y128069D01*
X298167Y128074D01*
X298247Y128117D01*
X298331Y128153D01*
X298363Y128179D01*
X298384Y128190D01*
X298406Y128213D01*
X298462Y128258D01*
X303044Y132840D01*
X303097Y132914D01*
X303157Y132983D01*
X303169Y133013D01*
X303188Y133039D01*
X303215Y133126D01*
X303249Y133211D01*
X303253Y133252D01*
X303260Y133275D01*
X303259Y133307D01*
X303267Y133378D01*
X303267Y196954D01*
X305584Y199271D01*
X306082Y199769D01*
X306135Y199843D01*
X306195Y199913D01*
X306207Y199943D01*
X306226Y199969D01*
X306253Y200056D01*
X306287Y200141D01*
X306291Y200182D01*
X306298Y200204D01*
X306297Y200236D01*
X306305Y200308D01*
X306305Y204416D01*
X306294Y204487D01*
X306292Y204558D01*
X306274Y204607D01*
X306266Y204659D01*
X306232Y204722D01*
X306207Y204789D01*
X306175Y204830D01*
X306150Y204876D01*
X306098Y204925D01*
X306054Y204981D01*
X306010Y205010D01*
X305972Y205046D01*
X305907Y205076D01*
X305847Y205114D01*
X305796Y205127D01*
X305749Y205149D01*
X305678Y205157D01*
X305608Y205175D01*
X305556Y205170D01*
X305505Y205176D01*
X305434Y205161D01*
X305363Y205155D01*
X305315Y205135D01*
X305264Y205124D01*
X305203Y205087D01*
X305137Y205059D01*
X305081Y205014D01*
X305053Y204998D01*
X305038Y204980D01*
X305006Y204954D01*
X298905Y198853D01*
X160737Y198853D01*
X160667Y198842D01*
X160595Y198840D01*
X160546Y198822D01*
X160495Y198814D01*
X160431Y198780D01*
X160364Y198755D01*
X160323Y198723D01*
X160277Y198698D01*
X160228Y198647D01*
X160172Y198602D01*
X160144Y198558D01*
X160108Y198520D01*
X160078Y198455D01*
X160039Y198395D01*
X160026Y198344D01*
X160004Y198297D01*
X159996Y198226D01*
X159979Y198156D01*
X159983Y198104D01*
X159977Y198053D01*
X159992Y197982D01*
X159998Y197911D01*
X160018Y197863D01*
X160029Y197812D01*
X160066Y197751D01*
X160094Y197685D01*
X160139Y197629D01*
X160155Y197601D01*
X160173Y197586D01*
X160199Y197554D01*
X160393Y197360D01*
X161281Y195216D01*
X161281Y192896D01*
X160393Y190752D01*
X158752Y189111D01*
X156608Y188223D01*
X154288Y188223D01*
X152144Y189111D01*
X150503Y190752D01*
X149615Y192896D01*
X149615Y193784D01*
X149612Y193804D01*
X149614Y193823D01*
X149592Y193925D01*
X149576Y194027D01*
X149566Y194044D01*
X149562Y194064D01*
X149509Y194153D01*
X149460Y194244D01*
X149446Y194258D01*
X149436Y194275D01*
X149357Y194342D01*
X149282Y194414D01*
X149264Y194422D01*
X149249Y194435D01*
X149153Y194474D01*
X149059Y194517D01*
X149039Y194519D01*
X149021Y194527D01*
X148854Y194545D01*
X146025Y194545D01*
X146005Y194542D01*
X145986Y194544D01*
X145884Y194522D01*
X145782Y194506D01*
X145765Y194496D01*
X145745Y194492D01*
X145656Y194439D01*
X145565Y194390D01*
X145551Y194376D01*
X145534Y194366D01*
X145467Y194287D01*
X145395Y194212D01*
X145387Y194194D01*
X145374Y194179D01*
X145335Y194083D01*
X145292Y193989D01*
X145290Y193969D01*
X145282Y193951D01*
X145264Y193784D01*
X145264Y193571D01*
X144690Y192997D01*
X144663Y192960D01*
X144630Y192929D01*
X144592Y192860D01*
X144547Y192797D01*
X144533Y192753D01*
X144511Y192713D01*
X144497Y192636D01*
X144474Y192562D01*
X144475Y192516D01*
X144467Y192471D01*
X144479Y192394D01*
X144481Y192316D01*
X144496Y192273D01*
X144503Y192228D01*
X144538Y192158D01*
X144565Y192085D01*
X144594Y192049D01*
X144615Y192009D01*
X144670Y191954D01*
X144719Y191893D01*
X144757Y191868D01*
X144790Y191836D01*
X144910Y191770D01*
X144926Y191760D01*
X144931Y191759D01*
X144937Y191755D01*
X147068Y190873D01*
X148709Y189232D01*
X149597Y187088D01*
X149597Y184768D01*
X148709Y182624D01*
X147997Y181912D01*
X147955Y181854D01*
X147906Y181802D01*
X147884Y181755D01*
X147853Y181713D01*
X147832Y181644D01*
X147802Y181579D01*
X147796Y181527D01*
X147781Y181477D01*
X147783Y181406D01*
X147775Y181335D01*
X147786Y181284D01*
X147787Y181232D01*
X147812Y181164D01*
X147827Y181094D01*
X147854Y181049D01*
X147872Y181001D01*
X147917Y180945D01*
X147953Y180883D01*
X147993Y180849D01*
X148026Y180809D01*
X148086Y180770D01*
X148140Y180723D01*
X148189Y180704D01*
X148233Y180676D01*
X148302Y180658D01*
X148369Y180631D01*
X148440Y180623D01*
X148471Y180615D01*
X148494Y180617D01*
X148535Y180613D01*
X213669Y180613D01*
X213739Y180624D01*
X213811Y180626D01*
X213860Y180644D01*
X213911Y180652D01*
X213975Y180686D01*
X214042Y180711D01*
X214083Y180743D01*
X214129Y180768D01*
X214178Y180820D01*
X214234Y180864D01*
X214262Y180908D01*
X214298Y180946D01*
X214328Y181011D01*
X214367Y181071D01*
X214380Y181122D01*
X214402Y181169D01*
X214410Y181240D01*
X214427Y181310D01*
X214423Y181362D01*
X214429Y181413D01*
X214414Y181484D01*
X214408Y181555D01*
X214388Y181603D01*
X214377Y181654D01*
X214340Y181715D01*
X214312Y181781D01*
X214267Y181837D01*
X214251Y181865D01*
X214233Y181880D01*
X214207Y181912D01*
X213241Y182878D01*
X212353Y185022D01*
X212353Y187342D01*
X213241Y189486D01*
X214882Y191127D01*
X217026Y192015D01*
X219346Y192015D01*
X221490Y191127D01*
X223131Y189486D01*
X224019Y187342D01*
X224019Y185022D01*
X223131Y182878D01*
X222165Y181912D01*
X222123Y181854D01*
X222074Y181802D01*
X222052Y181755D01*
X222021Y181713D01*
X222000Y181644D01*
X221970Y181579D01*
X221964Y181527D01*
X221949Y181477D01*
X221951Y181406D01*
X221943Y181335D01*
X221954Y181284D01*
X221955Y181232D01*
X221980Y181164D01*
X221995Y181094D01*
X222022Y181049D01*
X222040Y181001D01*
X222085Y180945D01*
X222121Y180883D01*
X222161Y180849D01*
X222194Y180809D01*
X222254Y180770D01*
X222308Y180723D01*
X222357Y180704D01*
X222401Y180676D01*
X222470Y180658D01*
X222537Y180631D01*
X222608Y180623D01*
X222639Y180615D01*
X222662Y180617D01*
X222703Y180613D01*
X275931Y180613D01*
X276021Y180627D01*
X276112Y180635D01*
X276142Y180647D01*
X276174Y180652D01*
X276255Y180695D01*
X276338Y180731D01*
X276371Y180757D01*
X276391Y180768D01*
X276413Y180791D01*
X276469Y180836D01*
X278024Y182391D01*
X279237Y182391D01*
X279327Y182405D01*
X279418Y182413D01*
X279447Y182425D01*
X279479Y182430D01*
X279560Y182473D01*
X279644Y182509D01*
X279676Y182535D01*
X279697Y182546D01*
X279719Y182569D01*
X279775Y182614D01*
X281176Y184015D01*
X283320Y184903D01*
X285640Y184903D01*
X287784Y184015D01*
X289425Y182374D01*
X290313Y180230D01*
X290313Y177910D01*
X289425Y175766D01*
X287784Y174125D01*
X285640Y173237D01*
X283320Y173237D01*
X281176Y174125D01*
X280702Y174599D01*
X280686Y174611D01*
X280673Y174626D01*
X280586Y174683D01*
X280502Y174743D01*
X280483Y174749D01*
X280466Y174759D01*
X280366Y174785D01*
X280267Y174815D01*
X280247Y174815D01*
X280228Y174819D01*
X280125Y174811D01*
X280021Y174809D01*
X280003Y174802D01*
X279983Y174800D01*
X279888Y174760D01*
X279790Y174724D01*
X279775Y174712D01*
X279756Y174704D01*
X279625Y174599D01*
X278998Y173971D01*
X220025Y173971D01*
X219929Y173956D01*
X219832Y173946D01*
X219808Y173936D01*
X219782Y173932D01*
X219696Y173886D01*
X219607Y173846D01*
X219588Y173829D01*
X219565Y173816D01*
X219498Y173746D01*
X219426Y173680D01*
X219413Y173657D01*
X219395Y173638D01*
X219354Y173550D01*
X219307Y173464D01*
X219303Y173439D01*
X219292Y173415D01*
X219281Y173318D01*
X219264Y173222D01*
X219267Y173196D01*
X219265Y173171D01*
X219285Y173075D01*
X219299Y172979D01*
X219311Y172956D01*
X219317Y172930D01*
X219367Y172847D01*
X219411Y172760D01*
X219430Y172741D01*
X219443Y172719D01*
X219517Y172656D01*
X219587Y172588D01*
X219615Y172572D01*
X219630Y172559D01*
X219661Y172547D01*
X219733Y172507D01*
X221998Y171569D01*
X223639Y169928D01*
X224527Y167784D01*
X224527Y165464D01*
X223639Y163320D01*
X221998Y161679D01*
X219854Y160791D01*
X217534Y160791D01*
X215390Y161679D01*
X213749Y163320D01*
X212861Y165464D01*
X212861Y167784D01*
X213749Y169928D01*
X215390Y171569D01*
X217655Y172507D01*
X217738Y172558D01*
X217823Y172604D01*
X217841Y172622D01*
X217864Y172636D01*
X217926Y172712D01*
X217993Y172782D01*
X218004Y172806D01*
X218020Y172826D01*
X218055Y172917D01*
X218096Y173005D01*
X218099Y173031D01*
X218109Y173055D01*
X218113Y173153D01*
X218123Y173249D01*
X218118Y173275D01*
X218119Y173301D01*
X218092Y173395D01*
X218071Y173490D01*
X218058Y173512D01*
X218050Y173537D01*
X217995Y173617D01*
X217945Y173701D01*
X217925Y173718D01*
X217910Y173739D01*
X217832Y173798D01*
X217758Y173861D01*
X217734Y173871D01*
X217713Y173886D01*
X217620Y173916D01*
X217530Y173953D01*
X217497Y173956D01*
X217479Y173962D01*
X217446Y173962D01*
X217363Y173971D01*
X94505Y173971D01*
X94460Y173964D01*
X94414Y173966D01*
X94339Y173944D01*
X94263Y173932D01*
X94222Y173910D01*
X94178Y173897D01*
X94114Y173853D01*
X94045Y173816D01*
X94014Y173783D01*
X93976Y173757D01*
X93930Y173695D01*
X93876Y173638D01*
X93857Y173596D01*
X93829Y173560D01*
X93805Y173486D01*
X93772Y173415D01*
X93767Y173369D01*
X93753Y173326D01*
X93754Y173248D01*
X93745Y173171D01*
X93755Y173126D01*
X93755Y173080D01*
X93794Y172948D01*
X93798Y172930D01*
X93800Y172926D01*
X93802Y172919D01*
X94733Y170672D01*
X94733Y168352D01*
X94714Y168307D01*
X94704Y168263D01*
X94684Y168221D01*
X94676Y168144D01*
X94658Y168068D01*
X94662Y168022D01*
X94657Y167977D01*
X94674Y167901D01*
X94681Y167823D01*
X94700Y167781D01*
X94710Y167736D01*
X94750Y167669D01*
X94781Y167598D01*
X94812Y167564D01*
X94836Y167525D01*
X94895Y167474D01*
X94948Y167417D01*
X94988Y167395D01*
X95023Y167365D01*
X95095Y167336D01*
X95163Y167299D01*
X95208Y167290D01*
X95251Y167273D01*
X95387Y167258D01*
X95405Y167255D01*
X95410Y167256D01*
X95418Y167255D01*
X125755Y167255D01*
X125786Y167224D01*
X125860Y167171D01*
X125929Y167111D01*
X125959Y167099D01*
X125986Y167080D01*
X126072Y167053D01*
X126157Y167019D01*
X126198Y167015D01*
X126221Y167008D01*
X126253Y167009D01*
X126324Y167001D01*
X135998Y167001D01*
X143021Y159978D01*
X143021Y159084D01*
X143024Y159064D01*
X143022Y159045D01*
X143044Y158943D01*
X143060Y158841D01*
X143070Y158824D01*
X143074Y158804D01*
X143127Y158715D01*
X143176Y158624D01*
X143190Y158610D01*
X143200Y158593D01*
X143279Y158526D01*
X143354Y158454D01*
X143372Y158446D01*
X143387Y158433D01*
X143474Y158398D01*
X144751Y157121D01*
X144751Y149923D01*
X143549Y148721D01*
X135851Y148721D01*
X134649Y149923D01*
X134649Y157121D01*
X135029Y157501D01*
X135040Y157517D01*
X135056Y157529D01*
X135112Y157617D01*
X135172Y157700D01*
X135178Y157719D01*
X135189Y157736D01*
X135214Y157837D01*
X135244Y157936D01*
X135244Y157955D01*
X135249Y157975D01*
X135241Y158078D01*
X135238Y158181D01*
X135231Y158200D01*
X135230Y158220D01*
X135189Y158315D01*
X135154Y158412D01*
X135141Y158428D01*
X135133Y158446D01*
X135029Y158577D01*
X133469Y160136D01*
X133395Y160189D01*
X133326Y160249D01*
X133296Y160261D01*
X133270Y160280D01*
X133183Y160307D01*
X133098Y160341D01*
X133057Y160345D01*
X133035Y160352D01*
X133002Y160351D01*
X132931Y160359D01*
X126324Y160359D01*
X126234Y160345D01*
X126143Y160337D01*
X126113Y160325D01*
X126081Y160320D01*
X126001Y160277D01*
X125917Y160241D01*
X125885Y160215D01*
X125864Y160204D01*
X125842Y160181D01*
X125786Y160136D01*
X125755Y160105D01*
X112012Y160105D01*
X111992Y160102D01*
X111973Y160104D01*
X111871Y160082D01*
X111769Y160066D01*
X111752Y160056D01*
X111732Y160052D01*
X111643Y159999D01*
X111552Y159950D01*
X111538Y159936D01*
X111521Y159926D01*
X111454Y159847D01*
X111382Y159772D01*
X111374Y159754D01*
X111361Y159739D01*
X111322Y159643D01*
X111279Y159549D01*
X111277Y159529D01*
X111269Y159511D01*
X111251Y159344D01*
X111251Y144147D01*
X110049Y142945D01*
X102743Y142945D01*
X102723Y142942D01*
X102704Y142944D01*
X102602Y142922D01*
X102500Y142906D01*
X102483Y142896D01*
X102463Y142892D01*
X102374Y142839D01*
X102283Y142790D01*
X102269Y142776D01*
X102252Y142766D01*
X102185Y142687D01*
X102113Y142612D01*
X102105Y142594D01*
X102092Y142579D01*
X102053Y142483D01*
X102010Y142389D01*
X102008Y142369D01*
X102000Y142351D01*
X101982Y142184D01*
X101982Y134462D01*
X101974Y134454D01*
X101921Y134380D01*
X101861Y134310D01*
X101849Y134280D01*
X101830Y134254D01*
X101803Y134167D01*
X101769Y134082D01*
X101765Y134041D01*
X101758Y134019D01*
X101759Y133987D01*
X101751Y133916D01*
X101751Y122147D01*
X100549Y120945D01*
X88851Y120945D01*
X87647Y122149D01*
X87626Y122245D01*
X87610Y122347D01*
X87600Y122364D01*
X87596Y122384D01*
X87543Y122473D01*
X87494Y122564D01*
X87480Y122578D01*
X87470Y122595D01*
X87391Y122662D01*
X87316Y122734D01*
X87298Y122742D01*
X87283Y122755D01*
X87187Y122794D01*
X87093Y122837D01*
X87073Y122839D01*
X87055Y122847D01*
X86888Y122865D01*
X59195Y122865D01*
X59175Y122862D01*
X59155Y122864D01*
X59054Y122842D01*
X58952Y122826D01*
X58934Y122816D01*
X58915Y122812D01*
X58826Y122759D01*
X58735Y122710D01*
X58721Y122696D01*
X58704Y122686D01*
X58636Y122607D01*
X58565Y122532D01*
X58557Y122514D01*
X58544Y122499D01*
X58505Y122403D01*
X58462Y122309D01*
X58459Y122289D01*
X58452Y122271D01*
X58433Y122104D01*
X58433Y103396D01*
X58437Y103376D01*
X58434Y103357D01*
X58456Y103255D01*
X58473Y103153D01*
X58482Y103136D01*
X58487Y103116D01*
X58540Y103027D01*
X58588Y102936D01*
X58603Y102922D01*
X58613Y102905D01*
X58692Y102838D01*
X58767Y102766D01*
X58785Y102758D01*
X58800Y102745D01*
X58896Y102706D01*
X58990Y102663D01*
X59009Y102661D01*
X59028Y102653D01*
X59195Y102635D01*
X79420Y102635D01*
X79440Y102638D01*
X79459Y102636D01*
X79561Y102658D01*
X79663Y102674D01*
X79680Y102684D01*
X79700Y102688D01*
X79789Y102741D01*
X79880Y102790D01*
X79894Y102804D01*
X79911Y102814D01*
X79978Y102893D01*
X80050Y102968D01*
X80058Y102986D01*
X80071Y103001D01*
X80082Y103028D01*
X81383Y104329D01*
X82896Y104329D01*
X82916Y104332D01*
X82935Y104330D01*
X83037Y104352D01*
X83139Y104368D01*
X83156Y104378D01*
X83176Y104382D01*
X83265Y104435D01*
X83356Y104484D01*
X83370Y104498D01*
X83387Y104508D01*
X83454Y104587D01*
X83526Y104662D01*
X83534Y104680D01*
X83547Y104695D01*
X83586Y104791D01*
X83629Y104885D01*
X83631Y104905D01*
X83639Y104923D01*
X83657Y105090D01*
X83657Y107001D01*
X90467Y113811D01*
X133267Y113811D01*
X143275Y103803D01*
X143275Y103541D01*
X143289Y103451D01*
X143297Y103360D01*
X143309Y103330D01*
X143314Y103298D01*
X143357Y103217D01*
X143393Y103133D01*
X143419Y103101D01*
X143430Y103081D01*
X143453Y103058D01*
X143498Y103002D01*
X144751Y101749D01*
X144751Y94551D01*
X143549Y93349D01*
X135851Y93349D01*
X134649Y94551D01*
X134649Y102002D01*
X134635Y102092D01*
X134627Y102183D01*
X134615Y102213D01*
X134610Y102245D01*
X134567Y102325D01*
X134531Y102409D01*
X134505Y102441D01*
X134494Y102462D01*
X134471Y102484D01*
X134426Y102540D01*
X130528Y106438D01*
X130454Y106491D01*
X130385Y106551D01*
X130355Y106563D01*
X130328Y106582D01*
X130242Y106609D01*
X130157Y106643D01*
X130116Y106647D01*
X130093Y106654D01*
X130061Y106653D01*
X129990Y106661D01*
X128205Y106661D01*
X128160Y106654D01*
X128114Y106656D01*
X128039Y106634D01*
X127962Y106622D01*
X127922Y106600D01*
X127878Y106587D01*
X127814Y106543D01*
X127745Y106506D01*
X127713Y106473D01*
X127676Y106447D01*
X127629Y106384D01*
X127575Y106328D01*
X127556Y106286D01*
X127529Y106250D01*
X127505Y106176D01*
X127472Y106105D01*
X127467Y106059D01*
X127453Y106016D01*
X127453Y105938D01*
X127445Y105861D01*
X127455Y105816D01*
X127455Y105770D01*
X127493Y105638D01*
X127497Y105620D01*
X127500Y105616D01*
X127502Y105609D01*
X128261Y103776D01*
X128261Y101456D01*
X127373Y99312D01*
X125732Y97671D01*
X123588Y96783D01*
X121268Y96783D01*
X119124Y97671D01*
X117483Y99312D01*
X116595Y101456D01*
X116595Y103776D01*
X117354Y105609D01*
X117365Y105653D01*
X117384Y105695D01*
X117393Y105772D01*
X117410Y105848D01*
X117406Y105894D01*
X117411Y105939D01*
X117395Y106016D01*
X117387Y106093D01*
X117369Y106135D01*
X117359Y106180D01*
X117319Y106247D01*
X117287Y106318D01*
X117256Y106352D01*
X117233Y106391D01*
X117174Y106442D01*
X117121Y106499D01*
X117081Y106521D01*
X117046Y106551D01*
X116974Y106580D01*
X116905Y106617D01*
X116860Y106626D01*
X116818Y106643D01*
X116682Y106658D01*
X116663Y106661D01*
X116658Y106660D01*
X116651Y106661D01*
X93744Y106661D01*
X93654Y106647D01*
X93563Y106639D01*
X93533Y106627D01*
X93501Y106622D01*
X93421Y106579D01*
X93337Y106543D01*
X93305Y106517D01*
X93284Y106506D01*
X93262Y106483D01*
X93206Y106438D01*
X92396Y105628D01*
X92354Y105570D01*
X92304Y105518D01*
X92283Y105471D01*
X92252Y105429D01*
X92231Y105360D01*
X92201Y105295D01*
X92195Y105243D01*
X92180Y105193D01*
X92182Y105122D01*
X92174Y105051D01*
X92185Y105000D01*
X92186Y104948D01*
X92211Y104880D01*
X92226Y104810D01*
X92253Y104765D01*
X92271Y104717D01*
X92315Y104661D01*
X92352Y104599D01*
X92392Y104565D01*
X92424Y104525D01*
X92485Y104486D01*
X92539Y104439D01*
X92587Y104420D01*
X92631Y104392D01*
X92701Y104374D01*
X92767Y104347D01*
X92839Y104339D01*
X92870Y104331D01*
X92893Y104333D01*
X92934Y104329D01*
X93081Y104329D01*
X94283Y103127D01*
X94283Y87429D01*
X93081Y86227D01*
X81383Y86227D01*
X80181Y87429D01*
X80181Y94724D01*
X80178Y94744D01*
X80180Y94763D01*
X80158Y94865D01*
X80142Y94967D01*
X80132Y94984D01*
X80128Y95004D01*
X80075Y95093D01*
X80026Y95184D01*
X80012Y95198D01*
X80002Y95215D01*
X79923Y95282D01*
X79848Y95354D01*
X79830Y95362D01*
X79815Y95375D01*
X79719Y95414D01*
X79625Y95457D01*
X79605Y95459D01*
X79587Y95467D01*
X79420Y95485D01*
X59195Y95485D01*
X59175Y95482D01*
X59155Y95484D01*
X59054Y95462D01*
X58952Y95446D01*
X58934Y95436D01*
X58915Y95432D01*
X58826Y95379D01*
X58735Y95330D01*
X58721Y95316D01*
X58704Y95306D01*
X58636Y95227D01*
X58565Y95152D01*
X58557Y95134D01*
X58544Y95119D01*
X58505Y95023D01*
X58462Y94929D01*
X58459Y94909D01*
X58452Y94891D01*
X58433Y94724D01*
X58433Y77614D01*
X58437Y77594D01*
X58434Y77575D01*
X58456Y77473D01*
X58473Y77371D01*
X58482Y77354D01*
X58487Y77334D01*
X58540Y77245D01*
X58588Y77154D01*
X58603Y77140D01*
X58613Y77123D01*
X58692Y77056D01*
X58767Y76984D01*
X58785Y76976D01*
X58800Y76963D01*
X58896Y76924D01*
X58990Y76881D01*
X59009Y76879D01*
X59028Y76871D01*
X59195Y76853D01*
X88920Y76853D01*
X88940Y76856D01*
X88959Y76854D01*
X89061Y76876D01*
X89163Y76892D01*
X89180Y76902D01*
X89200Y76906D01*
X89289Y76959D01*
X89380Y77008D01*
X89394Y77022D01*
X89411Y77032D01*
X89478Y77111D01*
X89550Y77186D01*
X89558Y77204D01*
X89571Y77219D01*
X89610Y77315D01*
X89653Y77409D01*
X89655Y77429D01*
X89663Y77447D01*
X89681Y77614D01*
X89681Y81127D01*
X90883Y82329D01*
X97409Y82329D01*
X97429Y82332D01*
X97448Y82330D01*
X97550Y82352D01*
X97652Y82368D01*
X97669Y82378D01*
X97689Y82382D01*
X97778Y82435D01*
X97869Y82484D01*
X97883Y82498D01*
X97900Y82508D01*
X97967Y82587D01*
X98039Y82662D01*
X98047Y82680D01*
X98060Y82695D01*
X98099Y82791D01*
X98142Y82885D01*
X98144Y82905D01*
X98152Y82923D01*
X98170Y83090D01*
X98170Y89058D01*
X98394Y89282D01*
X98420Y89282D01*
X98440Y89285D01*
X98459Y89283D01*
X98561Y89305D01*
X98663Y89321D01*
X98680Y89331D01*
X98700Y89335D01*
X98789Y89388D01*
X98880Y89437D01*
X98894Y89451D01*
X98911Y89461D01*
X98978Y89540D01*
X99050Y89615D01*
X99058Y89633D01*
X99071Y89648D01*
X99110Y89744D01*
X99153Y89838D01*
X99155Y89858D01*
X99163Y89876D01*
X99181Y90043D01*
X99181Y103127D01*
X100383Y104329D01*
X112081Y104329D01*
X113283Y103127D01*
X113283Y87429D01*
X112081Y86227D01*
X104775Y86227D01*
X104755Y86224D01*
X104736Y86226D01*
X104634Y86204D01*
X104532Y86188D01*
X104515Y86178D01*
X104495Y86174D01*
X104406Y86121D01*
X104315Y86072D01*
X104301Y86058D01*
X104284Y86048D01*
X104217Y85969D01*
X104145Y85894D01*
X104137Y85876D01*
X104124Y85861D01*
X104085Y85765D01*
X104042Y85671D01*
X104040Y85651D01*
X104032Y85633D01*
X104014Y85466D01*
X104014Y78582D01*
X104006Y78574D01*
X103953Y78500D01*
X103893Y78430D01*
X103881Y78400D01*
X103862Y78374D01*
X103835Y78287D01*
X103801Y78202D01*
X103797Y78161D01*
X103790Y78139D01*
X103791Y78107D01*
X103783Y78036D01*
X103783Y65429D01*
X102581Y64227D01*
X90883Y64227D01*
X89681Y65429D01*
X89681Y68942D01*
X89678Y68962D01*
X89680Y68981D01*
X89658Y69083D01*
X89642Y69185D01*
X89632Y69202D01*
X89628Y69222D01*
X89575Y69311D01*
X89526Y69402D01*
X89512Y69416D01*
X89502Y69433D01*
X89423Y69500D01*
X89348Y69572D01*
X89330Y69580D01*
X89315Y69593D01*
X89219Y69632D01*
X89125Y69675D01*
X89105Y69677D01*
X89087Y69685D01*
X88920Y69703D01*
X59195Y69703D01*
X59175Y69700D01*
X59155Y69702D01*
X59054Y69680D01*
X58952Y69664D01*
X58934Y69654D01*
X58915Y69650D01*
X58826Y69597D01*
X58735Y69548D01*
X58721Y69534D01*
X58704Y69524D01*
X58636Y69445D01*
X58565Y69370D01*
X58557Y69352D01*
X58544Y69337D01*
X58505Y69241D01*
X58462Y69147D01*
X58459Y69127D01*
X58452Y69109D01*
X58433Y68942D01*
X58433Y60954D01*
X58426Y60947D01*
X58099Y60947D01*
X11684Y60947D01*
X11664Y60943D01*
X11645Y60946D01*
X11543Y60924D01*
X11441Y60907D01*
X11424Y60898D01*
X11404Y60893D01*
X11315Y60840D01*
X11224Y60792D01*
X11210Y60777D01*
X11193Y60767D01*
X11126Y60688D01*
X11054Y60613D01*
X11046Y60595D01*
X11033Y60580D01*
X10994Y60484D01*
X10951Y60390D01*
X10949Y60371D01*
X10941Y60352D01*
X10923Y60185D01*
X10923Y48387D01*
X10926Y48367D01*
X10924Y48348D01*
X10946Y48246D01*
X10962Y48144D01*
X10972Y48127D01*
X10976Y48107D01*
X11029Y48018D01*
X11078Y47927D01*
X11092Y47913D01*
X11102Y47896D01*
X11181Y47829D01*
X11256Y47757D01*
X11274Y47749D01*
X11289Y47736D01*
X11385Y47697D01*
X11479Y47654D01*
X11499Y47652D01*
X11517Y47644D01*
X11684Y47626D01*
X23654Y47626D01*
X23720Y47599D01*
X23761Y47595D01*
X23783Y47588D01*
X23815Y47589D01*
X23886Y47581D01*
X32099Y47581D01*
X39785Y44397D01*
X45667Y38515D01*
X48851Y30829D01*
X48851Y27696D01*
X48865Y27606D01*
X48873Y27515D01*
X48885Y27486D01*
X48890Y27454D01*
X48933Y27373D01*
X48969Y27289D01*
X48995Y27257D01*
X49006Y27236D01*
X49029Y27214D01*
X49055Y27181D01*
X49056Y27179D01*
X49058Y27178D01*
X49074Y27158D01*
X49150Y27082D01*
X49150Y11684D01*
X49153Y11664D01*
X49151Y11645D01*
X49173Y11543D01*
X49189Y11441D01*
X49199Y11424D01*
X49203Y11404D01*
X49256Y11315D01*
X49305Y11224D01*
X49319Y11210D01*
X49329Y11193D01*
X49408Y11126D01*
X49483Y11054D01*
X49501Y11046D01*
X49516Y11033D01*
X49612Y10994D01*
X49706Y10951D01*
X49726Y10949D01*
X49744Y10941D01*
X49911Y10923D01*
X232905Y10923D01*
X232925Y10926D01*
G37*
G36*
X134596Y210488D02*
X134596Y210488D01*
X134648Y210490D01*
X134716Y210514D01*
X134786Y210529D01*
X134831Y210556D01*
X134879Y210574D01*
X134935Y210619D01*
X134997Y210656D01*
X135031Y210695D01*
X135071Y210728D01*
X135110Y210788D01*
X135157Y210842D01*
X135176Y210891D01*
X135204Y210935D01*
X135222Y211004D01*
X135249Y211071D01*
X135257Y211142D01*
X135265Y211173D01*
X135263Y211196D01*
X135267Y211237D01*
X135267Y218050D01*
X135264Y218070D01*
X135266Y218089D01*
X135244Y218191D01*
X135228Y218293D01*
X135218Y218310D01*
X135214Y218330D01*
X135161Y218419D01*
X135112Y218510D01*
X135098Y218524D01*
X135088Y218541D01*
X135009Y218608D01*
X134934Y218680D01*
X134916Y218688D01*
X134901Y218701D01*
X134805Y218740D01*
X134711Y218783D01*
X134691Y218785D01*
X134673Y218793D01*
X134506Y218811D01*
X132767Y218811D01*
X131565Y220013D01*
X131565Y228611D01*
X132767Y229813D01*
X144365Y229813D01*
X144833Y229345D01*
X144849Y229334D01*
X144861Y229318D01*
X144948Y229262D01*
X145032Y229202D01*
X145051Y229196D01*
X145068Y229185D01*
X145169Y229160D01*
X145267Y229130D01*
X145287Y229130D01*
X145307Y229125D01*
X145410Y229133D01*
X145513Y229136D01*
X145532Y229143D01*
X145552Y229144D01*
X145647Y229185D01*
X145744Y229220D01*
X145760Y229233D01*
X145778Y229241D01*
X145909Y229345D01*
X148856Y232293D01*
X148909Y232366D01*
X148969Y232436D01*
X148981Y232466D01*
X149000Y232492D01*
X149027Y232579D01*
X149061Y232664D01*
X149065Y232705D01*
X149072Y232727D01*
X149071Y232760D01*
X149079Y232831D01*
X149079Y303109D01*
X149065Y303199D01*
X149057Y303290D01*
X149045Y303320D01*
X149040Y303352D01*
X148997Y303433D01*
X148961Y303516D01*
X148935Y303549D01*
X148924Y303569D01*
X148901Y303591D01*
X148856Y303647D01*
X148707Y303796D01*
X148634Y303849D01*
X148564Y303909D01*
X148534Y303921D01*
X148508Y303940D01*
X148421Y303967D01*
X148336Y304001D01*
X148295Y304005D01*
X148273Y304012D01*
X148240Y304011D01*
X148169Y304019D01*
X146057Y304019D01*
X146037Y304016D01*
X146018Y304018D01*
X145916Y303996D01*
X145814Y303980D01*
X145797Y303970D01*
X145777Y303966D01*
X145688Y303913D01*
X145597Y303864D01*
X145583Y303850D01*
X145566Y303840D01*
X145499Y303761D01*
X145427Y303686D01*
X145419Y303668D01*
X145406Y303653D01*
X145367Y303557D01*
X145324Y303463D01*
X145322Y303443D01*
X145314Y303425D01*
X145296Y303258D01*
X145296Y302273D01*
X144094Y301071D01*
X136186Y301071D01*
X136141Y301064D01*
X136095Y301066D01*
X136020Y301044D01*
X135944Y301032D01*
X135903Y301010D01*
X135859Y300997D01*
X135795Y300953D01*
X135726Y300916D01*
X135695Y300883D01*
X135657Y300857D01*
X135610Y300794D01*
X135557Y300738D01*
X135538Y300696D01*
X135510Y300660D01*
X135486Y300586D01*
X135453Y300515D01*
X135448Y300469D01*
X135434Y300426D01*
X135435Y300348D01*
X135426Y300271D01*
X135436Y300226D01*
X135436Y300180D01*
X135474Y300048D01*
X135478Y300030D01*
X135481Y300026D01*
X135483Y300019D01*
X136389Y297832D01*
X136389Y295512D01*
X135501Y293368D01*
X133860Y291727D01*
X131716Y290839D01*
X129396Y290839D01*
X127252Y291727D01*
X125611Y293368D01*
X124723Y295512D01*
X124723Y297832D01*
X125426Y299529D01*
X125437Y299573D01*
X125456Y299615D01*
X125464Y299692D01*
X125482Y299768D01*
X125478Y299814D01*
X125483Y299859D01*
X125466Y299936D01*
X125459Y300013D01*
X125440Y300055D01*
X125431Y300100D01*
X125391Y300167D01*
X125359Y300238D01*
X125328Y300272D01*
X125304Y300311D01*
X125245Y300362D01*
X125193Y300419D01*
X125152Y300441D01*
X125118Y300471D01*
X125045Y300500D01*
X124977Y300537D01*
X124932Y300546D01*
X124889Y300563D01*
X124754Y300578D01*
X124735Y300581D01*
X124730Y300580D01*
X124723Y300581D01*
X121661Y300581D01*
X121014Y300754D01*
X120435Y301089D01*
X119962Y301562D01*
X119627Y302141D01*
X119454Y302788D01*
X119454Y305299D01*
X125858Y305299D01*
X125878Y305302D01*
X125897Y305300D01*
X125999Y305322D01*
X126101Y305339D01*
X126118Y305348D01*
X126138Y305352D01*
X126227Y305405D01*
X126318Y305454D01*
X126332Y305468D01*
X126349Y305478D01*
X126416Y305557D01*
X126487Y305632D01*
X126496Y305650D01*
X126509Y305665D01*
X126548Y305761D01*
X126591Y305855D01*
X126593Y305875D01*
X126601Y305893D01*
X126619Y306060D01*
X126619Y307584D01*
X126616Y307604D01*
X126618Y307623D01*
X126596Y307725D01*
X126579Y307827D01*
X126570Y307844D01*
X126566Y307864D01*
X126513Y307953D01*
X126464Y308044D01*
X126450Y308058D01*
X126440Y308075D01*
X126361Y308142D01*
X126286Y308213D01*
X126268Y308222D01*
X126253Y308235D01*
X126157Y308274D01*
X126063Y308317D01*
X126043Y308319D01*
X126025Y308327D01*
X125858Y308345D01*
X119454Y308345D01*
X119454Y310856D01*
X119627Y311503D01*
X119962Y312082D01*
X120506Y312626D01*
X120548Y312684D01*
X120597Y312736D01*
X120619Y312783D01*
X120649Y312825D01*
X120670Y312894D01*
X120700Y312959D01*
X120706Y313011D01*
X120722Y313061D01*
X120720Y313132D01*
X120728Y313203D01*
X120716Y313254D01*
X120715Y313306D01*
X120691Y313374D01*
X120675Y313444D01*
X120649Y313489D01*
X120631Y313537D01*
X120586Y313593D01*
X120549Y313655D01*
X120510Y313689D01*
X120477Y313729D01*
X120417Y313768D01*
X120362Y313815D01*
X120314Y313834D01*
X120270Y313862D01*
X120201Y313880D01*
X120134Y313907D01*
X120063Y313915D01*
X120032Y313923D01*
X120008Y313921D01*
X119967Y313925D01*
X59195Y313925D01*
X59175Y313922D01*
X59155Y313924D01*
X59054Y313902D01*
X58952Y313886D01*
X58934Y313876D01*
X58915Y313872D01*
X58826Y313819D01*
X58735Y313770D01*
X58721Y313756D01*
X58704Y313746D01*
X58636Y313667D01*
X58565Y313592D01*
X58557Y313574D01*
X58544Y313559D01*
X58505Y313463D01*
X58462Y313369D01*
X58459Y313349D01*
X58452Y313331D01*
X58433Y313164D01*
X58433Y304794D01*
X58426Y304787D01*
X58099Y304787D01*
X11684Y304787D01*
X11664Y304783D01*
X11645Y304786D01*
X11543Y304764D01*
X11441Y304747D01*
X11424Y304738D01*
X11404Y304733D01*
X11315Y304680D01*
X11224Y304632D01*
X11210Y304617D01*
X11193Y304607D01*
X11126Y304528D01*
X11054Y304453D01*
X11046Y304435D01*
X11033Y304420D01*
X10994Y304324D01*
X10951Y304230D01*
X10949Y304211D01*
X10941Y304192D01*
X10923Y304025D01*
X10923Y257315D01*
X10926Y257295D01*
X10924Y257275D01*
X10946Y257174D01*
X10962Y257072D01*
X10972Y257054D01*
X10976Y257035D01*
X11029Y256946D01*
X11078Y256855D01*
X11092Y256841D01*
X11102Y256824D01*
X11181Y256756D01*
X11256Y256685D01*
X11274Y256677D01*
X11289Y256664D01*
X11385Y256625D01*
X11479Y256582D01*
X11499Y256579D01*
X11517Y256572D01*
X11684Y256553D01*
X17322Y256553D01*
X17401Y256566D01*
X17480Y256570D01*
X17522Y256586D01*
X17565Y256593D01*
X17635Y256630D01*
X17710Y256659D01*
X17744Y256688D01*
X17783Y256708D01*
X17837Y256766D01*
X17898Y256817D01*
X17922Y256855D01*
X17952Y256887D01*
X17985Y256959D01*
X18027Y257027D01*
X18037Y257070D01*
X18056Y257110D01*
X18064Y257189D01*
X18082Y257266D01*
X18079Y257325D01*
X18083Y257354D01*
X18077Y257381D01*
X18074Y257434D01*
X18055Y257557D01*
X34798Y257557D01*
X34818Y257560D01*
X34837Y257558D01*
X34939Y257580D01*
X35041Y257597D01*
X35058Y257606D01*
X35078Y257610D01*
X35167Y257663D01*
X35258Y257712D01*
X35272Y257726D01*
X35289Y257736D01*
X35356Y257815D01*
X35427Y257890D01*
X35436Y257908D01*
X35449Y257923D01*
X35487Y258019D01*
X35531Y258113D01*
X35533Y258133D01*
X35541Y258151D01*
X35559Y258318D01*
X35559Y259081D01*
X35561Y259081D01*
X35561Y258318D01*
X35563Y258303D01*
X35562Y258290D01*
X35563Y258286D01*
X35562Y258279D01*
X35584Y258177D01*
X35601Y258075D01*
X35610Y258058D01*
X35614Y258038D01*
X35667Y257949D01*
X35716Y257858D01*
X35730Y257844D01*
X35740Y257827D01*
X35819Y257760D01*
X35894Y257689D01*
X35912Y257680D01*
X35927Y257667D01*
X36023Y257628D01*
X36117Y257585D01*
X36137Y257583D01*
X36155Y257575D01*
X36322Y257557D01*
X53065Y257557D01*
X53046Y257434D01*
X53046Y257354D01*
X53037Y257275D01*
X53047Y257232D01*
X53047Y257188D01*
X53073Y257113D01*
X53090Y257035D01*
X53112Y256997D01*
X53127Y256955D01*
X53175Y256892D01*
X53216Y256824D01*
X53249Y256795D01*
X53276Y256760D01*
X53342Y256716D01*
X53403Y256664D01*
X53444Y256647D01*
X53480Y256623D01*
X53557Y256602D01*
X53631Y256572D01*
X53689Y256565D01*
X53718Y256558D01*
X53745Y256559D01*
X53798Y256553D01*
X58426Y256553D01*
X58433Y256546D01*
X58433Y237762D01*
X58436Y237748D01*
X58434Y237736D01*
X58435Y237731D01*
X58434Y237723D01*
X58456Y237621D01*
X58473Y237519D01*
X58482Y237502D01*
X58487Y237482D01*
X58540Y237393D01*
X58588Y237302D01*
X58603Y237288D01*
X58613Y237271D01*
X58692Y237204D01*
X58767Y237132D01*
X58785Y237124D01*
X58800Y237111D01*
X58896Y237072D01*
X58990Y237029D01*
X59009Y237027D01*
X59028Y237019D01*
X59195Y237001D01*
X75344Y237001D01*
X75364Y237004D01*
X75383Y237002D01*
X75485Y237024D01*
X75587Y237040D01*
X75604Y237050D01*
X75624Y237054D01*
X75713Y237107D01*
X75804Y237156D01*
X75818Y237170D01*
X75835Y237180D01*
X75902Y237259D01*
X75974Y237334D01*
X75982Y237352D01*
X75995Y237367D01*
X76034Y237463D01*
X76077Y237557D01*
X76079Y237577D01*
X76087Y237595D01*
X76105Y237762D01*
X76105Y238133D01*
X77309Y239337D01*
X77320Y239339D01*
X77344Y239336D01*
X77441Y239358D01*
X77539Y239374D01*
X77560Y239386D01*
X77584Y239391D01*
X77668Y239443D01*
X77756Y239490D01*
X77773Y239507D01*
X77793Y239520D01*
X77857Y239596D01*
X77926Y239668D01*
X77936Y239690D01*
X77951Y239708D01*
X77987Y239801D01*
X78029Y239891D01*
X78032Y239915D01*
X78041Y239937D01*
X78045Y240037D01*
X78056Y240135D01*
X78051Y240159D01*
X78052Y240183D01*
X78025Y240279D01*
X78004Y240376D01*
X77992Y240396D01*
X77985Y240420D01*
X77929Y240502D01*
X77878Y240587D01*
X77860Y240603D01*
X77846Y240622D01*
X77766Y240682D01*
X77691Y240747D01*
X77669Y240756D01*
X77649Y240770D01*
X77493Y240831D01*
X77175Y240916D01*
X76596Y241251D01*
X76123Y241724D01*
X75788Y242303D01*
X75615Y242950D01*
X75615Y245261D01*
X81894Y245261D01*
X81914Y245264D01*
X81933Y245262D01*
X82035Y245284D01*
X82137Y245301D01*
X82154Y245310D01*
X82174Y245314D01*
X82263Y245367D01*
X82354Y245416D01*
X82368Y245430D01*
X82385Y245440D01*
X82452Y245519D01*
X82523Y245594D01*
X82532Y245612D01*
X82545Y245627D01*
X82584Y245723D01*
X82627Y245817D01*
X82629Y245837D01*
X82637Y245855D01*
X82655Y246022D01*
X82655Y246785D01*
X82657Y246785D01*
X82657Y246022D01*
X82660Y246002D01*
X82658Y245983D01*
X82680Y245881D01*
X82697Y245779D01*
X82706Y245762D01*
X82710Y245742D01*
X82763Y245653D01*
X82812Y245562D01*
X82826Y245548D01*
X82836Y245531D01*
X82915Y245464D01*
X82990Y245393D01*
X83008Y245384D01*
X83023Y245371D01*
X83119Y245332D01*
X83213Y245289D01*
X83233Y245287D01*
X83251Y245279D01*
X83418Y245261D01*
X89697Y245261D01*
X89697Y242949D01*
X89524Y242303D01*
X89189Y241724D01*
X88716Y241251D01*
X88137Y240916D01*
X87819Y240831D01*
X87797Y240821D01*
X87773Y240817D01*
X87686Y240771D01*
X87595Y240730D01*
X87577Y240714D01*
X87556Y240702D01*
X87488Y240631D01*
X87415Y240563D01*
X87403Y240542D01*
X87386Y240524D01*
X87345Y240434D01*
X87297Y240347D01*
X87293Y240323D01*
X87283Y240301D01*
X87272Y240202D01*
X87255Y240104D01*
X87258Y240080D01*
X87256Y240057D01*
X87277Y239960D01*
X87292Y239861D01*
X87303Y239840D01*
X87308Y239816D01*
X87359Y239731D01*
X87405Y239642D01*
X87422Y239626D01*
X87434Y239605D01*
X87510Y239540D01*
X87581Y239471D01*
X87603Y239461D01*
X87621Y239445D01*
X87714Y239408D01*
X87803Y239365D01*
X87827Y239362D01*
X87849Y239353D01*
X88004Y239336D01*
X89207Y238133D01*
X89207Y237866D01*
X89210Y237846D01*
X89208Y237827D01*
X89230Y237725D01*
X89246Y237623D01*
X89256Y237606D01*
X89260Y237586D01*
X89313Y237497D01*
X89362Y237406D01*
X89376Y237392D01*
X89386Y237375D01*
X89465Y237308D01*
X89540Y237236D01*
X89558Y237228D01*
X89573Y237215D01*
X89669Y237176D01*
X89763Y237133D01*
X89783Y237131D01*
X89801Y237123D01*
X89968Y237105D01*
X104904Y237105D01*
X104924Y237108D01*
X104943Y237106D01*
X105045Y237128D01*
X105147Y237144D01*
X105164Y237154D01*
X105184Y237158D01*
X105273Y237211D01*
X105364Y237260D01*
X105378Y237274D01*
X105395Y237284D01*
X105462Y237363D01*
X105534Y237438D01*
X105542Y237456D01*
X105555Y237471D01*
X105594Y237567D01*
X105637Y237661D01*
X105639Y237681D01*
X105647Y237699D01*
X105665Y237866D01*
X105665Y238129D01*
X105647Y238242D01*
X105631Y238356D01*
X105627Y238365D01*
X105626Y238371D01*
X105615Y238391D01*
X105563Y238509D01*
X105348Y238881D01*
X105175Y239528D01*
X105175Y241789D01*
X111904Y241789D01*
X111924Y241792D01*
X111943Y241790D01*
X112045Y241812D01*
X112147Y241829D01*
X112164Y241838D01*
X112184Y241842D01*
X112273Y241895D01*
X112364Y241944D01*
X112378Y241958D01*
X112395Y241968D01*
X112462Y242047D01*
X112533Y242122D01*
X112542Y242140D01*
X112555Y242155D01*
X112594Y242251D01*
X112637Y242345D01*
X112639Y242365D01*
X112647Y242383D01*
X112665Y242550D01*
X112665Y244074D01*
X112662Y244094D01*
X112664Y244113D01*
X112642Y244215D01*
X112625Y244317D01*
X112616Y244334D01*
X112612Y244354D01*
X112559Y244443D01*
X112510Y244534D01*
X112496Y244548D01*
X112486Y244565D01*
X112407Y244632D01*
X112332Y244703D01*
X112314Y244712D01*
X112299Y244725D01*
X112203Y244764D01*
X112109Y244807D01*
X112089Y244809D01*
X112071Y244817D01*
X111904Y244835D01*
X105175Y244835D01*
X105175Y247096D01*
X105348Y247743D01*
X105653Y248271D01*
X105697Y248386D01*
X105740Y248497D01*
X105740Y248499D01*
X105740Y248501D01*
X105745Y248624D01*
X105750Y248743D01*
X105749Y248745D01*
X105749Y248747D01*
X105716Y248860D01*
X105681Y248979D01*
X105680Y248981D01*
X105680Y248983D01*
X105612Y249079D01*
X105541Y249181D01*
X105539Y249182D01*
X105538Y249184D01*
X105439Y249257D01*
X105344Y249328D01*
X105342Y249328D01*
X105340Y249330D01*
X105226Y249366D01*
X105110Y249404D01*
X105108Y249404D01*
X105106Y249405D01*
X104987Y249403D01*
X104864Y249402D01*
X104862Y249401D01*
X104860Y249401D01*
X104853Y249398D01*
X104703Y249355D01*
X102594Y248481D01*
X99590Y248481D01*
X96815Y249631D01*
X94691Y251755D01*
X93541Y254530D01*
X93541Y257534D01*
X94691Y260309D01*
X96815Y262433D01*
X99590Y263583D01*
X102594Y263583D01*
X105369Y262433D01*
X107493Y260309D01*
X107667Y259889D01*
X107692Y259850D01*
X107707Y259807D01*
X107756Y259746D01*
X107797Y259680D01*
X107832Y259650D01*
X107861Y259614D01*
X107926Y259572D01*
X107986Y259523D01*
X108029Y259506D01*
X108068Y259481D01*
X108143Y259462D01*
X108216Y259435D01*
X108262Y259433D01*
X108306Y259421D01*
X108384Y259427D01*
X108462Y259424D01*
X108506Y259437D01*
X108552Y259441D01*
X108623Y259471D01*
X108698Y259493D01*
X108736Y259519D01*
X108778Y259537D01*
X108885Y259622D01*
X108900Y259633D01*
X108903Y259637D01*
X108909Y259642D01*
X109604Y260337D01*
X111748Y261225D01*
X114068Y261225D01*
X116212Y260337D01*
X117853Y258696D01*
X118741Y256552D01*
X118741Y254232D01*
X117853Y252088D01*
X116367Y250602D01*
X116325Y250544D01*
X116276Y250492D01*
X116254Y250445D01*
X116223Y250403D01*
X116202Y250334D01*
X116172Y250269D01*
X116166Y250217D01*
X116151Y250167D01*
X116153Y250096D01*
X116145Y250025D01*
X116156Y249974D01*
X116157Y249922D01*
X116182Y249854D01*
X116197Y249784D01*
X116224Y249739D01*
X116242Y249691D01*
X116287Y249635D01*
X116323Y249573D01*
X116363Y249539D01*
X116396Y249499D01*
X116456Y249460D01*
X116510Y249413D01*
X116559Y249394D01*
X116603Y249366D01*
X116672Y249348D01*
X116739Y249321D01*
X116810Y249313D01*
X116841Y249305D01*
X116864Y249307D01*
X116905Y249303D01*
X117950Y249303D01*
X118597Y249130D01*
X119176Y248795D01*
X119649Y248322D01*
X119984Y247743D01*
X120157Y247096D01*
X120157Y244835D01*
X113428Y244835D01*
X113408Y244832D01*
X113389Y244834D01*
X113287Y244812D01*
X113185Y244795D01*
X113168Y244786D01*
X113148Y244782D01*
X113059Y244729D01*
X112968Y244680D01*
X112954Y244666D01*
X112937Y244656D01*
X112870Y244577D01*
X112799Y244502D01*
X112790Y244484D01*
X112777Y244469D01*
X112738Y244373D01*
X112695Y244279D01*
X112693Y244259D01*
X112685Y244241D01*
X112667Y244074D01*
X112667Y242550D01*
X112670Y242530D01*
X112668Y242511D01*
X112690Y242409D01*
X112707Y242307D01*
X112716Y242290D01*
X112720Y242270D01*
X112773Y242181D01*
X112822Y242090D01*
X112836Y242076D01*
X112846Y242059D01*
X112925Y241992D01*
X113000Y241921D01*
X113018Y241912D01*
X113033Y241899D01*
X113129Y241860D01*
X113223Y241817D01*
X113243Y241815D01*
X113261Y241807D01*
X113428Y241789D01*
X120157Y241789D01*
X120157Y239528D01*
X119984Y238881D01*
X119769Y238509D01*
X119728Y238403D01*
X119685Y238295D01*
X119684Y238285D01*
X119682Y238279D01*
X119681Y238257D01*
X119667Y238129D01*
X119667Y229478D01*
X119611Y229401D01*
X119605Y229381D01*
X119594Y229365D01*
X119569Y229264D01*
X119539Y229165D01*
X119539Y229145D01*
X119534Y229126D01*
X119542Y229023D01*
X119545Y228920D01*
X119552Y228901D01*
X119553Y228881D01*
X119594Y228786D01*
X119629Y228689D01*
X119642Y228673D01*
X119650Y228655D01*
X119667Y228633D01*
X119667Y220013D01*
X118465Y218811D01*
X106867Y218811D01*
X105665Y220013D01*
X105665Y228646D01*
X105721Y228723D01*
X105727Y228742D01*
X105738Y228759D01*
X105763Y228859D01*
X105793Y228958D01*
X105793Y228978D01*
X105798Y228998D01*
X105790Y229101D01*
X105787Y229204D01*
X105780Y229223D01*
X105779Y229243D01*
X105738Y229338D01*
X105703Y229435D01*
X105690Y229451D01*
X105682Y229469D01*
X105665Y229491D01*
X105665Y229702D01*
X105662Y229722D01*
X105664Y229741D01*
X105642Y229843D01*
X105626Y229945D01*
X105616Y229962D01*
X105612Y229982D01*
X105559Y230071D01*
X105510Y230162D01*
X105496Y230176D01*
X105486Y230193D01*
X105407Y230260D01*
X105332Y230332D01*
X105314Y230340D01*
X105299Y230353D01*
X105203Y230392D01*
X105109Y230435D01*
X105089Y230437D01*
X105071Y230445D01*
X104904Y230463D01*
X89968Y230463D01*
X89948Y230460D01*
X89929Y230462D01*
X89827Y230440D01*
X89725Y230424D01*
X89708Y230414D01*
X89688Y230410D01*
X89599Y230357D01*
X89508Y230308D01*
X89494Y230294D01*
X89477Y230284D01*
X89410Y230205D01*
X89338Y230130D01*
X89330Y230112D01*
X89317Y230097D01*
X89278Y230001D01*
X89235Y229907D01*
X89233Y229887D01*
X89225Y229869D01*
X89207Y229702D01*
X89207Y229435D01*
X88005Y228233D01*
X77307Y228233D01*
X76105Y229435D01*
X76105Y229598D01*
X76102Y229618D01*
X76104Y229637D01*
X76082Y229739D01*
X76066Y229841D01*
X76056Y229858D01*
X76052Y229878D01*
X75999Y229967D01*
X75950Y230058D01*
X75936Y230072D01*
X75926Y230089D01*
X75847Y230156D01*
X75772Y230228D01*
X75754Y230236D01*
X75739Y230249D01*
X75643Y230288D01*
X75549Y230331D01*
X75529Y230333D01*
X75511Y230341D01*
X75344Y230359D01*
X59195Y230359D01*
X59175Y230356D01*
X59155Y230358D01*
X59054Y230336D01*
X58952Y230320D01*
X58934Y230310D01*
X58915Y230306D01*
X58826Y230253D01*
X58735Y230204D01*
X58721Y230190D01*
X58704Y230180D01*
X58636Y230101D01*
X58565Y230026D01*
X58557Y230008D01*
X58544Y229993D01*
X58505Y229897D01*
X58462Y229803D01*
X58459Y229783D01*
X58452Y229765D01*
X58433Y229598D01*
X58433Y212616D01*
X58437Y212596D01*
X58434Y212577D01*
X58456Y212475D01*
X58473Y212373D01*
X58482Y212356D01*
X58487Y212336D01*
X58540Y212247D01*
X58588Y212156D01*
X58603Y212142D01*
X58613Y212125D01*
X58692Y212058D01*
X58767Y211986D01*
X58785Y211978D01*
X58800Y211965D01*
X58896Y211926D01*
X58990Y211883D01*
X59009Y211881D01*
X59028Y211873D01*
X59195Y211855D01*
X93350Y211855D01*
X93446Y211870D01*
X93543Y211880D01*
X93567Y211890D01*
X93592Y211894D01*
X93678Y211940D01*
X93767Y211980D01*
X93787Y211997D01*
X93810Y212010D01*
X93877Y212080D01*
X93948Y212146D01*
X93961Y212169D01*
X93979Y212188D01*
X94020Y212276D01*
X94067Y212362D01*
X94072Y212387D01*
X94083Y212411D01*
X94093Y212508D01*
X94111Y212604D01*
X94107Y212630D01*
X94110Y212655D01*
X94089Y212750D01*
X94075Y212847D01*
X94063Y212870D01*
X94058Y212896D01*
X94008Y212979D01*
X93963Y213066D01*
X93945Y213085D01*
X93931Y213107D01*
X93857Y213170D01*
X93788Y213238D01*
X93759Y213254D01*
X93744Y213267D01*
X93714Y213279D01*
X93641Y213319D01*
X93216Y213495D01*
X91575Y215136D01*
X90687Y217280D01*
X90687Y219600D01*
X91575Y221744D01*
X93216Y223385D01*
X95360Y224273D01*
X97680Y224273D01*
X99824Y223385D01*
X101465Y221744D01*
X102353Y219600D01*
X102353Y217280D01*
X101465Y215136D01*
X99824Y213495D01*
X99399Y213319D01*
X99316Y213268D01*
X99230Y213222D01*
X99212Y213203D01*
X99190Y213190D01*
X99128Y213115D01*
X99061Y213044D01*
X99050Y213020D01*
X99033Y213000D01*
X98998Y212909D01*
X98957Y212821D01*
X98954Y212795D01*
X98945Y212771D01*
X98941Y212673D01*
X98930Y212577D01*
X98936Y212551D01*
X98935Y212525D01*
X98962Y212431D01*
X98982Y212336D01*
X98996Y212314D01*
X99003Y212289D01*
X99059Y212209D01*
X99109Y212125D01*
X99129Y212108D01*
X99143Y212087D01*
X99221Y212029D01*
X99296Y211965D01*
X99320Y211955D01*
X99341Y211940D01*
X99433Y211910D01*
X99524Y211873D01*
X99556Y211870D01*
X99575Y211864D01*
X99608Y211864D01*
X99690Y211855D01*
X132812Y211855D01*
X133968Y210699D01*
X134026Y210657D01*
X134078Y210608D01*
X134125Y210586D01*
X134167Y210556D01*
X134236Y210534D01*
X134301Y210504D01*
X134353Y210499D01*
X134403Y210483D01*
X134474Y210485D01*
X134545Y210477D01*
X134596Y210488D01*
G37*
%LPC*%
G36*
X231134Y327647D02*
X231134Y327647D01*
X231127Y327654D01*
X231127Y327981D01*
X231127Y334959D01*
X231127Y335286D01*
X231239Y335398D01*
X231242Y335400D01*
X231333Y335448D01*
X231347Y335463D01*
X231364Y335473D01*
X231432Y335552D01*
X231503Y335627D01*
X231511Y335645D01*
X231524Y335660D01*
X231563Y335756D01*
X231606Y335850D01*
X231609Y335869D01*
X231616Y335888D01*
X231635Y336055D01*
X231635Y340510D01*
X231631Y340530D01*
X231634Y340549D01*
X231612Y340651D01*
X231595Y340753D01*
X231586Y340770D01*
X231581Y340790D01*
X231528Y340879D01*
X231480Y340970D01*
X231465Y340984D01*
X231455Y341001D01*
X231376Y341068D01*
X231301Y341139D01*
X231283Y341148D01*
X231268Y341161D01*
X231172Y341199D01*
X231078Y341243D01*
X231059Y341245D01*
X231040Y341253D01*
X230873Y341271D01*
X230271Y341271D01*
X230271Y341273D01*
X230873Y341273D01*
X230893Y341276D01*
X230913Y341274D01*
X231014Y341296D01*
X231116Y341313D01*
X231134Y341322D01*
X231153Y341326D01*
X231242Y341379D01*
X231333Y341428D01*
X231347Y341442D01*
X231364Y341452D01*
X231432Y341531D01*
X231503Y341606D01*
X231511Y341624D01*
X231524Y341639D01*
X231563Y341735D01*
X231606Y341829D01*
X231609Y341849D01*
X231616Y341867D01*
X231635Y342034D01*
X231635Y352285D01*
X231631Y352305D01*
X231634Y352325D01*
X231612Y352426D01*
X231595Y352528D01*
X231586Y352546D01*
X231581Y352565D01*
X231528Y352654D01*
X231480Y352745D01*
X231465Y352759D01*
X231455Y352776D01*
X231376Y352844D01*
X231301Y352915D01*
X231283Y352923D01*
X231268Y352936D01*
X231172Y352975D01*
X231078Y353018D01*
X231059Y353021D01*
X231040Y353028D01*
X230873Y353047D01*
X218761Y353047D01*
X218434Y353047D01*
X218427Y353054D01*
X218427Y353381D01*
X218427Y398840D01*
X218415Y398911D01*
X218413Y398982D01*
X218395Y399031D01*
X218387Y399083D01*
X218353Y399146D01*
X218329Y399214D01*
X218296Y399254D01*
X218272Y399300D01*
X218220Y399350D01*
X218175Y399406D01*
X218131Y399434D01*
X218093Y399470D01*
X218028Y399500D01*
X217968Y399539D01*
X217918Y399551D01*
X217870Y399573D01*
X217799Y399581D01*
X217730Y399599D01*
X217678Y399595D01*
X217626Y399600D01*
X217556Y399585D01*
X217484Y399579D01*
X217436Y399559D01*
X217386Y399548D01*
X217324Y399511D01*
X217258Y399483D01*
X217202Y399438D01*
X217174Y399422D01*
X217159Y399404D01*
X217127Y399378D01*
X216664Y398915D01*
X214520Y398027D01*
X212200Y398027D01*
X210056Y398915D01*
X208415Y400556D01*
X207527Y402700D01*
X207527Y404681D01*
X207513Y404771D01*
X207505Y404862D01*
X207493Y404892D01*
X207488Y404924D01*
X207445Y405005D01*
X207409Y405088D01*
X207383Y405121D01*
X207372Y405141D01*
X207349Y405163D01*
X207304Y405219D01*
X201867Y410656D01*
X201794Y410709D01*
X201724Y410769D01*
X201694Y410781D01*
X201668Y410800D01*
X201581Y410827D01*
X201496Y410861D01*
X201455Y410865D01*
X201433Y410872D01*
X201400Y410871D01*
X201329Y410879D01*
X127412Y410879D01*
X127392Y410876D01*
X127373Y410878D01*
X127271Y410856D01*
X127169Y410840D01*
X127152Y410830D01*
X127132Y410826D01*
X127043Y410773D01*
X126952Y410724D01*
X126938Y410710D01*
X126921Y410700D01*
X126854Y410621D01*
X126782Y410546D01*
X126774Y410528D01*
X126761Y410513D01*
X126722Y410417D01*
X126679Y410323D01*
X126677Y410303D01*
X126669Y410285D01*
X126651Y410118D01*
X126651Y409883D01*
X126669Y409770D01*
X126685Y409656D01*
X126689Y409647D01*
X126690Y409641D01*
X126701Y409621D01*
X126753Y409503D01*
X126968Y409131D01*
X127141Y408484D01*
X127141Y406223D01*
X120412Y406223D01*
X120392Y406220D01*
X120373Y406222D01*
X120271Y406200D01*
X120169Y406183D01*
X120152Y406174D01*
X120132Y406170D01*
X120043Y406117D01*
X119952Y406068D01*
X119938Y406054D01*
X119921Y406044D01*
X119854Y405965D01*
X119783Y405890D01*
X119774Y405872D01*
X119761Y405857D01*
X119722Y405761D01*
X119679Y405667D01*
X119677Y405647D01*
X119669Y405629D01*
X119651Y405462D01*
X119651Y404699D01*
X119649Y404699D01*
X119649Y405462D01*
X119646Y405482D01*
X119648Y405501D01*
X119626Y405603D01*
X119609Y405705D01*
X119600Y405722D01*
X119596Y405742D01*
X119543Y405831D01*
X119494Y405922D01*
X119480Y405936D01*
X119470Y405953D01*
X119391Y406020D01*
X119316Y406091D01*
X119298Y406100D01*
X119283Y406113D01*
X119187Y406152D01*
X119093Y406195D01*
X119073Y406197D01*
X119055Y406205D01*
X118888Y406223D01*
X112159Y406223D01*
X112159Y408484D01*
X112332Y409131D01*
X112547Y409503D01*
X112588Y409609D01*
X112631Y409717D01*
X112632Y409727D01*
X112634Y409733D01*
X112635Y409755D01*
X112649Y409883D01*
X112649Y418524D01*
X112650Y418525D01*
X112663Y418553D01*
X112705Y418611D01*
X112711Y418631D01*
X112722Y418647D01*
X112739Y418717D01*
X112754Y418748D01*
X112757Y418781D01*
X112777Y418847D01*
X112777Y418867D01*
X112782Y418886D01*
X112776Y418954D01*
X112781Y418992D01*
X112773Y419029D01*
X112771Y419092D01*
X112764Y419111D01*
X112763Y419131D01*
X112738Y419189D01*
X112728Y419233D01*
X112706Y419270D01*
X112687Y419323D01*
X112674Y419339D01*
X112666Y419357D01*
X112649Y419379D01*
X112649Y427999D01*
X113851Y429201D01*
X125449Y429201D01*
X126651Y427999D01*
X126651Y419382D01*
X126650Y419381D01*
X126629Y419337D01*
X126595Y419289D01*
X126589Y419270D01*
X126578Y419253D01*
X126564Y419195D01*
X126546Y419158D01*
X126542Y419116D01*
X126523Y419054D01*
X126523Y419034D01*
X126518Y419014D01*
X126523Y418950D01*
X126519Y418913D01*
X126527Y418877D01*
X126529Y418808D01*
X126536Y418789D01*
X126537Y418769D01*
X126564Y418705D01*
X126571Y418673D01*
X126589Y418644D01*
X126613Y418577D01*
X126626Y418561D01*
X126634Y418543D01*
X126651Y418521D01*
X126651Y418282D01*
X126654Y418262D01*
X126652Y418243D01*
X126674Y418141D01*
X126690Y418039D01*
X126700Y418022D01*
X126704Y418002D01*
X126757Y417913D01*
X126806Y417822D01*
X126820Y417808D01*
X126830Y417791D01*
X126909Y417724D01*
X126984Y417652D01*
X127002Y417644D01*
X127017Y417631D01*
X127113Y417592D01*
X127207Y417549D01*
X127227Y417547D01*
X127245Y417539D01*
X127412Y417521D01*
X204396Y417521D01*
X212001Y409916D01*
X212074Y409863D01*
X212144Y409803D01*
X212174Y409791D01*
X212200Y409772D01*
X212287Y409745D01*
X212372Y409711D01*
X212413Y409707D01*
X212435Y409700D01*
X212468Y409701D01*
X212539Y409693D01*
X214520Y409693D01*
X216664Y408805D01*
X218305Y407164D01*
X219193Y405020D01*
X219193Y404635D01*
X219196Y404615D01*
X219194Y404595D01*
X219216Y404494D01*
X219232Y404392D01*
X219242Y404374D01*
X219246Y404355D01*
X219299Y404266D01*
X219348Y404175D01*
X219362Y404161D01*
X219372Y404144D01*
X219451Y404076D01*
X219526Y404005D01*
X219544Y403997D01*
X219559Y403984D01*
X219655Y403945D01*
X219749Y403902D01*
X219769Y403899D01*
X219787Y403892D01*
X219954Y403873D01*
X265690Y403873D01*
X265697Y403866D01*
X265697Y327654D01*
X265690Y327647D01*
X265363Y327647D01*
X231461Y327647D01*
X231134Y327647D01*
G37*
%LPD*%
G36*
X77408Y151406D02*
X77408Y151406D01*
X77427Y151404D01*
X77529Y151426D01*
X77631Y151442D01*
X77648Y151452D01*
X77668Y151456D01*
X77757Y151509D01*
X77848Y151558D01*
X77862Y151572D01*
X77879Y151582D01*
X77946Y151661D01*
X78018Y151736D01*
X78026Y151754D01*
X78039Y151769D01*
X78078Y151865D01*
X78121Y151959D01*
X78123Y151979D01*
X78131Y151997D01*
X78149Y152164D01*
X78149Y159845D01*
X79351Y161047D01*
X85832Y161047D01*
X85922Y161061D01*
X86013Y161069D01*
X86043Y161081D01*
X86075Y161086D01*
X86155Y161129D01*
X86239Y161165D01*
X86271Y161191D01*
X86292Y161202D01*
X86314Y161225D01*
X86370Y161270D01*
X87670Y162569D01*
X87696Y162606D01*
X87730Y162637D01*
X87768Y162706D01*
X87813Y162769D01*
X87827Y162813D01*
X87849Y162853D01*
X87863Y162930D01*
X87886Y163004D01*
X87884Y163050D01*
X87892Y163095D01*
X87881Y163172D01*
X87879Y163250D01*
X87863Y163293D01*
X87857Y163338D01*
X87821Y163408D01*
X87795Y163481D01*
X87766Y163517D01*
X87745Y163558D01*
X87690Y163612D01*
X87641Y163673D01*
X87602Y163698D01*
X87570Y163730D01*
X87450Y163796D01*
X87434Y163806D01*
X87429Y163807D01*
X87423Y163811D01*
X85596Y164567D01*
X83955Y166208D01*
X83067Y168352D01*
X83067Y170672D01*
X83998Y172919D01*
X84008Y172963D01*
X84028Y173005D01*
X84036Y173082D01*
X84054Y173158D01*
X84050Y173204D01*
X84055Y173249D01*
X84038Y173326D01*
X84031Y173403D01*
X84012Y173445D01*
X84002Y173490D01*
X83963Y173557D01*
X83931Y173628D01*
X83900Y173662D01*
X83876Y173701D01*
X83817Y173752D01*
X83764Y173809D01*
X83724Y173831D01*
X83689Y173861D01*
X83617Y173890D01*
X83549Y173927D01*
X83504Y173936D01*
X83461Y173953D01*
X83325Y173968D01*
X83307Y173971D01*
X83302Y173970D01*
X83295Y173971D01*
X82459Y173971D01*
X82369Y173957D01*
X82278Y173949D01*
X82249Y173937D01*
X82217Y173932D01*
X82136Y173889D01*
X82052Y173853D01*
X82020Y173827D01*
X81999Y173816D01*
X81977Y173793D01*
X81921Y173748D01*
X80520Y172347D01*
X78376Y171459D01*
X76056Y171459D01*
X73912Y172347D01*
X72271Y173988D01*
X71383Y176132D01*
X71383Y178452D01*
X72271Y180596D01*
X73912Y182237D01*
X76056Y183125D01*
X78376Y183125D01*
X80520Y182237D01*
X81921Y180836D01*
X81995Y180783D01*
X82064Y180723D01*
X82095Y180711D01*
X82121Y180692D01*
X82208Y180665D01*
X82293Y180631D01*
X82334Y180627D01*
X82356Y180620D01*
X82388Y180621D01*
X82459Y180613D01*
X138993Y180613D01*
X139063Y180624D01*
X139135Y180626D01*
X139184Y180644D01*
X139235Y180652D01*
X139299Y180686D01*
X139366Y180711D01*
X139407Y180743D01*
X139453Y180768D01*
X139502Y180820D01*
X139558Y180864D01*
X139586Y180908D01*
X139622Y180946D01*
X139652Y181011D01*
X139691Y181071D01*
X139704Y181122D01*
X139726Y181169D01*
X139734Y181240D01*
X139751Y181310D01*
X139747Y181362D01*
X139753Y181413D01*
X139738Y181484D01*
X139732Y181555D01*
X139712Y181603D01*
X139701Y181654D01*
X139664Y181715D01*
X139636Y181781D01*
X139591Y181837D01*
X139575Y181865D01*
X139557Y181880D01*
X139531Y181912D01*
X138819Y182624D01*
X137931Y184768D01*
X137931Y187088D01*
X138819Y189232D01*
X140460Y190873D01*
X140537Y190905D01*
X140620Y190956D01*
X140706Y191002D01*
X140724Y191020D01*
X140746Y191034D01*
X140808Y191109D01*
X140875Y191180D01*
X140886Y191204D01*
X140903Y191224D01*
X140938Y191315D01*
X140979Y191403D01*
X140982Y191429D01*
X140991Y191453D01*
X140995Y191551D01*
X141006Y191647D01*
X141001Y191673D01*
X141002Y191699D01*
X140975Y191793D01*
X140954Y191888D01*
X140940Y191910D01*
X140933Y191935D01*
X140878Y192015D01*
X140828Y192099D01*
X140808Y192116D01*
X140793Y192137D01*
X140715Y192196D01*
X140641Y192259D01*
X140617Y192269D01*
X140596Y192284D01*
X140503Y192314D01*
X140413Y192351D01*
X140380Y192354D01*
X140362Y192360D01*
X140329Y192360D01*
X140246Y192369D01*
X132946Y192369D01*
X132833Y192351D01*
X132719Y192335D01*
X132710Y192331D01*
X132704Y192330D01*
X132684Y192319D01*
X132566Y192267D01*
X132194Y192052D01*
X131547Y191879D01*
X128111Y191879D01*
X128111Y197358D01*
X128108Y197378D01*
X128110Y197397D01*
X128088Y197499D01*
X128071Y197601D01*
X128062Y197618D01*
X128058Y197638D01*
X128005Y197727D01*
X127956Y197818D01*
X127942Y197832D01*
X127932Y197849D01*
X127853Y197916D01*
X127778Y197987D01*
X127760Y197996D01*
X127745Y198009D01*
X127649Y198048D01*
X127555Y198091D01*
X127535Y198093D01*
X127517Y198101D01*
X127350Y198119D01*
X126587Y198119D01*
X126587Y198882D01*
X126584Y198902D01*
X126586Y198921D01*
X126564Y199023D01*
X126547Y199125D01*
X126538Y199142D01*
X126534Y199162D01*
X126481Y199251D01*
X126432Y199342D01*
X126418Y199356D01*
X126408Y199373D01*
X126329Y199440D01*
X126254Y199511D01*
X126236Y199520D01*
X126221Y199533D01*
X126125Y199572D01*
X126031Y199615D01*
X126011Y199617D01*
X125993Y199625D01*
X125826Y199643D01*
X119422Y199643D01*
X119422Y202154D01*
X119595Y202801D01*
X119930Y203380D01*
X119956Y203406D01*
X119997Y203464D01*
X120047Y203516D01*
X120069Y203563D01*
X120099Y203605D01*
X120120Y203674D01*
X120150Y203739D01*
X120156Y203791D01*
X120171Y203840D01*
X120170Y203912D01*
X120178Y203983D01*
X120167Y204034D01*
X120165Y204086D01*
X120141Y204154D01*
X120125Y204224D01*
X120099Y204269D01*
X120081Y204317D01*
X120036Y204373D01*
X119999Y204435D01*
X119960Y204469D01*
X119927Y204509D01*
X119867Y204548D01*
X119812Y204595D01*
X119764Y204614D01*
X119720Y204642D01*
X119651Y204660D01*
X119584Y204687D01*
X119513Y204695D01*
X119482Y204703D01*
X119458Y204701D01*
X119417Y204705D01*
X109155Y204705D01*
X109085Y204694D01*
X109013Y204692D01*
X108964Y204674D01*
X108913Y204666D01*
X108849Y204632D01*
X108782Y204607D01*
X108741Y204575D01*
X108695Y204550D01*
X108646Y204498D01*
X108590Y204454D01*
X108562Y204410D01*
X108526Y204372D01*
X108496Y204307D01*
X108457Y204247D01*
X108444Y204196D01*
X108422Y204149D01*
X108414Y204078D01*
X108397Y204008D01*
X108401Y203956D01*
X108395Y203905D01*
X108410Y203834D01*
X108416Y203763D01*
X108436Y203715D01*
X108447Y203664D01*
X108484Y203603D01*
X108512Y203537D01*
X108557Y203481D01*
X108573Y203453D01*
X108591Y203438D01*
X108617Y203406D01*
X110091Y201932D01*
X110979Y199788D01*
X110979Y197468D01*
X110091Y195324D01*
X108450Y193683D01*
X106306Y192795D01*
X103986Y192795D01*
X101842Y193683D01*
X100552Y194973D01*
X100514Y195001D01*
X100482Y195035D01*
X100415Y195072D01*
X100352Y195117D01*
X100308Y195131D01*
X100267Y195153D01*
X100191Y195167D01*
X100117Y195189D01*
X100070Y195188D01*
X100024Y195196D01*
X99948Y195185D01*
X99871Y195183D01*
X99827Y195167D01*
X99781Y195160D01*
X99713Y195125D01*
X99640Y195098D01*
X99608Y195073D01*
X99603Y195071D01*
X99597Y195066D01*
X99562Y195048D01*
X99517Y195001D01*
X99472Y194966D01*
X99463Y194957D01*
X99448Y194945D01*
X99443Y194937D01*
X97241Y192735D01*
X94466Y191585D01*
X91462Y191585D01*
X88687Y192735D01*
X86563Y194859D01*
X85413Y197634D01*
X85413Y200638D01*
X86566Y203420D01*
X86597Y203464D01*
X86647Y203516D01*
X86669Y203563D01*
X86699Y203605D01*
X86720Y203674D01*
X86750Y203739D01*
X86756Y203791D01*
X86771Y203840D01*
X86769Y203912D01*
X86777Y203983D01*
X86766Y204034D01*
X86765Y204086D01*
X86740Y204154D01*
X86725Y204224D01*
X86698Y204269D01*
X86681Y204317D01*
X86636Y204373D01*
X86599Y204435D01*
X86559Y204469D01*
X86527Y204509D01*
X86467Y204548D01*
X86412Y204595D01*
X86364Y204614D01*
X86320Y204642D01*
X86251Y204660D01*
X86184Y204687D01*
X86113Y204695D01*
X86081Y204703D01*
X86058Y204701D01*
X86017Y204705D01*
X59195Y204705D01*
X59175Y204702D01*
X59155Y204704D01*
X59054Y204682D01*
X58952Y204666D01*
X58934Y204656D01*
X58915Y204652D01*
X58826Y204599D01*
X58735Y204550D01*
X58721Y204536D01*
X58704Y204526D01*
X58636Y204447D01*
X58565Y204372D01*
X58557Y204354D01*
X58544Y204339D01*
X58505Y204243D01*
X58462Y204149D01*
X58459Y204129D01*
X58452Y204111D01*
X58433Y203944D01*
X58433Y195574D01*
X58426Y195567D01*
X58099Y195567D01*
X11684Y195567D01*
X11664Y195563D01*
X11645Y195566D01*
X11543Y195544D01*
X11441Y195527D01*
X11424Y195518D01*
X11404Y195513D01*
X11315Y195460D01*
X11224Y195412D01*
X11210Y195397D01*
X11193Y195387D01*
X11126Y195308D01*
X11054Y195233D01*
X11046Y195215D01*
X11033Y195200D01*
X10994Y195104D01*
X10951Y195010D01*
X10949Y194991D01*
X10941Y194972D01*
X10923Y194805D01*
X10923Y163335D01*
X10926Y163315D01*
X10924Y163295D01*
X10946Y163194D01*
X10962Y163092D01*
X10972Y163074D01*
X10976Y163055D01*
X11029Y162966D01*
X11078Y162875D01*
X11092Y162861D01*
X11102Y162844D01*
X11181Y162776D01*
X11256Y162705D01*
X11274Y162697D01*
X11289Y162684D01*
X11385Y162645D01*
X11479Y162602D01*
X11499Y162599D01*
X11517Y162592D01*
X11684Y162573D01*
X58426Y162573D01*
X58433Y162566D01*
X58433Y152164D01*
X58437Y152144D01*
X58434Y152125D01*
X58456Y152023D01*
X58473Y151921D01*
X58482Y151904D01*
X58487Y151884D01*
X58540Y151795D01*
X58588Y151704D01*
X58603Y151690D01*
X58613Y151673D01*
X58692Y151606D01*
X58767Y151534D01*
X58785Y151526D01*
X58800Y151513D01*
X58896Y151474D01*
X58990Y151431D01*
X59009Y151429D01*
X59028Y151421D01*
X59195Y151403D01*
X77388Y151403D01*
X77408Y151406D01*
G37*
%LPC*%
G36*
X87951Y504559D02*
X87951Y504559D01*
X86749Y505761D01*
X86749Y506232D01*
X86746Y506252D01*
X86748Y506271D01*
X86726Y506373D01*
X86710Y506475D01*
X86700Y506492D01*
X86696Y506512D01*
X86643Y506601D01*
X86594Y506692D01*
X86580Y506706D01*
X86570Y506723D01*
X86491Y506790D01*
X86416Y506862D01*
X86398Y506870D01*
X86383Y506883D01*
X86287Y506922D01*
X86193Y506965D01*
X86173Y506967D01*
X86155Y506975D01*
X85988Y506993D01*
X84860Y506993D01*
X77959Y513894D01*
X77959Y525805D01*
X77956Y525825D01*
X77958Y525844D01*
X77936Y525946D01*
X77920Y526048D01*
X77910Y526065D01*
X77906Y526085D01*
X77853Y526174D01*
X77804Y526265D01*
X77790Y526279D01*
X77780Y526296D01*
X77701Y526363D01*
X77626Y526435D01*
X77608Y526443D01*
X77593Y526456D01*
X77497Y526495D01*
X77403Y526538D01*
X77383Y526540D01*
X77365Y526548D01*
X77198Y526566D01*
X76477Y526566D01*
X75275Y527768D01*
X75275Y538884D01*
X75257Y538997D01*
X75241Y539111D01*
X75237Y539120D01*
X75236Y539126D01*
X75225Y539146D01*
X75173Y539264D01*
X74958Y539636D01*
X74785Y540283D01*
X74785Y543719D01*
X80264Y543719D01*
X80284Y543722D01*
X80303Y543720D01*
X80405Y543742D01*
X80507Y543759D01*
X80524Y543768D01*
X80544Y543772D01*
X80633Y543825D01*
X80724Y543874D01*
X80738Y543888D01*
X80755Y543898D01*
X80822Y543977D01*
X80893Y544052D01*
X80902Y544070D01*
X80915Y544085D01*
X80954Y544181D01*
X80997Y544275D01*
X80999Y544295D01*
X81007Y544313D01*
X81025Y544480D01*
X81025Y545243D01*
X81027Y545243D01*
X81027Y544480D01*
X81030Y544460D01*
X81028Y544441D01*
X81050Y544339D01*
X81067Y544237D01*
X81076Y544220D01*
X81080Y544200D01*
X81133Y544111D01*
X81182Y544020D01*
X81196Y544006D01*
X81206Y543989D01*
X81285Y543922D01*
X81360Y543851D01*
X81378Y543842D01*
X81393Y543829D01*
X81489Y543790D01*
X81583Y543747D01*
X81603Y543745D01*
X81621Y543737D01*
X81788Y543719D01*
X85664Y543719D01*
X85754Y543734D01*
X85845Y543741D01*
X85874Y543753D01*
X85906Y543759D01*
X85987Y543801D01*
X86071Y543837D01*
X86103Y543863D01*
X86124Y543874D01*
X86146Y543897D01*
X86202Y543942D01*
X90248Y543942D01*
X90268Y543945D01*
X90287Y543943D01*
X90389Y543965D01*
X90491Y543981D01*
X90508Y543991D01*
X90528Y543995D01*
X90617Y544048D01*
X90708Y544097D01*
X90722Y544111D01*
X90739Y544121D01*
X90806Y544200D01*
X90878Y544275D01*
X90886Y544293D01*
X90899Y544308D01*
X90938Y544404D01*
X90981Y544498D01*
X90983Y544518D01*
X90991Y544536D01*
X91009Y544703D01*
X91009Y550377D01*
X92211Y551579D01*
X102909Y551579D01*
X104111Y550377D01*
X104111Y550364D01*
X104114Y550344D01*
X104112Y550325D01*
X104134Y550223D01*
X104150Y550121D01*
X104160Y550104D01*
X104164Y550084D01*
X104217Y549995D01*
X104266Y549904D01*
X104280Y549890D01*
X104290Y549873D01*
X104369Y549806D01*
X104444Y549734D01*
X104462Y549726D01*
X104477Y549713D01*
X104573Y549674D01*
X104667Y549631D01*
X104687Y549629D01*
X104705Y549621D01*
X104872Y549603D01*
X107715Y549603D01*
X107805Y549617D01*
X107896Y549625D01*
X107925Y549637D01*
X107957Y549642D01*
X108038Y549685D01*
X108122Y549721D01*
X108154Y549747D01*
X108175Y549758D01*
X108197Y549781D01*
X108253Y549826D01*
X108964Y550537D01*
X111108Y551425D01*
X113428Y551425D01*
X115572Y550537D01*
X117213Y548896D01*
X117895Y547250D01*
X117946Y547167D01*
X117992Y547081D01*
X118010Y547063D01*
X118024Y547040D01*
X118100Y546978D01*
X118170Y546911D01*
X118194Y546900D01*
X118214Y546884D01*
X118305Y546849D01*
X118393Y546808D01*
X118419Y546805D01*
X118443Y546795D01*
X118541Y546791D01*
X118637Y546781D01*
X118663Y546786D01*
X118689Y546785D01*
X118783Y546812D01*
X118878Y546833D01*
X118900Y546846D01*
X118925Y546854D01*
X119005Y546909D01*
X119089Y546959D01*
X119106Y546979D01*
X119127Y546994D01*
X119186Y547072D01*
X119249Y547146D01*
X119259Y547170D01*
X119274Y547191D01*
X119304Y547284D01*
X119341Y547374D01*
X119344Y547407D01*
X119350Y547425D01*
X119350Y547458D01*
X119359Y547541D01*
X119359Y550377D01*
X120561Y551579D01*
X131259Y551579D01*
X132461Y550377D01*
X132461Y550364D01*
X132464Y550344D01*
X132462Y550325D01*
X132484Y550223D01*
X132500Y550121D01*
X132510Y550104D01*
X132514Y550084D01*
X132567Y549995D01*
X132616Y549904D01*
X132630Y549890D01*
X132640Y549873D01*
X132719Y549806D01*
X132794Y549734D01*
X132812Y549726D01*
X132827Y549713D01*
X132923Y549674D01*
X133017Y549631D01*
X133037Y549629D01*
X133055Y549621D01*
X133222Y549603D01*
X136535Y549603D01*
X141574Y544564D01*
X141648Y544511D01*
X141717Y544451D01*
X141747Y544439D01*
X141774Y544420D01*
X141860Y544393D01*
X141945Y544359D01*
X141973Y544356D01*
X144154Y543453D01*
X145795Y541812D01*
X146683Y539668D01*
X146683Y537348D01*
X145795Y535204D01*
X144154Y533563D01*
X142010Y532675D01*
X139690Y532675D01*
X139002Y532960D01*
X138938Y532975D01*
X138877Y533000D01*
X138794Y533009D01*
X138762Y533016D01*
X138743Y533015D01*
X138710Y533018D01*
X133222Y533018D01*
X133202Y533015D01*
X133183Y533017D01*
X133081Y532995D01*
X132979Y532979D01*
X132962Y532969D01*
X132942Y532965D01*
X132853Y532912D01*
X132762Y532863D01*
X132748Y532849D01*
X132731Y532839D01*
X132664Y532760D01*
X132592Y532685D01*
X132584Y532667D01*
X132571Y532652D01*
X132532Y532556D01*
X132489Y532462D01*
X132487Y532442D01*
X132479Y532424D01*
X132461Y532257D01*
X132461Y528679D01*
X131259Y527477D01*
X120561Y527477D01*
X119359Y528679D01*
X119359Y529200D01*
X119356Y529220D01*
X119358Y529239D01*
X119336Y529341D01*
X119320Y529443D01*
X119310Y529460D01*
X119306Y529480D01*
X119253Y529569D01*
X119204Y529660D01*
X119190Y529674D01*
X119180Y529691D01*
X119101Y529758D01*
X119026Y529830D01*
X119008Y529838D01*
X118993Y529851D01*
X118897Y529890D01*
X118803Y529933D01*
X118783Y529935D01*
X118765Y529943D01*
X118598Y529961D01*
X104872Y529961D01*
X104852Y529958D01*
X104833Y529960D01*
X104731Y529938D01*
X104629Y529922D01*
X104612Y529912D01*
X104592Y529908D01*
X104503Y529855D01*
X104412Y529806D01*
X104398Y529792D01*
X104381Y529782D01*
X104314Y529703D01*
X104242Y529628D01*
X104234Y529610D01*
X104221Y529595D01*
X104182Y529499D01*
X104139Y529405D01*
X104137Y529385D01*
X104129Y529367D01*
X104111Y529200D01*
X104111Y528679D01*
X102909Y527477D01*
X92211Y527477D01*
X91009Y528679D01*
X91009Y529200D01*
X91006Y529220D01*
X91008Y529239D01*
X90986Y529341D01*
X90970Y529443D01*
X90960Y529460D01*
X90956Y529480D01*
X90903Y529569D01*
X90854Y529660D01*
X90840Y529674D01*
X90830Y529691D01*
X90751Y529758D01*
X90676Y529830D01*
X90658Y529838D01*
X90643Y529851D01*
X90547Y529890D01*
X90453Y529933D01*
X90433Y529935D01*
X90415Y529943D01*
X90248Y529961D01*
X87538Y529961D01*
X87518Y529958D01*
X87499Y529960D01*
X87397Y529938D01*
X87295Y529922D01*
X87278Y529912D01*
X87258Y529908D01*
X87169Y529855D01*
X87078Y529806D01*
X87064Y529792D01*
X87047Y529782D01*
X86980Y529703D01*
X86908Y529628D01*
X86900Y529610D01*
X86887Y529595D01*
X86848Y529499D01*
X86805Y529405D01*
X86803Y529385D01*
X86795Y529367D01*
X86777Y529200D01*
X86777Y527768D01*
X85575Y526566D01*
X84854Y526566D01*
X84834Y526563D01*
X84815Y526565D01*
X84713Y526543D01*
X84611Y526527D01*
X84594Y526517D01*
X84574Y526513D01*
X84485Y526460D01*
X84394Y526411D01*
X84380Y526397D01*
X84363Y526387D01*
X84296Y526308D01*
X84224Y526233D01*
X84216Y526215D01*
X84203Y526200D01*
X84164Y526104D01*
X84121Y526010D01*
X84119Y525990D01*
X84111Y525972D01*
X84093Y525805D01*
X84093Y516750D01*
X84107Y516660D01*
X84115Y516569D01*
X84127Y516539D01*
X84132Y516507D01*
X84175Y516426D01*
X84211Y516342D01*
X84237Y516310D01*
X84248Y516289D01*
X84271Y516267D01*
X84316Y516211D01*
X85920Y514607D01*
X85936Y514595D01*
X85949Y514580D01*
X86036Y514524D01*
X86120Y514463D01*
X86139Y514457D01*
X86156Y514447D01*
X86256Y514421D01*
X86355Y514391D01*
X86375Y514391D01*
X86394Y514387D01*
X86497Y514395D01*
X86601Y514397D01*
X86620Y514404D01*
X86639Y514406D01*
X86734Y514446D01*
X86832Y514482D01*
X86847Y514494D01*
X86866Y514502D01*
X86997Y514607D01*
X87951Y515561D01*
X99549Y515561D01*
X100751Y514359D01*
X100751Y505761D01*
X99549Y504559D01*
X87951Y504559D01*
G37*
%LPD*%
%LPC*%
G36*
X87951Y418199D02*
X87951Y418199D01*
X86749Y419401D01*
X86749Y426048D01*
X86735Y426139D01*
X86727Y426229D01*
X86715Y426259D01*
X86710Y426291D01*
X86667Y426372D01*
X86631Y426456D01*
X86605Y426488D01*
X86594Y426509D01*
X86571Y426531D01*
X86526Y426587D01*
X85071Y428042D01*
X85071Y438937D01*
X85068Y438957D01*
X85070Y438976D01*
X85048Y439078D01*
X85032Y439180D01*
X85022Y439197D01*
X85018Y439217D01*
X84965Y439306D01*
X84916Y439397D01*
X84902Y439411D01*
X84892Y439428D01*
X84813Y439495D01*
X84738Y439567D01*
X84720Y439575D01*
X84705Y439588D01*
X84609Y439627D01*
X84515Y439670D01*
X84495Y439672D01*
X84477Y439680D01*
X84310Y439698D01*
X81557Y439698D01*
X80355Y440900D01*
X80355Y452016D01*
X80337Y452129D01*
X80321Y452243D01*
X80317Y452252D01*
X80316Y452258D01*
X80305Y452278D01*
X80253Y452396D01*
X80038Y452768D01*
X79865Y453415D01*
X79865Y456851D01*
X85344Y456851D01*
X85364Y456854D01*
X85383Y456852D01*
X85485Y456874D01*
X85587Y456891D01*
X85604Y456900D01*
X85624Y456904D01*
X85713Y456957D01*
X85804Y457006D01*
X85818Y457020D01*
X85835Y457030D01*
X85902Y457109D01*
X85973Y457184D01*
X85982Y457202D01*
X85995Y457217D01*
X86034Y457313D01*
X86077Y457407D01*
X86079Y457427D01*
X86087Y457445D01*
X86105Y457612D01*
X86105Y458375D01*
X86107Y458375D01*
X86107Y457612D01*
X86110Y457592D01*
X86108Y457573D01*
X86130Y457471D01*
X86147Y457369D01*
X86156Y457352D01*
X86160Y457332D01*
X86213Y457243D01*
X86262Y457152D01*
X86276Y457138D01*
X86286Y457121D01*
X86365Y457054D01*
X86440Y456983D01*
X86458Y456974D01*
X86473Y456961D01*
X86569Y456922D01*
X86663Y456879D01*
X86683Y456877D01*
X86701Y456869D01*
X86868Y456851D01*
X90297Y456851D01*
X90317Y456854D01*
X90336Y456852D01*
X90438Y456874D01*
X90540Y456891D01*
X90557Y456900D01*
X90577Y456904D01*
X90666Y456957D01*
X90757Y457006D01*
X90771Y457020D01*
X90788Y457030D01*
X90855Y457109D01*
X90927Y457184D01*
X90935Y457202D01*
X90948Y457217D01*
X90968Y457268D01*
X91282Y457582D01*
X93804Y457582D01*
X93824Y457585D01*
X93843Y457583D01*
X93945Y457605D01*
X94047Y457621D01*
X94064Y457631D01*
X94084Y457635D01*
X94173Y457688D01*
X94264Y457737D01*
X94278Y457751D01*
X94295Y457761D01*
X94362Y457840D01*
X94434Y457915D01*
X94442Y457933D01*
X94455Y457948D01*
X94494Y458044D01*
X94537Y458138D01*
X94539Y458158D01*
X94547Y458176D01*
X94565Y458343D01*
X94565Y462493D01*
X95767Y463695D01*
X106465Y463695D01*
X107443Y462717D01*
X107460Y462705D01*
X107472Y462690D01*
X107559Y462634D01*
X107643Y462573D01*
X107662Y462567D01*
X107679Y462557D01*
X107779Y462531D01*
X107878Y462501D01*
X107898Y462501D01*
X107918Y462496D01*
X108021Y462505D01*
X108124Y462507D01*
X108143Y462514D01*
X108163Y462516D01*
X108258Y462556D01*
X108355Y462592D01*
X108371Y462604D01*
X108389Y462612D01*
X108520Y462717D01*
X108964Y463161D01*
X111108Y464049D01*
X113428Y464049D01*
X115572Y463161D01*
X115848Y462885D01*
X115922Y462832D01*
X115991Y462772D01*
X116022Y462760D01*
X116048Y462741D01*
X116135Y462714D01*
X116220Y462680D01*
X116260Y462676D01*
X116283Y462669D01*
X116315Y462670D01*
X116386Y462662D01*
X121752Y462662D01*
X121842Y462676D01*
X121933Y462684D01*
X121963Y462696D01*
X121995Y462701D01*
X122076Y462744D01*
X122160Y462780D01*
X122192Y462806D01*
X122212Y462817D01*
X122235Y462840D01*
X122291Y462885D01*
X123101Y463695D01*
X124114Y463695D01*
X124134Y463698D01*
X124153Y463696D01*
X124255Y463718D01*
X124357Y463734D01*
X124374Y463744D01*
X124394Y463748D01*
X124483Y463801D01*
X124574Y463850D01*
X124588Y463864D01*
X124605Y463874D01*
X124672Y463953D01*
X124744Y464028D01*
X124752Y464046D01*
X124765Y464061D01*
X124804Y464157D01*
X124847Y464251D01*
X124849Y464271D01*
X124857Y464289D01*
X124875Y464456D01*
X124875Y468033D01*
X124861Y468123D01*
X124853Y468214D01*
X124841Y468243D01*
X124836Y468275D01*
X124793Y468356D01*
X124757Y468440D01*
X124731Y468472D01*
X124720Y468493D01*
X124697Y468515D01*
X124652Y468571D01*
X123579Y469644D01*
X122691Y471788D01*
X122691Y474108D01*
X123579Y476252D01*
X125220Y477893D01*
X127364Y478781D01*
X129684Y478781D01*
X131828Y477893D01*
X133469Y476252D01*
X134357Y474108D01*
X134357Y471788D01*
X133469Y469644D01*
X132248Y468423D01*
X132195Y468349D01*
X132135Y468280D01*
X132123Y468249D01*
X132104Y468223D01*
X132077Y468136D01*
X132043Y468051D01*
X132039Y468010D01*
X132032Y467988D01*
X132033Y467956D01*
X132025Y467885D01*
X132025Y464456D01*
X132028Y464436D01*
X132026Y464417D01*
X132048Y464315D01*
X132064Y464213D01*
X132074Y464196D01*
X132078Y464176D01*
X132131Y464087D01*
X132180Y463996D01*
X132194Y463982D01*
X132204Y463965D01*
X132283Y463898D01*
X132358Y463826D01*
X132376Y463818D01*
X132391Y463805D01*
X132487Y463766D01*
X132581Y463723D01*
X132601Y463721D01*
X132619Y463713D01*
X132786Y463695D01*
X133799Y463695D01*
X135001Y462493D01*
X135001Y455134D01*
X135002Y455128D01*
X135002Y446575D01*
X135001Y446566D01*
X135001Y440795D01*
X133799Y439593D01*
X123101Y439593D01*
X121899Y440795D01*
X121899Y441062D01*
X121898Y441068D01*
X121898Y441069D01*
X121896Y441082D01*
X121898Y441101D01*
X121876Y441203D01*
X121860Y441305D01*
X121850Y441322D01*
X121846Y441342D01*
X121793Y441431D01*
X121744Y441522D01*
X121730Y441536D01*
X121720Y441553D01*
X121641Y441620D01*
X121566Y441692D01*
X121548Y441700D01*
X121533Y441713D01*
X121437Y441752D01*
X121343Y441795D01*
X121323Y441797D01*
X121305Y441805D01*
X121138Y441823D01*
X108428Y441823D01*
X108408Y441820D01*
X108389Y441822D01*
X108287Y441800D01*
X108185Y441784D01*
X108168Y441774D01*
X108148Y441770D01*
X108059Y441717D01*
X107968Y441668D01*
X107954Y441654D01*
X107937Y441644D01*
X107870Y441565D01*
X107798Y441490D01*
X107790Y441472D01*
X107777Y441457D01*
X107738Y441361D01*
X107695Y441267D01*
X107693Y441247D01*
X107685Y441229D01*
X107667Y441062D01*
X107667Y440795D01*
X106465Y439593D01*
X95767Y439593D01*
X94565Y440795D01*
X94565Y441062D01*
X94564Y441068D01*
X94564Y441069D01*
X94562Y441082D01*
X94564Y441101D01*
X94542Y441203D01*
X94526Y441305D01*
X94516Y441322D01*
X94512Y441342D01*
X94459Y441431D01*
X94410Y441522D01*
X94396Y441536D01*
X94386Y441553D01*
X94307Y441620D01*
X94232Y441692D01*
X94214Y441700D01*
X94199Y441713D01*
X94103Y441752D01*
X94009Y441795D01*
X93989Y441797D01*
X93971Y441805D01*
X93804Y441823D01*
X92618Y441823D01*
X92598Y441820D01*
X92579Y441822D01*
X92477Y441800D01*
X92375Y441784D01*
X92358Y441774D01*
X92338Y441770D01*
X92249Y441717D01*
X92158Y441668D01*
X92144Y441654D01*
X92127Y441644D01*
X92060Y441565D01*
X91988Y441490D01*
X91980Y441472D01*
X91967Y441457D01*
X91928Y441361D01*
X91885Y441267D01*
X91883Y441247D01*
X91875Y441229D01*
X91857Y441062D01*
X91857Y440900D01*
X91428Y440471D01*
X91374Y440396D01*
X91315Y440327D01*
X91303Y440297D01*
X91284Y440271D01*
X91257Y440184D01*
X91223Y440099D01*
X91219Y440058D01*
X91212Y440036D01*
X91213Y440004D01*
X91205Y439932D01*
X91205Y430898D01*
X91219Y430808D01*
X91227Y430717D01*
X91239Y430687D01*
X91244Y430655D01*
X91287Y430574D01*
X91323Y430490D01*
X91349Y430458D01*
X91360Y430437D01*
X91383Y430415D01*
X91428Y430359D01*
X92363Y429424D01*
X92437Y429371D01*
X92507Y429311D01*
X92537Y429299D01*
X92563Y429280D01*
X92650Y429253D01*
X92735Y429219D01*
X92776Y429215D01*
X92798Y429208D01*
X92830Y429209D01*
X92902Y429201D01*
X99549Y429201D01*
X100751Y427999D01*
X100751Y419401D01*
X99549Y418199D01*
X87951Y418199D01*
G37*
%LPD*%
%LPC*%
G36*
X374301Y372789D02*
X374301Y372789D01*
X366615Y375973D01*
X360733Y381855D01*
X357549Y389541D01*
X357549Y397859D01*
X360733Y405545D01*
X366615Y411427D01*
X374301Y414611D01*
X382619Y414611D01*
X390305Y411427D01*
X396187Y405545D01*
X399371Y397859D01*
X399371Y389541D01*
X396187Y381855D01*
X390305Y375973D01*
X382619Y372789D01*
X374301Y372789D01*
G37*
%LPD*%
%LPC*%
G36*
X345814Y432649D02*
X345814Y432649D01*
X340926Y434674D01*
X337184Y438416D01*
X335159Y443304D01*
X335159Y448596D01*
X337184Y453484D01*
X340926Y457226D01*
X345814Y459251D01*
X351106Y459251D01*
X353397Y458301D01*
X353467Y458285D01*
X353534Y458259D01*
X353586Y458257D01*
X353637Y458245D01*
X353708Y458252D01*
X353780Y458249D01*
X353830Y458263D01*
X353882Y458268D01*
X353947Y458298D01*
X354016Y458317D01*
X354059Y458347D01*
X354107Y458368D01*
X354159Y458417D01*
X354218Y458458D01*
X354249Y458500D01*
X354288Y458535D01*
X354322Y458598D01*
X354365Y458655D01*
X354381Y458705D01*
X354406Y458750D01*
X354419Y458821D01*
X354441Y458889D01*
X354441Y458941D01*
X354450Y458992D01*
X354440Y459063D01*
X354439Y459135D01*
X354419Y459204D01*
X354414Y459236D01*
X354404Y459257D01*
X354392Y459296D01*
X353299Y461934D01*
X353299Y467966D01*
X355607Y473538D01*
X359872Y477803D01*
X365444Y480111D01*
X371476Y480111D01*
X377048Y477803D01*
X381313Y473538D01*
X383621Y467966D01*
X383621Y461934D01*
X381313Y456362D01*
X377048Y452097D01*
X371476Y449789D01*
X365444Y449789D01*
X362099Y451175D01*
X362029Y451191D01*
X361962Y451217D01*
X361910Y451219D01*
X361859Y451231D01*
X361788Y451224D01*
X361716Y451227D01*
X361666Y451213D01*
X361615Y451208D01*
X361549Y451179D01*
X361480Y451159D01*
X361437Y451129D01*
X361390Y451108D01*
X361337Y451060D01*
X361278Y451019D01*
X361247Y450977D01*
X361209Y450942D01*
X361174Y450879D01*
X361131Y450821D01*
X361115Y450772D01*
X361090Y450726D01*
X361077Y450656D01*
X361055Y450587D01*
X361056Y450535D01*
X361046Y450484D01*
X361057Y450413D01*
X361058Y450341D01*
X361078Y450273D01*
X361082Y450241D01*
X361093Y450220D01*
X361104Y450180D01*
X361761Y448596D01*
X361761Y443304D01*
X359736Y438416D01*
X355994Y434674D01*
X351106Y432649D01*
X345814Y432649D01*
G37*
%LPD*%
%LPC*%
G36*
X365444Y484789D02*
X365444Y484789D01*
X359872Y487097D01*
X355607Y491362D01*
X353299Y496934D01*
X353299Y502966D01*
X354392Y505604D01*
X354408Y505674D01*
X354434Y505741D01*
X354436Y505793D01*
X354448Y505843D01*
X354442Y505915D01*
X354445Y505986D01*
X354430Y506036D01*
X354425Y506088D01*
X354396Y506154D01*
X354376Y506223D01*
X354346Y506265D01*
X354325Y506313D01*
X354277Y506366D01*
X354236Y506425D01*
X354194Y506456D01*
X354159Y506494D01*
X354096Y506529D01*
X354038Y506571D01*
X353989Y506588D01*
X353943Y506613D01*
X353873Y506625D01*
X353805Y506648D01*
X353752Y506647D01*
X353701Y506656D01*
X353630Y506646D01*
X353559Y506645D01*
X353490Y506625D01*
X353458Y506621D01*
X353437Y506610D01*
X353397Y506599D01*
X351106Y505649D01*
X345814Y505649D01*
X340926Y507674D01*
X337184Y511416D01*
X335159Y516304D01*
X335159Y521596D01*
X337184Y526484D01*
X340926Y530226D01*
X345814Y532251D01*
X351106Y532251D01*
X355994Y530226D01*
X359736Y526484D01*
X361761Y521596D01*
X361761Y516304D01*
X361104Y514720D01*
X361088Y514650D01*
X361062Y514583D01*
X361060Y514531D01*
X361048Y514480D01*
X361055Y514409D01*
X361052Y514337D01*
X361066Y514287D01*
X361071Y514235D01*
X361100Y514170D01*
X361120Y514101D01*
X361150Y514058D01*
X361171Y514011D01*
X361220Y513958D01*
X361261Y513899D01*
X361302Y513868D01*
X361338Y513829D01*
X361400Y513795D01*
X361458Y513752D01*
X361507Y513736D01*
X361553Y513711D01*
X361624Y513698D01*
X361692Y513676D01*
X361744Y513676D01*
X361795Y513667D01*
X361866Y513678D01*
X361938Y513678D01*
X362007Y513698D01*
X362039Y513703D01*
X362059Y513714D01*
X362099Y513725D01*
X365444Y515111D01*
X371476Y515111D01*
X377048Y512803D01*
X381313Y508538D01*
X383621Y502966D01*
X383621Y496934D01*
X381313Y491362D01*
X377048Y487097D01*
X371476Y484789D01*
X365444Y484789D01*
G37*
%LPD*%
%LPC*%
G36*
X195944Y71891D02*
X195944Y71891D01*
X193800Y72779D01*
X192159Y74420D01*
X191400Y76253D01*
X191338Y76353D01*
X191278Y76453D01*
X191274Y76457D01*
X191270Y76462D01*
X191181Y76537D01*
X191091Y76613D01*
X191086Y76615D01*
X191081Y76619D01*
X190973Y76661D01*
X190863Y76705D01*
X190856Y76706D01*
X190851Y76707D01*
X190833Y76708D01*
X190697Y76723D01*
X179770Y76723D01*
X179750Y76720D01*
X179731Y76722D01*
X179629Y76700D01*
X179527Y76684D01*
X179510Y76674D01*
X179490Y76670D01*
X179401Y76617D01*
X179310Y76568D01*
X179296Y76554D01*
X179279Y76544D01*
X179212Y76465D01*
X179140Y76390D01*
X179132Y76372D01*
X179119Y76357D01*
X179080Y76261D01*
X179037Y76167D01*
X179035Y76147D01*
X179027Y76129D01*
X179009Y75962D01*
X179009Y75695D01*
X177807Y74493D01*
X167109Y74493D01*
X165907Y75695D01*
X165907Y75962D01*
X165904Y75982D01*
X165906Y76001D01*
X165884Y76103D01*
X165868Y76205D01*
X165858Y76222D01*
X165854Y76242D01*
X165801Y76331D01*
X165752Y76422D01*
X165738Y76436D01*
X165728Y76453D01*
X165649Y76520D01*
X165574Y76592D01*
X165556Y76600D01*
X165541Y76613D01*
X165445Y76652D01*
X165351Y76695D01*
X165331Y76697D01*
X165313Y76705D01*
X165146Y76723D01*
X152012Y76723D01*
X151992Y76720D01*
X151973Y76722D01*
X151871Y76700D01*
X151769Y76684D01*
X151752Y76674D01*
X151732Y76670D01*
X151643Y76617D01*
X151552Y76568D01*
X151538Y76554D01*
X151521Y76544D01*
X151454Y76465D01*
X151382Y76390D01*
X151374Y76372D01*
X151361Y76357D01*
X151322Y76261D01*
X151279Y76167D01*
X151277Y76147D01*
X151269Y76129D01*
X151262Y76062D01*
X150049Y74849D01*
X142351Y74849D01*
X141149Y76051D01*
X141149Y83249D01*
X142351Y84451D01*
X150049Y84451D01*
X150912Y83588D01*
X150986Y83535D01*
X151056Y83475D01*
X151086Y83463D01*
X151112Y83444D01*
X151199Y83417D01*
X151284Y83383D01*
X151325Y83379D01*
X151347Y83372D01*
X151379Y83373D01*
X151451Y83365D01*
X154453Y83365D01*
X154523Y83376D01*
X154595Y83378D01*
X154644Y83396D01*
X154695Y83404D01*
X154759Y83438D01*
X154826Y83463D01*
X154867Y83495D01*
X154913Y83520D01*
X154962Y83572D01*
X155018Y83616D01*
X155046Y83660D01*
X155082Y83698D01*
X155112Y83763D01*
X155151Y83823D01*
X155164Y83874D01*
X155186Y83921D01*
X155194Y83992D01*
X155211Y84062D01*
X155207Y84114D01*
X155213Y84165D01*
X155198Y84236D01*
X155192Y84307D01*
X155172Y84355D01*
X155161Y84406D01*
X155124Y84467D01*
X155096Y84533D01*
X155051Y84589D01*
X155035Y84617D01*
X155017Y84632D01*
X154991Y84664D01*
X154059Y85596D01*
X153171Y87740D01*
X153171Y90060D01*
X154059Y92204D01*
X155700Y93845D01*
X157844Y94733D01*
X160164Y94733D01*
X162308Y93845D01*
X163949Y92204D01*
X164037Y91991D01*
X164099Y91891D01*
X164159Y91791D01*
X164163Y91787D01*
X164167Y91782D01*
X164256Y91707D01*
X164346Y91631D01*
X164351Y91629D01*
X164356Y91625D01*
X164464Y91583D01*
X164574Y91539D01*
X164581Y91538D01*
X164586Y91537D01*
X164604Y91536D01*
X164740Y91521D01*
X171696Y91521D01*
X171716Y91524D01*
X171735Y91522D01*
X171837Y91544D01*
X171939Y91561D01*
X171956Y91570D01*
X171976Y91574D01*
X172065Y91627D01*
X172156Y91676D01*
X172170Y91690D01*
X172187Y91700D01*
X172254Y91779D01*
X172325Y91854D01*
X172334Y91872D01*
X172347Y91887D01*
X172386Y91983D01*
X172429Y92077D01*
X172431Y92097D01*
X172439Y92115D01*
X172457Y92282D01*
X172457Y93045D01*
X172459Y93045D01*
X172459Y92282D01*
X172462Y92262D01*
X172460Y92243D01*
X172482Y92141D01*
X172499Y92039D01*
X172508Y92022D01*
X172512Y92002D01*
X172565Y91913D01*
X172614Y91822D01*
X172628Y91808D01*
X172638Y91791D01*
X172717Y91724D01*
X172792Y91653D01*
X172810Y91644D01*
X172825Y91631D01*
X172921Y91592D01*
X173015Y91549D01*
X173035Y91547D01*
X173053Y91539D01*
X173220Y91521D01*
X179499Y91521D01*
X179499Y89209D01*
X179326Y88563D01*
X178991Y87984D01*
X178518Y87511D01*
X177939Y87176D01*
X177621Y87091D01*
X177599Y87081D01*
X177575Y87077D01*
X177487Y87031D01*
X177397Y86990D01*
X177379Y86974D01*
X177358Y86962D01*
X177289Y86890D01*
X177217Y86823D01*
X177205Y86802D01*
X177188Y86784D01*
X177146Y86694D01*
X177099Y86607D01*
X177095Y86583D01*
X177085Y86561D01*
X177074Y86462D01*
X177057Y86364D01*
X177060Y86340D01*
X177058Y86317D01*
X177079Y86220D01*
X177094Y86121D01*
X177105Y86100D01*
X177110Y86076D01*
X177161Y85991D01*
X177206Y85903D01*
X177224Y85886D01*
X177236Y85865D01*
X177312Y85800D01*
X177383Y85731D01*
X177405Y85721D01*
X177423Y85705D01*
X177515Y85668D01*
X177605Y85625D01*
X177629Y85622D01*
X177651Y85613D01*
X177806Y85596D01*
X179009Y84393D01*
X179009Y84126D01*
X179012Y84106D01*
X179010Y84087D01*
X179032Y83985D01*
X179048Y83883D01*
X179058Y83866D01*
X179062Y83846D01*
X179115Y83757D01*
X179164Y83666D01*
X179178Y83652D01*
X179188Y83635D01*
X179267Y83568D01*
X179342Y83496D01*
X179360Y83488D01*
X179375Y83475D01*
X179471Y83436D01*
X179565Y83393D01*
X179585Y83391D01*
X179603Y83383D01*
X179770Y83365D01*
X195329Y83365D01*
X195393Y83375D01*
X195459Y83376D01*
X195539Y83399D01*
X195572Y83404D01*
X195589Y83414D01*
X195620Y83423D01*
X195944Y83557D01*
X198264Y83557D01*
X200408Y82669D01*
X202049Y81028D01*
X202937Y78884D01*
X202937Y76564D01*
X202049Y74420D01*
X200408Y72779D01*
X198264Y71891D01*
X195944Y71891D01*
G37*
%LPD*%
%LPC*%
G36*
X286013Y368408D02*
X286013Y368408D01*
X284588Y369833D01*
X284588Y386071D01*
X286013Y387496D01*
X313427Y387496D01*
X314852Y386071D01*
X314852Y371357D01*
X311903Y368408D01*
X286013Y368408D01*
G37*
%LPD*%
%LPC*%
G36*
X398814Y432649D02*
X398814Y432649D01*
X393926Y434674D01*
X390184Y438416D01*
X388159Y443304D01*
X388159Y448596D01*
X390184Y453484D01*
X393926Y457226D01*
X398814Y459251D01*
X404106Y459251D01*
X408994Y457226D01*
X412736Y453484D01*
X414761Y448596D01*
X414761Y443304D01*
X412736Y438416D01*
X408994Y434674D01*
X404106Y432649D01*
X398814Y432649D01*
G37*
%LPD*%
%LPC*%
G36*
X398814Y505649D02*
X398814Y505649D01*
X393926Y507674D01*
X390184Y511416D01*
X388159Y516304D01*
X388159Y521596D01*
X390184Y526484D01*
X393926Y530226D01*
X398814Y532251D01*
X404106Y532251D01*
X408994Y530226D01*
X412736Y526484D01*
X414761Y521596D01*
X414761Y516304D01*
X412736Y511416D01*
X408994Y507674D01*
X404106Y505649D01*
X398814Y505649D01*
G37*
%LPD*%
G36*
X315010Y235851D02*
X315010Y235851D01*
X315061Y235853D01*
X315093Y235871D01*
X315129Y235879D01*
X315168Y235912D01*
X315213Y235936D01*
X315234Y235966D01*
X315262Y235989D01*
X315283Y236036D01*
X315313Y236078D01*
X315321Y236120D01*
X315333Y236148D01*
X315332Y236178D01*
X315340Y236220D01*
X315340Y259080D01*
X315329Y259130D01*
X315327Y259181D01*
X315309Y259213D01*
X315301Y259249D01*
X315268Y259288D01*
X315244Y259333D01*
X315214Y259354D01*
X315191Y259382D01*
X315144Y259403D01*
X315102Y259433D01*
X315060Y259441D01*
X315032Y259453D01*
X315002Y259452D01*
X314960Y259460D01*
X292100Y259460D01*
X292050Y259449D01*
X291999Y259447D01*
X291967Y259429D01*
X291931Y259421D01*
X291892Y259388D01*
X291847Y259364D01*
X291826Y259334D01*
X291798Y259311D01*
X291777Y259264D01*
X291747Y259222D01*
X291739Y259180D01*
X291727Y259152D01*
X291728Y259122D01*
X291720Y259080D01*
X291720Y236220D01*
X291731Y236170D01*
X291733Y236119D01*
X291751Y236087D01*
X291759Y236051D01*
X291792Y236012D01*
X291816Y235967D01*
X291846Y235946D01*
X291869Y235918D01*
X291916Y235897D01*
X291958Y235867D01*
X292000Y235859D01*
X292028Y235847D01*
X292058Y235848D01*
X292100Y235840D01*
X314960Y235840D01*
X315010Y235851D01*
G37*
%LPC*%
G36*
X185520Y119125D02*
X185520Y119125D01*
X183376Y120013D01*
X181735Y121654D01*
X180847Y123798D01*
X180847Y125779D01*
X180833Y125869D01*
X180825Y125960D01*
X180813Y125990D01*
X180808Y126022D01*
X180765Y126103D01*
X180729Y126186D01*
X180703Y126219D01*
X180692Y126239D01*
X180669Y126261D01*
X180624Y126317D01*
X177135Y129806D01*
X177062Y129859D01*
X176992Y129919D01*
X176962Y129931D01*
X176936Y129950D01*
X176849Y129977D01*
X176764Y130011D01*
X176723Y130015D01*
X176701Y130022D01*
X176668Y130021D01*
X176597Y130029D01*
X167109Y130029D01*
X165907Y131231D01*
X165907Y131498D01*
X165904Y131518D01*
X165906Y131537D01*
X165884Y131639D01*
X165868Y131741D01*
X165858Y131758D01*
X165854Y131778D01*
X165801Y131867D01*
X165752Y131958D01*
X165738Y131972D01*
X165728Y131989D01*
X165649Y132056D01*
X165574Y132128D01*
X165556Y132136D01*
X165541Y132149D01*
X165445Y132188D01*
X165351Y132231D01*
X165331Y132233D01*
X165313Y132241D01*
X165146Y132259D01*
X152012Y132259D01*
X151992Y132256D01*
X151973Y132258D01*
X151871Y132236D01*
X151769Y132220D01*
X151752Y132210D01*
X151732Y132206D01*
X151643Y132153D01*
X151552Y132104D01*
X151538Y132090D01*
X151521Y132080D01*
X151454Y132001D01*
X151382Y131926D01*
X151374Y131908D01*
X151361Y131893D01*
X151322Y131797D01*
X151279Y131703D01*
X151277Y131683D01*
X151269Y131665D01*
X151251Y131498D01*
X151251Y131423D01*
X150049Y130221D01*
X142351Y130221D01*
X141149Y131423D01*
X141149Y138621D01*
X142351Y139823D01*
X150049Y139823D01*
X150748Y139124D01*
X150822Y139071D01*
X150892Y139011D01*
X150922Y138999D01*
X150948Y138980D01*
X151035Y138953D01*
X151120Y138919D01*
X151161Y138915D01*
X151183Y138908D01*
X151215Y138909D01*
X151287Y138901D01*
X165146Y138901D01*
X165166Y138904D01*
X165185Y138902D01*
X165287Y138924D01*
X165389Y138940D01*
X165406Y138950D01*
X165426Y138954D01*
X165515Y139007D01*
X165606Y139056D01*
X165620Y139070D01*
X165637Y139080D01*
X165704Y139159D01*
X165776Y139234D01*
X165784Y139252D01*
X165797Y139267D01*
X165836Y139363D01*
X165879Y139457D01*
X165881Y139477D01*
X165889Y139495D01*
X165907Y139662D01*
X165907Y139929D01*
X167111Y141133D01*
X167122Y141135D01*
X167146Y141132D01*
X167243Y141154D01*
X167341Y141170D01*
X167362Y141182D01*
X167386Y141187D01*
X167470Y141239D01*
X167558Y141286D01*
X167575Y141303D01*
X167595Y141316D01*
X167659Y141392D01*
X167728Y141464D01*
X167738Y141486D01*
X167753Y141504D01*
X167789Y141597D01*
X167831Y141687D01*
X167834Y141711D01*
X167843Y141733D01*
X167847Y141833D01*
X167858Y141931D01*
X167853Y141955D01*
X167854Y141979D01*
X167827Y142075D01*
X167806Y142172D01*
X167794Y142192D01*
X167787Y142216D01*
X167731Y142298D01*
X167680Y142383D01*
X167662Y142399D01*
X167648Y142418D01*
X167568Y142478D01*
X167493Y142543D01*
X167471Y142552D01*
X167451Y142566D01*
X167295Y142627D01*
X166977Y142712D01*
X166398Y143047D01*
X165925Y143520D01*
X165590Y144099D01*
X165417Y144746D01*
X165417Y147057D01*
X171696Y147057D01*
X171716Y147060D01*
X171735Y147058D01*
X171837Y147080D01*
X171939Y147097D01*
X171956Y147106D01*
X171976Y147110D01*
X172065Y147163D01*
X172156Y147212D01*
X172170Y147226D01*
X172187Y147236D01*
X172254Y147315D01*
X172325Y147390D01*
X172334Y147408D01*
X172347Y147423D01*
X172386Y147519D01*
X172429Y147613D01*
X172431Y147633D01*
X172439Y147651D01*
X172457Y147818D01*
X172457Y148581D01*
X172459Y148581D01*
X172459Y147818D01*
X172462Y147798D01*
X172460Y147779D01*
X172482Y147677D01*
X172499Y147575D01*
X172508Y147558D01*
X172512Y147538D01*
X172565Y147449D01*
X172614Y147358D01*
X172628Y147344D01*
X172638Y147327D01*
X172717Y147260D01*
X172792Y147189D01*
X172810Y147180D01*
X172825Y147167D01*
X172921Y147128D01*
X173015Y147085D01*
X173035Y147083D01*
X173053Y147075D01*
X173220Y147057D01*
X179499Y147057D01*
X179499Y144745D01*
X179326Y144099D01*
X178991Y143520D01*
X178518Y143047D01*
X177939Y142712D01*
X177621Y142627D01*
X177599Y142617D01*
X177575Y142613D01*
X177488Y142567D01*
X177397Y142526D01*
X177379Y142510D01*
X177358Y142498D01*
X177290Y142427D01*
X177217Y142359D01*
X177205Y142338D01*
X177188Y142320D01*
X177147Y142230D01*
X177099Y142143D01*
X177095Y142119D01*
X177085Y142097D01*
X177074Y141998D01*
X177057Y141900D01*
X177060Y141876D01*
X177058Y141853D01*
X177079Y141756D01*
X177094Y141657D01*
X177105Y141636D01*
X177110Y141612D01*
X177161Y141527D01*
X177207Y141438D01*
X177224Y141422D01*
X177236Y141401D01*
X177312Y141336D01*
X177383Y141267D01*
X177405Y141257D01*
X177423Y141241D01*
X177516Y141204D01*
X177605Y141161D01*
X177629Y141158D01*
X177651Y141149D01*
X177806Y141132D01*
X179009Y139929D01*
X179009Y137641D01*
X179023Y137551D01*
X179031Y137460D01*
X179043Y137430D01*
X179048Y137398D01*
X179091Y137317D01*
X179127Y137234D01*
X179153Y137201D01*
X179164Y137181D01*
X179187Y137159D01*
X179232Y137103D01*
X185321Y131014D01*
X185394Y130961D01*
X185464Y130901D01*
X185494Y130889D01*
X185520Y130870D01*
X185607Y130843D01*
X185692Y130809D01*
X185733Y130805D01*
X185755Y130798D01*
X185788Y130799D01*
X185859Y130791D01*
X187840Y130791D01*
X189984Y129903D01*
X191625Y128262D01*
X192513Y126118D01*
X192513Y123798D01*
X191625Y121654D01*
X189984Y120013D01*
X187840Y119125D01*
X185520Y119125D01*
G37*
%LPD*%
%LPC*%
G36*
X132767Y237811D02*
X132767Y237811D01*
X131565Y239013D01*
X131565Y247611D01*
X132767Y248813D01*
X134484Y248813D01*
X134504Y248816D01*
X134523Y248814D01*
X134625Y248836D01*
X134727Y248852D01*
X134744Y248862D01*
X134764Y248866D01*
X134853Y248919D01*
X134944Y248968D01*
X134958Y248982D01*
X134975Y248992D01*
X135042Y249071D01*
X135114Y249146D01*
X135122Y249164D01*
X135135Y249179D01*
X135174Y249275D01*
X135217Y249369D01*
X135219Y249389D01*
X135227Y249407D01*
X135245Y249574D01*
X135245Y267667D01*
X135231Y267757D01*
X135223Y267848D01*
X135211Y267878D01*
X135206Y267910D01*
X135163Y267991D01*
X135127Y268074D01*
X135101Y268107D01*
X135090Y268127D01*
X135067Y268149D01*
X135022Y268205D01*
X124295Y278932D01*
X124222Y278985D01*
X124152Y279045D01*
X124122Y279057D01*
X124096Y279076D01*
X124009Y279103D01*
X123924Y279137D01*
X123883Y279141D01*
X123861Y279148D01*
X123828Y279147D01*
X123757Y279155D01*
X121776Y279155D01*
X119632Y280043D01*
X117991Y281684D01*
X117103Y283828D01*
X117103Y286148D01*
X117991Y288292D01*
X119632Y289933D01*
X121776Y290821D01*
X124096Y290821D01*
X126240Y289933D01*
X127881Y288292D01*
X128769Y286148D01*
X128769Y284167D01*
X128783Y284077D01*
X128791Y283986D01*
X128803Y283956D01*
X128808Y283924D01*
X128851Y283843D01*
X128887Y283760D01*
X128913Y283727D01*
X128924Y283707D01*
X128947Y283685D01*
X128992Y283629D01*
X141887Y270734D01*
X141887Y249574D01*
X141890Y249554D01*
X141888Y249535D01*
X141910Y249433D01*
X141926Y249331D01*
X141936Y249314D01*
X141940Y249294D01*
X141993Y249205D01*
X142042Y249114D01*
X142056Y249100D01*
X142066Y249083D01*
X142145Y249016D01*
X142220Y248944D01*
X142238Y248936D01*
X142253Y248923D01*
X142349Y248884D01*
X142443Y248841D01*
X142463Y248839D01*
X142481Y248831D01*
X142648Y248813D01*
X144365Y248813D01*
X145567Y247611D01*
X145567Y239013D01*
X144365Y237811D01*
X132767Y237811D01*
G37*
%LPD*%
G36*
X310970Y370477D02*
X310970Y370477D01*
X311045Y370490D01*
X311055Y370497D01*
X311065Y370499D01*
X311094Y370523D01*
X311165Y370571D01*
X312689Y372095D01*
X312702Y372116D01*
X312719Y372130D01*
X312739Y372174D01*
X312773Y372222D01*
X312775Y372234D01*
X312780Y372242D01*
X312783Y372273D01*
X312790Y372289D01*
X312790Y372309D01*
X312800Y372364D01*
X312800Y385064D01*
X312789Y385114D01*
X312787Y385165D01*
X312769Y385197D01*
X312761Y385233D01*
X312728Y385272D01*
X312704Y385317D01*
X312674Y385338D01*
X312651Y385366D01*
X312604Y385387D01*
X312562Y385417D01*
X312520Y385425D01*
X312492Y385437D01*
X312462Y385436D01*
X312420Y385444D01*
X287020Y385444D01*
X286970Y385433D01*
X286919Y385431D01*
X286887Y385413D01*
X286851Y385405D01*
X286812Y385372D01*
X286767Y385348D01*
X286746Y385318D01*
X286718Y385295D01*
X286697Y385248D01*
X286667Y385206D01*
X286659Y385164D01*
X286647Y385136D01*
X286648Y385106D01*
X286640Y385064D01*
X286640Y370840D01*
X286651Y370790D01*
X286653Y370739D01*
X286671Y370707D01*
X286679Y370671D01*
X286712Y370632D01*
X286736Y370587D01*
X286766Y370566D01*
X286789Y370538D01*
X286836Y370517D01*
X286878Y370487D01*
X286920Y370479D01*
X286948Y370467D01*
X286978Y370468D01*
X287020Y370460D01*
X310896Y370460D01*
X310970Y370477D01*
G37*
%LPC*%
G36*
X159316Y346144D02*
X159316Y346144D01*
X157172Y347032D01*
X156033Y348170D01*
X155959Y348223D01*
X155890Y348283D01*
X155860Y348295D01*
X155833Y348314D01*
X155747Y348341D01*
X155662Y348375D01*
X155621Y348379D01*
X155598Y348386D01*
X155566Y348385D01*
X155495Y348393D01*
X146328Y348393D01*
X146308Y348390D01*
X146289Y348392D01*
X146187Y348370D01*
X146085Y348354D01*
X146068Y348344D01*
X146048Y348340D01*
X145959Y348287D01*
X145868Y348238D01*
X145854Y348224D01*
X145837Y348214D01*
X145770Y348135D01*
X145698Y348060D01*
X145690Y348042D01*
X145677Y348027D01*
X145638Y347931D01*
X145595Y347837D01*
X145593Y347817D01*
X145585Y347799D01*
X145567Y347632D01*
X145567Y347415D01*
X144365Y346213D01*
X132767Y346213D01*
X131565Y347415D01*
X131565Y356013D01*
X132767Y357215D01*
X144365Y357215D01*
X145567Y356013D01*
X145567Y355796D01*
X145570Y355776D01*
X145568Y355757D01*
X145590Y355655D01*
X145606Y355553D01*
X145616Y355536D01*
X145620Y355516D01*
X145673Y355427D01*
X145722Y355336D01*
X145736Y355322D01*
X145746Y355305D01*
X145825Y355238D01*
X145900Y355166D01*
X145918Y355158D01*
X145933Y355145D01*
X146029Y355106D01*
X146123Y355063D01*
X146143Y355061D01*
X146161Y355053D01*
X146328Y355035D01*
X154970Y355035D01*
X155061Y355049D01*
X155151Y355057D01*
X155181Y355069D01*
X155213Y355074D01*
X155294Y355117D01*
X155378Y355153D01*
X155410Y355179D01*
X155431Y355190D01*
X155453Y355213D01*
X155509Y355258D01*
X157172Y356921D01*
X159316Y357809D01*
X161636Y357809D01*
X163780Y356921D01*
X165421Y355280D01*
X166309Y353136D01*
X166309Y350816D01*
X165421Y348672D01*
X163780Y347032D01*
X161636Y346144D01*
X159316Y346144D01*
G37*
%LPD*%
%LPC*%
G36*
X314816Y454923D02*
X314816Y454923D01*
X312672Y455811D01*
X311031Y457452D01*
X310143Y459596D01*
X310143Y461916D01*
X311031Y464060D01*
X312178Y465207D01*
X312231Y465281D01*
X312291Y465350D01*
X312303Y465381D01*
X312322Y465407D01*
X312349Y465494D01*
X312383Y465579D01*
X312387Y465620D01*
X312394Y465642D01*
X312393Y465674D01*
X312401Y465745D01*
X312401Y473547D01*
X312387Y473637D01*
X312379Y473728D01*
X312367Y473757D01*
X312362Y473789D01*
X312319Y473870D01*
X312283Y473954D01*
X312257Y473986D01*
X312246Y474007D01*
X312223Y474029D01*
X312178Y474085D01*
X311031Y475232D01*
X310143Y477376D01*
X310143Y479696D01*
X311031Y481840D01*
X312672Y483481D01*
X314816Y484369D01*
X317136Y484369D01*
X319280Y483481D01*
X320921Y481840D01*
X321809Y479696D01*
X321809Y477376D01*
X320921Y475232D01*
X319774Y474085D01*
X319721Y474011D01*
X319661Y473942D01*
X319649Y473911D01*
X319630Y473885D01*
X319603Y473798D01*
X319569Y473713D01*
X319565Y473672D01*
X319558Y473650D01*
X319559Y473618D01*
X319551Y473547D01*
X319551Y465745D01*
X319565Y465655D01*
X319573Y465564D01*
X319585Y465535D01*
X319590Y465503D01*
X319633Y465422D01*
X319669Y465338D01*
X319695Y465306D01*
X319706Y465285D01*
X319729Y465263D01*
X319774Y465207D01*
X320921Y464060D01*
X321809Y461916D01*
X321809Y459596D01*
X320921Y457452D01*
X319280Y455811D01*
X317136Y454923D01*
X314816Y454923D01*
G37*
%LPD*%
%LPC*%
G36*
X355423Y325523D02*
X355423Y325523D01*
X355423Y337209D01*
X365608Y337209D01*
X367661Y336883D01*
X369638Y336241D01*
X371491Y335297D01*
X373173Y334075D01*
X374643Y332605D01*
X375865Y330923D01*
X376809Y329070D01*
X377451Y327093D01*
X377700Y325523D01*
X355423Y325523D01*
G37*
%LPD*%
%LPC*%
G36*
X330100Y325523D02*
X330100Y325523D01*
X330349Y327093D01*
X330991Y329070D01*
X331935Y330923D01*
X333157Y332605D01*
X334627Y334075D01*
X336309Y335297D01*
X338162Y336241D01*
X340139Y336883D01*
X342192Y337209D01*
X352377Y337209D01*
X352377Y325523D01*
X330100Y325523D01*
G37*
%LPD*%
%LPC*%
G36*
X205586Y280679D02*
X205586Y280679D01*
X203442Y281567D01*
X201801Y283208D01*
X200913Y285352D01*
X200913Y287672D01*
X201801Y289816D01*
X203442Y291457D01*
X205586Y292345D01*
X207906Y292345D01*
X208517Y292092D01*
X208587Y292075D01*
X208655Y292049D01*
X208706Y292047D01*
X208757Y292035D01*
X208828Y292042D01*
X208900Y292039D01*
X208950Y292054D01*
X209002Y292059D01*
X209067Y292088D01*
X209137Y292108D01*
X209179Y292138D01*
X209226Y292159D01*
X209279Y292207D01*
X209338Y292248D01*
X209369Y292290D01*
X209407Y292325D01*
X209442Y292388D01*
X209485Y292446D01*
X209501Y292495D01*
X209526Y292540D01*
X209539Y292611D01*
X209561Y292680D01*
X209561Y292732D01*
X209570Y292783D01*
X209559Y292854D01*
X209559Y295292D01*
X210447Y297436D01*
X212088Y299077D01*
X214232Y299965D01*
X216552Y299965D01*
X218696Y299077D01*
X220337Y297436D01*
X221225Y295292D01*
X221225Y292972D01*
X220337Y290828D01*
X218696Y289187D01*
X216552Y288299D01*
X214232Y288299D01*
X213621Y288552D01*
X213551Y288569D01*
X213483Y288595D01*
X213432Y288597D01*
X213381Y288609D01*
X213310Y288602D01*
X213238Y288605D01*
X213188Y288590D01*
X213136Y288585D01*
X213071Y288556D01*
X213001Y288536D01*
X212959Y288506D01*
X212912Y288485D01*
X212859Y288437D01*
X212800Y288396D01*
X212769Y288354D01*
X212731Y288319D01*
X212696Y288256D01*
X212653Y288198D01*
X212637Y288149D01*
X212612Y288104D01*
X212599Y288033D01*
X212577Y287964D01*
X212577Y287912D01*
X212568Y287861D01*
X212579Y287790D01*
X212579Y285352D01*
X211691Y283208D01*
X210050Y281567D01*
X207906Y280679D01*
X205586Y280679D01*
G37*
%LPD*%
%LPC*%
G36*
X259444Y257819D02*
X259444Y257819D01*
X257300Y258707D01*
X255659Y260348D01*
X254771Y262492D01*
X254771Y264812D01*
X255659Y266956D01*
X257300Y268597D01*
X259444Y269485D01*
X261764Y269485D01*
X263908Y268597D01*
X264968Y267537D01*
X264984Y267525D01*
X264996Y267510D01*
X265084Y267454D01*
X265167Y267393D01*
X265186Y267388D01*
X265203Y267377D01*
X265304Y267352D01*
X265403Y267321D01*
X265422Y267322D01*
X265442Y267317D01*
X265545Y267325D01*
X265648Y267327D01*
X265667Y267334D01*
X265687Y267336D01*
X265782Y267376D01*
X265879Y267412D01*
X265895Y267424D01*
X265913Y267432D01*
X266044Y267537D01*
X267104Y268597D01*
X269248Y269485D01*
X271568Y269485D01*
X273712Y268597D01*
X275353Y266956D01*
X276241Y264812D01*
X276241Y262492D01*
X275353Y260348D01*
X273712Y258707D01*
X271568Y257819D01*
X269248Y257819D01*
X267104Y258707D01*
X266044Y259767D01*
X266028Y259779D01*
X266016Y259794D01*
X265928Y259850D01*
X265845Y259911D01*
X265826Y259916D01*
X265809Y259927D01*
X265708Y259952D01*
X265609Y259983D01*
X265590Y259982D01*
X265570Y259987D01*
X265467Y259979D01*
X265364Y259977D01*
X265345Y259970D01*
X265325Y259968D01*
X265230Y259928D01*
X265133Y259892D01*
X265117Y259880D01*
X265099Y259872D01*
X264968Y259767D01*
X263908Y258707D01*
X261764Y257819D01*
X259444Y257819D01*
G37*
%LPD*%
%LPC*%
G36*
X37083Y260603D02*
X37083Y260603D01*
X37083Y269161D01*
X43893Y269161D01*
X45461Y268913D01*
X46970Y268422D01*
X48383Y267702D01*
X49667Y266769D01*
X50789Y265647D01*
X51722Y264363D01*
X52442Y262950D01*
X52933Y261441D01*
X53065Y260603D01*
X37083Y260603D01*
G37*
%LPD*%
%LPC*%
G36*
X37083Y369823D02*
X37083Y369823D01*
X37083Y378381D01*
X43893Y378381D01*
X45461Y378133D01*
X46970Y377642D01*
X48383Y376922D01*
X49667Y375989D01*
X50789Y374867D01*
X51722Y373583D01*
X52442Y372170D01*
X52933Y370661D01*
X53065Y369823D01*
X37083Y369823D01*
G37*
%LPD*%
%LPC*%
G36*
X37083Y505713D02*
X37083Y505713D01*
X37083Y514271D01*
X43893Y514271D01*
X45461Y514023D01*
X46970Y513532D01*
X48383Y512812D01*
X49667Y511879D01*
X50789Y510757D01*
X51722Y509473D01*
X52442Y508060D01*
X52933Y506551D01*
X53065Y505713D01*
X37083Y505713D01*
G37*
%LPD*%
%LPC*%
G36*
X37083Y454913D02*
X37083Y454913D01*
X37083Y463471D01*
X43893Y463471D01*
X45461Y463223D01*
X46970Y462732D01*
X48383Y462012D01*
X49667Y461079D01*
X50789Y459957D01*
X51722Y458673D01*
X52442Y457260D01*
X52933Y455751D01*
X53065Y454913D01*
X37083Y454913D01*
G37*
%LPD*%
%LPC*%
G36*
X18055Y260603D02*
X18055Y260603D01*
X18187Y261441D01*
X18678Y262950D01*
X19398Y264363D01*
X20331Y265647D01*
X21453Y266769D01*
X22737Y267702D01*
X24150Y268422D01*
X25659Y268913D01*
X27227Y269161D01*
X34037Y269161D01*
X34037Y260603D01*
X18055Y260603D01*
G37*
%LPD*%
%LPC*%
G36*
X18055Y505713D02*
X18055Y505713D01*
X18187Y506551D01*
X18678Y508060D01*
X19398Y509473D01*
X20331Y510757D01*
X21453Y511879D01*
X22737Y512812D01*
X24150Y513532D01*
X25659Y514023D01*
X27227Y514271D01*
X34037Y514271D01*
X34037Y505713D01*
X18055Y505713D01*
G37*
%LPD*%
%LPC*%
G36*
X18055Y369823D02*
X18055Y369823D01*
X18187Y370661D01*
X18678Y372170D01*
X19398Y373583D01*
X20331Y374867D01*
X21453Y375989D01*
X22737Y376922D01*
X24150Y377642D01*
X25659Y378133D01*
X27227Y378381D01*
X34037Y378381D01*
X34037Y369823D01*
X18055Y369823D01*
G37*
%LPD*%
%LPC*%
G36*
X37083Y443309D02*
X37083Y443309D01*
X37083Y451867D01*
X53065Y451867D01*
X52933Y451029D01*
X52442Y449520D01*
X51722Y448107D01*
X50789Y446823D01*
X49667Y445701D01*
X48383Y444768D01*
X46970Y444048D01*
X45461Y443557D01*
X43893Y443309D01*
X37083Y443309D01*
G37*
%LPD*%
%LPC*%
G36*
X149716Y517407D02*
X149716Y517407D01*
X147572Y518295D01*
X145931Y519936D01*
X145043Y522080D01*
X145043Y524400D01*
X145931Y526544D01*
X147572Y528185D01*
X149716Y529073D01*
X152036Y529073D01*
X154180Y528185D01*
X155821Y526544D01*
X156709Y524400D01*
X156709Y522080D01*
X155821Y519936D01*
X154180Y518295D01*
X152036Y517407D01*
X149716Y517407D01*
G37*
%LPD*%
%LPC*%
G36*
X153780Y116087D02*
X153780Y116087D01*
X151636Y116975D01*
X149995Y118616D01*
X149107Y120760D01*
X149107Y123080D01*
X149995Y125224D01*
X151636Y126865D01*
X153780Y127753D01*
X156100Y127753D01*
X158244Y126865D01*
X159885Y125224D01*
X160773Y123080D01*
X160773Y120760D01*
X159885Y118616D01*
X158244Y116975D01*
X156100Y116087D01*
X153780Y116087D01*
G37*
%LPD*%
%LPC*%
G36*
X177910Y101609D02*
X177910Y101609D01*
X175766Y102497D01*
X174125Y104138D01*
X173237Y106282D01*
X173237Y108602D01*
X174125Y110746D01*
X175766Y112387D01*
X177910Y113275D01*
X180230Y113275D01*
X182374Y112387D01*
X184015Y110746D01*
X184903Y108602D01*
X184903Y106282D01*
X184015Y104138D01*
X182374Y102497D01*
X180230Y101609D01*
X177910Y101609D01*
G37*
%LPD*%
%LPC*%
G36*
X223376Y90179D02*
X223376Y90179D01*
X221232Y91067D01*
X219591Y92708D01*
X218703Y94852D01*
X218703Y97172D01*
X219591Y99316D01*
X221232Y100957D01*
X223376Y101845D01*
X225696Y101845D01*
X227840Y100957D01*
X229481Y99316D01*
X230369Y97172D01*
X230369Y94852D01*
X229481Y92708D01*
X227840Y91067D01*
X225696Y90179D01*
X223376Y90179D01*
G37*
%LPD*%
%LPC*%
G36*
X285832Y532675D02*
X285832Y532675D01*
X283688Y533563D01*
X282047Y535204D01*
X281159Y537348D01*
X281159Y539668D01*
X282047Y541812D01*
X283688Y543453D01*
X285832Y544341D01*
X288152Y544341D01*
X290296Y543453D01*
X291937Y541812D01*
X292825Y539668D01*
X292825Y537348D01*
X291937Y535204D01*
X290296Y533563D01*
X288152Y532675D01*
X285832Y532675D01*
G37*
%LPD*%
%LPC*%
G36*
X305164Y531631D02*
X305164Y531631D01*
X303020Y532519D01*
X301379Y534160D01*
X300491Y536304D01*
X300491Y538624D01*
X301379Y540768D01*
X303020Y542409D01*
X305164Y543297D01*
X307484Y543297D01*
X309628Y542409D01*
X311269Y540768D01*
X312157Y538624D01*
X312157Y536304D01*
X311269Y534160D01*
X309628Y532519D01*
X307484Y531631D01*
X305164Y531631D01*
G37*
%LPD*%
%LPC*%
G36*
X164448Y374405D02*
X164448Y374405D01*
X162304Y375293D01*
X160663Y376934D01*
X159775Y379078D01*
X159775Y381398D01*
X160663Y383542D01*
X162304Y385183D01*
X164448Y386071D01*
X166768Y386071D01*
X168912Y385183D01*
X170553Y383542D01*
X171441Y381398D01*
X171441Y379078D01*
X170553Y376934D01*
X168912Y375293D01*
X166768Y374405D01*
X164448Y374405D01*
G37*
%LPD*%
%LPC*%
G36*
X240140Y247151D02*
X240140Y247151D01*
X237996Y248039D01*
X236355Y249680D01*
X235467Y251824D01*
X235467Y254144D01*
X236355Y256288D01*
X237996Y257929D01*
X240140Y258817D01*
X242460Y258817D01*
X244604Y257929D01*
X246245Y256288D01*
X247133Y254144D01*
X247133Y251824D01*
X246245Y249680D01*
X244604Y248039D01*
X242460Y247151D01*
X240140Y247151D01*
G37*
%LPD*%
%LPC*%
G36*
X117712Y71891D02*
X117712Y71891D01*
X115568Y72779D01*
X113927Y74420D01*
X113039Y76564D01*
X113039Y78884D01*
X113927Y81028D01*
X115568Y82669D01*
X117712Y83557D01*
X120032Y83557D01*
X122176Y82669D01*
X123817Y81028D01*
X124705Y78884D01*
X124705Y76564D01*
X123817Y74420D01*
X122176Y72779D01*
X120032Y71891D01*
X117712Y71891D01*
G37*
%LPD*%
%LPC*%
G36*
X151240Y395487D02*
X151240Y395487D01*
X149096Y396375D01*
X147455Y398016D01*
X146567Y400160D01*
X146567Y402480D01*
X147455Y404624D01*
X149096Y406265D01*
X151240Y407153D01*
X153560Y407153D01*
X155704Y406265D01*
X157345Y404624D01*
X158233Y402480D01*
X158233Y400160D01*
X157345Y398016D01*
X155704Y396375D01*
X153560Y395487D01*
X151240Y395487D01*
G37*
%LPD*%
%LPC*%
G36*
X179942Y44713D02*
X179942Y44713D01*
X177798Y45601D01*
X176157Y47242D01*
X175269Y49386D01*
X175269Y51706D01*
X176157Y53850D01*
X177798Y55491D01*
X179942Y56379D01*
X182262Y56379D01*
X184406Y55491D01*
X186047Y53850D01*
X186935Y51706D01*
X186935Y49386D01*
X186047Y47242D01*
X184406Y45601D01*
X182262Y44713D01*
X179942Y44713D01*
G37*
%LPD*%
%LPC*%
G36*
X258936Y228609D02*
X258936Y228609D01*
X256792Y229497D01*
X255151Y231138D01*
X254263Y233282D01*
X254263Y235602D01*
X255151Y237746D01*
X256792Y239387D01*
X258936Y240275D01*
X261256Y240275D01*
X263400Y239387D01*
X265041Y237746D01*
X265929Y235602D01*
X265929Y233282D01*
X265041Y231138D01*
X263400Y229497D01*
X261256Y228609D01*
X258936Y228609D01*
G37*
%LPD*%
%LPC*%
G36*
X235060Y263407D02*
X235060Y263407D01*
X232916Y264295D01*
X231275Y265936D01*
X230387Y268080D01*
X230387Y270400D01*
X231275Y272544D01*
X232916Y274185D01*
X235060Y275073D01*
X237380Y275073D01*
X239524Y274185D01*
X241165Y272544D01*
X242053Y270400D01*
X242053Y268080D01*
X241165Y265936D01*
X239524Y264295D01*
X237380Y263407D01*
X235060Y263407D01*
G37*
%LPD*%
%LPC*%
G36*
X196960Y214639D02*
X196960Y214639D01*
X194816Y215527D01*
X193175Y217168D01*
X192287Y219312D01*
X192287Y221632D01*
X193175Y223776D01*
X194816Y225417D01*
X196960Y226305D01*
X199280Y226305D01*
X201424Y225417D01*
X203065Y223776D01*
X203953Y221632D01*
X203953Y219312D01*
X203065Y217168D01*
X201424Y215527D01*
X199280Y214639D01*
X196960Y214639D01*
G37*
%LPD*%
%LPC*%
G36*
X280780Y452383D02*
X280780Y452383D01*
X278636Y453271D01*
X276995Y454912D01*
X276107Y457056D01*
X276107Y459376D01*
X276995Y461520D01*
X278636Y463161D01*
X280780Y464049D01*
X283100Y464049D01*
X285244Y463161D01*
X286885Y461520D01*
X287773Y459376D01*
X287773Y457056D01*
X286885Y454912D01*
X285244Y453271D01*
X283100Y452383D01*
X280780Y452383D01*
G37*
%LPD*%
%LPC*%
G36*
X184260Y397519D02*
X184260Y397519D01*
X182116Y398407D01*
X180475Y400048D01*
X179587Y402192D01*
X179587Y404512D01*
X180475Y406656D01*
X182116Y408297D01*
X184260Y409185D01*
X186580Y409185D01*
X188724Y408297D01*
X190365Y406656D01*
X191253Y404512D01*
X191253Y402192D01*
X190365Y400048D01*
X188724Y398407D01*
X186580Y397519D01*
X184260Y397519D01*
G37*
%LPD*%
%LPC*%
G36*
X267712Y213877D02*
X267712Y213877D01*
X265568Y214765D01*
X263927Y216406D01*
X263039Y218550D01*
X263039Y220870D01*
X263927Y223014D01*
X265568Y224655D01*
X267712Y225543D01*
X270032Y225543D01*
X272176Y224655D01*
X273817Y223014D01*
X274705Y220870D01*
X274705Y218550D01*
X273817Y216406D01*
X272176Y214765D01*
X270032Y213877D01*
X267712Y213877D01*
G37*
%LPD*%
%LPC*%
G36*
X137016Y362975D02*
X137016Y362975D01*
X134872Y363863D01*
X133231Y365504D01*
X132343Y367648D01*
X132343Y369968D01*
X133231Y372112D01*
X134872Y373753D01*
X137016Y374641D01*
X139336Y374641D01*
X141480Y373753D01*
X143121Y372112D01*
X144009Y369968D01*
X144009Y367648D01*
X143121Y365504D01*
X141480Y363863D01*
X139336Y362975D01*
X137016Y362975D01*
G37*
%LPD*%
%LPC*%
G36*
X268080Y157997D02*
X268080Y157997D01*
X265936Y158885D01*
X264295Y160526D01*
X263407Y162670D01*
X263407Y164990D01*
X264295Y167134D01*
X265936Y168775D01*
X268080Y169663D01*
X270400Y169663D01*
X272544Y168775D01*
X274185Y167134D01*
X275073Y164990D01*
X275073Y162670D01*
X274185Y160526D01*
X272544Y158885D01*
X270400Y157997D01*
X268080Y157997D01*
G37*
%LPD*%
%LPC*%
G36*
X273160Y382787D02*
X273160Y382787D01*
X271016Y383675D01*
X269375Y385316D01*
X268487Y387460D01*
X268487Y389780D01*
X269375Y391924D01*
X271016Y393565D01*
X273160Y394453D01*
X275480Y394453D01*
X277624Y393565D01*
X279265Y391924D01*
X280153Y389780D01*
X280153Y387460D01*
X279265Y385316D01*
X277624Y383675D01*
X275480Y382787D01*
X273160Y382787D01*
G37*
%LPD*%
%LPC*%
G36*
X124316Y379739D02*
X124316Y379739D01*
X122172Y380627D01*
X120531Y382268D01*
X119643Y384412D01*
X119643Y386732D01*
X120531Y388876D01*
X122172Y390517D01*
X124316Y391405D01*
X126636Y391405D01*
X128780Y390517D01*
X130421Y388876D01*
X131309Y386732D01*
X131309Y384412D01*
X130421Y382268D01*
X128780Y380627D01*
X126636Y379739D01*
X124316Y379739D01*
G37*
%LPD*%
%LPC*%
G36*
X267064Y288807D02*
X267064Y288807D01*
X264920Y289695D01*
X263279Y291336D01*
X262391Y293480D01*
X262391Y295800D01*
X263279Y297944D01*
X264920Y299585D01*
X267064Y300473D01*
X269384Y300473D01*
X271528Y299585D01*
X273169Y297944D01*
X274057Y295800D01*
X274057Y293480D01*
X273169Y291336D01*
X271528Y289695D01*
X269384Y288807D01*
X267064Y288807D01*
G37*
%LPD*%
%LPC*%
G36*
X171560Y221751D02*
X171560Y221751D01*
X169416Y222639D01*
X167775Y224280D01*
X166887Y226424D01*
X166887Y228744D01*
X167775Y230888D01*
X169416Y232529D01*
X171560Y233417D01*
X173880Y233417D01*
X176024Y232529D01*
X177665Y230888D01*
X178553Y228744D01*
X178553Y226424D01*
X177665Y224280D01*
X176024Y222639D01*
X173880Y221751D01*
X171560Y221751D01*
G37*
%LPD*%
%LPC*%
G36*
X183752Y287791D02*
X183752Y287791D01*
X181608Y288679D01*
X179967Y290320D01*
X179079Y292464D01*
X179079Y294784D01*
X179967Y296928D01*
X181608Y298569D01*
X183752Y299457D01*
X186072Y299457D01*
X188216Y298569D01*
X189857Y296928D01*
X190745Y294784D01*
X190745Y292464D01*
X189857Y290320D01*
X188216Y288679D01*
X186072Y287791D01*
X183752Y287791D01*
G37*
%LPD*%
%LPC*%
G36*
X220111Y342795D02*
X220111Y342795D01*
X220111Y345481D01*
X226063Y351433D01*
X228749Y351433D01*
X228749Y342795D01*
X220111Y342795D01*
G37*
%LPD*%
%LPC*%
G36*
X226063Y331111D02*
X226063Y331111D01*
X220111Y337063D01*
X220111Y339749D01*
X228749Y339749D01*
X228749Y331111D01*
X226063Y331111D01*
G37*
%LPD*%
%LPC*%
G36*
X364743Y49783D02*
X364743Y49783D01*
X364743Y58341D01*
X367396Y58341D01*
X373301Y52436D01*
X373301Y49783D01*
X364743Y49783D01*
G37*
%LPD*%
%LPC*%
G36*
X273303Y49783D02*
X273303Y49783D01*
X273303Y58341D01*
X275956Y58341D01*
X281861Y52436D01*
X281861Y49783D01*
X273303Y49783D01*
G37*
%LPD*%
%LPC*%
G36*
X261699Y49783D02*
X261699Y49783D01*
X261699Y52436D01*
X267604Y58341D01*
X270257Y58341D01*
X270257Y49783D01*
X261699Y49783D01*
G37*
%LPD*%
%LPC*%
G36*
X353139Y49783D02*
X353139Y49783D01*
X353139Y52436D01*
X359044Y58341D01*
X361697Y58341D01*
X361697Y49783D01*
X353139Y49783D01*
G37*
%LPD*%
%LPC*%
G36*
X364743Y38179D02*
X364743Y38179D01*
X364743Y46737D01*
X373301Y46737D01*
X373301Y44084D01*
X367396Y38179D01*
X364743Y38179D01*
G37*
%LPD*%
%LPC*%
G36*
X273303Y38179D02*
X273303Y38179D01*
X273303Y46737D01*
X281861Y46737D01*
X281861Y44084D01*
X275956Y38179D01*
X273303Y38179D01*
G37*
%LPD*%
%LPC*%
G36*
X267604Y38179D02*
X267604Y38179D01*
X261699Y44084D01*
X261699Y46737D01*
X270257Y46737D01*
X270257Y38179D01*
X267604Y38179D01*
G37*
%LPD*%
%LPC*%
G36*
X359044Y38179D02*
X359044Y38179D01*
X353139Y44084D01*
X353139Y46737D01*
X361697Y46737D01*
X361697Y38179D01*
X359044Y38179D01*
G37*
%LPD*%
%LPC*%
G36*
X260603Y542543D02*
X260603Y542543D01*
X260603Y549782D01*
X261673Y549569D01*
X263291Y548899D01*
X264748Y547926D01*
X265986Y546688D01*
X266959Y545231D01*
X267629Y543613D01*
X267842Y542543D01*
X260603Y542543D01*
G37*
%LPD*%
%LPC*%
G36*
X260603Y539497D02*
X260603Y539497D01*
X267842Y539497D01*
X267629Y538427D01*
X266959Y536809D01*
X265986Y535352D01*
X264748Y534114D01*
X263291Y533141D01*
X261673Y532471D01*
X260603Y532258D01*
X260603Y539497D01*
G37*
%LPD*%
%LPC*%
G36*
X250318Y542543D02*
X250318Y542543D01*
X250531Y543613D01*
X251201Y545231D01*
X252174Y546688D01*
X253412Y547926D01*
X254869Y548899D01*
X256487Y549569D01*
X257557Y549782D01*
X257557Y542543D01*
X250318Y542543D01*
G37*
%LPD*%
%LPC*%
G36*
X256487Y532471D02*
X256487Y532471D01*
X254869Y533141D01*
X253412Y534114D01*
X252174Y535352D01*
X251201Y536809D01*
X250531Y538427D01*
X250318Y539497D01*
X257557Y539497D01*
X257557Y532258D01*
X256487Y532471D01*
G37*
%LPD*%
%LPC*%
G36*
X114189Y353237D02*
X114189Y353237D01*
X114189Y357705D01*
X117950Y357705D01*
X118597Y357532D01*
X119176Y357197D01*
X119649Y356724D01*
X119984Y356145D01*
X120157Y355498D01*
X120157Y353237D01*
X114189Y353237D01*
G37*
%LPD*%
%LPC*%
G36*
X105175Y353237D02*
X105175Y353237D01*
X105175Y355498D01*
X105348Y356145D01*
X105683Y356724D01*
X106156Y357197D01*
X106735Y357532D01*
X107382Y357705D01*
X111143Y357705D01*
X111143Y353237D01*
X105175Y353237D01*
G37*
%LPD*%
%LPC*%
G36*
X121173Y485069D02*
X121173Y485069D01*
X121173Y489537D01*
X127141Y489537D01*
X127141Y487276D01*
X126968Y486629D01*
X126633Y486050D01*
X126160Y485577D01*
X125581Y485242D01*
X124934Y485069D01*
X121173Y485069D01*
G37*
%LPD*%
%LPC*%
G36*
X121173Y398709D02*
X121173Y398709D01*
X121173Y403177D01*
X127141Y403177D01*
X127141Y400916D01*
X126968Y400269D01*
X126633Y399690D01*
X126160Y399217D01*
X125581Y398882D01*
X124934Y398709D01*
X121173Y398709D01*
G37*
%LPD*%
%LPC*%
G36*
X114366Y485069D02*
X114366Y485069D01*
X113719Y485242D01*
X113140Y485577D01*
X112667Y486050D01*
X112332Y486629D01*
X112159Y487276D01*
X112159Y489537D01*
X118127Y489537D01*
X118127Y485069D01*
X114366Y485069D01*
G37*
%LPD*%
%LPC*%
G36*
X114366Y398709D02*
X114366Y398709D01*
X113719Y398882D01*
X113140Y399217D01*
X112667Y399690D01*
X112332Y400269D01*
X112159Y400916D01*
X112159Y403177D01*
X118127Y403177D01*
X118127Y398709D01*
X114366Y398709D01*
G37*
%LPD*%
%LPC*%
G36*
X82549Y546765D02*
X82549Y546765D01*
X82549Y552408D01*
X85060Y552408D01*
X85707Y552235D01*
X86286Y551900D01*
X86759Y551427D01*
X87094Y550848D01*
X87267Y550201D01*
X87267Y546765D01*
X82549Y546765D01*
G37*
%LPD*%
%LPC*%
G36*
X87629Y459897D02*
X87629Y459897D01*
X87629Y465540D01*
X90140Y465540D01*
X90787Y465367D01*
X91366Y465032D01*
X91839Y464559D01*
X92174Y463980D01*
X92347Y463333D01*
X92347Y459897D01*
X87629Y459897D01*
G37*
%LPD*%
%LPC*%
G36*
X79865Y459897D02*
X79865Y459897D01*
X79865Y463333D01*
X80038Y463980D01*
X80373Y464559D01*
X80846Y465032D01*
X81425Y465367D01*
X82072Y465540D01*
X84583Y465540D01*
X84583Y459897D01*
X79865Y459897D01*
G37*
%LPD*%
%LPC*%
G36*
X74785Y546765D02*
X74785Y546765D01*
X74785Y550201D01*
X74958Y550848D01*
X75293Y551427D01*
X75766Y551900D01*
X76345Y552235D01*
X76992Y552408D01*
X79503Y552408D01*
X79503Y546765D01*
X74785Y546765D01*
G37*
%LPD*%
%LPC*%
G36*
X121629Y191879D02*
X121629Y191879D01*
X120982Y192052D01*
X120403Y192387D01*
X119930Y192860D01*
X119595Y193439D01*
X119422Y194086D01*
X119422Y196597D01*
X125065Y196597D01*
X125065Y191879D01*
X121629Y191879D01*
G37*
%LPD*%
%LPC*%
G36*
X173981Y94567D02*
X173981Y94567D01*
X173981Y99085D01*
X177292Y99085D01*
X177939Y98912D01*
X178518Y98577D01*
X178991Y98104D01*
X179326Y97525D01*
X179499Y96878D01*
X179499Y94567D01*
X173981Y94567D01*
G37*
%LPD*%
%LPC*%
G36*
X84179Y248307D02*
X84179Y248307D01*
X84179Y252825D01*
X87490Y252825D01*
X88137Y252652D01*
X88716Y252317D01*
X89189Y251844D01*
X89524Y251265D01*
X89697Y250618D01*
X89697Y248307D01*
X84179Y248307D01*
G37*
%LPD*%
%LPC*%
G36*
X173981Y150103D02*
X173981Y150103D01*
X173981Y154621D01*
X177292Y154621D01*
X177939Y154448D01*
X178518Y154113D01*
X178991Y153640D01*
X179326Y153061D01*
X179499Y152414D01*
X179499Y150103D01*
X173981Y150103D01*
G37*
%LPD*%
%LPC*%
G36*
X84179Y356935D02*
X84179Y356935D01*
X84179Y361453D01*
X87490Y361453D01*
X88137Y361280D01*
X88716Y360945D01*
X89189Y360472D01*
X89524Y359893D01*
X89697Y359246D01*
X89697Y356935D01*
X84179Y356935D01*
G37*
%LPD*%
%LPC*%
G36*
X75615Y248307D02*
X75615Y248307D01*
X75615Y250618D01*
X75788Y251265D01*
X76123Y251844D01*
X76596Y252317D01*
X77175Y252652D01*
X77822Y252825D01*
X81133Y252825D01*
X81133Y248307D01*
X75615Y248307D01*
G37*
%LPD*%
%LPC*%
G36*
X165417Y150103D02*
X165417Y150103D01*
X165417Y152414D01*
X165590Y153061D01*
X165925Y153640D01*
X166398Y154113D01*
X166977Y154448D01*
X167624Y154621D01*
X170935Y154621D01*
X170935Y150103D01*
X165417Y150103D01*
G37*
%LPD*%
%LPC*%
G36*
X165417Y94567D02*
X165417Y94567D01*
X165417Y96878D01*
X165590Y97525D01*
X165925Y98104D01*
X166398Y98577D01*
X166977Y98912D01*
X167624Y99085D01*
X170935Y99085D01*
X170935Y94567D01*
X165417Y94567D01*
G37*
%LPD*%
%LPC*%
G36*
X75615Y356935D02*
X75615Y356935D01*
X75615Y359246D01*
X75788Y359893D01*
X76123Y360472D01*
X76596Y360945D01*
X77175Y361280D01*
X77822Y361453D01*
X81133Y361453D01*
X81133Y356935D01*
X75615Y356935D01*
G37*
%LPD*%
%LPC*%
G36*
X134574Y136396D02*
X134574Y136396D01*
X134574Y140313D01*
X136534Y140313D01*
X137181Y140140D01*
X137760Y139805D01*
X138233Y139332D01*
X138568Y138753D01*
X138741Y138106D01*
X138741Y136396D01*
X134574Y136396D01*
G37*
%LPD*%
%LPC*%
G36*
X134574Y81024D02*
X134574Y81024D01*
X134574Y84941D01*
X136534Y84941D01*
X137181Y84768D01*
X137760Y84433D01*
X138233Y83960D01*
X138568Y83381D01*
X138741Y82734D01*
X138741Y81024D01*
X134574Y81024D01*
G37*
%LPD*%
%LPC*%
G36*
X127659Y81024D02*
X127659Y81024D01*
X127659Y82734D01*
X127832Y83381D01*
X128167Y83960D01*
X128640Y84433D01*
X129219Y84768D01*
X129866Y84941D01*
X131826Y84941D01*
X131826Y81024D01*
X127659Y81024D01*
G37*
%LPD*%
%LPC*%
G36*
X127659Y136396D02*
X127659Y136396D01*
X127659Y138106D01*
X127832Y138753D01*
X128167Y139332D01*
X128640Y139805D01*
X129219Y140140D01*
X129866Y140313D01*
X131826Y140313D01*
X131826Y136396D01*
X127659Y136396D01*
G37*
%LPD*%
%LPC*%
G36*
X134574Y129731D02*
X134574Y129731D01*
X134574Y133648D01*
X138741Y133648D01*
X138741Y131938D01*
X138568Y131291D01*
X138233Y130712D01*
X137760Y130239D01*
X137181Y129904D01*
X136534Y129731D01*
X134574Y129731D01*
G37*
%LPD*%
%LPC*%
G36*
X134574Y74359D02*
X134574Y74359D01*
X134574Y78276D01*
X138741Y78276D01*
X138741Y76566D01*
X138568Y75919D01*
X138233Y75340D01*
X137760Y74867D01*
X137181Y74532D01*
X136534Y74359D01*
X134574Y74359D01*
G37*
%LPD*%
%LPC*%
G36*
X129866Y74359D02*
X129866Y74359D01*
X129219Y74532D01*
X128640Y74867D01*
X128167Y75340D01*
X127832Y75919D01*
X127659Y76566D01*
X127659Y78276D01*
X131826Y78276D01*
X131826Y74359D01*
X129866Y74359D01*
G37*
%LPD*%
%LPC*%
G36*
X129866Y129731D02*
X129866Y129731D01*
X129219Y129904D01*
X128640Y130239D01*
X128167Y130712D01*
X127832Y131291D01*
X127659Y131938D01*
X127659Y133648D01*
X131826Y133648D01*
X131826Y129731D01*
X129866Y129731D01*
G37*
%LPD*%
%LPC*%
G36*
X271779Y48259D02*
X271779Y48259D01*
X271779Y48261D01*
X271781Y48261D01*
X271781Y48259D01*
X271779Y48259D01*
G37*
%LPD*%
%LPC*%
G36*
X363219Y48259D02*
X363219Y48259D01*
X363219Y48261D01*
X363221Y48261D01*
X363221Y48259D01*
X363219Y48259D01*
G37*
%LPD*%
%LPC*%
G36*
X259079Y541019D02*
X259079Y541019D01*
X259079Y541021D01*
X259081Y541021D01*
X259081Y541019D01*
X259079Y541019D01*
G37*
%LPD*%
D10*
X401460Y445950D03*
X401460Y518950D03*
X348460Y445950D03*
X348460Y518950D03*
D11*
X97560Y546028D03*
X97560Y533028D03*
D12*
X255672Y341272D03*
X230272Y341272D03*
X255672Y366672D03*
X230272Y366672D03*
X255672Y392072D03*
X230272Y392072D03*
D13*
X119650Y423700D03*
X119650Y414200D03*
X119650Y404700D03*
X93750Y404700D03*
X93750Y423700D03*
X119650Y510060D03*
X119650Y500560D03*
X119650Y491060D03*
X93750Y491060D03*
X93750Y510060D03*
X112666Y224312D03*
X112666Y233812D03*
X112666Y243312D03*
X138566Y243312D03*
X138566Y224312D03*
X112666Y332714D03*
X112666Y342214D03*
X112666Y351714D03*
X138566Y351714D03*
X138566Y332714D03*
D11*
X125910Y546028D03*
X125910Y533028D03*
X101116Y458144D03*
X101116Y445144D03*
X128450Y458144D03*
X128450Y445144D03*
X172458Y148580D03*
X172458Y135580D03*
X172458Y93044D03*
X172458Y80044D03*
D14*
X43100Y368300D02*
X28020Y368300D01*
X28020Y342900D02*
X43100Y342900D01*
X43100Y317500D02*
X28020Y317500D01*
X28020Y259080D02*
X43100Y259080D01*
X43100Y233680D02*
X28020Y233680D01*
X28020Y208280D02*
X43100Y208280D01*
D15*
X96732Y73278D03*
X106232Y95278D03*
X87232Y95278D03*
X94700Y129996D03*
X104200Y151996D03*
X85200Y151996D03*
D11*
X82656Y246784D03*
X82656Y233784D03*
X82656Y355412D03*
X82656Y342412D03*
D16*
X138620Y306822D03*
X126620Y306822D03*
D17*
X86106Y446374D03*
X86106Y458374D03*
X81026Y533242D03*
X81026Y545242D03*
D16*
X138588Y198120D03*
X126588Y198120D03*
D14*
X43100Y504190D02*
X28020Y504190D01*
X28020Y478790D02*
X43100Y478790D01*
X43100Y453390D02*
X28020Y453390D01*
X28020Y427990D02*
X43100Y427990D01*
D18*
X271780Y124460D03*
X246380Y124460D03*
X271780Y99060D03*
X246380Y99060D03*
X271780Y73660D03*
X246380Y73660D03*
X271780Y48260D03*
X246380Y48260D03*
X271780Y22860D03*
X246380Y22860D03*
D19*
X101092Y256032D03*
X92964Y199136D03*
X228600Y127000D03*
D14*
X43100Y149860D02*
X28020Y149860D01*
X28020Y124460D02*
X43100Y124460D01*
X43100Y99060D02*
X28020Y99060D01*
X28020Y73660D02*
X43100Y73660D01*
D18*
X363220Y124460D03*
X337820Y124460D03*
X363220Y99060D03*
X337820Y99060D03*
X363220Y73660D03*
X337820Y73660D03*
X363220Y48260D03*
X337820Y48260D03*
X363220Y22860D03*
X337820Y22860D03*
D20*
X259080Y541020D03*
D21*
X146200Y135022D03*
X133200Y135022D03*
X139700Y153522D03*
X146200Y79650D03*
X133200Y79650D03*
X139700Y98150D03*
D22*
X343232Y184000D02*
X364568Y184000D01*
X364568Y219000D02*
X343232Y219000D01*
X343232Y254000D02*
X364568Y254000D01*
X364568Y289000D02*
X343232Y289000D01*
X343232Y324000D02*
X364568Y324000D01*
D23*
X324104Y498348D03*
X166116Y289560D03*
X186944Y278892D03*
X280416Y327406D03*
X252984Y243840D03*
X22860Y292100D03*
X25400Y177800D03*
X22860Y401320D03*
X53340Y17780D03*
X134620Y17780D03*
X226060Y17780D03*
X306324Y16764D03*
X294640Y48260D03*
X408940Y55880D03*
X381000Y93980D03*
X408940Y195580D03*
X411480Y358140D03*
X95504Y242824D03*
X208280Y548640D03*
X55880Y548640D03*
X175260Y439420D03*
X370840Y548640D03*
X237744Y498348D03*
X164084Y185420D03*
X184404Y219964D03*
X114300Y127000D03*
X99060Y45720D03*
X17780Y53340D03*
X68580Y330200D03*
X70612Y222504D03*
X200660Y45720D03*
X223520Y76200D03*
X112776Y302260D03*
X115316Y366776D03*
X322580Y353060D03*
X332740Y406400D03*
X97028Y521208D03*
X67564Y437896D03*
X86360Y388620D03*
X217932Y223520D03*
X154940Y66040D03*
X414020Y114300D03*
X151384Y107696D03*
X82296Y113284D03*
X203200Y127000D03*
X106172Y187452D03*
X163068Y366776D03*
X205740Y370840D03*
X206248Y310896D03*
X162052Y315468D03*
X414020Y271780D03*
X284480Y163830D03*
X391160Y147320D03*
X383540Y236220D03*
X383540Y307340D03*
X259334Y323088D03*
X219710Y275590D03*
X121412Y264668D03*
X91440Y284480D03*
X300736Y85344D03*
X408940Y421640D03*
X244348Y478536D03*
X216916Y496824D03*
X233680Y439420D03*
X218440Y419100D03*
X185420Y313436D03*
X317500Y292100D03*
X287528Y293116D03*
X223520Y317500D03*
X189484Y103124D03*
X153924Y548640D03*
X175260Y477012D03*
X200660Y466344D03*
X140208Y477012D03*
X86360Y472440D03*
X139700Y439420D03*
X211328Y518668D03*
X213868Y479044D03*
X286512Y518668D03*
X243332Y517652D03*
X282448Y499872D03*
X256540Y219456D03*
X148844Y165100D03*
X195072Y185420D03*
X194564Y165100D03*
X189484Y244856D03*
X320040Y548640D03*
X314960Y518160D03*
X291592Y428752D03*
X322072Y387096D03*
X161544Y339344D03*
X320040Y269748D03*
X321564Y232156D03*
X325120Y312420D03*
X358140Y360680D03*
X327660Y441960D03*
D24*
X138620Y332660D02*
X138620Y306822D01*
X138620Y332660D02*
X138566Y332714D01*
X138588Y224290D02*
X138588Y198120D01*
X138588Y224290D02*
X138566Y224312D01*
D23*
X298704Y241300D03*
X165608Y380238D03*
X274320Y388620D03*
D25*
X112196Y458144D02*
X101116Y458144D01*
X112196Y458144D02*
X112268Y458216D01*
D23*
X112268Y458216D03*
X112268Y545592D03*
D25*
X112268Y546028D01*
X97560Y546028D01*
D23*
X281940Y458216D03*
X299720Y254000D03*
D25*
X138620Y306822D02*
X138620Y314442D01*
X135562Y317500D01*
X35560Y317500D01*
X138588Y201023D02*
X138588Y198120D01*
X138588Y201023D02*
X131331Y208280D01*
X35560Y208280D01*
X138588Y198120D02*
X147077Y198120D01*
X151385Y202428D01*
X297424Y202428D01*
D23*
X179246Y548424D03*
D24*
X145572Y224312D02*
X138566Y224312D01*
X152400Y304800D02*
X149860Y307340D01*
X139138Y307340D01*
X138620Y306822D01*
X152400Y231140D02*
X145572Y224312D01*
X152400Y231140D02*
X152400Y304800D01*
D25*
X303784Y249936D02*
X304800Y248920D01*
X303784Y249936D02*
X299720Y254000D01*
X303784Y208788D02*
X297424Y202428D01*
X303784Y208788D02*
X303784Y249936D01*
D24*
X304800Y248920D02*
X309880Y243840D01*
D25*
X309880Y198512D02*
X306842Y195474D01*
X306842Y131582D02*
X299720Y124460D01*
X271780Y124460D01*
X306842Y131582D02*
X306842Y195474D01*
X309880Y198512D02*
X309880Y243840D01*
D24*
X304800Y248920D02*
X298704Y242824D01*
X298704Y241300D01*
D23*
X309880Y248920D03*
X152400Y401320D03*
X170180Y242570D03*
X138176Y368808D03*
X161290Y234950D03*
X155448Y194056D03*
X125476Y385572D03*
X206746Y286512D03*
X224536Y96012D03*
X122428Y102616D03*
X185420Y403352D03*
X198120Y220472D03*
X323596Y199644D03*
X317500Y210820D03*
X149860Y210820D03*
X154940Y121920D03*
X159004Y88900D03*
X181102Y50546D03*
X179070Y107442D03*
X160020Y215900D03*
X296164Y213360D03*
X314960Y179324D03*
X315214Y192532D03*
X236220Y269240D03*
X218186Y186182D03*
X213360Y403860D03*
D24*
X203020Y414200D01*
X119650Y414200D01*
D23*
X88900Y169512D03*
X104140Y481076D03*
D24*
X103632Y480568D01*
D26*
X119650Y500560D02*
X119586Y500624D01*
X111398Y500624D01*
X103632Y492858D02*
X103632Y480568D01*
X103632Y492858D02*
X111398Y500624D01*
D23*
X315976Y460756D03*
D25*
X315976Y478536D01*
D23*
X315976Y478536D03*
D25*
X81240Y533028D02*
X81026Y533242D01*
D26*
X81240Y533028D02*
X125910Y533028D01*
X97560Y533028D01*
X81026Y533242D02*
X81026Y515164D01*
X86130Y510060D02*
X93750Y510060D01*
X86130Y510060D02*
X81026Y515164D01*
X88138Y441960D02*
X88138Y429312D01*
X93750Y423700D01*
D24*
X101116Y445144D02*
X128450Y445144D01*
X101116Y445144D02*
X88900Y445144D01*
X87670Y446374D02*
X86106Y446374D01*
X87670Y446374D02*
X88900Y445144D01*
X88138Y444342D02*
X86106Y446374D01*
X88138Y444342D02*
X88138Y441960D01*
D25*
X128450Y472874D02*
X128524Y472948D01*
X128450Y472874D02*
X128450Y458144D01*
D23*
X128524Y472948D03*
X140850Y538508D03*
D25*
X140850Y540232D02*
X135054Y546028D01*
X125910Y546028D01*
X140850Y540232D02*
X140850Y538508D01*
D23*
X150876Y523240D03*
X306324Y537464D03*
X304800Y378460D03*
X292608Y377952D03*
X286992Y538508D03*
D24*
X112666Y342214D02*
X82854Y342214D01*
X82656Y342412D01*
X36048Y342412D01*
X35560Y342900D01*
X112666Y233812D02*
X112638Y233784D01*
X82656Y233784D01*
X82552Y233680D01*
X35560Y233680D01*
X160214Y351714D02*
X160476Y351976D01*
X160214Y351714D02*
X138566Y351714D01*
D23*
X160476Y351976D03*
D24*
X122936Y284988D02*
X138566Y269358D01*
X138566Y243312D01*
D23*
X122936Y284988D03*
D25*
X87232Y105520D02*
X87232Y95278D01*
X87232Y105520D02*
X91948Y110236D01*
X131786Y110236D01*
X139700Y102322D02*
X139700Y98150D01*
X139700Y102322D02*
X131786Y110236D01*
X83450Y99060D02*
X35560Y99060D01*
X83450Y99060D02*
X87232Y95278D01*
D23*
X172720Y227584D03*
X186680Y124958D03*
D24*
X176058Y135580D01*
X172458Y135580D01*
X146758Y135580D02*
X146200Y135022D01*
X146758Y135580D02*
X172458Y135580D01*
D23*
X96520Y218440D03*
X118872Y77724D03*
X197104Y77724D03*
D24*
X194784Y80044D01*
X172458Y80044D01*
X146594Y80044D02*
X146200Y79650D01*
X146594Y80044D02*
X172458Y80044D01*
D23*
X260096Y234442D03*
X259588Y132080D03*
D24*
X277622Y177292D02*
X279400Y179070D01*
X284480Y179070D01*
X277622Y177292D02*
X77216Y177292D01*
D23*
X284480Y179070D03*
X270408Y263652D03*
X184912Y293624D03*
X268224Y294640D03*
X215392Y294132D03*
X77216Y177292D03*
X260604Y263652D03*
X130556Y296672D03*
X143764Y185928D03*
X218694Y166624D03*
X241300Y252984D03*
X269240Y163830D03*
X268872Y219710D03*
D25*
X96732Y73278D02*
X35942Y73278D01*
X35560Y73660D01*
X91144Y126440D02*
X94700Y129996D01*
X91144Y126440D02*
X37540Y126440D01*
X35560Y124460D01*
D24*
X101732Y255392D02*
X112908Y255392D01*
X101732Y255392D02*
X101092Y256032D01*
D23*
X112908Y255392D03*
D26*
X105146Y198628D02*
X93472Y198628D01*
X92964Y199136D01*
D23*
X105146Y198628D03*
X215900Y127000D03*
D24*
X228600Y127000D01*
D25*
X124274Y163680D02*
X93836Y163680D01*
X85200Y155044D01*
X85200Y151996D01*
X81032Y147828D01*
X37592Y147828D01*
X35560Y149860D01*
D24*
X124274Y163680D02*
X134622Y163680D01*
X139700Y158602D02*
X139700Y153522D01*
X139700Y158602D02*
X134622Y163680D01*
D26*
X60300Y427990D02*
X35560Y427990D01*
X60300Y427990D02*
X83590Y404700D01*
X93750Y404700D01*
X56080Y478790D02*
X35560Y478790D01*
X68350Y491060D02*
X93750Y491060D01*
X68350Y491060D02*
X56080Y478790D01*
D27*
X0Y14000D02*
X1220Y13947D01*
X2431Y13787D01*
X3623Y13523D01*
X4788Y13156D01*
X5917Y12688D01*
X7000Y12124D01*
X8030Y11468D01*
X8999Y10725D01*
X9900Y9900D01*
X10725Y8999D01*
X11468Y8030D01*
X12124Y7000D01*
X12688Y5917D01*
X13156Y4788D01*
X13523Y3623D01*
X13787Y2431D01*
X13947Y1220D01*
X14000Y0D01*
X416000Y0D01*
X416053Y1220D01*
X416213Y2431D01*
X416477Y3623D01*
X416844Y4788D01*
X417312Y5917D01*
X417876Y7000D01*
X418532Y8030D01*
X419275Y8999D01*
X420101Y9900D01*
X421001Y10725D01*
X421970Y11468D01*
X423000Y12124D01*
X424083Y12688D01*
X425212Y13156D01*
X426377Y13523D01*
X427569Y13787D01*
X428780Y13947D01*
X430000Y14000D01*
X430000Y551000D01*
X428780Y551053D01*
X427569Y551213D01*
X426377Y551477D01*
X425212Y551844D01*
X424083Y552312D01*
X423000Y552876D01*
X421970Y553532D01*
X421001Y554275D01*
X420101Y555101D01*
X419275Y556001D01*
X418532Y556970D01*
X417876Y558000D01*
X417312Y559083D01*
X416844Y560212D01*
X416477Y561377D01*
X416213Y562569D01*
X416053Y563780D01*
X416000Y565000D01*
X14000Y565000D01*
X13947Y563780D01*
X13787Y562569D01*
X13523Y561377D01*
X13156Y560212D01*
X12688Y559083D01*
X12124Y558000D01*
X11468Y556970D01*
X10725Y556001D01*
X9900Y555101D01*
X8999Y554275D01*
X8030Y553532D01*
X7000Y552876D01*
X5917Y552312D01*
X4788Y551844D01*
X3623Y551477D01*
X2431Y551213D01*
X1220Y551053D01*
X0Y551000D01*
X0Y14000D01*
X38690Y26248D02*
X38624Y25406D01*
X38492Y24571D01*
X38294Y23750D01*
X38033Y22946D01*
X37710Y22166D01*
X37327Y21413D01*
X36885Y20693D01*
X36389Y20010D01*
X35840Y19367D01*
X35243Y18770D01*
X34600Y18221D01*
X33917Y17725D01*
X33197Y17283D01*
X32444Y16900D01*
X31664Y16577D01*
X30860Y16316D01*
X30039Y16118D01*
X29205Y15986D01*
X28362Y15920D01*
X27518Y15920D01*
X26676Y15986D01*
X25841Y16118D01*
X25020Y16316D01*
X24216Y16577D01*
X23436Y16900D01*
X22683Y17283D01*
X21963Y17725D01*
X21280Y18221D01*
X20637Y18770D01*
X20040Y19367D01*
X19491Y20010D01*
X18995Y20693D01*
X18553Y21413D01*
X18170Y22166D01*
X17847Y22946D01*
X17586Y23750D01*
X17388Y24571D01*
X17256Y25406D01*
X17190Y26248D01*
X17190Y27092D01*
X17256Y27935D01*
X17388Y28769D01*
X17586Y29590D01*
X17847Y30394D01*
X18170Y31174D01*
X18553Y31927D01*
X18995Y32647D01*
X19491Y33330D01*
X20040Y33973D01*
X20637Y34570D01*
X21280Y35119D01*
X21963Y35615D01*
X22683Y36057D01*
X23436Y36440D01*
X24216Y36763D01*
X25020Y37024D01*
X25841Y37222D01*
X26676Y37354D01*
X27518Y37420D01*
X28362Y37420D01*
X29205Y37354D01*
X30039Y37222D01*
X30860Y37024D01*
X31664Y36763D01*
X32444Y36440D01*
X33197Y36057D01*
X33917Y35615D01*
X34600Y35119D01*
X35243Y34570D01*
X35840Y33973D01*
X36389Y33330D01*
X36885Y32647D01*
X37327Y31927D01*
X37710Y31174D01*
X38033Y30394D01*
X38294Y29590D01*
X38492Y28769D01*
X38624Y27935D01*
X38690Y27092D01*
X38690Y26248D01*
X38690Y540598D02*
X38624Y539756D01*
X38492Y538921D01*
X38294Y538100D01*
X38033Y537296D01*
X37710Y536516D01*
X37327Y535763D01*
X36885Y535043D01*
X36389Y534360D01*
X35840Y533717D01*
X35243Y533120D01*
X34600Y532571D01*
X33917Y532075D01*
X33197Y531633D01*
X32444Y531250D01*
X31664Y530927D01*
X30860Y530666D01*
X30039Y530468D01*
X29205Y530336D01*
X28362Y530270D01*
X27518Y530270D01*
X26676Y530336D01*
X25841Y530468D01*
X25020Y530666D01*
X24216Y530927D01*
X23436Y531250D01*
X22683Y531633D01*
X21963Y532075D01*
X21280Y532571D01*
X20637Y533120D01*
X20040Y533717D01*
X19491Y534360D01*
X18995Y535043D01*
X18553Y535763D01*
X18170Y536516D01*
X17847Y537296D01*
X17586Y538100D01*
X17388Y538921D01*
X17256Y539756D01*
X17190Y540598D01*
X17190Y541442D01*
X17256Y542285D01*
X17388Y543119D01*
X17586Y543940D01*
X17847Y544744D01*
X18170Y545524D01*
X18553Y546277D01*
X18995Y546997D01*
X19491Y547680D01*
X20040Y548323D01*
X20637Y548920D01*
X21280Y549469D01*
X21963Y549965D01*
X22683Y550407D01*
X23436Y550790D01*
X24216Y551113D01*
X25020Y551374D01*
X25841Y551572D01*
X26676Y551704D01*
X27518Y551770D01*
X28362Y551770D01*
X29205Y551704D01*
X30039Y551572D01*
X30860Y551374D01*
X31664Y551113D01*
X32444Y550790D01*
X33197Y550407D01*
X33917Y549965D01*
X34600Y549469D01*
X35243Y548920D01*
X35840Y548323D01*
X36389Y547680D01*
X36885Y546997D01*
X37327Y546277D01*
X37710Y545524D01*
X38033Y544744D01*
X38294Y543940D01*
X38492Y543119D01*
X38624Y542285D01*
X38690Y541442D01*
X38690Y540598D01*
X412070Y26248D02*
X412004Y25406D01*
X411872Y24571D01*
X411674Y23750D01*
X411413Y22946D01*
X411090Y22166D01*
X410707Y21413D01*
X410265Y20693D01*
X409769Y20010D01*
X409220Y19367D01*
X408623Y18770D01*
X407980Y18221D01*
X407297Y17725D01*
X406577Y17283D01*
X405824Y16900D01*
X405044Y16577D01*
X404240Y16316D01*
X403419Y16118D01*
X402585Y15986D01*
X401742Y15920D01*
X400898Y15920D01*
X400056Y15986D01*
X399221Y16118D01*
X398400Y16316D01*
X397596Y16577D01*
X396816Y16900D01*
X396063Y17283D01*
X395343Y17725D01*
X394660Y18221D01*
X394017Y18770D01*
X393420Y19367D01*
X392871Y20010D01*
X392375Y20693D01*
X391933Y21413D01*
X391550Y22166D01*
X391227Y22946D01*
X390966Y23750D01*
X390768Y24571D01*
X390636Y25406D01*
X390570Y26248D01*
X390570Y27092D01*
X390636Y27935D01*
X390768Y28769D01*
X390966Y29590D01*
X391227Y30394D01*
X391550Y31174D01*
X391933Y31927D01*
X392375Y32647D01*
X392871Y33330D01*
X393420Y33973D01*
X394017Y34570D01*
X394660Y35119D01*
X395343Y35615D01*
X396063Y36057D01*
X396816Y36440D01*
X397596Y36763D01*
X398400Y37024D01*
X399221Y37222D01*
X400056Y37354D01*
X400898Y37420D01*
X401742Y37420D01*
X402585Y37354D01*
X403419Y37222D01*
X404240Y37024D01*
X405044Y36763D01*
X405824Y36440D01*
X406577Y36057D01*
X407297Y35615D01*
X407980Y35119D01*
X408623Y34570D01*
X409220Y33973D01*
X409769Y33330D01*
X410265Y32647D01*
X410707Y31927D01*
X411090Y31174D01*
X411413Y30394D01*
X411674Y29590D01*
X411872Y28769D01*
X412004Y27935D01*
X412070Y27092D01*
X412070Y26248D01*
X389210Y393278D02*
X389144Y392436D01*
X389012Y391601D01*
X388814Y390780D01*
X388553Y389976D01*
X388230Y389196D01*
X387847Y388443D01*
X387405Y387723D01*
X386909Y387040D01*
X386360Y386397D01*
X385763Y385800D01*
X385120Y385251D01*
X384437Y384755D01*
X383717Y384313D01*
X382964Y383930D01*
X382184Y383607D01*
X381380Y383346D01*
X380559Y383148D01*
X379725Y383016D01*
X378882Y382950D01*
X378038Y382950D01*
X377196Y383016D01*
X376361Y383148D01*
X375540Y383346D01*
X374736Y383607D01*
X373956Y383930D01*
X373203Y384313D01*
X372483Y384755D01*
X371800Y385251D01*
X371157Y385800D01*
X370560Y386397D01*
X370011Y387040D01*
X369515Y387723D01*
X369073Y388443D01*
X368690Y389196D01*
X368367Y389976D01*
X368106Y390780D01*
X367908Y391601D01*
X367776Y392436D01*
X367710Y393278D01*
X367710Y394122D01*
X367776Y394965D01*
X367908Y395799D01*
X368106Y396620D01*
X368367Y397424D01*
X368690Y398204D01*
X369073Y398957D01*
X369515Y399677D01*
X370011Y400360D01*
X370560Y401003D01*
X371157Y401600D01*
X371800Y402149D01*
X372483Y402645D01*
X373203Y403087D01*
X373956Y403470D01*
X374736Y403793D01*
X375540Y404054D01*
X376361Y404252D01*
X377196Y404384D01*
X378038Y404450D01*
X378882Y404450D01*
X379725Y404384D01*
X380559Y404252D01*
X381380Y404054D01*
X382184Y403793D01*
X382964Y403470D01*
X383717Y403087D01*
X384437Y402645D01*
X385120Y402149D01*
X385763Y401600D01*
X386360Y401003D01*
X386909Y400360D01*
X387405Y399677D01*
X387847Y398957D01*
X388230Y398204D01*
X388553Y397424D01*
X388814Y396620D01*
X389012Y395799D01*
X389144Y394965D01*
X389210Y394122D01*
X389210Y393278D01*
X368741Y469950D02*
X369299Y469887D01*
X369846Y469762D01*
X370376Y469577D01*
X370882Y469333D01*
X371358Y469034D01*
X371797Y468684D01*
X372194Y468287D01*
X372544Y467848D01*
X372843Y467372D01*
X373087Y466866D01*
X373272Y466336D01*
X373397Y465789D01*
X373460Y465231D01*
X373460Y464669D01*
X373397Y464111D01*
X373272Y463564D01*
X373087Y463034D01*
X372843Y462528D01*
X372544Y462052D01*
X372194Y461613D01*
X371797Y461216D01*
X371358Y460866D01*
X370882Y460567D01*
X370376Y460323D01*
X369846Y460138D01*
X369299Y460013D01*
X368741Y459950D01*
X368179Y459950D01*
X367621Y460013D01*
X367074Y460138D01*
X366544Y460323D01*
X366038Y460567D01*
X365562Y460866D01*
X365123Y461216D01*
X364726Y461613D01*
X364376Y462052D01*
X364077Y462528D01*
X363833Y463034D01*
X363648Y463564D01*
X363523Y464111D01*
X363460Y464669D01*
X363460Y465231D01*
X363523Y465789D01*
X363648Y466336D01*
X363833Y466866D01*
X364077Y467372D01*
X364376Y467848D01*
X364726Y468287D01*
X365123Y468684D01*
X365562Y469034D01*
X366038Y469333D01*
X366544Y469577D01*
X367074Y469762D01*
X367621Y469887D01*
X368179Y469950D01*
X368741Y469950D01*
X368741Y504950D02*
X369299Y504887D01*
X369846Y504762D01*
X370376Y504577D01*
X370882Y504333D01*
X371358Y504034D01*
X371797Y503684D01*
X372194Y503287D01*
X372544Y502848D01*
X372843Y502372D01*
X373087Y501866D01*
X373272Y501336D01*
X373397Y500789D01*
X373460Y500231D01*
X373460Y499669D01*
X373397Y499111D01*
X373272Y498564D01*
X373087Y498034D01*
X372843Y497528D01*
X372544Y497052D01*
X372194Y496613D01*
X371797Y496216D01*
X371358Y495866D01*
X370882Y495567D01*
X370376Y495323D01*
X369846Y495138D01*
X369299Y495013D01*
X368741Y494950D01*
X368179Y494950D01*
X367621Y495013D01*
X367074Y495138D01*
X366544Y495323D01*
X366038Y495567D01*
X365562Y495866D01*
X365123Y496216D01*
X364726Y496613D01*
X364376Y497052D01*
X364077Y497528D01*
X363833Y498034D01*
X363648Y498564D01*
X363523Y499111D01*
X363460Y499669D01*
X363460Y500231D01*
X363523Y500789D01*
X363648Y501336D01*
X363833Y501866D01*
X364077Y502372D01*
X364376Y502848D01*
X364726Y503287D01*
X365123Y503684D01*
X365562Y504034D01*
X366038Y504333D01*
X366544Y504577D01*
X367074Y504762D01*
X367621Y504887D01*
X368179Y504950D01*
X368741Y504950D01*
M02*
