G04 EAGLE Gerber RS-274X export*
G75*
%MOMM*%
%FSLAX34Y34*%
%LPD*%
%IN*%
%IPPOS*%
%AMOC8*
5,1,8,0,0,1.08239X$1,22.5*%
G01*
%ADD10C,0.254000*%


D10*
X0Y14000D02*
X1220Y13947D01*
X2431Y13787D01*
X3623Y13523D01*
X4788Y13156D01*
X5917Y12688D01*
X7000Y12124D01*
X8030Y11468D01*
X8999Y10725D01*
X9900Y9900D01*
X10725Y8999D01*
X11468Y8030D01*
X12124Y7000D01*
X12688Y5917D01*
X13156Y4788D01*
X13523Y3623D01*
X13787Y2431D01*
X13947Y1220D01*
X14000Y0D01*
X416000Y0D01*
X416053Y1220D01*
X416213Y2431D01*
X416477Y3623D01*
X416844Y4788D01*
X417312Y5917D01*
X417876Y7000D01*
X418532Y8030D01*
X419275Y8999D01*
X420101Y9900D01*
X421001Y10725D01*
X421970Y11468D01*
X423000Y12124D01*
X424083Y12688D01*
X425212Y13156D01*
X426377Y13523D01*
X427569Y13787D01*
X428780Y13947D01*
X430000Y14000D01*
X430000Y551000D01*
X428780Y551053D01*
X427569Y551213D01*
X426377Y551477D01*
X425212Y551844D01*
X424083Y552312D01*
X423000Y552876D01*
X421970Y553532D01*
X421001Y554275D01*
X420101Y555101D01*
X419275Y556001D01*
X418532Y556970D01*
X417876Y558000D01*
X417312Y559083D01*
X416844Y560212D01*
X416477Y561377D01*
X416213Y562569D01*
X416053Y563780D01*
X416000Y565000D01*
X14000Y565000D01*
X13947Y563780D01*
X13787Y562569D01*
X13523Y561377D01*
X13156Y560212D01*
X12688Y559083D01*
X12124Y558000D01*
X11468Y556970D01*
X10725Y556001D01*
X9900Y555101D01*
X8999Y554275D01*
X8030Y553532D01*
X7000Y552876D01*
X5917Y552312D01*
X4788Y551844D01*
X3623Y551477D01*
X2431Y551213D01*
X1220Y551053D01*
X0Y551000D01*
X0Y14000D01*
X38690Y26248D02*
X38624Y25406D01*
X38492Y24571D01*
X38294Y23750D01*
X38033Y22946D01*
X37710Y22166D01*
X37327Y21413D01*
X36885Y20693D01*
X36389Y20010D01*
X35840Y19367D01*
X35243Y18770D01*
X34600Y18221D01*
X33917Y17725D01*
X33197Y17283D01*
X32444Y16900D01*
X31664Y16577D01*
X30860Y16316D01*
X30039Y16118D01*
X29205Y15986D01*
X28362Y15920D01*
X27518Y15920D01*
X26676Y15986D01*
X25841Y16118D01*
X25020Y16316D01*
X24216Y16577D01*
X23436Y16900D01*
X22683Y17283D01*
X21963Y17725D01*
X21280Y18221D01*
X20637Y18770D01*
X20040Y19367D01*
X19491Y20010D01*
X18995Y20693D01*
X18553Y21413D01*
X18170Y22166D01*
X17847Y22946D01*
X17586Y23750D01*
X17388Y24571D01*
X17256Y25406D01*
X17190Y26248D01*
X17190Y27092D01*
X17256Y27935D01*
X17388Y28769D01*
X17586Y29590D01*
X17847Y30394D01*
X18170Y31174D01*
X18553Y31927D01*
X18995Y32647D01*
X19491Y33330D01*
X20040Y33973D01*
X20637Y34570D01*
X21280Y35119D01*
X21963Y35615D01*
X22683Y36057D01*
X23436Y36440D01*
X24216Y36763D01*
X25020Y37024D01*
X25841Y37222D01*
X26676Y37354D01*
X27518Y37420D01*
X28362Y37420D01*
X29205Y37354D01*
X30039Y37222D01*
X30860Y37024D01*
X31664Y36763D01*
X32444Y36440D01*
X33197Y36057D01*
X33917Y35615D01*
X34600Y35119D01*
X35243Y34570D01*
X35840Y33973D01*
X36389Y33330D01*
X36885Y32647D01*
X37327Y31927D01*
X37710Y31174D01*
X38033Y30394D01*
X38294Y29590D01*
X38492Y28769D01*
X38624Y27935D01*
X38690Y27092D01*
X38690Y26248D01*
X38690Y540598D02*
X38624Y539756D01*
X38492Y538921D01*
X38294Y538100D01*
X38033Y537296D01*
X37710Y536516D01*
X37327Y535763D01*
X36885Y535043D01*
X36389Y534360D01*
X35840Y533717D01*
X35243Y533120D01*
X34600Y532571D01*
X33917Y532075D01*
X33197Y531633D01*
X32444Y531250D01*
X31664Y530927D01*
X30860Y530666D01*
X30039Y530468D01*
X29205Y530336D01*
X28362Y530270D01*
X27518Y530270D01*
X26676Y530336D01*
X25841Y530468D01*
X25020Y530666D01*
X24216Y530927D01*
X23436Y531250D01*
X22683Y531633D01*
X21963Y532075D01*
X21280Y532571D01*
X20637Y533120D01*
X20040Y533717D01*
X19491Y534360D01*
X18995Y535043D01*
X18553Y535763D01*
X18170Y536516D01*
X17847Y537296D01*
X17586Y538100D01*
X17388Y538921D01*
X17256Y539756D01*
X17190Y540598D01*
X17190Y541442D01*
X17256Y542285D01*
X17388Y543119D01*
X17586Y543940D01*
X17847Y544744D01*
X18170Y545524D01*
X18553Y546277D01*
X18995Y546997D01*
X19491Y547680D01*
X20040Y548323D01*
X20637Y548920D01*
X21280Y549469D01*
X21963Y549965D01*
X22683Y550407D01*
X23436Y550790D01*
X24216Y551113D01*
X25020Y551374D01*
X25841Y551572D01*
X26676Y551704D01*
X27518Y551770D01*
X28362Y551770D01*
X29205Y551704D01*
X30039Y551572D01*
X30860Y551374D01*
X31664Y551113D01*
X32444Y550790D01*
X33197Y550407D01*
X33917Y549965D01*
X34600Y549469D01*
X35243Y548920D01*
X35840Y548323D01*
X36389Y547680D01*
X36885Y546997D01*
X37327Y546277D01*
X37710Y545524D01*
X38033Y544744D01*
X38294Y543940D01*
X38492Y543119D01*
X38624Y542285D01*
X38690Y541442D01*
X38690Y540598D01*
X412070Y26248D02*
X412004Y25406D01*
X411872Y24571D01*
X411674Y23750D01*
X411413Y22946D01*
X411090Y22166D01*
X410707Y21413D01*
X410265Y20693D01*
X409769Y20010D01*
X409220Y19367D01*
X408623Y18770D01*
X407980Y18221D01*
X407297Y17725D01*
X406577Y17283D01*
X405824Y16900D01*
X405044Y16577D01*
X404240Y16316D01*
X403419Y16118D01*
X402585Y15986D01*
X401742Y15920D01*
X400898Y15920D01*
X400056Y15986D01*
X399221Y16118D01*
X398400Y16316D01*
X397596Y16577D01*
X396816Y16900D01*
X396063Y17283D01*
X395343Y17725D01*
X394660Y18221D01*
X394017Y18770D01*
X393420Y19367D01*
X392871Y20010D01*
X392375Y20693D01*
X391933Y21413D01*
X391550Y22166D01*
X391227Y22946D01*
X390966Y23750D01*
X390768Y24571D01*
X390636Y25406D01*
X390570Y26248D01*
X390570Y27092D01*
X390636Y27935D01*
X390768Y28769D01*
X390966Y29590D01*
X391227Y30394D01*
X391550Y31174D01*
X391933Y31927D01*
X392375Y32647D01*
X392871Y33330D01*
X393420Y33973D01*
X394017Y34570D01*
X394660Y35119D01*
X395343Y35615D01*
X396063Y36057D01*
X396816Y36440D01*
X397596Y36763D01*
X398400Y37024D01*
X399221Y37222D01*
X400056Y37354D01*
X400898Y37420D01*
X401742Y37420D01*
X402585Y37354D01*
X403419Y37222D01*
X404240Y37024D01*
X405044Y36763D01*
X405824Y36440D01*
X406577Y36057D01*
X407297Y35615D01*
X407980Y35119D01*
X408623Y34570D01*
X409220Y33973D01*
X409769Y33330D01*
X410265Y32647D01*
X410707Y31927D01*
X411090Y31174D01*
X411413Y30394D01*
X411674Y29590D01*
X411872Y28769D01*
X412004Y27935D01*
X412070Y27092D01*
X412070Y26248D01*
X389210Y393278D02*
X389144Y392436D01*
X389012Y391601D01*
X388814Y390780D01*
X388553Y389976D01*
X388230Y389196D01*
X387847Y388443D01*
X387405Y387723D01*
X386909Y387040D01*
X386360Y386397D01*
X385763Y385800D01*
X385120Y385251D01*
X384437Y384755D01*
X383717Y384313D01*
X382964Y383930D01*
X382184Y383607D01*
X381380Y383346D01*
X380559Y383148D01*
X379725Y383016D01*
X378882Y382950D01*
X378038Y382950D01*
X377196Y383016D01*
X376361Y383148D01*
X375540Y383346D01*
X374736Y383607D01*
X373956Y383930D01*
X373203Y384313D01*
X372483Y384755D01*
X371800Y385251D01*
X371157Y385800D01*
X370560Y386397D01*
X370011Y387040D01*
X369515Y387723D01*
X369073Y388443D01*
X368690Y389196D01*
X368367Y389976D01*
X368106Y390780D01*
X367908Y391601D01*
X367776Y392436D01*
X367710Y393278D01*
X367710Y394122D01*
X367776Y394965D01*
X367908Y395799D01*
X368106Y396620D01*
X368367Y397424D01*
X368690Y398204D01*
X369073Y398957D01*
X369515Y399677D01*
X370011Y400360D01*
X370560Y401003D01*
X371157Y401600D01*
X371800Y402149D01*
X372483Y402645D01*
X373203Y403087D01*
X373956Y403470D01*
X374736Y403793D01*
X375540Y404054D01*
X376361Y404252D01*
X377196Y404384D01*
X378038Y404450D01*
X378882Y404450D01*
X379725Y404384D01*
X380559Y404252D01*
X381380Y404054D01*
X382184Y403793D01*
X382964Y403470D01*
X383717Y403087D01*
X384437Y402645D01*
X385120Y402149D01*
X385763Y401600D01*
X386360Y401003D01*
X386909Y400360D01*
X387405Y399677D01*
X387847Y398957D01*
X388230Y398204D01*
X388553Y397424D01*
X388814Y396620D01*
X389012Y395799D01*
X389144Y394965D01*
X389210Y394122D01*
X389210Y393278D01*
X368741Y469950D02*
X369299Y469887D01*
X369846Y469762D01*
X370376Y469577D01*
X370882Y469333D01*
X371358Y469034D01*
X371797Y468684D01*
X372194Y468287D01*
X372544Y467848D01*
X372843Y467372D01*
X373087Y466866D01*
X373272Y466336D01*
X373397Y465789D01*
X373460Y465231D01*
X373460Y464669D01*
X373397Y464111D01*
X373272Y463564D01*
X373087Y463034D01*
X372843Y462528D01*
X372544Y462052D01*
X372194Y461613D01*
X371797Y461216D01*
X371358Y460866D01*
X370882Y460567D01*
X370376Y460323D01*
X369846Y460138D01*
X369299Y460013D01*
X368741Y459950D01*
X368179Y459950D01*
X367621Y460013D01*
X367074Y460138D01*
X366544Y460323D01*
X366038Y460567D01*
X365562Y460866D01*
X365123Y461216D01*
X364726Y461613D01*
X364376Y462052D01*
X364077Y462528D01*
X363833Y463034D01*
X363648Y463564D01*
X363523Y464111D01*
X363460Y464669D01*
X363460Y465231D01*
X363523Y465789D01*
X363648Y466336D01*
X363833Y466866D01*
X364077Y467372D01*
X364376Y467848D01*
X364726Y468287D01*
X365123Y468684D01*
X365562Y469034D01*
X366038Y469333D01*
X366544Y469577D01*
X367074Y469762D01*
X367621Y469887D01*
X368179Y469950D01*
X368741Y469950D01*
X368741Y504950D02*
X369299Y504887D01*
X369846Y504762D01*
X370376Y504577D01*
X370882Y504333D01*
X371358Y504034D01*
X371797Y503684D01*
X372194Y503287D01*
X372544Y502848D01*
X372843Y502372D01*
X373087Y501866D01*
X373272Y501336D01*
X373397Y500789D01*
X373460Y500231D01*
X373460Y499669D01*
X373397Y499111D01*
X373272Y498564D01*
X373087Y498034D01*
X372843Y497528D01*
X372544Y497052D01*
X372194Y496613D01*
X371797Y496216D01*
X371358Y495866D01*
X370882Y495567D01*
X370376Y495323D01*
X369846Y495138D01*
X369299Y495013D01*
X368741Y494950D01*
X368179Y494950D01*
X367621Y495013D01*
X367074Y495138D01*
X366544Y495323D01*
X366038Y495567D01*
X365562Y495866D01*
X365123Y496216D01*
X364726Y496613D01*
X364376Y497052D01*
X364077Y497528D01*
X363833Y498034D01*
X363648Y498564D01*
X363523Y499111D01*
X363460Y499669D01*
X363460Y500231D01*
X363523Y500789D01*
X363648Y501336D01*
X363833Y501866D01*
X364077Y502372D01*
X364376Y502848D01*
X364726Y503287D01*
X365123Y503684D01*
X365562Y504034D01*
X366038Y504333D01*
X366544Y504577D01*
X367074Y504762D01*
X367621Y504887D01*
X368179Y504950D01*
X368741Y504950D01*
M02*
