G04 EAGLE Gerber RS-274X export*
G75*
%MOMM*%
%FSLAX34Y34*%
%LPD*%
%INSilkscreen Bottom*%
%IPPOS*%
%AMOC8*
5,1,8,0,0,1.08239X$1,22.5*%
G01*
%ADD10C,0.127000*%
%ADD11C,0.010000*%
%ADD12C,0.075000*%
%ADD13C,0.152400*%


D10*
X105327Y527303D02*
X112191Y527303D01*
X112191Y530735D01*
X111047Y531879D01*
X108759Y531879D01*
X107615Y530735D01*
X107615Y527303D01*
X107615Y529591D02*
X105327Y531879D01*
X109903Y534787D02*
X112191Y537075D01*
X105327Y537075D01*
X105327Y534787D02*
X105327Y539363D01*
D11*
X119650Y414200D02*
X119750Y414200D01*
D10*
X114750Y400000D02*
X98750Y400000D01*
X98750Y428400D02*
X114750Y428400D01*
D12*
X100250Y426900D02*
X100250Y401400D01*
X113350Y401400D01*
X113350Y426900D01*
X100250Y426900D01*
D10*
X113855Y389579D02*
X116143Y389579D01*
X114999Y389579D02*
X114999Y396443D01*
X116143Y396443D02*
X113855Y396443D01*
X107721Y396443D02*
X106577Y395299D01*
X107721Y396443D02*
X110009Y396443D01*
X111153Y395299D01*
X111153Y390723D01*
X110009Y389579D01*
X107721Y389579D01*
X106577Y390723D01*
X103669Y389579D02*
X99093Y389579D01*
X103669Y389579D02*
X99093Y394155D01*
X99093Y395299D01*
X100237Y396443D01*
X102525Y396443D01*
X103669Y395299D01*
D11*
X119650Y500560D02*
X119750Y500560D01*
D10*
X114750Y486360D02*
X98750Y486360D01*
X98750Y514760D02*
X114750Y514760D01*
D12*
X100250Y513260D02*
X100250Y487760D01*
X113350Y487760D01*
X113350Y513260D01*
X100250Y513260D01*
D10*
X113107Y476471D02*
X115395Y476471D01*
X114251Y476471D02*
X114251Y483335D01*
X115395Y483335D02*
X113107Y483335D01*
X106973Y483335D02*
X105829Y482191D01*
X106973Y483335D02*
X109261Y483335D01*
X110405Y482191D01*
X110405Y477615D01*
X109261Y476471D01*
X106973Y476471D01*
X105829Y477615D01*
X99489Y476471D02*
X99489Y483335D01*
X102921Y479903D01*
X98345Y479903D01*
D11*
X112566Y233812D02*
X112666Y233812D01*
D10*
X117566Y248012D02*
X133566Y248012D01*
X133566Y219612D02*
X117566Y219612D01*
D12*
X132066Y221112D02*
X132066Y246612D01*
X118966Y246612D01*
X118966Y221112D01*
X132066Y221112D01*
D10*
X134069Y252307D02*
X136357Y252307D01*
X135213Y252307D02*
X135213Y259171D01*
X136357Y259171D02*
X134069Y259171D01*
X127935Y259171D02*
X126791Y258027D01*
X127935Y259171D02*
X130223Y259171D01*
X131367Y258027D01*
X131367Y253451D01*
X130223Y252307D01*
X127935Y252307D01*
X126791Y253451D01*
X123883Y259171D02*
X119307Y259171D01*
X123883Y259171D02*
X123883Y255739D01*
X121595Y256883D01*
X120451Y256883D01*
X119307Y255739D01*
X119307Y253451D01*
X120451Y252307D01*
X122739Y252307D01*
X123883Y253451D01*
D11*
X112666Y342214D02*
X112566Y342214D01*
D10*
X117566Y356414D02*
X133566Y356414D01*
X133566Y328014D02*
X117566Y328014D01*
D12*
X132066Y329514D02*
X132066Y355014D01*
X118966Y355014D01*
X118966Y329514D01*
X132066Y329514D01*
D10*
X131577Y314955D02*
X133865Y314955D01*
X132721Y314955D02*
X132721Y321819D01*
X133865Y321819D02*
X131577Y321819D01*
X125443Y321819D02*
X124299Y320675D01*
X125443Y321819D02*
X127731Y321819D01*
X128875Y320675D01*
X128875Y316099D01*
X127731Y314955D01*
X125443Y314955D01*
X124299Y316099D01*
X119103Y320675D02*
X116815Y321819D01*
X119103Y320675D02*
X121391Y318387D01*
X121391Y316099D01*
X120247Y314955D01*
X117959Y314955D01*
X116815Y316099D01*
X116815Y317243D01*
X117959Y318387D01*
X121391Y318387D01*
X132371Y543273D02*
X139235Y543273D01*
X139235Y546705D01*
X138091Y547849D01*
X135803Y547849D01*
X134659Y546705D01*
X134659Y543273D01*
X134659Y545561D02*
X132371Y547849D01*
X132371Y550757D02*
X132371Y555333D01*
X132371Y550757D02*
X136947Y555333D01*
X138091Y555333D01*
X139235Y554189D01*
X139235Y551901D01*
X138091Y550757D01*
X116123Y438957D02*
X109259Y438957D01*
X116123Y438957D02*
X116123Y442389D01*
X114979Y443533D01*
X112691Y443533D01*
X111547Y442389D01*
X111547Y438957D01*
X111547Y441245D02*
X109259Y443533D01*
X116123Y446441D02*
X116123Y451017D01*
X116123Y446441D02*
X112691Y446441D01*
X113835Y448729D01*
X113835Y449873D01*
X112691Y451017D01*
X110403Y451017D01*
X109259Y449873D01*
X109259Y447585D01*
X110403Y446441D01*
X137357Y445659D02*
X144221Y445659D01*
X144221Y449091D01*
X143077Y450235D01*
X140789Y450235D01*
X139645Y449091D01*
X139645Y445659D01*
X139645Y447947D02*
X137357Y450235D01*
X143077Y455431D02*
X144221Y457719D01*
X143077Y455431D02*
X140789Y453143D01*
X138501Y453143D01*
X137357Y454287D01*
X137357Y456575D01*
X138501Y457719D01*
X139645Y457719D01*
X140789Y456575D01*
X140789Y453143D01*
X180803Y135705D02*
X187667Y135705D01*
X187667Y139137D01*
X186523Y140281D01*
X184235Y140281D01*
X183091Y139137D01*
X183091Y135705D01*
X183091Y137993D02*
X180803Y140281D01*
X180803Y146621D02*
X187667Y146621D01*
X184235Y143189D01*
X184235Y147765D01*
X180903Y81303D02*
X187767Y81303D01*
X187767Y84735D01*
X186623Y85879D01*
X184335Y85879D01*
X183191Y84735D01*
X183191Y81303D01*
X183191Y83591D02*
X180903Y85879D01*
X187767Y88787D02*
X187767Y93363D01*
X186623Y93363D01*
X182047Y88787D01*
X180903Y88787D01*
D13*
X82508Y85802D02*
X82508Y77674D01*
X88096Y77674D01*
X110956Y77674D02*
X110956Y85802D01*
X110956Y77674D02*
X105368Y77674D01*
D10*
X77907Y78571D02*
X71043Y78571D01*
X71043Y82003D01*
X72187Y83147D01*
X76763Y83147D01*
X77907Y82003D01*
X77907Y78571D01*
X77907Y89487D02*
X71043Y89487D01*
X74475Y86055D02*
X77907Y89487D01*
X74475Y90631D02*
X74475Y86055D01*
D13*
X80476Y134392D02*
X80476Y142520D01*
X80476Y134392D02*
X86064Y134392D01*
X108924Y134392D02*
X108924Y142520D01*
X108924Y134392D02*
X103336Y134392D01*
D10*
X75243Y136335D02*
X68379Y136335D01*
X68379Y139767D01*
X69523Y140911D01*
X74099Y140911D01*
X75243Y139767D01*
X75243Y136335D01*
X72955Y143819D02*
X75243Y146107D01*
X68379Y146107D01*
X68379Y143819D02*
X68379Y148395D01*
X68199Y233913D02*
X75063Y233913D01*
X75063Y237345D01*
X73919Y238489D01*
X71631Y238489D01*
X70487Y237345D01*
X70487Y233913D01*
X70487Y236201D02*
X68199Y238489D01*
X73919Y241397D02*
X75063Y242541D01*
X75063Y244829D01*
X73919Y245973D01*
X72775Y245973D01*
X71631Y244829D01*
X70487Y245973D01*
X69343Y245973D01*
X68199Y244829D01*
X68199Y242541D01*
X69343Y241397D01*
X70487Y241397D01*
X71631Y242541D01*
X72775Y241397D01*
X73919Y241397D01*
X71631Y242541D02*
X71631Y244829D01*
X74639Y342117D02*
X67775Y342117D01*
X74639Y342117D02*
X74639Y345549D01*
X73495Y346693D01*
X71207Y346693D01*
X70063Y345549D01*
X70063Y342117D01*
X70063Y344405D02*
X67775Y346693D01*
X68919Y349601D02*
X67775Y350745D01*
X67775Y353033D01*
X68919Y354177D01*
X73495Y354177D01*
X74639Y353033D01*
X74639Y350745D01*
X73495Y349601D01*
X72351Y349601D01*
X71207Y350745D01*
X71207Y354177D01*
X136807Y299715D02*
X137951Y300859D01*
X140239Y300859D01*
X141383Y299715D01*
X141383Y295139D01*
X140239Y293995D01*
X137951Y293995D01*
X136807Y295139D01*
X133899Y298571D02*
X131611Y300859D01*
X131611Y293995D01*
X133899Y293995D02*
X129323Y293995D01*
X122983Y293995D02*
X122983Y300859D01*
X126415Y297427D01*
X121839Y297427D01*
X78365Y444656D02*
X77221Y445800D01*
X78365Y444656D02*
X78365Y442369D01*
X77221Y441225D01*
X72645Y441225D01*
X71501Y442369D01*
X71501Y444656D01*
X72645Y445800D01*
X76077Y448709D02*
X78365Y450997D01*
X71501Y450997D01*
X71501Y448709D02*
X71501Y453285D01*
X78365Y456193D02*
X78365Y460769D01*
X78365Y456193D02*
X74933Y456193D01*
X76077Y458481D01*
X76077Y459625D01*
X74933Y460769D01*
X72645Y460769D01*
X71501Y459625D01*
X71501Y457337D01*
X72645Y456193D01*
X74007Y533015D02*
X72863Y534159D01*
X74007Y533015D02*
X74007Y530727D01*
X72863Y529583D01*
X68287Y529583D01*
X67143Y530727D01*
X67143Y533015D01*
X68287Y534159D01*
X71719Y537067D02*
X74007Y539355D01*
X67143Y539355D01*
X67143Y537067D02*
X67143Y541643D01*
X72863Y546839D02*
X74007Y549127D01*
X72863Y546839D02*
X70575Y544551D01*
X68287Y544551D01*
X67143Y545695D01*
X67143Y547983D01*
X68287Y549127D01*
X69431Y549127D01*
X70575Y547983D01*
X70575Y544551D01*
X136903Y210953D02*
X135759Y209809D01*
X136903Y210953D02*
X139191Y210953D01*
X140335Y209809D01*
X140335Y205233D01*
X139191Y204089D01*
X136903Y204089D01*
X135759Y205233D01*
X132851Y208665D02*
X130563Y210953D01*
X130563Y204089D01*
X132851Y204089D02*
X128275Y204089D01*
X125367Y210953D02*
X120791Y210953D01*
X120791Y209809D01*
X125367Y205233D01*
X125367Y204089D01*
X103668Y262666D02*
X103668Y269530D01*
X105956Y269530D02*
X101380Y269530D01*
X98472Y269530D02*
X98472Y262666D01*
X98472Y269530D02*
X95040Y269530D01*
X93896Y268386D01*
X93896Y266098D01*
X95040Y264954D01*
X98472Y264954D01*
X90988Y269530D02*
X86412Y269530D01*
X90988Y269530D02*
X90988Y266098D01*
X88700Y267242D01*
X87556Y267242D01*
X86412Y266098D01*
X86412Y263810D01*
X87556Y262666D01*
X89844Y262666D01*
X90988Y263810D01*
X100112Y213650D02*
X100112Y206786D01*
X102400Y213650D02*
X97824Y213650D01*
X94916Y213650D02*
X94916Y206786D01*
X94916Y213650D02*
X91484Y213650D01*
X90340Y212506D01*
X90340Y210218D01*
X91484Y209074D01*
X94916Y209074D01*
X85144Y212506D02*
X82856Y213650D01*
X85144Y212506D02*
X87432Y210218D01*
X87432Y207930D01*
X86288Y206786D01*
X84000Y206786D01*
X82856Y207930D01*
X82856Y209074D01*
X84000Y210218D01*
X87432Y210218D01*
X235748Y142530D02*
X235748Y135666D01*
X238036Y142530D02*
X233460Y142530D01*
X230552Y142530D02*
X230552Y135666D01*
X230552Y142530D02*
X227120Y142530D01*
X225976Y141386D01*
X225976Y139098D01*
X227120Y137954D01*
X230552Y137954D01*
X223068Y136810D02*
X221924Y135666D01*
X219636Y135666D01*
X218492Y136810D01*
X218492Y141386D01*
X219636Y142530D01*
X221924Y142530D01*
X223068Y141386D01*
X223068Y140242D01*
X221924Y139098D01*
X218492Y139098D01*
D13*
X129226Y139543D02*
X129226Y150501D01*
X138054Y138043D02*
X141346Y138043D01*
X150174Y139543D02*
X150174Y150501D01*
X145929Y150501D01*
X133471Y150501D02*
X129226Y150501D01*
D10*
X125563Y143751D02*
X118699Y143751D01*
X125563Y141463D02*
X125563Y146039D01*
X118699Y148947D02*
X118699Y153523D01*
X118699Y148947D02*
X123275Y153523D01*
X124419Y153523D01*
X125563Y152379D01*
X125563Y150091D01*
X124419Y148947D01*
D13*
X129226Y95129D02*
X129226Y84171D01*
X138054Y82671D02*
X141346Y82671D01*
X150174Y84171D02*
X150174Y95129D01*
X145929Y95129D01*
X133471Y95129D02*
X129226Y95129D01*
D10*
X125055Y92951D02*
X118191Y92951D01*
X125055Y90663D02*
X125055Y95239D01*
X122767Y98147D02*
X125055Y100435D01*
X118191Y100435D01*
X118191Y98147D02*
X118191Y102723D01*
M02*
