G04 EAGLE Gerber RS-274X export*
G75*
%MOMM*%
%FSLAX34Y34*%
%LPD*%
%INSilkscreen Top*%
%IPPOS*%
%AMOC8*
5,1,8,0,0,1.08239X$1,22.5*%
G01*
%ADD10C,0.203200*%
%ADD11C,0.127000*%
%ADD12C,0.279400*%
%ADD13C,0.884400*%
%ADD14C,0.152400*%
%ADD15C,0.254000*%
%ADD16C,0.282838*%
%ADD17C,0.076200*%
%ADD18R,0.150000X0.300000*%
%ADD19R,0.300000X0.300000*%
%ADD20R,3.675000X1.050000*%


D10*
X80775Y422656D02*
X80775Y433333D01*
X77216Y433333D02*
X84334Y433333D01*
X88910Y429774D02*
X92469Y433333D01*
X92469Y422656D01*
X88910Y422656D02*
X96028Y422656D01*
X80775Y473456D02*
X80775Y484133D01*
X77216Y484133D02*
X84334Y484133D01*
X88910Y482354D02*
X88910Y475236D01*
X88910Y482354D02*
X90689Y484133D01*
X94249Y484133D01*
X96028Y482354D01*
X96028Y475236D01*
X94249Y473456D01*
X90689Y473456D01*
X88910Y475236D01*
X96028Y482354D01*
X84334Y507754D02*
X82555Y509533D01*
X78996Y509533D01*
X77216Y507754D01*
X77216Y500636D01*
X78996Y498856D01*
X82555Y498856D01*
X84334Y500636D01*
X84334Y504195D01*
X80775Y504195D01*
X88910Y509533D02*
X88910Y498856D01*
X96028Y498856D02*
X88910Y509533D01*
X96028Y509533D02*
X96028Y498856D01*
X100604Y498856D02*
X100604Y509533D01*
X100604Y498856D02*
X105943Y498856D01*
X107722Y500636D01*
X107722Y507754D01*
X105943Y509533D01*
X100604Y509533D01*
X82555Y458733D02*
X84334Y456954D01*
X82555Y458733D02*
X78996Y458733D01*
X77216Y456954D01*
X77216Y449836D01*
X78996Y448056D01*
X82555Y448056D01*
X84334Y449836D01*
X84334Y453395D01*
X80775Y453395D01*
X88910Y458733D02*
X88910Y448056D01*
X96028Y448056D02*
X88910Y458733D01*
X96028Y458733D02*
X96028Y448056D01*
X100604Y448056D02*
X100604Y458733D01*
X100604Y448056D02*
X105943Y448056D01*
X107722Y449836D01*
X107722Y456954D01*
X105943Y458733D01*
X100604Y458733D01*
X82555Y372373D02*
X84334Y370594D01*
X82555Y372373D02*
X78996Y372373D01*
X77216Y370594D01*
X77216Y363476D01*
X78996Y361696D01*
X82555Y361696D01*
X84334Y363476D01*
X84334Y367035D01*
X80775Y367035D01*
X88910Y372373D02*
X88910Y361696D01*
X96028Y361696D02*
X88910Y372373D01*
X96028Y372373D02*
X96028Y361696D01*
X100604Y361696D02*
X100604Y372373D01*
X100604Y361696D02*
X105943Y361696D01*
X107722Y363476D01*
X107722Y370594D01*
X105943Y372373D01*
X100604Y372373D01*
X80775Y336296D02*
X77216Y336296D01*
X78996Y336296D02*
X78996Y346973D01*
X80775Y346973D02*
X77216Y346973D01*
X85012Y346973D02*
X85012Y336296D01*
X92130Y336296D02*
X85012Y346973D01*
X92130Y346973D02*
X92130Y336296D01*
X78996Y321573D02*
X77216Y319794D01*
X78996Y321573D02*
X82555Y321573D01*
X84334Y319794D01*
X84334Y318014D01*
X82555Y316235D01*
X80775Y316235D01*
X82555Y316235D02*
X84334Y314455D01*
X84334Y312676D01*
X82555Y310896D01*
X78996Y310896D01*
X77216Y312676D01*
X88910Y314455D02*
X88910Y321573D01*
X88910Y314455D02*
X92469Y310896D01*
X96028Y314455D01*
X96028Y321573D01*
X100604Y319794D02*
X102383Y321573D01*
X105943Y321573D01*
X107722Y319794D01*
X107722Y318014D01*
X105943Y316235D01*
X104163Y316235D01*
X105943Y316235D02*
X107722Y314455D01*
X107722Y312676D01*
X105943Y310896D01*
X102383Y310896D01*
X100604Y312676D01*
X82555Y265693D02*
X84334Y263914D01*
X82555Y265693D02*
X78996Y265693D01*
X77216Y263914D01*
X77216Y256796D01*
X78996Y255016D01*
X82555Y255016D01*
X84334Y256796D01*
X84334Y260355D01*
X80775Y260355D01*
X88910Y265693D02*
X88910Y255016D01*
X96028Y255016D02*
X88910Y265693D01*
X96028Y265693D02*
X96028Y255016D01*
X100604Y255016D02*
X100604Y265693D01*
X100604Y255016D02*
X105943Y255016D01*
X107722Y256796D01*
X107722Y263914D01*
X105943Y265693D01*
X100604Y265693D01*
X80775Y229616D02*
X77216Y229616D01*
X78996Y229616D02*
X78996Y240293D01*
X80775Y240293D02*
X77216Y240293D01*
X85012Y240293D02*
X85012Y229616D01*
X92130Y229616D02*
X85012Y240293D01*
X92130Y240293D02*
X92130Y229616D01*
X78996Y214893D02*
X77216Y213114D01*
X78996Y214893D02*
X82555Y214893D01*
X84334Y213114D01*
X84334Y211334D01*
X82555Y209555D01*
X80775Y209555D01*
X82555Y209555D02*
X84334Y207775D01*
X84334Y205996D01*
X82555Y204216D01*
X78996Y204216D01*
X77216Y205996D01*
X88910Y207775D02*
X88910Y214893D01*
X88910Y207775D02*
X92469Y204216D01*
X96028Y207775D01*
X96028Y214893D01*
X100604Y213114D02*
X102383Y214893D01*
X105943Y214893D01*
X107722Y213114D01*
X107722Y211334D01*
X105943Y209555D01*
X104163Y209555D01*
X105943Y209555D02*
X107722Y207775D01*
X107722Y205996D01*
X105943Y204216D01*
X102383Y204216D01*
X100604Y205996D01*
X77216Y153933D02*
X77216Y146815D01*
X80775Y143256D01*
X84334Y146815D01*
X84334Y153933D01*
X88910Y152154D02*
X88910Y145036D01*
X88910Y152154D02*
X90689Y153933D01*
X94249Y153933D01*
X96028Y152154D01*
X96028Y145036D01*
X94249Y143256D01*
X90689Y143256D01*
X88910Y145036D01*
X96028Y152154D01*
X80775Y128533D02*
X77216Y124974D01*
X80775Y128533D02*
X80775Y117856D01*
X77216Y117856D02*
X84334Y117856D01*
X88910Y117856D02*
X96028Y117856D01*
X88910Y117856D02*
X96028Y124974D01*
X96028Y126754D01*
X94249Y128533D01*
X90689Y128533D01*
X88910Y126754D01*
X100604Y128533D02*
X100604Y121415D01*
X104163Y117856D01*
X107722Y121415D01*
X107722Y128533D01*
X77216Y103133D02*
X77216Y96015D01*
X80775Y92456D01*
X84334Y96015D01*
X84334Y103133D01*
X88910Y99574D02*
X92469Y103133D01*
X92469Y92456D01*
X88910Y92456D02*
X96028Y92456D01*
X80775Y77733D02*
X77216Y74174D01*
X80775Y77733D02*
X80775Y67056D01*
X77216Y67056D02*
X84334Y67056D01*
X88910Y67056D02*
X96028Y67056D01*
X88910Y67056D02*
X96028Y74174D01*
X96028Y75954D01*
X94249Y77733D01*
X90689Y77733D01*
X88910Y75954D01*
X100604Y77733D02*
X100604Y70615D01*
X104163Y67056D01*
X107722Y70615D01*
X107722Y77733D01*
D11*
X290461Y295407D02*
X289317Y296551D01*
X287029Y296551D01*
X285885Y295407D01*
X285885Y290831D01*
X287029Y289687D01*
X289317Y289687D01*
X290461Y290831D01*
X293369Y289687D02*
X293369Y296551D01*
X293369Y289687D02*
X297945Y289687D01*
X300853Y289687D02*
X300853Y296551D01*
X300853Y291975D02*
X305429Y296551D01*
X301997Y293119D02*
X305429Y289687D01*
X308337Y288543D02*
X312913Y288543D01*
X315821Y289687D02*
X318109Y289687D01*
X316965Y289687D02*
X316965Y296551D01*
X315821Y296551D02*
X318109Y296551D01*
X320811Y296551D02*
X320811Y289687D01*
X325387Y289687D02*
X320811Y296551D01*
X325387Y296551D02*
X325387Y289687D01*
X310418Y318267D02*
X309274Y319411D01*
X306987Y319411D01*
X305843Y318267D01*
X305843Y313691D01*
X306987Y312547D01*
X309274Y312547D01*
X310418Y313691D01*
X310418Y315979D01*
X308130Y315979D01*
X313327Y312547D02*
X313327Y319411D01*
X317903Y312547D01*
X317903Y319411D01*
X320811Y319411D02*
X320811Y312547D01*
X324243Y312547D01*
X325387Y313691D01*
X325387Y318267D01*
X324243Y319411D01*
X320811Y319411D01*
X315615Y219081D02*
X315615Y212217D01*
X313327Y219081D02*
X317903Y219081D01*
X320811Y219081D02*
X325387Y212217D01*
X320811Y212217D02*
X325387Y219081D01*
X313327Y249047D02*
X313327Y255911D01*
X316759Y255911D01*
X317903Y254767D01*
X317903Y252479D01*
X316759Y251335D01*
X313327Y251335D01*
X315615Y251335D02*
X317903Y249047D01*
X320811Y255911D02*
X325387Y249047D01*
X320811Y249047D02*
X325387Y255911D01*
X288173Y186061D02*
X285885Y183773D01*
X288173Y186061D02*
X288173Y179197D01*
X285885Y179197D02*
X290461Y179197D01*
X293369Y179197D02*
X297945Y179197D01*
X293369Y179197D02*
X297945Y183773D01*
X297945Y184917D01*
X296801Y186061D01*
X294513Y186061D01*
X293369Y184917D01*
X300853Y186061D02*
X300853Y181485D01*
X303141Y179197D01*
X305429Y181485D01*
X305429Y186061D01*
X308337Y178053D02*
X312913Y178053D01*
X315821Y179197D02*
X318109Y179197D01*
X316965Y179197D02*
X316965Y186061D01*
X315821Y186061D02*
X318109Y186061D01*
X320811Y186061D02*
X320811Y179197D01*
X325387Y179197D02*
X320811Y186061D01*
X325387Y186061D02*
X325387Y179197D01*
D12*
X216281Y47424D02*
X216281Y37425D01*
X216281Y47424D02*
X218781Y49924D01*
X223780Y49924D01*
X226280Y47424D01*
X226280Y37425D01*
X223780Y34925D01*
X218781Y34925D01*
X216281Y37425D01*
X226280Y47424D01*
X382905Y51528D02*
X387905Y56528D01*
X387905Y41529D01*
X392904Y41529D02*
X382905Y41529D01*
D11*
X63883Y5715D02*
X61595Y10291D01*
X66171Y10291D02*
X63883Y5715D01*
X69079Y10291D02*
X71367Y12579D01*
X71367Y5715D01*
X69079Y5715D02*
X73655Y5715D01*
X76563Y5715D02*
X76563Y6859D01*
X77707Y6859D01*
X77707Y5715D01*
X76563Y5715D01*
X80305Y6859D02*
X80305Y11435D01*
X81449Y12579D01*
X83737Y12579D01*
X84881Y11435D01*
X84881Y6859D01*
X83737Y5715D01*
X81449Y5715D01*
X80305Y6859D01*
X84881Y11435D01*
D13*
X120560Y442220D03*
D10*
X111560Y432470D02*
X213560Y432470D01*
X213560Y484470D01*
X111560Y484470D01*
X111560Y432470D01*
D11*
X187456Y402107D02*
X189744Y402107D01*
X188600Y402107D02*
X188600Y408971D01*
X187456Y408971D02*
X189744Y408971D01*
X195878Y408971D02*
X197022Y407827D01*
X195878Y408971D02*
X193590Y408971D01*
X192446Y407827D01*
X192446Y403251D01*
X193590Y402107D01*
X195878Y402107D01*
X197022Y403251D01*
X199930Y406683D02*
X202218Y408971D01*
X202218Y402107D01*
X199930Y402107D02*
X204506Y402107D01*
X412460Y437450D02*
X432460Y437450D01*
X432460Y527450D01*
X412460Y527450D01*
X390460Y437450D02*
X359460Y437450D01*
X359460Y527450D02*
X390460Y527450D01*
X396537Y489671D02*
X401113Y482807D01*
X396537Y482807D02*
X401113Y489671D01*
X404021Y488527D02*
X405165Y489671D01*
X407453Y489671D01*
X408597Y488527D01*
X408597Y487383D01*
X407453Y486239D01*
X406309Y486239D01*
X407453Y486239D02*
X408597Y485095D01*
X408597Y483951D01*
X407453Y482807D01*
X405165Y482807D01*
X404021Y483951D01*
X339875Y427465D02*
X339875Y421745D01*
X341019Y420601D01*
X343307Y420601D01*
X344451Y421745D01*
X344451Y427465D01*
X350791Y427465D02*
X351935Y426321D01*
X350791Y427465D02*
X348503Y427465D01*
X347359Y426321D01*
X347359Y425177D01*
X348503Y424033D01*
X350791Y424033D01*
X351935Y422889D01*
X351935Y421745D01*
X350791Y420601D01*
X348503Y420601D01*
X347359Y421745D01*
X354843Y420601D02*
X354843Y427465D01*
X358275Y427465D01*
X359419Y426321D01*
X359419Y425177D01*
X358275Y424033D01*
X359419Y422889D01*
X359419Y421745D01*
X358275Y420601D01*
X354843Y420601D01*
X354843Y424033D02*
X358275Y424033D01*
X362327Y419457D02*
X366903Y419457D01*
X369812Y420601D02*
X369812Y427465D01*
X372099Y425177D01*
X374387Y427465D01*
X374387Y420601D01*
X377296Y420601D02*
X379584Y420601D01*
X378440Y420601D02*
X378440Y427465D01*
X377296Y427465D02*
X379584Y427465D01*
X382285Y427465D02*
X382285Y420601D01*
X386861Y420601D02*
X382285Y427465D01*
X386861Y427465D02*
X386861Y420601D01*
X389769Y420601D02*
X392057Y420601D01*
X390913Y420601D02*
X390913Y427465D01*
X389769Y427465D02*
X392057Y427465D01*
X394759Y419457D02*
X399335Y419457D01*
X402243Y420601D02*
X402243Y427465D01*
X405675Y427465D01*
X406819Y426321D01*
X406819Y425177D01*
X405675Y424033D01*
X406819Y422889D01*
X406819Y421745D01*
X405675Y420601D01*
X402243Y420601D01*
X402243Y424033D02*
X405675Y424033D01*
D14*
X268372Y334922D02*
X262022Y328572D01*
X268372Y347622D02*
X262022Y353972D01*
X268372Y360322D01*
X268372Y373022D02*
X262022Y379372D01*
X262022Y328572D02*
X223922Y328572D01*
X217572Y334922D01*
X217572Y347622D01*
X223922Y353972D01*
X217572Y360322D01*
X217572Y373022D01*
X223922Y379372D01*
X223922Y353972D02*
X262022Y353972D01*
X262022Y379372D02*
X223922Y379372D01*
X268372Y373022D02*
X268372Y360322D01*
X268372Y347622D02*
X268372Y334922D01*
X262022Y379372D02*
X268372Y385722D01*
X268372Y398422D02*
X262022Y404772D01*
X223922Y379372D02*
X217572Y385722D01*
X217572Y398422D01*
X223922Y404772D01*
X262022Y404772D01*
X268372Y398422D02*
X268372Y385722D01*
D11*
X209651Y334398D02*
X208507Y333254D01*
X208507Y330967D01*
X209651Y329823D01*
X210795Y329823D01*
X211939Y330967D01*
X211939Y333254D01*
X213083Y334398D01*
X214227Y334398D01*
X215371Y333254D01*
X215371Y330967D01*
X214227Y329823D01*
X213083Y337307D02*
X208507Y337307D01*
X213083Y337307D02*
X215371Y339595D01*
X213083Y341883D01*
X208507Y341883D01*
X215371Y344791D02*
X215371Y349367D01*
X215371Y344791D02*
X210795Y349367D01*
X209651Y349367D01*
X208507Y348223D01*
X208507Y345935D01*
X209651Y344791D01*
X222670Y288047D02*
X222670Y281183D01*
X222670Y288047D02*
X226102Y288047D01*
X227246Y286903D01*
X227246Y284615D01*
X226102Y283471D01*
X222670Y283471D01*
X224958Y283471D02*
X227246Y281183D01*
X230154Y286903D02*
X231298Y288047D01*
X233586Y288047D01*
X234730Y286903D01*
X234730Y285759D01*
X233586Y284615D01*
X232442Y284615D01*
X233586Y284615D02*
X234730Y283471D01*
X234730Y282327D01*
X233586Y281183D01*
X231298Y281183D01*
X230154Y282327D01*
X241070Y281183D02*
X241070Y288047D01*
X237638Y284615D01*
X242214Y284615D01*
X256857Y230926D02*
X255713Y229782D01*
X255713Y227495D01*
X256857Y226351D01*
X261433Y226351D01*
X262577Y227495D01*
X262577Y229782D01*
X261433Y230926D01*
X262577Y233835D02*
X262577Y238411D01*
X262577Y233835D02*
X258001Y238411D01*
X256857Y238411D01*
X255713Y237267D01*
X255713Y234979D01*
X256857Y233835D01*
X256857Y243607D02*
X255713Y245895D01*
X256857Y243607D02*
X259145Y241319D01*
X261433Y241319D01*
X262577Y242463D01*
X262577Y244751D01*
X261433Y245895D01*
X260289Y245895D01*
X259145Y244751D01*
X259145Y241319D01*
X162878Y314897D02*
X161734Y316041D01*
X159447Y316041D01*
X158303Y314897D01*
X158303Y310321D01*
X159447Y309177D01*
X161734Y309177D01*
X162878Y310321D01*
X165787Y309177D02*
X170363Y309177D01*
X165787Y309177D02*
X170363Y313753D01*
X170363Y314897D01*
X169219Y316041D01*
X166931Y316041D01*
X165787Y314897D01*
X173271Y316041D02*
X177847Y316041D01*
X177847Y314897D01*
X173271Y310321D01*
X173271Y309177D01*
X188611Y101237D02*
X187467Y100093D01*
X187467Y97805D01*
X188611Y96661D01*
X193187Y96661D01*
X194331Y97805D01*
X194331Y100093D01*
X193187Y101237D01*
X194331Y104145D02*
X194331Y108721D01*
X194331Y104145D02*
X189755Y108721D01*
X188611Y108721D01*
X187467Y107577D01*
X187467Y105289D01*
X188611Y104145D01*
X188611Y111629D02*
X187467Y112773D01*
X187467Y115061D01*
X188611Y116205D01*
X189755Y116205D01*
X190899Y115061D01*
X192043Y116205D01*
X193187Y116205D01*
X194331Y115061D01*
X194331Y112773D01*
X193187Y111629D01*
X192043Y111629D01*
X190899Y112773D01*
X189755Y111629D01*
X188611Y111629D01*
X190899Y112773D02*
X190899Y115061D01*
X180610Y379159D02*
X179466Y380303D01*
X177179Y380303D01*
X176035Y379159D01*
X176035Y374583D01*
X177179Y373439D01*
X179466Y373439D01*
X180610Y374583D01*
X183519Y373439D02*
X188095Y373439D01*
X183519Y373439D02*
X188095Y378015D01*
X188095Y379159D01*
X186951Y380303D01*
X184663Y380303D01*
X183519Y379159D01*
X191003Y380303D02*
X195579Y380303D01*
X191003Y380303D02*
X191003Y376871D01*
X193291Y378015D01*
X194435Y378015D01*
X195579Y376871D01*
X195579Y374583D01*
X194435Y373439D01*
X192147Y373439D01*
X191003Y374583D01*
X94081Y178536D02*
X92937Y177392D01*
X92937Y175105D01*
X94081Y173961D01*
X98657Y173961D01*
X99801Y175105D01*
X99801Y177392D01*
X98657Y178536D01*
X99801Y181445D02*
X99801Y186021D01*
X99801Y181445D02*
X95225Y186021D01*
X94081Y186021D01*
X92937Y184877D01*
X92937Y182589D01*
X94081Y181445D01*
X98657Y188929D02*
X99801Y190073D01*
X99801Y192361D01*
X98657Y193505D01*
X94081Y193505D01*
X92937Y192361D01*
X92937Y190073D01*
X94081Y188929D01*
X95225Y188929D01*
X96369Y190073D01*
X96369Y193505D01*
D10*
X131070Y247200D02*
X135070Y251200D01*
X223070Y251200D01*
X227070Y247200D01*
X227070Y159200D01*
X223070Y155200D01*
X135070Y155200D01*
X131070Y159200D01*
X131070Y247200D01*
D15*
X136243Y243200D02*
X136245Y243306D01*
X136251Y243411D01*
X136261Y243517D01*
X136275Y243621D01*
X136292Y243726D01*
X136314Y243829D01*
X136339Y243932D01*
X136369Y244033D01*
X136402Y244134D01*
X136438Y244233D01*
X136479Y244330D01*
X136523Y244427D01*
X136571Y244521D01*
X136622Y244614D01*
X136676Y244704D01*
X136734Y244793D01*
X136795Y244879D01*
X136860Y244963D01*
X136927Y245044D01*
X136998Y245123D01*
X137071Y245199D01*
X137147Y245272D01*
X137226Y245343D01*
X137307Y245410D01*
X137391Y245475D01*
X137477Y245536D01*
X137566Y245594D01*
X137657Y245648D01*
X137749Y245699D01*
X137843Y245747D01*
X137940Y245791D01*
X138037Y245832D01*
X138136Y245868D01*
X138237Y245901D01*
X138338Y245931D01*
X138441Y245956D01*
X138544Y245978D01*
X138649Y245995D01*
X138753Y246009D01*
X138859Y246019D01*
X138964Y246025D01*
X139070Y246027D01*
X139176Y246025D01*
X139281Y246019D01*
X139387Y246009D01*
X139491Y245995D01*
X139596Y245978D01*
X139699Y245956D01*
X139802Y245931D01*
X139903Y245901D01*
X140004Y245868D01*
X140103Y245832D01*
X140200Y245791D01*
X140297Y245747D01*
X140391Y245699D01*
X140484Y245648D01*
X140574Y245594D01*
X140663Y245536D01*
X140749Y245475D01*
X140833Y245410D01*
X140914Y245343D01*
X140993Y245272D01*
X141069Y245199D01*
X141142Y245123D01*
X141213Y245044D01*
X141280Y244963D01*
X141345Y244879D01*
X141406Y244793D01*
X141464Y244704D01*
X141518Y244613D01*
X141569Y244521D01*
X141617Y244427D01*
X141661Y244330D01*
X141702Y244233D01*
X141738Y244134D01*
X141771Y244033D01*
X141801Y243932D01*
X141826Y243829D01*
X141848Y243726D01*
X141865Y243621D01*
X141879Y243517D01*
X141889Y243411D01*
X141895Y243306D01*
X141897Y243200D01*
X141895Y243094D01*
X141889Y242989D01*
X141879Y242883D01*
X141865Y242779D01*
X141848Y242674D01*
X141826Y242571D01*
X141801Y242468D01*
X141771Y242367D01*
X141738Y242266D01*
X141702Y242167D01*
X141661Y242070D01*
X141617Y241973D01*
X141569Y241879D01*
X141518Y241786D01*
X141464Y241696D01*
X141406Y241607D01*
X141345Y241521D01*
X141280Y241437D01*
X141213Y241356D01*
X141142Y241277D01*
X141069Y241201D01*
X140993Y241128D01*
X140914Y241057D01*
X140833Y240990D01*
X140749Y240925D01*
X140663Y240864D01*
X140574Y240806D01*
X140483Y240752D01*
X140391Y240701D01*
X140297Y240653D01*
X140200Y240609D01*
X140103Y240568D01*
X140004Y240532D01*
X139903Y240499D01*
X139802Y240469D01*
X139699Y240444D01*
X139596Y240422D01*
X139491Y240405D01*
X139387Y240391D01*
X139281Y240381D01*
X139176Y240375D01*
X139070Y240373D01*
X138964Y240375D01*
X138859Y240381D01*
X138753Y240391D01*
X138649Y240405D01*
X138544Y240422D01*
X138441Y240444D01*
X138338Y240469D01*
X138237Y240499D01*
X138136Y240532D01*
X138037Y240568D01*
X137940Y240609D01*
X137843Y240653D01*
X137749Y240701D01*
X137656Y240752D01*
X137566Y240806D01*
X137477Y240864D01*
X137391Y240925D01*
X137307Y240990D01*
X137226Y241057D01*
X137147Y241128D01*
X137071Y241201D01*
X136998Y241277D01*
X136927Y241356D01*
X136860Y241437D01*
X136795Y241521D01*
X136734Y241607D01*
X136676Y241696D01*
X136622Y241787D01*
X136571Y241879D01*
X136523Y241973D01*
X136479Y242070D01*
X136438Y242167D01*
X136402Y242266D01*
X136369Y242367D01*
X136339Y242468D01*
X136314Y242571D01*
X136292Y242674D01*
X136275Y242779D01*
X136261Y242883D01*
X136251Y242989D01*
X136245Y243094D01*
X136243Y243200D01*
D11*
X229287Y253351D02*
X231575Y253351D01*
X230431Y253351D02*
X230431Y260215D01*
X229287Y260215D02*
X231575Y260215D01*
X237708Y260215D02*
X238852Y259071D01*
X237708Y260215D02*
X235420Y260215D01*
X234276Y259071D01*
X234276Y254495D01*
X235420Y253351D01*
X237708Y253351D01*
X238852Y254495D01*
X241761Y259071D02*
X242905Y260215D01*
X245193Y260215D01*
X246337Y259071D01*
X246337Y257927D01*
X245193Y256783D01*
X246337Y255639D01*
X246337Y254495D01*
X245193Y253351D01*
X242905Y253351D01*
X241761Y254495D01*
X241761Y255639D01*
X242905Y256783D01*
X241761Y257927D01*
X241761Y259071D01*
X242905Y256783D02*
X245193Y256783D01*
X203123Y530007D02*
X204267Y531151D01*
X203123Y530007D02*
X203123Y527719D01*
X204267Y526575D01*
X208843Y526575D01*
X209987Y527719D01*
X209987Y530007D01*
X208843Y531151D01*
X203123Y534059D02*
X203123Y538635D01*
X204267Y538635D01*
X208843Y534059D01*
X209987Y534059D01*
X151181Y538771D02*
X150037Y537627D01*
X150037Y535339D01*
X151181Y534195D01*
X155757Y534195D01*
X156901Y535339D01*
X156901Y537627D01*
X155757Y538771D01*
X150037Y541679D02*
X150037Y546255D01*
X150037Y541679D02*
X153469Y541679D01*
X152325Y543967D01*
X152325Y545111D01*
X153469Y546255D01*
X155757Y546255D01*
X156901Y545111D01*
X156901Y542823D01*
X155757Y541679D01*
X250633Y406721D02*
X251777Y405577D01*
X250633Y406721D02*
X248345Y406721D01*
X247201Y405577D01*
X247201Y401001D01*
X248345Y399857D01*
X250633Y399857D01*
X251777Y401001D01*
X254685Y405577D02*
X255829Y406721D01*
X258117Y406721D01*
X259261Y405577D01*
X259261Y404433D01*
X258117Y403289D01*
X259261Y402145D01*
X259261Y401001D01*
X258117Y399857D01*
X255829Y399857D01*
X254685Y401001D01*
X254685Y402145D01*
X255829Y403289D01*
X254685Y404433D01*
X254685Y405577D01*
X255829Y403289D02*
X258117Y403289D01*
X134563Y399195D02*
X133419Y400339D01*
X131131Y400339D01*
X129987Y399195D01*
X129987Y394619D01*
X131131Y393475D01*
X133419Y393475D01*
X134563Y394619D01*
X137471Y394619D02*
X138615Y393475D01*
X140903Y393475D01*
X142047Y394619D01*
X142047Y399195D01*
X140903Y400339D01*
X138615Y400339D01*
X137471Y399195D01*
X137471Y398051D01*
X138615Y396907D01*
X142047Y396907D01*
X321069Y428783D02*
X322213Y429927D01*
X321069Y428783D02*
X321069Y426495D01*
X322213Y425351D01*
X326789Y425351D01*
X327933Y426495D01*
X327933Y428783D01*
X326789Y429927D01*
X322213Y432835D02*
X321069Y433979D01*
X321069Y436267D01*
X322213Y437411D01*
X323357Y437411D01*
X324501Y436267D01*
X324501Y435123D01*
X324501Y436267D02*
X325645Y437411D01*
X326789Y437411D01*
X327933Y436267D01*
X327933Y433979D01*
X326789Y432835D01*
X235523Y460539D02*
X234379Y459395D01*
X234379Y457107D01*
X235523Y455963D01*
X240099Y455963D01*
X241243Y457107D01*
X241243Y459395D01*
X240099Y460539D01*
X241243Y466879D02*
X234379Y466879D01*
X237811Y463447D01*
X237811Y468023D01*
X234633Y515227D02*
X235777Y516371D01*
X234633Y515227D02*
X234633Y512939D01*
X235777Y511795D01*
X240353Y511795D01*
X241497Y512939D01*
X241497Y515227D01*
X240353Y516371D01*
X235777Y521567D02*
X234633Y523855D01*
X235777Y521567D02*
X238065Y519279D01*
X240353Y519279D01*
X241497Y520423D01*
X241497Y522711D01*
X240353Y523855D01*
X239209Y523855D01*
X238065Y522711D01*
X238065Y519279D01*
X248735Y438085D02*
X255599Y438085D01*
X255599Y442661D01*
X251023Y445569D02*
X248735Y447857D01*
X255599Y447857D01*
X255599Y445569D02*
X255599Y450145D01*
X323675Y544172D02*
X322531Y545316D01*
X320243Y545316D01*
X319099Y544172D01*
X319099Y539596D01*
X320243Y538452D01*
X322531Y538452D01*
X323675Y539596D01*
X326583Y538452D02*
X331159Y538452D01*
X326583Y538452D02*
X331159Y543028D01*
X331159Y544172D01*
X330015Y545316D01*
X327727Y545316D01*
X326583Y544172D01*
X184785Y550631D02*
X184785Y557495D01*
X188217Y557495D01*
X189361Y556351D01*
X189361Y554063D01*
X188217Y552919D01*
X184785Y552919D01*
X187073Y552919D02*
X189361Y550631D01*
X192269Y555207D02*
X194557Y557495D01*
X194557Y550631D01*
X192269Y550631D02*
X196845Y550631D01*
X199753Y556351D02*
X200897Y557495D01*
X203185Y557495D01*
X204329Y556351D01*
X204329Y555207D01*
X203185Y554063D01*
X204329Y552919D01*
X204329Y551775D01*
X203185Y550631D01*
X200897Y550631D01*
X199753Y551775D01*
X199753Y552919D01*
X200897Y554063D01*
X199753Y555207D01*
X199753Y556351D01*
X200897Y554063D02*
X203185Y554063D01*
X370763Y552410D02*
X370763Y559274D01*
X374195Y559274D01*
X375339Y558130D01*
X375339Y555842D01*
X374195Y554698D01*
X370763Y554698D01*
X373051Y554698D02*
X375339Y552410D01*
X378247Y558130D02*
X379391Y559274D01*
X381679Y559274D01*
X382823Y558130D01*
X382823Y556986D01*
X381679Y555842D01*
X380535Y555842D01*
X381679Y555842D02*
X382823Y554698D01*
X382823Y553554D01*
X381679Y552410D01*
X379391Y552410D01*
X378247Y553554D01*
D15*
X196904Y337042D02*
X196904Y335042D01*
X171904Y335042D02*
X171904Y337042D01*
D16*
X176404Y358042D03*
D11*
X156959Y334019D02*
X156959Y331731D01*
X158103Y330587D01*
X162679Y330587D01*
X163823Y331731D01*
X163823Y334019D01*
X162679Y335163D01*
X158103Y335163D01*
X156959Y334019D01*
X156959Y341503D02*
X158103Y342647D01*
X156959Y341503D02*
X156959Y339215D01*
X158103Y338071D01*
X159247Y338071D01*
X160391Y339215D01*
X160391Y341503D01*
X161535Y342647D01*
X162679Y342647D01*
X163823Y341503D01*
X163823Y339215D01*
X162679Y338071D01*
X156959Y348987D02*
X158103Y350131D01*
X156959Y348987D02*
X156959Y346699D01*
X158103Y345555D01*
X162679Y345555D01*
X163823Y346699D01*
X163823Y348987D01*
X162679Y350131D01*
X159247Y353039D02*
X156959Y355327D01*
X163823Y355327D01*
X163823Y353039D02*
X163823Y357615D01*
X269497Y322459D02*
X270641Y321315D01*
X269497Y322459D02*
X267209Y322459D01*
X266065Y321315D01*
X266065Y316739D01*
X267209Y315595D01*
X269497Y315595D01*
X270641Y316739D01*
X273549Y320171D02*
X275837Y322459D01*
X275837Y315595D01*
X273549Y315595D02*
X278125Y315595D01*
X281033Y320171D02*
X283321Y322459D01*
X283321Y315595D01*
X281033Y315595D02*
X285609Y315595D01*
D14*
X315220Y336360D02*
X315220Y351980D01*
X286770Y351980D02*
X286770Y336360D01*
D11*
X307340Y345440D02*
X307342Y345540D01*
X307348Y345641D01*
X307358Y345740D01*
X307372Y345840D01*
X307389Y345939D01*
X307411Y346037D01*
X307437Y346134D01*
X307466Y346230D01*
X307499Y346324D01*
X307536Y346418D01*
X307576Y346510D01*
X307620Y346600D01*
X307668Y346688D01*
X307719Y346775D01*
X307773Y346859D01*
X307831Y346941D01*
X307892Y347021D01*
X307956Y347098D01*
X308023Y347173D01*
X308093Y347245D01*
X308166Y347314D01*
X308241Y347380D01*
X308319Y347444D01*
X308399Y347504D01*
X308482Y347561D01*
X308567Y347614D01*
X308654Y347664D01*
X308743Y347711D01*
X308833Y347754D01*
X308925Y347794D01*
X309019Y347830D01*
X309114Y347862D01*
X309210Y347890D01*
X309308Y347915D01*
X309406Y347935D01*
X309505Y347952D01*
X309605Y347965D01*
X309704Y347974D01*
X309805Y347979D01*
X309905Y347980D01*
X310005Y347977D01*
X310106Y347970D01*
X310205Y347959D01*
X310305Y347944D01*
X310403Y347926D01*
X310501Y347903D01*
X310598Y347876D01*
X310693Y347846D01*
X310788Y347812D01*
X310881Y347774D01*
X310972Y347733D01*
X311062Y347688D01*
X311150Y347640D01*
X311236Y347588D01*
X311320Y347533D01*
X311401Y347474D01*
X311480Y347412D01*
X311557Y347348D01*
X311631Y347280D01*
X311702Y347209D01*
X311771Y347136D01*
X311836Y347060D01*
X311899Y346981D01*
X311958Y346900D01*
X312014Y346817D01*
X312067Y346732D01*
X312116Y346644D01*
X312162Y346555D01*
X312204Y346464D01*
X312243Y346371D01*
X312278Y346277D01*
X312309Y346182D01*
X312337Y346085D01*
X312360Y345988D01*
X312380Y345889D01*
X312396Y345790D01*
X312408Y345691D01*
X312416Y345590D01*
X312420Y345490D01*
X312420Y345390D01*
X312416Y345290D01*
X312408Y345189D01*
X312396Y345090D01*
X312380Y344991D01*
X312360Y344892D01*
X312337Y344795D01*
X312309Y344698D01*
X312278Y344603D01*
X312243Y344509D01*
X312204Y344416D01*
X312162Y344325D01*
X312116Y344236D01*
X312067Y344148D01*
X312014Y344063D01*
X311958Y343980D01*
X311899Y343899D01*
X311836Y343820D01*
X311771Y343744D01*
X311702Y343671D01*
X311631Y343600D01*
X311557Y343532D01*
X311480Y343468D01*
X311401Y343406D01*
X311320Y343347D01*
X311236Y343292D01*
X311150Y343240D01*
X311062Y343192D01*
X310972Y343147D01*
X310881Y343106D01*
X310788Y343068D01*
X310693Y343034D01*
X310598Y343004D01*
X310501Y342977D01*
X310403Y342954D01*
X310305Y342936D01*
X310205Y342921D01*
X310106Y342910D01*
X310005Y342903D01*
X309905Y342900D01*
X309805Y342901D01*
X309704Y342906D01*
X309605Y342915D01*
X309505Y342928D01*
X309406Y342945D01*
X309308Y342965D01*
X309210Y342990D01*
X309114Y343018D01*
X309019Y343050D01*
X308925Y343086D01*
X308833Y343126D01*
X308743Y343169D01*
X308654Y343216D01*
X308567Y343266D01*
X308482Y343319D01*
X308399Y343376D01*
X308319Y343436D01*
X308241Y343500D01*
X308166Y343566D01*
X308093Y343635D01*
X308023Y343707D01*
X307956Y343782D01*
X307892Y343859D01*
X307831Y343939D01*
X307773Y344021D01*
X307719Y344105D01*
X307668Y344192D01*
X307620Y344280D01*
X307576Y344370D01*
X307536Y344462D01*
X307499Y344556D01*
X307466Y344650D01*
X307437Y344746D01*
X307411Y344843D01*
X307389Y344941D01*
X307372Y345040D01*
X307358Y345140D01*
X307348Y345239D01*
X307342Y345340D01*
X307340Y345440D01*
X282573Y337695D02*
X282573Y335407D01*
X282573Y336551D02*
X275709Y336551D01*
X275709Y335407D02*
X275709Y337695D01*
X275709Y343828D02*
X276853Y344972D01*
X275709Y343828D02*
X275709Y341540D01*
X276853Y340396D01*
X281429Y340396D01*
X282573Y341540D01*
X282573Y343828D01*
X281429Y344972D01*
X276853Y347881D02*
X275709Y349025D01*
X275709Y351313D01*
X276853Y352457D01*
X277997Y352457D01*
X279141Y351313D01*
X279141Y350169D01*
X279141Y351313D02*
X280285Y352457D01*
X281429Y352457D01*
X282573Y351313D01*
X282573Y349025D01*
X281429Y347881D01*
X326928Y400817D02*
X325784Y401961D01*
X323497Y401961D01*
X322353Y400817D01*
X322353Y396241D01*
X323497Y395097D01*
X325784Y395097D01*
X326928Y396241D01*
X329837Y399673D02*
X332125Y401961D01*
X332125Y395097D01*
X329837Y395097D02*
X334413Y395097D01*
X337321Y396241D02*
X337321Y400817D01*
X338465Y401961D01*
X340753Y401961D01*
X341897Y400817D01*
X341897Y396241D01*
X340753Y395097D01*
X338465Y395097D01*
X337321Y396241D01*
X341897Y400817D01*
X302763Y258957D02*
X301619Y257813D01*
X301619Y255525D01*
X302763Y254381D01*
X307339Y254381D01*
X308483Y255525D01*
X308483Y257813D01*
X307339Y258957D01*
X303907Y261865D02*
X301619Y264153D01*
X308483Y264153D01*
X308483Y261865D02*
X308483Y266441D01*
X308483Y269349D02*
X308483Y273925D01*
X308483Y269349D02*
X303907Y273925D01*
X302763Y273925D01*
X301619Y272781D01*
X301619Y270493D01*
X302763Y269349D01*
D15*
X67310Y304800D02*
X67310Y381000D01*
X67310Y304800D02*
X48260Y304800D01*
X3810Y304800D01*
X3810Y381000D01*
X48260Y381000D01*
X67310Y381000D01*
X48260Y381000D02*
X48260Y304800D01*
D11*
X3697Y385107D02*
X3697Y391971D01*
X3697Y385107D02*
X8273Y385107D01*
X11181Y385107D02*
X13469Y385107D01*
X12325Y385107D02*
X12325Y391971D01*
X11181Y391971D02*
X13469Y391971D01*
X19603Y391971D02*
X20747Y390827D01*
X19603Y391971D02*
X17315Y391971D01*
X16171Y390827D01*
X16171Y386251D01*
X17315Y385107D01*
X19603Y385107D01*
X20747Y386251D01*
X23655Y385107D02*
X23655Y391971D01*
X23655Y387395D02*
X28231Y391971D01*
X24799Y388539D02*
X28231Y385107D01*
X31139Y383963D02*
X35715Y383963D01*
X38623Y386251D02*
X38623Y390827D01*
X39767Y391971D01*
X42055Y391971D01*
X43199Y390827D01*
X43199Y386251D01*
X42055Y385107D01*
X39767Y385107D01*
X38623Y386251D01*
X43199Y390827D01*
D15*
X67310Y271780D02*
X67310Y195580D01*
X48260Y195580D01*
X3810Y195580D01*
X3810Y271780D01*
X48260Y271780D01*
X67310Y271780D01*
X48260Y271780D02*
X48260Y195580D01*
D11*
X3333Y275865D02*
X3333Y282729D01*
X3333Y275865D02*
X7909Y275865D01*
X10817Y275865D02*
X13105Y275865D01*
X11961Y275865D02*
X11961Y282729D01*
X10817Y282729D02*
X13105Y282729D01*
X19239Y282729D02*
X20383Y281585D01*
X19239Y282729D02*
X16951Y282729D01*
X15807Y281585D01*
X15807Y277009D01*
X16951Y275865D01*
X19239Y275865D01*
X20383Y277009D01*
X23291Y275865D02*
X23291Y282729D01*
X23291Y278153D02*
X27867Y282729D01*
X24435Y279297D02*
X27867Y275865D01*
X30775Y274721D02*
X35351Y274721D01*
X38259Y280441D02*
X40547Y282729D01*
X40547Y275865D01*
X38259Y275865D02*
X42835Y275865D01*
X273440Y493790D02*
X290440Y493790D01*
X289940Y463790D02*
X273440Y463790D01*
X268204Y495790D02*
X268206Y495884D01*
X268212Y495978D01*
X268222Y496072D01*
X268236Y496165D01*
X268254Y496258D01*
X268275Y496350D01*
X268301Y496440D01*
X268330Y496530D01*
X268363Y496618D01*
X268400Y496705D01*
X268440Y496790D01*
X268484Y496874D01*
X268532Y496955D01*
X268582Y497035D01*
X268637Y497112D01*
X268694Y497187D01*
X268754Y497259D01*
X268818Y497329D01*
X268884Y497396D01*
X268953Y497460D01*
X269025Y497521D01*
X269099Y497579D01*
X269176Y497634D01*
X269255Y497686D01*
X269336Y497734D01*
X269419Y497779D01*
X269503Y497820D01*
X269590Y497858D01*
X269678Y497892D01*
X269767Y497922D01*
X269857Y497949D01*
X269949Y497971D01*
X270041Y497990D01*
X270135Y498005D01*
X270228Y498016D01*
X270322Y498023D01*
X270416Y498026D01*
X270511Y498025D01*
X270605Y498020D01*
X270699Y498011D01*
X270792Y497998D01*
X270885Y497981D01*
X270977Y497961D01*
X271068Y497936D01*
X271158Y497908D01*
X271246Y497876D01*
X271334Y497840D01*
X271419Y497800D01*
X271503Y497757D01*
X271585Y497711D01*
X271665Y497661D01*
X271743Y497607D01*
X271818Y497551D01*
X271891Y497491D01*
X271962Y497428D01*
X272029Y497363D01*
X272094Y497294D01*
X272156Y497223D01*
X272215Y497150D01*
X272271Y497074D01*
X272323Y496995D01*
X272372Y496915D01*
X272418Y496832D01*
X272460Y496748D01*
X272499Y496662D01*
X272534Y496574D01*
X272565Y496485D01*
X272593Y496395D01*
X272616Y496304D01*
X272636Y496212D01*
X272652Y496119D01*
X272664Y496025D01*
X272672Y495931D01*
X272676Y495837D01*
X272676Y495743D01*
X272672Y495649D01*
X272664Y495555D01*
X272652Y495461D01*
X272636Y495368D01*
X272616Y495276D01*
X272593Y495185D01*
X272565Y495095D01*
X272534Y495006D01*
X272499Y494918D01*
X272460Y494832D01*
X272418Y494748D01*
X272372Y494665D01*
X272323Y494585D01*
X272271Y494506D01*
X272215Y494430D01*
X272156Y494357D01*
X272094Y494286D01*
X272029Y494217D01*
X271962Y494152D01*
X271891Y494089D01*
X271818Y494029D01*
X271743Y493973D01*
X271665Y493919D01*
X271585Y493869D01*
X271503Y493823D01*
X271419Y493780D01*
X271334Y493740D01*
X271246Y493704D01*
X271158Y493672D01*
X271068Y493644D01*
X270977Y493619D01*
X270885Y493599D01*
X270792Y493582D01*
X270699Y493569D01*
X270605Y493560D01*
X270511Y493555D01*
X270416Y493554D01*
X270322Y493557D01*
X270228Y493564D01*
X270135Y493575D01*
X270041Y493590D01*
X269949Y493609D01*
X269857Y493631D01*
X269767Y493658D01*
X269678Y493688D01*
X269590Y493722D01*
X269503Y493760D01*
X269419Y493801D01*
X269336Y493846D01*
X269255Y493894D01*
X269176Y493946D01*
X269099Y494001D01*
X269025Y494059D01*
X268953Y494120D01*
X268884Y494184D01*
X268818Y494251D01*
X268754Y494321D01*
X268694Y494393D01*
X268637Y494468D01*
X268582Y494545D01*
X268532Y494625D01*
X268484Y494706D01*
X268440Y494790D01*
X268400Y494875D01*
X268363Y494962D01*
X268330Y495050D01*
X268301Y495140D01*
X268275Y495230D01*
X268254Y495322D01*
X268236Y495415D01*
X268222Y495508D01*
X268212Y495602D01*
X268206Y495696D01*
X268204Y495790D01*
X276211Y497773D02*
X278499Y497773D01*
X277355Y497773D02*
X277355Y504637D01*
X276211Y504637D02*
X278499Y504637D01*
X284632Y504637D02*
X285776Y503493D01*
X284632Y504637D02*
X282344Y504637D01*
X281200Y503493D01*
X281200Y498917D01*
X282344Y497773D01*
X284632Y497773D01*
X285776Y498917D01*
X288685Y504637D02*
X293261Y504637D01*
X293261Y503493D01*
X288685Y498917D01*
X288685Y497773D01*
X254381Y272923D02*
X247517Y272923D01*
X254381Y272923D02*
X254381Y277499D01*
X254381Y280407D02*
X254381Y284983D01*
X254381Y280407D02*
X249805Y284983D01*
X248661Y284983D01*
X247517Y283839D01*
X247517Y281551D01*
X248661Y280407D01*
X229532Y324617D02*
X228388Y325761D01*
X226100Y325761D01*
X224956Y324617D01*
X224956Y320041D01*
X226100Y318897D01*
X228388Y318897D01*
X229532Y320041D01*
X232440Y323473D02*
X234728Y325761D01*
X234728Y318897D01*
X232440Y318897D02*
X237016Y318897D01*
X239924Y324617D02*
X241068Y325761D01*
X243356Y325761D01*
X244500Y324617D01*
X244500Y323473D01*
X243356Y322329D01*
X242212Y322329D01*
X243356Y322329D02*
X244500Y321185D01*
X244500Y320041D01*
X243356Y318897D01*
X241068Y318897D01*
X239924Y320041D01*
D15*
X67310Y415290D02*
X67310Y516890D01*
X67310Y415290D02*
X48260Y415290D01*
X3810Y415290D01*
X3810Y516890D01*
X48260Y516890D01*
X67310Y516890D01*
X48260Y516890D02*
X48260Y415290D01*
D11*
X9783Y526801D02*
X8639Y527945D01*
X6351Y527945D01*
X5207Y526801D01*
X5207Y522225D01*
X6351Y521081D01*
X8639Y521081D01*
X9783Y522225D01*
X12691Y521081D02*
X12691Y525657D01*
X14979Y527945D01*
X17267Y525657D01*
X17267Y521081D01*
X17267Y524513D02*
X12691Y524513D01*
X20175Y521081D02*
X20175Y527945D01*
X22463Y525657D01*
X24751Y527945D01*
X24751Y521081D01*
X27659Y519937D02*
X32235Y519937D01*
X37432Y521081D02*
X37432Y527945D01*
X35144Y527945D02*
X39720Y527945D01*
X42628Y527945D02*
X42628Y521081D01*
X42628Y527945D02*
X46060Y527945D01*
X47204Y526801D01*
X47204Y524513D01*
X46060Y523369D01*
X42628Y523369D01*
X44916Y523369D02*
X47204Y521081D01*
X50112Y521081D02*
X52400Y521081D01*
X51256Y521081D02*
X51256Y527945D01*
X50112Y527945D02*
X52400Y527945D01*
X58533Y527945D02*
X59677Y526801D01*
X58533Y527945D02*
X56245Y527945D01*
X55101Y526801D01*
X55101Y522225D01*
X56245Y521081D01*
X58533Y521081D01*
X59677Y522225D01*
X59677Y524513D01*
X57389Y524513D01*
X66017Y527945D02*
X67161Y526801D01*
X66017Y527945D02*
X63730Y527945D01*
X62586Y526801D01*
X62586Y522225D01*
X63730Y521081D01*
X66017Y521081D01*
X67161Y522225D01*
X67161Y524513D01*
X64873Y524513D01*
X70070Y527945D02*
X74646Y527945D01*
X70070Y527945D02*
X70070Y521081D01*
X74646Y521081D01*
X72358Y524513D02*
X70070Y524513D01*
X77554Y521081D02*
X77554Y527945D01*
X80986Y527945D01*
X82130Y526801D01*
X82130Y524513D01*
X80986Y523369D01*
X77554Y523369D01*
X79842Y523369D02*
X82130Y521081D01*
X88470Y527945D02*
X89614Y526801D01*
X88470Y527945D02*
X86182Y527945D01*
X85038Y526801D01*
X85038Y525657D01*
X86182Y524513D01*
X88470Y524513D01*
X89614Y523369D01*
X89614Y522225D01*
X88470Y521081D01*
X86182Y521081D01*
X85038Y522225D01*
D10*
X234830Y138450D02*
X234830Y8870D01*
X234830Y138450D02*
X283330Y138450D01*
X283330Y8870D01*
X234830Y8870D01*
D17*
X290048Y122761D02*
X286632Y126177D01*
X296879Y126177D01*
X296879Y129592D02*
X296879Y122761D01*
X231259Y121011D02*
X231259Y127842D01*
X231259Y121011D02*
X224428Y127842D01*
X222720Y127842D01*
X221012Y126134D01*
X221012Y122719D01*
X222720Y121011D01*
D11*
X256667Y148469D02*
X261243Y141605D01*
X256667Y141605D02*
X261243Y148469D01*
X264151Y146181D02*
X266439Y148469D01*
X266439Y141605D01*
X264151Y141605D02*
X268727Y141605D01*
X96947Y297884D02*
X92093Y293030D01*
X95329Y299501D02*
X98565Y296266D01*
X100621Y294209D02*
X95768Y289356D01*
X100621Y294209D02*
X103048Y291783D01*
X103048Y290165D01*
X101430Y288547D01*
X99812Y288547D01*
X97386Y290974D01*
X103487Y281637D02*
X108340Y286490D01*
X103487Y286490D01*
X106722Y283255D01*
X86070Y142530D02*
X86070Y135666D01*
X83782Y142530D02*
X88358Y142530D01*
X91266Y142530D02*
X91266Y135666D01*
X91266Y142530D02*
X94698Y142530D01*
X95842Y141386D01*
X95842Y139098D01*
X94698Y137954D01*
X91266Y137954D01*
X98750Y141386D02*
X99894Y142530D01*
X102182Y142530D01*
X103326Y141386D01*
X103326Y140242D01*
X102182Y139098D01*
X103326Y137954D01*
X103326Y136810D01*
X102182Y135666D01*
X99894Y135666D01*
X98750Y136810D01*
X98750Y137954D01*
X99894Y139098D01*
X98750Y140242D01*
X98750Y141386D01*
X99894Y139098D02*
X102182Y139098D01*
D15*
X67310Y162560D02*
X67310Y60960D01*
X48260Y60960D01*
X3810Y60960D01*
X3810Y162560D01*
X48260Y162560D01*
X67310Y162560D01*
X48260Y162560D02*
X48260Y60960D01*
D11*
X3175Y168531D02*
X3175Y173107D01*
X3175Y168531D02*
X5463Y166243D01*
X7751Y168531D01*
X7751Y173107D01*
X10659Y170819D02*
X10659Y166243D01*
X10659Y170819D02*
X12947Y173107D01*
X15235Y170819D01*
X15235Y166243D01*
X15235Y169675D02*
X10659Y169675D01*
X18143Y173107D02*
X18143Y166243D01*
X22719Y166243D01*
X25627Y168531D02*
X25627Y173107D01*
X25627Y168531D02*
X27915Y166243D01*
X30203Y168531D01*
X30203Y173107D01*
X33112Y173107D02*
X37688Y173107D01*
X33112Y173107D02*
X33112Y166243D01*
X37688Y166243D01*
X35400Y169675D02*
X33112Y169675D01*
X44028Y173107D02*
X45172Y171963D01*
X44028Y173107D02*
X41740Y173107D01*
X40596Y171963D01*
X40596Y170819D01*
X41740Y169675D01*
X44028Y169675D01*
X45172Y168531D01*
X45172Y167387D01*
X44028Y166243D01*
X41740Y166243D01*
X40596Y167387D01*
D10*
X326270Y138450D02*
X326270Y8870D01*
X326270Y138450D02*
X374770Y138450D01*
X374770Y8870D01*
X326270Y8870D01*
D17*
X381488Y122761D02*
X378072Y126177D01*
X388319Y126177D01*
X388319Y129592D02*
X388319Y122761D01*
X322699Y121011D02*
X322699Y127842D01*
X322699Y121011D02*
X315868Y127842D01*
X314160Y127842D01*
X312452Y126134D01*
X312452Y122719D01*
X314160Y121011D01*
D11*
X350143Y141605D02*
X345567Y148469D01*
X350143Y148469D02*
X345567Y141605D01*
X353051Y141605D02*
X357627Y141605D01*
X353051Y141605D02*
X357627Y146181D01*
X357627Y147325D01*
X356483Y148469D01*
X354195Y148469D01*
X353051Y147325D01*
D18*
X138370Y102640D03*
X130870Y102640D03*
D19*
X134620Y102640D03*
D11*
X121407Y90980D02*
X120263Y89836D01*
X120263Y87548D01*
X121407Y86404D01*
X122551Y86404D01*
X123695Y87548D01*
X123695Y89836D01*
X124839Y90980D01*
X125983Y90980D01*
X127127Y89836D01*
X127127Y87548D01*
X125983Y86404D01*
X127127Y96176D02*
X120263Y96176D01*
X120263Y93888D02*
X120263Y98464D01*
X122551Y101373D02*
X127127Y101373D01*
X122551Y101373D02*
X120263Y103660D01*
X122551Y105948D01*
X127127Y105948D01*
X123695Y105948D02*
X123695Y101373D01*
X127127Y111145D02*
X120263Y111145D01*
X120263Y108857D02*
X120263Y113433D01*
X120263Y116341D02*
X120263Y120917D01*
X120263Y116341D02*
X127127Y116341D01*
X127127Y120917D01*
X123695Y118629D02*
X123695Y116341D01*
X140583Y62865D02*
X147447Y62865D01*
X140583Y62865D02*
X140583Y66297D01*
X141727Y67441D01*
X144015Y67441D01*
X145159Y66297D01*
X145159Y62865D01*
X145159Y65153D02*
X147447Y67441D01*
X142871Y70349D02*
X140583Y72637D01*
X147447Y72637D01*
X147447Y70349D02*
X147447Y74925D01*
X146303Y77833D02*
X141727Y77833D01*
X140583Y78977D01*
X140583Y81265D01*
X141727Y82409D01*
X146303Y82409D01*
X147447Y81265D01*
X147447Y78977D01*
X146303Y77833D01*
X141727Y82409D01*
D10*
X454900Y160500D02*
X454900Y347500D01*
X345900Y347500D01*
X345900Y160500D02*
X454900Y160500D01*
D20*
X437025Y184000D03*
X437025Y219000D03*
X437025Y254000D03*
X437025Y289000D03*
X437025Y324000D03*
D11*
X403783Y155431D02*
X408358Y148567D01*
X403783Y148567D02*
X408358Y155431D01*
X411267Y153143D02*
X413555Y155431D01*
X413555Y148567D01*
X411267Y148567D02*
X415843Y148567D01*
X418751Y155431D02*
X423327Y155431D01*
X418751Y155431D02*
X418751Y151999D01*
X421039Y153143D01*
X422183Y153143D01*
X423327Y151999D01*
X423327Y149711D01*
X422183Y148567D01*
X419895Y148567D01*
X418751Y149711D01*
M02*
