G04 EAGLE Gerber RS-274X export*
G75*
%MOMM*%
%FSLAX34Y34*%
%LPD*%
%INSolderpaste Bottom*%
%IPPOS*%
%AMOC8*
5,1,8,0,0,1.08239X$1,22.5*%
G01*
%ADD10R,0.900000X0.700000*%
%ADD11R,0.990000X0.690000*%
%ADD12R,1.000000X1.400000*%
%ADD13R,0.925000X0.740000*%
%ADD14R,0.740000X0.925000*%
%ADD15R,0.600000X0.550000*%


D10*
X97560Y556188D03*
X97560Y543188D03*
D11*
X119650Y433860D03*
X119650Y424360D03*
X119650Y414860D03*
X93750Y414860D03*
X93750Y433860D03*
X119650Y520220D03*
X119650Y510720D03*
X119650Y501220D03*
X93750Y501220D03*
X93750Y520220D03*
X112666Y234472D03*
X112666Y243972D03*
X112666Y253472D03*
X138566Y253472D03*
X138566Y234472D03*
X112666Y342874D03*
X112666Y352374D03*
X112666Y361874D03*
X138566Y361874D03*
X138566Y342874D03*
D10*
X125910Y556188D03*
X125910Y543188D03*
X101116Y468304D03*
X101116Y455304D03*
X128450Y468304D03*
X128450Y455304D03*
X172458Y158740D03*
X172458Y145740D03*
X172458Y103204D03*
X172458Y90204D03*
D12*
X96732Y83438D03*
X106232Y105438D03*
X87232Y105438D03*
X94700Y140156D03*
X104200Y162156D03*
X85200Y162156D03*
D10*
X82656Y256944D03*
X82656Y243944D03*
X82656Y365572D03*
X82656Y352572D03*
D13*
X138620Y316982D03*
X126620Y316982D03*
D14*
X86106Y456534D03*
X86106Y468534D03*
X81026Y543402D03*
X81026Y555402D03*
D13*
X138588Y208280D03*
X126588Y208280D03*
D15*
X146200Y145182D03*
X133200Y145182D03*
X139700Y163682D03*
X146200Y89810D03*
X133200Y89810D03*
X139700Y108310D03*
M02*
