G04 EAGLE Gerber RS-274X export*
G75*
%MOMM*%
%FSLAX34Y34*%
%LPD*%
%INSoldermask Top*%
%IPPOS*%
%AMOC8*
5,1,8,0,0,1.08239X$1,22.5*%
G01*
%ADD10C,2.353200*%
%ADD11R,0.603200X1.703200*%
%ADD12C,1.203200*%
%ADD13C,2.453200*%
%ADD14R,2.203200X0.703200*%
%ADD15P,1.869504X8X112.500000*%
%ADD16R,0.903200X1.103200*%
%ADD17R,0.943200X1.128200*%
%ADD18R,1.128200X0.943200*%
%ADD19R,1.703200X0.703200*%
%ADD20R,0.703200X1.703200*%
%ADD21R,2.153200X1.703200*%
%ADD22R,1.103200X0.903200*%
%ADD23R,1.203200X1.303200*%
%ADD24R,1.303200X1.103200*%
%ADD25R,1.253200X1.283200*%
%ADD26R,0.803200X1.611200*%
%ADD27C,1.711200*%
%ADD28R,2.203200X0.803200*%
%ADD29P,1.852186X8X292.500000*%
%ADD30C,1.303200*%
%ADD31C,1.473200*%
%ADD32R,1.003200X1.003200*%
%ADD33R,0.903200X0.803200*%
%ADD34C,2.336800*%
%ADD35C,0.959600*%


D10*
X27940Y26670D03*
X27940Y541020D03*
X401320Y26670D03*
X378460Y393700D03*
D11*
X120310Y422220D03*
X126810Y422220D03*
X133310Y422220D03*
X139810Y422220D03*
X146310Y422220D03*
X152810Y422220D03*
X159310Y422220D03*
X165810Y422220D03*
X172310Y422220D03*
X178810Y422220D03*
X185310Y422220D03*
X191810Y422220D03*
X198310Y422220D03*
X204810Y422220D03*
X204810Y494720D03*
X198310Y494720D03*
X191810Y494720D03*
X185310Y494720D03*
X178810Y494720D03*
X172310Y494720D03*
X165810Y494720D03*
X159310Y494720D03*
X152810Y494720D03*
X146310Y494720D03*
X139810Y494720D03*
X133310Y494720D03*
X126810Y494720D03*
X120310Y494720D03*
D12*
X368460Y464950D03*
X368460Y499950D03*
D13*
X401460Y445950D03*
X401460Y518950D03*
X348460Y445950D03*
X348460Y518950D03*
D14*
X345960Y482450D03*
X345960Y474450D03*
X345960Y490450D03*
X345960Y498450D03*
X345960Y466450D03*
D15*
X255672Y341272D03*
X230272Y341272D03*
X255672Y366672D03*
X230272Y366672D03*
X255672Y392072D03*
X230272Y392072D03*
D16*
X247432Y295788D03*
X234432Y295788D03*
D17*
X269934Y232242D03*
X269934Y244242D03*
D18*
X172150Y301938D03*
X160150Y301938D03*
D17*
X202036Y112158D03*
X202036Y100158D03*
D18*
X190644Y366962D03*
X178644Y366962D03*
D17*
X86762Y184236D03*
X86762Y196236D03*
D19*
X121070Y243200D03*
X121070Y235200D03*
X121070Y227200D03*
X121070Y219200D03*
X121070Y211200D03*
X121070Y203200D03*
X121070Y195200D03*
X121070Y187200D03*
X121070Y179200D03*
X121070Y171200D03*
X121070Y163200D03*
D20*
X139070Y145200D03*
X147070Y145200D03*
X155070Y145200D03*
X163070Y145200D03*
X171070Y145200D03*
X179070Y145200D03*
X187070Y145200D03*
X195070Y145200D03*
X203070Y145200D03*
X211070Y145200D03*
X219070Y145200D03*
D19*
X237070Y163200D03*
X237070Y171200D03*
X237070Y179200D03*
X237070Y187200D03*
X237070Y195200D03*
X237070Y203200D03*
X237070Y211200D03*
X237070Y219200D03*
X237070Y227200D03*
X237070Y235200D03*
X237070Y243200D03*
D20*
X219070Y261200D03*
X211070Y261200D03*
X203070Y261200D03*
X195070Y261200D03*
X187070Y261200D03*
X179070Y261200D03*
X171070Y261200D03*
X163070Y261200D03*
X155070Y261200D03*
X147070Y261200D03*
X139070Y261200D03*
D17*
X195890Y527560D03*
X195890Y539560D03*
X164648Y527560D03*
X164648Y539560D03*
D21*
X267270Y418310D03*
X239770Y418310D03*
D16*
X152108Y384254D03*
X139108Y384254D03*
D22*
X312820Y445930D03*
X312820Y432930D03*
D17*
X227260Y469390D03*
X227260Y457390D03*
X227260Y512320D03*
X227260Y524320D03*
D23*
X266390Y443790D03*
X283390Y443790D03*
D18*
X343320Y543905D03*
X355320Y543905D03*
D22*
X179664Y537614D03*
X179664Y524614D03*
D16*
X385390Y545289D03*
X398390Y545289D03*
D24*
X174404Y346542D03*
X174404Y325542D03*
X194404Y325542D03*
X194404Y346542D03*
D25*
X297548Y307340D03*
X280048Y307340D03*
D26*
X310490Y358210D03*
X300990Y358210D03*
X291490Y358210D03*
X291490Y330130D03*
X310490Y330130D03*
D25*
X294018Y398526D03*
X311518Y398526D03*
D18*
X305658Y280162D03*
X317658Y280162D03*
D27*
X43100Y368300D02*
X28020Y368300D01*
X28020Y342900D02*
X43100Y342900D01*
X43100Y317500D02*
X28020Y317500D01*
X28020Y259080D02*
X43100Y259080D01*
X43100Y233680D02*
X28020Y233680D01*
X28020Y208280D02*
X43100Y208280D01*
D28*
X266440Y488290D03*
X266440Y478790D03*
X266440Y469290D03*
X297440Y469290D03*
X297440Y478790D03*
X297440Y488290D03*
D23*
X267852Y279146D03*
X284852Y279146D03*
D18*
X249472Y314452D03*
X237472Y314452D03*
D27*
X43100Y504190D02*
X28020Y504190D01*
X28020Y478790D02*
X43100Y478790D01*
X43100Y453390D02*
X28020Y453390D01*
X28020Y427990D02*
X43100Y427990D01*
D29*
X271780Y124460D03*
X246380Y124460D03*
X271780Y99060D03*
X246380Y99060D03*
X271780Y73660D03*
X246380Y73660D03*
X271780Y48260D03*
X246380Y48260D03*
X271780Y22860D03*
X246380Y22860D03*
D30*
X112776Y276606D03*
X90170Y149860D03*
D27*
X43100Y149860D02*
X28020Y149860D01*
X28020Y124460D02*
X43100Y124460D01*
X43100Y99060D02*
X28020Y99060D01*
X28020Y73660D02*
X43100Y73660D01*
D29*
X363220Y124460D03*
X337820Y124460D03*
X363220Y99060D03*
X337820Y99060D03*
X363220Y73660D03*
X337820Y73660D03*
X363220Y48260D03*
X337820Y48260D03*
X363220Y22860D03*
X337820Y22860D03*
D31*
X334772Y378460D03*
X307594Y227330D03*
X175260Y22860D03*
D32*
X134620Y96640D03*
X134620Y111640D03*
D33*
X134620Y66120D03*
X134620Y76120D03*
D34*
X343232Y184000D02*
X364568Y184000D01*
X364568Y219000D02*
X343232Y219000D01*
X343232Y254000D02*
X364568Y254000D01*
X364568Y289000D02*
X343232Y289000D01*
X343232Y324000D02*
X364568Y324000D01*
D35*
X324104Y498348D03*
X166116Y289560D03*
X186944Y278892D03*
X280416Y327406D03*
X252984Y243840D03*
X22860Y292100D03*
X25400Y177800D03*
X22860Y401320D03*
X53340Y17780D03*
X134620Y17780D03*
X226060Y17780D03*
X306324Y16764D03*
X294640Y48260D03*
X408940Y55880D03*
X381000Y93980D03*
X408940Y195580D03*
X411480Y358140D03*
X95504Y242824D03*
X208280Y548640D03*
X55880Y548640D03*
X175260Y439420D03*
X370840Y548640D03*
X237744Y498348D03*
X164084Y185420D03*
X184404Y219964D03*
X114300Y127000D03*
X99060Y45720D03*
X17780Y53340D03*
X68580Y330200D03*
X70612Y222504D03*
X200660Y45720D03*
X223520Y76200D03*
X112776Y302260D03*
X115316Y366776D03*
X322580Y353060D03*
X332740Y406400D03*
X97028Y521208D03*
X67564Y437896D03*
X86360Y388620D03*
X217932Y223520D03*
X154940Y66040D03*
X414020Y114300D03*
X151384Y107696D03*
X82296Y113284D03*
X203200Y127000D03*
X106172Y187452D03*
X163068Y366776D03*
X205740Y370840D03*
X206248Y310896D03*
X162052Y315468D03*
X414020Y271780D03*
X284480Y163830D03*
X391160Y147320D03*
X383540Y236220D03*
X383540Y307340D03*
X259334Y323088D03*
X219710Y275590D03*
X121412Y264668D03*
X91440Y284480D03*
X300736Y85344D03*
X408940Y421640D03*
X244348Y478536D03*
X216916Y496824D03*
X233680Y439420D03*
X218440Y419100D03*
X185420Y313436D03*
X317500Y292100D03*
X287528Y293116D03*
X223520Y317500D03*
X189484Y103124D03*
X153924Y548640D03*
X175260Y477012D03*
X200660Y466344D03*
X140208Y477012D03*
X86360Y472440D03*
X139700Y439420D03*
X211328Y518668D03*
X213868Y479044D03*
X286512Y518668D03*
X243332Y517652D03*
X282448Y499872D03*
X256540Y219456D03*
X148844Y165100D03*
X195072Y185420D03*
X194564Y165100D03*
X189484Y244856D03*
X320040Y548640D03*
X314960Y518160D03*
X291592Y428752D03*
X322072Y387096D03*
X161544Y339344D03*
X320040Y269748D03*
X321564Y232156D03*
X325120Y312420D03*
X358140Y360680D03*
X327660Y441960D03*
X298704Y241300D03*
X165608Y380238D03*
X274320Y388620D03*
X112268Y458216D03*
X112268Y545592D03*
X281940Y458216D03*
X299720Y254000D03*
X179246Y548424D03*
X309880Y248920D03*
X152400Y401320D03*
X170180Y242570D03*
X138176Y368808D03*
X161290Y234950D03*
X155448Y194056D03*
X125476Y385572D03*
X206746Y286512D03*
X224536Y96012D03*
X122428Y102616D03*
X185420Y403352D03*
X198120Y220472D03*
X323596Y199644D03*
X317500Y210820D03*
X149860Y210820D03*
X154940Y121920D03*
X159004Y88900D03*
X181102Y50546D03*
X179070Y107442D03*
X160020Y215900D03*
X296164Y213360D03*
X314960Y179324D03*
X315214Y192532D03*
X236220Y269240D03*
X218186Y186182D03*
X213360Y403860D03*
X88900Y169512D03*
X104140Y481076D03*
X315976Y460756D03*
X315976Y478536D03*
X128524Y472948D03*
X140850Y538508D03*
X150876Y523240D03*
X306324Y537464D03*
X304800Y378460D03*
X292608Y377952D03*
X286992Y538508D03*
X160476Y351976D03*
X122936Y284988D03*
X172720Y227584D03*
X186680Y124958D03*
X96520Y218440D03*
X118872Y77724D03*
X197104Y77724D03*
X260096Y234442D03*
X259588Y132080D03*
X284480Y179070D03*
X270408Y263652D03*
X184912Y293624D03*
X268224Y294640D03*
X215392Y294132D03*
X77216Y177292D03*
X260604Y263652D03*
X130556Y296672D03*
X143764Y185928D03*
X218694Y166624D03*
X241300Y252984D03*
X269240Y163830D03*
X268872Y219710D03*
X112908Y255392D03*
X105146Y198628D03*
X215900Y127000D03*
M02*
