G04 EAGLE Gerber RS-274X export*
G75*
%MOMM*%
%FSLAX34Y34*%
%LPD*%
%INSoldermask Bottom*%
%IPPOS*%
%AMOC8*
5,1,8,0,0,1.08239X$1,22.5*%
G01*
%ADD10C,2.353200*%
%ADD11C,1.203200*%
%ADD12C,2.453200*%
%ADD13R,1.103200X0.903200*%
%ADD14P,1.869504X8X112.500000*%
%ADD15R,1.193200X0.893200*%
%ADD16C,1.711200*%
%ADD17R,1.203200X1.603200*%
%ADD18R,1.128200X0.943200*%
%ADD19R,0.943200X1.128200*%
%ADD20P,1.852186X8X292.500000*%
%ADD21C,1.303200*%
%ADD22C,1.473200*%
%ADD23R,0.803200X0.753200*%
%ADD24C,2.336800*%
%ADD25C,0.959600*%


D10*
X27940Y25400D03*
X27940Y551180D03*
X401320Y25400D03*
X378460Y403860D03*
D11*
X368460Y475110D03*
X368460Y510110D03*
D12*
X401460Y456110D03*
X401460Y529110D03*
X348460Y456110D03*
X348460Y529110D03*
D13*
X97560Y556188D03*
X97560Y543188D03*
D14*
X255672Y351432D03*
X230272Y351432D03*
X255672Y376832D03*
X230272Y376832D03*
X255672Y402232D03*
X230272Y402232D03*
D15*
X119650Y433860D03*
X119650Y424360D03*
X119650Y414860D03*
X93750Y414860D03*
X93750Y433860D03*
X119650Y520220D03*
X119650Y510720D03*
X119650Y501220D03*
X93750Y501220D03*
X93750Y520220D03*
X112666Y234472D03*
X112666Y243972D03*
X112666Y253472D03*
X138566Y253472D03*
X138566Y234472D03*
X112666Y342874D03*
X112666Y352374D03*
X112666Y361874D03*
X138566Y361874D03*
X138566Y342874D03*
D13*
X125910Y556188D03*
X125910Y543188D03*
X101116Y468304D03*
X101116Y455304D03*
X128450Y468304D03*
X128450Y455304D03*
X172458Y158740D03*
X172458Y145740D03*
X172458Y103204D03*
X172458Y90204D03*
D16*
X43100Y378460D02*
X28020Y378460D01*
X28020Y353060D02*
X43100Y353060D01*
X43100Y327660D02*
X28020Y327660D01*
X28020Y269240D02*
X43100Y269240D01*
X43100Y243840D02*
X28020Y243840D01*
X28020Y218440D02*
X43100Y218440D01*
D17*
X96732Y83438D03*
X106232Y105438D03*
X87232Y105438D03*
X94700Y140156D03*
X104200Y162156D03*
X85200Y162156D03*
D13*
X82656Y256944D03*
X82656Y243944D03*
X82656Y365572D03*
X82656Y352572D03*
D18*
X138620Y316982D03*
X126620Y316982D03*
D19*
X86106Y456534D03*
X86106Y468534D03*
X81026Y543402D03*
X81026Y555402D03*
D18*
X138588Y208280D03*
X126588Y208280D03*
D16*
X43100Y514350D02*
X28020Y514350D01*
X28020Y488950D02*
X43100Y488950D01*
X43100Y463550D02*
X28020Y463550D01*
X28020Y438150D02*
X43100Y438150D01*
D20*
X271780Y134620D03*
X246380Y134620D03*
X271780Y109220D03*
X246380Y109220D03*
X271780Y83820D03*
X246380Y83820D03*
X271780Y58420D03*
X246380Y58420D03*
X271780Y33020D03*
X246380Y33020D03*
D21*
X101092Y266192D03*
X92964Y209296D03*
X228600Y137160D03*
D16*
X43100Y160020D02*
X28020Y160020D01*
X28020Y134620D02*
X43100Y134620D01*
X43100Y109220D02*
X28020Y109220D01*
X28020Y83820D02*
X43100Y83820D01*
D20*
X363220Y134620D03*
X337820Y134620D03*
X363220Y109220D03*
X337820Y109220D03*
X363220Y83820D03*
X337820Y83820D03*
X363220Y58420D03*
X337820Y58420D03*
X363220Y33020D03*
X337820Y33020D03*
D22*
X259080Y551180D03*
D23*
X146200Y145182D03*
X133200Y145182D03*
X139700Y163682D03*
X146200Y89810D03*
X133200Y89810D03*
X139700Y108310D03*
D24*
X343232Y210160D02*
X364568Y210160D01*
X364568Y245160D02*
X343232Y245160D01*
X343232Y280160D02*
X364568Y280160D01*
X364568Y315160D02*
X343232Y315160D01*
X343232Y350160D02*
X364568Y350160D01*
D25*
X324104Y508508D03*
X166116Y299720D03*
X186944Y289052D03*
X280416Y337566D03*
X252984Y254000D03*
X22860Y302260D03*
X20320Y190500D03*
X22860Y411480D03*
X55880Y25400D03*
X121920Y17400D03*
X207740Y16400D03*
X303784Y16924D03*
X294640Y58420D03*
X408940Y66040D03*
X381000Y104140D03*
X408940Y205740D03*
X411480Y368300D03*
X96774Y253492D03*
X208280Y558800D03*
X55880Y558800D03*
X175260Y449580D03*
X370840Y558800D03*
X237744Y508508D03*
X164084Y195580D03*
X184404Y230124D03*
X114300Y137160D03*
X99060Y55880D03*
X17780Y63500D03*
X68580Y340360D03*
X70612Y232664D03*
X200660Y55880D03*
X223520Y86360D03*
X112776Y312420D03*
X115316Y376936D03*
X322072Y376936D03*
X332740Y416560D03*
X97028Y531368D03*
X67564Y448056D03*
X86360Y398780D03*
X217932Y233680D03*
X154940Y76200D03*
X414020Y124460D03*
X151384Y117856D03*
X82296Y123444D03*
X203200Y137160D03*
X106172Y197612D03*
X163068Y376936D03*
X205740Y381000D03*
X206248Y321056D03*
X162052Y325628D03*
X408940Y281940D03*
X284480Y173990D03*
X391160Y157480D03*
X386080Y243840D03*
X383540Y317500D03*
X259334Y333248D03*
X219710Y285750D03*
X121412Y274828D03*
X91440Y294640D03*
X300736Y95504D03*
X408940Y431800D03*
X244348Y488696D03*
X216916Y506984D03*
X233680Y449580D03*
X218440Y429260D03*
X185420Y323596D03*
X317500Y302260D03*
X287528Y303276D03*
X223520Y327660D03*
X189484Y113284D03*
X153924Y558800D03*
X175260Y487172D03*
X200660Y476504D03*
X147828Y484632D03*
X86360Y482600D03*
X139700Y449580D03*
X211328Y528828D03*
X213868Y489204D03*
X286512Y528828D03*
X243332Y527812D03*
X282448Y510032D03*
X256540Y229616D03*
X148844Y175260D03*
X195072Y195580D03*
X194564Y175260D03*
X189484Y255016D03*
X320040Y558800D03*
X314960Y528320D03*
X291592Y438912D03*
X322072Y397256D03*
X161544Y349504D03*
X323596Y252984D03*
X325120Y322580D03*
X358140Y381000D03*
X327660Y452120D03*
X354838Y176530D03*
X298704Y251460D03*
X165608Y390398D03*
X274320Y398780D03*
X112268Y468376D03*
X112268Y555752D03*
X281940Y468376D03*
X299720Y264160D03*
X179246Y558584D03*
X309880Y259080D03*
X152400Y411480D03*
X170180Y252730D03*
X138176Y378968D03*
X161290Y245110D03*
X155448Y204216D03*
X125476Y395732D03*
X206746Y296672D03*
X224536Y106172D03*
X122428Y112776D03*
X185420Y413512D03*
X198120Y230632D03*
X323596Y209804D03*
X317500Y220980D03*
X149860Y220980D03*
X154940Y132080D03*
X159004Y99060D03*
X181102Y60706D03*
X179070Y117602D03*
X160020Y226060D03*
X296164Y223520D03*
X314960Y189484D03*
X315214Y202692D03*
X236220Y279400D03*
X218186Y196342D03*
X213360Y414020D03*
X88900Y179672D03*
X104140Y491236D03*
X315976Y470916D03*
X315976Y488696D03*
X128524Y483108D03*
X140850Y548668D03*
X150876Y533400D03*
X306324Y547624D03*
X304800Y388620D03*
X292608Y388112D03*
X286992Y548668D03*
X160476Y362136D03*
X122936Y295148D03*
X172720Y237744D03*
X186680Y135118D03*
X96520Y228600D03*
X118872Y87884D03*
X197104Y87884D03*
X260096Y244602D03*
X259588Y142240D03*
X284480Y189230D03*
X270408Y273812D03*
X184912Y303784D03*
X268224Y304800D03*
X215392Y304292D03*
X77216Y187452D03*
X260604Y273812D03*
X130556Y306832D03*
X143764Y196088D03*
X218694Y176784D03*
X241300Y263144D03*
X269240Y173990D03*
X269380Y230886D03*
X112908Y265552D03*
X105146Y208788D03*
X215900Y137160D03*
M02*
