M48
;GenerationSoftware,Autodesk,EAGLE,9.6.2*%
;CreationDate,2022-11-09T16:06:53Z*%
FMAT,2
ICI,OFF
METRIC,TZ,000.000
T6C0.350
T5C1.000
T4C1.016
T3C1.422
T2C1.500
T1C2.150
%
G90
M71
T1
X37846Y40386
X2794Y2540
X2794Y55118
X40132Y2540
T2
X40146Y45611
X40146Y52911
X34846Y45611
X34846Y52911
T3
X35390Y35016
X35390Y21016
X35390Y24516
X35390Y28016
X35390Y31516
T4
X25567Y40223
X23027Y35143
X25567Y35143
X23027Y40223
X25567Y37683
X23027Y37683
T5
X3556Y32766
X3556Y26924
X3556Y24384
X3556Y21844
X3556Y51435
X3556Y48895
X3556Y46355
X3556Y43815
X27178Y13462
X27178Y10922
X24638Y10922
X27178Y8382
X24638Y8382
X27178Y5842
X24638Y5842
X27178Y3302
X24638Y3302
X3556Y16002
X3556Y13462
X3556Y10922
X3556Y8382
X36322Y13462
X33782Y13462
X36322Y10922
X33782Y10922
X36322Y8382
X33782Y8382
X36322Y5842
X33782Y5842
X36322Y3302
X33782Y3302
X36846Y51011
X36846Y47511
X3556Y37846
X3556Y35306
X24638Y13462
T6
X25933Y33325
X21971Y28575
X12141Y27483
X9144Y29464
X30074Y9550
X40894Y43180
X24435Y48870
X21692Y50698
X23368Y44958
X21844Y42926
X18542Y32360
X31750Y30226
X28753Y30328
X22352Y32766
X18948Y11328
X15392Y55880
X17526Y48717
X20066Y47650
X14783Y48463
X8636Y48260
X13970Y44958
X21133Y52883
X21387Y48920
X28651Y52883
X24333Y52781
X28245Y51003
X25654Y22962
X14884Y17526
X19507Y19558
X19456Y17526
X18948Y25502
X32004Y55880
X31496Y52832
X29159Y43891
X32207Y39726
X16154Y34950
X32360Y25298
X32512Y32258
X35814Y38100
X32766Y45212
X35484Y17653
X29870Y25146
X16561Y39040
X27432Y39878
X11227Y46838
X11227Y55575
X28194Y46838
X29972Y26416
X17925Y55858
X30988Y25908
X15240Y41148
X17018Y25273
X13818Y37897
X16129Y24511
X15545Y20422
X1778Y6350
X20675Y29667
X22454Y10617
X12243Y11278
X18542Y41351
X19812Y23063
X32360Y20980
X31750Y22098
X14986Y22098
X15494Y13208
X15900Y9906
X18110Y6071
X17907Y11760
X16002Y22606
X29616Y22352
X31496Y18948
X31521Y20269
X23622Y27940
X21819Y19634
X21336Y41402
X8890Y17967
X10414Y49124
X31598Y47092
X31598Y48870
X12852Y48311
X14085Y54867
X15088Y53340
X30632Y54762
X30480Y38862
X29261Y38811
X28699Y54867
X16048Y36214
X12294Y29515
X17272Y23774
X18668Y13512
X9652Y22860
X11887Y8788
X19710Y8788
X26010Y24460
X25959Y14224
X28448Y18923
X27041Y27381
X18491Y30378
X26822Y30480
X21539Y30429
X7722Y18745
X26060Y27381
X13056Y30683
X14376Y19609
X21869Y17678
X24130Y26314
X26924Y17399
X26938Y23089
X11291Y26555
X10515Y20879
X21590Y13716
X32410Y50851
X16612Y29972
X18694Y28905
X28042Y33757
X25298Y25400
X2286Y30226
X2032Y19050
X2286Y41148
X5588Y2540
X12192Y1740
X20774Y1640
X30378Y1692
X29464Y5842
X40894Y6604
X38100Y10414
X40894Y20574
X41148Y36830
X9677Y25349
X20828Y55880
X5588Y55880
X17526Y44958
X37084Y55880
X23774Y50851
X16408Y19558
X18440Y23012
X11430Y13716
X9906Y5588
X12548Y39573
X6858Y34036
X7061Y23266
X20066Y5588
X22352Y8636
X11278Y31242
X11532Y37694
X32207Y37694
X33274Y41656
X9703Y53137
X6756Y44806
X8636Y39878
X21793Y23368
X15494Y7620
X41402Y12446
X15138Y11786
X8230Y12344
X20320Y13716
X10617Y19761
X16307Y37694
X20574Y38100
X20625Y32106
X16205Y32563
X40894Y28194
X28448Y17399
X39116Y15748
X38608Y24384
X38354Y31750
M30