G04 EAGLE Gerber RS-274X export*
G75*
%MOMM*%
%FSLAX34Y34*%
%LPD*%
%INBottom Copper*%
%IPPOS*%
%AMOC8*
5,1,8,0,0,1.08239X$1,22.5*%
G01*
%ADD10C,1.208000*%
%ADD11R,1.100000X1.000000*%
%ADD12C,1.508000*%
%ADD13R,0.740000X0.925000*%
%ADD14R,1.000000X1.100000*%
%ADD15C,0.304800*%
%ADD16C,0.756400*%
%ADD17C,0.254000*%
%ADD18C,0.254000*%

G36*
X26728Y34807D02*
X26728Y34807D01*
X26786Y34805D01*
X26868Y34827D01*
X26952Y34839D01*
X27005Y34862D01*
X27061Y34877D01*
X27134Y34920D01*
X27211Y34955D01*
X27256Y34993D01*
X27306Y35022D01*
X27364Y35084D01*
X27428Y35138D01*
X27460Y35187D01*
X27500Y35230D01*
X27539Y35305D01*
X27586Y35375D01*
X27603Y35431D01*
X27630Y35483D01*
X27641Y35551D01*
X27671Y35646D01*
X27674Y35746D01*
X27685Y35814D01*
X27685Y69738D01*
X36942Y78995D01*
X66140Y78995D01*
X66198Y79003D01*
X66256Y79001D01*
X66338Y79023D01*
X66422Y79035D01*
X66475Y79058D01*
X66531Y79073D01*
X66604Y79116D01*
X66681Y79151D01*
X66726Y79189D01*
X66776Y79218D01*
X66834Y79280D01*
X66898Y79334D01*
X66930Y79383D01*
X66970Y79426D01*
X67009Y79501D01*
X67056Y79571D01*
X67073Y79627D01*
X67100Y79679D01*
X67111Y79747D01*
X67141Y79842D01*
X67144Y79942D01*
X67155Y80010D01*
X67155Y81257D01*
X68048Y82150D01*
X68570Y82150D01*
X68628Y82158D01*
X68686Y82156D01*
X68768Y82178D01*
X68852Y82190D01*
X68905Y82213D01*
X68961Y82228D01*
X69034Y82271D01*
X69111Y82306D01*
X69156Y82344D01*
X69206Y82373D01*
X69264Y82435D01*
X69328Y82489D01*
X69360Y82538D01*
X69400Y82581D01*
X69439Y82656D01*
X69486Y82726D01*
X69503Y82782D01*
X69530Y82834D01*
X69541Y82902D01*
X69571Y82997D01*
X69574Y83097D01*
X69585Y83165D01*
X69585Y162306D01*
X69577Y162364D01*
X69579Y162422D01*
X69557Y162504D01*
X69545Y162588D01*
X69522Y162641D01*
X69507Y162697D01*
X69464Y162770D01*
X69429Y162847D01*
X69391Y162892D01*
X69362Y162942D01*
X69300Y163000D01*
X69246Y163064D01*
X69197Y163096D01*
X69154Y163136D01*
X69079Y163175D01*
X69009Y163222D01*
X68953Y163239D01*
X68901Y163266D01*
X68833Y163277D01*
X68738Y163307D01*
X68638Y163310D01*
X68570Y163321D01*
X58140Y163321D01*
X58054Y163309D01*
X57966Y163306D01*
X57914Y163289D01*
X57859Y163281D01*
X57779Y163246D01*
X57696Y163219D01*
X57657Y163191D01*
X57600Y163165D01*
X57486Y163069D01*
X57423Y163024D01*
X51860Y157461D01*
X51116Y156717D01*
X37784Y156717D01*
X32257Y162244D01*
X32257Y170744D01*
X32249Y170802D01*
X32251Y170860D01*
X32229Y170942D01*
X32229Y179606D01*
X32221Y179664D01*
X32223Y179722D01*
X32201Y179804D01*
X32189Y179887D01*
X32166Y179941D01*
X32151Y179997D01*
X32108Y180070D01*
X32073Y180147D01*
X32035Y180191D01*
X32006Y180242D01*
X31944Y180299D01*
X31907Y180343D01*
X31908Y180344D01*
X31972Y180399D01*
X32004Y180447D01*
X32044Y180490D01*
X32083Y180565D01*
X32130Y180635D01*
X32147Y180691D01*
X32174Y180743D01*
X32185Y180811D01*
X32215Y180906D01*
X32218Y181006D01*
X32229Y181074D01*
X32229Y188742D01*
X32345Y188735D01*
X32420Y188723D01*
X63830Y188723D01*
X63842Y188714D01*
X63906Y188654D01*
X63956Y188628D01*
X64000Y188595D01*
X64081Y188564D01*
X64159Y188524D01*
X64207Y188516D01*
X64265Y188494D01*
X64413Y188482D01*
X64490Y188469D01*
X70061Y188469D01*
X70359Y188171D01*
X70359Y180394D01*
X70371Y180308D01*
X70374Y180220D01*
X70391Y180167D01*
X70399Y180113D01*
X70434Y180033D01*
X70461Y179950D01*
X70489Y179910D01*
X70515Y179853D01*
X70611Y179740D01*
X70656Y179676D01*
X75175Y175158D01*
X75175Y92964D01*
X75183Y92906D01*
X75181Y92848D01*
X75203Y92766D01*
X75215Y92682D01*
X75238Y92629D01*
X75253Y92573D01*
X75296Y92500D01*
X75331Y92423D01*
X75369Y92378D01*
X75398Y92328D01*
X75460Y92270D01*
X75514Y92206D01*
X75563Y92174D01*
X75606Y92134D01*
X75681Y92095D01*
X75751Y92048D01*
X75807Y92031D01*
X75859Y92004D01*
X75927Y91993D01*
X76022Y91963D01*
X76122Y91960D01*
X76190Y91949D01*
X86444Y91949D01*
X86502Y91957D01*
X86560Y91955D01*
X86642Y91977D01*
X86725Y91989D01*
X86779Y92012D01*
X86835Y92027D01*
X86908Y92070D01*
X86985Y92105D01*
X87029Y92143D01*
X87080Y92172D01*
X87137Y92234D01*
X87202Y92288D01*
X87234Y92337D01*
X87274Y92380D01*
X87313Y92455D01*
X87359Y92525D01*
X87377Y92581D01*
X87404Y92633D01*
X87415Y92701D01*
X87445Y92796D01*
X87448Y92896D01*
X87459Y92964D01*
X87459Y93581D01*
X87461Y93581D01*
X87461Y92964D01*
X87469Y92906D01*
X87468Y92848D01*
X87489Y92766D01*
X87501Y92682D01*
X87525Y92629D01*
X87539Y92573D01*
X87582Y92500D01*
X87617Y92423D01*
X87655Y92378D01*
X87685Y92328D01*
X87746Y92270D01*
X87801Y92206D01*
X87849Y92174D01*
X87892Y92134D01*
X87967Y92095D01*
X88037Y92048D01*
X88093Y92031D01*
X88145Y92004D01*
X88213Y91993D01*
X88308Y91963D01*
X88408Y91960D01*
X88476Y91949D01*
X104140Y91949D01*
X104198Y91957D01*
X104256Y91955D01*
X104338Y91977D01*
X104422Y91989D01*
X104475Y92012D01*
X104531Y92027D01*
X104604Y92070D01*
X104681Y92105D01*
X104726Y92143D01*
X104776Y92172D01*
X104834Y92234D01*
X104898Y92288D01*
X104930Y92337D01*
X104970Y92380D01*
X105009Y92455D01*
X105056Y92525D01*
X105073Y92581D01*
X105100Y92633D01*
X105111Y92701D01*
X105141Y92796D01*
X105144Y92896D01*
X105155Y92964D01*
X105155Y115825D01*
X114300Y115825D01*
X114358Y115833D01*
X114416Y115831D01*
X114498Y115853D01*
X114582Y115865D01*
X114635Y115889D01*
X114691Y115903D01*
X114764Y115946D01*
X114841Y115981D01*
X114886Y116019D01*
X114936Y116049D01*
X114994Y116110D01*
X115058Y116165D01*
X115090Y116213D01*
X115130Y116256D01*
X115169Y116331D01*
X115216Y116401D01*
X115233Y116457D01*
X115260Y116509D01*
X115271Y116577D01*
X115301Y116672D01*
X115304Y116772D01*
X115315Y116840D01*
X115315Y118070D01*
X115309Y118111D01*
X115312Y118153D01*
X115290Y118251D01*
X115275Y118351D01*
X115258Y118389D01*
X115249Y118430D01*
X115201Y118518D01*
X115159Y118611D01*
X115132Y118642D01*
X115112Y118679D01*
X115041Y118751D01*
X114976Y118828D01*
X114941Y118851D01*
X114911Y118880D01*
X114843Y118916D01*
X114739Y118985D01*
X114665Y119009D01*
X114614Y119035D01*
X113050Y119543D01*
X111637Y120264D01*
X110353Y121196D01*
X109231Y122318D01*
X108298Y123602D01*
X107578Y125016D01*
X107087Y126525D01*
X107035Y126854D01*
X114300Y126854D01*
X114358Y126862D01*
X114416Y126861D01*
X114498Y126882D01*
X114582Y126894D01*
X114635Y126918D01*
X114691Y126933D01*
X114764Y126976D01*
X114841Y127010D01*
X114886Y127048D01*
X114936Y127078D01*
X114994Y127140D01*
X115058Y127194D01*
X115090Y127243D01*
X115130Y127285D01*
X115169Y127360D01*
X115216Y127431D01*
X115233Y127486D01*
X115260Y127538D01*
X115271Y127606D01*
X115301Y127702D01*
X115304Y127801D01*
X115315Y127870D01*
X115315Y129901D01*
X115307Y129959D01*
X115309Y130018D01*
X115287Y130099D01*
X115275Y130183D01*
X115252Y130236D01*
X115237Y130293D01*
X115194Y130365D01*
X115159Y130442D01*
X115121Y130487D01*
X115092Y130537D01*
X115030Y130595D01*
X114976Y130659D01*
X114927Y130692D01*
X114884Y130732D01*
X114809Y130770D01*
X114739Y130817D01*
X114683Y130835D01*
X114631Y130861D01*
X114563Y130873D01*
X114468Y130903D01*
X114368Y130905D01*
X114300Y130917D01*
X107035Y130917D01*
X107087Y131246D01*
X107578Y132755D01*
X108298Y134169D01*
X109231Y135453D01*
X110353Y136575D01*
X111637Y137507D01*
X113050Y138228D01*
X114614Y138736D01*
X114651Y138754D01*
X114691Y138764D01*
X114778Y138816D01*
X114869Y138860D01*
X114900Y138888D01*
X114936Y138910D01*
X115005Y138984D01*
X115080Y139051D01*
X115102Y139087D01*
X115130Y139117D01*
X115176Y139207D01*
X115230Y139293D01*
X115241Y139333D01*
X115260Y139370D01*
X115272Y139446D01*
X115306Y139567D01*
X115306Y139644D01*
X115315Y139701D01*
X115315Y149424D01*
X115302Y149520D01*
X115297Y149617D01*
X115283Y149655D01*
X115275Y149705D01*
X115205Y149862D01*
X115179Y149931D01*
X113918Y152115D01*
X113918Y166381D01*
X113901Y166505D01*
X113888Y166629D01*
X113881Y166645D01*
X113878Y166663D01*
X113827Y166777D01*
X113781Y166892D01*
X113770Y166906D01*
X113762Y166922D01*
X113682Y167017D01*
X113605Y167115D01*
X113590Y167126D01*
X113579Y167139D01*
X113475Y167208D01*
X113374Y167281D01*
X113357Y167287D01*
X113342Y167297D01*
X113223Y167335D01*
X113106Y167376D01*
X113090Y167377D01*
X113071Y167383D01*
X112787Y167390D01*
X112778Y167388D01*
X112770Y167388D01*
X112649Y167372D01*
X112449Y167316D01*
X112394Y167304D01*
X112284Y167258D01*
X111852Y167258D01*
X111776Y167248D01*
X111719Y167250D01*
X111513Y167222D01*
X111380Y167254D01*
X111327Y167251D01*
X111286Y167258D01*
X81754Y167258D01*
X81733Y167255D01*
X81712Y167257D01*
X81593Y167235D01*
X81514Y167224D01*
X81321Y167250D01*
X81245Y167249D01*
X81188Y167258D01*
X80756Y167258D01*
X80646Y167304D01*
X80445Y167356D01*
X80390Y167372D01*
X80333Y167380D01*
X80306Y167394D01*
X80243Y167440D01*
X80182Y167461D01*
X80125Y167492D01*
X80049Y167509D01*
X79975Y167535D01*
X79963Y167535D01*
X79924Y167565D01*
X79742Y167668D01*
X79694Y167698D01*
X79641Y167720D01*
X79618Y167741D01*
X79569Y167801D01*
X79516Y167838D01*
X79468Y167883D01*
X79399Y167918D01*
X79335Y167963D01*
X79323Y167966D01*
X79293Y168006D01*
X79144Y168152D01*
X79106Y168193D01*
X79060Y168228D01*
X79044Y168254D01*
X79012Y168325D01*
X78969Y168375D01*
X78935Y168430D01*
X78878Y168482D01*
X78827Y168542D01*
X78817Y168548D01*
X78798Y168594D01*
X78692Y168774D01*
X78665Y168824D01*
X78630Y168869D01*
X78622Y168899D01*
X78609Y168976D01*
X78581Y169034D01*
X78562Y169096D01*
X78520Y169162D01*
X78487Y169232D01*
X78479Y169241D01*
X78472Y169290D01*
X78416Y169491D01*
X78404Y169546D01*
X78358Y169656D01*
X78358Y170088D01*
X78351Y170142D01*
X78352Y170176D01*
X78348Y170188D01*
X78350Y170221D01*
X78322Y170427D01*
X78354Y170560D01*
X78351Y170613D01*
X78358Y170654D01*
X78358Y200186D01*
X78355Y200207D01*
X78357Y200228D01*
X78335Y200347D01*
X78324Y200427D01*
X78338Y200527D01*
X78336Y200652D01*
X78340Y200776D01*
X78335Y200794D01*
X78335Y200812D01*
X78299Y200931D01*
X78268Y201051D01*
X78259Y201067D01*
X78253Y201084D01*
X78186Y201189D01*
X78122Y201296D01*
X78109Y201308D01*
X78100Y201323D01*
X78006Y201405D01*
X77915Y201490D01*
X77899Y201499D01*
X77886Y201510D01*
X77773Y201563D01*
X77662Y201620D01*
X77646Y201622D01*
X77628Y201631D01*
X77347Y201675D01*
X77338Y201674D01*
X77331Y201675D01*
X10160Y201675D01*
X10102Y201667D01*
X10044Y201669D01*
X9962Y201647D01*
X9879Y201635D01*
X9825Y201612D01*
X9769Y201597D01*
X9696Y201554D01*
X9619Y201519D01*
X9574Y201481D01*
X9524Y201452D01*
X9466Y201390D01*
X9402Y201336D01*
X9370Y201287D01*
X9330Y201244D01*
X9291Y201169D01*
X9245Y201099D01*
X9227Y201043D01*
X9200Y200991D01*
X9189Y200923D01*
X9159Y200828D01*
X9156Y200728D01*
X9145Y200660D01*
X9145Y35814D01*
X9153Y35756D01*
X9151Y35698D01*
X9173Y35616D01*
X9185Y35532D01*
X9209Y35479D01*
X9223Y35423D01*
X9266Y35350D01*
X9301Y35273D01*
X9339Y35228D01*
X9369Y35178D01*
X9430Y35120D01*
X9485Y35056D01*
X9533Y35024D01*
X9576Y34984D01*
X9651Y34945D01*
X9721Y34898D01*
X9777Y34881D01*
X9829Y34854D01*
X9897Y34843D01*
X9992Y34813D01*
X10092Y34810D01*
X10160Y34799D01*
X26670Y34799D01*
X26728Y34807D01*
G37*
G36*
X104198Y6613D02*
X104198Y6613D01*
X104256Y6611D01*
X104338Y6633D01*
X104422Y6645D01*
X104475Y6669D01*
X104531Y6683D01*
X104604Y6726D01*
X104681Y6761D01*
X104726Y6799D01*
X104776Y6829D01*
X104834Y6890D01*
X104898Y6945D01*
X104930Y6993D01*
X104970Y7036D01*
X105009Y7111D01*
X105056Y7181D01*
X105073Y7237D01*
X105100Y7289D01*
X105111Y7357D01*
X105141Y7452D01*
X105144Y7552D01*
X105155Y7620D01*
X105155Y74276D01*
X105147Y74333D01*
X105149Y74392D01*
X105127Y74473D01*
X105115Y74557D01*
X105092Y74610D01*
X105077Y74667D01*
X105034Y74739D01*
X104999Y74816D01*
X104961Y74861D01*
X104932Y74911D01*
X104870Y74969D01*
X104816Y75033D01*
X104767Y75066D01*
X104724Y75106D01*
X104649Y75144D01*
X104579Y75191D01*
X104523Y75209D01*
X104471Y75235D01*
X104403Y75247D01*
X104308Y75277D01*
X104208Y75279D01*
X104140Y75291D01*
X95000Y75291D01*
X94942Y75283D01*
X94884Y75284D01*
X94802Y75263D01*
X94718Y75251D01*
X94665Y75227D01*
X94609Y75212D01*
X94536Y75169D01*
X94459Y75135D01*
X94414Y75097D01*
X94364Y75067D01*
X94306Y75005D01*
X94242Y74951D01*
X94210Y74902D01*
X94170Y74860D01*
X94131Y74785D01*
X94084Y74714D01*
X94067Y74659D01*
X94040Y74607D01*
X94029Y74539D01*
X93999Y74443D01*
X93996Y74344D01*
X93985Y74276D01*
X93985Y70448D01*
X93092Y69555D01*
X85935Y69555D01*
X85849Y69543D01*
X85761Y69540D01*
X85709Y69523D01*
X85654Y69515D01*
X85574Y69480D01*
X85491Y69453D01*
X85451Y69425D01*
X85394Y69399D01*
X85326Y69341D01*
X79636Y69341D01*
X79578Y69333D01*
X79520Y69335D01*
X79438Y69313D01*
X79354Y69301D01*
X79301Y69278D01*
X79245Y69263D01*
X79172Y69220D01*
X79095Y69185D01*
X79050Y69147D01*
X79000Y69118D01*
X78942Y69056D01*
X78878Y69002D01*
X78846Y68953D01*
X78806Y68910D01*
X78767Y68835D01*
X78720Y68765D01*
X78703Y68709D01*
X78676Y68657D01*
X78665Y68589D01*
X78635Y68494D01*
X78632Y68394D01*
X78621Y68326D01*
X78621Y65849D01*
X73214Y65849D01*
X73156Y65841D01*
X73098Y65843D01*
X73016Y65821D01*
X72933Y65809D01*
X72879Y65786D01*
X72823Y65771D01*
X72750Y65728D01*
X72673Y65693D01*
X72629Y65655D01*
X72578Y65626D01*
X72521Y65564D01*
X72456Y65510D01*
X72424Y65461D01*
X72384Y65418D01*
X72378Y65407D01*
X72367Y65420D01*
X72337Y65470D01*
X72276Y65528D01*
X72221Y65592D01*
X72173Y65624D01*
X72130Y65664D01*
X72055Y65703D01*
X71985Y65750D01*
X71929Y65767D01*
X71877Y65794D01*
X71809Y65805D01*
X71714Y65835D01*
X71614Y65838D01*
X71546Y65849D01*
X66139Y65849D01*
X66139Y68959D01*
X66312Y69606D01*
X66647Y70185D01*
X66858Y70396D01*
X66910Y70466D01*
X66970Y70530D01*
X66996Y70579D01*
X67029Y70623D01*
X67060Y70705D01*
X67100Y70783D01*
X67108Y70830D01*
X67130Y70889D01*
X67142Y71037D01*
X67155Y71114D01*
X67155Y72390D01*
X67147Y72448D01*
X67149Y72506D01*
X67127Y72588D01*
X67115Y72672D01*
X67092Y72725D01*
X67077Y72781D01*
X67034Y72854D01*
X66999Y72931D01*
X66961Y72976D01*
X66932Y73026D01*
X66870Y73084D01*
X66816Y73148D01*
X66767Y73180D01*
X66724Y73220D01*
X66649Y73259D01*
X66579Y73306D01*
X66523Y73323D01*
X66471Y73350D01*
X66403Y73361D01*
X66308Y73391D01*
X66208Y73394D01*
X66140Y73405D01*
X39678Y73405D01*
X39592Y73393D01*
X39504Y73390D01*
X39451Y73373D01*
X39397Y73365D01*
X39317Y73330D01*
X39234Y73303D01*
X39194Y73275D01*
X39137Y73249D01*
X39024Y73153D01*
X38960Y73108D01*
X33572Y67720D01*
X33520Y67650D01*
X33460Y67586D01*
X33434Y67537D01*
X33401Y67493D01*
X33370Y67411D01*
X33330Y67333D01*
X33322Y67285D01*
X33300Y67227D01*
X33288Y67079D01*
X33275Y67002D01*
X33275Y35973D01*
X33275Y35971D01*
X33275Y35970D01*
X33295Y35830D01*
X33315Y35692D01*
X33315Y35690D01*
X33315Y35689D01*
X33373Y35560D01*
X33431Y35432D01*
X33432Y35431D01*
X33433Y35429D01*
X33524Y35322D01*
X33614Y35215D01*
X33616Y35214D01*
X33617Y35213D01*
X33630Y35205D01*
X33851Y35058D01*
X33880Y35048D01*
X33901Y35035D01*
X35065Y34553D01*
X37193Y32425D01*
X38345Y29645D01*
X38345Y26635D01*
X37573Y24773D01*
X37545Y24661D01*
X37510Y24552D01*
X37509Y24524D01*
X37502Y24497D01*
X37505Y24383D01*
X37503Y24268D01*
X37510Y24241D01*
X37510Y24213D01*
X37545Y24104D01*
X37574Y23993D01*
X37589Y23969D01*
X37597Y23942D01*
X37661Y23847D01*
X37720Y23748D01*
X37740Y23729D01*
X37755Y23706D01*
X37843Y23632D01*
X37927Y23554D01*
X37952Y23541D01*
X37973Y23523D01*
X38078Y23477D01*
X38180Y23424D01*
X38205Y23420D01*
X38233Y23408D01*
X38278Y23401D01*
X38609Y23071D01*
X38609Y7620D01*
X38617Y7562D01*
X38615Y7504D01*
X38637Y7422D01*
X38649Y7339D01*
X38672Y7285D01*
X38687Y7229D01*
X38730Y7156D01*
X38765Y7079D01*
X38803Y7034D01*
X38832Y6984D01*
X38894Y6926D01*
X38948Y6862D01*
X38997Y6830D01*
X39040Y6790D01*
X39115Y6751D01*
X39185Y6705D01*
X39241Y6687D01*
X39293Y6660D01*
X39361Y6649D01*
X39456Y6619D01*
X39556Y6616D01*
X39624Y6605D01*
X104140Y6605D01*
X104198Y6613D01*
G37*
%LPC*%
G36*
X54375Y20375D02*
X54375Y20375D01*
X51595Y21527D01*
X49467Y23655D01*
X48315Y26435D01*
X48315Y29445D01*
X49467Y32225D01*
X51595Y34353D01*
X54375Y35505D01*
X57385Y35505D01*
X60165Y34353D01*
X61572Y32946D01*
X61642Y32894D01*
X61706Y32834D01*
X61755Y32808D01*
X61799Y32775D01*
X61881Y32744D01*
X61959Y32704D01*
X62006Y32696D01*
X62065Y32674D01*
X62213Y32662D01*
X62290Y32649D01*
X79629Y32649D01*
X79687Y32657D01*
X79745Y32655D01*
X79827Y32677D01*
X79911Y32689D01*
X79964Y32712D01*
X80020Y32727D01*
X80093Y32770D01*
X80170Y32805D01*
X80215Y32843D01*
X80265Y32872D01*
X80323Y32934D01*
X80387Y32988D01*
X80419Y33037D01*
X80459Y33080D01*
X80498Y33155D01*
X80545Y33225D01*
X80562Y33281D01*
X80589Y33333D01*
X80600Y33401D01*
X80630Y33496D01*
X80633Y33596D01*
X80644Y33664D01*
X80644Y43463D01*
X80674Y43495D01*
X80700Y43544D01*
X80733Y43588D01*
X80764Y43670D01*
X80804Y43748D01*
X80812Y43795D01*
X80834Y43854D01*
X80846Y44002D01*
X80859Y44079D01*
X80859Y44569D01*
X87884Y44569D01*
X87942Y44577D01*
X88000Y44575D01*
X88082Y44597D01*
X88165Y44609D01*
X88219Y44633D01*
X88275Y44647D01*
X88348Y44690D01*
X88425Y44725D01*
X88469Y44763D01*
X88520Y44793D01*
X88577Y44854D01*
X88642Y44909D01*
X88674Y44957D01*
X88714Y45000D01*
X88753Y45075D01*
X88799Y45145D01*
X88817Y45201D01*
X88844Y45253D01*
X88855Y45321D01*
X88885Y45416D01*
X88888Y45516D01*
X88899Y45584D01*
X88899Y46601D01*
X88901Y46601D01*
X88901Y45584D01*
X88909Y45526D01*
X88908Y45468D01*
X88929Y45386D01*
X88941Y45303D01*
X88965Y45249D01*
X88979Y45193D01*
X89022Y45120D01*
X89057Y45043D01*
X89095Y44998D01*
X89125Y44948D01*
X89186Y44890D01*
X89241Y44826D01*
X89289Y44794D01*
X89332Y44754D01*
X89407Y44715D01*
X89477Y44669D01*
X89533Y44651D01*
X89585Y44624D01*
X89653Y44613D01*
X89748Y44583D01*
X89848Y44580D01*
X89916Y44569D01*
X96941Y44569D01*
X96941Y44079D01*
X96953Y43992D01*
X96956Y43905D01*
X96973Y43852D01*
X96981Y43797D01*
X97016Y43718D01*
X97043Y43634D01*
X97071Y43595D01*
X97097Y43538D01*
X97156Y43468D01*
X97156Y32757D01*
X96760Y32361D01*
X96742Y32356D01*
X96658Y32344D01*
X96605Y32321D01*
X96549Y32306D01*
X96476Y32263D01*
X96399Y32228D01*
X96354Y32190D01*
X96304Y32161D01*
X96246Y32099D01*
X96182Y32045D01*
X96150Y31996D01*
X96110Y31953D01*
X96071Y31878D01*
X96024Y31808D01*
X96007Y31752D01*
X95980Y31700D01*
X95969Y31632D01*
X95939Y31537D01*
X95936Y31437D01*
X95925Y31369D01*
X95925Y23968D01*
X95032Y23075D01*
X82768Y23075D01*
X81875Y23968D01*
X81875Y25536D01*
X81867Y25594D01*
X81869Y25652D01*
X81847Y25734D01*
X81835Y25818D01*
X81812Y25871D01*
X81797Y25927D01*
X81754Y26000D01*
X81719Y26077D01*
X81681Y26122D01*
X81652Y26172D01*
X81590Y26230D01*
X81536Y26294D01*
X81487Y26326D01*
X81444Y26366D01*
X81369Y26405D01*
X81299Y26452D01*
X81243Y26469D01*
X81191Y26496D01*
X81123Y26507D01*
X81028Y26537D01*
X80928Y26540D01*
X80860Y26551D01*
X64171Y26551D01*
X64170Y26551D01*
X64168Y26551D01*
X64028Y26531D01*
X63890Y26511D01*
X63888Y26511D01*
X63887Y26511D01*
X63761Y26454D01*
X63630Y26395D01*
X63629Y26394D01*
X63628Y26393D01*
X63520Y26302D01*
X63413Y26212D01*
X63412Y26210D01*
X63411Y26209D01*
X63403Y26196D01*
X63256Y25975D01*
X63246Y25946D01*
X63233Y25925D01*
X62293Y23655D01*
X60165Y21527D01*
X57385Y20375D01*
X54375Y20375D01*
G37*
%LPD*%
%LPC*%
G36*
X40678Y91559D02*
X40678Y91559D01*
X36054Y93475D01*
X32515Y97014D01*
X30599Y101638D01*
X30599Y106642D01*
X32515Y111266D01*
X36054Y114805D01*
X40678Y116721D01*
X45682Y116721D01*
X50306Y114805D01*
X53845Y111266D01*
X55761Y106642D01*
X55761Y101638D01*
X53845Y97014D01*
X50306Y93475D01*
X45682Y91559D01*
X40678Y91559D01*
G37*
%LPD*%
%LPC*%
G36*
X89491Y95611D02*
X89491Y95611D01*
X89491Y101621D01*
X92794Y101621D01*
X93441Y101448D01*
X94020Y101113D01*
X94493Y100640D01*
X94828Y100061D01*
X95001Y99414D01*
X95001Y95611D01*
X89491Y95611D01*
G37*
%LPD*%
%LPC*%
G36*
X90931Y48631D02*
X90931Y48631D01*
X90931Y54141D01*
X94734Y54141D01*
X95381Y53968D01*
X95960Y53633D01*
X96433Y53160D01*
X96768Y52581D01*
X96941Y51934D01*
X96941Y48631D01*
X90931Y48631D01*
G37*
%LPD*%
%LPC*%
G36*
X80859Y48631D02*
X80859Y48631D01*
X80859Y51934D01*
X81032Y52581D01*
X81367Y53160D01*
X81840Y53633D01*
X82419Y53968D01*
X83066Y54141D01*
X86869Y54141D01*
X86869Y48631D01*
X80859Y48631D01*
G37*
%LPD*%
%LPC*%
G36*
X79919Y95611D02*
X79919Y95611D01*
X79919Y99414D01*
X80092Y100061D01*
X80427Y100640D01*
X80900Y101113D01*
X81479Y101448D01*
X82126Y101621D01*
X85429Y101621D01*
X85429Y95611D01*
X79919Y95611D01*
G37*
%LPD*%
%LPC*%
G36*
X22079Y182089D02*
X22079Y182089D01*
X22229Y182843D01*
X22876Y184404D01*
X23815Y185810D01*
X25010Y187005D01*
X26416Y187944D01*
X27977Y188591D01*
X28731Y188741D01*
X28731Y182089D01*
X22079Y182089D01*
G37*
%LPD*%
%LPC*%
G36*
X27977Y172089D02*
X27977Y172089D01*
X26416Y172736D01*
X25010Y173675D01*
X23815Y174870D01*
X22876Y176276D01*
X22229Y177837D01*
X22079Y178591D01*
X28731Y178591D01*
X28731Y171939D01*
X27977Y172089D01*
G37*
%LPD*%
%LPC*%
G36*
X74229Y56834D02*
X74229Y56834D01*
X74229Y62151D01*
X78621Y62151D01*
X78621Y59041D01*
X78448Y58394D01*
X78113Y57815D01*
X77640Y57342D01*
X77061Y57007D01*
X76414Y56834D01*
X74229Y56834D01*
G37*
%LPD*%
%LPC*%
G36*
X68346Y56834D02*
X68346Y56834D01*
X67699Y57007D01*
X67120Y57342D01*
X66647Y57815D01*
X66312Y58394D01*
X66139Y59041D01*
X66139Y62151D01*
X70531Y62151D01*
X70531Y56834D01*
X68346Y56834D01*
G37*
%LPD*%
D10*
X30780Y28140D03*
X56180Y180140D03*
X43180Y165640D03*
X55880Y27940D03*
X30480Y180340D03*
D11*
X88900Y29600D03*
X88900Y46600D03*
D12*
X116920Y128886D02*
X132000Y128886D01*
X132000Y103486D02*
X116920Y103486D01*
X116920Y78086D02*
X132000Y78086D01*
D13*
X72380Y76000D03*
X72380Y64000D03*
D14*
X87460Y76580D03*
X87460Y93580D03*
D15*
X55880Y29600D02*
X55880Y27940D01*
X55880Y29600D02*
X88900Y29600D01*
D16*
X45720Y13970D03*
X16510Y41910D03*
X15240Y88900D03*
X69850Y195580D03*
X15240Y149860D03*
X41910Y64770D03*
X17780Y195580D03*
X99060Y15240D03*
X80010Y147320D03*
X100330Y96520D03*
X107950Y162560D03*
X62230Y86360D03*
X38100Y124460D03*
X80010Y113030D03*
X100330Y142240D03*
D17*
X100330Y116840D02*
X124460Y116840D01*
X124460Y128886D01*
X124460Y142240D02*
X100330Y142240D01*
X124460Y142240D02*
X124460Y128886D01*
D16*
X99060Y66040D03*
X59690Y154940D03*
X72390Y49530D03*
X59690Y119380D03*
D17*
X30480Y68580D02*
X30480Y28140D01*
X38100Y76200D02*
X72380Y76200D01*
X38100Y76200D02*
X30480Y68580D01*
X87460Y78086D02*
X124460Y78086D01*
X87460Y78086D02*
X87460Y76580D01*
X72380Y76000D02*
X72380Y174000D01*
X66040Y180340D01*
X56380Y180340D01*
X56180Y180140D01*
X30780Y28140D02*
X30480Y28140D01*
X72380Y76000D02*
X87460Y76000D01*
X87460Y76580D01*
X72380Y76200D02*
X72380Y76000D01*
D18*
X0Y5080D02*
X443Y5061D01*
X882Y5003D01*
X1315Y4907D01*
X1737Y4774D01*
X2147Y4604D01*
X2540Y4399D01*
X2914Y4161D01*
X3265Y3892D01*
X3592Y3592D01*
X3892Y3265D01*
X4161Y2914D01*
X4399Y2540D01*
X4604Y2147D01*
X4774Y1737D01*
X4907Y1315D01*
X5003Y882D01*
X5061Y443D01*
X5080Y0D01*
X114300Y0D01*
X114319Y443D01*
X114377Y882D01*
X114473Y1315D01*
X114606Y1737D01*
X114776Y2147D01*
X114981Y2540D01*
X115219Y2914D01*
X115489Y3265D01*
X115788Y3592D01*
X116115Y3892D01*
X116466Y4161D01*
X116840Y4399D01*
X117233Y4604D01*
X117643Y4774D01*
X118065Y4907D01*
X118498Y5003D01*
X118937Y5061D01*
X119380Y5080D01*
X119380Y50800D01*
X119399Y51243D01*
X119457Y51682D01*
X119553Y52115D01*
X119686Y52537D01*
X119856Y52947D01*
X120061Y53340D01*
X120299Y53714D01*
X120569Y54065D01*
X120868Y54392D01*
X121195Y54692D01*
X121546Y54961D01*
X121920Y55199D01*
X122313Y55404D01*
X122723Y55574D01*
X123145Y55707D01*
X123578Y55803D01*
X124017Y55861D01*
X124460Y55880D01*
X152400Y55880D01*
X152419Y56323D01*
X152477Y56762D01*
X152573Y57195D01*
X152706Y57617D01*
X152876Y58027D01*
X153081Y58420D01*
X153319Y58794D01*
X153589Y59145D01*
X153888Y59472D01*
X154215Y59772D01*
X154566Y60041D01*
X154940Y60279D01*
X155333Y60484D01*
X155743Y60654D01*
X156165Y60787D01*
X156598Y60883D01*
X157037Y60941D01*
X157480Y60960D01*
X157480Y144780D01*
X157037Y144799D01*
X156598Y144857D01*
X156165Y144953D01*
X155743Y145086D01*
X155333Y145256D01*
X154940Y145461D01*
X154566Y145699D01*
X154215Y145969D01*
X153888Y146268D01*
X153589Y146595D01*
X153319Y146946D01*
X153081Y147320D01*
X152876Y147713D01*
X152706Y148123D01*
X152573Y148545D01*
X152477Y148978D01*
X152419Y149417D01*
X152400Y149860D01*
X124460Y149860D01*
X124017Y149879D01*
X123578Y149937D01*
X123145Y150033D01*
X122723Y150166D01*
X122313Y150336D01*
X121920Y150541D01*
X121546Y150779D01*
X121195Y151049D01*
X120868Y151348D01*
X120569Y151675D01*
X120299Y152026D01*
X120061Y152400D01*
X119856Y152793D01*
X119686Y153203D01*
X119553Y153625D01*
X119457Y154058D01*
X119399Y154497D01*
X119380Y154940D01*
X119380Y203200D01*
X118937Y203219D01*
X118498Y203277D01*
X118065Y203373D01*
X117643Y203506D01*
X117233Y203676D01*
X116840Y203881D01*
X116466Y204119D01*
X116115Y204389D01*
X115788Y204688D01*
X115489Y205015D01*
X115219Y205366D01*
X114981Y205740D01*
X114776Y206133D01*
X114606Y206543D01*
X114473Y206965D01*
X114377Y207398D01*
X114319Y207837D01*
X114300Y208280D01*
X5080Y208280D01*
X5061Y207837D01*
X5003Y207398D01*
X4907Y206965D01*
X4774Y206543D01*
X4604Y206133D01*
X4399Y205740D01*
X4161Y205366D01*
X3892Y205015D01*
X3592Y204688D01*
X3265Y204389D01*
X2914Y204119D01*
X2540Y203881D01*
X2147Y203676D01*
X1737Y203506D01*
X1315Y203373D01*
X882Y203277D01*
X443Y203219D01*
X0Y203200D01*
X0Y5080D01*
M02*
