G04 EAGLE Gerber RS-274X export*
G75*
%MOMM*%
%FSLAX34Y34*%
%LPD*%
%IN*%
%IPPOS*%
%AMOC8*
5,1,8,0,0,1.08239X$1,22.5*%
G01*
%ADD10C,0.254000*%


D10*
X0Y5080D02*
X443Y5061D01*
X882Y5003D01*
X1315Y4907D01*
X1737Y4774D01*
X2147Y4604D01*
X2540Y4399D01*
X2914Y4161D01*
X3265Y3892D01*
X3592Y3592D01*
X3892Y3265D01*
X4161Y2914D01*
X4399Y2540D01*
X4604Y2147D01*
X4774Y1737D01*
X4907Y1315D01*
X5003Y882D01*
X5061Y443D01*
X5080Y0D01*
X114300Y0D01*
X114319Y443D01*
X114377Y882D01*
X114473Y1315D01*
X114606Y1737D01*
X114776Y2147D01*
X114981Y2540D01*
X115219Y2914D01*
X115489Y3265D01*
X115788Y3592D01*
X116115Y3892D01*
X116466Y4161D01*
X116840Y4399D01*
X117233Y4604D01*
X117643Y4774D01*
X118065Y4907D01*
X118498Y5003D01*
X118937Y5061D01*
X119380Y5080D01*
X119380Y50800D01*
X119399Y51243D01*
X119457Y51682D01*
X119553Y52115D01*
X119686Y52537D01*
X119856Y52947D01*
X120061Y53340D01*
X120299Y53714D01*
X120569Y54065D01*
X120868Y54392D01*
X121195Y54692D01*
X121546Y54961D01*
X121920Y55199D01*
X122313Y55404D01*
X122723Y55574D01*
X123145Y55707D01*
X123578Y55803D01*
X124017Y55861D01*
X124460Y55880D01*
X152400Y55880D01*
X152419Y56323D01*
X152477Y56762D01*
X152573Y57195D01*
X152706Y57617D01*
X152876Y58027D01*
X153081Y58420D01*
X153319Y58794D01*
X153589Y59145D01*
X153888Y59472D01*
X154215Y59772D01*
X154566Y60041D01*
X154940Y60279D01*
X155333Y60484D01*
X155743Y60654D01*
X156165Y60787D01*
X156598Y60883D01*
X157037Y60941D01*
X157480Y60960D01*
X157480Y144780D01*
X157037Y144799D01*
X156598Y144857D01*
X156165Y144953D01*
X155743Y145086D01*
X155333Y145256D01*
X154940Y145461D01*
X154566Y145699D01*
X154215Y145969D01*
X153888Y146268D01*
X153589Y146595D01*
X153319Y146946D01*
X153081Y147320D01*
X152876Y147713D01*
X152706Y148123D01*
X152573Y148545D01*
X152477Y148978D01*
X152419Y149417D01*
X152400Y149860D01*
X124460Y149860D01*
X124017Y149879D01*
X123578Y149937D01*
X123145Y150033D01*
X122723Y150166D01*
X122313Y150336D01*
X121920Y150541D01*
X121546Y150779D01*
X121195Y151049D01*
X120868Y151348D01*
X120569Y151675D01*
X120299Y152026D01*
X120061Y152400D01*
X119856Y152793D01*
X119686Y153203D01*
X119553Y153625D01*
X119457Y154058D01*
X119399Y154497D01*
X119380Y154940D01*
X119380Y203200D01*
X118937Y203219D01*
X118498Y203277D01*
X118065Y203373D01*
X117643Y203506D01*
X117233Y203676D01*
X116840Y203881D01*
X116466Y204119D01*
X116115Y204389D01*
X115788Y204688D01*
X115489Y205015D01*
X115219Y205366D01*
X114981Y205740D01*
X114776Y206133D01*
X114606Y206543D01*
X114473Y206965D01*
X114377Y207398D01*
X114319Y207837D01*
X114300Y208280D01*
X5080Y208280D01*
X5061Y207837D01*
X5003Y207398D01*
X4907Y206965D01*
X4774Y206543D01*
X4604Y206133D01*
X4399Y205740D01*
X4161Y205366D01*
X3892Y205015D01*
X3592Y204688D01*
X3265Y204389D01*
X2914Y204119D01*
X2540Y203881D01*
X2147Y203676D01*
X1737Y203506D01*
X1315Y203373D01*
X882Y203277D01*
X443Y203219D01*
X0Y203200D01*
X0Y5080D01*
X107020Y185007D02*
X106955Y184185D01*
X106826Y183370D01*
X106634Y182568D01*
X106379Y181783D01*
X106063Y181021D01*
X105688Y180286D01*
X105257Y179582D01*
X104772Y178915D01*
X104236Y178287D01*
X103653Y177704D01*
X103026Y177168D01*
X102358Y176683D01*
X101654Y176252D01*
X100919Y175877D01*
X100157Y175561D01*
X99372Y175306D01*
X98570Y175114D01*
X97755Y174985D01*
X96933Y174920D01*
X96107Y174920D01*
X95285Y174985D01*
X94470Y175114D01*
X93668Y175306D01*
X92883Y175561D01*
X92121Y175877D01*
X91386Y176252D01*
X90682Y176683D01*
X90015Y177168D01*
X89387Y177704D01*
X88804Y178287D01*
X88268Y178915D01*
X87783Y179582D01*
X87352Y180286D01*
X86977Y181021D01*
X86661Y181783D01*
X86406Y182568D01*
X86214Y183370D01*
X86085Y184185D01*
X86020Y185007D01*
X86020Y185833D01*
X86085Y186655D01*
X86214Y187470D01*
X86406Y188272D01*
X86661Y189057D01*
X86977Y189819D01*
X87352Y190554D01*
X87783Y191258D01*
X88268Y191926D01*
X88804Y192553D01*
X89387Y193136D01*
X90015Y193672D01*
X90682Y194157D01*
X91386Y194588D01*
X92121Y194963D01*
X92883Y195279D01*
X93668Y195534D01*
X94470Y195726D01*
X95285Y195855D01*
X96107Y195920D01*
X96933Y195920D01*
X97755Y195855D01*
X98570Y195726D01*
X99372Y195534D01*
X100157Y195279D01*
X100919Y194963D01*
X101654Y194588D01*
X102358Y194157D01*
X103026Y193672D01*
X103653Y193136D01*
X104236Y192553D01*
X104772Y191926D01*
X105257Y191258D01*
X105688Y190554D01*
X106063Y189819D01*
X106379Y189057D01*
X106634Y188272D01*
X106826Y187470D01*
X106955Y186655D01*
X107020Y185833D01*
X107020Y185007D01*
X43548Y111640D02*
X44282Y111568D01*
X45005Y111424D01*
X45710Y111210D01*
X46391Y110928D01*
X47040Y110581D01*
X47653Y110171D01*
X48223Y109704D01*
X48744Y109183D01*
X49211Y108613D01*
X49621Y108000D01*
X49968Y107351D01*
X50250Y106670D01*
X50464Y105965D01*
X50608Y105242D01*
X50680Y104508D01*
X50680Y103772D01*
X50608Y103038D01*
X50464Y102315D01*
X50250Y101610D01*
X49968Y100929D01*
X49621Y100280D01*
X49211Y99667D01*
X48744Y99097D01*
X48223Y98576D01*
X47653Y98109D01*
X47040Y97699D01*
X46391Y97352D01*
X45710Y97070D01*
X45005Y96856D01*
X44282Y96712D01*
X43548Y96640D01*
X42812Y96640D01*
X42078Y96712D01*
X41355Y96856D01*
X40650Y97070D01*
X39969Y97352D01*
X39320Y97699D01*
X38707Y98109D01*
X38137Y98576D01*
X37616Y99097D01*
X37149Y99667D01*
X36739Y100280D01*
X36392Y100929D01*
X36110Y101610D01*
X35896Y102315D01*
X35752Y103038D01*
X35680Y103772D01*
X35680Y104508D01*
X35752Y105242D01*
X35896Y105965D01*
X36110Y106670D01*
X36392Y107351D01*
X36739Y108000D01*
X37149Y108613D01*
X37616Y109183D01*
X38137Y109704D01*
X38707Y110171D01*
X39320Y110581D01*
X39969Y110928D01*
X40650Y111210D01*
X41355Y111424D01*
X42078Y111568D01*
X42812Y111640D01*
X43548Y111640D01*
X23409Y18140D02*
X23864Y18080D01*
X24307Y17961D01*
X24731Y17786D01*
X25129Y17556D01*
X25493Y17277D01*
X25817Y16953D01*
X26096Y16589D01*
X26326Y16191D01*
X26501Y15767D01*
X26620Y15324D01*
X26680Y14869D01*
X26680Y14411D01*
X26620Y13956D01*
X26501Y13513D01*
X26326Y13089D01*
X26096Y12691D01*
X25817Y12327D01*
X25493Y12003D01*
X25129Y11724D01*
X24731Y11494D01*
X24307Y11319D01*
X23864Y11200D01*
X23409Y11140D01*
X22951Y11140D01*
X22496Y11200D01*
X22053Y11319D01*
X21629Y11494D01*
X21231Y11724D01*
X20867Y12003D01*
X20543Y12327D01*
X20264Y12691D01*
X20034Y13089D01*
X19859Y13513D01*
X19740Y13956D01*
X19680Y14411D01*
X19680Y14869D01*
X19740Y15324D01*
X19859Y15767D01*
X20034Y16191D01*
X20264Y16589D01*
X20543Y16953D01*
X20867Y17277D01*
X21231Y17556D01*
X21629Y17786D01*
X22053Y17961D01*
X22496Y18080D01*
X22951Y18140D01*
X23409Y18140D01*
M02*
