G04 EAGLE Gerber RS-274X export*
G75*
%MOMM*%
%FSLAX34Y34*%
%LPD*%
%INSilkscreen Bottom*%
%IPPOS*%
%AMOC8*
5,1,8,0,0,1.08239X$1,22.5*%
G01*
%ADD10C,0.152400*%
%ADD11C,0.101600*%
%ADD12C,0.254000*%
%ADD13C,0.254000*%


D10*
X81398Y130020D02*
X79959Y130020D01*
X79959Y125222D01*
X82838Y125222D01*
X82924Y125224D01*
X83010Y125230D01*
X83096Y125239D01*
X83181Y125253D01*
X83265Y125270D01*
X83349Y125291D01*
X83431Y125316D01*
X83512Y125344D01*
X83592Y125376D01*
X83671Y125412D01*
X83747Y125451D01*
X83822Y125494D01*
X83895Y125539D01*
X83966Y125589D01*
X84034Y125641D01*
X84101Y125696D01*
X84164Y125754D01*
X84225Y125815D01*
X84283Y125878D01*
X84338Y125945D01*
X84391Y126013D01*
X84440Y126084D01*
X84485Y126157D01*
X84528Y126232D01*
X84567Y126308D01*
X84603Y126387D01*
X84635Y126467D01*
X84663Y126548D01*
X84688Y126631D01*
X84709Y126714D01*
X84726Y126798D01*
X84740Y126883D01*
X84749Y126969D01*
X84755Y127055D01*
X84757Y127141D01*
X84757Y131939D01*
X84755Y132025D01*
X84749Y132111D01*
X84740Y132197D01*
X84726Y132282D01*
X84709Y132366D01*
X84688Y132450D01*
X84663Y132532D01*
X84635Y132613D01*
X84603Y132693D01*
X84567Y132772D01*
X84528Y132848D01*
X84485Y132923D01*
X84440Y132996D01*
X84391Y133067D01*
X84338Y133135D01*
X84283Y133202D01*
X84225Y133265D01*
X84164Y133326D01*
X84101Y133384D01*
X84035Y133439D01*
X83966Y133491D01*
X83895Y133541D01*
X83822Y133586D01*
X83747Y133629D01*
X83671Y133668D01*
X83592Y133704D01*
X83512Y133736D01*
X83431Y133764D01*
X83349Y133789D01*
X83265Y133810D01*
X83181Y133827D01*
X83096Y133841D01*
X83010Y133850D01*
X82924Y133856D01*
X82838Y133858D01*
X79959Y133858D01*
X75003Y133858D02*
X75003Y125222D01*
X70206Y125222D02*
X75003Y133858D01*
X70206Y133858D02*
X70206Y125222D01*
X65250Y125222D02*
X65250Y133858D01*
X62851Y133858D01*
X62754Y133856D01*
X62658Y133850D01*
X62562Y133841D01*
X62466Y133827D01*
X62371Y133810D01*
X62277Y133788D01*
X62184Y133763D01*
X62091Y133735D01*
X62000Y133702D01*
X61911Y133666D01*
X61823Y133626D01*
X61736Y133583D01*
X61652Y133537D01*
X61569Y133487D01*
X61488Y133433D01*
X61410Y133377D01*
X61334Y133317D01*
X61260Y133255D01*
X61189Y133189D01*
X61121Y133121D01*
X61055Y133050D01*
X60993Y132976D01*
X60933Y132900D01*
X60877Y132822D01*
X60823Y132741D01*
X60773Y132659D01*
X60727Y132574D01*
X60684Y132487D01*
X60644Y132399D01*
X60608Y132310D01*
X60575Y132219D01*
X60547Y132126D01*
X60522Y132033D01*
X60500Y131939D01*
X60483Y131844D01*
X60469Y131748D01*
X60460Y131652D01*
X60454Y131556D01*
X60452Y131459D01*
X60452Y127621D01*
X60454Y127524D01*
X60460Y127428D01*
X60469Y127332D01*
X60483Y127236D01*
X60500Y127141D01*
X60522Y127047D01*
X60547Y126954D01*
X60575Y126861D01*
X60608Y126770D01*
X60644Y126681D01*
X60684Y126593D01*
X60727Y126506D01*
X60773Y126422D01*
X60823Y126339D01*
X60877Y126258D01*
X60933Y126180D01*
X60993Y126104D01*
X61055Y126030D01*
X61121Y125959D01*
X61189Y125891D01*
X61260Y125825D01*
X61334Y125763D01*
X61410Y125703D01*
X61488Y125647D01*
X61569Y125593D01*
X61651Y125543D01*
X61736Y125497D01*
X61823Y125454D01*
X61911Y125414D01*
X62000Y125378D01*
X62091Y125345D01*
X62184Y125317D01*
X62277Y125292D01*
X62371Y125270D01*
X62466Y125253D01*
X62562Y125239D01*
X62658Y125230D01*
X62754Y125224D01*
X62851Y125222D01*
X65250Y125222D01*
X86078Y108599D02*
X86078Y104761D01*
X86078Y108599D02*
X86076Y108696D01*
X86070Y108792D01*
X86061Y108888D01*
X86047Y108984D01*
X86030Y109079D01*
X86008Y109173D01*
X85983Y109266D01*
X85955Y109359D01*
X85922Y109450D01*
X85886Y109539D01*
X85846Y109627D01*
X85803Y109714D01*
X85757Y109799D01*
X85707Y109881D01*
X85653Y109962D01*
X85597Y110040D01*
X85537Y110116D01*
X85475Y110190D01*
X85409Y110261D01*
X85341Y110329D01*
X85270Y110395D01*
X85196Y110457D01*
X85120Y110517D01*
X85042Y110573D01*
X84961Y110627D01*
X84879Y110677D01*
X84794Y110723D01*
X84707Y110766D01*
X84619Y110806D01*
X84530Y110842D01*
X84439Y110875D01*
X84346Y110903D01*
X84253Y110928D01*
X84159Y110950D01*
X84064Y110967D01*
X83968Y110981D01*
X83872Y110990D01*
X83776Y110996D01*
X83679Y110998D01*
X83582Y110996D01*
X83486Y110990D01*
X83390Y110981D01*
X83294Y110967D01*
X83199Y110950D01*
X83105Y110928D01*
X83012Y110903D01*
X82919Y110875D01*
X82828Y110842D01*
X82739Y110806D01*
X82651Y110766D01*
X82564Y110723D01*
X82480Y110677D01*
X82397Y110627D01*
X82316Y110573D01*
X82238Y110517D01*
X82162Y110457D01*
X82088Y110395D01*
X82017Y110329D01*
X81949Y110261D01*
X81883Y110190D01*
X81821Y110116D01*
X81761Y110040D01*
X81705Y109962D01*
X81651Y109881D01*
X81601Y109799D01*
X81555Y109714D01*
X81512Y109627D01*
X81472Y109539D01*
X81436Y109450D01*
X81403Y109359D01*
X81375Y109266D01*
X81350Y109173D01*
X81328Y109079D01*
X81311Y108984D01*
X81297Y108888D01*
X81288Y108792D01*
X81282Y108696D01*
X81280Y108599D01*
X81280Y104761D01*
X81282Y104664D01*
X81288Y104568D01*
X81297Y104472D01*
X81311Y104376D01*
X81328Y104281D01*
X81350Y104187D01*
X81375Y104094D01*
X81403Y104001D01*
X81436Y103910D01*
X81472Y103821D01*
X81512Y103733D01*
X81555Y103646D01*
X81601Y103562D01*
X81651Y103479D01*
X81705Y103398D01*
X81761Y103320D01*
X81821Y103244D01*
X81883Y103170D01*
X81949Y103099D01*
X82017Y103031D01*
X82088Y102965D01*
X82162Y102903D01*
X82238Y102843D01*
X82316Y102787D01*
X82397Y102733D01*
X82479Y102683D01*
X82564Y102637D01*
X82651Y102594D01*
X82739Y102554D01*
X82828Y102518D01*
X82919Y102485D01*
X83012Y102457D01*
X83105Y102432D01*
X83199Y102410D01*
X83294Y102393D01*
X83390Y102379D01*
X83486Y102370D01*
X83582Y102364D01*
X83679Y102362D01*
X83776Y102364D01*
X83872Y102370D01*
X83968Y102379D01*
X84064Y102393D01*
X84159Y102410D01*
X84253Y102432D01*
X84346Y102457D01*
X84439Y102485D01*
X84530Y102518D01*
X84619Y102554D01*
X84707Y102594D01*
X84794Y102637D01*
X84878Y102683D01*
X84961Y102733D01*
X85042Y102787D01*
X85120Y102843D01*
X85196Y102903D01*
X85270Y102965D01*
X85341Y103031D01*
X85409Y103099D01*
X85475Y103170D01*
X85537Y103244D01*
X85597Y103320D01*
X85653Y103398D01*
X85707Y103479D01*
X85757Y103561D01*
X85803Y103646D01*
X85846Y103733D01*
X85886Y103821D01*
X85922Y103910D01*
X85955Y104001D01*
X85983Y104094D01*
X86008Y104187D01*
X86030Y104281D01*
X86047Y104376D01*
X86061Y104472D01*
X86070Y104568D01*
X86076Y104664D01*
X86078Y104761D01*
X76629Y104761D02*
X76629Y110998D01*
X76629Y104761D02*
X76627Y104664D01*
X76621Y104568D01*
X76612Y104472D01*
X76598Y104376D01*
X76581Y104281D01*
X76559Y104187D01*
X76534Y104094D01*
X76506Y104001D01*
X76473Y103910D01*
X76437Y103821D01*
X76397Y103733D01*
X76354Y103646D01*
X76308Y103561D01*
X76258Y103479D01*
X76204Y103398D01*
X76148Y103320D01*
X76088Y103244D01*
X76026Y103170D01*
X75960Y103099D01*
X75892Y103031D01*
X75821Y102965D01*
X75747Y102903D01*
X75671Y102843D01*
X75593Y102787D01*
X75512Y102733D01*
X75429Y102683D01*
X75345Y102637D01*
X75258Y102594D01*
X75170Y102554D01*
X75081Y102518D01*
X74990Y102485D01*
X74897Y102457D01*
X74804Y102432D01*
X74710Y102410D01*
X74615Y102393D01*
X74519Y102379D01*
X74423Y102370D01*
X74327Y102364D01*
X74230Y102362D01*
X74133Y102364D01*
X74037Y102370D01*
X73941Y102379D01*
X73845Y102393D01*
X73750Y102410D01*
X73656Y102432D01*
X73563Y102457D01*
X73470Y102485D01*
X73379Y102518D01*
X73290Y102554D01*
X73202Y102594D01*
X73115Y102637D01*
X73030Y102683D01*
X72948Y102733D01*
X72867Y102787D01*
X72789Y102843D01*
X72713Y102903D01*
X72639Y102965D01*
X72568Y103031D01*
X72500Y103099D01*
X72434Y103170D01*
X72372Y103244D01*
X72312Y103320D01*
X72256Y103398D01*
X72202Y103479D01*
X72152Y103562D01*
X72106Y103646D01*
X72063Y103733D01*
X72023Y103821D01*
X71987Y103910D01*
X71954Y104001D01*
X71926Y104094D01*
X71901Y104187D01*
X71879Y104281D01*
X71862Y104376D01*
X71848Y104472D01*
X71839Y104568D01*
X71833Y104664D01*
X71831Y104761D01*
X71831Y110998D01*
X65391Y110998D02*
X65391Y102362D01*
X67790Y110998D02*
X62992Y110998D01*
X62089Y73152D02*
X64488Y73152D01*
X62089Y73152D02*
X61992Y73154D01*
X61896Y73160D01*
X61800Y73169D01*
X61704Y73183D01*
X61609Y73200D01*
X61515Y73222D01*
X61422Y73247D01*
X61329Y73275D01*
X61238Y73308D01*
X61149Y73344D01*
X61061Y73384D01*
X60974Y73427D01*
X60889Y73473D01*
X60807Y73523D01*
X60726Y73577D01*
X60648Y73633D01*
X60572Y73693D01*
X60498Y73755D01*
X60427Y73821D01*
X60359Y73889D01*
X60293Y73960D01*
X60231Y74034D01*
X60171Y74110D01*
X60115Y74188D01*
X60061Y74269D01*
X60011Y74352D01*
X59965Y74436D01*
X59922Y74523D01*
X59882Y74611D01*
X59846Y74700D01*
X59813Y74791D01*
X59785Y74884D01*
X59760Y74977D01*
X59738Y75071D01*
X59721Y75166D01*
X59707Y75262D01*
X59698Y75358D01*
X59692Y75454D01*
X59690Y75551D01*
X59692Y75648D01*
X59698Y75744D01*
X59707Y75840D01*
X59721Y75936D01*
X59738Y76031D01*
X59760Y76125D01*
X59785Y76218D01*
X59813Y76311D01*
X59846Y76402D01*
X59882Y76491D01*
X59922Y76579D01*
X59965Y76666D01*
X60011Y76751D01*
X60061Y76833D01*
X60115Y76914D01*
X60171Y76992D01*
X60231Y77068D01*
X60293Y77142D01*
X60359Y77213D01*
X60427Y77281D01*
X60498Y77347D01*
X60572Y77409D01*
X60648Y77469D01*
X60726Y77525D01*
X60807Y77579D01*
X60890Y77629D01*
X60974Y77675D01*
X61061Y77718D01*
X61149Y77758D01*
X61238Y77794D01*
X61329Y77827D01*
X61422Y77855D01*
X61515Y77880D01*
X61609Y77902D01*
X61704Y77919D01*
X61800Y77933D01*
X61896Y77942D01*
X61992Y77948D01*
X62089Y77950D01*
X61609Y81788D02*
X64488Y81788D01*
X61609Y81788D02*
X61523Y81786D01*
X61437Y81780D01*
X61351Y81771D01*
X61266Y81757D01*
X61182Y81740D01*
X61098Y81719D01*
X61016Y81694D01*
X60935Y81666D01*
X60855Y81634D01*
X60776Y81598D01*
X60700Y81559D01*
X60625Y81516D01*
X60552Y81471D01*
X60481Y81422D01*
X60413Y81369D01*
X60346Y81314D01*
X60283Y81256D01*
X60222Y81195D01*
X60164Y81132D01*
X60109Y81065D01*
X60056Y80997D01*
X60007Y80926D01*
X59962Y80853D01*
X59919Y80778D01*
X59880Y80702D01*
X59844Y80623D01*
X59812Y80543D01*
X59784Y80462D01*
X59759Y80380D01*
X59738Y80296D01*
X59721Y80212D01*
X59707Y80127D01*
X59698Y80041D01*
X59692Y79955D01*
X59690Y79869D01*
X59692Y79783D01*
X59698Y79697D01*
X59707Y79611D01*
X59721Y79526D01*
X59738Y79442D01*
X59759Y79358D01*
X59784Y79276D01*
X59812Y79195D01*
X59844Y79115D01*
X59880Y79036D01*
X59919Y78960D01*
X59962Y78885D01*
X60007Y78812D01*
X60056Y78741D01*
X60109Y78673D01*
X60164Y78606D01*
X60222Y78543D01*
X60283Y78482D01*
X60346Y78424D01*
X60413Y78369D01*
X60481Y78316D01*
X60552Y78267D01*
X60625Y78222D01*
X60700Y78179D01*
X60776Y78140D01*
X60855Y78104D01*
X60935Y78072D01*
X61016Y78044D01*
X61098Y78019D01*
X61182Y77998D01*
X61266Y77981D01*
X61351Y77967D01*
X61437Y77958D01*
X61523Y77952D01*
X61609Y77950D01*
X63528Y77950D01*
X55824Y81788D02*
X52945Y73152D01*
X50066Y81788D01*
X46200Y73152D02*
X43801Y73152D01*
X43704Y73154D01*
X43608Y73160D01*
X43512Y73169D01*
X43416Y73183D01*
X43321Y73200D01*
X43227Y73222D01*
X43134Y73247D01*
X43041Y73275D01*
X42950Y73308D01*
X42861Y73344D01*
X42773Y73384D01*
X42686Y73427D01*
X42601Y73473D01*
X42519Y73523D01*
X42438Y73577D01*
X42360Y73633D01*
X42284Y73693D01*
X42210Y73755D01*
X42139Y73821D01*
X42071Y73889D01*
X42005Y73960D01*
X41943Y74034D01*
X41883Y74110D01*
X41827Y74188D01*
X41773Y74269D01*
X41723Y74352D01*
X41677Y74436D01*
X41634Y74523D01*
X41594Y74611D01*
X41558Y74700D01*
X41525Y74791D01*
X41497Y74884D01*
X41472Y74977D01*
X41450Y75071D01*
X41433Y75166D01*
X41419Y75262D01*
X41410Y75358D01*
X41404Y75454D01*
X41402Y75551D01*
X41404Y75648D01*
X41410Y75744D01*
X41419Y75840D01*
X41433Y75936D01*
X41450Y76031D01*
X41472Y76125D01*
X41497Y76218D01*
X41525Y76311D01*
X41558Y76402D01*
X41594Y76491D01*
X41634Y76579D01*
X41677Y76666D01*
X41723Y76751D01*
X41773Y76833D01*
X41827Y76914D01*
X41883Y76992D01*
X41943Y77068D01*
X42005Y77142D01*
X42071Y77213D01*
X42139Y77281D01*
X42210Y77347D01*
X42284Y77409D01*
X42360Y77469D01*
X42438Y77525D01*
X42519Y77579D01*
X42602Y77629D01*
X42686Y77675D01*
X42773Y77718D01*
X42861Y77758D01*
X42950Y77794D01*
X43041Y77827D01*
X43134Y77855D01*
X43227Y77880D01*
X43321Y77902D01*
X43416Y77919D01*
X43512Y77933D01*
X43608Y77942D01*
X43704Y77948D01*
X43801Y77950D01*
X43321Y81788D02*
X46200Y81788D01*
X43321Y81788D02*
X43235Y81786D01*
X43149Y81780D01*
X43063Y81771D01*
X42978Y81757D01*
X42894Y81740D01*
X42810Y81719D01*
X42728Y81694D01*
X42647Y81666D01*
X42567Y81634D01*
X42488Y81598D01*
X42412Y81559D01*
X42337Y81516D01*
X42264Y81471D01*
X42193Y81422D01*
X42125Y81369D01*
X42058Y81314D01*
X41995Y81256D01*
X41934Y81195D01*
X41876Y81132D01*
X41821Y81065D01*
X41768Y80997D01*
X41719Y80926D01*
X41674Y80853D01*
X41631Y80778D01*
X41592Y80702D01*
X41556Y80623D01*
X41524Y80543D01*
X41496Y80462D01*
X41471Y80380D01*
X41450Y80296D01*
X41433Y80212D01*
X41419Y80127D01*
X41410Y80041D01*
X41404Y79955D01*
X41402Y79869D01*
X41404Y79783D01*
X41410Y79697D01*
X41419Y79611D01*
X41433Y79526D01*
X41450Y79442D01*
X41471Y79358D01*
X41496Y79276D01*
X41524Y79195D01*
X41556Y79115D01*
X41592Y79036D01*
X41631Y78960D01*
X41674Y78885D01*
X41719Y78812D01*
X41768Y78741D01*
X41821Y78673D01*
X41876Y78606D01*
X41934Y78543D01*
X41995Y78482D01*
X42058Y78424D01*
X42125Y78369D01*
X42193Y78316D01*
X42264Y78267D01*
X42337Y78222D01*
X42412Y78179D01*
X42488Y78140D01*
X42567Y78104D01*
X42647Y78072D01*
X42728Y78044D01*
X42810Y78019D01*
X42894Y77998D01*
X42978Y77981D01*
X43063Y77967D01*
X43149Y77958D01*
X43235Y77952D01*
X43321Y77950D01*
X45240Y77950D01*
D11*
X98298Y32258D02*
X105410Y32258D01*
X105410Y34234D01*
X105408Y34321D01*
X105402Y34409D01*
X105393Y34496D01*
X105379Y34582D01*
X105362Y34668D01*
X105341Y34752D01*
X105316Y34836D01*
X105287Y34919D01*
X105255Y35000D01*
X105220Y35080D01*
X105181Y35158D01*
X105138Y35235D01*
X105092Y35309D01*
X105043Y35381D01*
X104991Y35451D01*
X104935Y35519D01*
X104877Y35584D01*
X104816Y35647D01*
X104752Y35706D01*
X104685Y35763D01*
X104617Y35817D01*
X104545Y35868D01*
X104472Y35915D01*
X104397Y35960D01*
X104319Y36001D01*
X104240Y36038D01*
X104160Y36072D01*
X104078Y36102D01*
X103995Y36129D01*
X103910Y36152D01*
X103825Y36171D01*
X103739Y36186D01*
X103652Y36198D01*
X103565Y36206D01*
X103478Y36210D01*
X103390Y36210D01*
X103303Y36206D01*
X103216Y36198D01*
X103129Y36186D01*
X103043Y36171D01*
X102958Y36152D01*
X102873Y36129D01*
X102790Y36102D01*
X102708Y36072D01*
X102628Y36038D01*
X102549Y36001D01*
X102471Y35960D01*
X102396Y35915D01*
X102323Y35868D01*
X102251Y35817D01*
X102183Y35763D01*
X102116Y35706D01*
X102052Y35647D01*
X101991Y35584D01*
X101933Y35519D01*
X101877Y35451D01*
X101825Y35381D01*
X101776Y35309D01*
X101730Y35235D01*
X101687Y35158D01*
X101648Y35080D01*
X101613Y35000D01*
X101581Y34919D01*
X101552Y34836D01*
X101527Y34752D01*
X101506Y34668D01*
X101489Y34582D01*
X101475Y34496D01*
X101466Y34409D01*
X101460Y34321D01*
X101458Y34234D01*
X101459Y34234D02*
X101459Y32258D01*
X101459Y34629D02*
X98298Y36209D01*
X103830Y39513D02*
X105410Y41488D01*
X98298Y41488D01*
X98298Y39513D02*
X98298Y43464D01*
D12*
X92710Y65386D02*
X92710Y141586D01*
X92710Y65386D02*
X111760Y65386D01*
X156210Y65386D01*
X156210Y141586D01*
X111760Y141586D01*
X92710Y141586D01*
X111760Y141586D02*
X111760Y65386D01*
D11*
X57970Y57419D02*
X57970Y55838D01*
X57972Y55760D01*
X57978Y55683D01*
X57987Y55606D01*
X58000Y55530D01*
X58017Y55454D01*
X58038Y55379D01*
X58062Y55306D01*
X58090Y55233D01*
X58122Y55162D01*
X58157Y55093D01*
X58195Y55026D01*
X58236Y54960D01*
X58281Y54897D01*
X58329Y54836D01*
X58379Y54777D01*
X58433Y54721D01*
X58489Y54667D01*
X58548Y54617D01*
X58609Y54569D01*
X58672Y54524D01*
X58738Y54483D01*
X58805Y54445D01*
X58874Y54410D01*
X58945Y54378D01*
X59018Y54350D01*
X59091Y54326D01*
X59166Y54305D01*
X59242Y54288D01*
X59318Y54275D01*
X59395Y54266D01*
X59472Y54260D01*
X59550Y54258D01*
X63502Y54258D01*
X63580Y54260D01*
X63657Y54266D01*
X63734Y54275D01*
X63810Y54288D01*
X63886Y54305D01*
X63961Y54326D01*
X64034Y54350D01*
X64107Y54378D01*
X64178Y54410D01*
X64247Y54445D01*
X64314Y54483D01*
X64380Y54524D01*
X64443Y54569D01*
X64504Y54617D01*
X64563Y54667D01*
X64619Y54721D01*
X64673Y54777D01*
X64723Y54836D01*
X64771Y54897D01*
X64816Y54960D01*
X64857Y55026D01*
X64895Y55093D01*
X64930Y55162D01*
X64962Y55233D01*
X64990Y55306D01*
X65014Y55379D01*
X65035Y55454D01*
X65052Y55530D01*
X65065Y55606D01*
X65074Y55683D01*
X65080Y55760D01*
X65082Y55838D01*
X65082Y57419D01*
X63502Y60381D02*
X65082Y62356D01*
X57970Y62356D01*
X57970Y60381D02*
X57970Y64332D01*
X96858Y78278D02*
X96858Y79859D01*
X96858Y78278D02*
X96860Y78200D01*
X96866Y78123D01*
X96875Y78046D01*
X96888Y77970D01*
X96905Y77894D01*
X96926Y77819D01*
X96950Y77746D01*
X96978Y77673D01*
X97010Y77602D01*
X97045Y77533D01*
X97083Y77466D01*
X97124Y77400D01*
X97169Y77337D01*
X97217Y77276D01*
X97267Y77217D01*
X97321Y77161D01*
X97377Y77107D01*
X97436Y77057D01*
X97497Y77009D01*
X97560Y76964D01*
X97626Y76923D01*
X97693Y76885D01*
X97762Y76850D01*
X97833Y76818D01*
X97906Y76790D01*
X97979Y76766D01*
X98054Y76745D01*
X98130Y76728D01*
X98206Y76715D01*
X98283Y76706D01*
X98360Y76700D01*
X98438Y76698D01*
X102390Y76698D01*
X102468Y76700D01*
X102545Y76706D01*
X102622Y76715D01*
X102698Y76728D01*
X102774Y76745D01*
X102849Y76766D01*
X102922Y76790D01*
X102995Y76818D01*
X103066Y76850D01*
X103135Y76885D01*
X103202Y76923D01*
X103268Y76964D01*
X103331Y77009D01*
X103392Y77057D01*
X103451Y77107D01*
X103507Y77161D01*
X103561Y77217D01*
X103611Y77276D01*
X103659Y77337D01*
X103704Y77400D01*
X103745Y77466D01*
X103783Y77533D01*
X103818Y77602D01*
X103850Y77673D01*
X103878Y77746D01*
X103902Y77819D01*
X103923Y77894D01*
X103940Y77970D01*
X103953Y78046D01*
X103962Y78123D01*
X103968Y78200D01*
X103970Y78278D01*
X103970Y79859D01*
X102390Y82821D02*
X103970Y84797D01*
X96858Y84797D01*
X96858Y86772D02*
X96858Y82821D01*
X102390Y90136D02*
X103970Y92112D01*
X96858Y92112D01*
X96858Y90136D02*
X96858Y94088D01*
D13*
X0Y5080D02*
X443Y5061D01*
X882Y5003D01*
X1315Y4907D01*
X1737Y4774D01*
X2147Y4604D01*
X2540Y4399D01*
X2914Y4161D01*
X3265Y3892D01*
X3592Y3592D01*
X3892Y3265D01*
X4161Y2914D01*
X4399Y2540D01*
X4604Y2147D01*
X4774Y1737D01*
X4907Y1315D01*
X5003Y882D01*
X5061Y443D01*
X5080Y0D01*
X114300Y0D01*
X114319Y443D01*
X114377Y882D01*
X114473Y1315D01*
X114606Y1737D01*
X114776Y2147D01*
X114981Y2540D01*
X115219Y2914D01*
X115489Y3265D01*
X115788Y3592D01*
X116115Y3892D01*
X116466Y4161D01*
X116840Y4399D01*
X117233Y4604D01*
X117643Y4774D01*
X118065Y4907D01*
X118498Y5003D01*
X118937Y5061D01*
X119380Y5080D01*
X119380Y50800D01*
X119399Y51243D01*
X119457Y51682D01*
X119553Y52115D01*
X119686Y52537D01*
X119856Y52947D01*
X120061Y53340D01*
X120299Y53714D01*
X120569Y54065D01*
X120868Y54392D01*
X121195Y54692D01*
X121546Y54961D01*
X121920Y55199D01*
X122313Y55404D01*
X122723Y55574D01*
X123145Y55707D01*
X123578Y55803D01*
X124017Y55861D01*
X124460Y55880D01*
X152400Y55880D01*
X152419Y56323D01*
X152477Y56762D01*
X152573Y57195D01*
X152706Y57617D01*
X152876Y58027D01*
X153081Y58420D01*
X153319Y58794D01*
X153589Y59145D01*
X153888Y59472D01*
X154215Y59772D01*
X154566Y60041D01*
X154940Y60279D01*
X155333Y60484D01*
X155743Y60654D01*
X156165Y60787D01*
X156598Y60883D01*
X157037Y60941D01*
X157480Y60960D01*
X157480Y144780D01*
X157037Y144799D01*
X156598Y144857D01*
X156165Y144953D01*
X155743Y145086D01*
X155333Y145256D01*
X154940Y145461D01*
X154566Y145699D01*
X154215Y145969D01*
X153888Y146268D01*
X153589Y146595D01*
X153319Y146946D01*
X153081Y147320D01*
X152876Y147713D01*
X152706Y148123D01*
X152573Y148545D01*
X152477Y148978D01*
X152419Y149417D01*
X152400Y149860D01*
X124460Y149860D01*
X124017Y149879D01*
X123578Y149937D01*
X123145Y150033D01*
X122723Y150166D01*
X122313Y150336D01*
X121920Y150541D01*
X121546Y150779D01*
X121195Y151049D01*
X120868Y151348D01*
X120569Y151675D01*
X120299Y152026D01*
X120061Y152400D01*
X119856Y152793D01*
X119686Y153203D01*
X119553Y153625D01*
X119457Y154058D01*
X119399Y154497D01*
X119380Y154940D01*
X119380Y203200D01*
X118937Y203219D01*
X118498Y203277D01*
X118065Y203373D01*
X117643Y203506D01*
X117233Y203676D01*
X116840Y203881D01*
X116466Y204119D01*
X116115Y204389D01*
X115788Y204688D01*
X115489Y205015D01*
X115219Y205366D01*
X114981Y205740D01*
X114776Y206133D01*
X114606Y206543D01*
X114473Y206965D01*
X114377Y207398D01*
X114319Y207837D01*
X114300Y208280D01*
X5080Y208280D01*
X5061Y207837D01*
X5003Y207398D01*
X4907Y206965D01*
X4774Y206543D01*
X4604Y206133D01*
X4399Y205740D01*
X4161Y205366D01*
X3892Y205015D01*
X3592Y204688D01*
X3265Y204389D01*
X2914Y204119D01*
X2540Y203881D01*
X2147Y203676D01*
X1737Y203506D01*
X1315Y203373D01*
X882Y203277D01*
X443Y203219D01*
X0Y203200D01*
X0Y5080D01*
M02*
