G04 EAGLE Gerber RS-274X export*
G75*
%MOMM*%
%FSLAX34Y34*%
%LPD*%
%INSilkscreen Bottom*%
%IPPOS*%
%AMOC8*
5,1,8,0,0,1.08239X$1,22.5*%
G01*
%ADD10C,0.152400*%
%ADD11C,0.101600*%
%ADD12C,0.254000*%


D10*
X81398Y130020D02*
X79959Y130020D01*
X79959Y125222D01*
X82838Y125222D01*
X82924Y125224D01*
X83010Y125230D01*
X83096Y125239D01*
X83181Y125253D01*
X83265Y125270D01*
X83349Y125291D01*
X83431Y125316D01*
X83512Y125344D01*
X83592Y125376D01*
X83671Y125412D01*
X83747Y125451D01*
X83822Y125494D01*
X83895Y125539D01*
X83966Y125589D01*
X84034Y125641D01*
X84101Y125696D01*
X84164Y125754D01*
X84225Y125815D01*
X84283Y125878D01*
X84338Y125945D01*
X84391Y126013D01*
X84440Y126084D01*
X84485Y126157D01*
X84528Y126232D01*
X84567Y126308D01*
X84603Y126387D01*
X84635Y126467D01*
X84663Y126548D01*
X84688Y126631D01*
X84709Y126714D01*
X84726Y126798D01*
X84740Y126883D01*
X84749Y126969D01*
X84755Y127055D01*
X84757Y127141D01*
X84757Y131939D01*
X84755Y132025D01*
X84749Y132111D01*
X84740Y132197D01*
X84726Y132282D01*
X84709Y132366D01*
X84688Y132450D01*
X84663Y132532D01*
X84635Y132613D01*
X84603Y132693D01*
X84567Y132772D01*
X84528Y132848D01*
X84485Y132923D01*
X84440Y132996D01*
X84391Y133067D01*
X84338Y133135D01*
X84283Y133202D01*
X84225Y133265D01*
X84164Y133326D01*
X84101Y133384D01*
X84035Y133439D01*
X83966Y133491D01*
X83895Y133541D01*
X83822Y133586D01*
X83747Y133629D01*
X83671Y133668D01*
X83592Y133704D01*
X83512Y133736D01*
X83431Y133764D01*
X83349Y133789D01*
X83265Y133810D01*
X83181Y133827D01*
X83096Y133841D01*
X83010Y133850D01*
X82924Y133856D01*
X82838Y133858D01*
X79959Y133858D01*
X75003Y133858D02*
X75003Y125222D01*
X70206Y125222D02*
X75003Y133858D01*
X70206Y133858D02*
X70206Y125222D01*
X65250Y125222D02*
X65250Y133858D01*
X62851Y133858D01*
X62754Y133856D01*
X62658Y133850D01*
X62562Y133841D01*
X62466Y133827D01*
X62371Y133810D01*
X62277Y133788D01*
X62184Y133763D01*
X62091Y133735D01*
X62000Y133702D01*
X61911Y133666D01*
X61823Y133626D01*
X61736Y133583D01*
X61652Y133537D01*
X61569Y133487D01*
X61488Y133433D01*
X61410Y133377D01*
X61334Y133317D01*
X61260Y133255D01*
X61189Y133189D01*
X61121Y133121D01*
X61055Y133050D01*
X60993Y132976D01*
X60933Y132900D01*
X60877Y132822D01*
X60823Y132741D01*
X60773Y132659D01*
X60727Y132574D01*
X60684Y132487D01*
X60644Y132399D01*
X60608Y132310D01*
X60575Y132219D01*
X60547Y132126D01*
X60522Y132033D01*
X60500Y131939D01*
X60483Y131844D01*
X60469Y131748D01*
X60460Y131652D01*
X60454Y131556D01*
X60452Y131459D01*
X60452Y127621D01*
X60454Y127524D01*
X60460Y127428D01*
X60469Y127332D01*
X60483Y127236D01*
X60500Y127141D01*
X60522Y127047D01*
X60547Y126954D01*
X60575Y126861D01*
X60608Y126770D01*
X60644Y126681D01*
X60684Y126593D01*
X60727Y126506D01*
X60773Y126422D01*
X60823Y126339D01*
X60877Y126258D01*
X60933Y126180D01*
X60993Y126104D01*
X61055Y126030D01*
X61121Y125959D01*
X61189Y125891D01*
X61260Y125825D01*
X61334Y125763D01*
X61410Y125703D01*
X61488Y125647D01*
X61569Y125593D01*
X61651Y125543D01*
X61736Y125497D01*
X61823Y125454D01*
X61911Y125414D01*
X62000Y125378D01*
X62091Y125345D01*
X62184Y125317D01*
X62277Y125292D01*
X62371Y125270D01*
X62466Y125253D01*
X62562Y125239D01*
X62658Y125230D01*
X62754Y125224D01*
X62851Y125222D01*
X65250Y125222D01*
X81484Y106200D02*
X81484Y104281D01*
X81484Y106200D02*
X81482Y106286D01*
X81476Y106372D01*
X81467Y106458D01*
X81453Y106543D01*
X81436Y106627D01*
X81415Y106711D01*
X81390Y106793D01*
X81362Y106874D01*
X81330Y106954D01*
X81294Y107033D01*
X81255Y107109D01*
X81212Y107184D01*
X81167Y107257D01*
X81118Y107328D01*
X81065Y107396D01*
X81010Y107463D01*
X80952Y107526D01*
X80891Y107587D01*
X80828Y107645D01*
X80761Y107700D01*
X80693Y107753D01*
X80622Y107802D01*
X80549Y107847D01*
X80474Y107890D01*
X80398Y107929D01*
X80319Y107965D01*
X80239Y107997D01*
X80158Y108025D01*
X80076Y108050D01*
X79992Y108071D01*
X79908Y108088D01*
X79823Y108102D01*
X79737Y108111D01*
X79651Y108117D01*
X79565Y108119D01*
X79479Y108117D01*
X79393Y108111D01*
X79307Y108102D01*
X79222Y108088D01*
X79138Y108071D01*
X79054Y108050D01*
X78972Y108025D01*
X78891Y107997D01*
X78811Y107965D01*
X78732Y107929D01*
X78656Y107890D01*
X78581Y107847D01*
X78508Y107802D01*
X78437Y107753D01*
X78369Y107700D01*
X78302Y107645D01*
X78239Y107587D01*
X78178Y107526D01*
X78120Y107463D01*
X78065Y107396D01*
X78012Y107328D01*
X77963Y107257D01*
X77918Y107184D01*
X77875Y107109D01*
X77836Y107033D01*
X77800Y106954D01*
X77768Y106874D01*
X77740Y106793D01*
X77715Y106711D01*
X77694Y106627D01*
X77677Y106543D01*
X77663Y106458D01*
X77654Y106372D01*
X77648Y106286D01*
X77646Y106200D01*
X77646Y104281D01*
X77648Y104195D01*
X77654Y104109D01*
X77663Y104023D01*
X77677Y103938D01*
X77694Y103854D01*
X77715Y103770D01*
X77740Y103688D01*
X77768Y103607D01*
X77800Y103527D01*
X77836Y103448D01*
X77875Y103372D01*
X77918Y103297D01*
X77963Y103224D01*
X78012Y103153D01*
X78065Y103085D01*
X78120Y103018D01*
X78178Y102955D01*
X78239Y102894D01*
X78302Y102836D01*
X78369Y102781D01*
X78437Y102728D01*
X78508Y102679D01*
X78581Y102634D01*
X78656Y102591D01*
X78732Y102552D01*
X78811Y102516D01*
X78891Y102484D01*
X78972Y102456D01*
X79054Y102431D01*
X79138Y102410D01*
X79222Y102393D01*
X79307Y102379D01*
X79393Y102370D01*
X79479Y102364D01*
X79565Y102362D01*
X79651Y102364D01*
X79737Y102370D01*
X79823Y102379D01*
X79908Y102393D01*
X79992Y102410D01*
X80076Y102431D01*
X80158Y102456D01*
X80239Y102484D01*
X80319Y102516D01*
X80398Y102552D01*
X80474Y102591D01*
X80549Y102634D01*
X80622Y102679D01*
X80693Y102728D01*
X80761Y102781D01*
X80828Y102836D01*
X80891Y102894D01*
X80952Y102955D01*
X81010Y103018D01*
X81065Y103085D01*
X81118Y103153D01*
X81167Y103224D01*
X81212Y103297D01*
X81255Y103372D01*
X81294Y103448D01*
X81330Y103527D01*
X81362Y103607D01*
X81390Y103688D01*
X81415Y103770D01*
X81436Y103854D01*
X81453Y103938D01*
X81467Y104023D01*
X81476Y104109D01*
X81482Y104195D01*
X81484Y104281D01*
X73255Y103801D02*
X73255Y108119D01*
X73254Y103801D02*
X73252Y103726D01*
X73246Y103651D01*
X73236Y103576D01*
X73223Y103502D01*
X73205Y103429D01*
X73184Y103356D01*
X73158Y103285D01*
X73130Y103216D01*
X73097Y103148D01*
X73061Y103082D01*
X73022Y103017D01*
X72979Y102955D01*
X72933Y102895D01*
X72884Y102838D01*
X72833Y102783D01*
X72778Y102732D01*
X72721Y102683D01*
X72661Y102637D01*
X72599Y102594D01*
X72535Y102555D01*
X72468Y102519D01*
X72400Y102486D01*
X72331Y102458D01*
X72260Y102432D01*
X72187Y102411D01*
X72114Y102393D01*
X72040Y102380D01*
X71965Y102370D01*
X71890Y102364D01*
X71815Y102362D01*
X69416Y102362D01*
X69416Y108119D01*
X65871Y108119D02*
X62992Y108119D01*
X64911Y110998D02*
X64911Y103801D01*
X64909Y103726D01*
X64903Y103651D01*
X64893Y103576D01*
X64880Y103502D01*
X64862Y103429D01*
X64841Y103356D01*
X64815Y103285D01*
X64787Y103216D01*
X64754Y103148D01*
X64718Y103082D01*
X64679Y103017D01*
X64636Y102955D01*
X64590Y102895D01*
X64541Y102838D01*
X64490Y102783D01*
X64435Y102732D01*
X64378Y102683D01*
X64318Y102637D01*
X64256Y102594D01*
X64192Y102555D01*
X64125Y102519D01*
X64057Y102486D01*
X63988Y102458D01*
X63917Y102432D01*
X63844Y102411D01*
X63771Y102393D01*
X63697Y102380D01*
X63622Y102370D01*
X63547Y102364D01*
X63472Y102362D01*
X62992Y102362D01*
X63359Y76962D02*
X65758Y76962D01*
X63359Y76962D02*
X63262Y76964D01*
X63166Y76970D01*
X63070Y76979D01*
X62974Y76993D01*
X62879Y77010D01*
X62785Y77032D01*
X62692Y77057D01*
X62599Y77085D01*
X62508Y77118D01*
X62419Y77154D01*
X62331Y77194D01*
X62244Y77237D01*
X62159Y77283D01*
X62077Y77333D01*
X61996Y77387D01*
X61918Y77443D01*
X61842Y77503D01*
X61768Y77565D01*
X61697Y77631D01*
X61629Y77699D01*
X61563Y77770D01*
X61501Y77844D01*
X61441Y77920D01*
X61385Y77998D01*
X61331Y78079D01*
X61281Y78162D01*
X61235Y78246D01*
X61192Y78333D01*
X61152Y78421D01*
X61116Y78510D01*
X61083Y78601D01*
X61055Y78694D01*
X61030Y78787D01*
X61008Y78881D01*
X60991Y78976D01*
X60977Y79072D01*
X60968Y79168D01*
X60962Y79264D01*
X60960Y79361D01*
X60962Y79458D01*
X60968Y79554D01*
X60977Y79650D01*
X60991Y79746D01*
X61008Y79841D01*
X61030Y79935D01*
X61055Y80028D01*
X61083Y80121D01*
X61116Y80212D01*
X61152Y80301D01*
X61192Y80389D01*
X61235Y80476D01*
X61281Y80561D01*
X61331Y80643D01*
X61385Y80724D01*
X61441Y80802D01*
X61501Y80878D01*
X61563Y80952D01*
X61629Y81023D01*
X61697Y81091D01*
X61768Y81157D01*
X61842Y81219D01*
X61918Y81279D01*
X61996Y81335D01*
X62077Y81389D01*
X62160Y81439D01*
X62244Y81485D01*
X62331Y81528D01*
X62419Y81568D01*
X62508Y81604D01*
X62599Y81637D01*
X62692Y81665D01*
X62785Y81690D01*
X62879Y81712D01*
X62974Y81729D01*
X63070Y81743D01*
X63166Y81752D01*
X63262Y81758D01*
X63359Y81760D01*
X62879Y85598D02*
X65758Y85598D01*
X62879Y85598D02*
X62793Y85596D01*
X62707Y85590D01*
X62621Y85581D01*
X62536Y85567D01*
X62452Y85550D01*
X62368Y85529D01*
X62286Y85504D01*
X62205Y85476D01*
X62125Y85444D01*
X62046Y85408D01*
X61970Y85369D01*
X61895Y85326D01*
X61822Y85281D01*
X61751Y85232D01*
X61683Y85179D01*
X61616Y85124D01*
X61553Y85066D01*
X61492Y85005D01*
X61434Y84942D01*
X61379Y84875D01*
X61326Y84807D01*
X61277Y84736D01*
X61232Y84663D01*
X61189Y84588D01*
X61150Y84512D01*
X61114Y84433D01*
X61082Y84353D01*
X61054Y84272D01*
X61029Y84190D01*
X61008Y84106D01*
X60991Y84022D01*
X60977Y83937D01*
X60968Y83851D01*
X60962Y83765D01*
X60960Y83679D01*
X60962Y83593D01*
X60968Y83507D01*
X60977Y83421D01*
X60991Y83336D01*
X61008Y83252D01*
X61029Y83168D01*
X61054Y83086D01*
X61082Y83005D01*
X61114Y82925D01*
X61150Y82846D01*
X61189Y82770D01*
X61232Y82695D01*
X61277Y82622D01*
X61326Y82551D01*
X61379Y82483D01*
X61434Y82416D01*
X61492Y82353D01*
X61553Y82292D01*
X61616Y82234D01*
X61683Y82179D01*
X61751Y82126D01*
X61822Y82077D01*
X61895Y82032D01*
X61970Y81989D01*
X62046Y81950D01*
X62125Y81914D01*
X62205Y81882D01*
X62286Y81854D01*
X62368Y81829D01*
X62452Y81808D01*
X62536Y81791D01*
X62621Y81777D01*
X62707Y81768D01*
X62793Y81762D01*
X62879Y81760D01*
X64798Y81760D01*
X57094Y85598D02*
X54215Y76962D01*
X51336Y85598D01*
X47470Y76962D02*
X45071Y76962D01*
X44974Y76964D01*
X44878Y76970D01*
X44782Y76979D01*
X44686Y76993D01*
X44591Y77010D01*
X44497Y77032D01*
X44404Y77057D01*
X44311Y77085D01*
X44220Y77118D01*
X44131Y77154D01*
X44043Y77194D01*
X43956Y77237D01*
X43871Y77283D01*
X43789Y77333D01*
X43708Y77387D01*
X43630Y77443D01*
X43554Y77503D01*
X43480Y77565D01*
X43409Y77631D01*
X43341Y77699D01*
X43275Y77770D01*
X43213Y77844D01*
X43153Y77920D01*
X43097Y77998D01*
X43043Y78079D01*
X42993Y78162D01*
X42947Y78246D01*
X42904Y78333D01*
X42864Y78421D01*
X42828Y78510D01*
X42795Y78601D01*
X42767Y78694D01*
X42742Y78787D01*
X42720Y78881D01*
X42703Y78976D01*
X42689Y79072D01*
X42680Y79168D01*
X42674Y79264D01*
X42672Y79361D01*
X42674Y79458D01*
X42680Y79554D01*
X42689Y79650D01*
X42703Y79746D01*
X42720Y79841D01*
X42742Y79935D01*
X42767Y80028D01*
X42795Y80121D01*
X42828Y80212D01*
X42864Y80301D01*
X42904Y80389D01*
X42947Y80476D01*
X42993Y80561D01*
X43043Y80643D01*
X43097Y80724D01*
X43153Y80802D01*
X43213Y80878D01*
X43275Y80952D01*
X43341Y81023D01*
X43409Y81091D01*
X43480Y81157D01*
X43554Y81219D01*
X43630Y81279D01*
X43708Y81335D01*
X43789Y81389D01*
X43872Y81439D01*
X43956Y81485D01*
X44043Y81528D01*
X44131Y81568D01*
X44220Y81604D01*
X44311Y81637D01*
X44404Y81665D01*
X44497Y81690D01*
X44591Y81712D01*
X44686Y81729D01*
X44782Y81743D01*
X44878Y81752D01*
X44974Y81758D01*
X45071Y81760D01*
X44591Y85598D02*
X47470Y85598D01*
X44591Y85598D02*
X44505Y85596D01*
X44419Y85590D01*
X44333Y85581D01*
X44248Y85567D01*
X44164Y85550D01*
X44080Y85529D01*
X43998Y85504D01*
X43917Y85476D01*
X43837Y85444D01*
X43758Y85408D01*
X43682Y85369D01*
X43607Y85326D01*
X43534Y85281D01*
X43463Y85232D01*
X43395Y85179D01*
X43328Y85124D01*
X43265Y85066D01*
X43204Y85005D01*
X43146Y84942D01*
X43091Y84875D01*
X43038Y84807D01*
X42989Y84736D01*
X42944Y84663D01*
X42901Y84588D01*
X42862Y84512D01*
X42826Y84433D01*
X42794Y84353D01*
X42766Y84272D01*
X42741Y84190D01*
X42720Y84106D01*
X42703Y84022D01*
X42689Y83937D01*
X42680Y83851D01*
X42674Y83765D01*
X42672Y83679D01*
X42674Y83593D01*
X42680Y83507D01*
X42689Y83421D01*
X42703Y83336D01*
X42720Y83252D01*
X42741Y83168D01*
X42766Y83086D01*
X42794Y83005D01*
X42826Y82925D01*
X42862Y82846D01*
X42901Y82770D01*
X42944Y82695D01*
X42989Y82622D01*
X43038Y82551D01*
X43091Y82483D01*
X43146Y82416D01*
X43204Y82353D01*
X43265Y82292D01*
X43328Y82234D01*
X43395Y82179D01*
X43463Y82126D01*
X43534Y82077D01*
X43607Y82032D01*
X43682Y81989D01*
X43758Y81950D01*
X43837Y81914D01*
X43917Y81882D01*
X43998Y81854D01*
X44080Y81829D01*
X44164Y81808D01*
X44248Y81791D01*
X44333Y81777D01*
X44419Y81768D01*
X44505Y81762D01*
X44591Y81760D01*
X46510Y81760D01*
D11*
X98298Y32258D02*
X105410Y32258D01*
X105410Y34234D01*
X105408Y34321D01*
X105402Y34409D01*
X105393Y34496D01*
X105379Y34582D01*
X105362Y34668D01*
X105341Y34752D01*
X105316Y34836D01*
X105287Y34919D01*
X105255Y35000D01*
X105220Y35080D01*
X105181Y35158D01*
X105138Y35235D01*
X105092Y35309D01*
X105043Y35381D01*
X104991Y35451D01*
X104935Y35519D01*
X104877Y35584D01*
X104816Y35647D01*
X104752Y35706D01*
X104685Y35763D01*
X104617Y35817D01*
X104545Y35868D01*
X104472Y35915D01*
X104397Y35960D01*
X104319Y36001D01*
X104240Y36038D01*
X104160Y36072D01*
X104078Y36102D01*
X103995Y36129D01*
X103910Y36152D01*
X103825Y36171D01*
X103739Y36186D01*
X103652Y36198D01*
X103565Y36206D01*
X103478Y36210D01*
X103390Y36210D01*
X103303Y36206D01*
X103216Y36198D01*
X103129Y36186D01*
X103043Y36171D01*
X102958Y36152D01*
X102873Y36129D01*
X102790Y36102D01*
X102708Y36072D01*
X102628Y36038D01*
X102549Y36001D01*
X102471Y35960D01*
X102396Y35915D01*
X102323Y35868D01*
X102251Y35817D01*
X102183Y35763D01*
X102116Y35706D01*
X102052Y35647D01*
X101991Y35584D01*
X101933Y35519D01*
X101877Y35451D01*
X101825Y35381D01*
X101776Y35309D01*
X101730Y35235D01*
X101687Y35158D01*
X101648Y35080D01*
X101613Y35000D01*
X101581Y34919D01*
X101552Y34836D01*
X101527Y34752D01*
X101506Y34668D01*
X101489Y34582D01*
X101475Y34496D01*
X101466Y34409D01*
X101460Y34321D01*
X101458Y34234D01*
X101459Y34234D02*
X101459Y32258D01*
X101459Y34629D02*
X98298Y36209D01*
X103830Y39513D02*
X105410Y41488D01*
X98298Y41488D01*
X98298Y39513D02*
X98298Y43464D01*
D12*
X92710Y65386D02*
X92710Y141586D01*
X92710Y65386D02*
X111760Y65386D01*
X156210Y65386D01*
X156210Y141586D01*
X111760Y141586D01*
X92710Y141586D01*
X111760Y141586D02*
X111760Y65386D01*
D11*
X114965Y147320D02*
X114965Y154432D01*
X114965Y147320D02*
X111804Y147320D01*
X108375Y147320D02*
X108375Y154432D01*
X109165Y147320D02*
X107585Y147320D01*
X107585Y154432D02*
X109165Y154432D01*
X102945Y147320D02*
X101365Y147320D01*
X102945Y147320D02*
X103023Y147322D01*
X103100Y147328D01*
X103177Y147337D01*
X103253Y147350D01*
X103329Y147367D01*
X103404Y147388D01*
X103477Y147412D01*
X103550Y147440D01*
X103621Y147472D01*
X103690Y147507D01*
X103757Y147545D01*
X103823Y147586D01*
X103886Y147631D01*
X103947Y147679D01*
X104006Y147729D01*
X104062Y147783D01*
X104116Y147839D01*
X104166Y147898D01*
X104214Y147959D01*
X104259Y148022D01*
X104300Y148088D01*
X104338Y148155D01*
X104373Y148224D01*
X104405Y148295D01*
X104433Y148368D01*
X104457Y148441D01*
X104478Y148516D01*
X104495Y148592D01*
X104508Y148668D01*
X104517Y148745D01*
X104523Y148822D01*
X104525Y148900D01*
X104526Y148900D02*
X104526Y152852D01*
X104525Y152852D02*
X104523Y152930D01*
X104517Y153007D01*
X104508Y153084D01*
X104495Y153160D01*
X104478Y153236D01*
X104457Y153311D01*
X104433Y153384D01*
X104405Y153457D01*
X104373Y153528D01*
X104338Y153597D01*
X104300Y153664D01*
X104259Y153730D01*
X104214Y153793D01*
X104166Y153854D01*
X104116Y153913D01*
X104062Y153969D01*
X104006Y154023D01*
X103947Y154073D01*
X103886Y154121D01*
X103823Y154166D01*
X103757Y154207D01*
X103690Y154245D01*
X103621Y154280D01*
X103550Y154312D01*
X103477Y154340D01*
X103404Y154364D01*
X103329Y154385D01*
X103253Y154402D01*
X103177Y154415D01*
X103100Y154424D01*
X103023Y154430D01*
X102945Y154432D01*
X101365Y154432D01*
X98020Y154432D02*
X98020Y147320D01*
X98020Y150086D02*
X94069Y154432D01*
X96440Y151666D02*
X94069Y147320D01*
X91424Y146530D02*
X88263Y146530D01*
X84853Y147320D02*
X84853Y154432D01*
X82877Y154432D01*
X82790Y154430D01*
X82702Y154424D01*
X82615Y154415D01*
X82529Y154401D01*
X82443Y154384D01*
X82359Y154363D01*
X82275Y154338D01*
X82192Y154309D01*
X82111Y154277D01*
X82031Y154242D01*
X81953Y154203D01*
X81876Y154160D01*
X81802Y154114D01*
X81730Y154065D01*
X81660Y154013D01*
X81592Y153957D01*
X81527Y153899D01*
X81464Y153838D01*
X81405Y153774D01*
X81348Y153707D01*
X81294Y153639D01*
X81243Y153567D01*
X81196Y153494D01*
X81151Y153419D01*
X81110Y153341D01*
X81073Y153262D01*
X81039Y153182D01*
X81009Y153100D01*
X80982Y153017D01*
X80959Y152932D01*
X80940Y152847D01*
X80925Y152761D01*
X80913Y152674D01*
X80905Y152587D01*
X80901Y152500D01*
X80901Y152412D01*
X80905Y152325D01*
X80913Y152238D01*
X80925Y152151D01*
X80940Y152065D01*
X80959Y151980D01*
X80982Y151895D01*
X81009Y151812D01*
X81039Y151730D01*
X81073Y151650D01*
X81110Y151571D01*
X81151Y151493D01*
X81196Y151418D01*
X81243Y151345D01*
X81294Y151273D01*
X81348Y151205D01*
X81405Y151138D01*
X81464Y151074D01*
X81527Y151013D01*
X81592Y150955D01*
X81660Y150899D01*
X81730Y150847D01*
X81802Y150798D01*
X81876Y150752D01*
X81953Y150709D01*
X82031Y150670D01*
X82111Y150635D01*
X82192Y150603D01*
X82275Y150574D01*
X82359Y150549D01*
X82443Y150528D01*
X82529Y150511D01*
X82615Y150497D01*
X82702Y150488D01*
X82790Y150482D01*
X82877Y150480D01*
X82877Y150481D02*
X84853Y150481D01*
X77920Y149296D02*
X77920Y152456D01*
X77921Y152456D02*
X77919Y152543D01*
X77913Y152631D01*
X77904Y152718D01*
X77890Y152804D01*
X77873Y152890D01*
X77852Y152974D01*
X77827Y153058D01*
X77798Y153141D01*
X77766Y153222D01*
X77731Y153302D01*
X77692Y153380D01*
X77649Y153457D01*
X77603Y153531D01*
X77554Y153603D01*
X77502Y153673D01*
X77446Y153741D01*
X77388Y153806D01*
X77327Y153869D01*
X77263Y153928D01*
X77196Y153985D01*
X77128Y154039D01*
X77056Y154090D01*
X76983Y154137D01*
X76908Y154182D01*
X76830Y154223D01*
X76751Y154260D01*
X76671Y154294D01*
X76589Y154324D01*
X76506Y154351D01*
X76421Y154374D01*
X76336Y154393D01*
X76250Y154408D01*
X76163Y154420D01*
X76076Y154428D01*
X75989Y154432D01*
X75901Y154432D01*
X75814Y154428D01*
X75727Y154420D01*
X75640Y154408D01*
X75554Y154393D01*
X75469Y154374D01*
X75384Y154351D01*
X75301Y154324D01*
X75219Y154294D01*
X75139Y154260D01*
X75060Y154223D01*
X74982Y154182D01*
X74907Y154137D01*
X74834Y154090D01*
X74762Y154039D01*
X74694Y153985D01*
X74627Y153928D01*
X74563Y153869D01*
X74502Y153806D01*
X74444Y153741D01*
X74388Y153673D01*
X74336Y153603D01*
X74287Y153531D01*
X74241Y153457D01*
X74198Y153380D01*
X74159Y153302D01*
X74124Y153222D01*
X74092Y153141D01*
X74063Y153058D01*
X74038Y152974D01*
X74017Y152890D01*
X74000Y152804D01*
X73986Y152718D01*
X73977Y152631D01*
X73971Y152543D01*
X73969Y152456D01*
X73969Y149296D01*
X73971Y149209D01*
X73977Y149121D01*
X73986Y149034D01*
X74000Y148948D01*
X74017Y148862D01*
X74038Y148778D01*
X74063Y148694D01*
X74092Y148611D01*
X74124Y148530D01*
X74159Y148450D01*
X74198Y148372D01*
X74241Y148295D01*
X74287Y148221D01*
X74336Y148149D01*
X74388Y148079D01*
X74444Y148011D01*
X74502Y147946D01*
X74563Y147883D01*
X74627Y147824D01*
X74694Y147767D01*
X74762Y147713D01*
X74834Y147662D01*
X74907Y147615D01*
X74982Y147570D01*
X75060Y147529D01*
X75139Y147492D01*
X75219Y147458D01*
X75301Y147428D01*
X75384Y147401D01*
X75469Y147378D01*
X75554Y147359D01*
X75640Y147344D01*
X75727Y147332D01*
X75814Y147324D01*
X75901Y147320D01*
X75989Y147320D01*
X76076Y147324D01*
X76163Y147332D01*
X76250Y147344D01*
X76336Y147359D01*
X76421Y147378D01*
X76506Y147401D01*
X76589Y147428D01*
X76671Y147458D01*
X76751Y147492D01*
X76830Y147529D01*
X76908Y147570D01*
X76983Y147615D01*
X77056Y147662D01*
X77128Y147713D01*
X77196Y147767D01*
X77263Y147824D01*
X77327Y147883D01*
X77388Y147946D01*
X77446Y148011D01*
X77502Y148079D01*
X77554Y148149D01*
X77603Y148221D01*
X77649Y148295D01*
X77692Y148372D01*
X77731Y148450D01*
X77766Y148530D01*
X77798Y148611D01*
X77827Y148694D01*
X77852Y148778D01*
X77873Y148862D01*
X77890Y148948D01*
X77904Y149034D01*
X77913Y149121D01*
X77919Y149209D01*
X77921Y149296D01*
X70301Y147320D02*
X70301Y154432D01*
X68325Y154432D01*
X68238Y154430D01*
X68150Y154424D01*
X68063Y154415D01*
X67977Y154401D01*
X67891Y154384D01*
X67807Y154363D01*
X67723Y154338D01*
X67640Y154309D01*
X67559Y154277D01*
X67479Y154242D01*
X67401Y154203D01*
X67324Y154160D01*
X67250Y154114D01*
X67178Y154065D01*
X67108Y154013D01*
X67040Y153957D01*
X66975Y153899D01*
X66912Y153838D01*
X66853Y153774D01*
X66796Y153707D01*
X66742Y153639D01*
X66691Y153567D01*
X66644Y153494D01*
X66599Y153419D01*
X66558Y153341D01*
X66521Y153262D01*
X66487Y153182D01*
X66457Y153100D01*
X66430Y153017D01*
X66407Y152932D01*
X66388Y152847D01*
X66373Y152761D01*
X66361Y152674D01*
X66353Y152587D01*
X66349Y152500D01*
X66349Y152412D01*
X66353Y152325D01*
X66361Y152238D01*
X66373Y152151D01*
X66388Y152065D01*
X66407Y151980D01*
X66430Y151895D01*
X66457Y151812D01*
X66487Y151730D01*
X66521Y151650D01*
X66558Y151571D01*
X66599Y151493D01*
X66644Y151418D01*
X66691Y151345D01*
X66742Y151273D01*
X66796Y151205D01*
X66853Y151138D01*
X66912Y151074D01*
X66975Y151013D01*
X67040Y150955D01*
X67108Y150899D01*
X67178Y150847D01*
X67250Y150798D01*
X67324Y150752D01*
X67401Y150709D01*
X67479Y150670D01*
X67559Y150635D01*
X67640Y150603D01*
X67723Y150574D01*
X67807Y150549D01*
X67891Y150528D01*
X67977Y150511D01*
X68063Y150497D01*
X68150Y150488D01*
X68238Y150482D01*
X68325Y150480D01*
X68325Y150481D02*
X70301Y150481D01*
X67930Y150481D02*
X66350Y147320D01*
X61558Y147320D02*
X61558Y154432D01*
X59583Y154432D02*
X63534Y154432D01*
X57970Y57419D02*
X57970Y55838D01*
X57972Y55760D01*
X57978Y55683D01*
X57987Y55606D01*
X58000Y55530D01*
X58017Y55454D01*
X58038Y55379D01*
X58062Y55306D01*
X58090Y55233D01*
X58122Y55162D01*
X58157Y55093D01*
X58195Y55026D01*
X58236Y54960D01*
X58281Y54897D01*
X58329Y54836D01*
X58379Y54777D01*
X58433Y54721D01*
X58489Y54667D01*
X58548Y54617D01*
X58609Y54569D01*
X58672Y54524D01*
X58738Y54483D01*
X58805Y54445D01*
X58874Y54410D01*
X58945Y54378D01*
X59018Y54350D01*
X59091Y54326D01*
X59166Y54305D01*
X59242Y54288D01*
X59318Y54275D01*
X59395Y54266D01*
X59472Y54260D01*
X59550Y54258D01*
X63502Y54258D01*
X63580Y54260D01*
X63657Y54266D01*
X63734Y54275D01*
X63810Y54288D01*
X63886Y54305D01*
X63961Y54326D01*
X64034Y54350D01*
X64107Y54378D01*
X64178Y54410D01*
X64247Y54445D01*
X64314Y54483D01*
X64380Y54524D01*
X64443Y54569D01*
X64504Y54617D01*
X64563Y54667D01*
X64619Y54721D01*
X64673Y54777D01*
X64723Y54836D01*
X64771Y54897D01*
X64816Y54960D01*
X64857Y55026D01*
X64895Y55093D01*
X64930Y55162D01*
X64962Y55233D01*
X64990Y55306D01*
X65014Y55379D01*
X65035Y55454D01*
X65052Y55530D01*
X65065Y55606D01*
X65074Y55683D01*
X65080Y55760D01*
X65082Y55838D01*
X65082Y57419D01*
X63502Y60381D02*
X65082Y62356D01*
X57970Y62356D01*
X57970Y60381D02*
X57970Y64332D01*
X96858Y78278D02*
X96858Y79859D01*
X96858Y78278D02*
X96860Y78200D01*
X96866Y78123D01*
X96875Y78046D01*
X96888Y77970D01*
X96905Y77894D01*
X96926Y77819D01*
X96950Y77746D01*
X96978Y77673D01*
X97010Y77602D01*
X97045Y77533D01*
X97083Y77466D01*
X97124Y77400D01*
X97169Y77337D01*
X97217Y77276D01*
X97267Y77217D01*
X97321Y77161D01*
X97377Y77107D01*
X97436Y77057D01*
X97497Y77009D01*
X97560Y76964D01*
X97626Y76923D01*
X97693Y76885D01*
X97762Y76850D01*
X97833Y76818D01*
X97906Y76790D01*
X97979Y76766D01*
X98054Y76745D01*
X98130Y76728D01*
X98206Y76715D01*
X98283Y76706D01*
X98360Y76700D01*
X98438Y76698D01*
X102390Y76698D01*
X102468Y76700D01*
X102545Y76706D01*
X102622Y76715D01*
X102698Y76728D01*
X102774Y76745D01*
X102849Y76766D01*
X102922Y76790D01*
X102995Y76818D01*
X103066Y76850D01*
X103135Y76885D01*
X103202Y76923D01*
X103268Y76964D01*
X103331Y77009D01*
X103392Y77057D01*
X103451Y77107D01*
X103507Y77161D01*
X103561Y77217D01*
X103611Y77276D01*
X103659Y77337D01*
X103704Y77400D01*
X103745Y77466D01*
X103783Y77533D01*
X103818Y77602D01*
X103850Y77673D01*
X103878Y77746D01*
X103902Y77819D01*
X103923Y77894D01*
X103940Y77970D01*
X103953Y78046D01*
X103962Y78123D01*
X103968Y78200D01*
X103970Y78278D01*
X103970Y79859D01*
X102390Y82821D02*
X103970Y84797D01*
X96858Y84797D01*
X96858Y86772D02*
X96858Y82821D01*
X102390Y90136D02*
X103970Y92112D01*
X96858Y92112D01*
X96858Y90136D02*
X96858Y94088D01*
M02*
