M48
; DRILL file {KiCad (5.1.4)-1} date 11/03/2020 17:26:59
; FORMAT={-:-/ absolute / metric / decimal}
; #@! TF.CreationDate,2020-03-11T17:26:59+00:00
; #@! TF.GenerationSoftware,Kicad,Pcbnew,(5.1.4)-1
; #@! TF.FileFunction,NonPlated,1,4,NPTH
FMAT,2
METRIC
T1C0.800
T2C1.500
T3C1.700
T4C2.050
T5C2.800
T6C3.200
%
G90
G05
T1
X81.127Y66.317
X81.127Y59.817
X85.877Y66.317
X85.877Y59.817
X92.273Y66.317
X92.273Y59.817
X97.023Y66.317
X97.023Y59.817
X121.831Y31.485
X121.831Y24.985
X126.581Y31.485
X126.581Y24.985
X81.127Y55.649
X81.127Y49.149
X85.877Y55.649
X85.877Y49.149
X99.225Y31.485
X99.225Y24.985
X103.975Y31.485
X103.975Y24.985
X92.273Y55.649
X92.273Y49.149
X97.023Y55.649
X97.023Y49.149
X46.086Y9.055
X46.086Y4.305
X52.586Y9.055
X52.586Y4.305
X143.675Y31.485
X143.675Y24.985
X148.425Y31.485
X148.425Y24.985
T2
X13.415Y86.875
X23.415Y86.875
X34.688Y86.875
X44.688Y86.875
X55.96Y86.875
X65.96Y86.875
T3
X28.967Y-19.689
X28.967Y-26.689
X15.609Y-19.689
X15.609Y-26.689
T4
X-10.865Y-19.533
X4.135Y-19.533
T5
X-10.865Y-23.533
X4.135Y-23.533
T6
X-6.752Y-2.609
X89.306Y70.828
X30.162Y70.828
X142.748Y11.091
X64.648Y36.691
T0
M30
