M48
; DRILL file {KiCad (5.1.4)-1} date 11/03/2020 17:26:59
; FORMAT={-:-/ absolute / metric / decimal}
; #@! TF.CreationDate,2020-03-11T17:26:59+00:00
; #@! TF.GenerationSoftware,Kicad,Pcbnew,(5.1.4)-1
; #@! TF.FileFunction,Plated,1,4,PTH
FMAT,2
METRIC
T1C0.250
T2C0.500
T3C0.800
T4C0.889
T5C0.920
T6C1.000
T7C1.200
T8C2.032
T9C2.330
T10C3.000
%
G90
G05
T1
X-12.776Y57.683
X-12.7Y86.639
X-12.7Y80.289
X-12.7Y70.129
X-12.7Y65.811
X-12.509Y-18.39
X-12.452Y48.466
X-12.446Y75.209
X-12.446Y61.239
X-12.446Y42.697
X-12.192Y24.409
X-12.192Y9.677
X-12.192Y-9.881
X-12.065Y18.059
X-12.002Y52.641
X-11.938Y5.105
X-11.938Y0.279
X-11.938Y-4.801
X-11.684Y33.553
X-11.684Y-14.453
X-11.268Y82.575
X-11.176Y76.733
X-11.125Y55.753
X-10.9Y37.8
X-10.702Y59.641
X-10.652Y85.291
X-10.414Y67.843
X-10.414Y63.271
X-10.16Y72.923
X-10.008Y28.931
X-9.652Y44.983
X-9.652Y-7.009
X-9.398Y13.614
X-9.252Y48.991
X-8.877Y58.441
X-8.763Y20.853
X-8.636Y-26.899
X-8.6Y42.6
X-8.382Y-12.167
X-8.382Y-19.279
X-8.382Y-22.581
X-8.274Y53.041
X-7.752Y86.893
X-7.62Y59.969
X-7.502Y57.691
X-7.493Y52.248
X-7.366Y66.573
X-7.366Y27.457
X-7.152Y4.491
X-6.96Y77.978
X-6.858Y72.161
X-6.655Y84.353
X-6.502Y-8.255
X-6.481Y58.445
X-6.382Y14.921
X-6.352Y88.491
X-6.223Y48.285
X-6.223Y19.075
X-6.172Y80.823
X-6.096Y22.377
X-5.893Y-13.005
X-5.588Y59.715
X-5.512Y-21.184
X-5.334Y73.939
X-5.334Y64.795
X-4.952Y46.891
X-4.877Y2.464
X-4.252Y78.591
X-4.052Y76.491
X-3.835Y53.041
X-3.81Y72.161
X-3.81Y60.477
X-3.81Y57.937
X-3.683Y49.174
X-3.619Y-23.47
X-3.452Y83.083
X-3.353Y-12.522
X-3.352Y88.891
X-3.251Y28.677
X-3.251Y9.423
X-3.124Y-21.107
X-2.896Y7.899
X-2.794Y-26.391
X-2.718Y15.977
X-2.54Y78.537
X-2.54Y59.969
X-2.54Y57.937
X-2.54Y10.947
X-2.159Y31.521
X-2.007Y49.098
X-1.905Y22.631
X-1.652Y72.091
X-1.651Y37.617
X-1.524Y59.461
X-1.27Y66.319
X-1.27Y57.683
X-1.143Y53.035
X-0.762Y35.585
X-0.508Y60.477
X-0.508Y29.743
X-0.457Y-13.386
X-0.452Y88.491
X-0.4Y40.1
X-0.203Y10.338
X-0.152Y84.691
X0.098Y52.166
X0.254Y8.661
X0.305Y27.661
X0.406Y14.91
X0.508Y83.083
X0.762Y-24.105
X0.914Y-3.658
X0.914Y-18.644
X1.048Y86.891
X1.067Y32.283
X1.067Y-1.143
X1.123Y56.516
X1.143Y22.568
X1.143Y-16.18
X1.27Y28.346
X1.27Y1.803
X1.397Y44.856
X1.524Y67.843
X1.575Y19.482
X1.575Y17.856
X1.575Y6.883
X1.626Y14.891
X1.778Y33.426
X1.829Y-8.611
X1.88Y35.484
X1.905Y52.476
X2.032Y73.431
X2.235Y11.201
X2.286Y-20.117
X2.298Y55.466
X2.388Y-4.674
X2.413Y4.039
X2.413Y-2.616
X2.464Y-12.7
X2.54Y32.791
X2.921Y24.917
X2.946Y38.176
X3.023Y47.549
X3.048Y24.028
X3.2Y50.267
X3.302Y75.971
X3.302Y35.535
X3.302Y32.156
X3.302Y-15.659
X3.353Y78.943
X3.454Y34.417
X3.556Y71.399
X3.556Y66.065
X3.556Y62.001
X3.556Y59.715
X3.556Y57.175
X3.708Y40.716
X3.81Y86.893
X3.81Y82.652
X3.81Y30.251
X4.064Y-8.357
X4.191Y45.364
X4.191Y42.062
X4.223Y53.041
X4.318Y50.19
X4.318Y-26.899
X4.445Y50.952
X4.572Y-10.389
X4.572Y-15.723
X4.826Y2.819
X4.953Y52.222
X5.08Y1.168
X5.08Y-2.388
X5.588Y86.639
X5.588Y82.067
X5.588Y74.701
X5.588Y69.621
X5.588Y64.287
X5.588Y59.207
X5.588Y55.143
X5.766Y-20.091
X5.791Y35.941
X6.096Y21.717
X6.096Y19.126
X6.096Y17.424
X6.096Y15.646
X6.096Y12.725
X6.096Y11.201
X6.096Y7.137
X6.096Y5.105
X6.096Y-6.325
X6.159Y-24.867
X6.604Y39.141
X6.858Y-0.737
X6.96Y33.604
X7.148Y42.041
X7.239Y-4.801
X7.62Y32.436
X7.62Y-2.007
X8.191Y-15.786
X8.255Y24.663
X8.382Y86.639
X8.382Y79.019
X8.382Y38.227
X8.382Y30.632
X8.382Y23.266
X8.509Y51.587
X8.509Y26.822
X8.56Y-14.224
X8.636Y61.747
X8.763Y50.571
X8.89Y66.573
X8.89Y33.934
X8.89Y19.055
X8.89Y-19.85
X8.89Y-22.517
X8.89Y-26.899
X9.144Y72.415
X9.144Y56.921
X9.144Y18.059
X9.207Y-16.548
X9.207Y-24.74
X9.322Y-12.802
X9.347Y84.201
X9.652Y40.665
X9.652Y32.41
X9.652Y-18.263
X9.779Y80.162
X9.779Y47.142
X9.779Y39.141
X9.906Y23.393
X10.027Y38.246
X10.033Y29.108
X10.16Y34.061
X10.414Y52.984
X10.541Y52.095
X10.541Y47.904
X10.648Y27.352
X10.668Y80.924
X10.668Y25.552
X10.668Y-4.547
X10.668Y-9.119
X10.922Y22.631
X10.922Y-7.468
X11.176Y45.237
X11.303Y50.444
X11.303Y48.285
X11.43Y18.059
X11.481Y46.431
X11.684Y23.393
X11.848Y26.641
X11.938Y-9.119
X12.059Y18.942
X12.059Y1.062
X12.065Y70.764
X12.065Y63.779
X12.09Y-13.386
X12.243Y0.025
X12.243Y-14.961
X12.319Y58.953
X12.446Y34.823
X12.446Y31.14
X12.527Y22.966
X12.548Y42.341
X12.7Y79.019
X12.7Y-12.675
X13.081Y-16.548
X13.183Y74.066
X13.208Y23.647
X13.208Y-20.231
X13.462Y14.891
X13.462Y4.089
X13.589Y12.598
X13.589Y7.137
X13.716Y1.803
X13.843Y34.696
X13.843Y-22.517
X13.863Y40.124
X14.021Y76.556
X14.027Y22.942
X14.148Y18.991
X14.248Y17.841
X14.287Y63.589
X14.298Y25.791
X14.326Y81.407
X14.351Y29.362
X14.605Y31.775
X14.732Y48.031
X14.732Y33.299
X14.732Y23.647
X14.859Y53.492
X14.938Y57.429
X14.986Y-17.056
X15.192Y67.349
X15.298Y43.466
X15.303Y72.987
X15.684Y60.541
X15.684Y-8.42
X15.748Y-1.245
X15.748Y-3.785
X15.748Y-7.087
X16.002Y48.031
X16.256Y40.411
X16.256Y11.201
X16.256Y9.931
X16.256Y8.915
X16.383Y5.486
X16.51Y39.649
X16.51Y7.899
X16.51Y-3.785
X16.518Y-12.959
X16.535Y-14.986
X16.561Y81.407
X16.698Y15.841
X16.764Y74.701
X16.764Y17.424
X16.891Y37.871
X16.948Y42.091
X17.145Y-17.056
X17.196Y24.79
X17.248Y22.591
X17.272Y31.115
X17.412Y25.717
X17.448Y19.041
X17.78Y-22.835
X17.983Y33.147
X18.186Y38.125
X18.364Y34.798
X18.542Y52.857
X18.542Y-0.102
X18.669Y44.856
X18.669Y3.962
X18.745Y81.407
X18.796Y8.534
X18.872Y33.477
X18.872Y25.984
X18.998Y39.991
X19.05Y71.844
X19.05Y38.1
X19.075Y55.093
X19.198Y31.841
X19.198Y26.641
X19.248Y30.841
X19.304Y14.891
X19.304Y12.852
X19.494Y-24.803
X20.066Y-13.437
X20.32Y51.206
X20.676Y45.415
X20.752Y52.349
X20.828Y0.216
X21.285Y-0.584
X21.336Y21.514
X21.387Y75.387
X21.399Y35.369
X21.463Y5.232
X21.488Y19.075
X21.54Y-8.0
X21.548Y10.441
X21.59Y-20.549
X21.996Y34.138
X22.098Y-2.007
X22.098Y-26.391
X22.327Y75.387
X22.352Y-0.381
X22.352Y-22.581
X22.4Y-8.6
X22.606Y-13.945
X22.606Y-16.993
X22.631Y72.111
X22.86Y30.759
X23.304Y50.635
X23.398Y27.041
X23.495Y44.602
X23.495Y37.49
X23.495Y33.807
X23.52Y40.107
X23.698Y41.291
X23.927Y10.096
X23.978Y76.124
X23.978Y13.906
X24.003Y3.708
X24.13Y30.505
X24.282Y82.169
X24.498Y18.991
X24.548Y27.341
X24.613Y0.33
X24.765Y60.35
X24.765Y34.442
X25.146Y37.109
X25.146Y6.629
X25.248Y15.491
X25.4Y31.013
X25.425Y27.026
X25.438Y12.243
X25.698Y42.041
X25.781Y68.288
X25.798Y-3.659
X25.845Y73.431
X25.908Y10.338
X26.298Y40.03
X26.314Y86.182
X26.398Y9.091
X26.607Y78.638
X26.67Y-7.087
X26.748Y-18.609
X26.822Y35.458
X26.899Y9.779
X26.924Y-13.945
X27.356Y11.824
X27.61Y76.149
X27.635Y0.33
X27.686Y53.111
X27.798Y-23.059
X27.898Y-12.959
X28.1Y-2.9
X28.194Y58.191
X28.194Y-16.739
X28.248Y37.041
X28.448Y84.201
X28.448Y23.012
X28.499Y43.866
X28.892Y32.791
X29.21Y34.315
X29.21Y27.203
X29.408Y0.301
X29.464Y62.89
X29.972Y81.559
X30.124Y55.804
X30.198Y26.391
X30.556Y79.451
X31.242Y-12.929
X31.242Y-24.867
X31.305Y-2.705
X31.344Y30.556
X31.448Y32.491
X31.496Y49.047
X31.496Y48.031
X31.877Y3.708
X31.941Y59.906
X32.248Y27.091
X32.258Y47.269
X32.766Y24.282
X33.02Y54.254
X33.02Y49.809
X33.048Y31.141
X33.248Y-7.009
X33.655Y64.541
X34.125Y34.696
X34.138Y45.644
X34.239Y50.063
X34.248Y-21.309
X34.442Y85.217
X34.734Y78.702
X35.179Y13.36
X35.18Y63.424
X35.18Y62.224
X35.369Y78.067
X35.433Y4.788
X35.814Y44.991
X35.814Y43.241
X35.88Y62.924
X36.005Y78.702
X36.068Y-12.929
X36.119Y13.741
X36.119Y12.421
X36.284Y35.941
X36.297Y33.566
X36.449Y64.795
X36.449Y58.001
X36.512Y16.027
X36.576Y-16.231
X36.767Y72.225
X36.779Y11.43
X36.83Y13.233
X36.898Y30.291
X37.148Y42.191
X37.236Y86.893
X37.29Y53.125
X37.325Y29.515
X37.401Y6.566
X37.643Y81.356
X37.694Y14.046
X37.91Y55.016
X37.973Y68.224
X38.036Y4.28
X38.049Y47.93
X38.098Y40.091
X38.1Y19.075
X38.1Y-2.769
X38.163Y61.176
X38.227Y76.149
X38.248Y29.391
X38.498Y-18.309
X39.048Y40.191
X39.218Y-0.381
X39.243Y29.324
X39.37Y15.011
X39.497Y27.838
X39.624Y39.649
X39.648Y66.691
X39.698Y-12.859
X39.814Y6.82
X39.878Y54.381
X39.992Y31.877
X40.056Y30.264
X40.056Y11.278
X40.056Y8.28
X40.069Y71.907
X40.132Y43.967
X40.45Y58.191
X40.45Y38.125
X40.488Y81.407
X40.767Y79.527
X40.767Y47.015
X40.811Y34.906
X40.811Y33.706
X41.275Y-0.483
X41.298Y-2.759
X41.511Y34.406
X41.529Y23.266
X41.656Y18.821
X41.656Y16.154
X41.758Y14.681
X41.91Y11.328
X42.113Y39.548
X42.291Y24.155
X42.545Y9.169
X42.672Y72.669
X42.672Y50.825
X42.774Y81.356
X42.848Y-12.809
X43.053Y3.708
X43.148Y31.841
X43.282Y16.205
X43.332Y19.355
X43.358Y-0.076
X43.942Y0.381
X44.018Y-0.533
X44.018Y-2.718
X44.032Y49.391
X44.044Y43.256
X44.45Y-25.629
X44.548Y-21.009
X45.529Y-7.722
X45.771Y82.474
X46.482Y-7.849
X46.545Y60.35
X46.863Y72.161
X46.863Y16.408
X46.939Y11.227
X46.99Y-2.261
X47.117Y52.54
X47.61Y78.653
X48.133Y76.149
X48.348Y-4.559
X48.514Y84.303
X48.819Y55.118
X49.212Y68.542
X49.593Y-4.61
X49.598Y-13.259
X49.657Y-2.134
X49.657Y-7.798
X50.038Y38.887
X50.038Y23.901
X50.038Y-16.739
X50.089Y44.983
X50.14Y21.412
X50.14Y17.907
X50.495Y81.864
X50.546Y-0.102
X50.673Y62.89
X51.054Y86.385
X51.181Y11.227
X51.308Y37.49
X51.308Y22.377
X51.46Y59.157
X51.498Y-4.801
X51.562Y73.622
X51.943Y7.391
X52.07Y-2.896
X52.324Y23.139
X52.348Y36.691
X52.451Y50.0
X52.578Y16.408
X52.705Y-1.118
X53.086Y-14.453
X53.594Y18.821
X53.594Y-7.798
X53.721Y-4.801
X53.784Y70.51
X53.95Y57.582
X54.102Y85.471
X54.229Y9.169
X54.292Y65.811
X54.356Y82.702
X54.419Y51.905
X54.498Y-21.109
X54.864Y35.077
X54.864Y28.727
X54.864Y-16.739
X54.948Y39.291
X55.245Y7.899
X55.372Y47.142
X55.372Y11.201
X55.499Y-2.769
X55.562Y-1.118
X55.626Y-27.153
X56.261Y14.757
X56.261Y3.48
X56.325Y73.812
X56.706Y71.717
X56.769Y76.124
X57.404Y-13.691
X57.658Y19.329
X57.785Y21.488
X57.912Y24.917
X58.098Y-9.459
X58.166Y86.944
X58.166Y51.079
X58.166Y36.093
X58.166Y31.775
X58.547Y6.629
X58.674Y27.584
X58.898Y-7.809
X59.055Y-1.88
X59.182Y80.226
X59.182Y-16.739
X59.298Y14.091
X59.69Y46.38
X59.748Y43.791
X60.148Y42.891
X60.348Y41.791
X60.648Y-2.359
X60.96Y39.141
X61.189Y78.638
X61.198Y-4.859
X61.265Y51.283
X61.398Y-18.809
X61.722Y4.47
X62.23Y26.591
X62.382Y19.456
X62.408Y21.59
X62.748Y32.791
X62.89Y-7.823
X62.992Y0.66
X63.119Y-9.373
X63.373Y14.249
X63.551Y80.239
X63.881Y6.248
X64.389Y73.495
X64.548Y-12.759
X64.897Y52.667
X65.024Y-6.325
X65.151Y68.986
X65.648Y-7.823
X65.659Y19.964
X65.659Y17.805
X65.798Y-1.809
X65.913Y15.011
X65.913Y-26.01
X65.998Y-21.259
X66.04Y8.28
X66.248Y41.391
X66.294Y2.819
X66.421Y59.842
X66.754Y45.251
X67.31Y4.724
X67.564Y76.149
X67.564Y25.679
X68.098Y-0.759
X68.148Y33.091
X68.263Y62.89
X68.298Y-2.309
X68.834Y86.449
X68.834Y55.651
X68.834Y45.491
X69.088Y6.375
X69.215Y72.796
X69.215Y-9.373
X69.342Y52.603
X69.342Y41.935
X69.342Y37.109
X69.342Y31.267
X69.342Y16.662
X69.532Y69.558
X69.698Y-6.359
X69.748Y-7.823
X69.85Y2.819
X69.998Y-17.509
X70.002Y21.285
X70.18Y75.463
X70.231Y60.35
X70.248Y-2.359
X70.46Y49.759
X70.548Y-13.059
X70.891Y81.686
X70.891Y74.701
X71.648Y-19.909
X72.161Y85.242
X72.39Y34.061
X72.498Y4.441
X72.498Y3.241
X72.771Y44.602
X72.771Y39.141
X72.847Y84.684
X72.847Y76.048
X72.876Y53.011
X72.898Y68.161
X72.898Y-2.515
X72.946Y62.155
X72.946Y57.075
X73.025Y-9.373
X73.076Y16.053
X73.101Y20.193
X73.152Y12.725
X73.198Y3.941
X73.398Y6.491
X73.533Y80.874
X73.558Y79.604
X73.685Y83.947
X73.736Y82.855
X74.168Y-6.325
X74.219Y48.692
X74.422Y86.766
X74.448Y-3.277
X74.676Y-19.025
X74.676Y-26.899
X74.803Y72.796
X74.93Y-12.294
X75.057Y33.299
X75.438Y21.361
X75.605Y85.688
X75.692Y44.475
X75.781Y63.094
X75.819Y39.395
X75.844Y55.702
X75.87Y65.926
X76.2Y74.447
X76.327Y29.997
X76.454Y5.105
X76.517Y8.598
X76.548Y59.591
X76.581Y10.249
X76.648Y51.991
X76.708Y69.875
X76.835Y-7.823
X76.898Y-3.086
X77.548Y9.311
X78.461Y10.312
X78.461Y8.712
X78.548Y58.391
X78.548Y11.691
X78.74Y50.571
X78.748Y47.891
X78.848Y24.991
X78.948Y19.491
X78.948Y14.591
X79.048Y65.291
X79.148Y53.591
X79.248Y45.191
X79.629Y72.161
X79.883Y-0.61
X79.883Y-9.373
X80.01Y5.613
X80.112Y23.139
X80.264Y-12.167
X80.5Y35.0
X80.518Y2.819
X80.555Y85.66
X80.645Y-6.325
X80.721Y22.377
X80.75Y30.25
X81.048Y39.591
X81.248Y42.443
X81.28Y11.455
X81.407Y74.828
X81.661Y86.131
X82.042Y67.589
X82.042Y48.031
X82.169Y55.905
X82.22Y80.874
X82.55Y4.597
X82.601Y77.038
X82.626Y78.664
X82.677Y72.669
X82.804Y79.629
X83.058Y26.645
X83.718Y80.162
X83.82Y75.641
X83.947Y83.21
X83.947Y-7.823
X84.328Y43.84
X84.328Y18.313
X84.448Y58.791
X84.455Y48.158
X84.531Y78.715
X84.548Y66.391
X84.633Y84.506
X84.709Y13.487
X85.048Y16.841
X85.09Y41.935
X85.344Y2.819
X85.344Y-12.167
X85.598Y32.283
X85.598Y8.661
X85.725Y86.766
X85.81Y24.773
X85.852Y42.951
X85.852Y30.759
X86.233Y76.86
X86.4Y36.291
X86.598Y17.591
X86.665Y80.162
X86.698Y4.191
X86.868Y45.339
X87.071Y26.797
X87.503Y66.954
X87.648Y63.991
X88.011Y-9.373
X88.12Y79.865
X88.138Y21.006
X89.048Y27.441
X89.098Y26.341
X89.25Y22.75
X89.383Y82.423
X89.535Y46.253
X89.535Y31.013
X89.662Y39.841
X89.865Y86.893
X89.916Y8.915
X90.297Y66.7
X90.297Y-12.167
X90.424Y36.474
X90.424Y2.819
X90.498Y26.941
X90.678Y5.105
X90.678Y-6.198
X90.805Y81.102
X90.805Y75.717
X90.932Y84.226
X91.186Y16.408
X91.44Y32.537
X91.598Y21.741
X91.643Y76.886
X91.798Y26.291
X91.848Y27.441
X92.456Y43.459
X92.71Y-6.325
X92.888Y19.152
X93.098Y1.771
X93.726Y4.089
X93.98Y86.893
X93.98Y41.173
X94.234Y25.425
X94.361Y-9.373
X94.437Y9.652
X94.539Y77.394
X94.615Y-12.167
X94.742Y66.7
X94.869Y48.412
X94.996Y33.934
X95.123Y30.886
X95.123Y13.487
X95.25Y16.281
X96.266Y57.683
X96.266Y3.327
X96.774Y6.121
X96.774Y-7.823
X97.282Y25.425
X97.333Y75.971
X97.348Y28.641
X97.409Y77.876
X97.663Y86.766
X97.748Y32.091
X97.79Y67.843
X97.79Y45.237
X97.866Y38.201
X97.876Y20.094
X97.917Y82.321
X97.958Y14.041
X97.97Y40.591
X98.044Y9.169
X98.171Y-6.452
X98.552Y4.851
X98.679Y-12.167
X98.933Y-9.373
X99.06Y21.107
X99.822Y7.645
X99.822Y0.279
X100.076Y3.073
X100.584Y18.948
X100.584Y13.36
X100.618Y-3.119
X100.711Y-7.823
X100.838Y-6.325
X100.863Y31.369
X100.965Y16.027
X101.346Y24.79
X101.498Y34.087
X102.57Y18.239
X102.743Y21.107
X102.87Y9.169
X102.87Y6.883
X103.378Y-6.325
X103.378Y-12.167
X104.089Y29.464
X104.14Y-11.405
X104.216Y33.884
X104.394Y0.025
X104.902Y15.646
X105.054Y27.203
X105.816Y32.004
X106.172Y-4.039
X107.048Y28.891
X107.188Y13.995
X107.442Y-8.103
X107.696Y-3.023
X107.696Y-7.087
X107.874Y33.985
X108.204Y-12.167
X108.331Y21.107
X108.585Y-9.246
X108.712Y-6.325
X108.966Y18.948
X109.238Y27.781
X109.474Y20.853
X109.601Y-7.722
X110.148Y9.391
X110.236Y4.343
X111.43Y34.011
X111.506Y-3.658
X111.557Y30.048
X111.582Y27.584
X113.157Y-12.167
X113.284Y24.79
X113.538Y-9.246
X113.563Y28.067
X113.563Y18.999
X113.792Y21.107
X114.224Y32.029
X114.3Y6.121
X114.325Y34.087
X114.681Y-6.325
X115.621Y27.051
X115.697Y13.36
X115.697Y-3.785
X115.697Y-7.722
X115.951Y15.9
X116.078Y8.407
X116.484Y33.477
X116.916Y28.575
X117.221Y21.107
X117.602Y13.487
X118.288Y24.867
X118.745Y-12.167
X118.796Y32.334
X119.024Y27.026
X119.075Y29.413
X119.101Y34.239
X119.253Y18.821
X119.38Y-9.246
X119.634Y13.487
X119.634Y6.629
X119.634Y2.057
X119.634Y-0.229
X120.142Y4.597
X120.269Y21.107
X120.808Y-2.979
X120.879Y24.892
X120.904Y-6.325
X121.158Y8.915
X121.412Y-7.722
X121.92Y0.533
X122.174Y16.027
X122.174Y3.327
X122.682Y6.883
X122.938Y18.191
X123.571Y32.182
X123.571Y13.487
X124.079Y-12.167
X124.13Y34.112
X124.206Y9.423
X124.206Y-6.325
X124.358Y21.107
X124.448Y1.541
X124.46Y-9.119
X124.798Y-0.809
X125.918Y-9.307
X125.984Y4.089
X126.721Y29.489
X126.848Y34.091
X127.218Y-4.003
X127.254Y9.423
X127.738Y13.861
X127.748Y27.291
X128.27Y-8.103
X128.295Y23.622
X128.448Y31.852
X128.524Y-7.087
X128.651Y-9.5
X129.138Y-4.269
X129.337Y21.158
X129.642Y28.778
X130.505Y34.011
X130.581Y23.444
X130.683Y-12.167
X130.81Y20.853
X130.937Y-7.722
X131.064Y4.343
X131.148Y9.391
X131.869Y27.807
X132.098Y-1.409
X132.588Y-4.547
X132.842Y11.709
X132.998Y-3.309
X133.858Y9.423
X134.061Y34.036
X134.175Y15.646
X134.188Y27.584
X134.239Y-9.5
X134.348Y30.091
X134.366Y4.089
X134.493Y-6.325
X134.62Y21.107
X135.128Y19.075
X135.748Y13.391
X135.763Y-12.167
X135.966Y27.407
X136.398Y-7.722
X136.448Y9.491
X136.525Y-4.039
X136.652Y7.137
X136.652Y1.041
X136.83Y32.029
X136.931Y34.087
X137.414Y15.9
X137.566Y29.007
X137.648Y9.491
X138.227Y27.051
X138.248Y10.791
X138.348Y13.491
X138.938Y21.234
X139.014Y33.045
X139.446Y-9.5
X139.954Y-4.166
X140.056Y23.419
X140.081Y28.067
X140.335Y1.295
X140.648Y19.091
X141.097Y-12.167
X141.248Y6.491
X141.605Y3.581
X141.63Y31.547
X141.63Y27.026
X141.681Y29.413
X141.707Y34.239
X141.732Y-6.325
X141.859Y24.867
X141.986Y-7.722
X142.118Y-2.979
X142.367Y16.154
X142.508Y18.211
X144.272Y21.234
X144.448Y7.091
X144.78Y0.533
X144.78Y-9.5
X145.288Y-6.325
X145.39Y32.156
X145.948Y34.087
X146.177Y16.027
X146.177Y-12.167
X146.248Y13.491
X146.558Y-10.109
X147.574Y9.423
X147.828Y-4.293
X147.828Y-8.611
X148.539Y29.464
X148.666Y33.884
X148.844Y-10.643
X149.098Y-5.309
X149.098Y-7.087
X149.138Y14.441
X149.504Y27.203
X149.606Y23.647
X150.241Y18.44
X150.378Y-4.319
X150.444Y31.293
X151.638Y9.423
X151.638Y-12.167
X152.121Y28.194
X152.146Y22.191
X152.222Y23.444
X152.324Y33.985
X153.67Y-4.547
X153.688Y27.781
X153.924Y-8.865
X154.686Y9.423
X155.702Y16.027
X155.88Y34.011
X155.905Y30.353
X156.134Y28.194
X156.718Y21.107
X157.226Y6.883
X157.226Y1.041
X157.353Y-12.04
X157.48Y12.725
X157.582Y9.525
X158.496Y-6.833
X158.547Y32.131
X158.623Y34.29
X158.75Y22.631
X158.801Y27.051
X159.258Y13.995
X159.766Y16.027
X159.944Y32.868
X160.096Y28.575
X161.036Y-11.532
X161.188Y33.63
X161.29Y-2.007
X161.544Y3.581
X161.671Y18.821
X161.671Y13.614
X161.671Y8.28
X161.671Y-6.706
X161.747Y23.444
X162.204Y31.547
X162.204Y27.026
X162.255Y29.413
T2
X80.01Y11.455
X120.396Y10.947
X86.614Y-2.261
X64.262Y3.2
X-10.502Y9.591
X-9.843Y11.182
X-9.843Y8.0
X-8.252Y11.841
X-8.252Y7.341
X-6.661Y11.182
X-6.661Y8.0
X-6.002Y9.591
X18.669Y6.756
X69.088Y14.935
T3
X124.206Y29.235
X124.206Y27.235
X83.502Y53.399
X83.502Y51.399
X101.6Y29.235
X101.6Y27.235
X94.648Y53.399
X94.648Y51.399
X48.336Y6.68
X50.336Y6.68
X146.05Y29.235
X146.05Y27.235
X15.265Y82.855
X16.535Y85.395
X17.805Y82.855
X19.075Y85.395
X20.345Y82.855
X21.615Y85.395
X36.538Y82.855
X37.807Y85.395
X39.078Y82.855
X40.347Y85.395
X41.617Y82.855
X42.887Y85.395
X92.971Y84.099
X92.971Y82.099
X92.971Y80.099
X94.971Y84.099
X94.971Y82.099
X94.971Y80.099
X83.502Y64.067
X83.502Y62.067
X94.648Y64.067
X94.648Y62.067
X-6.165Y-18.233
X-6.066Y-16.633
X-5.115Y-19.733
X-4.816Y-15.233
X-4.365Y-18.233
X-3.365Y-16.633
X-3.365Y-19.733
X-2.365Y-18.233
X-1.915Y-15.233
X-1.615Y-19.733
X-0.715Y-16.633
X-0.566Y-18.233
X57.81Y82.855
X59.08Y85.395
X60.35Y82.855
X61.62Y85.395
X62.89Y82.855
X64.16Y85.395
T4
X63.358Y-14.709
X65.898Y-14.709
X65.898Y-17.249
X68.438Y-14.709
X41.658Y-14.709
X44.198Y-14.709
X44.198Y-17.249
X46.738Y-14.709
T5
X-4.652Y87.091
X-4.652Y85.091
X-2.152Y87.091
X-2.152Y85.091
T6
X48.133Y4.293
X50.673Y4.293
X92.53Y53.629
X92.53Y51.089
X81.343Y64.149
X81.343Y61.609
X-6.604Y36.601
X-6.604Y34.061
X-6.604Y31.521
X-4.064Y36.601
X-4.064Y34.061
X-4.064Y31.521
X81.343Y53.629
X81.343Y51.089
X45.648Y35.041
X45.648Y32.501
X45.648Y29.961
X45.648Y27.421
X45.648Y24.881
X45.648Y22.341
X45.648Y19.801
X48.188Y35.041
X48.188Y32.501
X48.188Y29.961
X48.188Y27.421
X48.188Y24.881
X48.188Y22.341
X48.188Y19.801
X92.57Y64.149
X92.57Y61.609
X30.358Y18.751
X30.358Y16.211
X30.358Y13.671
X30.358Y11.131
X30.358Y8.591
X32.898Y18.751
X32.898Y16.211
X32.898Y13.671
X32.898Y11.131
X32.898Y8.591
T7
X72.798Y29.731
X72.798Y26.231
T8
X60.818Y-23.599
X70.978Y-23.599
X39.118Y-23.599
X49.278Y-23.599
T9
X-9.422Y89.801
X2.618Y89.801
T10
X-8.252Y9.591
T0
M30
