G04 #@! TF.GenerationSoftware,KiCad,Pcbnew,(5.1.4)-1*
G04 #@! TF.CreationDate,2020-03-11T17:26:52+00:00*
G04 #@! TF.ProjectId,FPS-2_v1_revB_II,4650532d-325f-4763-915f-726576425f49,v1_revB II*
G04 #@! TF.SameCoordinates,PX4c3f880PY8011fc8*
G04 #@! TF.FileFunction,Soldermask,Bot*
G04 #@! TF.FilePolarity,Negative*
%FSLAX46Y46*%
G04 Gerber Fmt 4.6, Leading zero omitted, Abs format (unit mm)*
G04 Created by KiCad (PCBNEW (5.1.4)-1) date 2020-03-11 17:26:52*
%MOMM*%
%LPD*%
G04 APERTURE LIST*
%ADD10C,0.120000*%
%ADD11C,0.100000*%
G04 APERTURE END LIST*
D10*
X77698000Y-16208600D02*
X77698000Y-26908600D01*
X77698000Y-16208600D02*
G75*
G02X80398000Y-13508600I2700000J0D01*
G01*
X160848000Y-13508600D02*
X80398000Y-13508600D01*
X77698000Y-26908600D02*
G75*
G02X74998000Y-29608600I-2700000J0D01*
G01*
X163548000Y-10808600D02*
G75*
G02X160848000Y-13508600I-2700000J0D01*
G01*
X160848000Y35391400D02*
G75*
G02X163548000Y32691400I0J-2700000D01*
G01*
X160848000Y35391400D02*
X103998000Y35391400D01*
X163548000Y32691400D02*
X163548000Y-10808600D01*
X-11902000Y100391400D02*
X96298000Y100391400D01*
X-16902000Y-24608600D02*
X-16902000Y95391400D01*
X74998000Y-29608600D02*
X-11902000Y-29608600D01*
X103998000Y35391400D02*
G75*
G02X101298000Y38091400I0J2700000D01*
G01*
X101298000Y95391400D02*
X101298000Y38091400D01*
X-11902000Y-29608600D02*
G75*
G03X-16902000Y-24608600I-5000000J0D01*
G01*
X96298000Y100391400D02*
G75*
G03X101298000Y95391400I5000000J0D01*
G01*
X-16902000Y95391400D02*
G75*
G03X-11902000Y100391400I0J5000000D01*
G01*
D11*
G36*
X29229412Y-25822224D02*
G01*
X29393384Y-25890144D01*
X29540958Y-25988750D01*
X29666450Y-26114242D01*
X29666452Y-26114245D01*
X29666453Y-26114246D01*
X29765056Y-26261816D01*
X29832976Y-26425788D01*
X29867600Y-26599859D01*
X29867600Y-26777341D01*
X29832976Y-26951412D01*
X29765056Y-27115384D01*
X29666450Y-27262958D01*
X29540958Y-27388450D01*
X29540955Y-27388452D01*
X29540954Y-27388453D01*
X29393384Y-27487056D01*
X29229412Y-27554976D01*
X29055341Y-27589600D01*
X28877859Y-27589600D01*
X28703788Y-27554976D01*
X28539816Y-27487056D01*
X28392246Y-27388453D01*
X28392245Y-27388452D01*
X28392242Y-27388450D01*
X28266750Y-27262958D01*
X28168144Y-27115384D01*
X28100224Y-26951412D01*
X28065600Y-26777341D01*
X28065600Y-26599859D01*
X28100224Y-26425788D01*
X28168144Y-26261816D01*
X28266747Y-26114246D01*
X28266748Y-26114245D01*
X28266750Y-26114242D01*
X28392242Y-25988750D01*
X28539816Y-25890144D01*
X28703788Y-25822224D01*
X28877859Y-25787600D01*
X29055341Y-25787600D01*
X29229412Y-25822224D01*
X29229412Y-25822224D01*
G37*
G36*
X15871412Y-25822224D02*
G01*
X16035384Y-25890144D01*
X16182958Y-25988750D01*
X16308450Y-26114242D01*
X16308452Y-26114245D01*
X16308453Y-26114246D01*
X16407056Y-26261816D01*
X16474976Y-26425788D01*
X16509600Y-26599859D01*
X16509600Y-26777341D01*
X16474976Y-26951412D01*
X16407056Y-27115384D01*
X16308450Y-27262958D01*
X16182958Y-27388450D01*
X16182955Y-27388452D01*
X16182954Y-27388453D01*
X16035384Y-27487056D01*
X15871412Y-27554976D01*
X15697341Y-27589600D01*
X15519859Y-27589600D01*
X15345788Y-27554976D01*
X15181816Y-27487056D01*
X15034246Y-27388453D01*
X15034245Y-27388452D01*
X15034242Y-27388450D01*
X14908750Y-27262958D01*
X14810144Y-27115384D01*
X14742224Y-26951412D01*
X14707600Y-26777341D01*
X14707600Y-26599859D01*
X14742224Y-26425788D01*
X14810144Y-26261816D01*
X14908747Y-26114246D01*
X14908748Y-26114245D01*
X14908750Y-26114242D01*
X15034242Y-25988750D01*
X15181816Y-25890144D01*
X15345788Y-25822224D01*
X15519859Y-25787600D01*
X15697341Y-25787600D01*
X15871412Y-25822224D01*
X15871412Y-25822224D01*
G37*
G36*
X61176545Y-21415063D02*
G01*
X61521317Y-21519649D01*
X61839055Y-21689484D01*
X62117556Y-21918044D01*
X62346116Y-22196545D01*
X62515951Y-22514283D01*
X62620537Y-22859055D01*
X62647000Y-23127748D01*
X62647000Y-24069453D01*
X62620537Y-24338145D01*
X62515951Y-24682917D01*
X62346116Y-25000655D01*
X62117556Y-25279156D01*
X61839055Y-25507716D01*
X61521316Y-25677551D01*
X61176544Y-25782137D01*
X60818000Y-25817450D01*
X60459455Y-25782137D01*
X60114683Y-25677551D01*
X59796945Y-25507716D01*
X59518444Y-25279156D01*
X59289884Y-25000655D01*
X59120049Y-24682916D01*
X59015463Y-24338144D01*
X58989000Y-24069452D01*
X58989000Y-23127747D01*
X59015463Y-22859055D01*
X59120049Y-22514283D01*
X59289884Y-22196545D01*
X59518445Y-21918044D01*
X59796946Y-21689484D01*
X60114684Y-21519649D01*
X60459456Y-21415063D01*
X60818000Y-21379750D01*
X61176545Y-21415063D01*
X61176545Y-21415063D01*
G37*
G36*
X71336545Y-21415063D02*
G01*
X71681317Y-21519649D01*
X71999055Y-21689484D01*
X72277556Y-21918044D01*
X72506116Y-22196545D01*
X72675951Y-22514283D01*
X72780537Y-22859055D01*
X72807000Y-23127748D01*
X72807000Y-24069453D01*
X72780537Y-24338145D01*
X72675951Y-24682917D01*
X72506116Y-25000655D01*
X72277556Y-25279156D01*
X71999055Y-25507716D01*
X71681316Y-25677551D01*
X71336544Y-25782137D01*
X70978000Y-25817450D01*
X70619455Y-25782137D01*
X70274683Y-25677551D01*
X69956945Y-25507716D01*
X69678444Y-25279156D01*
X69449884Y-25000655D01*
X69280049Y-24682916D01*
X69175463Y-24338144D01*
X69149000Y-24069452D01*
X69149000Y-23127747D01*
X69175463Y-22859055D01*
X69280049Y-22514283D01*
X69449884Y-22196545D01*
X69678445Y-21918044D01*
X69956946Y-21689484D01*
X70274684Y-21519649D01*
X70619456Y-21415063D01*
X70978000Y-21379750D01*
X71336545Y-21415063D01*
X71336545Y-21415063D01*
G37*
G36*
X49636545Y-21415063D02*
G01*
X49981317Y-21519649D01*
X50299055Y-21689484D01*
X50577556Y-21918044D01*
X50806116Y-22196545D01*
X50975951Y-22514283D01*
X51080537Y-22859055D01*
X51107000Y-23127748D01*
X51107000Y-24069453D01*
X51080537Y-24338145D01*
X50975951Y-24682917D01*
X50806116Y-25000655D01*
X50577556Y-25279156D01*
X50299055Y-25507716D01*
X49981316Y-25677551D01*
X49636544Y-25782137D01*
X49278000Y-25817450D01*
X48919455Y-25782137D01*
X48574683Y-25677551D01*
X48256945Y-25507716D01*
X47978444Y-25279156D01*
X47749884Y-25000655D01*
X47580049Y-24682916D01*
X47475463Y-24338144D01*
X47449000Y-24069452D01*
X47449000Y-23127747D01*
X47475463Y-22859055D01*
X47580049Y-22514283D01*
X47749884Y-22196545D01*
X47978445Y-21918044D01*
X48256946Y-21689484D01*
X48574684Y-21519649D01*
X48919456Y-21415063D01*
X49278000Y-21379750D01*
X49636545Y-21415063D01*
X49636545Y-21415063D01*
G37*
G36*
X39476545Y-21415063D02*
G01*
X39821317Y-21519649D01*
X40139055Y-21689484D01*
X40417556Y-21918044D01*
X40646116Y-22196545D01*
X40815951Y-22514283D01*
X40920537Y-22859055D01*
X40947000Y-23127748D01*
X40947000Y-24069453D01*
X40920537Y-24338145D01*
X40815951Y-24682917D01*
X40646116Y-25000655D01*
X40417556Y-25279156D01*
X40139055Y-25507716D01*
X39821316Y-25677551D01*
X39476544Y-25782137D01*
X39118000Y-25817450D01*
X38759455Y-25782137D01*
X38414683Y-25677551D01*
X38096945Y-25507716D01*
X37818444Y-25279156D01*
X37589884Y-25000655D01*
X37420049Y-24682916D01*
X37315463Y-24338144D01*
X37289000Y-24069452D01*
X37289000Y-23127747D01*
X37315463Y-22859055D01*
X37420049Y-22514283D01*
X37589884Y-22196545D01*
X37818445Y-21918044D01*
X38096946Y-21689484D01*
X38414684Y-21519649D01*
X38759456Y-21415063D01*
X39118000Y-21379750D01*
X39476545Y-21415063D01*
X39476545Y-21415063D01*
G37*
G36*
X-10629146Y-22100687D02*
G01*
X-10442259Y-22137861D01*
X-10178194Y-22247240D01*
X-9940541Y-22406035D01*
X-9738435Y-22608141D01*
X-9579640Y-22845794D01*
X-9470261Y-23109859D01*
X-9414500Y-23390189D01*
X-9414500Y-23676011D01*
X-9470261Y-23956341D01*
X-9579640Y-24220406D01*
X-9738435Y-24458059D01*
X-9940541Y-24660165D01*
X-10178194Y-24818960D01*
X-10442259Y-24928339D01*
X-10629146Y-24965513D01*
X-10722588Y-24984100D01*
X-11008412Y-24984100D01*
X-11101854Y-24965513D01*
X-11288741Y-24928339D01*
X-11552806Y-24818960D01*
X-11790459Y-24660165D01*
X-11992565Y-24458059D01*
X-12151360Y-24220406D01*
X-12260739Y-23956341D01*
X-12316500Y-23676011D01*
X-12316500Y-23390189D01*
X-12260739Y-23109859D01*
X-12151360Y-22845794D01*
X-11992565Y-22608141D01*
X-11790459Y-22406035D01*
X-11552806Y-22247240D01*
X-11288741Y-22137861D01*
X-11101854Y-22100687D01*
X-11008412Y-22082100D01*
X-10722588Y-22082100D01*
X-10629146Y-22100687D01*
X-10629146Y-22100687D01*
G37*
G36*
X4370854Y-22100687D02*
G01*
X4557741Y-22137861D01*
X4821806Y-22247240D01*
X5059459Y-22406035D01*
X5261565Y-22608141D01*
X5420360Y-22845794D01*
X5529739Y-23109859D01*
X5585500Y-23390189D01*
X5585500Y-23676011D01*
X5529739Y-23956341D01*
X5420360Y-24220406D01*
X5261565Y-24458059D01*
X5059459Y-24660165D01*
X4821806Y-24818960D01*
X4557741Y-24928339D01*
X4370854Y-24965513D01*
X4277412Y-24984100D01*
X3991588Y-24984100D01*
X3898146Y-24965513D01*
X3711259Y-24928339D01*
X3447194Y-24818960D01*
X3209541Y-24660165D01*
X3007435Y-24458059D01*
X2848640Y-24220406D01*
X2739261Y-23956341D01*
X2683500Y-23676011D01*
X2683500Y-23390189D01*
X2739261Y-23109859D01*
X2848640Y-22845794D01*
X3007435Y-22608141D01*
X3209541Y-22406035D01*
X3447194Y-22247240D01*
X3711259Y-22137861D01*
X3898146Y-22100687D01*
X3991588Y-22082100D01*
X4277412Y-22082100D01*
X4370854Y-22100687D01*
X4370854Y-22100687D01*
G37*
G36*
X-10551642Y-18498450D02*
G01*
X-10447790Y-18541467D01*
X-10355822Y-18579561D01*
X-10179586Y-18697319D01*
X-10029719Y-18847186D01*
X-10029717Y-18847189D01*
X-10029716Y-18847190D01*
X-10005054Y-18884100D01*
X-9911961Y-19023422D01*
X-9911961Y-19023423D01*
X-9830850Y-19219242D01*
X-9789500Y-19427123D01*
X-9789500Y-19639077D01*
X-9830850Y-19846958D01*
X-9874116Y-19951412D01*
X-9911961Y-20042778D01*
X-10029719Y-20219014D01*
X-10179586Y-20368881D01*
X-10179589Y-20368883D01*
X-10179590Y-20368884D01*
X-10208873Y-20388450D01*
X-10355822Y-20486639D01*
X-10421096Y-20513676D01*
X-10551642Y-20567750D01*
X-10759523Y-20609100D01*
X-10971477Y-20609100D01*
X-11179358Y-20567750D01*
X-11309904Y-20513676D01*
X-11375178Y-20486639D01*
X-11522127Y-20388450D01*
X-11551410Y-20368884D01*
X-11551411Y-20368883D01*
X-11551414Y-20368881D01*
X-11701281Y-20219014D01*
X-11819039Y-20042778D01*
X-11856884Y-19951412D01*
X-11900150Y-19846958D01*
X-11941500Y-19639077D01*
X-11941500Y-19427123D01*
X-11900150Y-19219242D01*
X-11819039Y-19023423D01*
X-11819039Y-19023422D01*
X-11725946Y-18884100D01*
X-11701284Y-18847190D01*
X-11701283Y-18847189D01*
X-11701281Y-18847186D01*
X-11551414Y-18697319D01*
X-11375178Y-18579561D01*
X-11283210Y-18541467D01*
X-11179358Y-18498450D01*
X-10971477Y-18457100D01*
X-10759523Y-18457100D01*
X-10551642Y-18498450D01*
X-10551642Y-18498450D01*
G37*
G36*
X4448358Y-18498450D02*
G01*
X4552210Y-18541467D01*
X4644178Y-18579561D01*
X4820414Y-18697319D01*
X4970281Y-18847186D01*
X4970283Y-18847189D01*
X4970284Y-18847190D01*
X4994946Y-18884100D01*
X5088039Y-19023422D01*
X5088039Y-19023423D01*
X5169150Y-19219242D01*
X5210500Y-19427123D01*
X5210500Y-19639077D01*
X5169150Y-19846958D01*
X5125884Y-19951412D01*
X5088039Y-20042778D01*
X4970281Y-20219014D01*
X4820414Y-20368881D01*
X4820411Y-20368883D01*
X4820410Y-20368884D01*
X4791127Y-20388450D01*
X4644178Y-20486639D01*
X4578904Y-20513676D01*
X4448358Y-20567750D01*
X4240477Y-20609100D01*
X4028523Y-20609100D01*
X3820642Y-20567750D01*
X3690096Y-20513676D01*
X3624822Y-20486639D01*
X3477873Y-20388450D01*
X3448590Y-20368884D01*
X3448589Y-20368883D01*
X3448586Y-20368881D01*
X3298719Y-20219014D01*
X3180961Y-20042778D01*
X3143116Y-19951412D01*
X3099850Y-19846958D01*
X3058500Y-19639077D01*
X3058500Y-19427123D01*
X3099850Y-19219242D01*
X3180961Y-19023423D01*
X3180961Y-19023422D01*
X3274054Y-18884100D01*
X3298716Y-18847190D01*
X3298717Y-18847189D01*
X3298719Y-18847186D01*
X3448586Y-18697319D01*
X3624822Y-18579561D01*
X3716790Y-18541467D01*
X3820642Y-18498450D01*
X4028523Y-18457100D01*
X4240477Y-18457100D01*
X4448358Y-18498450D01*
X4448358Y-18498450D01*
G37*
G36*
X15871412Y-18822224D02*
G01*
X16035384Y-18890144D01*
X16182958Y-18988750D01*
X16308450Y-19114242D01*
X16308452Y-19114245D01*
X16308453Y-19114246D01*
X16407056Y-19261816D01*
X16474976Y-19425788D01*
X16509600Y-19599859D01*
X16509600Y-19777341D01*
X16474976Y-19951412D01*
X16407056Y-20115384D01*
X16324616Y-20238765D01*
X16308450Y-20262958D01*
X16182958Y-20388450D01*
X16182955Y-20388452D01*
X16182954Y-20388453D01*
X16035384Y-20487056D01*
X15871412Y-20554976D01*
X15697341Y-20589600D01*
X15519859Y-20589600D01*
X15345788Y-20554976D01*
X15181816Y-20487056D01*
X15034246Y-20388453D01*
X15034245Y-20388452D01*
X15034242Y-20388450D01*
X14908750Y-20262958D01*
X14892585Y-20238765D01*
X14810144Y-20115384D01*
X14742224Y-19951412D01*
X14707600Y-19777341D01*
X14707600Y-19599859D01*
X14742224Y-19425788D01*
X14810144Y-19261816D01*
X14908747Y-19114246D01*
X14908748Y-19114245D01*
X14908750Y-19114242D01*
X15034242Y-18988750D01*
X15181816Y-18890144D01*
X15345788Y-18822224D01*
X15519859Y-18787600D01*
X15697341Y-18787600D01*
X15871412Y-18822224D01*
X15871412Y-18822224D01*
G37*
G36*
X29229412Y-18822224D02*
G01*
X29393384Y-18890144D01*
X29540958Y-18988750D01*
X29666450Y-19114242D01*
X29666452Y-19114245D01*
X29666453Y-19114246D01*
X29765056Y-19261816D01*
X29832976Y-19425788D01*
X29867600Y-19599859D01*
X29867600Y-19777341D01*
X29832976Y-19951412D01*
X29765056Y-20115384D01*
X29682616Y-20238765D01*
X29666450Y-20262958D01*
X29540958Y-20388450D01*
X29540955Y-20388452D01*
X29540954Y-20388453D01*
X29393384Y-20487056D01*
X29229412Y-20554976D01*
X29055341Y-20589600D01*
X28877859Y-20589600D01*
X28703788Y-20554976D01*
X28539816Y-20487056D01*
X28392246Y-20388453D01*
X28392245Y-20388452D01*
X28392242Y-20388450D01*
X28266750Y-20262958D01*
X28250585Y-20238765D01*
X28168144Y-20115384D01*
X28100224Y-19951412D01*
X28065600Y-19777341D01*
X28065600Y-19599859D01*
X28100224Y-19425788D01*
X28168144Y-19261816D01*
X28266747Y-19114246D01*
X28266748Y-19114245D01*
X28266750Y-19114242D01*
X28392242Y-18988750D01*
X28539816Y-18890144D01*
X28703788Y-18822224D01*
X28877859Y-18787600D01*
X29055341Y-18787600D01*
X29229412Y-18822224D01*
X29229412Y-18822224D01*
G37*
G36*
X-1425610Y-19107117D02*
G01*
X-1307136Y-19156191D01*
X-1307133Y-19156193D01*
X-1200510Y-19227436D01*
X-1109836Y-19318110D01*
X-1109835Y-19318112D01*
X-1038591Y-19424736D01*
X-989517Y-19543210D01*
X-964500Y-19668982D01*
X-964500Y-19797218D01*
X-989517Y-19922990D01*
X-1038591Y-20041464D01*
X-1038593Y-20041467D01*
X-1109836Y-20148090D01*
X-1200510Y-20238764D01*
X-1236713Y-20262954D01*
X-1307136Y-20310009D01*
X-1425610Y-20359083D01*
X-1551382Y-20384100D01*
X-1679618Y-20384100D01*
X-1805390Y-20359083D01*
X-1923864Y-20310009D01*
X-1994287Y-20262954D01*
X-2030490Y-20238764D01*
X-2121164Y-20148090D01*
X-2192407Y-20041467D01*
X-2192409Y-20041464D01*
X-2241483Y-19922990D01*
X-2266500Y-19797218D01*
X-2266500Y-19668982D01*
X-2241483Y-19543210D01*
X-2192409Y-19424736D01*
X-2121165Y-19318112D01*
X-2121164Y-19318110D01*
X-2030490Y-19227436D01*
X-1923867Y-19156193D01*
X-1923864Y-19156191D01*
X-1805390Y-19107117D01*
X-1679618Y-19082100D01*
X-1551382Y-19082100D01*
X-1425610Y-19107117D01*
X-1425610Y-19107117D01*
G37*
G36*
X-4925610Y-19107117D02*
G01*
X-4807136Y-19156191D01*
X-4807133Y-19156193D01*
X-4700510Y-19227436D01*
X-4609836Y-19318110D01*
X-4609835Y-19318112D01*
X-4538591Y-19424736D01*
X-4489517Y-19543210D01*
X-4464500Y-19668982D01*
X-4464500Y-19797218D01*
X-4489517Y-19922990D01*
X-4538591Y-20041464D01*
X-4538593Y-20041467D01*
X-4609836Y-20148090D01*
X-4700510Y-20238764D01*
X-4736713Y-20262954D01*
X-4807136Y-20310009D01*
X-4925610Y-20359083D01*
X-5051382Y-20384100D01*
X-5179618Y-20384100D01*
X-5305390Y-20359083D01*
X-5423864Y-20310009D01*
X-5494287Y-20262954D01*
X-5530490Y-20238764D01*
X-5621164Y-20148090D01*
X-5692407Y-20041467D01*
X-5692409Y-20041464D01*
X-5741483Y-19922990D01*
X-5766500Y-19797218D01*
X-5766500Y-19668982D01*
X-5741483Y-19543210D01*
X-5692409Y-19424736D01*
X-5621165Y-19318112D01*
X-5621164Y-19318110D01*
X-5530490Y-19227436D01*
X-5423867Y-19156193D01*
X-5423864Y-19156191D01*
X-5305390Y-19107117D01*
X-5179618Y-19082100D01*
X-5051382Y-19082100D01*
X-4925610Y-19107117D01*
X-4925610Y-19107117D01*
G37*
G36*
X-3175610Y-19107117D02*
G01*
X-3057136Y-19156191D01*
X-3057133Y-19156193D01*
X-2950510Y-19227436D01*
X-2859836Y-19318110D01*
X-2859835Y-19318112D01*
X-2788591Y-19424736D01*
X-2739517Y-19543210D01*
X-2714500Y-19668982D01*
X-2714500Y-19797218D01*
X-2739517Y-19922990D01*
X-2788591Y-20041464D01*
X-2788593Y-20041467D01*
X-2859836Y-20148090D01*
X-2950510Y-20238764D01*
X-2986713Y-20262954D01*
X-3057136Y-20310009D01*
X-3175610Y-20359083D01*
X-3301382Y-20384100D01*
X-3429618Y-20384100D01*
X-3555390Y-20359083D01*
X-3673864Y-20310009D01*
X-3744287Y-20262954D01*
X-3780490Y-20238764D01*
X-3871164Y-20148090D01*
X-3942407Y-20041467D01*
X-3942409Y-20041464D01*
X-3991483Y-19922990D01*
X-4016500Y-19797218D01*
X-4016500Y-19668982D01*
X-3991483Y-19543210D01*
X-3942409Y-19424736D01*
X-3871165Y-19318112D01*
X-3871164Y-19318110D01*
X-3780490Y-19227436D01*
X-3673867Y-19156193D01*
X-3673864Y-19156191D01*
X-3555390Y-19107117D01*
X-3429618Y-19082100D01*
X-3301382Y-19082100D01*
X-3175610Y-19107117D01*
X-3175610Y-19107117D01*
G37*
G36*
X-5975610Y-17607117D02*
G01*
X-5857136Y-17656191D01*
X-5857133Y-17656193D01*
X-5750510Y-17727436D01*
X-5659836Y-17818110D01*
X-5659835Y-17818112D01*
X-5588591Y-17924736D01*
X-5539517Y-18043210D01*
X-5514500Y-18168982D01*
X-5514500Y-18297218D01*
X-5539517Y-18422990D01*
X-5588591Y-18541464D01*
X-5588593Y-18541467D01*
X-5659836Y-18648090D01*
X-5750510Y-18738764D01*
X-5857133Y-18810007D01*
X-5857136Y-18810009D01*
X-5975610Y-18859083D01*
X-6101382Y-18884100D01*
X-6229618Y-18884100D01*
X-6355390Y-18859083D01*
X-6473864Y-18810009D01*
X-6473867Y-18810007D01*
X-6580490Y-18738764D01*
X-6671164Y-18648090D01*
X-6742407Y-18541467D01*
X-6742409Y-18541464D01*
X-6791483Y-18422990D01*
X-6816500Y-18297218D01*
X-6816500Y-18168982D01*
X-6791483Y-18043210D01*
X-6742409Y-17924736D01*
X-6671165Y-17818112D01*
X-6671164Y-17818110D01*
X-6580490Y-17727436D01*
X-6473867Y-17656193D01*
X-6473864Y-17656191D01*
X-6355390Y-17607117D01*
X-6229618Y-17582100D01*
X-6101382Y-17582100D01*
X-5975610Y-17607117D01*
X-5975610Y-17607117D01*
G37*
G36*
X-375610Y-17607117D02*
G01*
X-257136Y-17656191D01*
X-257133Y-17656193D01*
X-150510Y-17727436D01*
X-59836Y-17818110D01*
X-59835Y-17818112D01*
X11409Y-17924736D01*
X60483Y-18043210D01*
X85500Y-18168982D01*
X85500Y-18297218D01*
X60483Y-18422990D01*
X11409Y-18541464D01*
X11407Y-18541467D01*
X-59836Y-18648090D01*
X-150510Y-18738764D01*
X-257133Y-18810007D01*
X-257136Y-18810009D01*
X-375610Y-18859083D01*
X-501382Y-18884100D01*
X-629618Y-18884100D01*
X-755390Y-18859083D01*
X-873864Y-18810009D01*
X-873867Y-18810007D01*
X-980490Y-18738764D01*
X-1071164Y-18648090D01*
X-1142407Y-18541467D01*
X-1142409Y-18541464D01*
X-1191483Y-18422990D01*
X-1216500Y-18297218D01*
X-1216500Y-18168982D01*
X-1191483Y-18043210D01*
X-1142409Y-17924736D01*
X-1071165Y-17818112D01*
X-1071164Y-17818110D01*
X-980490Y-17727436D01*
X-873867Y-17656193D01*
X-873864Y-17656191D01*
X-755390Y-17607117D01*
X-629618Y-17582100D01*
X-501382Y-17582100D01*
X-375610Y-17607117D01*
X-375610Y-17607117D01*
G37*
G36*
X-4175610Y-17607117D02*
G01*
X-4057136Y-17656191D01*
X-4057133Y-17656193D01*
X-3950510Y-17727436D01*
X-3859836Y-17818110D01*
X-3859835Y-17818112D01*
X-3788591Y-17924736D01*
X-3739517Y-18043210D01*
X-3714500Y-18168982D01*
X-3714500Y-18297218D01*
X-3739517Y-18422990D01*
X-3788591Y-18541464D01*
X-3788593Y-18541467D01*
X-3859836Y-18648090D01*
X-3950510Y-18738764D01*
X-4057133Y-18810007D01*
X-4057136Y-18810009D01*
X-4175610Y-18859083D01*
X-4301382Y-18884100D01*
X-4429618Y-18884100D01*
X-4555390Y-18859083D01*
X-4673864Y-18810009D01*
X-4673867Y-18810007D01*
X-4780490Y-18738764D01*
X-4871164Y-18648090D01*
X-4942407Y-18541467D01*
X-4942409Y-18541464D01*
X-4991483Y-18422990D01*
X-5016500Y-18297218D01*
X-5016500Y-18168982D01*
X-4991483Y-18043210D01*
X-4942409Y-17924736D01*
X-4871165Y-17818112D01*
X-4871164Y-17818110D01*
X-4780490Y-17727436D01*
X-4673867Y-17656193D01*
X-4673864Y-17656191D01*
X-4555390Y-17607117D01*
X-4429618Y-17582100D01*
X-4301382Y-17582100D01*
X-4175610Y-17607117D01*
X-4175610Y-17607117D01*
G37*
G36*
X-2175610Y-17607117D02*
G01*
X-2057136Y-17656191D01*
X-2057133Y-17656193D01*
X-1950510Y-17727436D01*
X-1859836Y-17818110D01*
X-1859835Y-17818112D01*
X-1788591Y-17924736D01*
X-1739517Y-18043210D01*
X-1714500Y-18168982D01*
X-1714500Y-18297218D01*
X-1739517Y-18422990D01*
X-1788591Y-18541464D01*
X-1788593Y-18541467D01*
X-1859836Y-18648090D01*
X-1950510Y-18738764D01*
X-2057133Y-18810007D01*
X-2057136Y-18810009D01*
X-2175610Y-18859083D01*
X-2301382Y-18884100D01*
X-2429618Y-18884100D01*
X-2555390Y-18859083D01*
X-2673864Y-18810009D01*
X-2673867Y-18810007D01*
X-2780490Y-18738764D01*
X-2871164Y-18648090D01*
X-2942407Y-18541467D01*
X-2942409Y-18541464D01*
X-2991483Y-18422990D01*
X-3016500Y-18297218D01*
X-3016500Y-18168982D01*
X-2991483Y-18043210D01*
X-2942409Y-17924736D01*
X-2871165Y-17818112D01*
X-2871164Y-17818110D01*
X-2780490Y-17727436D01*
X-2673867Y-17656193D01*
X-2673864Y-17656191D01*
X-2555390Y-17607117D01*
X-2429618Y-17582100D01*
X-2301382Y-17582100D01*
X-2175610Y-17607117D01*
X-2175610Y-17607117D01*
G37*
G36*
X66172186Y-16344723D02*
G01*
X66343258Y-16415583D01*
X66497219Y-16518457D01*
X66628143Y-16649381D01*
X66731017Y-16803342D01*
X66801877Y-16974414D01*
X66838000Y-17156017D01*
X66838000Y-17341183D01*
X66801877Y-17522786D01*
X66731017Y-17693858D01*
X66628143Y-17847819D01*
X66497219Y-17978743D01*
X66343258Y-18081617D01*
X66172186Y-18152477D01*
X65990583Y-18188600D01*
X65805417Y-18188600D01*
X65623814Y-18152477D01*
X65452742Y-18081617D01*
X65298781Y-17978743D01*
X65167857Y-17847819D01*
X65064983Y-17693858D01*
X64994123Y-17522786D01*
X64958000Y-17341183D01*
X64958000Y-17156017D01*
X64994123Y-16974414D01*
X65064983Y-16803342D01*
X65167857Y-16649381D01*
X65298781Y-16518457D01*
X65452742Y-16415583D01*
X65623814Y-16344723D01*
X65805417Y-16308600D01*
X65990583Y-16308600D01*
X66172186Y-16344723D01*
X66172186Y-16344723D01*
G37*
G36*
X44472186Y-16344723D02*
G01*
X44643258Y-16415583D01*
X44797219Y-16518457D01*
X44928143Y-16649381D01*
X45031017Y-16803342D01*
X45101877Y-16974414D01*
X45138000Y-17156017D01*
X45138000Y-17341183D01*
X45101877Y-17522786D01*
X45031017Y-17693858D01*
X44928143Y-17847819D01*
X44797219Y-17978743D01*
X44643258Y-18081617D01*
X44472186Y-18152477D01*
X44290583Y-18188600D01*
X44105417Y-18188600D01*
X43923814Y-18152477D01*
X43752742Y-18081617D01*
X43598781Y-17978743D01*
X43467857Y-17847819D01*
X43364983Y-17693858D01*
X43294123Y-17522786D01*
X43258000Y-17341183D01*
X43258000Y-17156017D01*
X43294123Y-16974414D01*
X43364983Y-16803342D01*
X43467857Y-16649381D01*
X43598781Y-16518457D01*
X43752742Y-16415583D01*
X43923814Y-16344723D01*
X44105417Y-16308600D01*
X44290583Y-16308600D01*
X44472186Y-16344723D01*
X44472186Y-16344723D01*
G37*
G36*
X-525610Y-16007117D02*
G01*
X-407136Y-16056191D01*
X-407133Y-16056193D01*
X-300510Y-16127436D01*
X-209836Y-16218110D01*
X-209835Y-16218112D01*
X-138591Y-16324736D01*
X-89517Y-16443210D01*
X-64500Y-16568982D01*
X-64500Y-16697218D01*
X-89517Y-16822990D01*
X-138591Y-16941464D01*
X-138593Y-16941467D01*
X-209836Y-17048090D01*
X-300510Y-17138764D01*
X-326331Y-17156017D01*
X-407136Y-17210009D01*
X-525610Y-17259083D01*
X-651382Y-17284100D01*
X-779618Y-17284100D01*
X-905390Y-17259083D01*
X-1023864Y-17210009D01*
X-1104669Y-17156017D01*
X-1130490Y-17138764D01*
X-1221164Y-17048090D01*
X-1292407Y-16941467D01*
X-1292409Y-16941464D01*
X-1341483Y-16822990D01*
X-1366500Y-16697218D01*
X-1366500Y-16568982D01*
X-1341483Y-16443210D01*
X-1292409Y-16324736D01*
X-1221165Y-16218112D01*
X-1221164Y-16218110D01*
X-1130490Y-16127436D01*
X-1023867Y-16056193D01*
X-1023864Y-16056191D01*
X-905390Y-16007117D01*
X-779618Y-15982100D01*
X-651382Y-15982100D01*
X-525610Y-16007117D01*
X-525610Y-16007117D01*
G37*
G36*
X-3175610Y-16007117D02*
G01*
X-3057136Y-16056191D01*
X-3057133Y-16056193D01*
X-2950510Y-16127436D01*
X-2859836Y-16218110D01*
X-2859835Y-16218112D01*
X-2788591Y-16324736D01*
X-2739517Y-16443210D01*
X-2714500Y-16568982D01*
X-2714500Y-16697218D01*
X-2739517Y-16822990D01*
X-2788591Y-16941464D01*
X-2788593Y-16941467D01*
X-2859836Y-17048090D01*
X-2950510Y-17138764D01*
X-2976331Y-17156017D01*
X-3057136Y-17210009D01*
X-3175610Y-17259083D01*
X-3301382Y-17284100D01*
X-3429618Y-17284100D01*
X-3555390Y-17259083D01*
X-3673864Y-17210009D01*
X-3754669Y-17156017D01*
X-3780490Y-17138764D01*
X-3871164Y-17048090D01*
X-3942407Y-16941467D01*
X-3942409Y-16941464D01*
X-3991483Y-16822990D01*
X-4016500Y-16697218D01*
X-4016500Y-16568982D01*
X-3991483Y-16443210D01*
X-3942409Y-16324736D01*
X-3871165Y-16218112D01*
X-3871164Y-16218110D01*
X-3780490Y-16127436D01*
X-3673867Y-16056193D01*
X-3673864Y-16056191D01*
X-3555390Y-16007117D01*
X-3429618Y-15982100D01*
X-3301382Y-15982100D01*
X-3175610Y-16007117D01*
X-3175610Y-16007117D01*
G37*
G36*
X-5875610Y-16007117D02*
G01*
X-5757136Y-16056191D01*
X-5757133Y-16056193D01*
X-5650510Y-16127436D01*
X-5559836Y-16218110D01*
X-5559835Y-16218112D01*
X-5488591Y-16324736D01*
X-5439517Y-16443210D01*
X-5414500Y-16568982D01*
X-5414500Y-16697218D01*
X-5439517Y-16822990D01*
X-5488591Y-16941464D01*
X-5488593Y-16941467D01*
X-5559836Y-17048090D01*
X-5650510Y-17138764D01*
X-5676331Y-17156017D01*
X-5757136Y-17210009D01*
X-5875610Y-17259083D01*
X-6001382Y-17284100D01*
X-6129618Y-17284100D01*
X-6255390Y-17259083D01*
X-6373864Y-17210009D01*
X-6454669Y-17156017D01*
X-6480490Y-17138764D01*
X-6571164Y-17048090D01*
X-6642407Y-16941467D01*
X-6642409Y-16941464D01*
X-6691483Y-16822990D01*
X-6716500Y-16697218D01*
X-6716500Y-16568982D01*
X-6691483Y-16443210D01*
X-6642409Y-16324736D01*
X-6571165Y-16218112D01*
X-6571164Y-16218110D01*
X-6480490Y-16127436D01*
X-6373867Y-16056193D01*
X-6373864Y-16056191D01*
X-6255390Y-16007117D01*
X-6129618Y-15982100D01*
X-6001382Y-15982100D01*
X-5875610Y-16007117D01*
X-5875610Y-16007117D01*
G37*
G36*
X-4625610Y-14607117D02*
G01*
X-4507136Y-14656191D01*
X-4507133Y-14656193D01*
X-4400510Y-14727436D01*
X-4309836Y-14818110D01*
X-4309835Y-14818112D01*
X-4238591Y-14924736D01*
X-4189517Y-15043210D01*
X-4164500Y-15168982D01*
X-4164500Y-15297218D01*
X-4189517Y-15422990D01*
X-4238591Y-15541464D01*
X-4238593Y-15541467D01*
X-4309836Y-15648090D01*
X-4400510Y-15738764D01*
X-4435284Y-15761999D01*
X-4507136Y-15810009D01*
X-4625610Y-15859083D01*
X-4751382Y-15884100D01*
X-4879618Y-15884100D01*
X-5005390Y-15859083D01*
X-5123864Y-15810009D01*
X-5195716Y-15761999D01*
X-5230490Y-15738764D01*
X-5321164Y-15648090D01*
X-5392407Y-15541467D01*
X-5392409Y-15541464D01*
X-5441483Y-15422990D01*
X-5466500Y-15297218D01*
X-5466500Y-15168982D01*
X-5441483Y-15043210D01*
X-5392409Y-14924736D01*
X-5321165Y-14818112D01*
X-5321164Y-14818110D01*
X-5230490Y-14727436D01*
X-5123867Y-14656193D01*
X-5123864Y-14656191D01*
X-5005390Y-14607117D01*
X-4879618Y-14582100D01*
X-4751382Y-14582100D01*
X-4625610Y-14607117D01*
X-4625610Y-14607117D01*
G37*
G36*
X-1725610Y-14607117D02*
G01*
X-1607136Y-14656191D01*
X-1607133Y-14656193D01*
X-1500510Y-14727436D01*
X-1409836Y-14818110D01*
X-1409835Y-14818112D01*
X-1338591Y-14924736D01*
X-1289517Y-15043210D01*
X-1264500Y-15168982D01*
X-1264500Y-15297218D01*
X-1289517Y-15422990D01*
X-1338591Y-15541464D01*
X-1338593Y-15541467D01*
X-1409836Y-15648090D01*
X-1500510Y-15738764D01*
X-1535284Y-15761999D01*
X-1607136Y-15810009D01*
X-1725610Y-15859083D01*
X-1851382Y-15884100D01*
X-1979618Y-15884100D01*
X-2105390Y-15859083D01*
X-2223864Y-15810009D01*
X-2295716Y-15761999D01*
X-2330490Y-15738764D01*
X-2421164Y-15648090D01*
X-2492407Y-15541467D01*
X-2492409Y-15541464D01*
X-2541483Y-15422990D01*
X-2566500Y-15297218D01*
X-2566500Y-15168982D01*
X-2541483Y-15043210D01*
X-2492409Y-14924736D01*
X-2421165Y-14818112D01*
X-2421164Y-14818110D01*
X-2330490Y-14727436D01*
X-2223867Y-14656193D01*
X-2223864Y-14656191D01*
X-2105390Y-14607117D01*
X-1979618Y-14582100D01*
X-1851382Y-14582100D01*
X-1725610Y-14607117D01*
X-1725610Y-14607117D01*
G37*
G36*
X63542272Y-13655201D02*
G01*
X63719463Y-13708951D01*
X63882763Y-13796237D01*
X64025896Y-13913704D01*
X64143363Y-14056837D01*
X64230649Y-14220137D01*
X64284399Y-14397329D01*
X64298000Y-14535424D01*
X64298000Y-14881777D01*
X64284399Y-15019872D01*
X64230649Y-15197063D01*
X64143363Y-15360363D01*
X64025896Y-15503496D01*
X63882763Y-15620963D01*
X63719462Y-15708249D01*
X63542271Y-15761999D01*
X63358000Y-15780148D01*
X63173728Y-15761999D01*
X62996537Y-15708249D01*
X62833237Y-15620963D01*
X62690104Y-15503496D01*
X62572637Y-15360363D01*
X62485351Y-15197062D01*
X62431601Y-15019871D01*
X62418000Y-14881776D01*
X62418000Y-14535423D01*
X62431601Y-14397328D01*
X62485351Y-14220137D01*
X62572637Y-14056837D01*
X62690104Y-13913704D01*
X62833238Y-13796237D01*
X62996538Y-13708951D01*
X63173729Y-13655201D01*
X63358000Y-13637052D01*
X63542272Y-13655201D01*
X63542272Y-13655201D01*
G37*
G36*
X68622272Y-13655201D02*
G01*
X68799463Y-13708951D01*
X68962763Y-13796237D01*
X69105896Y-13913704D01*
X69223363Y-14056837D01*
X69310649Y-14220137D01*
X69364399Y-14397329D01*
X69378000Y-14535424D01*
X69378000Y-14881777D01*
X69364399Y-15019872D01*
X69310649Y-15197063D01*
X69223363Y-15360363D01*
X69105896Y-15503496D01*
X68962763Y-15620963D01*
X68799462Y-15708249D01*
X68622271Y-15761999D01*
X68438000Y-15780148D01*
X68253728Y-15761999D01*
X68076537Y-15708249D01*
X67913237Y-15620963D01*
X67770104Y-15503496D01*
X67652637Y-15360363D01*
X67565351Y-15197062D01*
X67511601Y-15019871D01*
X67498000Y-14881776D01*
X67498000Y-14535423D01*
X67511601Y-14397328D01*
X67565351Y-14220137D01*
X67652637Y-14056837D01*
X67770104Y-13913704D01*
X67913238Y-13796237D01*
X68076538Y-13708951D01*
X68253729Y-13655201D01*
X68438000Y-13637052D01*
X68622272Y-13655201D01*
X68622272Y-13655201D01*
G37*
G36*
X41842272Y-13655201D02*
G01*
X42019463Y-13708951D01*
X42182763Y-13796237D01*
X42325896Y-13913704D01*
X42443363Y-14056837D01*
X42530649Y-14220137D01*
X42584399Y-14397329D01*
X42598000Y-14535424D01*
X42598000Y-14881777D01*
X42584399Y-15019872D01*
X42530649Y-15197063D01*
X42443363Y-15360363D01*
X42325896Y-15503496D01*
X42182763Y-15620963D01*
X42019462Y-15708249D01*
X41842271Y-15761999D01*
X41658000Y-15780148D01*
X41473728Y-15761999D01*
X41296537Y-15708249D01*
X41133237Y-15620963D01*
X40990104Y-15503496D01*
X40872637Y-15360363D01*
X40785351Y-15197062D01*
X40731601Y-15019871D01*
X40718000Y-14881776D01*
X40718000Y-14535423D01*
X40731601Y-14397328D01*
X40785351Y-14220137D01*
X40872637Y-14056837D01*
X40990104Y-13913704D01*
X41133238Y-13796237D01*
X41296538Y-13708951D01*
X41473729Y-13655201D01*
X41658000Y-13637052D01*
X41842272Y-13655201D01*
X41842272Y-13655201D01*
G37*
G36*
X46922272Y-13655201D02*
G01*
X47099463Y-13708951D01*
X47262763Y-13796237D01*
X47405896Y-13913704D01*
X47523363Y-14056837D01*
X47610649Y-14220137D01*
X47664399Y-14397329D01*
X47678000Y-14535424D01*
X47678000Y-14881777D01*
X47664399Y-15019872D01*
X47610649Y-15197063D01*
X47523363Y-15360363D01*
X47405896Y-15503496D01*
X47262763Y-15620963D01*
X47099462Y-15708249D01*
X46922271Y-15761999D01*
X46738000Y-15780148D01*
X46553728Y-15761999D01*
X46376537Y-15708249D01*
X46213237Y-15620963D01*
X46070104Y-15503496D01*
X45952637Y-15360363D01*
X45865351Y-15197062D01*
X45811601Y-15019871D01*
X45798000Y-14881776D01*
X45798000Y-14535423D01*
X45811601Y-14397328D01*
X45865351Y-14220137D01*
X45952637Y-14056837D01*
X46070104Y-13913704D01*
X46213238Y-13796237D01*
X46376538Y-13708951D01*
X46553729Y-13655201D01*
X46738000Y-13637052D01*
X46922272Y-13655201D01*
X46922272Y-13655201D01*
G37*
G36*
X44472186Y-13804723D02*
G01*
X44643258Y-13875583D01*
X44797219Y-13978457D01*
X44928143Y-14109381D01*
X45031017Y-14263342D01*
X45101877Y-14434414D01*
X45138000Y-14616017D01*
X45138000Y-14801183D01*
X45101877Y-14982786D01*
X45031017Y-15153858D01*
X44928143Y-15307819D01*
X44797219Y-15438743D01*
X44643258Y-15541617D01*
X44472186Y-15612477D01*
X44290583Y-15648600D01*
X44105417Y-15648600D01*
X43923814Y-15612477D01*
X43752742Y-15541617D01*
X43598781Y-15438743D01*
X43467857Y-15307819D01*
X43364983Y-15153858D01*
X43294123Y-14982786D01*
X43258000Y-14801183D01*
X43258000Y-14616017D01*
X43294123Y-14434414D01*
X43364983Y-14263342D01*
X43467857Y-14109381D01*
X43598781Y-13978457D01*
X43752742Y-13875583D01*
X43923814Y-13804723D01*
X44105417Y-13768600D01*
X44290583Y-13768600D01*
X44472186Y-13804723D01*
X44472186Y-13804723D01*
G37*
G36*
X66172186Y-13804723D02*
G01*
X66343258Y-13875583D01*
X66497219Y-13978457D01*
X66628143Y-14109381D01*
X66731017Y-14263342D01*
X66801877Y-14434414D01*
X66838000Y-14616017D01*
X66838000Y-14801183D01*
X66801877Y-14982786D01*
X66731017Y-15153858D01*
X66628143Y-15307819D01*
X66497219Y-15438743D01*
X66343258Y-15541617D01*
X66172186Y-15612477D01*
X65990583Y-15648600D01*
X65805417Y-15648600D01*
X65623814Y-15612477D01*
X65452742Y-15541617D01*
X65298781Y-15438743D01*
X65167857Y-15307819D01*
X65064983Y-15153858D01*
X64994123Y-14982786D01*
X64958000Y-14801183D01*
X64958000Y-14616017D01*
X64994123Y-14434414D01*
X65064983Y-14263342D01*
X65167857Y-14109381D01*
X65298781Y-13978457D01*
X65452742Y-13875583D01*
X65623814Y-13804723D01*
X65805417Y-13768600D01*
X65990583Y-13768600D01*
X66172186Y-13804723D01*
X66172186Y-13804723D01*
G37*
G36*
X-6483068Y-978749D02*
G01*
X-6270421Y-1021047D01*
X-6038024Y-1117309D01*
X-5969955Y-1145504D01*
X-5699547Y-1326185D01*
X-5469585Y-1556147D01*
X-5288904Y-1826555D01*
X-5260709Y-1894624D01*
X-5164447Y-2127021D01*
X-5127082Y-2314869D01*
X-5105907Y-2421319D01*
X-5101000Y-2445991D01*
X-5101000Y-2771209D01*
X-5164447Y-3090179D01*
X-5260709Y-3322576D01*
X-5288904Y-3390645D01*
X-5469585Y-3661053D01*
X-5699547Y-3891015D01*
X-5969955Y-4071696D01*
X-6038024Y-4099891D01*
X-6270421Y-4196153D01*
X-6483068Y-4238451D01*
X-6589390Y-4259600D01*
X-6914610Y-4259600D01*
X-7020932Y-4238451D01*
X-7233579Y-4196153D01*
X-7465976Y-4099891D01*
X-7534045Y-4071696D01*
X-7804453Y-3891015D01*
X-8034415Y-3661053D01*
X-8215096Y-3390645D01*
X-8243291Y-3322576D01*
X-8339553Y-3090179D01*
X-8403000Y-2771209D01*
X-8403000Y-2445991D01*
X-8398092Y-2421319D01*
X-8376918Y-2314869D01*
X-8339553Y-2127021D01*
X-8243291Y-1894624D01*
X-8215096Y-1826555D01*
X-8034415Y-1556147D01*
X-7804453Y-1326185D01*
X-7534045Y-1145504D01*
X-7465976Y-1117309D01*
X-7233579Y-1021047D01*
X-7020932Y-978749D01*
X-6914610Y-957600D01*
X-6589390Y-957600D01*
X-6483068Y-978749D01*
X-6483068Y-978749D01*
G37*
G36*
X86774721Y-1730775D02*
G01*
X86874996Y-1772310D01*
X86965242Y-1832610D01*
X87041990Y-1909358D01*
X87102290Y-1999604D01*
X87143825Y-2099879D01*
X87165000Y-2206331D01*
X87165000Y-2314869D01*
X87143825Y-2421321D01*
X87102290Y-2521596D01*
X87041990Y-2611842D01*
X86965242Y-2688590D01*
X86874996Y-2748890D01*
X86774721Y-2790425D01*
X86668269Y-2811600D01*
X86559731Y-2811600D01*
X86453279Y-2790425D01*
X86353004Y-2748890D01*
X86262758Y-2688590D01*
X86186010Y-2611842D01*
X86125710Y-2521596D01*
X86084175Y-2421321D01*
X86063000Y-2314869D01*
X86063000Y-2206331D01*
X86084175Y-2099879D01*
X86125710Y-1999604D01*
X86186010Y-1909358D01*
X86262758Y-1832610D01*
X86353004Y-1772310D01*
X86453279Y-1730775D01*
X86559731Y-1709600D01*
X86668269Y-1709600D01*
X86774721Y-1730775D01*
X86774721Y-1730775D01*
G37*
G36*
X64422721Y3730225D02*
G01*
X64522996Y3688690D01*
X64613242Y3628390D01*
X64689990Y3551642D01*
X64750290Y3461396D01*
X64791825Y3361121D01*
X64813000Y3254669D01*
X64813000Y3146131D01*
X64791825Y3039679D01*
X64750290Y2939404D01*
X64689990Y2849158D01*
X64613242Y2772410D01*
X64522996Y2712110D01*
X64422721Y2670575D01*
X64316269Y2649400D01*
X64207731Y2649400D01*
X64101279Y2670575D01*
X64001004Y2712110D01*
X63910758Y2772410D01*
X63834010Y2849158D01*
X63773710Y2939404D01*
X63732175Y3039679D01*
X63711000Y3146131D01*
X63711000Y3254669D01*
X63732175Y3361121D01*
X63773710Y3461396D01*
X63834010Y3551642D01*
X63910758Y3628390D01*
X64001004Y3688690D01*
X64101279Y3730225D01*
X64207731Y3751400D01*
X64316269Y3751400D01*
X64422721Y3730225D01*
X64422721Y3730225D01*
G37*
G36*
X50849627Y5180563D02*
G01*
X51019466Y5129043D01*
X51175991Y5045378D01*
X51313186Y4932786D01*
X51425778Y4795591D01*
X51509443Y4639066D01*
X51560963Y4469227D01*
X51578359Y4292600D01*
X51560963Y4115973D01*
X51509443Y3946134D01*
X51425778Y3789609D01*
X51313186Y3652414D01*
X51190394Y3551642D01*
X51175991Y3539822D01*
X51019466Y3456157D01*
X50849627Y3404637D01*
X50717258Y3391600D01*
X50628742Y3391600D01*
X50496373Y3404637D01*
X50326534Y3456157D01*
X50170009Y3539822D01*
X50155606Y3551642D01*
X50032814Y3652414D01*
X49920222Y3789609D01*
X49836557Y3946134D01*
X49785037Y4115973D01*
X49767641Y4292600D01*
X49785037Y4469227D01*
X49836557Y4639066D01*
X49920222Y4795591D01*
X50032814Y4932786D01*
X50170009Y5045378D01*
X50326534Y5129043D01*
X50496373Y5180563D01*
X50628742Y5193600D01*
X50717258Y5193600D01*
X50849627Y5180563D01*
X50849627Y5180563D01*
G37*
G36*
X49034000Y3391600D02*
G01*
X47232000Y3391600D01*
X47232000Y5193600D01*
X49034000Y5193600D01*
X49034000Y3391600D01*
X49034000Y3391600D01*
G37*
G36*
X52717753Y4738869D02*
G01*
X52799829Y4704871D01*
X52873698Y4655514D01*
X52936514Y4592698D01*
X52985871Y4518829D01*
X53019869Y4436753D01*
X53037200Y4349620D01*
X53037200Y4260780D01*
X53019869Y4173647D01*
X52985871Y4091571D01*
X52936514Y4017702D01*
X52873698Y3954886D01*
X52799829Y3905529D01*
X52717753Y3871531D01*
X52630620Y3854200D01*
X52541780Y3854200D01*
X52454647Y3871531D01*
X52372571Y3905529D01*
X52298702Y3954886D01*
X52235886Y4017702D01*
X52186529Y4091571D01*
X52152531Y4173647D01*
X52135200Y4260780D01*
X52135200Y4349620D01*
X52152531Y4436753D01*
X52186529Y4518829D01*
X52235886Y4592698D01*
X52298702Y4655514D01*
X52372571Y4704871D01*
X52454647Y4738869D01*
X52541780Y4756200D01*
X52630620Y4756200D01*
X52717753Y4738869D01*
X52717753Y4738869D01*
G37*
G36*
X46217753Y4738869D02*
G01*
X46299829Y4704871D01*
X46373698Y4655514D01*
X46436514Y4592698D01*
X46485871Y4518829D01*
X46519869Y4436753D01*
X46537200Y4349620D01*
X46537200Y4260780D01*
X46519869Y4173647D01*
X46485871Y4091571D01*
X46436514Y4017702D01*
X46373698Y3954886D01*
X46299829Y3905529D01*
X46217753Y3871531D01*
X46130620Y3854200D01*
X46041780Y3854200D01*
X45954647Y3871531D01*
X45872571Y3905529D01*
X45798702Y3954886D01*
X45735886Y4017702D01*
X45686529Y4091571D01*
X45652531Y4173647D01*
X45635200Y4260780D01*
X45635200Y4349620D01*
X45652531Y4436753D01*
X45686529Y4518829D01*
X45735886Y4592698D01*
X45798702Y4655514D01*
X45872571Y4704871D01*
X45954647Y4738869D01*
X46041780Y4756200D01*
X46130620Y4756200D01*
X46217753Y4738869D01*
X46217753Y4738869D01*
G37*
G36*
X49062200Y5954200D02*
G01*
X47610200Y5954200D01*
X47610200Y7406200D01*
X49062200Y7406200D01*
X49062200Y5954200D01*
X49062200Y5954200D01*
G37*
G36*
X50478521Y7395695D02*
G01*
X50615373Y7354182D01*
X50741493Y7286769D01*
X50852043Y7196043D01*
X50942769Y7085493D01*
X51010182Y6959373D01*
X51051695Y6822521D01*
X51065713Y6680200D01*
X51051695Y6537879D01*
X51010182Y6401027D01*
X50942769Y6274907D01*
X50852043Y6164357D01*
X50741493Y6073631D01*
X50615373Y6006218D01*
X50478521Y5964705D01*
X50371865Y5954200D01*
X50300535Y5954200D01*
X50193879Y5964705D01*
X50057027Y6006218D01*
X49930907Y6073631D01*
X49820357Y6164357D01*
X49729631Y6274907D01*
X49662218Y6401027D01*
X49620705Y6537879D01*
X49606687Y6680200D01*
X49620705Y6822521D01*
X49662218Y6959373D01*
X49729631Y7085493D01*
X49820357Y7196043D01*
X49930907Y7286769D01*
X50057027Y7354182D01*
X50193879Y7395695D01*
X50300535Y7406200D01*
X50371865Y7406200D01*
X50478521Y7395695D01*
X50478521Y7395695D01*
G37*
G36*
X18829721Y7286225D02*
G01*
X18929996Y7244690D01*
X19020242Y7184390D01*
X19096990Y7107642D01*
X19157290Y7017396D01*
X19198825Y6917121D01*
X19220000Y6810669D01*
X19220000Y6702131D01*
X19198825Y6595679D01*
X19157290Y6495404D01*
X19096990Y6405158D01*
X19020242Y6328410D01*
X18929996Y6268110D01*
X18829721Y6226575D01*
X18723269Y6205400D01*
X18614731Y6205400D01*
X18508279Y6226575D01*
X18408004Y6268110D01*
X18317758Y6328410D01*
X18241010Y6405158D01*
X18180710Y6495404D01*
X18139175Y6595679D01*
X18118000Y6702131D01*
X18118000Y6810669D01*
X18139175Y6917121D01*
X18180710Y7017396D01*
X18241010Y7107642D01*
X18317758Y7184390D01*
X18408004Y7244690D01*
X18508279Y7286225D01*
X18614731Y7307400D01*
X18723269Y7307400D01*
X18829721Y7286225D01*
X18829721Y7286225D01*
G37*
G36*
X-7362058Y12525152D02*
G01*
X-6806809Y12295161D01*
X-6307097Y11961264D01*
X-5882136Y11536303D01*
X-5548239Y11036591D01*
X-5318248Y10481342D01*
X-5201000Y9891898D01*
X-5201000Y9290902D01*
X-5318248Y8701458D01*
X-5548239Y8146209D01*
X-5882136Y7646497D01*
X-6307097Y7221536D01*
X-6806809Y6887639D01*
X-7362058Y6657648D01*
X-7951502Y6540400D01*
X-8552498Y6540400D01*
X-9141942Y6657648D01*
X-9697191Y6887639D01*
X-10196903Y7221536D01*
X-10621864Y7646497D01*
X-10955761Y8146209D01*
X-11185752Y8701458D01*
X-11303000Y9290902D01*
X-11303000Y9891898D01*
X-11185752Y10481342D01*
X-10955761Y11036591D01*
X-10621864Y11536303D01*
X-10196903Y11961264D01*
X-9697191Y12295161D01*
X-9141942Y12525152D01*
X-8552498Y12642400D01*
X-7951502Y12642400D01*
X-7362058Y12525152D01*
X-7362058Y12525152D01*
G37*
G36*
X30620812Y9457776D02*
G01*
X30784784Y9389856D01*
X30802871Y9377771D01*
X30932358Y9291250D01*
X31057850Y9165758D01*
X31057852Y9165755D01*
X31057853Y9165754D01*
X31156456Y9018184D01*
X31224376Y8854212D01*
X31259000Y8680141D01*
X31259000Y8502659D01*
X31224376Y8328588D01*
X31156456Y8164616D01*
X31076418Y8044830D01*
X31057850Y8017042D01*
X30932358Y7891550D01*
X30932355Y7891548D01*
X30932354Y7891547D01*
X30784784Y7792944D01*
X30620812Y7725024D01*
X30446741Y7690400D01*
X30269259Y7690400D01*
X30095188Y7725024D01*
X29931216Y7792944D01*
X29783646Y7891547D01*
X29783645Y7891548D01*
X29783642Y7891550D01*
X29658150Y8017042D01*
X29639583Y8044830D01*
X29559544Y8164616D01*
X29491624Y8328588D01*
X29457000Y8502659D01*
X29457000Y8680141D01*
X29491624Y8854212D01*
X29559544Y9018184D01*
X29658147Y9165754D01*
X29658148Y9165755D01*
X29658150Y9165758D01*
X29783642Y9291250D01*
X29913130Y9377771D01*
X29931216Y9389856D01*
X30095188Y9457776D01*
X30269259Y9492400D01*
X30446741Y9492400D01*
X30620812Y9457776D01*
X30620812Y9457776D01*
G37*
G36*
X33799000Y7690400D02*
G01*
X31997000Y7690400D01*
X31997000Y9492400D01*
X33799000Y9492400D01*
X33799000Y7690400D01*
X33799000Y7690400D01*
G37*
G36*
X46217753Y9488869D02*
G01*
X46299829Y9454871D01*
X46373698Y9405514D01*
X46436514Y9342698D01*
X46485871Y9268829D01*
X46519869Y9186753D01*
X46537200Y9099620D01*
X46537200Y9010780D01*
X46519869Y8923647D01*
X46485871Y8841571D01*
X46436514Y8767702D01*
X46373698Y8704886D01*
X46299829Y8655529D01*
X46217753Y8621531D01*
X46130620Y8604200D01*
X46041780Y8604200D01*
X45954647Y8621531D01*
X45872571Y8655529D01*
X45798702Y8704886D01*
X45735886Y8767702D01*
X45686529Y8841571D01*
X45652531Y8923647D01*
X45635200Y9010780D01*
X45635200Y9099620D01*
X45652531Y9186753D01*
X45686529Y9268829D01*
X45735886Y9342698D01*
X45798702Y9405514D01*
X45872571Y9454871D01*
X45954647Y9488869D01*
X46041780Y9506200D01*
X46130620Y9506200D01*
X46217753Y9488869D01*
X46217753Y9488869D01*
G37*
G36*
X52717753Y9488869D02*
G01*
X52799829Y9454871D01*
X52873698Y9405514D01*
X52936514Y9342698D01*
X52985871Y9268829D01*
X53019869Y9186753D01*
X53037200Y9099620D01*
X53037200Y9010780D01*
X53019869Y8923647D01*
X52985871Y8841571D01*
X52936514Y8767702D01*
X52873698Y8704886D01*
X52799829Y8655529D01*
X52717753Y8621531D01*
X52630620Y8604200D01*
X52541780Y8604200D01*
X52454647Y8621531D01*
X52372571Y8655529D01*
X52298702Y8704886D01*
X52235886Y8767702D01*
X52186529Y8841571D01*
X52152531Y8923647D01*
X52135200Y9010780D01*
X52135200Y9099620D01*
X52152531Y9186753D01*
X52186529Y9268829D01*
X52235886Y9342698D01*
X52298702Y9405514D01*
X52372571Y9454871D01*
X52454647Y9488869D01*
X52541780Y9506200D01*
X52630620Y9506200D01*
X52717753Y9488869D01*
X52717753Y9488869D01*
G37*
G36*
X143016932Y12721251D02*
G01*
X143229579Y12678953D01*
X143461976Y12582691D01*
X143530045Y12554496D01*
X143800453Y12373815D01*
X144030415Y12143853D01*
X144211096Y11873445D01*
X144239291Y11805376D01*
X144335553Y11572979D01*
X144356059Y11469886D01*
X144399000Y11254010D01*
X144399000Y10928790D01*
X144391907Y10893131D01*
X144335553Y10609821D01*
X144261709Y10431547D01*
X144211096Y10309355D01*
X144030415Y10038947D01*
X143800453Y9808985D01*
X143530045Y9628304D01*
X143461976Y9600109D01*
X143229579Y9503847D01*
X143016932Y9461549D01*
X142910610Y9440400D01*
X142585390Y9440400D01*
X142479068Y9461549D01*
X142266421Y9503847D01*
X142034024Y9600109D01*
X141965955Y9628304D01*
X141695547Y9808985D01*
X141465585Y10038947D01*
X141284904Y10309355D01*
X141234291Y10431547D01*
X141160447Y10609821D01*
X141104093Y10893131D01*
X141097000Y10928790D01*
X141097000Y11254010D01*
X141139941Y11469886D01*
X141160447Y11572979D01*
X141256709Y11805376D01*
X141284904Y11873445D01*
X141465585Y12143853D01*
X141695547Y12373815D01*
X141965955Y12554496D01*
X142034024Y12582691D01*
X142266421Y12678953D01*
X142479068Y12721251D01*
X142585390Y12742400D01*
X142910610Y12742400D01*
X143016932Y12721251D01*
X143016932Y12721251D01*
G37*
G36*
X30620812Y11997776D02*
G01*
X30784784Y11929856D01*
X30869214Y11873442D01*
X30932358Y11831250D01*
X31057850Y11705758D01*
X31057852Y11705755D01*
X31057853Y11705754D01*
X31156456Y11558184D01*
X31224376Y11394212D01*
X31259000Y11220141D01*
X31259000Y11042659D01*
X31224376Y10868588D01*
X31174725Y10748722D01*
X31156456Y10704616D01*
X31057850Y10557042D01*
X30932358Y10431550D01*
X30932355Y10431548D01*
X30932354Y10431547D01*
X30784784Y10332944D01*
X30620812Y10265024D01*
X30446741Y10230400D01*
X30269259Y10230400D01*
X30095188Y10265024D01*
X29931216Y10332944D01*
X29783646Y10431547D01*
X29783645Y10431548D01*
X29783642Y10431550D01*
X29658150Y10557042D01*
X29559544Y10704616D01*
X29541275Y10748722D01*
X29491624Y10868588D01*
X29457000Y11042659D01*
X29457000Y11220141D01*
X29491624Y11394212D01*
X29559544Y11558184D01*
X29658147Y11705754D01*
X29658148Y11705755D01*
X29658150Y11705758D01*
X29783642Y11831250D01*
X29846787Y11873442D01*
X29931216Y11929856D01*
X30095188Y11997776D01*
X30269259Y12032400D01*
X30446741Y12032400D01*
X30620812Y11997776D01*
X30620812Y11997776D01*
G37*
G36*
X33160812Y11997776D02*
G01*
X33324784Y11929856D01*
X33409214Y11873442D01*
X33472358Y11831250D01*
X33597850Y11705758D01*
X33597852Y11705755D01*
X33597853Y11705754D01*
X33696456Y11558184D01*
X33764376Y11394212D01*
X33799000Y11220141D01*
X33799000Y11042659D01*
X33764376Y10868588D01*
X33714725Y10748722D01*
X33696456Y10704616D01*
X33597850Y10557042D01*
X33472358Y10431550D01*
X33472355Y10431548D01*
X33472354Y10431547D01*
X33324784Y10332944D01*
X33160812Y10265024D01*
X32986741Y10230400D01*
X32809259Y10230400D01*
X32635188Y10265024D01*
X32471216Y10332944D01*
X32323646Y10431547D01*
X32323645Y10431548D01*
X32323642Y10431550D01*
X32198150Y10557042D01*
X32099544Y10704616D01*
X32081275Y10748722D01*
X32031624Y10868588D01*
X31997000Y11042659D01*
X31997000Y11220141D01*
X32031624Y11394212D01*
X32099544Y11558184D01*
X32198147Y11705754D01*
X32198148Y11705755D01*
X32198150Y11705758D01*
X32323642Y11831250D01*
X32386787Y11873442D01*
X32471216Y11929856D01*
X32635188Y11997776D01*
X32809259Y12032400D01*
X32986741Y12032400D01*
X33160812Y11997776D01*
X33160812Y11997776D01*
G37*
G36*
X120556721Y11477225D02*
G01*
X120656996Y11435690D01*
X120747242Y11375390D01*
X120823990Y11298642D01*
X120884290Y11208396D01*
X120925825Y11108121D01*
X120947000Y11001669D01*
X120947000Y10893131D01*
X120925825Y10786679D01*
X120884290Y10686404D01*
X120823990Y10596158D01*
X120747242Y10519410D01*
X120656996Y10459110D01*
X120556721Y10417575D01*
X120450269Y10396400D01*
X120341731Y10396400D01*
X120235279Y10417575D01*
X120135004Y10459110D01*
X120044758Y10519410D01*
X119968010Y10596158D01*
X119907710Y10686404D01*
X119866175Y10786679D01*
X119845000Y10893131D01*
X119845000Y11001669D01*
X119866175Y11108121D01*
X119907710Y11208396D01*
X119968010Y11298642D01*
X120044758Y11375390D01*
X120135004Y11435690D01*
X120235279Y11477225D01*
X120341731Y11498400D01*
X120450269Y11498400D01*
X120556721Y11477225D01*
X120556721Y11477225D01*
G37*
G36*
X80170721Y11985225D02*
G01*
X80270996Y11943690D01*
X80361242Y11883390D01*
X80437990Y11806642D01*
X80498290Y11716396D01*
X80539825Y11616121D01*
X80561000Y11509669D01*
X80561000Y11401131D01*
X80539825Y11294679D01*
X80498290Y11194404D01*
X80437990Y11104158D01*
X80361242Y11027410D01*
X80270996Y10967110D01*
X80170721Y10925575D01*
X80064269Y10904400D01*
X79955731Y10904400D01*
X79849279Y10925575D01*
X79749004Y10967110D01*
X79658758Y11027410D01*
X79582010Y11104158D01*
X79521710Y11194404D01*
X79480175Y11294679D01*
X79459000Y11401131D01*
X79459000Y11509669D01*
X79480175Y11616121D01*
X79521710Y11716396D01*
X79582010Y11806642D01*
X79658758Y11883390D01*
X79749004Y11943690D01*
X79849279Y11985225D01*
X79955731Y12006400D01*
X80064269Y12006400D01*
X80170721Y11985225D01*
X80170721Y11985225D01*
G37*
G36*
X30620812Y14537776D02*
G01*
X30784784Y14469856D01*
X30881287Y14405375D01*
X30932358Y14371250D01*
X31057850Y14245758D01*
X31057852Y14245755D01*
X31057853Y14245754D01*
X31156456Y14098184D01*
X31224376Y13934212D01*
X31259000Y13760141D01*
X31259000Y13582659D01*
X31224376Y13408588D01*
X31156456Y13244616D01*
X31057850Y13097042D01*
X30932358Y12971550D01*
X30932355Y12971548D01*
X30932354Y12971547D01*
X30784784Y12872944D01*
X30620812Y12805024D01*
X30446741Y12770400D01*
X30269259Y12770400D01*
X30095188Y12805024D01*
X29931216Y12872944D01*
X29783646Y12971547D01*
X29783645Y12971548D01*
X29783642Y12971550D01*
X29658150Y13097042D01*
X29559544Y13244616D01*
X29491624Y13408588D01*
X29457000Y13582659D01*
X29457000Y13760141D01*
X29491624Y13934212D01*
X29559544Y14098184D01*
X29658147Y14245754D01*
X29658148Y14245755D01*
X29658150Y14245758D01*
X29783642Y14371250D01*
X29834714Y14405375D01*
X29931216Y14469856D01*
X30095188Y14537776D01*
X30269259Y14572400D01*
X30446741Y14572400D01*
X30620812Y14537776D01*
X30620812Y14537776D01*
G37*
G36*
X33160812Y14537776D02*
G01*
X33324784Y14469856D01*
X33421287Y14405375D01*
X33472358Y14371250D01*
X33597850Y14245758D01*
X33597852Y14245755D01*
X33597853Y14245754D01*
X33696456Y14098184D01*
X33764376Y13934212D01*
X33799000Y13760141D01*
X33799000Y13582659D01*
X33764376Y13408588D01*
X33696456Y13244616D01*
X33597850Y13097042D01*
X33472358Y12971550D01*
X33472355Y12971548D01*
X33472354Y12971547D01*
X33324784Y12872944D01*
X33160812Y12805024D01*
X32986741Y12770400D01*
X32809259Y12770400D01*
X32635188Y12805024D01*
X32471216Y12872944D01*
X32323646Y12971547D01*
X32323645Y12971548D01*
X32323642Y12971550D01*
X32198150Y13097042D01*
X32099544Y13244616D01*
X32031624Y13408588D01*
X31997000Y13582659D01*
X31997000Y13760141D01*
X32031624Y13934212D01*
X32099544Y14098184D01*
X32198147Y14245754D01*
X32198148Y14245755D01*
X32198150Y14245758D01*
X32323642Y14371250D01*
X32374714Y14405375D01*
X32471216Y14469856D01*
X32635188Y14537776D01*
X32809259Y14572400D01*
X32986741Y14572400D01*
X33160812Y14537776D01*
X33160812Y14537776D01*
G37*
G36*
X69248721Y15465025D02*
G01*
X69348996Y15423490D01*
X69439242Y15363190D01*
X69515990Y15286442D01*
X69576290Y15196196D01*
X69617825Y15095921D01*
X69639000Y14989469D01*
X69639000Y14880931D01*
X69617825Y14774479D01*
X69576290Y14674204D01*
X69515990Y14583958D01*
X69439242Y14507210D01*
X69348996Y14446910D01*
X69248721Y14405375D01*
X69142269Y14384200D01*
X69033731Y14384200D01*
X68927279Y14405375D01*
X68827004Y14446910D01*
X68736758Y14507210D01*
X68660010Y14583958D01*
X68599710Y14674204D01*
X68558175Y14774479D01*
X68537000Y14880931D01*
X68537000Y14989469D01*
X68558175Y15095921D01*
X68599710Y15196196D01*
X68660010Y15286442D01*
X68736758Y15363190D01*
X68827004Y15423490D01*
X68927279Y15465025D01*
X69033731Y15486200D01*
X69142269Y15486200D01*
X69248721Y15465025D01*
X69248721Y15465025D01*
G37*
G36*
X30620812Y17077776D02*
G01*
X30784784Y17009856D01*
X30932358Y16911250D01*
X31057850Y16785758D01*
X31057852Y16785755D01*
X31057853Y16785754D01*
X31156456Y16638184D01*
X31224376Y16474212D01*
X31259000Y16300141D01*
X31259000Y16122659D01*
X31224376Y15948588D01*
X31156456Y15784616D01*
X31057850Y15637042D01*
X30932358Y15511550D01*
X30932355Y15511548D01*
X30932354Y15511547D01*
X30784784Y15412944D01*
X30620812Y15345024D01*
X30446741Y15310400D01*
X30269259Y15310400D01*
X30095188Y15345024D01*
X29931216Y15412944D01*
X29783646Y15511547D01*
X29783645Y15511548D01*
X29783642Y15511550D01*
X29658150Y15637042D01*
X29559544Y15784616D01*
X29491624Y15948588D01*
X29457000Y16122659D01*
X29457000Y16300141D01*
X29491624Y16474212D01*
X29559544Y16638184D01*
X29658147Y16785754D01*
X29658148Y16785755D01*
X29658150Y16785758D01*
X29783642Y16911250D01*
X29931216Y17009856D01*
X30095188Y17077776D01*
X30269259Y17112400D01*
X30446741Y17112400D01*
X30620812Y17077776D01*
X30620812Y17077776D01*
G37*
G36*
X33160812Y17077776D02*
G01*
X33324784Y17009856D01*
X33472358Y16911250D01*
X33597850Y16785758D01*
X33597852Y16785755D01*
X33597853Y16785754D01*
X33696456Y16638184D01*
X33764376Y16474212D01*
X33799000Y16300141D01*
X33799000Y16122659D01*
X33764376Y15948588D01*
X33696456Y15784616D01*
X33597850Y15637042D01*
X33472358Y15511550D01*
X33472355Y15511548D01*
X33472354Y15511547D01*
X33324784Y15412944D01*
X33160812Y15345024D01*
X32986741Y15310400D01*
X32809259Y15310400D01*
X32635188Y15345024D01*
X32471216Y15412944D01*
X32323646Y15511547D01*
X32323645Y15511548D01*
X32323642Y15511550D01*
X32198150Y15637042D01*
X32099544Y15784616D01*
X32031624Y15948588D01*
X31997000Y16122659D01*
X31997000Y16300141D01*
X32031624Y16474212D01*
X32099544Y16638184D01*
X32198147Y16785754D01*
X32198148Y16785755D01*
X32198150Y16785758D01*
X32323642Y16911250D01*
X32471216Y17009856D01*
X32635188Y17077776D01*
X32809259Y17112400D01*
X32986741Y17112400D01*
X33160812Y17077776D01*
X33160812Y17077776D01*
G37*
G36*
X30620812Y19617776D02*
G01*
X30784784Y19549856D01*
X30932358Y19451250D01*
X31057850Y19325758D01*
X31057852Y19325755D01*
X31057853Y19325754D01*
X31156456Y19178184D01*
X31224376Y19014212D01*
X31259000Y18840141D01*
X31259000Y18662659D01*
X31224376Y18488588D01*
X31156456Y18324616D01*
X31057850Y18177042D01*
X30932358Y18051550D01*
X30932355Y18051548D01*
X30932354Y18051547D01*
X30784784Y17952944D01*
X30620812Y17885024D01*
X30446741Y17850400D01*
X30269259Y17850400D01*
X30095188Y17885024D01*
X29931216Y17952944D01*
X29783646Y18051547D01*
X29783645Y18051548D01*
X29783642Y18051550D01*
X29658150Y18177042D01*
X29559544Y18324616D01*
X29491624Y18488588D01*
X29457000Y18662659D01*
X29457000Y18840141D01*
X29491624Y19014212D01*
X29559544Y19178184D01*
X29658147Y19325754D01*
X29658148Y19325755D01*
X29658150Y19325758D01*
X29783642Y19451250D01*
X29931216Y19549856D01*
X30095188Y19617776D01*
X30269259Y19652400D01*
X30446741Y19652400D01*
X30620812Y19617776D01*
X30620812Y19617776D01*
G37*
G36*
X33160812Y19617776D02*
G01*
X33324784Y19549856D01*
X33472358Y19451250D01*
X33597850Y19325758D01*
X33597852Y19325755D01*
X33597853Y19325754D01*
X33696456Y19178184D01*
X33764376Y19014212D01*
X33799000Y18840141D01*
X33799000Y18662659D01*
X33764376Y18488588D01*
X33696456Y18324616D01*
X33597850Y18177042D01*
X33472358Y18051550D01*
X33472355Y18051548D01*
X33472354Y18051547D01*
X33324784Y17952944D01*
X33160812Y17885024D01*
X32986741Y17850400D01*
X32809259Y17850400D01*
X32635188Y17885024D01*
X32471216Y17952944D01*
X32323646Y18051547D01*
X32323645Y18051548D01*
X32323642Y18051550D01*
X32198150Y18177042D01*
X32099544Y18324616D01*
X32031624Y18488588D01*
X31997000Y18662659D01*
X31997000Y18840141D01*
X32031624Y19014212D01*
X32099544Y19178184D01*
X32198147Y19325754D01*
X32198148Y19325755D01*
X32198150Y19325758D01*
X32323642Y19451250D01*
X32471216Y19549856D01*
X32635188Y19617776D01*
X32809259Y19652400D01*
X32986741Y19652400D01*
X33160812Y19617776D01*
X33160812Y19617776D01*
G37*
G36*
X48450812Y20667776D02*
G01*
X48614784Y20599856D01*
X48762358Y20501250D01*
X48887850Y20375758D01*
X48887852Y20375755D01*
X48887853Y20375754D01*
X48986456Y20228184D01*
X49054376Y20064212D01*
X49089000Y19890141D01*
X49089000Y19712659D01*
X49054376Y19538588D01*
X48986456Y19374616D01*
X48887850Y19227042D01*
X48762358Y19101550D01*
X48762355Y19101548D01*
X48762354Y19101547D01*
X48614784Y19002944D01*
X48450812Y18935024D01*
X48276741Y18900400D01*
X48099259Y18900400D01*
X47925188Y18935024D01*
X47761216Y19002944D01*
X47613646Y19101547D01*
X47613645Y19101548D01*
X47613642Y19101550D01*
X47488150Y19227042D01*
X47389544Y19374616D01*
X47321624Y19538588D01*
X47287000Y19712659D01*
X47287000Y19890141D01*
X47321624Y20064212D01*
X47389544Y20228184D01*
X47488147Y20375754D01*
X47488148Y20375755D01*
X47488150Y20375758D01*
X47613642Y20501250D01*
X47761216Y20599856D01*
X47925188Y20667776D01*
X48099259Y20702400D01*
X48276741Y20702400D01*
X48450812Y20667776D01*
X48450812Y20667776D01*
G37*
G36*
X45910812Y20667776D02*
G01*
X46074784Y20599856D01*
X46222358Y20501250D01*
X46347850Y20375758D01*
X46347852Y20375755D01*
X46347853Y20375754D01*
X46446456Y20228184D01*
X46514376Y20064212D01*
X46549000Y19890141D01*
X46549000Y19712659D01*
X46514376Y19538588D01*
X46446456Y19374616D01*
X46347850Y19227042D01*
X46222358Y19101550D01*
X46222355Y19101548D01*
X46222354Y19101547D01*
X46074784Y19002944D01*
X45910812Y18935024D01*
X45736741Y18900400D01*
X45559259Y18900400D01*
X45385188Y18935024D01*
X45221216Y19002944D01*
X45073646Y19101547D01*
X45073645Y19101548D01*
X45073642Y19101550D01*
X44948150Y19227042D01*
X44849544Y19374616D01*
X44781624Y19538588D01*
X44747000Y19712659D01*
X44747000Y19890141D01*
X44781624Y20064212D01*
X44849544Y20228184D01*
X44948147Y20375754D01*
X44948148Y20375755D01*
X44948150Y20375758D01*
X45073642Y20501250D01*
X45221216Y20599856D01*
X45385188Y20667776D01*
X45559259Y20702400D01*
X45736741Y20702400D01*
X45910812Y20667776D01*
X45910812Y20667776D01*
G37*
G36*
X45910812Y23207776D02*
G01*
X46074784Y23139856D01*
X46222358Y23041250D01*
X46347850Y22915758D01*
X46347852Y22915755D01*
X46347853Y22915754D01*
X46446456Y22768184D01*
X46514376Y22604212D01*
X46549000Y22430141D01*
X46549000Y22252659D01*
X46514376Y22078588D01*
X46446456Y21914616D01*
X46347850Y21767042D01*
X46222358Y21641550D01*
X46222355Y21641548D01*
X46222354Y21641547D01*
X46074784Y21542944D01*
X45910812Y21475024D01*
X45736741Y21440400D01*
X45559259Y21440400D01*
X45385188Y21475024D01*
X45221216Y21542944D01*
X45073646Y21641547D01*
X45073645Y21641548D01*
X45073642Y21641550D01*
X44948150Y21767042D01*
X44849544Y21914616D01*
X44781624Y22078588D01*
X44747000Y22252659D01*
X44747000Y22430141D01*
X44781624Y22604212D01*
X44849544Y22768184D01*
X44948147Y22915754D01*
X44948148Y22915755D01*
X44948150Y22915758D01*
X45073642Y23041250D01*
X45221216Y23139856D01*
X45385188Y23207776D01*
X45559259Y23242400D01*
X45736741Y23242400D01*
X45910812Y23207776D01*
X45910812Y23207776D01*
G37*
G36*
X48450812Y23207776D02*
G01*
X48614784Y23139856D01*
X48762358Y23041250D01*
X48887850Y22915758D01*
X48887852Y22915755D01*
X48887853Y22915754D01*
X48986456Y22768184D01*
X49054376Y22604212D01*
X49089000Y22430141D01*
X49089000Y22252659D01*
X49054376Y22078588D01*
X48986456Y21914616D01*
X48887850Y21767042D01*
X48762358Y21641550D01*
X48762355Y21641548D01*
X48762354Y21641547D01*
X48614784Y21542944D01*
X48450812Y21475024D01*
X48276741Y21440400D01*
X48099259Y21440400D01*
X47925188Y21475024D01*
X47761216Y21542944D01*
X47613646Y21641547D01*
X47613645Y21641548D01*
X47613642Y21641550D01*
X47488150Y21767042D01*
X47389544Y21914616D01*
X47321624Y22078588D01*
X47287000Y22252659D01*
X47287000Y22430141D01*
X47321624Y22604212D01*
X47389544Y22768184D01*
X47488147Y22915754D01*
X47488148Y22915755D01*
X47488150Y22915758D01*
X47613642Y23041250D01*
X47761216Y23139856D01*
X47925188Y23207776D01*
X48099259Y23242400D01*
X48276741Y23242400D01*
X48450812Y23207776D01*
X48450812Y23207776D01*
G37*
G36*
X48450812Y25747776D02*
G01*
X48614784Y25679856D01*
X48762358Y25581250D01*
X48887850Y25455758D01*
X48887852Y25455755D01*
X48887853Y25455754D01*
X48986456Y25308184D01*
X49054376Y25144212D01*
X49089000Y24970141D01*
X49089000Y24792659D01*
X49054376Y24618588D01*
X48986456Y24454616D01*
X48887850Y24307042D01*
X48762358Y24181550D01*
X48762355Y24181548D01*
X48762354Y24181547D01*
X48614784Y24082944D01*
X48450812Y24015024D01*
X48276741Y23980400D01*
X48099259Y23980400D01*
X47925188Y24015024D01*
X47761216Y24082944D01*
X47613646Y24181547D01*
X47613645Y24181548D01*
X47613642Y24181550D01*
X47488150Y24307042D01*
X47389544Y24454616D01*
X47321624Y24618588D01*
X47287000Y24792659D01*
X47287000Y24970141D01*
X47321624Y25144212D01*
X47389544Y25308184D01*
X47488147Y25455754D01*
X47488148Y25455755D01*
X47488150Y25455758D01*
X47613642Y25581250D01*
X47761216Y25679856D01*
X47925188Y25747776D01*
X48099259Y25782400D01*
X48276741Y25782400D01*
X48450812Y25747776D01*
X48450812Y25747776D01*
G37*
G36*
X45910812Y25747776D02*
G01*
X46074784Y25679856D01*
X46222358Y25581250D01*
X46347850Y25455758D01*
X46347852Y25455755D01*
X46347853Y25455754D01*
X46446456Y25308184D01*
X46514376Y25144212D01*
X46549000Y24970141D01*
X46549000Y24792659D01*
X46514376Y24618588D01*
X46446456Y24454616D01*
X46347850Y24307042D01*
X46222358Y24181550D01*
X46222355Y24181548D01*
X46222354Y24181547D01*
X46074784Y24082944D01*
X45910812Y24015024D01*
X45736741Y23980400D01*
X45559259Y23980400D01*
X45385188Y24015024D01*
X45221216Y24082944D01*
X45073646Y24181547D01*
X45073645Y24181548D01*
X45073642Y24181550D01*
X44948150Y24307042D01*
X44849544Y24454616D01*
X44781624Y24618588D01*
X44747000Y24792659D01*
X44747000Y24970141D01*
X44781624Y25144212D01*
X44849544Y25308184D01*
X44948147Y25455754D01*
X44948148Y25455755D01*
X44948150Y25455758D01*
X45073642Y25581250D01*
X45221216Y25679856D01*
X45385188Y25747776D01*
X45559259Y25782400D01*
X45736741Y25782400D01*
X45910812Y25747776D01*
X45910812Y25747776D01*
G37*
G36*
X104106553Y25419069D02*
G01*
X104188629Y25385071D01*
X104262498Y25335714D01*
X104325314Y25272898D01*
X104374671Y25199029D01*
X104408669Y25116953D01*
X104426000Y25029820D01*
X104426000Y24940980D01*
X104408669Y24853847D01*
X104374671Y24771771D01*
X104325314Y24697902D01*
X104262498Y24635086D01*
X104188629Y24585729D01*
X104106553Y24551731D01*
X104019420Y24534400D01*
X103930580Y24534400D01*
X103843447Y24551731D01*
X103761371Y24585729D01*
X103687502Y24635086D01*
X103624686Y24697902D01*
X103575329Y24771771D01*
X103541331Y24853847D01*
X103524000Y24940980D01*
X103524000Y25029820D01*
X103541331Y25116953D01*
X103575329Y25199029D01*
X103624686Y25272898D01*
X103687502Y25335714D01*
X103761371Y25385071D01*
X103843447Y25419069D01*
X103930580Y25436400D01*
X104019420Y25436400D01*
X104106553Y25419069D01*
X104106553Y25419069D01*
G37*
G36*
X143806553Y25419069D02*
G01*
X143888629Y25385071D01*
X143962498Y25335714D01*
X144025314Y25272898D01*
X144074671Y25199029D01*
X144108669Y25116953D01*
X144126000Y25029820D01*
X144126000Y24940980D01*
X144108669Y24853847D01*
X144074671Y24771771D01*
X144025314Y24697902D01*
X143962498Y24635086D01*
X143888629Y24585729D01*
X143806553Y24551731D01*
X143719420Y24534400D01*
X143630580Y24534400D01*
X143543447Y24551731D01*
X143461371Y24585729D01*
X143387502Y24635086D01*
X143324686Y24697902D01*
X143275329Y24771771D01*
X143241331Y24853847D01*
X143224000Y24940980D01*
X143224000Y25029820D01*
X143241331Y25116953D01*
X143275329Y25199029D01*
X143324686Y25272898D01*
X143387502Y25335714D01*
X143461371Y25385071D01*
X143543447Y25419069D01*
X143630580Y25436400D01*
X143719420Y25436400D01*
X143806553Y25419069D01*
X143806553Y25419069D01*
G37*
G36*
X126712553Y25419069D02*
G01*
X126794629Y25385071D01*
X126868498Y25335714D01*
X126931314Y25272898D01*
X126980671Y25199029D01*
X127014669Y25116953D01*
X127032000Y25029820D01*
X127032000Y24940980D01*
X127014669Y24853847D01*
X126980671Y24771771D01*
X126931314Y24697902D01*
X126868498Y24635086D01*
X126794629Y24585729D01*
X126712553Y24551731D01*
X126625420Y24534400D01*
X126536580Y24534400D01*
X126449447Y24551731D01*
X126367371Y24585729D01*
X126293502Y24635086D01*
X126230686Y24697902D01*
X126181329Y24771771D01*
X126147331Y24853847D01*
X126130000Y24940980D01*
X126130000Y25029820D01*
X126147331Y25116953D01*
X126181329Y25199029D01*
X126230686Y25272898D01*
X126293502Y25335714D01*
X126367371Y25385071D01*
X126449447Y25419069D01*
X126536580Y25436400D01*
X126625420Y25436400D01*
X126712553Y25419069D01*
X126712553Y25419069D01*
G37*
G36*
X148556553Y25419069D02*
G01*
X148638629Y25385071D01*
X148712498Y25335714D01*
X148775314Y25272898D01*
X148824671Y25199029D01*
X148858669Y25116953D01*
X148876000Y25029820D01*
X148876000Y24940980D01*
X148858669Y24853847D01*
X148824671Y24771771D01*
X148775314Y24697902D01*
X148712498Y24635086D01*
X148638629Y24585729D01*
X148556553Y24551731D01*
X148469420Y24534400D01*
X148380580Y24534400D01*
X148293447Y24551731D01*
X148211371Y24585729D01*
X148137502Y24635086D01*
X148074686Y24697902D01*
X148025329Y24771771D01*
X147991331Y24853847D01*
X147974000Y24940980D01*
X147974000Y25029820D01*
X147991331Y25116953D01*
X148025329Y25199029D01*
X148074686Y25272898D01*
X148137502Y25335714D01*
X148211371Y25385071D01*
X148293447Y25419069D01*
X148380580Y25436400D01*
X148469420Y25436400D01*
X148556553Y25419069D01*
X148556553Y25419069D01*
G37*
G36*
X99356553Y25419069D02*
G01*
X99438629Y25385071D01*
X99512498Y25335714D01*
X99575314Y25272898D01*
X99624671Y25199029D01*
X99658669Y25116953D01*
X99676000Y25029820D01*
X99676000Y24940980D01*
X99658669Y24853847D01*
X99624671Y24771771D01*
X99575314Y24697902D01*
X99512498Y24635086D01*
X99438629Y24585729D01*
X99356553Y24551731D01*
X99269420Y24534400D01*
X99180580Y24534400D01*
X99093447Y24551731D01*
X99011371Y24585729D01*
X98937502Y24635086D01*
X98874686Y24697902D01*
X98825329Y24771771D01*
X98791331Y24853847D01*
X98774000Y24940980D01*
X98774000Y25029820D01*
X98791331Y25116953D01*
X98825329Y25199029D01*
X98874686Y25272898D01*
X98937502Y25335714D01*
X99011371Y25385071D01*
X99093447Y25419069D01*
X99180580Y25436400D01*
X99269420Y25436400D01*
X99356553Y25419069D01*
X99356553Y25419069D01*
G37*
G36*
X121962553Y25419069D02*
G01*
X122044629Y25385071D01*
X122118498Y25335714D01*
X122181314Y25272898D01*
X122230671Y25199029D01*
X122264669Y25116953D01*
X122282000Y25029820D01*
X122282000Y24940980D01*
X122264669Y24853847D01*
X122230671Y24771771D01*
X122181314Y24697902D01*
X122118498Y24635086D01*
X122044629Y24585729D01*
X121962553Y24551731D01*
X121875420Y24534400D01*
X121786580Y24534400D01*
X121699447Y24551731D01*
X121617371Y24585729D01*
X121543502Y24635086D01*
X121480686Y24697902D01*
X121431329Y24771771D01*
X121397331Y24853847D01*
X121380000Y24940980D01*
X121380000Y25029820D01*
X121397331Y25116953D01*
X121431329Y25199029D01*
X121480686Y25272898D01*
X121543502Y25335714D01*
X121617371Y25385071D01*
X121699447Y25419069D01*
X121786580Y25436400D01*
X121875420Y25436400D01*
X121962553Y25419069D01*
X121962553Y25419069D01*
G37*
G36*
X73884429Y27168639D02*
G01*
X74063693Y27114260D01*
X74228903Y27025953D01*
X74373712Y26907112D01*
X74492553Y26762303D01*
X74580860Y26597093D01*
X74635239Y26417829D01*
X74653601Y26231400D01*
X74635239Y26044971D01*
X74580860Y25865707D01*
X74492553Y25700497D01*
X74373712Y25555688D01*
X74228903Y25436847D01*
X74063693Y25348540D01*
X73884429Y25294161D01*
X73744714Y25280400D01*
X71851286Y25280400D01*
X71711571Y25294161D01*
X71532307Y25348540D01*
X71367097Y25436847D01*
X71222288Y25555688D01*
X71103447Y25700497D01*
X71015140Y25865707D01*
X70960761Y26044971D01*
X70942399Y26231400D01*
X70960761Y26417829D01*
X71015140Y26597093D01*
X71103447Y26762303D01*
X71222288Y26907112D01*
X71367097Y27025953D01*
X71532307Y27114260D01*
X71711571Y27168639D01*
X71851286Y27182400D01*
X73744714Y27182400D01*
X73884429Y27168639D01*
X73884429Y27168639D01*
G37*
G36*
X101742321Y27950895D02*
G01*
X101879173Y27909382D01*
X102005293Y27841969D01*
X102115843Y27751243D01*
X102206569Y27640693D01*
X102273982Y27514573D01*
X102315495Y27377721D01*
X102329513Y27235400D01*
X102315495Y27093079D01*
X102273982Y26956227D01*
X102206569Y26830107D01*
X102115843Y26719557D01*
X102005293Y26628831D01*
X101879173Y26561418D01*
X101742321Y26519905D01*
X101635665Y26509400D01*
X101564335Y26509400D01*
X101457679Y26519905D01*
X101320827Y26561418D01*
X101194707Y26628831D01*
X101084157Y26719557D01*
X100993431Y26830107D01*
X100926018Y26956227D01*
X100884505Y27093079D01*
X100870487Y27235400D01*
X100884505Y27377721D01*
X100926018Y27514573D01*
X100993431Y27640693D01*
X101084157Y27751243D01*
X101194707Y27841969D01*
X101320827Y27909382D01*
X101457679Y27950895D01*
X101564335Y27961400D01*
X101635665Y27961400D01*
X101742321Y27950895D01*
X101742321Y27950895D01*
G37*
G36*
X146192321Y27950895D02*
G01*
X146329173Y27909382D01*
X146455293Y27841969D01*
X146565843Y27751243D01*
X146656569Y27640693D01*
X146723982Y27514573D01*
X146765495Y27377721D01*
X146779513Y27235400D01*
X146765495Y27093079D01*
X146723982Y26956227D01*
X146656569Y26830107D01*
X146565843Y26719557D01*
X146455293Y26628831D01*
X146329173Y26561418D01*
X146192321Y26519905D01*
X146085665Y26509400D01*
X146014335Y26509400D01*
X145907679Y26519905D01*
X145770827Y26561418D01*
X145644707Y26628831D01*
X145534157Y26719557D01*
X145443431Y26830107D01*
X145376018Y26956227D01*
X145334505Y27093079D01*
X145320487Y27235400D01*
X145334505Y27377721D01*
X145376018Y27514573D01*
X145443431Y27640693D01*
X145534157Y27751243D01*
X145644707Y27841969D01*
X145770827Y27909382D01*
X145907679Y27950895D01*
X146014335Y27961400D01*
X146085665Y27961400D01*
X146192321Y27950895D01*
X146192321Y27950895D01*
G37*
G36*
X124348321Y27950895D02*
G01*
X124485173Y27909382D01*
X124611293Y27841969D01*
X124721843Y27751243D01*
X124812569Y27640693D01*
X124879982Y27514573D01*
X124921495Y27377721D01*
X124935513Y27235400D01*
X124921495Y27093079D01*
X124879982Y26956227D01*
X124812569Y26830107D01*
X124721843Y26719557D01*
X124611293Y26628831D01*
X124485173Y26561418D01*
X124348321Y26519905D01*
X124241665Y26509400D01*
X124170335Y26509400D01*
X124063679Y26519905D01*
X123926827Y26561418D01*
X123800707Y26628831D01*
X123690157Y26719557D01*
X123599431Y26830107D01*
X123532018Y26956227D01*
X123490505Y27093079D01*
X123476487Y27235400D01*
X123490505Y27377721D01*
X123532018Y27514573D01*
X123599431Y27640693D01*
X123690157Y27751243D01*
X123800707Y27841969D01*
X123926827Y27909382D01*
X124063679Y27950895D01*
X124170335Y27961400D01*
X124241665Y27961400D01*
X124348321Y27950895D01*
X124348321Y27950895D01*
G37*
G36*
X48450812Y28287776D02*
G01*
X48614784Y28219856D01*
X48762358Y28121250D01*
X48887850Y27995758D01*
X48887852Y27995755D01*
X48887853Y27995754D01*
X48986456Y27848184D01*
X49054376Y27684212D01*
X49089000Y27510141D01*
X49089000Y27332659D01*
X49054376Y27158588D01*
X48999436Y27025953D01*
X48986456Y26994616D01*
X48887850Y26847042D01*
X48762358Y26721550D01*
X48762355Y26721548D01*
X48762354Y26721547D01*
X48614784Y26622944D01*
X48450812Y26555024D01*
X48276741Y26520400D01*
X48099259Y26520400D01*
X47925188Y26555024D01*
X47761216Y26622944D01*
X47613646Y26721547D01*
X47613645Y26721548D01*
X47613642Y26721550D01*
X47488150Y26847042D01*
X47389544Y26994616D01*
X47376564Y27025953D01*
X47321624Y27158588D01*
X47287000Y27332659D01*
X47287000Y27510141D01*
X47321624Y27684212D01*
X47389544Y27848184D01*
X47488147Y27995754D01*
X47488148Y27995755D01*
X47488150Y27995758D01*
X47613642Y28121250D01*
X47761216Y28219856D01*
X47925188Y28287776D01*
X48099259Y28322400D01*
X48276741Y28322400D01*
X48450812Y28287776D01*
X48450812Y28287776D01*
G37*
G36*
X45910812Y28287776D02*
G01*
X46074784Y28219856D01*
X46222358Y28121250D01*
X46347850Y27995758D01*
X46347852Y27995755D01*
X46347853Y27995754D01*
X46446456Y27848184D01*
X46514376Y27684212D01*
X46549000Y27510141D01*
X46549000Y27332659D01*
X46514376Y27158588D01*
X46459436Y27025953D01*
X46446456Y26994616D01*
X46347850Y26847042D01*
X46222358Y26721550D01*
X46222355Y26721548D01*
X46222354Y26721547D01*
X46074784Y26622944D01*
X45910812Y26555024D01*
X45736741Y26520400D01*
X45559259Y26520400D01*
X45385188Y26555024D01*
X45221216Y26622944D01*
X45073646Y26721547D01*
X45073645Y26721548D01*
X45073642Y26721550D01*
X44948150Y26847042D01*
X44849544Y26994616D01*
X44836564Y27025953D01*
X44781624Y27158588D01*
X44747000Y27332659D01*
X44747000Y27510141D01*
X44781624Y27684212D01*
X44849544Y27848184D01*
X44948147Y27995754D01*
X44948148Y27995755D01*
X44948150Y27995758D01*
X45073642Y28121250D01*
X45221216Y28219856D01*
X45385188Y28287776D01*
X45559259Y28322400D01*
X45736741Y28322400D01*
X45910812Y28287776D01*
X45910812Y28287776D01*
G37*
G36*
X146776000Y28509400D02*
G01*
X145324000Y28509400D01*
X145324000Y29961400D01*
X146776000Y29961400D01*
X146776000Y28509400D01*
X146776000Y28509400D01*
G37*
G36*
X124932000Y28509400D02*
G01*
X123480000Y28509400D01*
X123480000Y29961400D01*
X124932000Y29961400D01*
X124932000Y28509400D01*
X124932000Y28509400D01*
G37*
G36*
X102326000Y28509400D02*
G01*
X100874000Y28509400D01*
X100874000Y29961400D01*
X102326000Y29961400D01*
X102326000Y28509400D01*
X102326000Y28509400D01*
G37*
G36*
X74472641Y30677896D02*
G01*
X74513677Y30665447D01*
X74551490Y30645235D01*
X74584635Y30618035D01*
X74611835Y30584890D01*
X74632047Y30547077D01*
X74644496Y30506041D01*
X74649000Y30460303D01*
X74649000Y29002497D01*
X74644496Y28956759D01*
X74632047Y28915723D01*
X74611835Y28877910D01*
X74584635Y28844765D01*
X74551490Y28817565D01*
X74513677Y28797353D01*
X74472641Y28784904D01*
X74426903Y28780400D01*
X71169097Y28780400D01*
X71123359Y28784904D01*
X71082323Y28797353D01*
X71044510Y28817565D01*
X71011365Y28844765D01*
X70984165Y28877910D01*
X70963953Y28915723D01*
X70951504Y28956759D01*
X70947000Y29002497D01*
X70947000Y30460303D01*
X70951504Y30506041D01*
X70963953Y30547077D01*
X70984165Y30584890D01*
X71011365Y30618035D01*
X71044510Y30645235D01*
X71082323Y30665447D01*
X71123359Y30677896D01*
X71169097Y30682400D01*
X74426903Y30682400D01*
X74472641Y30677896D01*
X74472641Y30677896D01*
G37*
G36*
X48450812Y30827776D02*
G01*
X48593621Y30768622D01*
X48614784Y30759856D01*
X48762358Y30661250D01*
X48887850Y30535758D01*
X48887852Y30535755D01*
X48887853Y30535754D01*
X48986456Y30388184D01*
X49054376Y30224212D01*
X49089000Y30050141D01*
X49089000Y29872659D01*
X49054376Y29698588D01*
X48986456Y29534616D01*
X48887850Y29387042D01*
X48762358Y29261550D01*
X48762355Y29261548D01*
X48762354Y29261547D01*
X48614784Y29162944D01*
X48450812Y29095024D01*
X48276741Y29060400D01*
X48099259Y29060400D01*
X47925188Y29095024D01*
X47761216Y29162944D01*
X47613646Y29261547D01*
X47613645Y29261548D01*
X47613642Y29261550D01*
X47488150Y29387042D01*
X47389544Y29534616D01*
X47321624Y29698588D01*
X47287000Y29872659D01*
X47287000Y30050141D01*
X47321624Y30224212D01*
X47389544Y30388184D01*
X47488147Y30535754D01*
X47488148Y30535755D01*
X47488150Y30535758D01*
X47613642Y30661250D01*
X47761216Y30759856D01*
X47782379Y30768622D01*
X47925188Y30827776D01*
X48099259Y30862400D01*
X48276741Y30862400D01*
X48450812Y30827776D01*
X48450812Y30827776D01*
G37*
G36*
X45910812Y30827776D02*
G01*
X46053621Y30768622D01*
X46074784Y30759856D01*
X46222358Y30661250D01*
X46347850Y30535758D01*
X46347852Y30535755D01*
X46347853Y30535754D01*
X46446456Y30388184D01*
X46514376Y30224212D01*
X46549000Y30050141D01*
X46549000Y29872659D01*
X46514376Y29698588D01*
X46446456Y29534616D01*
X46347850Y29387042D01*
X46222358Y29261550D01*
X46222355Y29261548D01*
X46222354Y29261547D01*
X46074784Y29162944D01*
X45910812Y29095024D01*
X45736741Y29060400D01*
X45559259Y29060400D01*
X45385188Y29095024D01*
X45221216Y29162944D01*
X45073646Y29261547D01*
X45073645Y29261548D01*
X45073642Y29261550D01*
X44948150Y29387042D01*
X44849544Y29534616D01*
X44781624Y29698588D01*
X44747000Y29872659D01*
X44747000Y30050141D01*
X44781624Y30224212D01*
X44849544Y30388184D01*
X44948147Y30535754D01*
X44948148Y30535755D01*
X44948150Y30535758D01*
X45073642Y30661250D01*
X45221216Y30759856D01*
X45242379Y30768622D01*
X45385188Y30827776D01*
X45559259Y30862400D01*
X45736741Y30862400D01*
X45910812Y30827776D01*
X45910812Y30827776D01*
G37*
G36*
X-3163000Y30620400D02*
G01*
X-4965000Y30620400D01*
X-4965000Y32422400D01*
X-3163000Y32422400D01*
X-3163000Y30620400D01*
X-3163000Y30620400D01*
G37*
G36*
X-6427373Y32409363D02*
G01*
X-6257534Y32357843D01*
X-6101009Y32274178D01*
X-5963814Y32161586D01*
X-5851222Y32024391D01*
X-5767557Y31867866D01*
X-5716037Y31698027D01*
X-5698641Y31521400D01*
X-5716037Y31344773D01*
X-5767557Y31174934D01*
X-5833411Y31051731D01*
X-5851222Y31018409D01*
X-5963814Y30881214D01*
X-6101009Y30768622D01*
X-6257534Y30684957D01*
X-6427373Y30633437D01*
X-6559742Y30620400D01*
X-6648258Y30620400D01*
X-6780627Y30633437D01*
X-6950466Y30684957D01*
X-7106991Y30768622D01*
X-7244186Y30881214D01*
X-7356778Y31018409D01*
X-7374589Y31051731D01*
X-7440443Y31174934D01*
X-7491963Y31344773D01*
X-7509359Y31521400D01*
X-7491963Y31698027D01*
X-7440443Y31867866D01*
X-7356778Y32024391D01*
X-7244186Y32161586D01*
X-7106991Y32274178D01*
X-6950466Y32357843D01*
X-6780627Y32409363D01*
X-6648258Y32422400D01*
X-6559742Y32422400D01*
X-6427373Y32409363D01*
X-6427373Y32409363D01*
G37*
G36*
X104106553Y31919069D02*
G01*
X104188629Y31885071D01*
X104262498Y31835714D01*
X104325314Y31772898D01*
X104374671Y31699029D01*
X104408669Y31616953D01*
X104426000Y31529820D01*
X104426000Y31440980D01*
X104408669Y31353847D01*
X104374671Y31271771D01*
X104325314Y31197902D01*
X104262498Y31135086D01*
X104188629Y31085729D01*
X104106553Y31051731D01*
X104019420Y31034400D01*
X103930580Y31034400D01*
X103843447Y31051731D01*
X103761371Y31085729D01*
X103687502Y31135086D01*
X103624686Y31197902D01*
X103575329Y31271771D01*
X103541331Y31353847D01*
X103524000Y31440980D01*
X103524000Y31529820D01*
X103541331Y31616953D01*
X103575329Y31699029D01*
X103624686Y31772898D01*
X103687502Y31835714D01*
X103761371Y31885071D01*
X103843447Y31919069D01*
X103930580Y31936400D01*
X104019420Y31936400D01*
X104106553Y31919069D01*
X104106553Y31919069D01*
G37*
G36*
X99356553Y31919069D02*
G01*
X99438629Y31885071D01*
X99512498Y31835714D01*
X99575314Y31772898D01*
X99624671Y31699029D01*
X99658669Y31616953D01*
X99676000Y31529820D01*
X99676000Y31440980D01*
X99658669Y31353847D01*
X99624671Y31271771D01*
X99575314Y31197902D01*
X99512498Y31135086D01*
X99438629Y31085729D01*
X99356553Y31051731D01*
X99269420Y31034400D01*
X99180580Y31034400D01*
X99093447Y31051731D01*
X99011371Y31085729D01*
X98937502Y31135086D01*
X98874686Y31197902D01*
X98825329Y31271771D01*
X98791331Y31353847D01*
X98774000Y31440980D01*
X98774000Y31529820D01*
X98791331Y31616953D01*
X98825329Y31699029D01*
X98874686Y31772898D01*
X98937502Y31835714D01*
X99011371Y31885071D01*
X99093447Y31919069D01*
X99180580Y31936400D01*
X99269420Y31936400D01*
X99356553Y31919069D01*
X99356553Y31919069D01*
G37*
G36*
X148556553Y31919069D02*
G01*
X148638629Y31885071D01*
X148712498Y31835714D01*
X148775314Y31772898D01*
X148824671Y31699029D01*
X148858669Y31616953D01*
X148876000Y31529820D01*
X148876000Y31440980D01*
X148858669Y31353847D01*
X148824671Y31271771D01*
X148775314Y31197902D01*
X148712498Y31135086D01*
X148638629Y31085729D01*
X148556553Y31051731D01*
X148469420Y31034400D01*
X148380580Y31034400D01*
X148293447Y31051731D01*
X148211371Y31085729D01*
X148137502Y31135086D01*
X148074686Y31197902D01*
X148025329Y31271771D01*
X147991331Y31353847D01*
X147974000Y31440980D01*
X147974000Y31529820D01*
X147991331Y31616953D01*
X148025329Y31699029D01*
X148074686Y31772898D01*
X148137502Y31835714D01*
X148211371Y31885071D01*
X148293447Y31919069D01*
X148380580Y31936400D01*
X148469420Y31936400D01*
X148556553Y31919069D01*
X148556553Y31919069D01*
G37*
G36*
X126712553Y31919069D02*
G01*
X126794629Y31885071D01*
X126868498Y31835714D01*
X126931314Y31772898D01*
X126980671Y31699029D01*
X127014669Y31616953D01*
X127032000Y31529820D01*
X127032000Y31440980D01*
X127014669Y31353847D01*
X126980671Y31271771D01*
X126931314Y31197902D01*
X126868498Y31135086D01*
X126794629Y31085729D01*
X126712553Y31051731D01*
X126625420Y31034400D01*
X126536580Y31034400D01*
X126449447Y31051731D01*
X126367371Y31085729D01*
X126293502Y31135086D01*
X126230686Y31197902D01*
X126181329Y31271771D01*
X126147331Y31353847D01*
X126130000Y31440980D01*
X126130000Y31529820D01*
X126147331Y31616953D01*
X126181329Y31699029D01*
X126230686Y31772898D01*
X126293502Y31835714D01*
X126367371Y31885071D01*
X126449447Y31919069D01*
X126536580Y31936400D01*
X126625420Y31936400D01*
X126712553Y31919069D01*
X126712553Y31919069D01*
G37*
G36*
X143806553Y31919069D02*
G01*
X143888629Y31885071D01*
X143962498Y31835714D01*
X144025314Y31772898D01*
X144074671Y31699029D01*
X144108669Y31616953D01*
X144126000Y31529820D01*
X144126000Y31440980D01*
X144108669Y31353847D01*
X144074671Y31271771D01*
X144025314Y31197902D01*
X143962498Y31135086D01*
X143888629Y31085729D01*
X143806553Y31051731D01*
X143719420Y31034400D01*
X143630580Y31034400D01*
X143543447Y31051731D01*
X143461371Y31085729D01*
X143387502Y31135086D01*
X143324686Y31197902D01*
X143275329Y31271771D01*
X143241331Y31353847D01*
X143224000Y31440980D01*
X143224000Y31529820D01*
X143241331Y31616953D01*
X143275329Y31699029D01*
X143324686Y31772898D01*
X143387502Y31835714D01*
X143461371Y31885071D01*
X143543447Y31919069D01*
X143630580Y31936400D01*
X143719420Y31936400D01*
X143806553Y31919069D01*
X143806553Y31919069D01*
G37*
G36*
X121962553Y31919069D02*
G01*
X122044629Y31885071D01*
X122118498Y31835714D01*
X122181314Y31772898D01*
X122230671Y31699029D01*
X122264669Y31616953D01*
X122282000Y31529820D01*
X122282000Y31440980D01*
X122264669Y31353847D01*
X122230671Y31271771D01*
X122181314Y31197902D01*
X122118498Y31135086D01*
X122044629Y31085729D01*
X121962553Y31051731D01*
X121875420Y31034400D01*
X121786580Y31034400D01*
X121699447Y31051731D01*
X121617371Y31085729D01*
X121543502Y31135086D01*
X121480686Y31197902D01*
X121431329Y31271771D01*
X121397331Y31353847D01*
X121380000Y31440980D01*
X121380000Y31529820D01*
X121397331Y31616953D01*
X121431329Y31699029D01*
X121480686Y31772898D01*
X121543502Y31835714D01*
X121617371Y31885071D01*
X121699447Y31919069D01*
X121786580Y31936400D01*
X121875420Y31936400D01*
X121962553Y31919069D01*
X121962553Y31919069D01*
G37*
G36*
X48450812Y33367776D02*
G01*
X48593621Y33308622D01*
X48614784Y33299856D01*
X48762358Y33201250D01*
X48887850Y33075758D01*
X48887852Y33075755D01*
X48887853Y33075754D01*
X48986456Y32928184D01*
X49054376Y32764212D01*
X49089000Y32590141D01*
X49089000Y32412659D01*
X49054376Y32238588D01*
X48986456Y32074616D01*
X48887850Y31927042D01*
X48762358Y31801550D01*
X48762355Y31801548D01*
X48762354Y31801547D01*
X48614784Y31702944D01*
X48450812Y31635024D01*
X48276741Y31600400D01*
X48099259Y31600400D01*
X47925188Y31635024D01*
X47761216Y31702944D01*
X47613646Y31801547D01*
X47613645Y31801548D01*
X47613642Y31801550D01*
X47488150Y31927042D01*
X47389544Y32074616D01*
X47321624Y32238588D01*
X47287000Y32412659D01*
X47287000Y32590141D01*
X47321624Y32764212D01*
X47389544Y32928184D01*
X47488147Y33075754D01*
X47488148Y33075755D01*
X47488150Y33075758D01*
X47613642Y33201250D01*
X47761216Y33299856D01*
X47782379Y33308622D01*
X47925188Y33367776D01*
X48099259Y33402400D01*
X48276741Y33402400D01*
X48450812Y33367776D01*
X48450812Y33367776D01*
G37*
G36*
X45910812Y33367776D02*
G01*
X46053621Y33308622D01*
X46074784Y33299856D01*
X46222358Y33201250D01*
X46347850Y33075758D01*
X46347852Y33075755D01*
X46347853Y33075754D01*
X46446456Y32928184D01*
X46514376Y32764212D01*
X46549000Y32590141D01*
X46549000Y32412659D01*
X46514376Y32238588D01*
X46446456Y32074616D01*
X46347850Y31927042D01*
X46222358Y31801550D01*
X46222355Y31801548D01*
X46222354Y31801547D01*
X46074784Y31702944D01*
X45910812Y31635024D01*
X45736741Y31600400D01*
X45559259Y31600400D01*
X45385188Y31635024D01*
X45221216Y31702944D01*
X45073646Y31801547D01*
X45073645Y31801548D01*
X45073642Y31801550D01*
X44948150Y31927042D01*
X44849544Y32074616D01*
X44781624Y32238588D01*
X44747000Y32412659D01*
X44747000Y32590141D01*
X44781624Y32764212D01*
X44849544Y32928184D01*
X44948147Y33075754D01*
X44948148Y33075755D01*
X44948150Y33075758D01*
X45073642Y33201250D01*
X45221216Y33299856D01*
X45242379Y33308622D01*
X45385188Y33367776D01*
X45559259Y33402400D01*
X45736741Y33402400D01*
X45910812Y33367776D01*
X45910812Y33367776D01*
G37*
G36*
X-3887373Y34949363D02*
G01*
X-3717534Y34897843D01*
X-3561009Y34814178D01*
X-3423814Y34701586D01*
X-3311222Y34564391D01*
X-3227557Y34407866D01*
X-3176037Y34238027D01*
X-3158641Y34061400D01*
X-3176037Y33884773D01*
X-3227557Y33714934D01*
X-3311222Y33558409D01*
X-3423814Y33421214D01*
X-3561009Y33308622D01*
X-3717534Y33224957D01*
X-3887373Y33173437D01*
X-4019742Y33160400D01*
X-4108258Y33160400D01*
X-4240627Y33173437D01*
X-4410466Y33224957D01*
X-4566991Y33308622D01*
X-4704186Y33421214D01*
X-4816778Y33558409D01*
X-4900443Y33714934D01*
X-4951963Y33884773D01*
X-4969359Y34061400D01*
X-4951963Y34238027D01*
X-4900443Y34407866D01*
X-4816778Y34564391D01*
X-4704186Y34701586D01*
X-4566991Y34814178D01*
X-4410466Y34897843D01*
X-4240627Y34949363D01*
X-4108258Y34962400D01*
X-4019742Y34962400D01*
X-3887373Y34949363D01*
X-3887373Y34949363D01*
G37*
G36*
X-6427373Y34949363D02*
G01*
X-6257534Y34897843D01*
X-6101009Y34814178D01*
X-5963814Y34701586D01*
X-5851222Y34564391D01*
X-5767557Y34407866D01*
X-5716037Y34238027D01*
X-5698641Y34061400D01*
X-5716037Y33884773D01*
X-5767557Y33714934D01*
X-5851222Y33558409D01*
X-5963814Y33421214D01*
X-6101009Y33308622D01*
X-6257534Y33224957D01*
X-6427373Y33173437D01*
X-6559742Y33160400D01*
X-6648258Y33160400D01*
X-6780627Y33173437D01*
X-6950466Y33224957D01*
X-7106991Y33308622D01*
X-7244186Y33421214D01*
X-7356778Y33558409D01*
X-7440443Y33714934D01*
X-7491963Y33884773D01*
X-7509359Y34061400D01*
X-7491963Y34238027D01*
X-7440443Y34407866D01*
X-7356778Y34564391D01*
X-7244186Y34701586D01*
X-7106991Y34814178D01*
X-6950466Y34897843D01*
X-6780627Y34949363D01*
X-6648258Y34962400D01*
X-6559742Y34962400D01*
X-6427373Y34949363D01*
X-6427373Y34949363D01*
G37*
G36*
X46549000Y34140400D02*
G01*
X44747000Y34140400D01*
X44747000Y35942400D01*
X46549000Y35942400D01*
X46549000Y34140400D01*
X46549000Y34140400D01*
G37*
G36*
X48450812Y35907776D02*
G01*
X48593621Y35848622D01*
X48614784Y35839856D01*
X48762358Y35741250D01*
X48887850Y35615758D01*
X48887852Y35615755D01*
X48887853Y35615754D01*
X48986456Y35468184D01*
X49054376Y35304212D01*
X49089000Y35130141D01*
X49089000Y34952659D01*
X49054376Y34778588D01*
X48986456Y34614616D01*
X48887850Y34467042D01*
X48762358Y34341550D01*
X48762355Y34341548D01*
X48762354Y34341547D01*
X48614784Y34242944D01*
X48450812Y34175024D01*
X48276741Y34140400D01*
X48099259Y34140400D01*
X47925188Y34175024D01*
X47761216Y34242944D01*
X47613646Y34341547D01*
X47613645Y34341548D01*
X47613642Y34341550D01*
X47488150Y34467042D01*
X47389544Y34614616D01*
X47321624Y34778588D01*
X47287000Y34952659D01*
X47287000Y35130141D01*
X47321624Y35304212D01*
X47389544Y35468184D01*
X47488147Y35615754D01*
X47488148Y35615755D01*
X47488150Y35615758D01*
X47613642Y35741250D01*
X47761216Y35839856D01*
X47782379Y35848622D01*
X47925188Y35907776D01*
X48099259Y35942400D01*
X48276741Y35942400D01*
X48450812Y35907776D01*
X48450812Y35907776D01*
G37*
G36*
X64916932Y38321251D02*
G01*
X65129579Y38278953D01*
X65361976Y38182691D01*
X65430045Y38154496D01*
X65700453Y37973815D01*
X65930415Y37743853D01*
X66111096Y37473445D01*
X66139291Y37405376D01*
X66235553Y37172979D01*
X66299000Y36854009D01*
X66299000Y36528791D01*
X66235553Y36209821D01*
X66139291Y35977424D01*
X66111096Y35909355D01*
X65930415Y35638947D01*
X65700453Y35408985D01*
X65430045Y35228304D01*
X65361976Y35200109D01*
X65129579Y35103847D01*
X64916932Y35061549D01*
X64810610Y35040400D01*
X64485390Y35040400D01*
X64379068Y35061549D01*
X64166421Y35103847D01*
X63934024Y35200109D01*
X63865955Y35228304D01*
X63595547Y35408985D01*
X63365585Y35638947D01*
X63184904Y35909355D01*
X63156709Y35977424D01*
X63060447Y36209821D01*
X62997000Y36528791D01*
X62997000Y36854009D01*
X63060447Y37172979D01*
X63156709Y37405376D01*
X63184904Y37473445D01*
X63365585Y37743853D01*
X63595547Y37973815D01*
X63865955Y38154496D01*
X63934024Y38182691D01*
X64166421Y38278953D01*
X64379068Y38321251D01*
X64485390Y38342400D01*
X64810610Y38342400D01*
X64916932Y38321251D01*
X64916932Y38321251D01*
G37*
G36*
X-6427373Y37489363D02*
G01*
X-6257534Y37437843D01*
X-6101009Y37354178D01*
X-5963814Y37241586D01*
X-5907509Y37172977D01*
X-5851222Y37104391D01*
X-5767557Y36947866D01*
X-5716037Y36778027D01*
X-5698641Y36601400D01*
X-5716037Y36424773D01*
X-5767557Y36254934D01*
X-5791670Y36209823D01*
X-5851222Y36098409D01*
X-5963814Y35961214D01*
X-6101009Y35848622D01*
X-6257534Y35764957D01*
X-6427373Y35713437D01*
X-6559742Y35700400D01*
X-6648258Y35700400D01*
X-6780627Y35713437D01*
X-6950466Y35764957D01*
X-7106991Y35848622D01*
X-7244186Y35961214D01*
X-7356778Y36098409D01*
X-7416330Y36209823D01*
X-7440443Y36254934D01*
X-7491963Y36424773D01*
X-7509359Y36601400D01*
X-7491963Y36778027D01*
X-7440443Y36947866D01*
X-7356778Y37104391D01*
X-7300491Y37172977D01*
X-7244186Y37241586D01*
X-7106991Y37354178D01*
X-6950466Y37437843D01*
X-6780627Y37489363D01*
X-6648258Y37502400D01*
X-6559742Y37502400D01*
X-6427373Y37489363D01*
X-6427373Y37489363D01*
G37*
G36*
X-3887373Y37489363D02*
G01*
X-3717534Y37437843D01*
X-3561009Y37354178D01*
X-3423814Y37241586D01*
X-3367509Y37172977D01*
X-3311222Y37104391D01*
X-3227557Y36947866D01*
X-3176037Y36778027D01*
X-3158641Y36601400D01*
X-3176037Y36424773D01*
X-3227557Y36254934D01*
X-3251670Y36209823D01*
X-3311222Y36098409D01*
X-3423814Y35961214D01*
X-3561009Y35848622D01*
X-3717534Y35764957D01*
X-3887373Y35713437D01*
X-4019742Y35700400D01*
X-4108258Y35700400D01*
X-4240627Y35713437D01*
X-4410466Y35764957D01*
X-4566991Y35848622D01*
X-4704186Y35961214D01*
X-4816778Y36098409D01*
X-4876330Y36209823D01*
X-4900443Y36254934D01*
X-4951963Y36424773D01*
X-4969359Y36601400D01*
X-4951963Y36778027D01*
X-4900443Y36947866D01*
X-4816778Y37104391D01*
X-4760491Y37172977D01*
X-4704186Y37241586D01*
X-4566991Y37354178D01*
X-4410466Y37437843D01*
X-4240627Y37489363D01*
X-4108258Y37502400D01*
X-4019742Y37502400D01*
X-3887373Y37489363D01*
X-3887373Y37489363D01*
G37*
G36*
X92404553Y49583069D02*
G01*
X92486629Y49549071D01*
X92560498Y49499714D01*
X92623314Y49436898D01*
X92672671Y49363029D01*
X92706669Y49280953D01*
X92724000Y49193820D01*
X92724000Y49104980D01*
X92706669Y49017847D01*
X92672671Y48935771D01*
X92623314Y48861902D01*
X92560498Y48799086D01*
X92486629Y48749729D01*
X92404553Y48715731D01*
X92317420Y48698400D01*
X92228580Y48698400D01*
X92141447Y48715731D01*
X92059371Y48749729D01*
X91985502Y48799086D01*
X91922686Y48861902D01*
X91873329Y48935771D01*
X91839331Y49017847D01*
X91822000Y49104980D01*
X91822000Y49193820D01*
X91839331Y49280953D01*
X91873329Y49363029D01*
X91922686Y49436898D01*
X91985502Y49499714D01*
X92059371Y49549071D01*
X92141447Y49583069D01*
X92228580Y49600400D01*
X92317420Y49600400D01*
X92404553Y49583069D01*
X92404553Y49583069D01*
G37*
G36*
X81259053Y49583069D02*
G01*
X81341129Y49549071D01*
X81414998Y49499714D01*
X81477814Y49436898D01*
X81527171Y49363029D01*
X81561169Y49280953D01*
X81578500Y49193820D01*
X81578500Y49104980D01*
X81561169Y49017847D01*
X81527171Y48935771D01*
X81477814Y48861902D01*
X81414998Y48799086D01*
X81341129Y48749729D01*
X81259053Y48715731D01*
X81171920Y48698400D01*
X81083080Y48698400D01*
X80995947Y48715731D01*
X80913871Y48749729D01*
X80840002Y48799086D01*
X80777186Y48861902D01*
X80727829Y48935771D01*
X80693831Y49017847D01*
X80676500Y49104980D01*
X80676500Y49193820D01*
X80693831Y49280953D01*
X80727829Y49363029D01*
X80777186Y49436898D01*
X80840002Y49499714D01*
X80913871Y49549071D01*
X80995947Y49583069D01*
X81083080Y49600400D01*
X81171920Y49600400D01*
X81259053Y49583069D01*
X81259053Y49583069D01*
G37*
G36*
X86009053Y49583069D02*
G01*
X86091129Y49549071D01*
X86164998Y49499714D01*
X86227814Y49436898D01*
X86277171Y49363029D01*
X86311169Y49280953D01*
X86328500Y49193820D01*
X86328500Y49104980D01*
X86311169Y49017847D01*
X86277171Y48935771D01*
X86227814Y48861902D01*
X86164998Y48799086D01*
X86091129Y48749729D01*
X86009053Y48715731D01*
X85921920Y48698400D01*
X85833080Y48698400D01*
X85745947Y48715731D01*
X85663871Y48749729D01*
X85590002Y48799086D01*
X85527186Y48861902D01*
X85477829Y48935771D01*
X85443831Y49017847D01*
X85426500Y49104980D01*
X85426500Y49193820D01*
X85443831Y49280953D01*
X85477829Y49363029D01*
X85527186Y49436898D01*
X85590002Y49499714D01*
X85663871Y49549071D01*
X85745947Y49583069D01*
X85833080Y49600400D01*
X85921920Y49600400D01*
X86009053Y49583069D01*
X86009053Y49583069D01*
G37*
G36*
X97154553Y49583069D02*
G01*
X97236629Y49549071D01*
X97310498Y49499714D01*
X97373314Y49436898D01*
X97422671Y49363029D01*
X97456669Y49280953D01*
X97474000Y49193820D01*
X97474000Y49104980D01*
X97456669Y49017847D01*
X97422671Y48935771D01*
X97373314Y48861902D01*
X97310498Y48799086D01*
X97236629Y48749729D01*
X97154553Y48715731D01*
X97067420Y48698400D01*
X96978580Y48698400D01*
X96891447Y48715731D01*
X96809371Y48749729D01*
X96735502Y48799086D01*
X96672686Y48861902D01*
X96623329Y48935771D01*
X96589331Y49017847D01*
X96572000Y49104980D01*
X96572000Y49193820D01*
X96589331Y49280953D01*
X96623329Y49363029D01*
X96672686Y49436898D01*
X96735502Y49499714D01*
X96809371Y49549071D01*
X96891447Y49583069D01*
X96978580Y49600400D01*
X97067420Y49600400D01*
X97154553Y49583069D01*
X97154553Y49583069D01*
G37*
G36*
X81520127Y51977363D02*
G01*
X81689966Y51925843D01*
X81846491Y51842178D01*
X81983686Y51729586D01*
X82096278Y51592391D01*
X82179943Y51435866D01*
X82231463Y51266027D01*
X82248859Y51089400D01*
X82231463Y50912773D01*
X82179943Y50742934D01*
X82096278Y50586409D01*
X81983686Y50449214D01*
X81846491Y50336622D01*
X81689966Y50252957D01*
X81520127Y50201437D01*
X81387758Y50188400D01*
X81299242Y50188400D01*
X81166873Y50201437D01*
X80997034Y50252957D01*
X80840509Y50336622D01*
X80703314Y50449214D01*
X80590722Y50586409D01*
X80507057Y50742934D01*
X80455537Y50912773D01*
X80438141Y51089400D01*
X80455537Y51266027D01*
X80507057Y51435866D01*
X80590722Y51592391D01*
X80703314Y51729586D01*
X80840509Y51842178D01*
X80997034Y51925843D01*
X81166873Y51977363D01*
X81299242Y51990400D01*
X81387758Y51990400D01*
X81520127Y51977363D01*
X81520127Y51977363D01*
G37*
G36*
X92706627Y51977363D02*
G01*
X92876466Y51925843D01*
X93032991Y51842178D01*
X93170186Y51729586D01*
X93282778Y51592391D01*
X93366443Y51435866D01*
X93417963Y51266027D01*
X93435359Y51089400D01*
X93417963Y50912773D01*
X93366443Y50742934D01*
X93282778Y50586409D01*
X93170186Y50449214D01*
X93032991Y50336622D01*
X92876466Y50252957D01*
X92706627Y50201437D01*
X92574258Y50188400D01*
X92485742Y50188400D01*
X92353373Y50201437D01*
X92183534Y50252957D01*
X92027009Y50336622D01*
X91889814Y50449214D01*
X91777222Y50586409D01*
X91693557Y50742934D01*
X91642037Y50912773D01*
X91624641Y51089400D01*
X91642037Y51266027D01*
X91693557Y51435866D01*
X91777222Y51592391D01*
X91889814Y51729586D01*
X92027009Y51842178D01*
X92183534Y51925843D01*
X92353373Y51977363D01*
X92485742Y51990400D01*
X92574258Y51990400D01*
X92706627Y51977363D01*
X92706627Y51977363D01*
G37*
G36*
X94790321Y52114895D02*
G01*
X94927173Y52073382D01*
X95053293Y52005969D01*
X95163843Y51915243D01*
X95254569Y51804693D01*
X95321982Y51678573D01*
X95363495Y51541721D01*
X95377513Y51399400D01*
X95363495Y51257079D01*
X95321982Y51120227D01*
X95254569Y50994107D01*
X95163843Y50883557D01*
X95053293Y50792831D01*
X94927173Y50725418D01*
X94790321Y50683905D01*
X94683665Y50673400D01*
X94612335Y50673400D01*
X94505679Y50683905D01*
X94368827Y50725418D01*
X94242707Y50792831D01*
X94132157Y50883557D01*
X94041431Y50994107D01*
X93974018Y51120227D01*
X93932505Y51257079D01*
X93918487Y51399400D01*
X93932505Y51541721D01*
X93974018Y51678573D01*
X94041431Y51804693D01*
X94132157Y51915243D01*
X94242707Y52005969D01*
X94368827Y52073382D01*
X94505679Y52114895D01*
X94612335Y52125400D01*
X94683665Y52125400D01*
X94790321Y52114895D01*
X94790321Y52114895D01*
G37*
G36*
X83644821Y52114895D02*
G01*
X83781673Y52073382D01*
X83907793Y52005969D01*
X84018343Y51915243D01*
X84109069Y51804693D01*
X84176482Y51678573D01*
X84217995Y51541721D01*
X84232013Y51399400D01*
X84217995Y51257079D01*
X84176482Y51120227D01*
X84109069Y50994107D01*
X84018343Y50883557D01*
X83907793Y50792831D01*
X83781673Y50725418D01*
X83644821Y50683905D01*
X83538165Y50673400D01*
X83466835Y50673400D01*
X83360179Y50683905D01*
X83223327Y50725418D01*
X83097207Y50792831D01*
X82986657Y50883557D01*
X82895931Y50994107D01*
X82828518Y51120227D01*
X82787005Y51257079D01*
X82772987Y51399400D01*
X82787005Y51541721D01*
X82828518Y51678573D01*
X82895931Y51804693D01*
X82986657Y51915243D01*
X83097207Y52005969D01*
X83223327Y52073382D01*
X83360179Y52114895D01*
X83466835Y52125400D01*
X83538165Y52125400D01*
X83644821Y52114895D01*
X83644821Y52114895D01*
G37*
G36*
X95374000Y52673400D02*
G01*
X93922000Y52673400D01*
X93922000Y54125400D01*
X95374000Y54125400D01*
X95374000Y52673400D01*
X95374000Y52673400D01*
G37*
G36*
X84228500Y52673400D02*
G01*
X82776500Y52673400D01*
X82776500Y54125400D01*
X84228500Y54125400D01*
X84228500Y52673400D01*
X84228500Y52673400D01*
G37*
G36*
X93431000Y52728400D02*
G01*
X91629000Y52728400D01*
X91629000Y54530400D01*
X93431000Y54530400D01*
X93431000Y52728400D01*
X93431000Y52728400D01*
G37*
G36*
X82244500Y52728400D02*
G01*
X80442500Y52728400D01*
X80442500Y54530400D01*
X82244500Y54530400D01*
X82244500Y52728400D01*
X82244500Y52728400D01*
G37*
G36*
X81259053Y56083069D02*
G01*
X81341129Y56049071D01*
X81414998Y55999714D01*
X81477814Y55936898D01*
X81527171Y55863029D01*
X81561169Y55780953D01*
X81578500Y55693820D01*
X81578500Y55604980D01*
X81561169Y55517847D01*
X81527171Y55435771D01*
X81477814Y55361902D01*
X81414998Y55299086D01*
X81341129Y55249729D01*
X81259053Y55215731D01*
X81171920Y55198400D01*
X81083080Y55198400D01*
X80995947Y55215731D01*
X80913871Y55249729D01*
X80840002Y55299086D01*
X80777186Y55361902D01*
X80727829Y55435771D01*
X80693831Y55517847D01*
X80676500Y55604980D01*
X80676500Y55693820D01*
X80693831Y55780953D01*
X80727829Y55863029D01*
X80777186Y55936898D01*
X80840002Y55999714D01*
X80913871Y56049071D01*
X80995947Y56083069D01*
X81083080Y56100400D01*
X81171920Y56100400D01*
X81259053Y56083069D01*
X81259053Y56083069D01*
G37*
G36*
X86009053Y56083069D02*
G01*
X86091129Y56049071D01*
X86164998Y55999714D01*
X86227814Y55936898D01*
X86277171Y55863029D01*
X86311169Y55780953D01*
X86328500Y55693820D01*
X86328500Y55604980D01*
X86311169Y55517847D01*
X86277171Y55435771D01*
X86227814Y55361902D01*
X86164998Y55299086D01*
X86091129Y55249729D01*
X86009053Y55215731D01*
X85921920Y55198400D01*
X85833080Y55198400D01*
X85745947Y55215731D01*
X85663871Y55249729D01*
X85590002Y55299086D01*
X85527186Y55361902D01*
X85477829Y55435771D01*
X85443831Y55517847D01*
X85426500Y55604980D01*
X85426500Y55693820D01*
X85443831Y55780953D01*
X85477829Y55863029D01*
X85527186Y55936898D01*
X85590002Y55999714D01*
X85663871Y56049071D01*
X85745947Y56083069D01*
X85833080Y56100400D01*
X85921920Y56100400D01*
X86009053Y56083069D01*
X86009053Y56083069D01*
G37*
G36*
X92404553Y56083069D02*
G01*
X92486629Y56049071D01*
X92560498Y55999714D01*
X92623314Y55936898D01*
X92672671Y55863029D01*
X92706669Y55780953D01*
X92724000Y55693820D01*
X92724000Y55604980D01*
X92706669Y55517847D01*
X92672671Y55435771D01*
X92623314Y55361902D01*
X92560498Y55299086D01*
X92486629Y55249729D01*
X92404553Y55215731D01*
X92317420Y55198400D01*
X92228580Y55198400D01*
X92141447Y55215731D01*
X92059371Y55249729D01*
X91985502Y55299086D01*
X91922686Y55361902D01*
X91873329Y55435771D01*
X91839331Y55517847D01*
X91822000Y55604980D01*
X91822000Y55693820D01*
X91839331Y55780953D01*
X91873329Y55863029D01*
X91922686Y55936898D01*
X91985502Y55999714D01*
X92059371Y56049071D01*
X92141447Y56083069D01*
X92228580Y56100400D01*
X92317420Y56100400D01*
X92404553Y56083069D01*
X92404553Y56083069D01*
G37*
G36*
X97154553Y56083069D02*
G01*
X97236629Y56049071D01*
X97310498Y55999714D01*
X97373314Y55936898D01*
X97422671Y55863029D01*
X97456669Y55780953D01*
X97474000Y55693820D01*
X97474000Y55604980D01*
X97456669Y55517847D01*
X97422671Y55435771D01*
X97373314Y55361902D01*
X97310498Y55299086D01*
X97236629Y55249729D01*
X97154553Y55215731D01*
X97067420Y55198400D01*
X96978580Y55198400D01*
X96891447Y55215731D01*
X96809371Y55249729D01*
X96735502Y55299086D01*
X96672686Y55361902D01*
X96623329Y55435771D01*
X96589331Y55517847D01*
X96572000Y55604980D01*
X96572000Y55693820D01*
X96589331Y55780953D01*
X96623329Y55863029D01*
X96672686Y55936898D01*
X96735502Y55999714D01*
X96809371Y56049071D01*
X96891447Y56083069D01*
X96978580Y56100400D01*
X97067420Y56100400D01*
X97154553Y56083069D01*
X97154553Y56083069D01*
G37*
G36*
X97154553Y60251069D02*
G01*
X97236629Y60217071D01*
X97310498Y60167714D01*
X97373314Y60104898D01*
X97422671Y60031029D01*
X97456669Y59948953D01*
X97474000Y59861820D01*
X97474000Y59772980D01*
X97456669Y59685847D01*
X97422671Y59603771D01*
X97373314Y59529902D01*
X97310498Y59467086D01*
X97236629Y59417729D01*
X97154553Y59383731D01*
X97067420Y59366400D01*
X96978580Y59366400D01*
X96891447Y59383731D01*
X96809371Y59417729D01*
X96735502Y59467086D01*
X96672686Y59529902D01*
X96623329Y59603771D01*
X96589331Y59685847D01*
X96572000Y59772980D01*
X96572000Y59861820D01*
X96589331Y59948953D01*
X96623329Y60031029D01*
X96672686Y60104898D01*
X96735502Y60167714D01*
X96809371Y60217071D01*
X96891447Y60251069D01*
X96978580Y60268400D01*
X97067420Y60268400D01*
X97154553Y60251069D01*
X97154553Y60251069D01*
G37*
G36*
X92404553Y60251069D02*
G01*
X92486629Y60217071D01*
X92560498Y60167714D01*
X92623314Y60104898D01*
X92672671Y60031029D01*
X92706669Y59948953D01*
X92724000Y59861820D01*
X92724000Y59772980D01*
X92706669Y59685847D01*
X92672671Y59603771D01*
X92623314Y59529902D01*
X92560498Y59467086D01*
X92486629Y59417729D01*
X92404553Y59383731D01*
X92317420Y59366400D01*
X92228580Y59366400D01*
X92141447Y59383731D01*
X92059371Y59417729D01*
X91985502Y59467086D01*
X91922686Y59529902D01*
X91873329Y59603771D01*
X91839331Y59685847D01*
X91822000Y59772980D01*
X91822000Y59861820D01*
X91839331Y59948953D01*
X91873329Y60031029D01*
X91922686Y60104898D01*
X91985502Y60167714D01*
X92059371Y60217071D01*
X92141447Y60251069D01*
X92228580Y60268400D01*
X92317420Y60268400D01*
X92404553Y60251069D01*
X92404553Y60251069D01*
G37*
G36*
X86009053Y60251069D02*
G01*
X86091129Y60217071D01*
X86164998Y60167714D01*
X86227814Y60104898D01*
X86277171Y60031029D01*
X86311169Y59948953D01*
X86328500Y59861820D01*
X86328500Y59772980D01*
X86311169Y59685847D01*
X86277171Y59603771D01*
X86227814Y59529902D01*
X86164998Y59467086D01*
X86091129Y59417729D01*
X86009053Y59383731D01*
X85921920Y59366400D01*
X85833080Y59366400D01*
X85745947Y59383731D01*
X85663871Y59417729D01*
X85590002Y59467086D01*
X85527186Y59529902D01*
X85477829Y59603771D01*
X85443831Y59685847D01*
X85426500Y59772980D01*
X85426500Y59861820D01*
X85443831Y59948953D01*
X85477829Y60031029D01*
X85527186Y60104898D01*
X85590002Y60167714D01*
X85663871Y60217071D01*
X85745947Y60251069D01*
X85833080Y60268400D01*
X85921920Y60268400D01*
X86009053Y60251069D01*
X86009053Y60251069D01*
G37*
G36*
X81259053Y60251069D02*
G01*
X81341129Y60217071D01*
X81414998Y60167714D01*
X81477814Y60104898D01*
X81527171Y60031029D01*
X81561169Y59948953D01*
X81578500Y59861820D01*
X81578500Y59772980D01*
X81561169Y59685847D01*
X81527171Y59603771D01*
X81477814Y59529902D01*
X81414998Y59467086D01*
X81341129Y59417729D01*
X81259053Y59383731D01*
X81171920Y59366400D01*
X81083080Y59366400D01*
X80995947Y59383731D01*
X80913871Y59417729D01*
X80840002Y59467086D01*
X80777186Y59529902D01*
X80727829Y59603771D01*
X80693831Y59685847D01*
X80676500Y59772980D01*
X80676500Y59861820D01*
X80693831Y59948953D01*
X80727829Y60031029D01*
X80777186Y60104898D01*
X80840002Y60167714D01*
X80913871Y60217071D01*
X80995947Y60251069D01*
X81083080Y60268400D01*
X81171920Y60268400D01*
X81259053Y60251069D01*
X81259053Y60251069D01*
G37*
G36*
X92746627Y62497363D02*
G01*
X92916466Y62445843D01*
X93072991Y62362178D01*
X93210186Y62249586D01*
X93322778Y62112391D01*
X93406443Y61955866D01*
X93457963Y61786027D01*
X93475359Y61609400D01*
X93457963Y61432773D01*
X93406443Y61262934D01*
X93322778Y61106409D01*
X93210186Y60969214D01*
X93072991Y60856622D01*
X92916466Y60772957D01*
X92746627Y60721437D01*
X92614258Y60708400D01*
X92525742Y60708400D01*
X92393373Y60721437D01*
X92223534Y60772957D01*
X92067009Y60856622D01*
X91929814Y60969214D01*
X91817222Y61106409D01*
X91733557Y61262934D01*
X91682037Y61432773D01*
X91664641Y61609400D01*
X91682037Y61786027D01*
X91733557Y61955866D01*
X91817222Y62112391D01*
X91929814Y62249586D01*
X92067009Y62362178D01*
X92223534Y62445843D01*
X92393373Y62497363D01*
X92525742Y62510400D01*
X92614258Y62510400D01*
X92746627Y62497363D01*
X92746627Y62497363D01*
G37*
G36*
X81520127Y62497363D02*
G01*
X81689966Y62445843D01*
X81846491Y62362178D01*
X81983686Y62249586D01*
X82096278Y62112391D01*
X82179943Y61955866D01*
X82231463Y61786027D01*
X82248859Y61609400D01*
X82231463Y61432773D01*
X82179943Y61262934D01*
X82096278Y61106409D01*
X81983686Y60969214D01*
X81846491Y60856622D01*
X81689966Y60772957D01*
X81520127Y60721437D01*
X81387758Y60708400D01*
X81299242Y60708400D01*
X81166873Y60721437D01*
X80997034Y60772957D01*
X80840509Y60856622D01*
X80703314Y60969214D01*
X80590722Y61106409D01*
X80507057Y61262934D01*
X80455537Y61432773D01*
X80438141Y61609400D01*
X80455537Y61786027D01*
X80507057Y61955866D01*
X80590722Y62112391D01*
X80703314Y62249586D01*
X80840509Y62362178D01*
X80997034Y62445843D01*
X81166873Y62497363D01*
X81299242Y62510400D01*
X81387758Y62510400D01*
X81520127Y62497363D01*
X81520127Y62497363D01*
G37*
G36*
X83644821Y62782895D02*
G01*
X83781673Y62741382D01*
X83907793Y62673969D01*
X84018343Y62583243D01*
X84109069Y62472693D01*
X84176482Y62346573D01*
X84217995Y62209721D01*
X84232013Y62067400D01*
X84217995Y61925079D01*
X84176482Y61788227D01*
X84109069Y61662107D01*
X84018343Y61551557D01*
X83907793Y61460831D01*
X83781673Y61393418D01*
X83644821Y61351905D01*
X83538165Y61341400D01*
X83466835Y61341400D01*
X83360179Y61351905D01*
X83223327Y61393418D01*
X83097207Y61460831D01*
X82986657Y61551557D01*
X82895931Y61662107D01*
X82828518Y61788227D01*
X82787005Y61925079D01*
X82772987Y62067400D01*
X82787005Y62209721D01*
X82828518Y62346573D01*
X82895931Y62472693D01*
X82986657Y62583243D01*
X83097207Y62673969D01*
X83223327Y62741382D01*
X83360179Y62782895D01*
X83466835Y62793400D01*
X83538165Y62793400D01*
X83644821Y62782895D01*
X83644821Y62782895D01*
G37*
G36*
X94790321Y62782895D02*
G01*
X94927173Y62741382D01*
X95053293Y62673969D01*
X95163843Y62583243D01*
X95254569Y62472693D01*
X95321982Y62346573D01*
X95363495Y62209721D01*
X95377513Y62067400D01*
X95363495Y61925079D01*
X95321982Y61788227D01*
X95254569Y61662107D01*
X95163843Y61551557D01*
X95053293Y61460831D01*
X94927173Y61393418D01*
X94790321Y61351905D01*
X94683665Y61341400D01*
X94612335Y61341400D01*
X94505679Y61351905D01*
X94368827Y61393418D01*
X94242707Y61460831D01*
X94132157Y61551557D01*
X94041431Y61662107D01*
X93974018Y61788227D01*
X93932505Y61925079D01*
X93918487Y62067400D01*
X93932505Y62209721D01*
X93974018Y62346573D01*
X94041431Y62472693D01*
X94132157Y62583243D01*
X94242707Y62673969D01*
X94368827Y62741382D01*
X94505679Y62782895D01*
X94612335Y62793400D01*
X94683665Y62793400D01*
X94790321Y62782895D01*
X94790321Y62782895D01*
G37*
G36*
X93471000Y63248400D02*
G01*
X91669000Y63248400D01*
X91669000Y65050400D01*
X93471000Y65050400D01*
X93471000Y63248400D01*
X93471000Y63248400D01*
G37*
G36*
X82244500Y63248400D02*
G01*
X80442500Y63248400D01*
X80442500Y65050400D01*
X82244500Y65050400D01*
X82244500Y63248400D01*
X82244500Y63248400D01*
G37*
G36*
X84228500Y63341400D02*
G01*
X82776500Y63341400D01*
X82776500Y64793400D01*
X84228500Y64793400D01*
X84228500Y63341400D01*
X84228500Y63341400D01*
G37*
G36*
X95374000Y63341400D02*
G01*
X93922000Y63341400D01*
X93922000Y64793400D01*
X95374000Y64793400D01*
X95374000Y63341400D01*
X95374000Y63341400D01*
G37*
G36*
X81259053Y66751069D02*
G01*
X81341129Y66717071D01*
X81414998Y66667714D01*
X81477814Y66604898D01*
X81527171Y66531029D01*
X81561169Y66448953D01*
X81578500Y66361820D01*
X81578500Y66272980D01*
X81561169Y66185847D01*
X81527171Y66103771D01*
X81477814Y66029902D01*
X81414998Y65967086D01*
X81341129Y65917729D01*
X81259053Y65883731D01*
X81171920Y65866400D01*
X81083080Y65866400D01*
X80995947Y65883731D01*
X80913871Y65917729D01*
X80840002Y65967086D01*
X80777186Y66029902D01*
X80727829Y66103771D01*
X80693831Y66185847D01*
X80676500Y66272980D01*
X80676500Y66361820D01*
X80693831Y66448953D01*
X80727829Y66531029D01*
X80777186Y66604898D01*
X80840002Y66667714D01*
X80913871Y66717071D01*
X80995947Y66751069D01*
X81083080Y66768400D01*
X81171920Y66768400D01*
X81259053Y66751069D01*
X81259053Y66751069D01*
G37*
G36*
X86009053Y66751069D02*
G01*
X86091129Y66717071D01*
X86164998Y66667714D01*
X86227814Y66604898D01*
X86277171Y66531029D01*
X86311169Y66448953D01*
X86328500Y66361820D01*
X86328500Y66272980D01*
X86311169Y66185847D01*
X86277171Y66103771D01*
X86227814Y66029902D01*
X86164998Y65967086D01*
X86091129Y65917729D01*
X86009053Y65883731D01*
X85921920Y65866400D01*
X85833080Y65866400D01*
X85745947Y65883731D01*
X85663871Y65917729D01*
X85590002Y65967086D01*
X85527186Y66029902D01*
X85477829Y66103771D01*
X85443831Y66185847D01*
X85426500Y66272980D01*
X85426500Y66361820D01*
X85443831Y66448953D01*
X85477829Y66531029D01*
X85527186Y66604898D01*
X85590002Y66667714D01*
X85663871Y66717071D01*
X85745947Y66751069D01*
X85833080Y66768400D01*
X85921920Y66768400D01*
X86009053Y66751069D01*
X86009053Y66751069D01*
G37*
G36*
X97154553Y66751069D02*
G01*
X97236629Y66717071D01*
X97310498Y66667714D01*
X97373314Y66604898D01*
X97422671Y66531029D01*
X97456669Y66448953D01*
X97474000Y66361820D01*
X97474000Y66272980D01*
X97456669Y66185847D01*
X97422671Y66103771D01*
X97373314Y66029902D01*
X97310498Y65967086D01*
X97236629Y65917729D01*
X97154553Y65883731D01*
X97067420Y65866400D01*
X96978580Y65866400D01*
X96891447Y65883731D01*
X96809371Y65917729D01*
X96735502Y65967086D01*
X96672686Y66029902D01*
X96623329Y66103771D01*
X96589331Y66185847D01*
X96572000Y66272980D01*
X96572000Y66361820D01*
X96589331Y66448953D01*
X96623329Y66531029D01*
X96672686Y66604898D01*
X96735502Y66667714D01*
X96809371Y66717071D01*
X96891447Y66751069D01*
X96978580Y66768400D01*
X97067420Y66768400D01*
X97154553Y66751069D01*
X97154553Y66751069D01*
G37*
G36*
X92404553Y66751069D02*
G01*
X92486629Y66717071D01*
X92560498Y66667714D01*
X92623314Y66604898D01*
X92672671Y66531029D01*
X92706669Y66448953D01*
X92724000Y66361820D01*
X92724000Y66272980D01*
X92706669Y66185847D01*
X92672671Y66103771D01*
X92623314Y66029902D01*
X92560498Y65967086D01*
X92486629Y65917729D01*
X92404553Y65883731D01*
X92317420Y65866400D01*
X92228580Y65866400D01*
X92141447Y65883731D01*
X92059371Y65917729D01*
X91985502Y65967086D01*
X91922686Y66029902D01*
X91873329Y66103771D01*
X91839331Y66185847D01*
X91822000Y66272980D01*
X91822000Y66361820D01*
X91839331Y66448953D01*
X91873329Y66531029D01*
X91922686Y66604898D01*
X91985502Y66667714D01*
X92059371Y66717071D01*
X92141447Y66751069D01*
X92228580Y66768400D01*
X92317420Y66768400D01*
X92404553Y66751069D01*
X92404553Y66751069D01*
G37*
G36*
X30431432Y72457751D02*
G01*
X30644079Y72415453D01*
X30876476Y72319191D01*
X30944545Y72290996D01*
X31214953Y72110315D01*
X31444915Y71880353D01*
X31625596Y71609945D01*
X31625597Y71609942D01*
X31750053Y71309479D01*
X31813500Y70990509D01*
X31813500Y70665291D01*
X31750053Y70346321D01*
X31653791Y70113924D01*
X31625596Y70045855D01*
X31444915Y69775447D01*
X31214953Y69545485D01*
X30944545Y69364804D01*
X30876476Y69336609D01*
X30644079Y69240347D01*
X30431432Y69198049D01*
X30325110Y69176900D01*
X29999890Y69176900D01*
X29893568Y69198049D01*
X29680921Y69240347D01*
X29448524Y69336609D01*
X29380455Y69364804D01*
X29110047Y69545485D01*
X28880085Y69775447D01*
X28699404Y70045855D01*
X28671209Y70113924D01*
X28574947Y70346321D01*
X28511500Y70665291D01*
X28511500Y70990509D01*
X28574947Y71309479D01*
X28699403Y71609942D01*
X28699404Y71609945D01*
X28880085Y71880353D01*
X29110047Y72110315D01*
X29380455Y72290996D01*
X29448524Y72319191D01*
X29680921Y72415453D01*
X29893568Y72457751D01*
X29999890Y72478900D01*
X30325110Y72478900D01*
X30431432Y72457751D01*
X30431432Y72457751D01*
G37*
G36*
X89575332Y72457751D02*
G01*
X89787979Y72415453D01*
X90020376Y72319191D01*
X90088445Y72290996D01*
X90358853Y72110315D01*
X90588815Y71880353D01*
X90769496Y71609945D01*
X90769497Y71609942D01*
X90893953Y71309479D01*
X90957400Y70990509D01*
X90957400Y70665291D01*
X90893953Y70346321D01*
X90797691Y70113924D01*
X90769496Y70045855D01*
X90588815Y69775447D01*
X90358853Y69545485D01*
X90088445Y69364804D01*
X90020376Y69336609D01*
X89787979Y69240347D01*
X89575332Y69198049D01*
X89469010Y69176900D01*
X89143790Y69176900D01*
X89037468Y69198049D01*
X88824821Y69240347D01*
X88592424Y69336609D01*
X88524355Y69364804D01*
X88253947Y69545485D01*
X88023985Y69775447D01*
X87843304Y70045855D01*
X87815109Y70113924D01*
X87718847Y70346321D01*
X87655400Y70665291D01*
X87655400Y70990509D01*
X87718847Y71309479D01*
X87843303Y71609942D01*
X87843304Y71609945D01*
X88023985Y71880353D01*
X88253947Y72110315D01*
X88524355Y72290996D01*
X88592424Y72319191D01*
X88824821Y72415453D01*
X89037468Y72457751D01*
X89143790Y72478900D01*
X89469010Y72478900D01*
X89575332Y72457751D01*
X89575332Y72457751D01*
G37*
G36*
X95112921Y80814895D02*
G01*
X95249773Y80773382D01*
X95375893Y80705969D01*
X95486443Y80615243D01*
X95577169Y80504693D01*
X95644582Y80378573D01*
X95686095Y80241721D01*
X95700113Y80099400D01*
X95686095Y79957079D01*
X95644582Y79820227D01*
X95577169Y79694107D01*
X95486443Y79583557D01*
X95375893Y79492831D01*
X95249773Y79425418D01*
X95112921Y79383905D01*
X95006265Y79373400D01*
X94934935Y79373400D01*
X94828279Y79383905D01*
X94691427Y79425418D01*
X94565307Y79492831D01*
X94454757Y79583557D01*
X94364031Y79694107D01*
X94296618Y79820227D01*
X94255105Y79957079D01*
X94241087Y80099400D01*
X94255105Y80241721D01*
X94296618Y80378573D01*
X94364031Y80504693D01*
X94454757Y80615243D01*
X94565307Y80705969D01*
X94691427Y80773382D01*
X94828279Y80814895D01*
X94934935Y80825400D01*
X95006265Y80825400D01*
X95112921Y80814895D01*
X95112921Y80814895D01*
G37*
G36*
X93112921Y80814895D02*
G01*
X93249773Y80773382D01*
X93375893Y80705969D01*
X93486443Y80615243D01*
X93577169Y80504693D01*
X93644582Y80378573D01*
X93686095Y80241721D01*
X93700113Y80099400D01*
X93686095Y79957079D01*
X93644582Y79820227D01*
X93577169Y79694107D01*
X93486443Y79583557D01*
X93375893Y79492831D01*
X93249773Y79425418D01*
X93112921Y79383905D01*
X93006265Y79373400D01*
X92934935Y79373400D01*
X92828279Y79383905D01*
X92691427Y79425418D01*
X92565307Y79492831D01*
X92454757Y79583557D01*
X92364031Y79694107D01*
X92296618Y79820227D01*
X92255105Y79957079D01*
X92241087Y80099400D01*
X92255105Y80241721D01*
X92296618Y80378573D01*
X92364031Y80504693D01*
X92454757Y80615243D01*
X92565307Y80705969D01*
X92691427Y80773382D01*
X92828279Y80814895D01*
X92934935Y80825400D01*
X93006265Y80825400D01*
X93112921Y80814895D01*
X93112921Y80814895D01*
G37*
G36*
X95112921Y82814895D02*
G01*
X95249773Y82773382D01*
X95375893Y82705969D01*
X95486443Y82615243D01*
X95577169Y82504693D01*
X95644582Y82378573D01*
X95686095Y82241721D01*
X95700113Y82099400D01*
X95686095Y81957079D01*
X95644582Y81820227D01*
X95577169Y81694107D01*
X95486443Y81583557D01*
X95375893Y81492831D01*
X95249773Y81425418D01*
X95112921Y81383905D01*
X95006265Y81373400D01*
X94934935Y81373400D01*
X94828279Y81383905D01*
X94691427Y81425418D01*
X94565307Y81492831D01*
X94454757Y81583557D01*
X94364031Y81694107D01*
X94296618Y81820227D01*
X94255105Y81957079D01*
X94241087Y82099400D01*
X94255105Y82241721D01*
X94296618Y82378573D01*
X94364031Y82504693D01*
X94454757Y82615243D01*
X94565307Y82705969D01*
X94691427Y82773382D01*
X94828279Y82814895D01*
X94934935Y82825400D01*
X95006265Y82825400D01*
X95112921Y82814895D01*
X95112921Y82814895D01*
G37*
G36*
X93112921Y82814895D02*
G01*
X93249773Y82773382D01*
X93375893Y82705969D01*
X93486443Y82615243D01*
X93577169Y82504693D01*
X93644582Y82378573D01*
X93686095Y82241721D01*
X93700113Y82099400D01*
X93686095Y81957079D01*
X93644582Y81820227D01*
X93577169Y81694107D01*
X93486443Y81583557D01*
X93375893Y81492831D01*
X93249773Y81425418D01*
X93112921Y81383905D01*
X93006265Y81373400D01*
X92934935Y81373400D01*
X92828279Y81383905D01*
X92691427Y81425418D01*
X92565307Y81492831D01*
X92454757Y81583557D01*
X92364031Y81694107D01*
X92296618Y81820227D01*
X92255105Y81957079D01*
X92241087Y82099400D01*
X92255105Y82241721D01*
X92296618Y82378573D01*
X92364031Y82504693D01*
X92454757Y82615243D01*
X92565307Y82705969D01*
X92691427Y82773382D01*
X92828279Y82814895D01*
X92934935Y82825400D01*
X93006265Y82825400D01*
X93112921Y82814895D01*
X93112921Y82814895D01*
G37*
G36*
X39220102Y83694107D02*
G01*
X39325728Y83673097D01*
X39480600Y83608947D01*
X39584900Y83539256D01*
X39619983Y83515814D01*
X39738514Y83397283D01*
X39738515Y83397281D01*
X39831647Y83257900D01*
X39895797Y83103028D01*
X39928500Y82938616D01*
X39928500Y82770984D01*
X39895797Y82606572D01*
X39831647Y82451700D01*
X39782784Y82378572D01*
X39738514Y82312317D01*
X39619983Y82193786D01*
X39584900Y82170344D01*
X39480600Y82100653D01*
X39325728Y82036503D01*
X39161317Y82003800D01*
X38993683Y82003800D01*
X38829272Y82036503D01*
X38674400Y82100653D01*
X38570100Y82170344D01*
X38535017Y82193786D01*
X38416486Y82312317D01*
X38372216Y82378572D01*
X38323353Y82451700D01*
X38259203Y82606572D01*
X38226500Y82770984D01*
X38226500Y82938616D01*
X38259203Y83103028D01*
X38323353Y83257900D01*
X38416485Y83397281D01*
X38416486Y83397283D01*
X38535017Y83515814D01*
X38570100Y83539256D01*
X38674400Y83608947D01*
X38829272Y83673097D01*
X38934898Y83694107D01*
X38993683Y83705800D01*
X39161317Y83705800D01*
X39220102Y83694107D01*
X39220102Y83694107D01*
G37*
G36*
X20487602Y83694107D02*
G01*
X20593228Y83673097D01*
X20748100Y83608947D01*
X20852400Y83539256D01*
X20887483Y83515814D01*
X21006014Y83397283D01*
X21006015Y83397281D01*
X21099147Y83257900D01*
X21163297Y83103028D01*
X21196000Y82938616D01*
X21196000Y82770984D01*
X21163297Y82606572D01*
X21099147Y82451700D01*
X21050284Y82378572D01*
X21006014Y82312317D01*
X20887483Y82193786D01*
X20852400Y82170344D01*
X20748100Y82100653D01*
X20593228Y82036503D01*
X20428817Y82003800D01*
X20261183Y82003800D01*
X20096772Y82036503D01*
X19941900Y82100653D01*
X19837600Y82170344D01*
X19802517Y82193786D01*
X19683986Y82312317D01*
X19639716Y82378572D01*
X19590853Y82451700D01*
X19526703Y82606572D01*
X19494000Y82770984D01*
X19494000Y82938616D01*
X19526703Y83103028D01*
X19590853Y83257900D01*
X19683985Y83397281D01*
X19683986Y83397283D01*
X19802517Y83515814D01*
X19837600Y83539256D01*
X19941900Y83608947D01*
X20096772Y83673097D01*
X20202398Y83694107D01*
X20261183Y83705800D01*
X20428817Y83705800D01*
X20487602Y83694107D01*
X20487602Y83694107D01*
G37*
G36*
X15407602Y83694107D02*
G01*
X15513228Y83673097D01*
X15668100Y83608947D01*
X15772400Y83539256D01*
X15807483Y83515814D01*
X15926014Y83397283D01*
X15926015Y83397281D01*
X16019147Y83257900D01*
X16083297Y83103028D01*
X16116000Y82938616D01*
X16116000Y82770984D01*
X16083297Y82606572D01*
X16019147Y82451700D01*
X15970284Y82378572D01*
X15926014Y82312317D01*
X15807483Y82193786D01*
X15772400Y82170344D01*
X15668100Y82100653D01*
X15513228Y82036503D01*
X15348817Y82003800D01*
X15181183Y82003800D01*
X15016772Y82036503D01*
X14861900Y82100653D01*
X14757600Y82170344D01*
X14722517Y82193786D01*
X14603986Y82312317D01*
X14559716Y82378572D01*
X14510853Y82451700D01*
X14446703Y82606572D01*
X14414000Y82770984D01*
X14414000Y82938616D01*
X14446703Y83103028D01*
X14510853Y83257900D01*
X14603985Y83397281D01*
X14603986Y83397283D01*
X14722517Y83515814D01*
X14757600Y83539256D01*
X14861900Y83608947D01*
X15016772Y83673097D01*
X15122398Y83694107D01*
X15181183Y83705800D01*
X15348817Y83705800D01*
X15407602Y83694107D01*
X15407602Y83694107D01*
G37*
G36*
X17947602Y83694107D02*
G01*
X18053228Y83673097D01*
X18208100Y83608947D01*
X18312400Y83539256D01*
X18347483Y83515814D01*
X18466014Y83397283D01*
X18466015Y83397281D01*
X18559147Y83257900D01*
X18623297Y83103028D01*
X18656000Y82938616D01*
X18656000Y82770984D01*
X18623297Y82606572D01*
X18559147Y82451700D01*
X18510284Y82378572D01*
X18466014Y82312317D01*
X18347483Y82193786D01*
X18312400Y82170344D01*
X18208100Y82100653D01*
X18053228Y82036503D01*
X17888817Y82003800D01*
X17721183Y82003800D01*
X17556772Y82036503D01*
X17401900Y82100653D01*
X17297600Y82170344D01*
X17262517Y82193786D01*
X17143986Y82312317D01*
X17099716Y82378572D01*
X17050853Y82451700D01*
X16986703Y82606572D01*
X16954000Y82770984D01*
X16954000Y82938616D01*
X16986703Y83103028D01*
X17050853Y83257900D01*
X17143985Y83397281D01*
X17143986Y83397283D01*
X17262517Y83515814D01*
X17297600Y83539256D01*
X17401900Y83608947D01*
X17556772Y83673097D01*
X17662398Y83694107D01*
X17721183Y83705800D01*
X17888817Y83705800D01*
X17947602Y83694107D01*
X17947602Y83694107D01*
G37*
G36*
X41760102Y83694107D02*
G01*
X41865728Y83673097D01*
X42020600Y83608947D01*
X42124900Y83539256D01*
X42159983Y83515814D01*
X42278514Y83397283D01*
X42278515Y83397281D01*
X42371647Y83257900D01*
X42435797Y83103028D01*
X42468500Y82938616D01*
X42468500Y82770984D01*
X42435797Y82606572D01*
X42371647Y82451700D01*
X42322784Y82378572D01*
X42278514Y82312317D01*
X42159983Y82193786D01*
X42124900Y82170344D01*
X42020600Y82100653D01*
X41865728Y82036503D01*
X41701317Y82003800D01*
X41533683Y82003800D01*
X41369272Y82036503D01*
X41214400Y82100653D01*
X41110100Y82170344D01*
X41075017Y82193786D01*
X40956486Y82312317D01*
X40912216Y82378572D01*
X40863353Y82451700D01*
X40799203Y82606572D01*
X40766500Y82770984D01*
X40766500Y82938616D01*
X40799203Y83103028D01*
X40863353Y83257900D01*
X40956485Y83397281D01*
X40956486Y83397283D01*
X41075017Y83515814D01*
X41110100Y83539256D01*
X41214400Y83608947D01*
X41369272Y83673097D01*
X41474898Y83694107D01*
X41533683Y83705800D01*
X41701317Y83705800D01*
X41760102Y83694107D01*
X41760102Y83694107D01*
G37*
G36*
X36680102Y83694107D02*
G01*
X36785728Y83673097D01*
X36940600Y83608947D01*
X37044900Y83539256D01*
X37079983Y83515814D01*
X37198514Y83397283D01*
X37198515Y83397281D01*
X37291647Y83257900D01*
X37355797Y83103028D01*
X37388500Y82938616D01*
X37388500Y82770984D01*
X37355797Y82606572D01*
X37291647Y82451700D01*
X37242784Y82378572D01*
X37198514Y82312317D01*
X37079983Y82193786D01*
X37044900Y82170344D01*
X36940600Y82100653D01*
X36785728Y82036503D01*
X36621317Y82003800D01*
X36453683Y82003800D01*
X36289272Y82036503D01*
X36134400Y82100653D01*
X36030100Y82170344D01*
X35995017Y82193786D01*
X35876486Y82312317D01*
X35832216Y82378572D01*
X35783353Y82451700D01*
X35719203Y82606572D01*
X35686500Y82770984D01*
X35686500Y82938616D01*
X35719203Y83103028D01*
X35783353Y83257900D01*
X35876485Y83397281D01*
X35876486Y83397283D01*
X35995017Y83515814D01*
X36030100Y83539256D01*
X36134400Y83608947D01*
X36289272Y83673097D01*
X36394898Y83694107D01*
X36453683Y83705800D01*
X36621317Y83705800D01*
X36680102Y83694107D01*
X36680102Y83694107D01*
G37*
G36*
X57952602Y83694107D02*
G01*
X58058228Y83673097D01*
X58213100Y83608947D01*
X58317400Y83539256D01*
X58352483Y83515814D01*
X58471014Y83397283D01*
X58471015Y83397281D01*
X58564147Y83257900D01*
X58628297Y83103028D01*
X58661000Y82938616D01*
X58661000Y82770984D01*
X58628297Y82606572D01*
X58564147Y82451700D01*
X58515284Y82378572D01*
X58471014Y82312317D01*
X58352483Y82193786D01*
X58317400Y82170344D01*
X58213100Y82100653D01*
X58058228Y82036503D01*
X57893817Y82003800D01*
X57726183Y82003800D01*
X57561772Y82036503D01*
X57406900Y82100653D01*
X57302600Y82170344D01*
X57267517Y82193786D01*
X57148986Y82312317D01*
X57104716Y82378572D01*
X57055853Y82451700D01*
X56991703Y82606572D01*
X56959000Y82770984D01*
X56959000Y82938616D01*
X56991703Y83103028D01*
X57055853Y83257900D01*
X57148985Y83397281D01*
X57148986Y83397283D01*
X57267517Y83515814D01*
X57302600Y83539256D01*
X57406900Y83608947D01*
X57561772Y83673097D01*
X57667398Y83694107D01*
X57726183Y83705800D01*
X57893817Y83705800D01*
X57952602Y83694107D01*
X57952602Y83694107D01*
G37*
G36*
X60492602Y83694107D02*
G01*
X60598228Y83673097D01*
X60753100Y83608947D01*
X60857400Y83539256D01*
X60892483Y83515814D01*
X61011014Y83397283D01*
X61011015Y83397281D01*
X61104147Y83257900D01*
X61168297Y83103028D01*
X61201000Y82938616D01*
X61201000Y82770984D01*
X61168297Y82606572D01*
X61104147Y82451700D01*
X61055284Y82378572D01*
X61011014Y82312317D01*
X60892483Y82193786D01*
X60857400Y82170344D01*
X60753100Y82100653D01*
X60598228Y82036503D01*
X60433817Y82003800D01*
X60266183Y82003800D01*
X60101772Y82036503D01*
X59946900Y82100653D01*
X59842600Y82170344D01*
X59807517Y82193786D01*
X59688986Y82312317D01*
X59644716Y82378572D01*
X59595853Y82451700D01*
X59531703Y82606572D01*
X59499000Y82770984D01*
X59499000Y82938616D01*
X59531703Y83103028D01*
X59595853Y83257900D01*
X59688985Y83397281D01*
X59688986Y83397283D01*
X59807517Y83515814D01*
X59842600Y83539256D01*
X59946900Y83608947D01*
X60101772Y83673097D01*
X60207398Y83694107D01*
X60266183Y83705800D01*
X60433817Y83705800D01*
X60492602Y83694107D01*
X60492602Y83694107D01*
G37*
G36*
X63032602Y83694107D02*
G01*
X63138228Y83673097D01*
X63293100Y83608947D01*
X63397400Y83539256D01*
X63432483Y83515814D01*
X63551014Y83397283D01*
X63551015Y83397281D01*
X63644147Y83257900D01*
X63708297Y83103028D01*
X63741000Y82938616D01*
X63741000Y82770984D01*
X63708297Y82606572D01*
X63644147Y82451700D01*
X63595284Y82378572D01*
X63551014Y82312317D01*
X63432483Y82193786D01*
X63397400Y82170344D01*
X63293100Y82100653D01*
X63138228Y82036503D01*
X62973817Y82003800D01*
X62806183Y82003800D01*
X62641772Y82036503D01*
X62486900Y82100653D01*
X62382600Y82170344D01*
X62347517Y82193786D01*
X62228986Y82312317D01*
X62184716Y82378572D01*
X62135853Y82451700D01*
X62071703Y82606572D01*
X62039000Y82770984D01*
X62039000Y82938616D01*
X62071703Y83103028D01*
X62135853Y83257900D01*
X62228985Y83397281D01*
X62228986Y83397283D01*
X62347517Y83515814D01*
X62382600Y83539256D01*
X62486900Y83608947D01*
X62641772Y83673097D01*
X62747398Y83694107D01*
X62806183Y83705800D01*
X62973817Y83705800D01*
X63032602Y83694107D01*
X63032602Y83694107D01*
G37*
G36*
X95696600Y83373400D02*
G01*
X94244600Y83373400D01*
X94244600Y84825400D01*
X95696600Y84825400D01*
X95696600Y83373400D01*
X95696600Y83373400D01*
G37*
G36*
X93112921Y84814895D02*
G01*
X93249773Y84773382D01*
X93375893Y84705969D01*
X93486443Y84615243D01*
X93577169Y84504693D01*
X93644582Y84378573D01*
X93686095Y84241721D01*
X93700113Y84099400D01*
X93686095Y83957079D01*
X93644582Y83820227D01*
X93577169Y83694107D01*
X93486443Y83583557D01*
X93375893Y83492831D01*
X93249773Y83425418D01*
X93112921Y83383905D01*
X93006265Y83373400D01*
X92934935Y83373400D01*
X92828279Y83383905D01*
X92691427Y83425418D01*
X92565307Y83492831D01*
X92454757Y83583557D01*
X92364031Y83694107D01*
X92296618Y83820227D01*
X92255105Y83957079D01*
X92241087Y84099400D01*
X92255105Y84241721D01*
X92296618Y84378573D01*
X92364031Y84504693D01*
X92454757Y84615243D01*
X92565307Y84705969D01*
X92691427Y84773382D01*
X92828279Y84814895D01*
X92934935Y84825400D01*
X93006265Y84825400D01*
X93112921Y84814895D01*
X93112921Y84814895D01*
G37*
G36*
X-1889188Y85957776D02*
G01*
X-1725216Y85889856D01*
X-1577642Y85791250D01*
X-1452150Y85665758D01*
X-1452148Y85665755D01*
X-1452147Y85665754D01*
X-1353544Y85518184D01*
X-1285624Y85354212D01*
X-1251000Y85180141D01*
X-1251000Y85002659D01*
X-1285624Y84828588D01*
X-1336415Y84705969D01*
X-1353544Y84664616D01*
X-1452150Y84517042D01*
X-1577642Y84391550D01*
X-1577645Y84391548D01*
X-1577646Y84391547D01*
X-1725216Y84292944D01*
X-1889188Y84225024D01*
X-2063259Y84190400D01*
X-2240741Y84190400D01*
X-2414812Y84225024D01*
X-2578784Y84292944D01*
X-2726354Y84391547D01*
X-2726355Y84391548D01*
X-2726358Y84391550D01*
X-2851850Y84517042D01*
X-2950456Y84664616D01*
X-2967585Y84705969D01*
X-3018376Y84828588D01*
X-3053000Y85002659D01*
X-3053000Y85180141D01*
X-3018376Y85354212D01*
X-2950456Y85518184D01*
X-2851853Y85665754D01*
X-2851852Y85665755D01*
X-2851850Y85665758D01*
X-2726358Y85791250D01*
X-2578784Y85889856D01*
X-2414812Y85957776D01*
X-2240741Y85992400D01*
X-2063259Y85992400D01*
X-1889188Y85957776D01*
X-1889188Y85957776D01*
G37*
G36*
X-3751000Y84190400D02*
G01*
X-5553000Y84190400D01*
X-5553000Y85992400D01*
X-3751000Y85992400D01*
X-3751000Y84190400D01*
X-3751000Y84190400D01*
G37*
G36*
X64348261Y86225025D02*
G01*
X64408228Y86213097D01*
X64563100Y86148947D01*
X64629496Y86104582D01*
X64702483Y86055814D01*
X64821014Y85937283D01*
X64821015Y85937281D01*
X64914147Y85797900D01*
X64978297Y85643028D01*
X65011000Y85478616D01*
X65011000Y85310984D01*
X64978297Y85146572D01*
X64914147Y84991700D01*
X64844456Y84887400D01*
X64821014Y84852317D01*
X64702483Y84733786D01*
X64667400Y84710345D01*
X64563100Y84640653D01*
X64408228Y84576503D01*
X64243817Y84543800D01*
X64076183Y84543800D01*
X63911772Y84576503D01*
X63756900Y84640653D01*
X63652600Y84710345D01*
X63617517Y84733786D01*
X63498986Y84852317D01*
X63475544Y84887400D01*
X63405853Y84991700D01*
X63341703Y85146572D01*
X63309000Y85310984D01*
X63309000Y85478616D01*
X63341703Y85643028D01*
X63405853Y85797900D01*
X63498985Y85937281D01*
X63498986Y85937283D01*
X63617517Y86055814D01*
X63690504Y86104582D01*
X63756900Y86148947D01*
X63911772Y86213097D01*
X63971739Y86225025D01*
X64076183Y86245800D01*
X64243817Y86245800D01*
X64348261Y86225025D01*
X64348261Y86225025D01*
G37*
G36*
X40535761Y86225025D02*
G01*
X40595728Y86213097D01*
X40750600Y86148947D01*
X40816996Y86104582D01*
X40889983Y86055814D01*
X41008514Y85937283D01*
X41008515Y85937281D01*
X41101647Y85797900D01*
X41165797Y85643028D01*
X41198500Y85478616D01*
X41198500Y85310984D01*
X41165797Y85146572D01*
X41101647Y84991700D01*
X41031956Y84887400D01*
X41008514Y84852317D01*
X40889983Y84733786D01*
X40854900Y84710345D01*
X40750600Y84640653D01*
X40595728Y84576503D01*
X40431317Y84543800D01*
X40263683Y84543800D01*
X40099272Y84576503D01*
X39944400Y84640653D01*
X39840100Y84710345D01*
X39805017Y84733786D01*
X39686486Y84852317D01*
X39663044Y84887400D01*
X39593353Y84991700D01*
X39529203Y85146572D01*
X39496500Y85310984D01*
X39496500Y85478616D01*
X39529203Y85643028D01*
X39593353Y85797900D01*
X39686485Y85937281D01*
X39686486Y85937283D01*
X39805017Y86055814D01*
X39878004Y86104582D01*
X39944400Y86148947D01*
X40099272Y86213097D01*
X40159239Y86225025D01*
X40263683Y86245800D01*
X40431317Y86245800D01*
X40535761Y86225025D01*
X40535761Y86225025D01*
G37*
G36*
X43075761Y86225025D02*
G01*
X43135728Y86213097D01*
X43290600Y86148947D01*
X43356996Y86104582D01*
X43429983Y86055814D01*
X43548514Y85937283D01*
X43548515Y85937281D01*
X43641647Y85797900D01*
X43705797Y85643028D01*
X43738500Y85478616D01*
X43738500Y85310984D01*
X43705797Y85146572D01*
X43641647Y84991700D01*
X43571956Y84887400D01*
X43548514Y84852317D01*
X43429983Y84733786D01*
X43394900Y84710345D01*
X43290600Y84640653D01*
X43135728Y84576503D01*
X42971317Y84543800D01*
X42803683Y84543800D01*
X42639272Y84576503D01*
X42484400Y84640653D01*
X42380100Y84710345D01*
X42345017Y84733786D01*
X42226486Y84852317D01*
X42203044Y84887400D01*
X42133353Y84991700D01*
X42069203Y85146572D01*
X42036500Y85310984D01*
X42036500Y85478616D01*
X42069203Y85643028D01*
X42133353Y85797900D01*
X42226485Y85937281D01*
X42226486Y85937283D01*
X42345017Y86055814D01*
X42418004Y86104582D01*
X42484400Y86148947D01*
X42639272Y86213097D01*
X42699239Y86225025D01*
X42803683Y86245800D01*
X42971317Y86245800D01*
X43075761Y86225025D01*
X43075761Y86225025D01*
G37*
G36*
X37995761Y86225025D02*
G01*
X38055728Y86213097D01*
X38210600Y86148947D01*
X38276996Y86104582D01*
X38349983Y86055814D01*
X38468514Y85937283D01*
X38468515Y85937281D01*
X38561647Y85797900D01*
X38625797Y85643028D01*
X38658500Y85478616D01*
X38658500Y85310984D01*
X38625797Y85146572D01*
X38561647Y84991700D01*
X38491956Y84887400D01*
X38468514Y84852317D01*
X38349983Y84733786D01*
X38314900Y84710345D01*
X38210600Y84640653D01*
X38055728Y84576503D01*
X37891317Y84543800D01*
X37723683Y84543800D01*
X37559272Y84576503D01*
X37404400Y84640653D01*
X37300100Y84710345D01*
X37265017Y84733786D01*
X37146486Y84852317D01*
X37123044Y84887400D01*
X37053353Y84991700D01*
X36989203Y85146572D01*
X36956500Y85310984D01*
X36956500Y85478616D01*
X36989203Y85643028D01*
X37053353Y85797900D01*
X37146485Y85937281D01*
X37146486Y85937283D01*
X37265017Y86055814D01*
X37338004Y86104582D01*
X37404400Y86148947D01*
X37559272Y86213097D01*
X37619239Y86225025D01*
X37723683Y86245800D01*
X37891317Y86245800D01*
X37995761Y86225025D01*
X37995761Y86225025D01*
G37*
G36*
X19263261Y86225025D02*
G01*
X19323228Y86213097D01*
X19478100Y86148947D01*
X19544496Y86104582D01*
X19617483Y86055814D01*
X19736014Y85937283D01*
X19736015Y85937281D01*
X19829147Y85797900D01*
X19893297Y85643028D01*
X19926000Y85478616D01*
X19926000Y85310984D01*
X19893297Y85146572D01*
X19829147Y84991700D01*
X19759456Y84887400D01*
X19736014Y84852317D01*
X19617483Y84733786D01*
X19582400Y84710345D01*
X19478100Y84640653D01*
X19323228Y84576503D01*
X19158817Y84543800D01*
X18991183Y84543800D01*
X18826772Y84576503D01*
X18671900Y84640653D01*
X18567600Y84710345D01*
X18532517Y84733786D01*
X18413986Y84852317D01*
X18390544Y84887400D01*
X18320853Y84991700D01*
X18256703Y85146572D01*
X18224000Y85310984D01*
X18224000Y85478616D01*
X18256703Y85643028D01*
X18320853Y85797900D01*
X18413985Y85937281D01*
X18413986Y85937283D01*
X18532517Y86055814D01*
X18605504Y86104582D01*
X18671900Y86148947D01*
X18826772Y86213097D01*
X18886739Y86225025D01*
X18991183Y86245800D01*
X19158817Y86245800D01*
X19263261Y86225025D01*
X19263261Y86225025D01*
G37*
G36*
X21803261Y86225025D02*
G01*
X21863228Y86213097D01*
X22018100Y86148947D01*
X22084496Y86104582D01*
X22157483Y86055814D01*
X22276014Y85937283D01*
X22276015Y85937281D01*
X22369147Y85797900D01*
X22433297Y85643028D01*
X22466000Y85478616D01*
X22466000Y85310984D01*
X22433297Y85146572D01*
X22369147Y84991700D01*
X22299456Y84887400D01*
X22276014Y84852317D01*
X22157483Y84733786D01*
X22122400Y84710345D01*
X22018100Y84640653D01*
X21863228Y84576503D01*
X21698817Y84543800D01*
X21531183Y84543800D01*
X21366772Y84576503D01*
X21211900Y84640653D01*
X21107600Y84710345D01*
X21072517Y84733786D01*
X20953986Y84852317D01*
X20930544Y84887400D01*
X20860853Y84991700D01*
X20796703Y85146572D01*
X20764000Y85310984D01*
X20764000Y85478616D01*
X20796703Y85643028D01*
X20860853Y85797900D01*
X20953985Y85937281D01*
X20953986Y85937283D01*
X21072517Y86055814D01*
X21145504Y86104582D01*
X21211900Y86148947D01*
X21366772Y86213097D01*
X21426739Y86225025D01*
X21531183Y86245800D01*
X21698817Y86245800D01*
X21803261Y86225025D01*
X21803261Y86225025D01*
G37*
G36*
X16723261Y86225025D02*
G01*
X16783228Y86213097D01*
X16938100Y86148947D01*
X17004496Y86104582D01*
X17077483Y86055814D01*
X17196014Y85937283D01*
X17196015Y85937281D01*
X17289147Y85797900D01*
X17353297Y85643028D01*
X17386000Y85478616D01*
X17386000Y85310984D01*
X17353297Y85146572D01*
X17289147Y84991700D01*
X17219456Y84887400D01*
X17196014Y84852317D01*
X17077483Y84733786D01*
X17042400Y84710345D01*
X16938100Y84640653D01*
X16783228Y84576503D01*
X16618817Y84543800D01*
X16451183Y84543800D01*
X16286772Y84576503D01*
X16131900Y84640653D01*
X16027600Y84710345D01*
X15992517Y84733786D01*
X15873986Y84852317D01*
X15850544Y84887400D01*
X15780853Y84991700D01*
X15716703Y85146572D01*
X15684000Y85310984D01*
X15684000Y85478616D01*
X15716703Y85643028D01*
X15780853Y85797900D01*
X15873985Y85937281D01*
X15873986Y85937283D01*
X15992517Y86055814D01*
X16065504Y86104582D01*
X16131900Y86148947D01*
X16286772Y86213097D01*
X16346739Y86225025D01*
X16451183Y86245800D01*
X16618817Y86245800D01*
X16723261Y86225025D01*
X16723261Y86225025D01*
G37*
G36*
X59268261Y86225025D02*
G01*
X59328228Y86213097D01*
X59483100Y86148947D01*
X59549496Y86104582D01*
X59622483Y86055814D01*
X59741014Y85937283D01*
X59741015Y85937281D01*
X59834147Y85797900D01*
X59898297Y85643028D01*
X59931000Y85478616D01*
X59931000Y85310984D01*
X59898297Y85146572D01*
X59834147Y84991700D01*
X59764456Y84887400D01*
X59741014Y84852317D01*
X59622483Y84733786D01*
X59587400Y84710345D01*
X59483100Y84640653D01*
X59328228Y84576503D01*
X59163817Y84543800D01*
X58996183Y84543800D01*
X58831772Y84576503D01*
X58676900Y84640653D01*
X58572600Y84710345D01*
X58537517Y84733786D01*
X58418986Y84852317D01*
X58395544Y84887400D01*
X58325853Y84991700D01*
X58261703Y85146572D01*
X58229000Y85310984D01*
X58229000Y85478616D01*
X58261703Y85643028D01*
X58325853Y85797900D01*
X58418985Y85937281D01*
X58418986Y85937283D01*
X58537517Y86055814D01*
X58610504Y86104582D01*
X58676900Y86148947D01*
X58831772Y86213097D01*
X58891739Y86225025D01*
X58996183Y86245800D01*
X59163817Y86245800D01*
X59268261Y86225025D01*
X59268261Y86225025D01*
G37*
G36*
X61808261Y86225025D02*
G01*
X61868228Y86213097D01*
X62023100Y86148947D01*
X62089496Y86104582D01*
X62162483Y86055814D01*
X62281014Y85937283D01*
X62281015Y85937281D01*
X62374147Y85797900D01*
X62438297Y85643028D01*
X62471000Y85478616D01*
X62471000Y85310984D01*
X62438297Y85146572D01*
X62374147Y84991700D01*
X62304456Y84887400D01*
X62281014Y84852317D01*
X62162483Y84733786D01*
X62127400Y84710345D01*
X62023100Y84640653D01*
X61868228Y84576503D01*
X61703817Y84543800D01*
X61536183Y84543800D01*
X61371772Y84576503D01*
X61216900Y84640653D01*
X61112600Y84710345D01*
X61077517Y84733786D01*
X60958986Y84852317D01*
X60935544Y84887400D01*
X60865853Y84991700D01*
X60801703Y85146572D01*
X60769000Y85310984D01*
X60769000Y85478616D01*
X60801703Y85643028D01*
X60865853Y85797900D01*
X60958985Y85937281D01*
X60958986Y85937283D01*
X61077517Y86055814D01*
X61150504Y86104582D01*
X61216900Y86148947D01*
X61371772Y86213097D01*
X61431739Y86225025D01*
X61536183Y86245800D01*
X61703817Y86245800D01*
X61808261Y86225025D01*
X61808261Y86225025D01*
G37*
G36*
X13648643Y87645018D02*
G01*
X13794416Y87584637D01*
X13925608Y87496978D01*
X14037178Y87385408D01*
X14124837Y87254216D01*
X14185218Y87108443D01*
X14216000Y86953692D01*
X14216000Y86795908D01*
X14185218Y86641157D01*
X14124837Y86495384D01*
X14037178Y86364192D01*
X13925608Y86252622D01*
X13794416Y86164963D01*
X13648643Y86104582D01*
X13493892Y86073800D01*
X13336108Y86073800D01*
X13181357Y86104582D01*
X13035584Y86164963D01*
X12904392Y86252622D01*
X12792822Y86364192D01*
X12705163Y86495384D01*
X12644782Y86641157D01*
X12614000Y86795908D01*
X12614000Y86953692D01*
X12644782Y87108443D01*
X12705163Y87254216D01*
X12792822Y87385408D01*
X12904392Y87496978D01*
X13035584Y87584637D01*
X13181357Y87645018D01*
X13336108Y87675800D01*
X13493892Y87675800D01*
X13648643Y87645018D01*
X13648643Y87645018D01*
G37*
G36*
X66193643Y87645018D02*
G01*
X66339416Y87584637D01*
X66470608Y87496978D01*
X66582178Y87385408D01*
X66669837Y87254216D01*
X66730218Y87108443D01*
X66761000Y86953692D01*
X66761000Y86795908D01*
X66730218Y86641157D01*
X66669837Y86495384D01*
X66582178Y86364192D01*
X66470608Y86252622D01*
X66339416Y86164963D01*
X66193643Y86104582D01*
X66038892Y86073800D01*
X65881108Y86073800D01*
X65726357Y86104582D01*
X65580584Y86164963D01*
X65449392Y86252622D01*
X65337822Y86364192D01*
X65250163Y86495384D01*
X65189782Y86641157D01*
X65159000Y86795908D01*
X65159000Y86953692D01*
X65189782Y87108443D01*
X65250163Y87254216D01*
X65337822Y87385408D01*
X65449392Y87496978D01*
X65580584Y87584637D01*
X65726357Y87645018D01*
X65881108Y87675800D01*
X66038892Y87675800D01*
X66193643Y87645018D01*
X66193643Y87645018D01*
G37*
G36*
X56193643Y87645018D02*
G01*
X56339416Y87584637D01*
X56470608Y87496978D01*
X56582178Y87385408D01*
X56669837Y87254216D01*
X56730218Y87108443D01*
X56761000Y86953692D01*
X56761000Y86795908D01*
X56730218Y86641157D01*
X56669837Y86495384D01*
X56582178Y86364192D01*
X56470608Y86252622D01*
X56339416Y86164963D01*
X56193643Y86104582D01*
X56038892Y86073800D01*
X55881108Y86073800D01*
X55726357Y86104582D01*
X55580584Y86164963D01*
X55449392Y86252622D01*
X55337822Y86364192D01*
X55250163Y86495384D01*
X55189782Y86641157D01*
X55159000Y86795908D01*
X55159000Y86953692D01*
X55189782Y87108443D01*
X55250163Y87254216D01*
X55337822Y87385408D01*
X55449392Y87496978D01*
X55580584Y87584637D01*
X55726357Y87645018D01*
X55881108Y87675800D01*
X56038892Y87675800D01*
X56193643Y87645018D01*
X56193643Y87645018D01*
G37*
G36*
X44921143Y87645018D02*
G01*
X45066916Y87584637D01*
X45198108Y87496978D01*
X45309678Y87385408D01*
X45397337Y87254216D01*
X45457718Y87108443D01*
X45488500Y86953692D01*
X45488500Y86795908D01*
X45457718Y86641157D01*
X45397337Y86495384D01*
X45309678Y86364192D01*
X45198108Y86252622D01*
X45066916Y86164963D01*
X44921143Y86104582D01*
X44766392Y86073800D01*
X44608608Y86073800D01*
X44453857Y86104582D01*
X44308084Y86164963D01*
X44176892Y86252622D01*
X44065322Y86364192D01*
X43977663Y86495384D01*
X43917282Y86641157D01*
X43886500Y86795908D01*
X43886500Y86953692D01*
X43917282Y87108443D01*
X43977663Y87254216D01*
X44065322Y87385408D01*
X44176892Y87496978D01*
X44308084Y87584637D01*
X44453857Y87645018D01*
X44608608Y87675800D01*
X44766392Y87675800D01*
X44921143Y87645018D01*
X44921143Y87645018D01*
G37*
G36*
X34921143Y87645018D02*
G01*
X35066916Y87584637D01*
X35198108Y87496978D01*
X35309678Y87385408D01*
X35397337Y87254216D01*
X35457718Y87108443D01*
X35488500Y86953692D01*
X35488500Y86795908D01*
X35457718Y86641157D01*
X35397337Y86495384D01*
X35309678Y86364192D01*
X35198108Y86252622D01*
X35066916Y86164963D01*
X34921143Y86104582D01*
X34766392Y86073800D01*
X34608608Y86073800D01*
X34453857Y86104582D01*
X34308084Y86164963D01*
X34176892Y86252622D01*
X34065322Y86364192D01*
X33977663Y86495384D01*
X33917282Y86641157D01*
X33886500Y86795908D01*
X33886500Y86953692D01*
X33917282Y87108443D01*
X33977663Y87254216D01*
X34065322Y87385408D01*
X34176892Y87496978D01*
X34308084Y87584637D01*
X34453857Y87645018D01*
X34608608Y87675800D01*
X34766392Y87675800D01*
X34921143Y87645018D01*
X34921143Y87645018D01*
G37*
G36*
X23648643Y87645018D02*
G01*
X23794416Y87584637D01*
X23925608Y87496978D01*
X24037178Y87385408D01*
X24124837Y87254216D01*
X24185218Y87108443D01*
X24216000Y86953692D01*
X24216000Y86795908D01*
X24185218Y86641157D01*
X24124837Y86495384D01*
X24037178Y86364192D01*
X23925608Y86252622D01*
X23794416Y86164963D01*
X23648643Y86104582D01*
X23493892Y86073800D01*
X23336108Y86073800D01*
X23181357Y86104582D01*
X23035584Y86164963D01*
X22904392Y86252622D01*
X22792822Y86364192D01*
X22705163Y86495384D01*
X22644782Y86641157D01*
X22614000Y86795908D01*
X22614000Y86953692D01*
X22644782Y87108443D01*
X22705163Y87254216D01*
X22792822Y87385408D01*
X22904392Y87496978D01*
X23035584Y87584637D01*
X23181357Y87645018D01*
X23336108Y87675800D01*
X23493892Y87675800D01*
X23648643Y87645018D01*
X23648643Y87645018D01*
G37*
G36*
X-1889188Y87957776D02*
G01*
X-1725216Y87889856D01*
X-1577642Y87791250D01*
X-1452150Y87665758D01*
X-1452148Y87665755D01*
X-1452147Y87665754D01*
X-1353544Y87518184D01*
X-1285624Y87354212D01*
X-1251000Y87180141D01*
X-1251000Y87002659D01*
X-1285624Y86828588D01*
X-1353544Y86664616D01*
X-1452150Y86517042D01*
X-1577642Y86391550D01*
X-1577645Y86391548D01*
X-1577646Y86391547D01*
X-1725216Y86292944D01*
X-1889188Y86225024D01*
X-2063259Y86190400D01*
X-2240741Y86190400D01*
X-2414812Y86225024D01*
X-2578784Y86292944D01*
X-2726354Y86391547D01*
X-2726355Y86391548D01*
X-2726358Y86391550D01*
X-2851850Y86517042D01*
X-2950456Y86664616D01*
X-3018376Y86828588D01*
X-3053000Y87002659D01*
X-3053000Y87180141D01*
X-3018376Y87354212D01*
X-2950456Y87518184D01*
X-2851853Y87665754D01*
X-2851852Y87665755D01*
X-2851850Y87665758D01*
X-2726358Y87791250D01*
X-2578784Y87889856D01*
X-2414812Y87957776D01*
X-2240741Y87992400D01*
X-2063259Y87992400D01*
X-1889188Y87957776D01*
X-1889188Y87957776D01*
G37*
G36*
X-4389188Y87957776D02*
G01*
X-4225216Y87889856D01*
X-4077642Y87791250D01*
X-3952150Y87665758D01*
X-3952148Y87665755D01*
X-3952147Y87665754D01*
X-3853544Y87518184D01*
X-3785624Y87354212D01*
X-3751000Y87180141D01*
X-3751000Y87002659D01*
X-3785624Y86828588D01*
X-3853544Y86664616D01*
X-3952150Y86517042D01*
X-4077642Y86391550D01*
X-4077645Y86391548D01*
X-4077646Y86391547D01*
X-4225216Y86292944D01*
X-4389188Y86225024D01*
X-4563259Y86190400D01*
X-4740741Y86190400D01*
X-4914812Y86225024D01*
X-5078784Y86292944D01*
X-5226354Y86391547D01*
X-5226355Y86391548D01*
X-5226358Y86391550D01*
X-5351850Y86517042D01*
X-5450456Y86664616D01*
X-5518376Y86828588D01*
X-5553000Y87002659D01*
X-5553000Y87180141D01*
X-5518376Y87354212D01*
X-5450456Y87518184D01*
X-5351853Y87665754D01*
X-5351852Y87665755D01*
X-5351850Y87665758D01*
X-5226358Y87791250D01*
X-5078784Y87889856D01*
X-4914812Y87957776D01*
X-4740741Y87992400D01*
X-4563259Y87992400D01*
X-4389188Y87957776D01*
X-4389188Y87957776D01*
G37*
G36*
X3143331Y91533189D02*
G01*
X3471094Y91397426D01*
X3766075Y91200325D01*
X4016925Y90949475D01*
X4214026Y90654494D01*
X4349789Y90326731D01*
X4419000Y89978784D01*
X4419000Y89624016D01*
X4349789Y89276069D01*
X4214026Y88948306D01*
X4016925Y88653325D01*
X3766075Y88402475D01*
X3471094Y88205374D01*
X3143331Y88069611D01*
X2795384Y88000400D01*
X2440616Y88000400D01*
X2092669Y88069611D01*
X1764906Y88205374D01*
X1469925Y88402475D01*
X1219075Y88653325D01*
X1021974Y88948306D01*
X886211Y89276069D01*
X817000Y89624016D01*
X817000Y89978784D01*
X886211Y90326731D01*
X1021974Y90654494D01*
X1219075Y90949475D01*
X1469925Y91200325D01*
X1764906Y91397426D01*
X2092669Y91533189D01*
X2440616Y91602400D01*
X2795384Y91602400D01*
X3143331Y91533189D01*
X3143331Y91533189D01*
G37*
G36*
X-8896669Y91533189D02*
G01*
X-8568906Y91397426D01*
X-8273925Y91200325D01*
X-8023075Y90949475D01*
X-7825974Y90654494D01*
X-7690211Y90326731D01*
X-7621000Y89978784D01*
X-7621000Y89624016D01*
X-7690211Y89276069D01*
X-7825974Y88948306D01*
X-8023075Y88653325D01*
X-8273925Y88402475D01*
X-8568906Y88205374D01*
X-8896669Y88069611D01*
X-9244616Y88000400D01*
X-9599384Y88000400D01*
X-9947331Y88069611D01*
X-10275094Y88205374D01*
X-10570075Y88402475D01*
X-10820925Y88653325D01*
X-11018026Y88948306D01*
X-11153789Y89276069D01*
X-11223000Y89624016D01*
X-11223000Y89978784D01*
X-11153789Y90326731D01*
X-11018026Y90654494D01*
X-10820925Y90949475D01*
X-10570075Y91200325D01*
X-10275094Y91397426D01*
X-9947331Y91533189D01*
X-9599384Y91602400D01*
X-9244616Y91602400D01*
X-8896669Y91533189D01*
X-8896669Y91533189D01*
G37*
M02*
